<svg width="100" height="510" viewBox="0 0 100 510" fill="none" xmlns="http://www.w3.org/2000/svg">
<g style="mix-blend-mode:color-burn">
<path d="M27.8757 360.079C27.8768 360.278 27.8199 360.474 27.712 360.641C27.6041 360.809 27.4498 360.941 27.2679 361.022C27.2679 367.876 27.2679 374.604 27.2679 381.478C27.4498 381.56 27.6041 381.692 27.712 381.86C27.8199 382.027 27.8768 382.222 27.8757 382.421C27.8757 382.699 27.7653 382.966 27.5688 383.162C27.3723 383.359 27.1057 383.469 26.8278 383.469C26.5498 383.469 26.2833 383.359 26.0868 383.162C25.8902 382.966 25.7798 382.699 25.7798 382.421C25.7787 382.222 25.8356 382.027 25.9435 381.86C26.0514 381.692 26.2057 381.56 26.3876 381.478V361.022C26.2057 360.941 26.0514 360.809 25.9435 360.641C25.8356 360.474 25.7787 360.278 25.7798 360.079C25.7798 359.801 25.8902 359.535 26.0868 359.338C26.2833 359.142 26.5498 359.031 26.8278 359.031C27.1057 359.031 27.3723 359.142 27.5688 359.338C27.7653 359.535 27.8757 359.801 27.8757 360.079V360.079Z" fill="#1D1D1D" fill-opacity="0.52"/>
<path d="M28.2321 384.792C28.2315 384.986 28.1902 385.178 28.1107 385.355C28.0313 385.531 27.9155 385.69 27.771 385.819C28.5662 386.025 29.2692 386.493 29.7672 387.146C30.2651 387.8 30.5293 388.602 30.5172 389.423C30.5051 390.245 30.2175 391.038 29.7005 391.677C29.1836 392.316 28.4672 392.762 27.6662 392.945C27.8756 393.087 28.0399 393.286 28.1394 393.519C28.239 393.751 28.2696 394.008 28.2276 394.257C28.1857 394.507 28.0729 394.739 27.9028 394.926C27.7327 395.113 27.5123 395.248 27.268 395.313V395.481C27.4498 395.556 27.6049 395.685 27.7133 395.849C27.8216 396.013 27.8782 396.206 27.8758 396.403C27.8743 396.602 27.8163 396.796 27.7087 396.963C27.6011 397.13 27.4482 397.263 27.268 397.346C27.268 404.137 27.268 410.991 27.268 417.802C27.4806 417.894 27.6551 418.056 27.762 418.262C27.8689 418.467 27.9018 418.703 27.855 418.93C27.8082 419.156 27.6846 419.36 27.5052 419.506C27.3257 419.652 27.1012 419.732 26.8697 419.732C26.6382 419.732 26.4138 419.652 26.2343 419.506C26.0548 419.36 25.9313 419.156 25.8845 418.93C25.8377 418.703 25.8705 418.467 25.9775 418.262C26.0844 418.056 26.2589 417.894 26.4715 417.802V397.346C26.2912 397.263 26.1384 397.13 26.0307 396.963C25.9231 396.796 25.8652 396.602 25.8637 396.403C25.8612 396.206 25.9179 396.013 26.0262 395.849C26.1345 395.685 26.2896 395.556 26.4715 395.481V395.313C26.1929 395.235 25.9477 395.068 25.7735 394.837C25.5993 394.606 25.5058 394.324 25.5074 394.035C25.5081 393.821 25.5599 393.611 25.6583 393.421C25.7567 393.232 25.899 393.069 26.0733 392.945C25.2723 392.762 24.5558 392.316 24.0389 391.677C23.5219 391.038 23.2344 390.245 23.2223 389.423C23.2102 388.602 23.4743 387.8 23.9723 387.146C24.4702 386.493 25.1732 386.025 25.9685 385.819C25.8239 385.69 25.7082 385.531 25.6287 385.355C25.5493 385.178 25.5079 384.986 25.5074 384.792C25.5074 384.431 25.6509 384.084 25.9064 383.829C26.1619 383.573 26.5084 383.43 26.8697 383.43C27.231 383.43 27.5775 383.573 27.833 383.829C28.0885 384.084 28.2321 384.431 28.2321 384.792V384.792ZM23.7468 389.361C23.7533 390.13 24.0434 390.87 24.5617 391.439C25.08 392.007 25.7899 392.365 26.5553 392.442C26.5899 392.39 26.6367 392.348 26.6915 392.319C26.7463 392.29 26.8076 392.274 26.8697 392.274V392.274C26.9319 392.274 26.9931 392.29 27.048 392.319C27.1028 392.348 27.1496 392.39 27.1841 392.442C27.7799 392.377 28.3442 392.141 28.8087 391.763C29.2733 391.384 29.6181 390.879 29.8017 390.308C29.9852 389.738 29.9995 389.126 29.8429 388.548C29.6863 387.969 29.3654 387.449 28.9192 387.048C28.4729 386.648 27.9203 386.386 27.3281 386.294C26.736 386.201 26.1298 386.282 25.5826 386.527C25.0355 386.771 24.571 387.169 24.2452 387.672C23.9194 388.175 23.7463 388.762 23.7468 389.361V389.361Z" fill="#1D1D1D" fill-opacity="0.52"/>
<path d="M28.2321 421.104C28.2286 421.295 28.1859 421.482 28.1066 421.656C28.0272 421.829 27.913 421.984 27.771 422.11C28.5764 422.309 29.2907 422.774 29.7975 423.431C30.3043 424.087 30.5735 424.896 30.5614 425.726C30.5492 426.555 30.2563 427.356 29.7305 427.997C29.2047 428.639 28.477 429.083 27.6662 429.257C27.8376 429.379 27.9782 429.539 28.0765 429.725C28.1748 429.91 28.2281 430.116 28.2321 430.326C28.2314 430.618 28.1374 430.901 27.9639 431.135C27.7904 431.369 27.5465 431.541 27.268 431.626V431.773C27.4483 431.856 27.6012 431.989 27.7088 432.156C27.8164 432.323 27.8743 432.517 27.8758 432.716C27.8766 432.915 27.8169 433.11 27.7047 433.274C27.5924 433.439 27.4328 433.566 27.247 433.638C27.247 440.554 27.247 446.863 27.247 454.115C27.4596 454.206 27.6341 454.369 27.7411 454.574C27.848 454.779 27.8809 455.015 27.8341 455.242C27.7873 455.469 27.6638 455.672 27.4843 455.819C27.3048 455.965 27.0803 456.045 26.8488 456.045C26.6173 456.045 26.3929 455.965 26.2134 455.819C26.0339 455.672 25.9103 455.469 25.8635 455.242C25.8168 455.015 25.8496 454.779 25.9565 454.574C26.0635 454.369 26.238 454.206 26.4506 454.115V433.638C26.2711 433.56 26.1184 433.431 26.0111 433.267C25.9038 433.103 25.8466 432.911 25.8466 432.716C25.8466 432.52 25.9038 432.328 26.0111 432.164C26.1184 432.001 26.2711 431.872 26.4506 431.793V431.626C26.2063 431.56 25.9859 431.426 25.8158 431.238C25.6456 431.051 25.5329 430.819 25.4909 430.57C25.4489 430.32 25.4796 430.064 25.5791 429.831C25.6786 429.598 25.8429 429.399 26.0524 429.257C25.2416 429.083 24.5139 428.639 23.9881 427.997C23.4623 427.356 23.1694 426.555 23.1572 425.726C23.1451 424.896 23.4143 424.087 23.9211 423.431C24.4279 422.774 25.1422 422.309 25.9476 422.11C25.7764 421.959 25.6459 421.768 25.5681 421.553C25.4903 421.339 25.4677 421.108 25.5024 420.882C25.537 420.656 25.6278 420.443 25.7664 420.262C25.905 420.08 26.087 419.937 26.2956 419.844C26.5042 419.751 26.7328 419.712 26.9603 419.731C27.1879 419.75 27.4071 419.825 27.5978 419.951C27.7885 420.076 27.9446 420.248 28.0518 420.449C28.159 420.651 28.2138 420.876 28.2112 421.104H28.2321ZM23.7469 425.673C23.7469 426.291 23.9301 426.895 24.2732 427.408C24.6163 427.922 25.1041 428.322 25.6747 428.559C26.2453 428.795 26.8732 428.857 27.479 428.736C28.0848 428.616 28.6413 428.318 29.078 427.882C29.5147 427.445 29.8122 426.889 29.9327 426.283C30.0532 425.677 29.9913 425.049 29.7549 424.478C29.5186 423.908 29.1183 423.42 28.6048 423.077C28.0912 422.734 27.4874 422.551 26.8698 422.551C26.4507 422.55 26.0359 422.634 25.65 422.798C25.2641 422.961 24.9151 423.201 24.6237 423.502C24.3323 423.803 24.1045 424.16 23.9538 424.551C23.8032 424.942 23.7328 425.359 23.7469 425.778V425.673Z" fill="#1D1D1D" fill-opacity="0.52"/>
<path d="M28.2321 457.409C28.2315 457.603 28.1902 457.795 28.1107 457.972C28.0313 458.149 27.9155 458.307 27.771 458.436C28.5662 458.643 29.2692 459.11 29.7672 459.763C30.2651 460.417 30.5293 461.219 30.5172 462.04C30.5051 462.862 30.2175 463.656 29.7005 464.294C29.1836 464.933 28.4672 465.379 27.6662 465.562C27.8999 465.731 28.0743 465.969 28.1641 466.243C28.254 466.517 28.2547 466.812 28.1662 467.086C28.0777 467.36 27.9045 467.599 27.6716 467.769C27.4386 467.938 27.1579 468.03 26.8697 468.03C26.5816 468.03 26.3008 467.938 26.0679 467.769C25.8349 467.599 25.6618 467.36 25.5733 467.086C25.4848 466.812 25.4855 466.517 25.5753 466.243C25.6652 465.969 25.8395 465.731 26.0733 465.562C25.2723 465.379 24.5558 464.933 24.0389 464.294C23.5219 463.656 23.2344 462.862 23.2223 462.04C23.2102 461.219 23.4743 460.417 23.9723 459.763C24.4702 459.11 25.1732 458.643 25.9685 458.436C25.8239 458.307 25.7082 458.149 25.6287 457.972C25.5493 457.795 25.5079 457.603 25.5074 457.409C25.5074 457.048 25.6509 456.701 25.9064 456.446C26.1619 456.19 26.5084 456.047 26.8697 456.047C27.231 456.047 27.5775 456.19 27.833 456.446C28.0885 456.701 28.2321 457.048 28.2321 457.409V457.409ZM23.7468 461.978C23.7427 462.597 23.9223 463.203 24.2629 463.719C24.6035 464.235 25.0898 464.639 25.6601 464.878C26.2303 465.118 26.8589 465.183 27.466 465.065C28.0732 464.947 28.6316 464.651 29.0704 464.215C29.5093 463.779 29.8088 463.223 29.931 462.616C30.0532 462.01 29.9926 461.381 29.7568 460.809C29.5211 460.237 29.1209 459.748 28.6069 459.404C28.0929 459.06 27.4883 458.876 26.8697 458.876C26.0451 458.876 25.2539 459.202 24.6689 459.784C24.0838 460.365 23.7524 461.154 23.7468 461.978V461.978Z" fill="#1D1D1D" fill-opacity="0.52"/>
<path d="M27.8757 469.048C27.8781 469.245 27.8215 469.438 27.7132 469.602C27.6048 469.767 27.4497 469.895 27.2679 469.97C27.2679 473.764 27.2679 479.402 27.2679 482.839C27.2679 482.945 27.2259 483.046 27.1512 483.121C27.0765 483.195 26.9752 483.237 26.8696 483.237C26.764 483.237 26.6627 483.195 26.588 483.121C26.5134 483.046 26.4714 482.945 26.4714 482.839V469.97C26.2895 469.895 26.1344 469.767 26.0261 469.602C25.9178 469.438 25.8611 469.245 25.8636 469.048C25.8636 468.77 25.974 468.503 26.1705 468.307C26.3671 468.11 26.6336 468 26.9115 468C27.1895 468 27.456 468.11 27.6526 468.307C27.8491 468.503 27.9595 468.77 27.9595 469.048H27.8757Z" fill="#1D1D1D" fill-opacity="0.52"/>
<path d="M27.8757 214.883C27.8781 215.08 27.8215 215.273 27.7132 215.437C27.6048 215.601 27.4497 215.73 27.2679 215.805C27.2679 222.658 27.2679 229.386 27.2679 236.282C27.4805 236.373 27.655 236.536 27.7619 236.741C27.8688 236.946 27.9017 237.182 27.8549 237.409C27.8081 237.636 27.6846 237.839 27.5051 237.986C27.3256 238.132 27.1012 238.212 26.8696 238.212C26.6381 238.212 26.4137 238.132 26.2342 237.986C26.0547 237.839 25.9312 237.636 25.8844 237.409C25.8376 237.182 25.8704 236.946 25.9774 236.741C26.0843 236.536 26.2588 236.373 26.4714 236.282V215.805C26.3046 215.733 26.1604 215.617 26.054 215.47C25.9477 215.323 25.8832 215.149 25.8674 214.968C25.8516 214.788 25.8851 214.606 25.9643 214.442C26.0435 214.279 26.1656 214.14 26.3174 214.04C26.4692 213.94 26.6452 213.884 26.8267 213.876C27.0082 213.868 27.1884 213.91 27.3481 213.996C27.5079 214.082 27.6413 214.211 27.7342 214.367C27.8271 214.523 27.876 214.701 27.8757 214.883V214.883Z" fill="#1D1D1D" fill-opacity="0.52"/>
<path d="M23.2019 207.816C23.2038 206.999 23.4764 206.207 23.9771 205.562C24.4777 204.917 25.1781 204.457 25.9685 204.252C25.8265 204.126 25.7123 203.971 25.6329 203.798C25.5536 203.624 25.5108 203.437 25.5074 203.246C25.5074 202.885 25.6509 202.539 25.9064 202.283C26.1619 202.028 26.5084 201.884 26.8697 201.884H26.5344C26.3541 201.801 26.2012 201.668 26.0936 201.501C25.986 201.334 25.9281 201.14 25.9266 200.941C25.9241 200.744 25.9807 200.551 26.0891 200.387C26.1974 200.222 26.3525 200.094 26.5344 200.019V179.5C26.3541 179.417 26.2012 179.284 26.0936 179.117C25.986 178.95 25.9281 178.755 25.9266 178.557C25.9241 178.36 25.9807 178.167 26.0891 178.002C26.1974 177.838 26.3525 177.71 26.5344 177.635V177.467C26.29 177.401 26.0697 177.267 25.8995 177.08C25.7294 176.892 25.6166 176.66 25.5747 176.411C25.5327 176.161 25.5633 175.905 25.6629 175.672C25.7624 175.44 25.9267 175.24 26.1361 175.099C25.3351 174.916 24.6187 174.469 24.1018 173.831C23.5848 173.192 23.2972 172.398 23.2851 171.577C23.2731 170.755 23.5372 169.953 24.0351 169.3C24.5331 168.646 25.2361 168.179 26.0313 167.973C25.8868 167.843 25.771 167.685 25.6916 167.508C25.6122 167.331 25.5708 167.139 25.5702 166.946C25.5689 166.651 25.6646 166.364 25.8427 166.129C26.0207 165.894 26.2712 165.724 26.5553 165.646C26.5553 165.646 26.5553 165.646 26.5553 165.646C26.3735 165.571 26.2184 165.443 26.11 165.278C26.0017 165.114 25.9451 164.921 25.9475 164.724C25.949 164.525 26.0069 164.331 26.1146 164.164C26.2222 163.997 26.375 163.864 26.5553 163.781V144.289C26.5553 144.183 26.5973 144.082 26.672 144.007C26.7466 143.933 26.8479 143.891 26.9535 143.891C27.0592 143.891 27.1605 143.933 27.2351 144.007C27.3098 144.082 27.3518 144.183 27.3518 144.289V163.781C27.5321 163.864 27.6849 163.997 27.7925 164.164C27.9001 164.331 27.9581 164.525 27.9596 164.724C27.962 164.921 27.9054 165.114 27.7971 165.278C27.6887 165.443 27.5336 165.571 27.3518 165.646V165.646C27.6359 165.724 27.8864 165.894 28.0644 166.129C28.2425 166.364 28.3382 166.651 28.3368 166.946C28.3363 167.139 28.2949 167.331 28.2155 167.508C28.136 167.685 28.0203 167.843 27.8757 167.973C28.671 168.179 29.374 168.646 29.872 169.3C30.3699 169.953 30.634 170.755 30.6219 171.577C30.6099 172.398 30.3223 173.192 29.8053 173.831C29.2884 174.469 28.572 174.916 27.7709 175.099C27.9804 175.24 28.1447 175.44 28.2442 175.672C28.3438 175.905 28.3744 176.161 28.3324 176.411C28.2905 176.66 28.1777 176.892 28.0076 177.08C27.8374 177.267 27.6171 177.401 27.3727 177.467V177.635C27.5546 177.71 27.7097 177.838 27.8181 178.002C27.9264 178.167 27.983 178.36 27.9805 178.557C27.9791 178.755 27.9211 178.95 27.8135 179.117C27.7059 179.284 27.553 179.417 27.3727 179.5V199.956C27.5546 200.031 27.7097 200.159 27.8181 200.324C27.9264 200.488 27.983 200.681 27.9805 200.878C27.9791 201.077 27.9211 201.271 27.8135 201.438C27.7059 201.605 27.553 201.738 27.3727 201.821H26.9745C27.3358 201.821 27.6823 201.965 27.9378 202.22C28.1933 202.476 28.3368 202.822 28.3368 203.184C28.3334 203.374 28.2906 203.562 28.2113 203.735C28.1319 203.908 28.0177 204.063 27.8757 204.19C28.6811 204.388 29.3954 204.853 29.9022 205.51C30.409 206.167 30.6783 206.975 30.6661 207.805C30.6539 208.634 30.3611 209.435 29.8352 210.076C29.3094 210.718 28.5818 211.162 27.7709 211.337C27.9424 211.458 28.0829 211.618 28.1812 211.804C28.2795 211.989 28.3328 212.196 28.3368 212.406C28.3368 212.767 28.1933 213.113 27.9378 213.369C27.6823 213.624 27.3358 213.768 26.9745 213.768C26.6132 213.768 26.2667 213.624 26.0112 213.369C25.7557 213.113 25.6122 212.767 25.6122 212.406C25.6162 212.196 25.6695 211.989 25.7678 211.804C25.8661 211.618 26.0066 211.458 26.1781 211.337C25.3558 211.175 24.6131 210.738 24.0721 210.098C23.5312 209.458 23.2243 208.653 23.2019 207.816V207.816ZM29.9926 171.494C29.9926 170.876 29.8095 170.272 29.4663 169.759C29.1232 169.245 28.6354 168.845 28.0648 168.608C27.4942 168.372 26.8662 168.31 26.2605 168.431C25.6547 168.551 25.0983 168.849 24.6615 169.285C24.2248 169.722 23.9273 170.279 23.8068 170.884C23.6863 171.49 23.7482 172.118 23.9845 172.689C24.2209 173.259 24.6212 173.747 25.1347 174.09C25.6483 174.433 26.2521 174.616 26.8697 174.616C27.6943 174.617 28.4855 174.29 29.0706 173.709C29.6556 173.128 29.9871 172.339 29.9926 171.515V171.494ZM26.8697 210.938C27.4874 210.938 28.0911 210.755 28.6047 210.412C29.1182 210.069 29.5185 209.581 29.7549 209.011C29.9912 208.44 30.0531 207.812 29.9326 207.206C29.8121 206.601 29.5147 206.044 29.0779 205.607C28.6412 205.171 28.0847 204.873 27.479 204.753C26.8732 204.632 26.2453 204.694 25.6746 204.93C25.104 205.167 24.6163 205.567 24.2731 206.081C23.93 206.594 23.7468 207.198 23.7468 207.816C23.7441 208.227 23.8228 208.636 23.9785 209.017C24.1342 209.398 24.3638 209.745 24.6541 210.037C24.9443 210.33 25.2895 210.561 25.6698 210.72C26.05 210.878 26.4579 210.959 26.8697 210.959V210.938Z" fill="#1D1D1D" fill-opacity="0.52"/>
<path d="M28.2321 239.589C28.2286 239.779 28.1858 239.967 28.1065 240.14C28.0272 240.313 27.9129 240.468 27.771 240.595C28.5662 240.801 29.2692 241.269 29.7672 241.922C30.2651 242.576 30.5293 243.378 30.5172 244.199C30.5051 245.021 30.2175 245.814 29.7005 246.453C29.1836 247.092 28.4672 247.538 27.6662 247.721C27.838 247.847 27.9785 248.011 28.0767 248.2C28.1748 248.389 28.228 248.598 28.2321 248.811C28.2313 249.102 28.1373 249.385 27.9638 249.619C27.7903 249.853 27.5464 250.025 27.268 250.11V250.257C27.4482 250.34 27.6011 250.473 27.7087 250.64C27.8163 250.807 27.8743 251.002 27.8758 251.2C27.8782 251.397 27.8216 251.59 27.7133 251.754C27.6049 251.919 27.4498 252.047 27.268 252.122C27.268 258.934 27.268 265.767 27.268 272.578C27.4482 272.662 27.6011 272.795 27.7087 272.962C27.8163 273.129 27.8743 273.323 27.8758 273.521C27.8758 273.799 27.7654 274.066 27.5688 274.262C27.3723 274.459 27.1057 274.569 26.8278 274.569C26.5499 274.569 26.2833 274.459 26.0868 274.262C25.8903 274.066 25.7799 273.799 25.7799 273.521C25.7814 273.323 25.8393 273.129 25.9469 272.962C26.0545 272.795 26.2074 272.662 26.3877 272.578V252.122C26.2058 252.047 26.0507 251.919 25.9424 251.754C25.834 251.59 25.7774 251.397 25.7799 251.2C25.7814 251.002 25.8393 250.807 25.9469 250.64C26.0545 250.473 26.2074 250.34 26.3877 250.257V250.11C26.1074 250.028 25.8616 249.857 25.6876 249.622C25.5136 249.388 25.4209 249.103 25.4236 248.811C25.4276 248.598 25.4808 248.389 25.5789 248.2C25.6771 248.011 25.8176 247.847 25.9895 247.721C25.1884 247.538 24.472 247.092 23.9551 246.453C23.4381 245.814 23.1505 245.021 23.1384 244.199C23.1263 243.378 23.3905 242.576 23.8884 241.922C24.3864 241.269 25.0894 240.801 25.8847 240.595C25.7427 240.468 25.6285 240.313 25.5491 240.14C25.4698 239.967 25.427 239.779 25.4236 239.589C25.4236 239.228 25.5671 238.881 25.8226 238.626C26.0781 238.37 26.4246 238.227 26.7859 238.227C27.1472 238.227 27.4937 238.37 27.7492 238.626C28.0047 238.881 28.1482 239.228 28.1482 239.589H28.2321ZM23.7468 244.137C23.7475 244.907 24.0325 245.649 24.5469 246.221C25.0614 246.794 25.7692 247.156 26.5344 247.239C26.5678 247.185 26.6139 247.139 26.6686 247.106C26.7233 247.073 26.7851 247.054 26.8488 247.05V247.05C26.9124 247.054 26.9743 247.073 27.029 247.106C27.0837 247.139 27.1297 247.185 27.1632 247.239C27.7581 247.174 28.3216 246.939 28.7857 246.561C29.2499 246.183 29.5948 245.679 29.7791 245.11C29.9633 244.541 29.9789 243.93 29.8239 243.352C29.669 242.774 29.3502 242.253 28.9059 241.852C28.4617 241.451 27.9109 241.188 27.3201 241.093C26.7292 240.998 26.1235 241.076 25.576 241.317C25.0284 241.559 24.5625 241.953 24.2342 242.454C23.9059 242.954 23.7294 243.539 23.7259 244.137H23.7468Z" fill="#1D1D1D" fill-opacity="0.52"/>
<path d="M28.2321 275.886C28.2315 276.08 28.1902 276.271 28.1108 276.448C28.0313 276.625 27.9155 276.783 27.771 276.913C28.5663 277.119 29.2692 277.587 29.7672 278.24C30.2652 278.894 30.5293 279.695 30.5172 280.517C30.5051 281.338 30.2175 282.132 29.7006 282.771C29.1836 283.409 28.4672 283.856 27.6662 284.039C27.8756 284.181 28.0399 284.38 28.1395 284.612C28.239 284.845 28.2696 285.101 28.2277 285.351C28.1857 285.6 28.073 285.833 27.9028 286.02C27.7327 286.207 27.5123 286.342 27.268 286.407V286.575C27.4499 286.65 27.605 286.778 27.7133 286.943C27.8216 287.107 27.8782 287.3 27.8758 287.497C27.8779 287.699 27.8191 287.897 27.7069 288.066C27.5947 288.234 27.4345 288.364 27.247 288.44V289.32V308.833C27.4289 308.909 27.584 309.037 27.6923 309.201C27.8007 309.366 27.8573 309.559 27.8548 309.755V309.755C27.8559 309.955 27.799 310.15 27.6911 310.317C27.5832 310.485 27.4289 310.617 27.247 310.699C27.5312 310.777 27.7816 310.947 27.9597 311.181C28.1377 311.416 28.2335 311.703 28.2321 311.998V311.998C28.2349 312.182 28.199 312.365 28.1268 312.535C28.0546 312.705 27.9477 312.857 27.8129 312.983C28.5938 313.191 29.2843 313.651 29.777 314.291C30.2697 314.932 30.5371 315.717 30.5376 316.525V316.525C30.5396 317.352 30.2607 318.155 29.7466 318.802C29.2325 319.449 28.5137 319.903 27.7081 320.088C27.869 320.212 27.9998 320.37 28.0906 320.552C28.1813 320.734 28.2297 320.933 28.2321 321.136V321.136C28.2269 321.424 28.1309 321.702 27.9577 321.932C27.7845 322.162 27.5431 322.331 27.268 322.415C27.4483 322.498 27.6011 322.631 27.7088 322.798C27.8164 322.965 27.8743 323.159 27.8758 323.358V323.358C27.8782 323.555 27.8216 323.748 27.7133 323.912C27.605 324.077 27.4499 324.205 27.268 324.28V344.694C27.4483 344.778 27.6011 344.91 27.7088 345.077C27.8164 345.244 27.8743 345.439 27.8758 345.637C27.8782 345.834 27.8216 346.027 27.7133 346.192C27.605 346.356 27.4499 346.484 27.268 346.559V346.559H26.8698C27.0487 346.559 27.2258 346.595 27.3911 346.663C27.5564 346.732 27.7066 346.832 27.8331 346.958C27.9596 347.085 28.0599 347.235 28.1284 347.4C28.1969 347.566 28.2321 347.743 28.2321 347.922C28.2315 348.116 28.1902 348.307 28.1108 348.484C28.0313 348.661 27.9155 348.819 27.771 348.949C28.5663 349.155 29.2692 349.623 29.7672 350.276C30.2652 350.93 30.5293 351.731 30.5172 352.553C30.5051 353.375 30.2175 354.168 29.7006 354.807C29.1836 355.445 28.4672 355.892 27.6662 356.075C27.9 356.243 28.0743 356.482 28.1642 356.755C28.254 357.029 28.2547 357.324 28.1662 357.599C28.0777 357.873 27.9045 358.112 27.6716 358.281C27.4386 358.451 27.1579 358.542 26.8698 358.542C26.5816 358.542 26.3009 358.451 26.0679 358.281C25.835 358.112 25.6618 357.873 25.5733 357.599C25.4848 357.324 25.4855 357.029 25.5753 356.755C25.6652 356.482 25.8395 356.243 26.0733 356.075C25.2723 355.892 24.5559 355.445 24.0389 354.807C23.522 354.168 23.2344 353.375 23.2223 352.553C23.2102 351.731 23.4743 350.93 23.9723 350.276C24.4703 349.623 25.1732 349.155 25.9685 348.949C25.824 348.819 25.7082 348.661 25.6288 348.484C25.5493 348.307 25.508 348.116 25.5074 347.922C25.5074 347.56 25.6509 347.214 25.9064 346.958C26.1619 346.703 26.5085 346.559 26.8698 346.559H26.5344C26.3525 346.484 26.1975 346.356 26.0891 346.192C25.9808 346.027 25.9242 345.834 25.9266 345.637C25.9281 345.439 25.986 345.244 26.0937 345.077C26.2013 344.91 26.3541 344.778 26.5344 344.694V324.28C26.3525 324.205 26.1975 324.077 26.0891 323.912C25.9808 323.748 25.9242 323.555 25.9266 323.358V323.358C25.9281 323.159 25.986 322.965 26.0937 322.798C26.2013 322.631 26.3541 322.498 26.5344 322.415C26.2593 322.331 26.0179 322.162 25.8447 321.932C25.6715 321.702 25.5754 321.424 25.5703 321.136V321.136C25.5727 320.933 25.6211 320.734 25.7118 320.552C25.8026 320.37 25.9333 320.212 26.0943 320.088C25.2886 319.903 24.5699 319.449 24.0558 318.802C23.5417 318.155 23.2628 317.352 23.2648 316.525V316.525C23.2653 315.717 23.5327 314.932 24.0254 314.291C24.5181 313.651 25.2086 313.191 25.9895 312.983C25.8547 312.857 25.7478 312.705 25.6756 312.535C25.6034 312.365 25.5675 312.182 25.5703 311.998V311.998C25.5689 311.703 25.6646 311.416 25.8427 311.181C26.0208 310.947 26.2712 310.777 26.5554 310.699C26.5554 310.699 26.5554 310.699 26.5554 310.699C26.3735 310.617 26.2192 310.485 26.1113 310.317C26.0034 310.15 25.9465 309.955 25.9476 309.755C25.9451 309.559 26.0017 309.366 26.1101 309.201C26.2184 309.037 26.3735 308.909 26.5554 308.833V288.44C26.3751 288.357 26.2222 288.224 26.1146 288.057C26.007 287.89 25.9491 287.696 25.9476 287.497C25.9451 287.3 26.0017 287.107 26.1101 286.943C26.2184 286.778 26.3735 286.65 26.5554 286.575V286.407C26.2768 286.329 26.0316 286.162 25.8574 285.931C25.6832 285.7 25.5897 285.418 25.5913 285.129C25.592 284.915 25.6437 284.705 25.7422 284.515C25.8406 284.326 25.9829 284.162 26.1572 284.039C25.3562 283.856 24.6397 283.409 24.1228 282.771C23.6058 282.132 23.3182 281.338 23.3061 280.517C23.2941 279.695 23.5582 278.894 24.0562 278.24C24.5541 277.587 25.2571 277.119 26.0524 276.913C25.9078 276.783 25.792 276.625 25.7126 276.448C25.6332 276.271 25.5918 276.08 25.5913 275.886C25.5913 275.524 25.7348 275.178 25.9903 274.922C26.2458 274.667 26.5923 274.523 26.9536 274.523C27.3149 274.523 27.6614 274.667 27.9169 274.922C28.1724 275.178 28.3159 275.524 28.3159 275.886H28.2321ZM23.7469 353.036C23.7427 353.654 23.9223 354.26 24.2629 354.776C24.6036 355.293 25.0898 355.696 25.6601 355.936C26.2303 356.175 26.8589 356.24 27.466 356.122C28.0732 356.004 28.6316 355.708 29.0705 355.272C29.5093 354.836 29.8088 354.28 29.931 353.674C30.0532 353.067 29.9926 352.438 29.7569 351.867C29.5211 351.295 29.1209 350.806 28.6069 350.462C28.0929 350.118 27.4883 349.934 26.8698 349.934C26.0451 349.934 25.254 350.26 24.6689 350.841C24.0838 351.422 23.7524 352.211 23.7469 353.036V353.036ZM26.8698 319.837C27.4832 319.833 28.0817 319.647 28.5895 319.302C29.0973 318.958 29.4916 318.471 29.7225 317.903C29.9534 317.334 30.0107 316.71 29.8869 316.109C29.7632 315.508 29.464 314.958 29.0273 314.527C28.5905 314.096 28.0358 313.804 27.4333 313.689C26.8308 313.573 26.2076 313.639 25.6424 313.877C25.0772 314.116 24.5954 314.517 24.258 315.029C23.9206 315.541 23.7427 316.142 23.7469 316.756C23.7579 317.577 24.0918 318.36 24.6762 318.937C25.2607 319.514 26.0487 319.837 26.8698 319.837V319.837ZM23.7469 280.455C23.7469 281.072 23.93 281.676 24.2732 282.19C24.6163 282.703 25.104 283.104 25.6747 283.34C26.2453 283.576 26.8732 283.638 27.479 283.518C28.0848 283.397 28.6412 283.1 29.078 282.663C29.5147 282.226 29.8121 281.67 29.9326 281.064C30.0531 280.458 29.9913 279.83 29.7549 279.26C29.5186 278.689 29.1183 278.201 28.6047 277.858C28.0912 277.515 27.4874 277.332 26.8698 277.332C26.0415 277.332 25.2472 277.661 24.6615 278.247C24.0759 278.832 23.7469 279.627 23.7469 280.455Z" fill="#1D1D1D" fill-opacity="0.52"/>
<path d="M0.440571 490.995C0.142638 490.449 -0.00900108 489.836 0.000417865 489.214C0.0257695 488.446 0.305994 487.709 0.796869 487.118C1.13554 486.694 1.53866 486.327 1.99151 486.028C2.72704 485.544 3.51441 485.143 4.33894 484.833C5.80347 484.285 7.31059 483.857 8.84511 483.555C11.8022 482.977 14.7904 482.571 17.7946 482.339C23.7482 481.837 29.7307 481.774 35.6936 482.151C38.6983 482.332 41.6879 482.71 44.6431 483.282C46.1744 483.57 47.6811 483.976 49.1492 484.498C49.9337 484.77 50.6914 485.114 51.4128 485.525C51.6224 485.672 51.832 485.798 52.0416 485.965C52.7839 485.302 53.3812 484.492 53.7959 483.587C54.2107 482.681 54.434 481.7 54.4519 480.705C54.4397 479.426 54.191 478.161 53.7183 476.974C53.1675 475.694 52.5157 474.461 51.7691 473.285C50.1716 470.633 49.0177 467.737 48.3528 464.713C48.0209 463.203 47.8245 461.667 47.766 460.123C47.766 459.515 47.766 458.928 47.766 458.341C46.6054 459.303 45.5577 460.392 44.6431 461.59C43.143 463.53 42.1631 465.82 41.7963 468.245C41.4295 470.669 41.688 473.147 42.5472 475.444C43.46 477.825 44.892 479.973 46.739 481.732V481.732C46.778 481.783 46.7992 481.845 46.7992 481.91C46.7992 481.974 46.778 482.037 46.739 482.088C46.6847 482.138 46.6136 482.166 46.5398 482.166C46.466 482.166 46.3949 482.138 46.3407 482.088C44.3248 480.37 42.7204 478.221 41.6459 475.8C40.5487 473.341 40.0943 470.644 40.3255 467.961C40.5931 465.246 41.5292 462.639 43.0502 460.374C44.552 458.093 46.4721 456.116 48.7091 454.548V454.548L51.0146 453.102L50.5954 455.868C50.2459 458.613 50.4094 461.399 51.0775 464.084C51.7169 466.804 52.8079 469.396 54.3051 471.755C56.2425 474.347 57.3725 477.453 57.5538 480.684C57.5638 482.43 57.1003 484.147 56.2124 485.651C55.572 486.783 54.7507 487.802 53.7812 488.669C53.8012 491.816 53.0834 494.924 51.6853 497.744C50.27 500.628 48.1418 503.102 45.5024 504.933C40.1812 507.973 34.185 509.637 28.0581 509.772C21.9312 509.907 15.8674 508.511 10.417 505.709C7.81795 504.138 5.57271 502.046 3.82309 499.564C2.07347 497.082 0.857512 494.264 0.251947 491.289C0.213037 491.264 0.185627 491.224 0.175801 491.179C0.165975 491.134 0.174517 491.087 0.199531 491.048C0.224545 491.009 0.263992 490.982 0.309193 490.972C0.354395 490.962 0.40166 490.97 0.440571 490.995V490.995ZM48.0594 487.558C46.7354 487.137 45.3838 486.807 44.0143 486.573C41.1839 486.098 38.3289 485.783 35.463 485.63C29.6798 485.295 23.88 485.379 18.109 485.881C15.2518 486.125 12.4107 486.531 9.59964 487.097C8.25022 487.364 6.92527 487.743 5.63839 488.229C5.07777 488.43 4.54308 488.698 4.04552 489.025C3.90144 489.123 3.76797 489.235 3.64729 489.361C3.74167 489.501 3.85447 489.628 3.98264 489.738C4.43013 490.079 4.92419 490.354 5.44977 490.555C6.72074 491.051 8.032 491.437 9.36909 491.708C12.1699 492.271 15.006 492.643 17.8575 492.819C23.6188 493.197 29.4034 493.008 35.1277 492.253C37.9637 491.874 40.7664 491.279 43.5113 490.471C45.5236 489.878 47.4637 489.062 49.296 488.04L48.0594 487.558ZM11.0249 504.724C16.2434 507.403 22.1186 508.538 27.9597 507.993C33.7429 507.902 39.3738 506.125 44.161 502.879C46.3819 501.215 48.136 499.006 49.254 496.466C49.8161 495.206 50.2242 493.883 50.4696 492.525C50.4696 491.98 50.6373 491.394 50.6793 490.828C48.6831 491.94 46.5756 492.839 44.3916 493.51C41.4981 494.393 38.5412 495.051 35.5469 495.481C29.6056 496.318 23.5966 496.571 17.606 496.235C14.5805 496.078 11.5694 495.713 8.59361 495.145C7.04385 494.84 5.52247 494.406 4.04552 493.846C3.19561 493.515 2.39791 493.063 1.67714 492.504C1.35241 492.229 1.05739 491.919 0.796869 491.582C1.53914 494.344 2.82643 496.93 4.58296 499.186C6.33949 501.443 8.52978 503.326 11.0249 504.724V504.724Z" fill="#1D1D1D" fill-opacity="0.52"/>
</g>
<g style="mix-blend-mode:color-burn">
<path d="M70.3218 216.189C70.3228 216.388 70.266 216.583 70.1581 216.75C70.0501 216.918 69.8958 217.05 69.714 217.132C69.714 223.985 69.714 230.713 69.714 237.588C69.8958 237.669 70.0501 237.801 70.1581 237.969C70.266 238.136 70.3228 238.332 70.3218 238.531C70.3218 238.809 70.2114 239.075 70.0148 239.272C69.8183 239.468 69.5517 239.579 69.2738 239.579C68.9959 239.579 68.7293 239.468 68.5328 239.272C68.3363 239.075 68.2259 238.809 68.2259 238.531C68.2248 238.332 68.2817 238.136 68.3896 237.969C68.4975 237.801 68.6518 237.669 68.8337 237.588V217.132C68.6518 217.05 68.4975 216.918 68.3896 216.75C68.2817 216.583 68.2248 216.388 68.2259 216.189C68.2259 215.911 68.3363 215.644 68.5328 215.448C68.7293 215.251 68.9959 215.141 69.2738 215.141C69.5517 215.141 69.8183 215.251 70.0148 215.448C70.2114 215.644 70.3218 215.911 70.3218 216.189V216.189Z" fill="#1D1D1D" fill-opacity="0.52"/>
<path d="M70.6781 240.901C70.6775 241.095 70.6362 241.287 70.5568 241.464C70.4773 241.641 70.3616 241.799 70.217 241.928C71.0123 242.135 71.7153 242.602 72.2132 243.256C72.7112 243.909 72.9753 244.711 72.9632 245.533C72.9511 246.354 72.6636 247.148 72.1466 247.786C71.6296 248.425 70.9132 248.872 70.1122 249.054C70.3217 249.196 70.4859 249.395 70.5855 249.628C70.685 249.861 70.7156 250.117 70.6737 250.367C70.6317 250.616 70.519 250.848 70.3489 251.036C70.1787 251.223 69.9584 251.357 69.714 251.423V251.59C69.8959 251.666 70.051 251.794 70.1593 251.958C70.2676 252.123 70.3242 252.316 70.3218 252.513C70.3203 252.711 70.2624 252.905 70.1548 253.072C70.0471 253.239 69.8943 253.372 69.714 253.456C69.714 260.247 69.714 267.1 69.714 273.912C69.9266 274.003 70.1011 274.166 70.208 274.371C70.315 274.576 70.3478 274.812 70.301 275.039C70.2543 275.266 70.1307 275.469 69.9512 275.616C69.7717 275.762 69.5473 275.842 69.3158 275.842C69.0843 275.842 68.8598 275.762 68.6803 275.616C68.5008 275.469 68.3773 275.266 68.3305 275.039C68.2837 274.812 68.3166 274.576 68.4235 274.371C68.5305 274.166 68.7049 274.003 68.9176 273.912V253.456C68.7373 253.372 68.5844 253.239 68.4768 253.072C68.3692 252.905 68.3112 252.711 68.3097 252.513C68.3073 252.316 68.3639 252.123 68.4722 251.958C68.5806 251.794 68.7357 251.666 68.9176 251.59V251.423C68.639 251.345 68.3938 251.177 68.2196 250.946C68.0454 250.715 67.9519 250.434 67.9534 250.144C67.9542 249.931 68.0059 249.72 68.1043 249.531C68.2028 249.341 68.345 249.178 68.5193 249.054C67.7183 248.872 67.0019 248.425 66.4849 247.786C65.968 247.148 65.6804 246.354 65.6683 245.533C65.6562 244.711 65.9203 243.909 66.4183 243.256C66.9163 242.602 67.6192 242.135 68.4145 241.928C68.27 241.799 68.1542 241.641 68.0748 241.464C67.9954 241.287 67.954 241.095 67.9534 240.901C67.9534 240.54 68.097 240.194 68.3524 239.938C68.6079 239.683 68.9545 239.539 69.3158 239.539C69.6771 239.539 70.0236 239.683 70.2791 239.938C70.5346 240.194 70.6781 240.54 70.6781 240.901V240.901ZM66.1929 245.47C66.1993 246.24 66.4895 246.98 67.0077 247.548C67.526 248.117 68.2359 248.474 69.0014 248.551C69.0359 248.5 69.0827 248.457 69.1375 248.428C69.1924 248.399 69.2536 248.384 69.3158 248.384V248.384C69.3779 248.384 69.4392 248.399 69.494 248.428C69.5489 248.457 69.5956 248.5 69.6301 248.551C70.226 248.487 70.7902 248.251 71.2548 247.872C71.7193 247.493 72.0642 246.988 72.2477 246.418C72.4313 245.847 72.4456 245.236 72.2889 244.657C72.1323 244.079 71.8115 243.558 71.3652 243.158C70.9189 242.758 70.3663 242.496 69.7742 242.403C69.1821 242.31 68.5758 242.391 68.0287 242.636C67.4816 242.881 67.017 243.278 66.6912 243.781C66.3654 244.285 66.1923 244.871 66.1929 245.47V245.47Z" fill="#1D1D1D" fill-opacity="0.52"/>
<path d="M70.6782 277.214C70.6747 277.404 70.6319 277.592 70.5526 277.765C70.4733 277.938 70.359 278.093 70.2171 278.22C71.0224 278.418 71.7367 278.884 72.2435 279.54C72.7503 280.197 73.0196 281.006 73.0074 281.835C72.9953 282.664 72.7024 283.465 72.1766 284.106C71.6508 284.748 70.9231 285.192 70.1123 285.367C70.2837 285.488 70.4242 285.648 70.5225 285.834C70.6208 286.02 70.6741 286.226 70.6782 286.436C70.6774 286.727 70.5834 287.01 70.4099 287.244C70.2364 287.478 69.9925 287.65 69.7141 287.735V287.882C69.8944 287.965 70.0472 288.098 70.1548 288.265C70.2624 288.432 70.3204 288.626 70.3219 288.825C70.3226 289.024 70.263 289.219 70.1507 289.384C70.0384 289.548 69.8789 289.675 69.6931 289.747C69.6931 296.664 69.6931 302.972 69.6931 310.224C69.9057 310.316 70.0802 310.478 70.1871 310.683C70.2941 310.889 70.3269 311.125 70.2802 311.351C70.2334 311.578 70.1098 311.782 69.9303 311.928C69.7508 312.074 69.5264 312.154 69.2949 312.154C69.0633 312.154 68.8389 312.074 68.6594 311.928C68.4799 311.782 68.3564 311.578 68.3096 311.351C68.2628 311.125 68.2956 310.889 68.4026 310.683C68.5095 310.478 68.6841 310.316 68.8967 310.224V289.747C68.7172 289.669 68.5644 289.54 68.4571 289.376C68.3498 289.212 68.2927 289.021 68.2927 288.825C68.2927 288.629 68.3498 288.438 68.4571 288.274C68.5644 288.11 68.7172 287.981 68.8967 287.903V287.735C68.6523 287.67 68.4319 287.535 68.2618 287.348C68.0917 287.161 67.9789 286.928 67.9369 286.679C67.895 286.429 67.9256 286.173 68.0252 285.94C68.1247 285.708 68.289 285.509 68.4984 285.367C67.6876 285.192 66.9599 284.748 66.4341 284.106C65.9083 283.465 65.6154 282.664 65.6033 281.835C65.5911 281.006 65.8604 280.197 66.3672 279.54C66.8739 278.884 67.5883 278.418 68.3936 278.22C68.2224 278.069 68.0919 277.877 68.0141 277.663C67.9364 277.448 67.9137 277.217 67.9484 276.991C67.983 276.766 68.0739 276.553 68.2125 276.371C68.3511 276.19 68.533 276.046 68.7417 275.953C68.9503 275.861 69.1788 275.822 69.4064 275.841C69.6339 275.859 69.8531 275.935 70.0438 276.06C70.2345 276.186 70.3906 276.357 70.4978 276.559C70.605 276.76 70.6598 276.986 70.6572 277.214H70.6782ZM66.1929 281.783C66.1929 282.4 66.3761 283.004 66.7192 283.518C67.0624 284.031 67.5501 284.432 68.1207 284.668C68.6914 284.904 69.3193 284.966 69.9251 284.846C70.5309 284.725 71.0873 284.428 71.524 283.991C71.9608 283.554 72.2582 282.998 72.3787 282.392C72.4992 281.786 72.4374 281.158 72.201 280.588C71.9646 280.017 71.5644 279.529 71.0508 279.186C70.5372 278.843 69.9335 278.66 69.3158 278.66C68.8968 278.66 68.4819 278.744 68.0961 278.907C67.7102 279.071 67.3611 279.31 67.0697 279.611C66.7783 279.913 66.5505 280.269 66.3999 280.66C66.2493 281.051 66.1789 281.469 66.1929 281.888V281.783Z" fill="#1D1D1D" fill-opacity="0.52"/>
<path d="M70.6781 313.519C70.6775 313.713 70.6362 313.904 70.5568 314.081C70.4773 314.258 70.3616 314.416 70.217 314.546C71.0123 314.752 71.7153 315.219 72.2132 315.873C72.7112 316.526 72.9753 317.328 72.9632 318.15C72.9511 318.971 72.6636 319.765 72.1466 320.404C71.6296 321.042 70.9132 321.489 70.1122 321.672C70.346 321.84 70.5203 322.078 70.6102 322.352C70.7 322.626 70.7008 322.921 70.6122 323.195C70.5237 323.47 70.3506 323.709 70.1176 323.878C69.8846 324.048 69.6039 324.139 69.3158 324.139C69.0276 324.139 68.7469 324.048 68.5139 323.878C68.281 323.709 68.1078 323.47 68.0193 323.195C67.9308 322.921 67.9315 322.626 68.0214 322.352C68.1112 322.078 68.2855 321.84 68.5193 321.672C67.7183 321.489 67.0019 321.042 66.4849 320.404C65.968 319.765 65.6804 318.971 65.6683 318.15C65.6562 317.328 65.9203 316.526 66.4183 315.873C66.9163 315.219 67.6192 314.752 68.4145 314.546C68.27 314.416 68.1542 314.258 68.0748 314.081C67.9954 313.904 67.954 313.713 67.9534 313.519C67.9534 313.157 68.097 312.811 68.3524 312.555C68.6079 312.3 68.9545 312.156 69.3158 312.156C69.6771 312.156 70.0236 312.3 70.2791 312.555C70.5346 312.811 70.6781 313.157 70.6781 313.519V313.519ZM66.1929 318.088C66.1887 318.706 66.3683 319.312 66.709 319.828C67.0496 320.345 67.5358 320.748 68.1061 320.988C68.6764 321.227 69.3049 321.292 69.9121 321.174C70.5192 321.056 71.0776 320.76 71.5165 320.324C71.9553 319.888 72.2548 319.332 72.377 318.726C72.4992 318.119 72.4386 317.49 72.2029 316.918C71.9671 316.347 71.5669 315.858 71.0529 315.514C70.5389 315.169 69.9343 314.986 69.3158 314.986C68.4912 314.986 67.7 315.312 67.1149 315.893C66.5299 316.474 66.1984 317.263 66.1929 318.088V318.088Z" fill="#1D1D1D" fill-opacity="0.52"/>
<path d="M70.3217 325.157C70.3241 325.354 70.2675 325.547 70.1592 325.712C70.0509 325.876 69.8958 326.004 69.7139 326.08C69.7139 329.873 69.7139 335.511 69.7139 338.948C69.7139 339.054 69.6719 339.155 69.5973 339.23C69.5226 339.305 69.4213 339.347 69.3157 339.347C69.2101 339.347 69.1088 339.305 69.0341 339.23C68.9594 339.155 68.9174 339.054 68.9174 338.948V326.08C68.7356 326.004 68.5805 325.876 68.4721 325.712C68.3638 325.547 68.3072 325.354 68.3096 325.157C68.3096 324.879 68.42 324.613 68.6166 324.416C68.8131 324.22 69.0796 324.109 69.3576 324.109C69.6355 324.109 69.9021 324.22 70.0986 324.416C70.2951 324.613 70.4055 324.879 70.4055 325.157H70.3217Z" fill="#1D1D1D" fill-opacity="0.52"/>
<path d="M70.3217 70.9921C70.3241 71.1889 70.2675 71.382 70.1592 71.5464C70.0509 71.7107 69.8958 71.8389 69.7139 71.9143C69.7139 78.7679 69.7139 85.4957 69.7139 92.3912C69.9265 92.4828 70.101 92.645 70.2079 92.8503C70.3149 93.0557 70.3477 93.2916 70.3009 93.5184C70.2542 93.7451 70.1306 93.9488 69.9511 94.095C69.7716 94.2412 69.5472 94.3211 69.3157 94.3211C69.0842 94.3211 68.8597 94.2412 68.6802 94.095C68.5007 93.9488 68.3772 93.7451 68.3304 93.5184C68.2836 93.2916 68.3165 93.0557 68.4234 92.8503C68.5304 92.645 68.7048 92.4828 68.9175 92.3912V71.9143C68.7506 71.8424 68.6064 71.7266 68.5001 71.5794C68.3937 71.4321 68.3293 71.2588 68.3135 71.0779C68.2977 70.8969 68.3311 70.7151 68.4104 70.5516C68.4896 70.3882 68.6116 70.2492 68.7634 70.1495C68.9153 70.0498 69.0913 69.993 69.2727 69.9853C69.4542 69.9775 69.6344 70.0191 69.7942 70.1055C69.954 70.1918 70.0874 70.3199 70.1803 70.476C70.2731 70.6321 70.322 70.8104 70.3217 70.9921V70.9921Z" fill="#1D1D1D" fill-opacity="0.52"/>
<path d="M65.6479 63.9249C65.6499 63.1086 65.9225 62.316 66.4231 61.6712C66.9238 61.0264 67.6241 60.5659 68.4145 60.3619C68.2726 60.235 68.1583 60.0801 68.079 59.907C67.9996 59.7339 67.9569 59.5462 67.9534 59.3558C67.9534 58.9945 68.097 58.648 68.3524 58.3925C68.6079 58.137 68.9545 57.9935 69.3158 57.9935H68.9804C68.8001 57.9101 68.6473 57.7771 68.5397 57.6101C68.432 57.4431 68.3741 57.249 68.3726 57.0504C68.3702 56.8535 68.4268 56.6604 68.5351 56.4961C68.6435 56.3317 68.7986 56.2035 68.9804 56.1282V35.6093C68.8001 35.5259 68.6473 35.3929 68.5397 35.2259C68.432 35.059 68.3741 34.8648 68.3726 34.6662C68.3702 34.4693 68.4268 34.2762 68.5351 34.1119C68.6435 33.9475 68.7986 33.8193 68.9804 33.744V33.5763C68.7361 33.5107 68.5157 33.3762 68.3456 33.189C68.1754 33.0017 68.0627 32.7695 68.0207 32.52C67.9788 32.2705 68.0094 32.0142 68.1089 31.7816C68.2084 31.549 68.3727 31.3498 68.5822 31.2079C67.7812 31.025 67.0648 30.5785 66.5478 29.9399C66.0309 29.3013 65.7433 28.5076 65.7312 27.6861C65.7191 26.8645 65.9832 26.0627 66.4812 25.4092C66.9791 24.7556 67.6821 24.2882 68.4774 24.0819C68.3328 23.9526 68.2171 23.7943 68.1377 23.6174C68.0582 23.4405 68.0169 23.2488 68.0163 23.0549C68.0149 22.7601 68.1107 22.4732 68.2887 22.2383C68.4668 22.0034 68.7172 21.8337 69.0014 21.7554C69.0014 21.7554 69.0014 21.7554 69.0014 21.7554C68.8195 21.68 68.6644 21.5519 68.5561 21.3875C68.4477 21.2232 68.3911 21.0301 68.3936 20.8332C68.3951 20.6346 68.453 20.4404 68.5606 20.2734C68.6682 20.1065 68.8211 19.9735 69.0014 19.8901V0.398222C69.0014 0.292607 69.0433 0.191315 69.118 0.116634C69.1927 0.0419534 69.294 0 69.3996 0C69.5052 0 69.6065 0.0419534 69.6812 0.116634C69.7559 0.191315 69.7978 0.292607 69.7978 0.398222V19.8901C69.9781 19.9735 70.131 20.1065 70.2386 20.2734C70.3462 20.4404 70.4041 20.6346 70.4056 20.8332C70.4081 21.0301 70.3515 21.2232 70.2431 21.3875C70.1348 21.5519 69.9797 21.68 69.7978 21.7554V21.7554C70.082 21.8337 70.3324 22.0034 70.5105 22.2383C70.6885 22.4732 70.7843 22.7601 70.7829 23.0549C70.7823 23.2488 70.741 23.4405 70.6615 23.6174C70.5821 23.7943 70.4663 23.9526 70.3218 24.0819C71.1171 24.2882 71.82 24.7556 72.318 25.4092C72.816 26.0627 73.0801 26.8645 73.068 27.6861C73.0559 28.5076 72.7684 29.3013 72.2514 29.9399C71.7344 30.5785 71.018 31.025 70.217 31.2079C70.4264 31.3498 70.5907 31.549 70.6903 31.7816C70.7898 32.0142 70.8204 32.2705 70.7785 32.52C70.7365 32.7695 70.6238 33.0017 70.4536 33.189C70.2835 33.3762 70.0631 33.5107 69.8188 33.5763V33.744C70.0006 33.8193 70.1558 33.9475 70.2641 34.1119C70.3724 34.2762 70.429 34.4693 70.4266 34.6662C70.4251 34.8648 70.3672 35.059 70.2596 35.2259C70.1519 35.3929 69.9991 35.5259 69.8188 35.6093V56.0653C70.0006 56.1407 70.1558 56.2688 70.2641 56.4332C70.3724 56.5976 70.429 56.7906 70.4266 56.9875C70.4251 57.1861 70.3672 57.3803 70.2596 57.5473C70.1519 57.7142 69.9991 57.8472 69.8188 57.9306H69.4206C69.7819 57.9306 70.1284 58.0742 70.3839 58.3296C70.6394 58.5851 70.7829 58.9317 70.7829 59.293C70.7794 59.4834 70.7367 59.671 70.6573 59.8441C70.578 60.0172 70.4638 60.1721 70.3218 60.299C71.1271 60.4973 71.8415 60.9628 72.3483 61.6193C72.855 62.2759 73.1243 63.0849 73.1122 63.9142C73.1 64.7435 72.8071 65.5442 72.2813 66.1857C71.7555 66.8271 71.0278 67.2714 70.217 67.446C70.3884 67.5674 70.5289 67.7274 70.6272 67.9131C70.7255 68.0987 70.7789 68.3049 70.7829 68.5149C70.7829 68.8762 70.6394 69.2227 70.3839 69.4782C70.1284 69.7337 69.7819 69.8773 69.4206 69.8773C69.0593 69.8773 68.7127 69.7337 68.4572 69.4782C68.2018 69.2227 68.0582 68.8762 68.0582 68.5149C68.0623 68.3049 68.1156 68.0987 68.2139 67.9131C68.3122 67.7274 68.4527 67.5674 68.6241 67.446C67.8019 67.2844 67.0591 66.8477 66.5182 66.2077C65.9772 65.5677 65.6703 64.7626 65.6479 63.9249V63.9249ZM72.4386 27.603C72.4386 26.9853 72.2555 26.3816 71.9124 25.868C71.5692 25.3544 71.0815 24.9542 70.5108 24.7178C69.9402 24.4814 69.3123 24.4196 68.7065 24.5401C68.1007 24.6606 67.5443 24.958 67.1076 25.3948C66.6708 25.8315 66.3734 26.388 66.2529 26.9937C66.1324 27.5995 66.1942 28.2274 66.4306 28.7981C66.6669 29.3687 67.0672 29.8564 67.5808 30.1996C68.0943 30.5427 68.6981 30.7259 69.3158 30.7259C70.1404 30.7259 70.9315 30.3998 71.5166 29.8186C72.1017 29.2375 72.4331 28.4485 72.4386 27.6239V27.603ZM69.3158 67.0478C69.9334 67.0478 70.5372 66.8646 71.0507 66.5215C71.5643 66.1783 71.9646 65.6906 72.2009 65.12C72.4373 64.5493 72.4991 63.9214 72.3786 63.3157C72.2581 62.7099 71.9607 62.1534 71.524 61.7167C71.0872 61.2799 70.5308 60.9825 69.925 60.862C69.3192 60.7415 68.6913 60.8034 68.1207 61.0397C67.55 61.2761 67.0623 61.6764 66.7192 62.1899C66.376 62.7035 66.1929 63.3073 66.1929 63.9249C66.1901 64.3368 66.2688 64.7451 66.4245 65.1264C66.5802 65.5077 66.8098 65.8545 67.1001 66.1467C67.3904 66.4389 67.7356 66.6708 68.1158 66.829C68.4961 66.9873 68.9039 67.0688 69.3158 67.0687V67.0478Z" fill="#1D1D1D" fill-opacity="0.52"/>
<path d="M70.6781 95.6983C70.6746 95.8887 70.6319 96.0763 70.5525 96.2494C70.4732 96.4225 70.359 96.5774 70.217 96.7043C71.0123 96.9107 71.7153 97.3781 72.2132 98.0316C72.7112 98.6851 72.9753 99.4869 72.9632 100.308C72.9511 101.13 72.6636 101.924 72.1466 102.562C71.6296 103.201 70.9132 103.647 70.1122 103.83C70.2841 103.956 70.4246 104.12 70.5227 104.309C70.6209 104.498 70.6741 104.707 70.6781 104.92C70.6774 105.211 70.5834 105.495 70.4099 105.729C70.2364 105.962 69.9925 106.135 69.714 106.22V106.366C69.8943 106.45 70.0471 106.583 70.1548 106.75C70.2624 106.917 70.3203 107.111 70.3218 107.31C70.3242 107.506 70.2676 107.699 70.1593 107.864C70.051 108.028 69.8959 108.156 69.714 108.232C69.714 115.043 69.714 121.876 69.714 128.688C69.8943 128.771 70.0471 128.904 70.1548 129.071C70.2624 129.238 70.3203 129.432 70.3218 129.631C70.3218 129.909 70.2114 130.175 70.0149 130.372C69.8183 130.568 69.5518 130.679 69.2738 130.679C68.9959 130.679 68.7294 130.568 68.5329 130.372C68.3363 130.175 68.2259 129.909 68.2259 129.631C68.2274 129.432 68.2853 129.238 68.3929 129.071C68.5006 128.904 68.6534 128.771 68.8337 128.688V108.232C68.6518 108.156 68.4967 108.028 68.3884 107.864C68.2801 107.699 68.2235 107.506 68.2259 107.31C68.2274 107.111 68.2853 106.917 68.3929 106.75C68.5006 106.583 68.6534 106.45 68.8337 106.366V106.22C68.5534 106.138 68.3077 105.966 68.1337 105.732C67.9597 105.497 67.8669 105.212 67.8696 104.92C67.8736 104.707 67.9268 104.498 68.025 104.309C68.1231 104.12 68.2636 103.956 68.4355 103.83C67.6345 103.647 66.9181 103.201 66.4011 102.562C65.8841 101.924 65.5966 101.13 65.5845 100.308C65.5724 99.4869 65.8365 98.6851 66.3345 98.0316C66.8324 97.3781 67.5354 96.9107 68.3307 96.7043C68.1887 96.5774 68.0745 96.4225 67.9952 96.2494C67.9158 96.0763 67.8731 95.8887 67.8696 95.6983C67.8696 95.337 68.0131 94.9904 68.2686 94.7349C68.5241 94.4795 68.8706 94.3359 69.2319 94.3359C69.5932 94.3359 69.9398 94.4795 70.1953 94.7349C70.4507 94.9904 70.5943 95.337 70.5943 95.6983H70.6781ZM66.1929 100.246C66.1936 101.016 66.4785 101.758 66.993 102.331C67.5074 102.903 68.2152 103.266 68.9804 103.348C69.0139 103.294 69.0599 103.248 69.1146 103.216C69.1693 103.183 69.2311 103.164 69.2948 103.16V103.16C69.3585 103.164 69.4203 103.183 69.475 103.216C69.5297 103.248 69.5757 103.294 69.6092 103.348C70.2041 103.284 70.7676 103.048 71.2318 102.67C71.6959 102.293 72.0409 101.789 72.2251 101.219C72.4093 100.65 72.4249 100.04 72.27 99.4615C72.1151 98.8835 71.7962 98.3626 71.352 97.9617C70.9077 97.5608 70.357 97.2969 69.7661 97.2019C69.1753 97.107 68.5696 97.1849 68.022 97.4264C67.4745 97.6679 67.0085 98.0626 66.6802 98.563C66.352 99.0633 66.1754 99.648 66.1719 100.246H66.1929Z" fill="#1D1D1D" fill-opacity="0.52"/>
<path d="M70.6781 131.995C70.6776 132.189 70.6362 132.381 70.5568 132.558C70.4774 132.735 70.3616 132.893 70.217 133.022C71.0123 133.228 71.7153 133.696 72.2132 134.349C72.7112 135.003 72.9753 135.805 72.9633 136.626C72.9512 137.448 72.6636 138.242 72.1466 138.88C71.6297 139.519 70.9132 139.965 70.1122 140.148C70.3217 140.29 70.486 140.489 70.5855 140.722C70.6851 140.954 70.7157 141.211 70.6737 141.46C70.6318 141.71 70.519 141.942 70.3489 142.129C70.1787 142.316 69.9584 142.451 69.714 142.517V142.684C69.8959 142.76 70.051 142.888 70.1593 143.052C70.2677 143.216 70.3243 143.41 70.3218 143.606C70.3239 143.809 70.2651 144.007 70.1529 144.175C70.0408 144.343 69.8805 144.474 69.6931 144.55V145.43V164.943C69.8749 165.018 70.03 165.146 70.1384 165.311C70.2467 165.475 70.3033 165.668 70.3009 165.865V165.865C70.302 166.064 70.2451 166.259 70.1371 166.427C70.0292 166.594 69.8749 166.727 69.6931 166.808C69.9772 166.886 70.2277 167.056 70.4057 167.291C70.5838 167.526 70.6795 167.813 70.6781 168.107V168.107C70.6809 168.292 70.645 168.475 70.5728 168.644C70.5007 168.814 70.3937 168.967 70.259 169.093C71.0399 169.3 71.7303 169.76 72.223 170.401C72.7157 171.041 72.9831 171.827 72.9836 172.635V172.635C72.9857 173.461 72.7068 174.264 72.1927 174.911C71.6786 175.559 70.9598 176.012 70.1542 176.198C70.3151 176.321 70.4459 176.48 70.5366 176.661C70.6274 176.843 70.6758 177.043 70.6781 177.246V177.246C70.673 177.533 70.5769 177.812 70.4037 178.041C70.2305 178.271 69.9891 178.44 69.714 178.524C69.8943 178.608 70.0472 178.74 70.1548 178.907C70.2624 179.074 70.3203 179.269 70.3218 179.467V179.467C70.3243 179.664 70.2677 179.857 70.1593 180.022C70.051 180.186 69.8959 180.314 69.714 180.389V200.803C69.8943 200.887 70.0472 201.02 70.1548 201.187C70.2624 201.354 70.3203 201.548 70.3218 201.747C70.3243 201.943 70.2677 202.137 70.1593 202.301C70.051 202.465 69.8959 202.593 69.714 202.669V202.669H69.3158C69.4947 202.669 69.6718 202.704 69.8371 202.773C70.0024 202.841 70.1526 202.941 70.2791 203.068C70.4056 203.194 70.506 203.345 70.5744 203.51C70.6429 203.675 70.6781 203.852 70.6781 204.031C70.6776 204.225 70.6362 204.417 70.5568 204.594C70.4774 204.771 70.3616 204.929 70.217 205.058C71.0123 205.265 71.7153 205.732 72.2132 206.385C72.7112 207.039 72.9753 207.841 72.9633 208.662C72.9512 209.484 72.6636 210.278 72.1466 210.916C71.6297 211.555 70.9132 212.001 70.1122 212.184C70.346 212.353 70.5204 212.591 70.6102 212.865C70.7001 213.138 70.7008 213.434 70.6123 213.708C70.5238 213.982 70.3506 214.221 70.1176 214.391C69.8847 214.56 69.604 214.652 69.3158 214.652C69.0277 214.652 68.7469 214.56 68.514 214.391C68.281 214.221 68.1078 213.982 68.0193 213.708C67.9308 213.434 67.9315 213.138 68.0214 212.865C68.1112 212.591 68.2856 212.353 68.5194 212.184C67.7183 212.001 67.0019 211.555 66.485 210.916C65.968 210.278 65.6804 209.484 65.6684 208.662C65.6563 207.841 65.9204 207.039 66.4183 206.385C66.9163 205.732 67.6193 205.265 68.4146 205.058C68.27 204.929 68.1543 204.771 68.0748 204.594C67.9954 204.417 67.954 204.225 67.9535 204.031C67.9535 203.67 68.097 203.323 68.3525 203.068C68.608 202.812 68.9545 202.669 69.3158 202.669H68.9805C68.7986 202.593 68.6435 202.465 68.5352 202.301C68.4268 202.137 68.3702 201.943 68.3727 201.747C68.3742 201.548 68.4321 201.354 68.5397 201.187C68.6473 201.02 68.8002 200.887 68.9805 200.803V180.389C68.7986 180.314 68.6435 180.186 68.5352 180.022C68.4268 179.857 68.3702 179.664 68.3727 179.467V179.467C68.3742 179.269 68.4321 179.074 68.5397 178.907C68.6473 178.74 68.8002 178.608 68.9805 178.524C68.7054 178.44 68.4639 178.271 68.2907 178.041C68.1175 177.812 68.0215 177.533 68.0163 177.246V177.246C68.0187 177.043 68.0671 176.843 68.1579 176.661C68.2486 176.48 68.3794 176.321 68.5403 176.198C67.7347 176.012 67.0159 175.559 66.5018 174.911C65.9877 174.264 65.7088 173.461 65.7109 172.635V172.635C65.7114 171.827 65.9788 171.041 66.4715 170.401C66.9642 169.76 67.6546 169.3 68.4355 169.093C68.3008 168.967 68.1938 168.814 68.1216 168.644C68.0494 168.475 68.0136 168.292 68.0163 168.107V168.107C68.015 167.813 68.1107 167.526 68.2887 167.291C68.4668 167.056 68.7173 166.886 69.0014 166.808C69.0014 166.808 69.0014 166.808 69.0014 166.808C68.8195 166.727 68.6652 166.594 68.5573 166.427C68.4494 166.259 68.3925 166.064 68.3936 165.865C68.3912 165.668 68.4478 165.475 68.5561 165.311C68.6644 165.146 68.8195 165.018 69.0014 164.943V144.55C68.8211 144.466 68.6683 144.333 68.5606 144.166C68.453 143.999 68.3951 143.805 68.3936 143.606C68.3912 143.41 68.4478 143.216 68.5561 143.052C68.6644 142.888 68.8195 142.76 69.0014 142.684V142.517C68.7228 142.438 68.4776 142.271 68.3035 142.04C68.1293 141.809 68.0358 141.527 68.0373 141.238C68.038 141.024 68.0898 140.814 68.1882 140.625C68.2866 140.435 68.4289 140.272 68.6032 140.148C67.8022 139.965 67.0858 139.519 66.5688 138.88C66.0519 138.242 65.7643 137.448 65.7522 136.626C65.7401 135.805 66.0042 135.003 66.5022 134.349C67.0002 133.696 67.7031 133.228 68.4984 133.022C68.3539 132.893 68.2381 132.735 68.1586 132.558C68.0792 132.381 68.0379 132.189 68.0373 131.995C68.0373 131.634 68.1808 131.287 68.4363 131.032C68.6918 130.776 69.0383 130.633 69.3996 130.633C69.7609 130.633 70.1075 130.776 70.363 131.032C70.6184 131.287 70.762 131.634 70.762 131.995H70.6781ZM66.1929 209.145C66.1888 209.764 66.3684 210.37 66.709 210.886C67.0496 211.402 67.5359 211.806 68.1061 212.045C68.6764 212.285 69.3049 212.35 69.9121 212.232C70.5192 212.113 71.0777 211.818 71.5165 211.382C71.9554 210.946 72.2548 210.389 72.3771 209.783C72.4993 209.177 72.4387 208.548 72.2029 207.976C71.9672 207.404 71.5669 206.915 71.0529 206.571C70.5389 206.227 69.9343 206.043 69.3158 206.043C68.4912 206.043 67.7 206.369 67.1149 206.95C66.5299 207.532 66.1984 208.321 66.1929 209.145V209.145ZM69.3158 175.946C69.9293 175.942 70.5278 175.756 71.0355 175.412C71.5433 175.067 71.9376 174.58 72.1685 174.012C72.3995 173.444 72.4567 172.819 72.3329 172.219C72.2092 171.618 71.91 171.067 71.4733 170.636C71.0366 170.205 70.4819 169.914 69.8794 169.798C69.2769 169.682 68.6536 169.748 68.0884 169.987C67.5232 170.225 67.0415 170.626 66.7041 171.138C66.3667 171.651 66.1888 172.252 66.1929 172.865C66.2039 173.686 66.5378 174.47 67.1223 175.046C67.7067 175.623 68.4948 175.946 69.3158 175.946V175.946ZM66.1929 136.564C66.1929 137.182 66.3761 137.786 66.7192 138.299C67.0624 138.813 67.5501 139.213 68.1207 139.449C68.6913 139.686 69.3193 139.748 69.925 139.627C70.5308 139.507 71.0873 139.209 71.524 138.772C71.9608 138.336 72.2582 137.779 72.3787 137.173C72.4992 136.568 72.4373 135.94 72.201 135.369C71.9646 134.798 71.5643 134.311 71.0508 133.968C70.5372 133.624 69.9335 133.441 69.3158 133.441C68.4876 133.441 67.6932 133.77 67.1076 134.356C66.5219 134.942 66.1929 135.736 66.1929 136.564Z" fill="#1D1D1D" fill-opacity="0.52"/>
<path d="M42.8866 347.105C42.5887 346.559 42.437 345.945 42.4465 345.323C42.4718 344.556 42.752 343.818 43.2429 343.227C43.5816 342.804 43.9847 342.436 44.4376 342.138C45.1731 341.653 45.9605 341.252 46.785 340.943C48.2495 340.394 49.7566 339.966 51.2912 339.664C54.2482 339.086 57.2364 338.68 60.2406 338.449C66.1942 337.946 72.1768 337.883 78.1396 338.26C81.1443 338.441 84.1339 338.819 87.0891 339.392C88.6205 339.679 90.1271 340.086 91.5953 340.607C92.3797 340.88 93.1375 341.223 93.8588 341.634C94.0684 341.781 94.278 341.907 94.4876 342.075C95.2299 341.411 95.8272 340.601 96.242 339.696C96.6567 338.791 96.88 337.809 96.8979 336.814C96.8858 335.536 96.6371 334.271 96.1643 333.083C95.6135 331.804 94.9617 330.57 94.2151 329.394C92.6177 326.742 91.4637 323.846 90.7988 320.822C90.4669 319.313 90.2705 317.777 90.212 316.232C90.212 315.624 90.212 315.038 90.212 314.451C89.0515 315.412 88.0038 316.502 87.0891 317.699C85.589 319.639 84.6091 321.93 84.2424 324.354C83.8756 326.779 84.134 329.257 84.9932 331.553C85.906 333.934 87.338 336.082 89.185 337.841V337.841C89.2241 337.892 89.2453 337.955 89.2453 338.019C89.2453 338.083 89.2241 338.146 89.185 338.197C89.1308 338.247 89.0597 338.275 88.9859 338.275C88.9121 338.275 88.841 338.247 88.7868 338.197C86.7708 336.479 85.1664 334.33 84.092 331.91C82.9947 329.451 82.5403 326.753 82.7716 324.071C83.0391 321.356 83.9752 318.749 85.4962 316.484C86.9981 314.202 88.9182 312.225 91.1551 310.657V310.657L93.4606 309.211L93.0414 311.978C92.692 314.722 92.8555 317.508 93.5235 320.193C94.163 322.913 95.254 325.506 96.7512 327.864C98.6885 330.456 99.8186 333.562 99.9998 336.793C100.01 338.54 99.5463 340.256 98.6585 341.76C98.018 342.892 97.1968 343.912 96.2272 344.778C96.2472 347.926 95.5294 351.034 94.1313 353.854C92.7161 356.737 90.5879 359.212 87.9484 361.042C82.6272 364.083 76.6311 365.746 70.5041 365.881C64.3772 366.017 58.3134 364.62 52.8631 361.818C50.264 360.248 48.0188 358.155 46.2691 355.674C44.5195 353.192 43.3036 350.374 42.698 347.398C42.6591 347.373 42.6317 347.334 42.6218 347.289C42.612 347.243 42.6206 347.196 42.6456 347.157C42.6706 347.118 42.71 347.091 42.7552 347.081C42.8004 347.071 42.8477 347.08 42.8866 347.105V347.105ZM90.5054 343.668C89.1815 343.246 87.8299 342.917 86.4603 342.682C83.6299 342.207 80.775 341.892 77.9091 341.739C72.1259 341.404 66.326 341.488 60.555 341.991C57.6978 342.234 54.8568 342.64 52.0457 343.206C50.6963 343.474 49.3713 343.852 48.0844 344.338C47.5238 344.54 46.9891 344.807 46.4916 345.135C46.3475 345.232 46.214 345.345 46.0933 345.47C46.1877 345.61 46.3005 345.737 46.4287 345.847C46.8762 346.188 47.3702 346.464 47.8958 346.665C49.1668 347.161 50.478 347.546 51.8151 347.817C54.616 348.381 57.452 348.752 60.3035 348.928C66.0649 349.306 71.8495 349.117 77.5737 348.362C80.4097 347.984 83.2124 347.388 85.9573 346.581C87.9696 345.987 89.9097 345.172 91.742 344.15L90.5054 343.668ZM53.4709 360.833C58.6895 363.513 64.5646 364.647 70.4057 364.103C76.1889 364.012 81.8198 362.234 86.6071 358.989C88.8279 357.324 90.5821 355.115 91.7001 352.575C92.2621 351.315 92.6703 349.992 92.9157 348.635C92.9157 348.09 93.0834 347.503 93.1253 346.937C91.1291 348.049 89.0216 348.948 86.8376 349.62C83.9441 350.502 80.9872 351.161 77.9929 351.59C72.0517 352.428 66.0426 352.68 60.052 352.345C57.0266 352.187 54.0154 351.823 51.0397 351.255C49.4899 350.95 47.9685 350.515 46.4916 349.955C45.6417 349.624 44.844 349.173 44.1232 348.614C43.7985 348.338 43.5034 348.029 43.2429 347.692C43.9852 350.453 45.2725 353.039 47.029 355.296C48.7855 357.553 50.9758 359.435 53.4709 360.833V360.833Z" fill="#1D1D1D" fill-opacity="0.52"/>
</g>
</svg>
