<svg width="420" height="300" viewBox="0 0 420 300" fill="none" xmlns="http://www.w3.org/2000/svg">
<path d="M368.186 289.203C373.938 288.698 377.634 287.774 368.369 286.871C362.905 286.237 355.121 285.797 355.121 285.797H330.367C330.862 284.445 331.178 283.055 331.311 281.648C332.084 277.155 332.621 270.739 332.621 270.739V105.923C332.57 105.805 332.5 105.693 332.411 105.59C330.21 103.387 328.349 104.72 327.628 105.655C327.582 105.688 327.547 105.73 327.524 105.776C327.501 105.823 327.492 105.873 327.497 105.923V106.052C326.96 105.752 325.309 105.429 322.072 105.117L319.32 104.827V104.773C319.246 104.765 319.171 104.765 319.098 104.773C314.184 104.311 308.876 104.021 308.876 104.021H277.295C277.151 104.063 277.014 104.121 276.889 104.193C274.203 106.009 275.828 107.536 276.889 108.127C276.932 108.165 276.986 108.194 277.045 108.212C277.104 108.231 277.167 108.239 277.23 108.234C277.244 108.283 277.27 108.329 277.306 108.37C277.342 108.41 277.387 108.445 277.44 108.471C277.44 108.621 277.44 108.772 277.374 108.933C276.588 113.425 276.064 119.842 276.064 119.842V284.722C276.105 284.841 276.172 284.954 276.26 285.055C276.538 285.335 276.86 285.585 277.217 285.797H259.487C259.987 284.446 260.303 283.055 260.43 281.648C261.217 277.155 261.741 270.739 261.741 270.739V208.865C264.558 210.477 265.764 210.498 261.741 206.188V155.406C261.69 155.287 261.619 155.175 261.531 155.073C259.317 152.859 257.469 154.202 256.735 155.126C256.693 155.164 256.66 155.208 256.64 155.256C256.62 155.304 256.612 155.355 256.617 155.406V155.524C254.882 154.975 253.05 154.663 251.192 154.6C245.728 153.955 237.931 153.525 237.931 153.525H226.766L226.189 153.278C226.033 153.257 225.874 153.257 225.718 153.278C225.363 153.335 225.016 153.422 224.682 153.536H206.415C206.273 153.574 206.14 153.632 206.022 153.708C203.323 155.524 204.961 157.05 206.088 157.652C206.131 157.686 206.182 157.713 206.239 157.73C206.295 157.746 206.355 157.753 206.415 157.749H206.756C206.756 157.996 206.677 158.243 206.638 158.512C205.865 163.004 205.328 169.41 205.328 169.41V284.754C205.378 284.872 205.449 284.985 205.537 285.087C205.811 285.367 206.128 285.617 206.481 285.829H188.62C189.113 284.477 189.429 283.087 189.563 281.68C190.336 277.188 190.874 270.771 190.874 270.771V199.837C190.828 199.716 190.757 199.604 190.664 199.503C188.463 197.289 186.602 198.633 185.881 199.557C185.835 199.593 185.799 199.636 185.777 199.685C185.754 199.733 185.745 199.785 185.75 199.837V199.966C185.213 199.665 183.562 199.342 180.325 199.031C174.874 198.386 167.077 197.956 167.077 197.956H135.561C135.416 197.99 135.278 198.044 135.155 198.117C132.469 199.933 134.094 201.47 135.221 202.061C135.315 202.129 135.436 202.167 135.561 202.169H135.902C135.902 202.405 135.823 202.653 135.784 202.921C134.998 207.414 134.474 213.819 134.474 213.819V284.754C134.514 284.876 134.585 284.99 134.683 285.087C134.956 285.364 135.268 285.613 135.614 285.829H117.753C118.238 284.476 118.55 283.086 118.683 281.68C119.469 277.188 119.994 270.771 119.994 270.771V236.175C119.964 236.05 119.911 235.93 119.836 235.82C117.635 233.606 115.774 234.949 115.04 235.874C114.998 235.911 114.966 235.955 114.945 236.003C114.925 236.051 114.917 236.102 114.922 236.153V236.271C113.188 235.722 111.355 235.41 109.497 235.347C104.033 234.702 96.2489 234.272 96.2489 234.272H64.668C64.5276 234.314 64.3952 234.372 64.2749 234.444C61.5886 236.26 63.2135 237.787 64.2749 238.389C64.3179 238.423 64.3694 238.449 64.4259 238.466C64.4824 238.483 64.5426 238.489 64.6025 238.485H64.9432C64.9432 238.732 64.8646 238.98 64.8253 239.248C64.0521 243.741 63.5149 250.146 63.5149 250.146V270.47L62.65 270.083L63.5149 271.921V281.691C63.4032 281.775 63.3022 281.869 63.2135 281.97C63.1218 282.046 63.1348 282.056 63.1479 282.078C63.161 282.099 63.3052 282.271 63.5149 282.508V284.722C63.5657 284.84 63.6363 284.952 63.7245 285.055C63.9968 285.329 64.3094 285.574 64.6549 285.786H19.865C19.723 285.824 19.59 285.882 19.4719 285.958C16.7725 287.774 18.4105 289.3 19.4719 289.891C19.5126 289.929 19.5633 289.958 19.6202 289.977C19.6771 289.996 19.7385 290.003 19.7995 289.999H354.4C354.4 289.999 368.815 289.3 368.186 289.203ZM109.353 237.69C111.272 237.629 113.166 237.313 114.962 236.755V245.869C114.555 244.794 114.057 243.945 114.057 243.945C114.057 243.945 111.987 241.731 109.759 239.528C109.17 238.937 108.567 238.356 108.003 237.819C108.458 237.828 108.913 237.784 109.353 237.69ZM95.6069 238.485L101.464 238.195C101.687 238.378 102.172 238.786 102.775 239.356C103.613 240.097 104.688 241.118 105.749 242.161C107.859 244.235 109.89 246.46 109.89 246.46C110.901 247.188 111.96 247.869 113.062 248.502C113.599 248.833 114.266 248.99 114.935 248.943V261.195L114.739 260.894C113.533 258.852 111.921 256.445 110.572 254.564C109.903 253.618 109.261 252.801 108.855 252.221L108.147 251.296C107.191 250.222 106.221 249.147 105.212 248.158C103.404 246.299 101.53 244.472 99.5119 242.784C97.7851 241.302 95.9563 239.903 94.0343 238.593L95.6069 238.485ZM89.959 238.485C89.8199 238.618 89.7131 238.771 89.6445 238.937C89.3734 239.555 89.3734 240.231 89.6445 240.85C89.6445 241.011 89.7231 241.032 89.8148 241.086C91.936 242.475 93.941 243.98 95.8165 245.589C97.7035 247.212 99.4857 248.943 101.215 250.716C102.054 251.576 102.867 252.436 103.653 253.317C103.653 253.317 104.229 253.865 105.068 254.703C105.907 255.542 107.021 256.66 108.121 257.788C110.297 260.024 112.419 262.259 112.301 262.033C113.126 262.85 114.001 263.632 114.922 264.376V270.212C114.922 270.212 115.001 271.352 115.119 272.91C113.808 270.922 112.197 268.611 110.86 266.752C109.523 264.892 108.462 263.527 108.462 263.527L105.658 260.368C102.578 256.939 99.4202 253.543 96.0917 250.222C94.4144 248.567 92.7763 246.997 90.9156 245.31C89.0548 243.623 87.1809 242.258 85.4119 240.785C84.5077 240.044 83.6428 239.291 82.791 238.518L89.959 238.485ZM72.3864 285.775C72.3727 285.144 72.2492 284.518 72.0195 283.916L69.6083 281.766L68.7303 280.96V277.811L69.1365 278.058C70.0157 278.686 70.8513 279.353 71.6394 280.057C73.2774 281.497 74.7975 283.099 76.37 284.743L77.7853 285.818L72.3864 285.775ZM82.3193 285.775C81.8247 284.587 81.2337 283.427 80.5502 282.303C78.9646 280.638 77.3397 278.929 75.492 277.284C74.5563 276.44 73.5632 275.64 72.5174 274.888C71.3915 274.105 70.1759 273.414 68.8875 272.824L68.7565 272.77V268.063C70.1396 269.031 71.4522 270.064 72.6877 271.158C73.1726 271.556 73.6313 271.996 74.103 272.416C74.981 273.222 75.8459 274.049 76.7238 274.888L78.2308 276.22L81.5068 279.154C82.9751 280.547 84.5276 281.877 86.1588 283.142C87.3662 284.157 88.727 285.042 90.208 285.775H82.3193ZM91.217 285.775C91.1859 285.517 91.0876 285.268 90.9287 285.044C90.5225 284.378 89.71 283.335 88.4389 281.745C86.9712 279.853 85.176 277.564 83.7083 275.758C82.2406 273.953 81.0875 272.631 81.0875 272.631C80.0654 271.556 79.017 270.61 77.9425 269.611C77.4314 269.159 76.9597 268.697 76.4355 268.256C74.4073 266.449 72.1739 264.804 69.7655 263.345C69.6144 263.3 69.4545 263.278 69.2938 263.28H68.7696V256.606C69.071 256.778 69.3724 256.95 69.6738 257.143C70.6959 257.853 71.7705 258.508 72.7533 259.293C75.0644 261.045 77.252 262.904 79.3053 264.86C81.4151 266.816 83.4069 268.89 85.3856 270.965L87.8361 273.587L92.4225 278.037C94.6764 280.251 96.9435 282.4 96.8124 282.175C98.778 283.926 100.6 285.238 101.281 285.302C101.962 285.367 101.53 284.227 99.1843 280.896C97.8738 278.918 96.1572 276.596 94.7682 274.716C93.3791 272.835 92.3177 271.491 92.3177 271.491L89.4217 268.375C87.3906 266.225 85.3463 264.075 83.1448 262.076C80.9577 259.994 78.6211 258.02 76.1472 256.165C75.0858 255.327 73.8933 254.574 72.7533 253.801C72.1636 253.424 71.5215 253.081 70.9187 252.726L69.9883 252.199L69.0055 251.716C68.9144 251.703 68.8214 251.703 68.7303 251.716V250.641C68.7303 250.641 68.4551 246.847 68.2061 243.644C69.071 244.472 69.9621 245.246 70.827 246.009C73.1202 247.922 75.492 249.684 77.4838 251.511C79.4757 253.339 81.533 255.445 83.4462 257.487C87.3775 261.571 91.0073 265.817 94.7027 270.094L97.0483 272.824C97.0483 272.824 99.3153 275.124 101.556 277.37C103.797 279.617 106.077 281.766 105.946 281.54C107.925 283.292 109.746 284.593 110.428 284.657C111.109 284.722 110.663 283.583 108.305 280.251C105.684 276.306 101.595 270.847 101.595 270.847L98.8567 267.622C95.1744 263.323 91.4528 259.024 87.4823 254.854C85.5036 252.704 83.4724 250.727 81.2971 248.663C79.1219 246.6 76.6583 244.837 74.4699 243.01C72.7267 241.598 71.1555 240.05 69.7786 238.389H76.3307C77.9697 240.256 79.7977 242.007 81.7951 243.623C83.6428 245.16 85.5167 246.61 87.2333 248.083C88.95 249.555 90.5618 251.178 92.1867 252.78C95.4234 256.004 98.5291 259.336 101.569 262.732L103.967 265.419L108.475 269.933C110.703 272.168 112.93 274.34 112.799 274.114C113.756 274.984 114.66 275.747 115.42 276.263C115.63 279.004 115.853 281.637 115.905 281.347C116.033 282.804 116.354 284.246 116.862 285.646L91.217 285.775ZM166.487 202.115L172.659 201.793C172.501 201.99 172.357 202.195 172.227 202.405C172.161 202.502 172.227 202.502 172.227 202.524C172.227 202.545 172.764 202.943 173.537 203.598C174.31 204.254 175.188 205.028 176.092 205.877C177.901 207.564 179.617 209.338 179.617 209.338L181.006 210.176C181.434 210.465 181.9 210.714 182.395 210.917C183.706 211.476 185.147 211.466 184.636 209.488C184.444 208.567 184.127 207.665 183.693 206.801C183.693 206.801 181.911 204.953 179.984 203.147L178.215 201.535C178.927 201.52 179.637 201.463 180.338 201.363C182.253 201.296 184.142 200.977 185.934 200.417V222.987C185.802 222.804 185.658 222.622 185.501 222.428C184.06 220.504 182.264 218.226 180.784 216.42C179.303 214.615 178.163 213.293 178.163 213.293C177.154 212.282 176.132 211.272 175.083 210.273C172.744 208.023 170.269 205.87 167.666 203.824C166.959 203.276 166.238 202.749 165.504 202.223L166.487 202.115ZM161.874 202.115H161.992L161.77 202.33C161.691 202.255 161.77 202.233 161.77 202.126L161.874 202.115ZM157.655 202.115C157.656 202.147 157.666 202.178 157.684 202.206C157.702 202.234 157.728 202.258 157.76 202.276C158.087 202.502 158.454 202.792 158.834 203.082L159.437 203.534L159.804 203.792L160.053 203.964L160.302 204.103C161.612 204.952 162.818 205.834 164.023 206.769C166.503 208.719 168.856 210.775 171.073 212.927C171.951 213.755 172.803 214.604 173.694 215.453L178.49 219.752C180.862 221.902 183.247 223.965 183.103 223.739C183.967 224.446 184.877 225.113 185.829 225.739V236.776C182.71 233.09 178.228 228.264 178.228 228.264L175.123 225.341L163.945 214.765C162.032 213.013 160.249 211.261 158.113 209.488C155.978 207.715 153.815 206.21 151.679 204.684C150.487 203.835 149.308 202.986 148.167 202.126L157.655 202.115ZM141.694 202.115C141.699 202.321 141.725 202.526 141.773 202.728C141.774 202.781 141.789 202.833 141.816 202.881C141.843 202.929 141.882 202.972 141.93 203.007C143.987 204.759 146.189 206.328 148.325 207.854C150.461 209.381 152.584 210.874 154.497 212.454C156.41 214.034 158.231 215.818 160.105 217.538L171.27 228.081L173.891 230.607C173.891 230.607 176.42 232.757 178.949 234.745C181.478 236.733 183.981 238.732 183.824 238.518C184.505 239.012 185.134 239.463 185.776 239.85V245.751C184.296 244.396 182.71 242.956 181.4 241.731L178.425 238.926C177.324 238.012 176.25 237.088 175.162 236.164C170.471 232.123 165.989 227.931 161.219 223.793C160.027 222.718 158.834 221.644 157.524 220.687C156.213 219.731 155.008 218.742 153.737 217.775C151.181 215.861 148.6 213.991 146.031 212.132C143.909 210.595 141.799 209.058 139.728 207.51C139.588 207.457 139.437 207.424 139.283 207.414H139.06C138.85 204.942 138.667 202.803 138.615 203.018C138.615 202.706 138.536 202.405 138.484 202.115H141.694ZM139.493 212.981L142.664 215.302C145.285 217.162 147.787 219.01 150.303 220.891C151.548 221.837 152.793 222.783 154.012 223.739C155.231 224.696 156.344 225.674 157.498 226.674C162.15 230.758 166.67 234.971 171.48 239.076C172.436 239.882 173.38 240.699 174.349 241.495C174.349 241.495 177.036 243.504 179.814 245.364C181.536 246.564 183.343 247.681 185.226 248.706L185.789 249.007V258.594C185.278 257.96 184.479 257.089 183.326 255.918C179.971 252.35 175.005 247.438 175.005 247.438L171.755 244.622L159.778 234.154L156.711 231.521L155.126 230.199C154.588 229.758 153.894 229.285 153.357 228.909C151.037 227.329 148.744 225.91 146.647 224.395C144.668 223.048 142.942 221.469 141.524 219.709C141.419 219.64 141.299 219.589 141.17 219.559C140.652 219.424 140.114 219.349 139.571 219.333V214.324C139.571 214.324 139.493 213.798 139.493 212.981ZM138.588 285.797C138.93 285.566 139.226 285.294 139.466 284.99C139.512 284.957 139.548 284.915 139.571 284.869C139.593 284.822 139.603 284.772 139.597 284.722V283.314L142.284 285.797H138.588ZM147.473 285.797C147.284 284.995 146.989 284.213 146.595 283.464L143.096 280.24L140.606 278.015L139.597 277.134V271.567C140.148 272.244 140.685 272.932 141.262 273.598C141.838 274.264 142.271 274.737 142.782 275.307C143.607 276.22 144.446 277.112 145.311 278.004C145.311 278.004 147.761 280.24 150.264 282.303C152.059 283.776 153.842 285.195 154.667 285.807L147.473 285.797ZM158.349 285.797C158.048 285.442 157.72 285.055 157.34 284.636C155.781 282.766 153.828 280.573 152.321 278.832L149.701 275.78C148.731 274.791 147.774 273.791 146.857 272.77C146.372 272.233 145.887 271.696 145.429 271.137C143.83 269.288 142.336 267.386 140.986 265.44C140.88 265.357 140.756 265.292 140.619 265.247C140.285 265.137 139.938 265.054 139.584 265V257.81C140.903 258.992 142.214 260.192 143.516 261.41C146.739 264.43 149.897 267.504 153.029 270.621L155.65 273.2L160.485 277.499C162.883 279.649 165.268 281.68 165.111 281.454C169.265 284.775 172.502 286.506 167.417 280.089C164.535 276.22 160.014 270.986 160.014 270.986L157 267.966C153.855 264.839 150.67 261.722 147.394 258.648C145.52 256.885 143.607 255.133 141.642 253.425C141.511 253.363 141.37 253.32 141.222 253.296C140.693 253.224 140.153 253.224 139.624 253.296V247.04L141.327 248.653C149.334 256.509 157.052 264.688 164.783 272.824L167.273 275.457C167.273 275.457 176.761 284.335 176.446 283.894C177.324 284.636 178.15 285.291 178.87 285.807L158.349 285.797ZM180.967 285.797C180.328 284.686 179.605 283.61 178.805 282.572C176.053 278.649 171.689 273.318 171.689 273.318L168.754 270.212C161.009 262.055 153.317 253.887 145.167 245.901C144.236 245.009 143.306 244.117 142.336 243.225C141.366 242.333 140.58 241.613 139.558 240.796V236.035C140.318 236.723 141.091 237.421 141.864 238.098C146.516 242.161 151.339 245.944 155.532 250.06L168.387 262.743L171.008 265.311C171.008 265.311 173.485 267.461 175.974 269.535C178.464 271.61 180.941 273.587 180.784 273.372C182.933 274.963 184.872 276.145 185.567 276.167C186.261 276.188 185.698 275.092 183.011 271.921C181.478 270.04 179.552 267.826 178.019 266.075L175.332 263.022L172.253 260.056L159.398 247.341C154.969 243.042 150.081 239.173 145.547 235.207C143.633 233.541 141.773 231.843 140.017 230.091C139.889 230.03 139.753 229.983 139.61 229.952H139.519V224.578C140.678 225.633 141.912 226.63 143.214 227.566C145.494 229.21 147.866 230.682 150.028 232.155C150.592 232.542 151.037 232.832 151.522 233.23L153.003 234.476L156.004 237.045L167.968 247.492L170.772 249.921C170.772 249.921 173.393 251.952 176.014 253.887C178.635 255.821 181.255 257.67 181.124 257.466C182.505 258.445 184.039 259.269 185.685 259.916V270.212C185.685 270.212 186.536 282.035 186.654 281.519C186.78 282.976 187.101 284.418 187.611 285.818L180.967 285.797ZM237.315 157.716L241.338 157.523C241.127 157.821 240.96 158.139 240.84 158.469C240.84 158.566 240.84 158.576 240.84 158.598C240.84 158.619 241.587 159.114 242.583 159.888C243.579 160.661 244.837 161.736 246.042 162.865C248.466 165.1 250.694 167.54 250.694 167.54L252.398 168.787C252.909 169.208 253.471 169.586 254.075 169.915C255.661 170.818 257.272 171.054 256.381 168.561C256.01 167.382 255.506 166.234 254.874 165.132C254.874 165.132 252.568 162.585 249.947 160.135C248.807 159.06 247.628 158.06 246.606 157.244C248.101 157.2 249.592 157.092 251.074 156.921C252.993 156.86 254.887 156.544 256.683 155.986V177.481L256.499 177.277C255.005 175.364 253.079 173.118 251.48 171.377C249.882 169.636 248.624 168.367 248.624 168.367C247.536 167.411 246.435 166.444 245.308 165.509C241.989 162.689 238.429 160.067 234.655 157.663L237.315 157.716ZM209.796 157.716C209.796 157.813 209.796 157.91 209.796 157.996C209.796 158.046 209.809 158.096 209.834 158.143C209.859 158.189 209.895 158.23 209.94 158.265C211.919 159.963 213.871 161.629 215.929 163.284C223.031 169.131 230.343 174.762 237.603 180.383L240.565 182.673L246.003 186.413C248.702 188.272 251.336 190.089 251.153 189.884C255.687 192.808 259.146 194.291 253.262 188.315C249.869 184.715 244.548 179.996 244.548 179.996L241.102 177.331C233.829 171.699 226.569 166.089 219.546 160.307C218.51 159.458 217.488 158.587 216.466 157.716H225.403C227.223 158.564 228.974 159.508 230.645 160.543C234.547 162.952 238.206 165.616 241.587 168.507C242.53 169.281 243.447 170.076 244.365 170.882L245.963 172.14L249.41 174.913C251.9 176.944 254.324 178.954 254.167 178.739C255.045 179.405 255.87 180.018 256.604 180.502V201.062L255.647 200.181C253.878 198.558 252.529 197.386 252.529 197.386L249.017 194.742C243.775 190.862 238.533 187.068 233.213 183.296L225.272 177.6C224.931 177.352 224.617 177.116 224.25 176.88L223.149 176.16L221.026 174.838C219.624 173.978 218.261 173.129 216.99 172.247C214.967 170.942 213.2 169.391 211.749 167.647C211.639 167.578 211.515 167.527 211.382 167.497C210.993 167.401 210.593 167.337 210.189 167.303C209.94 163.864 209.495 158.286 209.416 158.63L209.298 157.716H209.796ZM249.2 234.874C246.042 231.188 241.338 226.093 241.338 226.093L238.245 223.159C231.575 216.818 224.892 210.38 217.357 204.49C216.309 203.684 215.261 202.867 214.16 202.094L212.522 200.911L210.844 199.772C210.714 199.731 210.577 199.705 210.438 199.697V192.388L210.91 192.679C212.011 193.367 213.125 194.044 214.199 194.774C224.578 201.653 233.855 209.714 243.028 217.882L245.78 220.332L250.917 224.384C253.472 226.383 256.014 228.307 255.844 228.092L256.604 228.619V254.327C255.909 253.404 255.157 252.511 254.35 251.651C251.126 247.965 246.016 243.053 246.016 243.053L242.687 240.28C233.751 233.038 225.32 225.388 217.436 217.366C215.719 215.56 214.042 213.723 212.456 211.842C212.337 211.77 212.204 211.716 212.063 211.681C211.525 211.546 210.961 211.491 210.399 211.519V204.963L210.727 205.2C211.775 205.941 212.784 206.726 213.793 207.51C221.066 213.174 227.67 219.516 234.34 225.857L236.961 228.393C236.961 228.393 239.477 230.543 242.006 232.553C244.535 234.562 247.064 236.529 246.907 236.314C249.095 237.883 251.1 239.012 251.782 239.023C252.463 239.033 251.952 237.969 249.187 234.874H249.2ZM250.039 217.893L246.828 215.034C237.655 206.833 228.181 198.633 217.41 191.496C216.309 190.733 215.143 190.035 213.989 189.347C212.836 188.659 211.657 187.939 210.478 187.262V182.479C212.048 183.853 213.734 185.135 215.523 186.316C217.475 187.649 219.454 188.874 221.21 190.153L226.714 194.183C230.374 196.885 233.999 199.629 237.59 202.416L240.538 204.705C240.538 204.705 251.533 212.293 251.179 211.896C255.792 214.776 259.251 216.195 253.262 210.305C249.829 206.747 244.535 202.029 244.535 202.029L241.036 199.278C237.437 196.483 233.79 193.718 230.094 190.981L224.525 186.896C222.573 185.499 220.594 184.263 218.733 182.995C216.649 181.643 214.743 180.115 213.046 178.438C212.927 178.381 212.799 178.337 212.666 178.309C211.934 178.16 211.17 178.16 210.438 178.309V172.935C211.487 173.815 212.589 174.651 213.74 175.439C216.545 177.385 219.546 178.986 221.996 180.759L229.859 186.424C235.1 190.196 240.42 193.947 245.583 197.816L248.584 200.052L254.036 203.749L256.656 205.511V224.932C253.616 221.59 250.026 217.893 250.026 217.893H250.039ZM209.416 285.797C209.767 285.571 210.068 285.299 210.307 284.99C210.349 284.955 210.381 284.913 210.402 284.867C210.422 284.82 210.43 284.771 210.425 284.722V281.229L211.133 281.841C212.928 283.454 214.802 285.066 214.802 285.066L216.243 285.764H216.348L209.416 285.797ZM219.899 285.797C219.945 285.432 219.887 285.064 219.729 284.722C219.452 283.873 219.075 283.049 218.602 282.261C218.602 282.261 216.781 280.702 214.959 279.036L211.211 275.704C211.135 275.721 211.061 275.743 210.989 275.769C210.805 275.855 210.622 275.941 210.451 276.038V272.727C211.46 273.802 212.587 275.006 213.767 276.156C215.667 277.994 217.698 279.735 219.139 281.025L221.655 283.174L224.407 284.915L225.927 285.839L219.899 285.797ZM229.78 285.797C229.585 285.455 229.362 285.124 229.112 284.808C228.01 283.275 226.807 281.794 225.508 280.369L223.018 278.219C221.537 276.951 219.598 275.253 217.777 273.48C216.101 271.866 214.526 270.184 213.059 268.439C211.867 266.999 211.159 265.989 211.12 265.935C211.029 265.919 210.935 265.919 210.844 265.935H210.464V255.81C211.775 257.369 213.256 258.734 214.605 260.11L215.247 260.744C215.444 260.948 215.641 261.141 215.85 261.378L217.095 262.721L219.637 265.419C221.328 267.214 223.044 269.009 224.787 270.793L227.408 273.404C227.408 273.404 229.872 275.554 232.388 277.703C233.928 279.043 235.555 280.313 237.262 281.508C239.464 283.088 241.456 284.217 242.15 284.206C242.845 284.195 242.216 283.131 239.464 280.025L231.759 271.201L228.732 268.063C226.984 266.315 225.29 264.545 223.647 262.753L221.131 260.067L219.821 258.712C219.624 258.487 219.388 258.239 219.152 258.003L218.471 257.326C216.67 255.682 215.036 253.921 213.583 252.06C213.472 251.996 213.354 251.942 213.229 251.898C212.33 251.586 211.321 251.559 210.399 251.823V242.15C211.892 243.203 213.314 244.323 214.658 245.503L217.698 248.126C218.222 248.567 218.759 249.018 219.27 249.426C219.781 249.835 220.24 250.286 220.738 250.716C222.691 252.446 224.669 254.252 226.622 256.036C230.553 259.615 234.393 263.259 238.284 266.881L240.971 269.396L246.055 273.512C248.584 275.532 251.127 277.478 250.956 277.263C255.372 280.38 258.714 281.906 253.145 275.78C250 272.082 245.282 267.02 245.282 267.02L242.15 264.108C238.219 260.486 234.406 256.842 230.474 253.231C228.496 251.415 226.543 249.641 224.499 247.857C223.975 247.406 223.477 246.944 222.953 246.503C222.428 246.062 221.917 245.654 221.419 245.224L218.379 242.612C216.355 240.8 214.131 239.145 211.736 237.668C211.578 237.629 211.415 237.607 211.251 237.604C210.977 237.614 210.706 237.643 210.438 237.69V228.898L211.054 229.328L211.853 229.876L212.535 230.317L215.575 232.864C222.691 238.883 229.61 245.084 236.542 251.286L239.307 253.736L244.47 257.767C247.09 259.755 249.58 261.668 249.423 261.464C253.839 264.538 257.207 266.075 251.598 259.959C248.401 256.273 243.5 251.286 243.5 251.286L240.394 248.395C233.436 242.193 226.491 235.97 219.31 229.887L216.021 227.125L215.143 226.555L214.409 226.061C213.937 225.728 213.465 225.384 213.098 225.094C212.987 225.069 212.869 225.069 212.758 225.094C212.684 225.082 212.608 225.082 212.535 225.094H212.443C212.251 225.221 212.05 225.34 211.84 225.448C211.631 225.534 211.513 225.61 211.382 225.663C211.395 225.556 211.395 225.448 211.382 225.341C211.389 225.158 211.339 224.977 211.238 224.814C211.146 224.728 211.107 224.632 210.91 224.556C210.802 224.51 210.687 224.474 210.569 224.449H210.451V216.7C211.434 217.775 212.43 218.849 213.452 219.924C221.453 228.095 230.011 235.889 239.084 243.268L241.927 245.654L247.169 249.555C249.79 251.479 252.332 253.371 252.162 253.167C253.494 254.183 254.978 255.057 256.578 255.768V270.212C256.578 270.212 257.43 282.035 257.534 281.519C257.661 282.976 257.981 284.418 258.491 285.818L229.78 285.797ZM327.523 106.515V111.663L327.012 111.265C326.069 110.556 324.824 109.61 323.632 108.664C323.107 108.245 322.596 107.837 322.111 107.428C323.96 107.366 325.783 107.057 327.51 106.515H327.523ZM308.182 108.245L315.704 107.858C315.953 108.116 316.267 108.438 316.621 108.772C317.538 109.631 318.783 110.663 320.028 111.641C321.273 112.619 322.505 113.565 323.435 114.264L324.955 115.424L326.698 116.273L327.523 116.671V126.247C327.301 125.979 327.065 125.721 326.79 125.431C325.191 123.582 323.121 121.422 321.43 119.734C319.74 118.047 318.39 116.843 318.39 116.843C317.237 115.93 316.084 115.016 314.878 114.124C312.376 112.256 309.751 110.501 307.016 108.868C306.662 108.653 306.295 108.449 305.928 108.245H308.182ZM296.755 108.245C296.817 108.363 296.887 108.478 296.965 108.589C297.043 108.739 297.083 108.75 297.188 108.793C299.586 109.818 301.889 110.986 304.08 112.286C306.644 113.826 309.103 115.48 311.445 117.241C312.441 117.961 313.397 118.724 314.367 119.476C314.367 119.476 316.988 121.368 319.609 123.292C322.229 125.216 324.745 127.139 324.575 126.924C325.65 127.666 326.646 128.322 327.484 128.795V138.467C325.781 136.984 323.841 135.351 322.243 134.007L319.019 131.309L315.494 128.741C306.321 122.088 297.345 115.22 287.412 109.105C286.953 108.804 286.481 108.524 286.01 108.245H296.755ZM281.03 110.459C282.17 111.115 283.31 111.77 284.411 112.469C294.056 118.402 303.006 125.194 312.165 131.879L315.219 134.093C315.219 134.093 318.062 135.92 320.906 137.661C323.75 139.402 326.593 141.036 326.397 140.886L327.537 141.466V151.515L326.908 151.031C322.976 147.861 317.184 143.605 317.184 143.605L313.476 141.208L301.302 133.223L298.249 131.213L297.476 130.708L296.611 130.181C296.034 129.848 295.471 129.525 294.907 129.235C292.667 128.031 290.504 126.946 288.513 125.753C286.44 124.614 284.66 123.153 283.271 121.454C283.167 121.386 283.046 121.338 282.917 121.314C282.407 121.182 281.879 121.102 281.345 121.078V120.497C281.345 120.497 280.794 112.974 280.519 110.201L281.03 110.459ZM321.771 238.238C326.698 240.796 330.275 241.903 323.684 236.518C321.797 234.874 319.451 232.95 317.604 231.413L314.367 228.769L310.816 226.222C302.953 220.537 295.196 214.636 287.425 208.746L281.318 204.157V199.063C282.354 199.729 283.415 200.363 284.477 200.976C286.468 202.137 288.408 203.211 290.334 204.34C291.277 204.91 292.169 205.468 293.073 206.092C293.977 206.715 294.947 207.328 295.851 207.951C299.507 210.423 303.045 213.035 306.583 215.679L309.558 217.936L315.088 221.633C317.826 223.449 320.565 225.201 320.329 224.997C322.688 226.394 324.772 227.394 325.453 227.34C326.134 227.286 325.453 226.211 322.347 223.353C320.565 221.633 318.416 219.602 316.582 217.979L313.463 215.206L309.964 212.562C306.413 209.886 302.809 207.188 299.048 204.684C298.118 204.039 297.187 203.437 296.244 202.803C295.3 202.169 294.291 201.524 293.296 200.922C291.304 199.718 289.286 198.622 287.359 197.515C285.203 196.305 283.165 194.957 281.266 193.485V186.381C282.17 187.004 283.074 187.606 283.965 188.197C292.26 193.571 300.319 199.45 308.654 205.028L311.838 207.177C311.838 207.177 314.786 208.897 317.735 210.52C319.573 211.576 321.476 212.556 323.435 213.454C324.722 214.081 326.067 214.624 327.458 215.077V253.016C327.17 252.715 326.855 252.393 326.501 252.049C323.094 248.47 317.827 243.73 317.827 243.73L314.419 241.043L294.763 225.481C292.536 223.718 290.268 222.031 288.106 220.332C286.111 218.797 284.217 217.175 282.432 215.474C282.309 215.417 282.177 215.373 282.039 215.346L281.358 215.281V209.821L283.979 211.809C291.749 217.678 299.494 223.632 307.474 229.339L310.554 231.488C310.554 231.488 313.437 233.294 316.293 235.014C319.15 236.733 321.98 238.432 321.771 238.238ZM325.283 211.627C321.352 208.531 315.599 204.222 315.599 204.222L311.943 201.793C303.674 196.258 295.667 190.443 287.202 184.908C285.118 183.593 283.152 182.156 281.318 180.609V174.289C282.93 175.515 284.608 176.6 286.285 177.653L289.417 179.567C290.373 180.136 291.343 180.845 292.313 181.48C294.265 182.834 296.244 184.199 298.144 185.585L309.754 193.968L312.847 196.172C312.847 196.172 315.717 197.977 318.586 199.686C320.378 200.794 322.237 201.828 324.156 202.781C325.236 203.342 326.356 203.848 327.51 204.297V213.336C326.881 212.895 326.2 212.315 325.283 211.627ZM326.03 201.062C322.19 197.838 316.673 193.388 316.673 193.388L313.122 190.841L301.499 182.436C299.542 181.039 297.567 179.656 295.576 178.288C294.54 177.6 293.584 176.89 292.457 176.213L289.377 174.332C287.21 173.035 285.172 171.597 283.284 170.033C283.156 169.981 283.019 169.945 282.878 169.926C282.36 169.87 281.836 169.87 281.318 169.926V162.112C282.865 163.08 284.411 164.047 285.944 165.036C293.99 170.205 301.813 175.665 309.663 181.157L312.768 183.307L318.495 186.8C321.338 188.509 324.156 190.153 323.959 189.96C325.107 190.585 326.292 191.162 327.51 191.69V202.287L326.03 201.062ZM325.899 188.24C322.177 184.908 316.582 180.448 316.582 180.448L312.965 177.933C305.102 172.473 297.24 166.97 289.102 161.725C286.848 160.285 284.594 158.856 282.275 157.426C282.127 157.408 281.977 157.408 281.829 157.426C281.659 157.415 281.488 157.415 281.318 157.426V150.322C282 150.763 282.629 151.16 283.363 151.515C284.608 152.181 285.682 152.773 286.875 153.439C294.112 157.533 301.08 161.939 307.749 166.637L310.868 168.787L316.595 172.258C319.451 173.967 322.295 175.601 322.098 175.407C324.523 176.697 326.672 177.61 327.34 177.557C327.391 177.569 327.446 177.569 327.497 177.557V189.723C327.087 189.272 326.554 188.777 325.899 188.24ZM324.012 173.698C320.264 170.399 314.655 165.938 314.655 165.938L311.025 163.434C304.229 158.646 297.13 154.155 289.757 149.978C288.604 149.333 287.32 148.635 286.193 148.033C285.133 147.483 284.141 146.85 283.232 146.141C283.111 146.098 282.983 146.073 282.852 146.066C282.338 146.047 281.824 146.076 281.318 146.152V141.488C282.013 141.842 282.707 142.175 283.389 142.509C284.699 143.11 285.761 143.648 286.953 144.282C294.554 148.183 301.879 152.45 309.125 156.867L312.362 158.856L318.285 162.08C321.22 163.671 324.09 165.229 323.894 165.046C325.065 165.637 326.272 166.179 327.51 166.669V177.105C326.545 175.84 325.367 174.693 324.012 173.698ZM325.754 163.284C321.889 160.06 315.966 155.836 315.966 155.836L312.165 153.493C304.867 149.043 297.423 144.69 289.679 140.714C288.486 140.09 287.176 139.445 285.97 138.876C284.765 138.306 283.599 137.715 282.511 137.113C282.372 137.093 282.23 137.093 282.092 137.113C281.831 137.135 281.573 137.171 281.318 137.221V126.194C281.515 126.366 281.725 126.548 281.934 126.709C283.044 127.578 284.226 128.383 285.472 129.117C287.687 130.45 289.967 131.578 292.024 132.717C292.562 132.997 293.073 133.287 293.558 133.566L294.252 133.986L295.012 134.48L298.026 136.468L310.226 144.475L313.437 146.539C313.437 146.539 316.398 148.226 319.347 149.838C322.295 151.451 325.217 152.966 325.008 152.783C325.885 153.202 326.711 153.568 327.458 153.858V164.724C327.026 164.316 326.449 163.81 325.754 163.284ZM280.296 285.807C280.647 285.582 280.948 285.309 281.187 285.001C281.269 284.927 281.315 284.832 281.318 284.732V283.325L281.987 283.851C282.786 284.453 283.297 284.829 283.297 284.829C283.297 284.829 284.083 285.152 284.883 285.431C285.315 285.582 285.748 285.721 286.049 285.807H280.296ZM288.08 285.807C288.604 285.582 288.801 285.055 288.224 284.055C287.82 283.235 287.325 282.447 286.743 281.702C286.743 281.702 286.246 281.358 285.538 280.831C284.702 280.201 283.918 279.526 283.192 278.811C282.836 278.448 282.508 278.067 282.209 277.671C282.039 277.467 282.052 277.413 281.659 276.919L281.318 276.532V271.491C282.092 272.351 282.943 273.254 283.808 274.135C285.538 275.898 287.333 277.596 288.696 278.843L290.963 280.917L293.492 282.637C294.258 283.197 295.072 283.711 295.93 284.174C298.144 285.41 300.123 285.807 298.065 282.637C297.13 281.131 296.084 279.674 294.934 278.273C294.934 278.273 294.043 277.446 292.68 276.21C291.317 274.974 289.561 273.297 287.884 271.588C286.206 269.879 284.608 268.106 283.481 266.741C282.354 265.376 281.659 264.409 281.633 264.355C281.542 264.344 281.449 264.344 281.358 264.355V258.884C282.275 259.959 283.205 261.034 284.188 262.001C286.573 264.495 289.076 266.891 291.658 269.213C292.575 270.051 293.518 270.868 294.449 271.696C294.449 271.696 297.07 273.738 299.69 275.672C302.311 277.607 304.932 279.477 304.722 279.273C309.191 282.282 312.585 283.819 306.871 277.746C305.22 275.919 303.137 273.791 301.473 272.115L298.59 269.213C297.515 268.278 296.441 267.343 295.405 266.386C292.889 264.118 290.465 261.797 288.185 259.4C286.468 257.616 284.87 255.768 283.363 253.887C283.248 253.814 283.119 253.756 282.983 253.715C282.451 253.566 281.893 253.494 281.331 253.5V243.73C283.028 245.222 284.868 246.598 286.835 247.846L287.595 248.395L287.949 248.653L288.329 248.964L289.849 250.222C290.858 251.049 291.841 251.931 292.837 252.78C294.803 254.532 296.768 256.294 298.629 258.154C302.416 261.765 306.085 265.505 309.781 269.256L312.401 271.857C312.401 271.857 314.826 274.006 317.276 276.156C318.77 277.526 320.354 278.828 322.02 280.057C324.143 281.691 326.095 282.873 326.763 282.905C327.432 282.938 326.908 281.831 324.261 278.606C321.26 274.834 316.778 269.611 316.778 269.611L313.777 266.547C310.082 262.807 306.387 259.024 302.534 255.338C300.608 253.489 298.603 251.673 296.611 249.878C295.576 248.996 294.567 248.094 293.505 247.223L291.92 245.912L291.527 245.589L291.055 245.235L290.164 244.601C289.024 243.816 287.949 243.117 286.966 242.387C286.044 241.749 285.214 241.028 284.49 240.237C284.381 240.181 284.261 240.141 284.136 240.119C283.23 239.895 282.264 239.895 281.358 240.119V232.08C282.183 232.757 283.022 233.391 283.861 234.014L286.94 236.239L289.902 238.518C291.88 240.054 293.833 241.613 295.772 243.193C299.703 246.342 303.451 249.566 307.225 252.866L310.016 255.284L315.088 259.25C317.709 261.227 320.172 263.162 320.015 262.958C324.379 266.064 327.733 267.654 322.203 261.475C319.058 257.745 314.092 252.78 314.092 252.78L310.829 249.942C307.042 246.718 303.202 243.408 299.284 240.269C297.319 238.664 295.331 237.081 293.322 235.519L290.268 233.187L287.176 230.93C285.159 229.525 283.328 227.951 281.712 226.233C281.6 226.169 281.476 226.121 281.345 226.093H281.266V220.773C282.327 221.665 283.402 222.525 284.477 223.385C286.717 225.147 288.971 226.813 291.12 228.522L297.672 233.713L313.804 246.406C313.804 246.406 324.759 254.059 324.405 253.65C325.519 254.36 326.554 254.972 327.419 255.424V270.212C327.419 270.212 328.27 282.035 328.388 281.519C328.513 282.976 328.834 284.418 329.345 285.818L288.08 285.807Z" fill="url(#paint0_linear_2489_28086)"/>
<path d="M160.275 138.37L155.453 139.445L150.591 140.444C148.953 140.778 147.367 141.089 145.742 141.358C144.118 141.627 142.493 141.895 140.842 142.143C127.66 144.069 114.362 145.418 101.005 146.184C94.335 146.571 87.6519 146.775 81.0213 146.678C74.4719 146.677 67.9408 146.111 61.5354 144.991C58.8846 144.514 56.3477 143.683 54.0268 142.53C53.8969 142.509 53.7635 142.509 53.6337 142.53C52.0219 142.734 51.0128 143.164 50.5542 143.841C50.3883 144.187 50.3164 144.559 50.3436 144.93C50.3707 145.301 50.4963 145.663 50.7114 145.99C50.7516 146.113 50.8447 146.22 50.9735 146.291C53.8239 147.739 56.9517 148.782 60.225 149.376C66.8965 150.553 73.6992 151.158 80.5233 151.181C87.2588 151.278 93.9681 151.095 100.638 150.719C113.974 149.975 127.254 148.658 140.422 146.775C143.711 146.28 146.974 145.786 150.329 145.12C153.684 144.453 156.881 143.83 160.052 143.067C163.223 142.304 166.486 141.541 169.697 140.745L174.48 139.456C176.065 139.026 177.651 138.564 179.224 138.091C185.54 136.242 191.751 134.125 197.844 131.814C203.938 129.503 209.9 126.935 215.718 124.151C221.536 121.377 227.17 118.353 232.597 115.091C233.907 114.263 235.335 113.479 236.646 112.619L240.577 110.05C241.887 109.19 243.198 108.277 244.508 107.395C245.819 106.514 247.05 105.59 248.295 104.655C250.824 102.838 253.222 100.893 255.647 98.9692C256.826 97.9912 257.979 96.9916 259.159 96.0029C260.338 95.0141 261.465 93.993 262.592 92.9612C267.119 88.8739 271.392 84.6016 275.395 80.1608C279.457 75.765 283.139 71.1328 286.677 66.4575L289.298 62.9C290.176 61.7285 290.949 60.5033 291.775 59.3103C293.452 56.9136 294.959 54.4524 296.505 52.0126L300.319 45.564L301.406 43.5757L302.258 41.7271L303.136 39.8355L304.053 37.686C304.643 36.235 305.233 34.8164 305.665 33.7631C305.822 34.4939 305.98 35.2355 306.15 35.9663C306.451 37.1593 306.727 38.3523 307.08 39.5346C307.08 39.5346 308.168 42.6407 309.491 45.5855C310.277 47.4623 311.196 49.2997 312.243 51.0883C313.554 53.4098 314.956 55.2047 315.637 55.4412C315.978 55.5701 316.148 55.2907 316.083 54.4954C315.881 53.1196 315.575 51.7556 315.166 50.4112C314.576 48.0575 313.855 45.2308 313.37 42.9846C312.885 40.7383 312.545 39.0939 312.545 39.0939C312.165 37.772 311.824 36.45 311.51 35.1173C310.881 32.4375 310.404 29.7434 310.081 27.035L309.963 26.014L309.832 24.5631C309.701 23.1874 309.649 21.7472 309.623 20.264L309.452 11.4079V10L305.77 15.7285L304.931 17.029L304.158 18.179C303.703 18.9235 303.186 19.6417 302.612 20.3285C302.101 20.9196 301.603 21.5537 301.079 22.1126C300.83 22.4028 300.555 22.6715 300.292 22.9402L299.899 23.3378L299.1 24.1009C294.597 28.1547 289.707 31.9068 284.476 35.3215L280.977 37.7182C279.798 38.5458 278.631 39.3411 277.413 40.3514C277.321 40.4859 277.255 40.6308 277.216 40.7813C277.027 41.4574 277.124 42.1663 277.491 42.7911C277.649 42.9561 277.847 43.0922 278.073 43.1903C278.298 43.2884 278.547 43.3465 278.802 43.3607C279.287 43.4252 279.614 43.565 280.007 43.5972C280.186 43.6132 280.366 43.6132 280.545 43.5972C280.71 43.6085 280.877 43.6085 281.042 43.5972C281.239 43.5972 281.265 43.5972 281.344 43.5005C282.248 42.7374 283.414 41.9313 284.528 41.1467L288.001 38.7715C293.457 35.1978 298.558 31.2732 303.254 27.035L304.564 25.7776L304.761 27.5079C304.761 28.0131 304.892 28.5182 304.958 29.0234C304.564 29.5715 304.106 30.2378 303.647 31.0332L301.38 34.408C300.607 35.558 299.873 36.7079 299.218 37.729L296.741 41.2112L295.654 43.1888C295.47 43.522 295.287 43.8552 295.09 44.1776L293.78 46.5098C288.011 56.4021 281.225 65.8729 273.495 74.8192C269.607 79.2687 265.479 83.5678 261.111 87.7164C256.743 91.865 252.113 95.8058 247.221 99.5388C242.346 103.258 237.222 106.761 231.928 110.061C226.607 113.34 221.088 116.396 215.391 119.218C203.952 124.843 191.896 129.579 179.381 133.362C173.078 135.232 166.696 136.865 160.275 138.37Z" fill="url(#paint1_linear_2489_28086)"/>
<defs>
<linearGradient id="paint0_linear_2489_28086" x1="310.513" y1="25.4237" x2="26.9483" y2="280.562" gradientUnits="userSpaceOnUse">
<stop offset="0.32118" stop-color="#05C669"/>
<stop offset="0.9999" stop-color="#0076FD"/>
<stop offset="1" stop-color="#4E9FFF"/>
</linearGradient>
<linearGradient id="paint1_linear_2489_28086" x1="310.513" y1="25.4237" x2="26.9483" y2="280.562" gradientUnits="userSpaceOnUse">
<stop offset="0.32118" stop-color="#05C669"/>
<stop offset="0.9999" stop-color="#0076FD"/>
<stop offset="1" stop-color="#4E9FFF"/>
</linearGradient>
</defs>
</svg>
