<svg width="50" height="40" viewBox="0 0 50 40" fill="none" xmlns="http://www.w3.org/2000/svg">
<path d="M37.8975 11.076C37.3287 11.0474 36.7587 11.0561 36.191 11.102C35.7777 11.136 35.3629 11.1462 34.9486 11.1326L34.6647 11.1142L34.8885 11.0531C35.6622 10.8347 36.6446 10.494 37.3777 9.78363C37.6092 9.57673 37.7815 9.31021 37.8765 9.01214C37.937 8.74842 37.9431 8.47483 37.8945 8.20858C37.5941 5.88497 37.0112 4.14494 35.8214 2.00313L35.7959 2.01687C35.6408 1.53193 35.3637 1.09665 34.9921 0.754179C34.6206 0.411711 34.1674 0.17396 33.6777 0.0644923C32.1754 -0.228823 30.8114 0.773335 29.922 1.55093C28.4112 2.86791 27.08 4.38402 25.9636 6.05913C25.3981 6.91445 24.8882 7.80649 24.4373 8.72952C24.3273 8.97426 24.2437 9.23036 24.1879 9.49336C24.087 9.45382 23.9814 9.42763 23.8739 9.41545C23.4993 9.38979 23.1246 9.46515 22.7878 9.63391C22.7355 9.31776 22.6436 9.00972 22.5144 8.7173C22.0635 7.79392 21.5531 6.90184 20.9866 6.04691C19.8734 4.37157 18.5446 2.85536 17.0356 1.5387C16.1343 0.761111 14.7822 -0.241047 13.28 0.0522682C12.7903 0.16202 12.3374 0.399873 11.9658 0.7423C11.5943 1.08473 11.3172 1.51986 11.1618 2.00465L11.1363 1.9909C9.94647 4.12966 9.3651 5.87275 9.06464 8.19636C9.01551 8.4625 9.02113 8.73611 9.08117 8.99993C9.17681 9.2977 9.349 9.56406 9.57992 9.7714C10.3145 10.4818 11.297 10.8225 12.0707 11.0409L12.4973 11.1585C12.293 11.1494 12.0797 11.1341 11.8588 11.1173C10.7937 11.0394 9.10821 10.8408 8.42468 11.4778C8.06263 11.817 7.87485 12.315 7.86734 12.9582C7.86734 13.5692 7.8373 14.2124 7.81627 14.8311C7.7757 15.9814 7.73364 17.1715 7.78021 18.3234C7.77133 18.5597 7.85509 18.7899 8.01306 18.9635C8.17468 19.1079 8.38563 19.182 8.60045 19.1697H8.67406C9.05262 19.159 10.0261 19.2751 10.3971 19.2721H11.0897H11.3135L11.3015 19.5379C11.1798 22.1701 11.0536 24.8924 10.992 27.5766C10.9545 29.257 11.0822 30.9558 11.2054 32.595C11.312 34.0143 11.4217 35.4824 11.4217 36.9275C11.4382 38.7883 13.5339 39.575 15.4913 39.6911C18.7768 39.8867 22.0697 39.9142 25.1629 39.9249C26.551 39.9249 28.0532 39.8867 29.8875 39.7889C30.4005 39.7791 30.9134 39.8113 31.4213 39.8851C31.9085 39.951 32.3991 39.9887 32.8905 39.9982C33.4829 40.0165 34.0715 39.8957 34.6106 39.6453C35.3181 39.2955 35.8244 38.5606 36.1128 37.4607C36.5019 36.0018 36.4614 34.3733 36.4223 32.7997C36.4118 32.32 36.3998 31.8663 36.4013 31.4248C36.4013 30.6396 36.3818 29.836 36.3592 29.06C36.3217 27.6988 36.2826 26.2918 36.3742 24.952C36.4989 23.042 36.5209 21.1265 36.4403 19.214L37.0247 19.1957L37.8194 19.1728C39.4509 19.1254 39.7108 18.8672 39.8159 17.228C39.873 16.3114 39.9211 15.3948 39.9661 14.4935C39.9902 14.0352 40.0127 13.5769 40.0382 13.1277C40.1089 11.8781 39.3878 11.1876 37.8975 11.076ZM35.8064 3.78287C36.4679 5.21483 36.898 6.74586 37.0803 8.31705C37.1095 8.47249 37.1095 8.63213 37.0803 8.78757C37.0235 8.9404 36.9288 9.07566 36.8054 9.18019C36.2045 9.76224 35.3437 10.0571 34.6617 10.2496C31.0007 11.2808 28.1449 11.4259 25.7427 10.7079C28.7082 10.0113 30.9796 8.55995 33.6071 6.48077C34.564 5.72151 35.4684 4.87823 35.8064 3.78287ZM35.1108 3.1382C34.9771 4.20299 34.0758 5.05391 33.1113 5.81775C31.2996 7.25225 29.6666 8.37357 27.8534 9.14047C29.4163 6.16305 31.996 3.86958 35.1063 2.6921C35.1257 2.84006 35.1272 2.98987 35.1108 3.1382ZM23.0928 10.4146C23.3054 10.2987 23.5441 10.2413 23.7853 10.248C23.88 10.2651 23.9696 10.3036 24.0477 10.3607C24.1257 10.4179 24.1901 10.4921 24.236 10.578C24.2766 10.6462 24.3065 10.7204 24.3246 10.798C23.9235 10.798 23.5194 10.798 23.1138 10.798C23.0883 10.6719 23.0807 10.5428 23.0912 10.4146H23.0928ZM13.4347 0.88333C13.5635 0.858805 13.6943 0.846532 13.8253 0.846667C14.6035 0.846667 15.4673 1.27899 16.5053 2.18491C17.9587 3.4528 19.2385 4.91303 20.3106 6.5266C20.8566 7.35122 21.3484 8.21166 21.7828 9.10228C21.917 9.38904 21.9902 9.70138 21.9976 10.0189C21.3912 9.90494 20.7926 9.75186 20.2054 9.56058H20.2189C19.4297 7.80364 18.3067 6.2227 16.9145 4.90868C15.5223 3.59465 13.8884 2.57345 12.1067 1.90382C12.2435 1.64708 12.4328 1.42314 12.6619 1.2471C12.891 1.07106 13.1545 0.947014 13.4347 0.88333ZM11.8423 2.68906C14.9572 3.86779 17.5396 6.16613 19.1012 9.14964C17.6441 8.52481 16.0021 7.5257 13.8433 5.81469C12.8819 5.05085 11.9745 4.20299 11.8453 3.1382C11.8271 2.98912 11.826 2.83837 11.8423 2.68906ZM12.293 10.248C11.611 10.0556 10.7502 9.76071 10.1493 9.17866C10.0248 9.07507 9.92992 8.93951 9.87436 8.78605C9.84521 8.6306 9.84521 8.47096 9.87436 8.31552C10.0559 6.74418 10.4861 5.21303 11.1483 3.78135C11.4863 4.8767 12.3906 5.71999 13.3401 6.47161C15.969 8.55079 18.2389 10.0021 21.2059 10.6987C18.8038 11.4259 15.9495 11.2808 12.293 10.248ZM15.5379 38.8601C15.2014 38.8387 12.2539 38.6156 12.2329 36.9245C12.2329 35.4503 12.1217 33.9669 12.0136 32.5309C11.8919 30.913 11.7657 29.2402 11.8033 27.5949C11.8634 24.9215 11.9895 22.2052 12.1037 19.5776L12.1187 19.2614L15.4568 19.214C17.4307 19.1865 19.4453 19.159 21.4658 19.1254C21.0671 25.768 21.1268 32.4307 21.6446 39.0648C19.6541 39.0373 17.5885 38.9808 15.5379 38.8601ZM21.5304 18.2898C19.4918 18.3249 17.4548 18.3524 15.4613 18.3799C13.9991 18.3993 12.5369 18.4201 11.0747 18.4426L10.3881 18.4502C10.0111 18.4502 9.0361 18.3371 8.65002 18.3478H8.60045C8.60045 18.3341 8.60045 18.3188 8.60045 18.302C8.55538 17.1807 8.60044 16.0105 8.6365 14.8739C8.65903 14.2491 8.68157 13.6044 8.68908 12.9811C8.68908 12.5701 8.78973 12.2845 8.98052 12.1042C9.40265 11.71 10.9109 11.8964 11.8018 11.9621C12.2347 12.0028 12.6696 12.0166 13.1042 12.0034C14.0056 11.9514 14.94 11.8995 15.8864 11.8506C16.5766 11.9387 17.2714 11.9841 17.967 11.9865C18.9128 11.9936 19.8563 11.8911 20.7793 11.681C21.2299 11.6703 21.6806 11.6627 22.1313 11.655C21.8819 13.86 21.6816 16.0716 21.5304 18.2898ZM24.9856 39.0907C24.1634 39.0907 23.3291 39.0851 22.4828 39.0739C21.96 32.4438 22.3596 18.276 22.3536 18.276C22.5009 16.0578 22.7012 13.8457 22.9545 11.6398C23.5284 11.6337 24.0978 11.6306 24.6626 11.6306C24.8179 13.8233 24.9425 16.0217 25.0367 18.2256C24.9916 18.2271 25.2951 32.4423 24.9841 39.0907H24.9856ZM24.9661 10.0158C24.9736 9.69852 25.0463 9.3863 25.1794 9.09922C25.6143 8.20891 26.1061 7.34851 26.6516 6.52354C27.7241 4.91032 29.0038 3.45016 30.4568 2.18186C31.6737 1.12165 32.6486 0.709171 33.529 0.880271C33.808 0.943943 34.0705 1.06735 34.299 1.24226C34.5274 1.41717 34.7166 1.63957 34.8539 1.89466C33.0734 2.5647 31.4408 3.58611 30.0499 4.90015C28.6589 6.21419 27.5372 7.79492 26.7493 9.55142C26.1646 9.74442 25.5685 9.89953 24.9646 10.0158H24.9661ZM35.545 29.0829C35.566 29.8467 35.5886 30.6503 35.5855 31.4218C35.5855 31.8801 35.5961 32.3384 35.6081 32.8211C35.6456 34.3351 35.6832 35.9009 35.3257 37.2423C35.0973 38.0993 34.7368 38.6554 34.253 38.8952C33.4674 39.2817 32.4744 39.1687 31.5129 39.0571C31.0496 38.9946 30.5831 38.9584 30.1158 38.9487C30.0242 38.9487 29.934 38.9487 29.8439 38.9487C28.3041 39.0312 27.0031 39.0739 25.8073 39.0831C26.1168 32.43 26.1423 25.7189 25.8839 19.0383C27.6867 19.0215 29.5134 19.101 31.2846 19.1774L32.1859 19.2156C33.3577 19.266 34.4814 19.2553 35.6231 19.2278C35.7018 21.1117 35.6802 22.9986 35.5585 24.8802C35.4654 26.275 35.5044 27.7018 35.5435 29.0829H35.545ZM39.224 13.0819C39.1985 13.5402 39.1759 13.9985 39.1519 14.4568C39.1068 15.3505 39.0588 16.2748 39.0017 17.1807C38.9777 17.5641 38.9446 18.0897 38.8259 18.2042C38.7072 18.3188 38.183 18.3341 37.8014 18.3448L37.0052 18.3692C35.3782 18.4181 33.8414 18.4655 32.222 18.3967L31.3206 18.3585C29.5299 18.2806 27.6837 18.2058 25.8509 18.2195C25.7598 16.0217 25.6366 13.8284 25.4813 11.6398H26.0161C26.9915 11.879 27.9918 11.997 28.9951 11.9911C29.862 11.9839 30.7271 11.9119 31.5835 11.7757C32.7012 11.8261 33.8084 11.8857 34.8885 11.9591C35.3368 11.9767 35.7858 11.967 36.233 11.93C36.7652 11.8861 37.2996 11.8769 37.8329 11.9025C39.0332 11.9957 39.2571 12.4418 39.2225 13.0819H39.224Z" fill="#0F143A" fill-opacity="0.8"/>
<path d="M22.3657 10.8423C18.918 10.5902 16.0862 12.1866 13.0036 14.1405L12.5138 14.4461C10.8809 15.4864 9.19233 16.5604 7.45572 17.2158C6.66252 17.5213 5.7191 17.8268 4.75165 17.8818C4.06955 17.9335 3.38427 17.9228 2.70407 17.8497L2.55384 17.8314C1.76966 17.7336 0.75113 17.2203 0 17.2814C0.105158 17.2723 1.54282 19.8235 1.71858 20.0893C2.27442 20.9219 2.64849 21.8141 3.22986 22.6192C3.61143 23.1462 5.55536 22.2632 6.0466 22.1273C8.1077 21.559 10.2379 20.9708 12.272 19.796C13.7457 18.9466 14.8078 17.81 15.8353 16.7162C16.4427 16.0442 17.0851 15.4057 17.7597 14.8035C18.6175 14.0611 19.624 13.45 20.4998 12.9352C20.6501 12.8496 20.8874 12.6678 21.266 12.3791C21.6446 12.0904 22.2139 11.655 22.3942 11.5771C22.485 11.5664 22.5685 11.5215 22.6283 11.4512C22.6881 11.381 22.7199 11.2904 22.7172 11.1976C22.7146 11.1047 22.6778 11.0162 22.6141 10.9495C22.5504 10.8829 22.4644 10.843 22.3732 10.8377L22.3657 10.8423ZM20.8198 11.7894C20.5374 12.0048 20.2445 12.2294 20.1273 12.2981C19.2259 12.8282 18.1834 13.4592 17.273 14.2414C16.5808 14.8602 15.9214 15.516 15.2975 16.206C14.261 17.312 13.283 18.3569 11.9024 19.1544C9.94947 20.2818 7.95597 20.8348 5.8468 21.4138C5.09567 21.6201 4.33402 21.8309 3.56486 22.0723C3.4567 21.6919 3.15775 21.035 2.3931 19.8281C2.07462 19.327 1.74112 18.8336 1.4602 18.4349C1.72309 18.4761 2.04908 18.5204 2.45469 18.5708L2.60492 18.5891C3.32947 18.6675 4.05943 18.6803 4.7862 18.6273C5.85881 18.5678 6.86683 18.2332 7.7111 17.9154C9.51381 17.2341 11.2384 16.1387 12.9029 15.0785L13.3911 14.773C15.9856 13.1307 18.3877 11.7482 21.1023 11.5786L20.8198 11.7894Z" fill="#0F143A" fill-opacity="0.8"/>
<path d="M49.9773 18.6044C49.9563 18.5386 49.9165 18.4807 49.863 18.438C49.8095 18.3953 49.7446 18.3697 49.6768 18.3646L39.9647 17.7535C39.1204 17.7 38.2491 17.6435 37.4529 17.3624C36.1129 16.8888 35.0673 15.8347 33.9587 14.7272C33.4329 14.2001 32.8891 13.6578 32.3062 13.1781C30.517 11.7008 26.7914 9.7133 24.4088 10.6742C24.3482 10.7013 24.2954 10.7436 24.2553 10.7971C24.2151 10.8506 24.189 10.9136 24.1794 10.9802C24.1698 11.0468 24.177 11.1147 24.2003 11.1777C24.2236 11.2407 24.2623 11.2967 24.3127 11.3403C25.1149 11.9896 26.0267 12.4586 26.9101 12.9123C27.5821 13.2399 28.2343 13.6082 28.863 14.0153C30.3078 14.9982 31.6449 16.1357 32.8515 17.4083C33.1099 17.6802 33.3728 17.9689 33.6267 18.247C34.9276 19.6753 36.2751 21.1496 38.0824 21.7117C39.2091 22.0616 40.3868 22.0035 41.524 21.9485C41.8515 21.9317 42.1895 21.9165 42.517 21.9103C44.2972 21.8767 45.5456 22.2724 46.3313 23.1187C46.3826 23.1753 46.4516 23.212 46.5266 23.2226C46.5525 23.2257 46.5787 23.2257 46.6047 23.2226C46.6561 23.2161 46.7054 23.1981 46.749 23.1698C46.7927 23.1416 46.8296 23.1038 46.8571 23.0592C47.7688 21.6354 48.7841 20.2832 49.8946 19.0139C49.9437 18.9597 49.9774 18.893 49.9919 18.8208C50.0065 18.7487 50.0014 18.6739 49.9773 18.6044ZM46.5221 22.2709C45.8716 21.7087 45.0198 21.3543 43.9517 21.2137C43.4774 21.1538 42.9994 21.1293 42.5215 21.1404C42.1835 21.1404 41.841 21.1633 41.5105 21.1786C40.3763 21.2351 39.3052 21.287 38.2837 20.9708C36.6462 20.4621 35.3633 19.0551 34.1224 17.6939C33.8655 17.4128 33.6011 17.1226 33.3382 16.8445C32.0974 15.5371 30.7231 14.368 29.2386 13.3568C28.5887 12.9355 27.9151 12.5534 27.221 12.2126C26.5971 11.9065 25.9894 11.5674 25.4003 11.1967C27.4343 10.9706 30.3007 12.4723 31.8885 13.7846C32.4399 14.2429 32.9717 14.773 33.4855 15.2878C34.5986 16.4046 35.7494 17.558 37.2276 18.0804C38.1079 18.386 39.0303 18.4501 39.9091 18.5067L48.8926 19.0795C48.0436 20.0957 47.2536 21.1612 46.5266 22.2709H46.5221Z" fill="#0F143A" fill-opacity="0.8"/>
</svg>
