<svg width="194" height="196" viewBox="0 0 194 196" fill="none" xmlns="http://www.w3.org/2000/svg">
<g clip-path="url(#clip0_1317_51666)">
<rect width="194" height="196" fill="#FFDFDF"/>
<path fill-rule="evenodd" clip-rule="evenodd" d="M162.021 214.203C161.747 209.118 161.411 204.037 161.008 198.961C160.206 188.849 159.156 178.73 157.409 168.735C155.686 158.872 153.274 149.283 149.798 139.885C148.186 135.525 146.44 131.806 143.907 127.886C141.512 124.181 138.456 121.67 134.648 119.432C131.217 117.417 127.232 113.921 123.941 111.663C122.568 110.721 119.742 110.784 118.799 109.39C117.566 107.565 118.366 104.771 117.122 102.952C115.701 100.872 113.71 99.256 111.464 98.0821C109.013 96.4219 106.126 95.6709 103.232 95.774C98.9638 95.515 94.665 96.8749 91.925 100.35C90.5579 102.085 89.759 104.085 89.6486 106.301C89.6202 106.877 89.8053 107.332 90.1097 107.66C89.9295 107.902 89.7493 108.143 89.5706 108.386C89.0105 107.556 87.7001 107.115 86.8274 107.742C83.9713 109.792 80.8846 111.423 77.6262 112.618C76.864 112.258 75.9412 112.424 75.2882 113.014C75.0232 113.252 74.7421 113.457 74.4483 113.631C73.2403 113.958 72.0136 114.232 70.7687 114.443C70.379 114.509 70.0488 114.731 69.7985 115.029C69.4274 114.682 68.9175 114.516 68.3481 114.732C61.7728 117.24 55.5635 121.136 50.8439 126.413C45.615 132.259 42.8686 139.531 40.7778 146.983C38.5144 155.048 37.068 163.315 35.8531 171.595C34.6221 179.985 33.4097 188.408 32.5627 196.847C32.086 201.595 31.9043 206.388 32.12 211.157C32.2275 213.541 32.4452 215.917 32.7919 218.278C32.8726 218.83 32.9572 219.467 33.0934 220.102C32.6795 220.021 32.1865 220.371 32.2704 220.931C32.8546 224.833 37.5704 225.97 40.8227 226.42C46.1427 227.154 51.4904 227.562 56.8614 227.593C62.1396 227.623 67.4169 227.285 72.684 226.981C78.0842 226.67 83.4842 226.358 88.8838 226.041C110.519 224.772 132.156 223.517 153.791 222.247C155.768 222.131 158.025 221.975 159.717 220.827C162.039 219.255 162.158 216.757 162.021 214.203Z" fill="white"/>
<path fill-rule="evenodd" clip-rule="evenodd" d="M56.5486 170.56C56.4735 170.419 56.6479 170.292 56.7635 170.394C59.3899 172.7 60.7649 176.403 61.0533 179.825C61.3587 183.455 60.9257 187.213 60.7602 190.841C60.5759 194.882 60.4104 198.925 60.1856 202.964C59.9573 207.062 59.7113 211.159 59.5006 215.258L59.0263 224.479C58.9759 225.461 59.0851 226.67 58.7081 227.587C58.1239 229.009 56.3886 228.788 56.0239 227.601L56.0125 227.562L55.9792 227.587C55.6575 226.516 55.8983 225.245 55.9528 224.137L56.4497 214.063C56.8007 206.942 57.1139 199.821 57.491 192.701L57.6192 190.328C57.7954 187.134 57.9306 183.947 58.0391 180.754L58.0744 179.689C58.1774 176.482 58.0956 173.455 56.5486 170.56ZM120.218 111.446C121.682 111.307 122.787 111.793 124.115 112.303C124.694 112.526 125.242 112.783 125.797 113.049C126.492 113.383 126.939 113.972 127.366 114.596L127.595 114.931C129.378 117.544 130.577 120.557 131.93 123.401C133.512 126.728 135.11 130.048 136.659 133.391L137.423 135.038C137.805 135.861 138.186 136.685 138.561 137.511L139.21 138.95C139.861 140.409 140.445 141.953 139.517 143.457C138.654 144.858 137.123 145.941 135.911 147.022C134.9 147.926 133.889 148.829 132.877 149.731C134.969 151.825 136.372 154.462 137.197 157.291C138.369 156.802 139.8 156.709 141.011 156.497C142.708 156.201 142.916 158.771 141.315 158.739C140.132 158.715 138.745 158.836 137.533 158.587C137.743 159.517 137.896 160.46 137.994 161.406C138.503 166.364 137.389 171.351 136.228 176.148L136.132 176.542C134.87 181.734 133.675 186.94 132.605 192.175C131.531 197.421 130.567 202.69 129.71 207.976C128.839 213.357 128.222 218.767 127.559 224.175C127.459 224.994 126.943 225.696 126.04 225.696C125.286 225.696 124.425 224.992 124.52 224.175C125.204 218.285 126.174 212.426 127.138 206.576C128.798 196.502 130.887 186.515 133.291 176.594L133.71 174.866C134.792 170.385 135.773 165.768 135.231 161.146C134.788 157.382 133.216 153.369 130.106 151.032L130.012 150.961C129.286 150.429 129.006 149.41 129.722 148.708C130.177 148.262 130.633 147.816 131.089 147.371L133.826 144.697L134.377 144.157C134.837 143.708 135.299 143.262 135.776 142.828C136.064 142.567 136.845 142.067 136.902 141.636C136.939 141.355 136.606 140.862 136.471 140.603L135.854 139.356C135.503 138.645 135.164 137.928 134.821 137.213C134.111 135.731 133.391 134.253 132.696 132.764L128.525 123.823C127.349 121.3 126.3 118.637 124.761 116.305L124.458 115.85C124.205 115.467 123.981 115.098 123.821 114.631C123.668 114.18 123.474 113.686 123.189 113.301C122.524 112.399 121.25 111.888 120.184 111.698C120.03 111.672 120.086 111.459 120.218 111.446ZM88.1351 109.097C88.2277 109.097 88.2415 109.23 88.1562 109.256C86.8703 109.642 85.6419 110.266 84.6401 111.167C84.1603 111.598 83.6772 112.087 83.3809 112.668C83.268 112.889 83.2055 113.124 83.1593 113.368L83.1446 113.449C83.0683 113.888 82.9587 114.132 82.7355 114.485L82.6973 114.544C81.4235 116.512 80.5308 118.698 79.7146 120.886L77.9369 125.658L76.1605 130.431C75.5881 131.969 75.0155 133.506 74.4429 135.044C74.1266 135.893 73.8014 136.739 73.4764 137.584C73.3357 137.951 73.1845 138.314 73.0559 138.685C73.0382 138.736 72.9819 139.041 72.9397 139.116L72.9541 139.141C73.3124 139.743 74.268 140.247 74.8096 140.685L76.6747 142.193C78.0045 143.269 79.3685 144.315 80.6579 145.438C81.4682 146.144 80.964 147.408 80.0608 147.703C78.5467 148.195 77.0632 148.786 75.5717 149.345C74.9692 149.57 74.3419 149.766 73.7464 150.015L73.3839 150.171C73.2423 150.236 73.3104 150.235 73.316 150.496C73.3217 150.771 73.3994 151.056 73.444 151.325C73.9464 154.364 74.4789 157.398 75.041 160.426C77.0293 171.135 79.4046 181.766 82.1136 192.315C83.4824 197.641 84.9494 202.943 86.3482 208.262C87.743 213.567 89.5786 218.796 91.3314 223.992C91.8258 225.457 89.5031 226.088 89.0209 224.629C87.001 218.518 85.1532 212.354 83.2453 206.209C79.8547 195.289 77.1831 184.132 74.8203 172.948C73.6491 167.406 72.578 161.841 71.6078 156.26C71.4242 155.203 71.2441 154.145 71.0676 153.088L70.8105 151.531C70.6343 150.422 70.5339 149.267 71.3957 148.389C72.2372 147.532 73.6819 147.228 74.7893 146.827L74.8696 146.797C75.5743 146.534 76.284 146.281 76.991 146.02C75.9496 145.199 74.921 144.361 73.882 143.541C73.044 142.88 72.1928 142.232 71.3667 141.555C70.6856 140.997 70.1303 140.281 70.0592 139.374C69.9868 138.447 70.3841 137.586 70.7044 136.735L70.7352 136.653C71.0498 135.804 71.3652 134.956 71.6886 134.11L73.6903 128.872C74.9623 125.545 76.1805 122.191 77.5184 118.889C78.0477 117.583 78.6246 116.296 79.3062 115.061C79.6348 114.466 79.9873 113.883 80.3703 113.32C80.7992 112.69 81.1889 112.383 81.8538 112.035C82.9173 111.479 83.7519 110.546 84.8195 109.973C85.8676 109.411 86.9458 109.11 88.1351 109.097ZM91.5871 103.161C91.6277 103.091 91.7349 103.122 91.7365 103.202C91.7641 104.855 91.3712 106.545 91.1301 108.181C90.8873 109.821 90.8094 111.554 90.4578 113.177C90.4505 113.252 90.4359 113.327 90.4156 113.4L90.3986 113.456C90.2508 113.911 89.8652 114.296 89.3927 114.417C89.5413 115.241 89.6809 116.067 89.7986 116.897C90.0016 118.324 90.1859 119.753 90.3677 121.182L90.5853 122.898C90.7907 124.514 90.9904 126.132 91.1877 127.75C91.6894 127.959 92.2017 128.133 92.727 128.283C93.935 128.629 95.1723 128.769 96.4193 128.892C98.9588 129.141 101.518 129.256 104.066 129.398L104.613 129.429C107.478 129.593 110.358 129.622 113.216 129.328C114.632 129.182 116.039 128.937 117.42 128.591C118.123 128.415 118.805 128.151 119.506 127.979C119.739 127.922 119.946 127.79 120.179 127.649C120.283 127.518 120.428 127.419 120.617 127.381L120.668 127.372L120.719 127.365L120.736 127.357L120.735 127.362C120.878 127.343 121.014 127.344 121.143 127.361C121.194 126.1 121.249 124.838 121.319 123.577C121.506 120.191 122.02 116.659 121.333 113.302C121.31 113.189 121.463 113.149 121.503 113.255C122.852 116.808 122.7 120.695 122.768 124.435C122.835 128.092 122.794 131.753 122.776 135.411C123.038 135.522 123.271 135.674 123.457 135.886C123.827 136.31 123.933 137.046 123.457 137.455C123.246 137.637 123.012 137.763 122.765 137.85C122.752 141.028 122.729 144.208 122.697 147.386C123.301 147.853 123.358 148.961 122.675 149.422C122.56 159.715 122.374 170.008 122.218 180.3L121.894 201.892C121.851 204.769 121.779 207.645 121.753 210.522L121.774 210.53L121.846 210.563C121.967 210.62 122.147 210.712 122.184 210.807C122.194 210.831 122.197 210.848 122.195 210.86C122.394 210.889 122.589 210.982 122.76 211.143C123.18 211.542 123.094 212.143 122.76 212.55L122.671 212.658C122.462 212.911 122.067 213.008 121.744 212.957C121.747 214.752 121.758 216.548 121.752 218.343C121.751 218.892 121.742 219.44 121.733 219.988L121.71 221.303C121.695 222.053 121.628 223.007 120.86 223.344C119.994 223.725 119.216 223.413 118.866 222.532C118.771 222.293 118.791 222.072 118.826 221.836C118.815 221.482 118.759 221.071 118.766 220.742L118.795 219.372C118.8 219.16 118.808 218.949 118.814 218.738L118.789 218.74C115.71 218.889 112.609 218.816 109.523 218.815L108.152 218.816C107.008 218.818 105.86 218.811 104.717 218.768L104.289 218.75C103.433 218.709 102.533 218.696 101.646 218.62C101.759 219.531 101.864 220.442 101.959 221.355C102.048 222.22 101.156 222.955 100.359 222.955C99.4134 222.955 98.8719 222.211 98.7591 221.355C98.2249 217.313 98.0057 213.233 97.495 209.189C97.0379 205.567 96.6409 201.935 96.2383 198.306L96.1035 197.097C94.6284 183.889 93.1962 170.676 91.8266 157.456L91.1885 151.276C90.5447 145.048 89.896 138.819 89.3497 132.581C89.0371 129.015 88.7497 125.448 88.4785 121.878C88.2796 119.256 88.1546 116.648 88.0734 114.031C87.7527 113.7 87.592 113.219 87.7341 112.721C87.8169 112.431 87.9135 112.142 88.0158 111.853C88.0093 111.57 88.0028 111.288 87.9971 111.003C87.9922 110.736 88.2642 110.598 88.4826 110.641C88.8788 109.682 89.3148 108.73 89.6793 107.78C90.2687 106.242 90.7542 104.584 91.5871 103.161ZM58.673 119.788C64.8338 115.925 72.1673 113.146 79.5122 113.445C79.6793 113.452 79.7263 113.707 79.5529 113.745C75.6351 114.62 71.6742 115.686 67.9651 117.238C64.2452 118.793 60.7081 120.889 57.5579 123.406C51.7454 128.052 47.2276 134.093 44.2528 140.904C42.5103 144.894 41.2889 149.106 40.2224 153.32C39.0938 157.779 38.1637 162.286 37.3903 166.821C35.8627 175.777 34.9734 184.834 34.5002 193.905C34.0187 203.132 34.2172 212.366 33.8738 221.595C33.8145 223.194 31.5298 223.163 31.4137 221.595C30.6357 211.103 31.0668 200.442 31.7862 189.957C32.4332 180.532 33.5631 171.125 35.3823 161.851L35.5408 161.047C37.2416 152.467 39.293 143.678 43.4046 135.908C46.9149 129.273 52.3342 123.762 58.673 119.788ZM144.225 160.796C144.257 160.704 144.378 160.705 144.411 160.796C145.113 162.763 145.138 164.982 145.325 167.056L145.339 167.215C145.519 169.106 145.654 170.999 145.779 172.894L145.826 173.604C146.328 181.335 146.957 189.055 147.905 196.745C148.849 204.405 150.126 212.012 151.506 219.604C151.66 220.449 151.286 221.31 150.4 221.554C149.619 221.768 148.616 221.287 148.451 220.447C147.594 216.089 146.901 211.726 146.283 207.33C145.194 199.591 144.381 191.815 143.859 184.017C143.597 180.1 143.436 176.184 143.371 172.26C143.342 170.438 143.389 168.613 143.487 166.793L143.509 166.374C143.617 164.514 143.606 162.569 144.225 160.796ZM77.6536 210.031C77.7359 209.987 77.8378 210.078 77.7857 210.164C76.5927 212.103 74.9789 213.776 73.4192 215.424C71.7885 217.146 70.1982 218.921 68.5346 220.611C67.3326 221.831 65.3991 219.862 66.6676 218.742C68.4513 217.169 70.3155 215.674 72.1308 214.134L72.9248 213.461C74.4132 212.204 75.9458 210.957 77.6536 210.031ZM134.314 209.06C134.224 208.891 134.428 208.753 134.566 208.865C135.528 209.648 136.391 210.582 137.32 211.408C138.24 212.226 139.194 212.99 140.175 213.733C141.16 214.481 142.166 215.199 143.199 215.877C144.057 216.441 144.94 216.892 145.837 217.359C146.253 217.413 146.637 217.617 146.946 218.004C147.433 218.616 147.484 219.769 146.809 220.3L146.688 220.396C145.9 221.016 144.963 221.091 144.187 220.396C143.32 219.619 142.501 218.765 141.669 217.945L141.419 217.7C140.525 216.831 139.652 215.933 138.83 214.994L138.085 214.147C136.704 212.571 135.265 210.872 134.314 209.06ZM129.881 118.2C129.721 118.093 129.82 117.808 130.017 117.876L130.38 118.002C131.894 118.528 133.452 119.111 134.827 119.922C136.304 120.793 137.668 121.83 138.972 122.943C141.669 125.247 143.964 128.079 145.914 131.032C149.828 136.957 152.248 143.742 154.202 150.531C156.286 157.77 157.889 165.164 159.199 172.58C160.53 180.116 161.556 187.721 162.232 195.344C162.564 199.099 162.787 202.857 162.899 206.625C162.957 208.563 162.955 210.5 162.939 212.44C162.935 212.938 162.938 213.437 162.944 213.935L162.962 215.432C162.973 216.377 163.086 217.37 162.862 218.294C162.5 219.782 160.042 219.504 160.122 217.984C160.049 217.478 160.045 216.956 160.065 216.432C160.053 216.365 160.04 216.296 160.027 216.226C159.986 216.025 160.02 215.839 160.1 215.679C160.112 215.428 160.123 215.178 160.127 214.932C160.144 213.935 160.143 212.94 160.115 211.942C160.057 209.837 159.973 207.732 159.889 205.629C159.72 201.425 159.485 197.219 159.144 193.025C157.959 178.429 155.456 163.749 151.253 149.705C149.3 143.184 146.608 136.782 142.749 131.147C141.035 128.646 139.102 126.335 136.959 124.19C134.802 122.033 132.425 119.885 129.881 118.2ZM100.794 212.297L101.085 214.406C101.23 215.459 101.375 216.514 101.511 217.569C102.442 217.442 103.392 217.388 104.289 217.309C105.857 217.17 107.436 217.102 109.01 217.038C112.263 216.904 115.532 216.671 118.789 216.687C118.822 216.687 118.854 216.689 118.885 216.692L119.047 212.533L116.759 212.529C114.82 212.526 112.882 212.51 110.943 212.493C109.198 212.478 107.452 212.476 105.705 212.439L104.958 212.421C103.634 212.386 102.172 212.459 100.794 212.297ZM119.239 206.26C119.146 206.272 119.051 206.28 118.949 206.285C118.496 206.304 118.04 206.291 117.586 206.294C116.621 206.303 115.655 206.31 114.689 206.31C112.758 206.309 110.827 206.321 108.896 206.344C106.908 206.368 104.921 206.402 102.933 206.406C101.97 206.408 101.01 206.383 100.047 206.356C100.203 207.725 100.366 209.093 100.545 210.457C102.041 210.255 103.649 210.357 105.11 210.343L105.3 210.341C107.294 210.306 109.29 210.332 111.286 210.334C113.338 210.336 115.391 210.343 117.443 210.36L119.129 210.374L119.133 210.289C119.182 208.947 119.214 207.605 119.239 206.26ZM99.3055 199.712C99.4922 201.327 99.6675 202.946 99.8462 204.564C99.9655 204.546 100.086 204.53 100.208 204.517C101.173 204.416 102.136 204.33 103.103 204.269C105.033 204.15 106.963 204.087 108.896 204.035C110.883 203.982 112.872 203.941 114.86 203.913C115.826 203.899 116.79 203.901 117.757 203.907C118.21 203.911 118.667 203.896 119.12 203.927C119.174 203.93 119.225 203.936 119.276 203.941L119.31 201.512C119.316 201.107 119.323 200.703 119.329 200.298C117.836 200.39 116.318 200.355 114.827 200.356L114.482 200.356C112.608 200.364 110.733 200.339 108.859 200.3C106.925 200.26 104.996 200.196 103.065 200.073C102.283 200.023 101.507 199.956 100.729 199.87L100.341 199.825C100.002 199.786 99.6537 199.753 99.3055 199.712ZM119.483 192.856C115.888 193.141 112.311 193.261 108.706 193.296L108.165 193.301C104.98 193.325 101.767 193.456 98.574 193.372C98.7648 195.028 98.9555 196.684 99.1471 198.34C99.6042 198.319 100.064 198.319 100.511 198.302C101.42 198.269 102.326 198.261 103.236 198.259C105.11 198.254 106.985 198.271 108.859 198.267C110.791 198.263 112.721 198.231 114.653 198.194C116.219 198.165 117.801 198.047 119.371 198.051L119.483 192.856ZM119.635 185.791C119.219 185.93 118.727 185.939 118.188 185.963L116.795 186.033C116.151 186.064 115.505 186.094 114.86 186.117C112.708 186.196 110.558 186.27 108.406 186.338C106.201 186.409 103.987 186.449 101.782 186.379C100.702 186.345 99.631 186.288 98.5537 186.198C98.2874 186.176 98.0162 186.162 97.7443 186.142C97.9951 188.337 98.2468 190.53 98.4993 192.724C101.677 192.334 104.88 192.091 108.054 191.687L110.924 191.32C113.793 190.954 116.659 190.595 119.539 190.292L119.635 185.791ZM119.789 178.648C119.177 178.799 118.481 178.792 117.893 178.829L117.785 178.836C116.672 178.921 115.557 178.963 114.443 178.991C112.257 179.044 110.071 179.071 107.884 179.085L106.57 179.093C104.818 179.103 103.067 179.108 101.314 179.066C100.19 179.04 99.0676 178.985 97.9448 178.929C97.6079 178.912 97.2636 178.901 96.9186 178.884C97.1532 180.961 97.3911 183.038 97.6273 185.115C97.9967 185.056 98.3678 185.011 98.7209 184.951C99.6261 184.799 100.53 184.676 101.442 184.567C103.418 184.33 105.402 184.16 107.387 184.016C109.424 183.868 111.464 183.743 113.502 183.6L114.944 183.499C115.426 183.465 115.906 183.433 116.388 183.403C117.209 183.353 118.165 183.41 118.98 183.231C119.201 183.139 119.446 183.118 119.691 183.17L119.789 178.648ZM119.974 170.288C119.762 170.556 119.446 170.697 119.069 170.746C117.107 171 115.094 171.041 113.116 171.161L112.768 171.183C110.724 171.318 108.68 171.423 106.636 171.532C104.535 171.643 102.435 171.734 100.333 171.808C99.441 171.839 98.5447 171.842 97.6509 171.831L97.2677 171.825C96.9007 171.82 96.5167 171.82 96.1311 171.807C96.3446 173.75 96.5598 175.692 96.7781 177.634C97.1711 177.591 97.5632 177.559 97.944 177.518C99.0668 177.399 100.189 177.282 101.314 177.193C103.446 177.025 105.58 176.925 107.716 176.818C109.902 176.71 112.089 176.638 114.274 176.536C115.335 176.486 116.394 176.424 117.45 176.327C118.192 176.26 119.071 176.007 119.844 176.1C119.886 174.162 119.93 172.225 119.974 170.288ZM120.146 162.797C120.113 162.849 120.074 162.9 120.026 162.946C119.162 163.8 118.097 163.734 116.953 163.824L116.882 163.829C115.761 163.923 114.638 164.014 113.515 164.095C111.27 164.256 109.021 164.37 106.772 164.471C104.471 164.575 102.156 164.646 99.8526 164.599C98.3775 164.569 96.8334 164.574 95.329 164.43C95.5596 166.569 95.7917 168.709 96.0264 170.847C96.4493 170.767 96.8748 170.707 97.2783 170.642C98.2947 170.482 99.312 170.322 100.334 170.204C102.376 169.969 104.419 169.749 106.465 169.55C108.216 169.381 109.965 169.209 111.716 169.054L112.768 168.963C114.857 168.787 116.973 168.497 119.069 168.454C119.415 168.447 119.806 168.635 120.004 168.932C120.05 166.887 120.098 164.842 120.146 162.797ZM120.291 156.734C119.758 156.799 119.182 156.762 118.69 156.778C117.445 156.819 116.199 156.857 114.955 156.894L107.483 157.114C104.939 157.189 102.386 157.245 99.8413 157.209C98.7225 157.194 97.5981 157.192 96.4786 157.131L96.1059 157.108C95.6456 157.078 95.0806 157.073 94.5285 157.017L95.1796 163.055C96.6767 162.839 98.22 162.758 99.7041 162.631L100.022 162.603C102.21 162.403 104.41 162.271 106.603 162.123C108.854 161.97 111.1 161.785 113.347 161.596C114.469 161.502 115.592 161.408 116.714 161.304L116.853 161.291C117.913 161.179 118.909 160.944 119.849 161.569C119.986 161.661 120.093 161.783 120.167 161.92C120.208 160.191 120.248 158.463 120.291 156.734ZM120.465 149.688C115.914 149.871 111.364 150.011 106.81 150.072C104.247 150.106 101.687 150.081 99.1244 150.028C98.013 150.005 96.8926 149.951 95.782 149.866L95.3663 149.833C94.8378 149.788 94.2833 149.757 93.7312 149.703C93.9594 151.779 94.1859 153.855 94.4108 155.932C94.9539 155.831 95.5214 155.784 95.998 155.723L96.1059 155.709C97.2888 155.546 98.483 155.451 99.6716 155.346C101.986 155.142 104.313 155.011 106.634 154.899C109.01 154.784 111.388 154.688 113.765 154.582L116.143 154.476C116.54 154.458 116.936 154.441 117.332 154.424C117.898 154.4 118.464 154.378 119.029 154.354C119.309 154.343 119.599 154.305 119.879 154.319L119.958 154.308C119.995 154.304 120.027 154.3 120.057 154.296C120.133 154.239 120.215 154.191 120.302 154.154L120.354 154.134L120.465 149.688ZM92.9852 143.011C93.1962 144.88 93.4057 146.749 93.6119 148.618C94.2606 148.544 94.9174 148.503 95.5368 148.447C96.7863 148.335 98.0422 148.237 99.2949 148.179L101.8 148.063C103.469 147.986 105.139 147.911 106.81 147.85C111.383 147.683 115.957 147.492 120.527 147.259C120.559 145.99 120.592 144.722 120.626 143.455C120.406 143.69 120.09 143.845 119.673 143.843C114.875 143.831 110.073 143.858 105.276 143.78C102.874 143.74 100.475 143.681 98.0771 143.558C96.9032 143.498 95.7227 143.375 94.5585 143.214C94.0617 143.145 93.5177 143.096 92.9852 143.011ZM92.2171 136.351C92.4428 138.266 92.6645 140.181 92.882 142.096C93.478 141.99 94.0933 141.933 94.6495 141.857C95.8437 141.695 97.0452 141.566 98.2484 141.498C100.589 141.365 102.931 141.298 105.276 141.248C110.073 141.147 114.875 141.147 119.673 141.109C120.124 141.105 120.458 141.284 120.678 141.55C120.712 140.355 120.747 139.159 120.783 137.964C120.32 137.915 119.86 137.846 119.435 137.816C118.128 137.725 116.82 137.641 115.513 137.567C112.784 137.41 110.052 137.276 107.321 137.157C104.589 137.038 101.856 136.922 99.1236 136.82L97.9285 136.777C96.028 136.707 94.0958 136.618 92.2171 136.351ZM91.3582 129.142C91.5928 131.081 91.8242 133.02 92.0548 134.96L92.1246 135.56C94.41 135.116 96.8187 134.985 99.1236 134.887C101.857 134.771 104.585 134.71 107.321 134.719C110.054 134.728 112.782 134.792 115.513 134.905C116.877 134.961 118.241 135.026 119.605 135.101C119.98 135.12 120.419 135.11 120.872 135.116C120.882 134.812 120.89 134.507 120.901 134.202C120.942 132.968 120.983 131.733 121.025 130.499C120.103 130.973 118.904 131.164 117.977 131.366L117.871 131.39C116.341 131.733 114.778 131.957 113.216 132.093C110.148 132.36 107.048 132.26 103.983 132.001L103.447 131.955C100.755 131.722 97.9651 131.426 95.3558 130.76C94.1128 130.443 92.8285 129.998 91.7146 129.355C91.5985 129.288 91.4792 129.217 91.3582 129.142ZM117.272 106.102C117.299 105.998 117.455 105.973 117.507 106.071C117.869 106.76 118.005 107.587 118.256 108.325C118.527 109.118 118.779 109.917 119.078 110.701C119.703 112.339 120.439 113.912 121.316 115.43C122.186 116.932 119.752 118.004 119.112 116.359C118.451 114.662 117.908 112.908 117.58 111.115C117.42 110.239 117.277 109.353 117.23 108.464C117.191 107.7 117.083 106.847 117.272 106.102Z" fill="black"/>
<path fill-rule="evenodd" clip-rule="evenodd" d="M137.069 48.8733C137.011 46.8215 134.028 45.9696 133.166 48.0016C133.112 48.056 133.055 48.1084 132.999 48.1552C133.27 47.9238 132.706 48.3067 132.614 48.3541C132.535 48.3946 132.455 48.4312 132.374 48.4689C131.821 43.2709 129.939 37.6672 125.076 35.058C118.293 31.7678 110.456 31.1255 103.015 31.4524C99.2457 31.6761 94.8926 32.2791 91.5437 30.3714C90.5004 29.777 89.6634 28.8413 88.4846 28.474C84.7622 27.4666 83.0736 31.2906 83.5802 34.4352C81.993 34.4478 80.4177 35.3271 79.7325 36.775C79.3301 37.6319 79.3372 38.5566 78.9902 39.4165C77.9256 41.5974 76.4023 43.165 77.2635 45.8091C75.7488 47.5334 76.6124 50.1437 77.8347 51.7945C78.4382 52.6532 79.1571 53.4775 79.5992 54.4385C80.0284 55.3588 79.3805 56.4501 79.02 57.3224C76.3546 63.6452 76.5069 70.6083 77.9412 77.2032C75.0631 78.4526 74.1993 82.3577 76.0761 84.8168C76.7218 85.6863 77.5096 86.0086 78.403 86.5436C79.5337 87.1663 78.6102 89.6595 78.9723 90.8635C79.4642 93.804 82.1399 95.6137 84.7858 93.705C86.4647 93.4509 87.8189 98.3374 89.0375 99.5642C89.7884 100.552 90.623 101.44 91.529 102.259C94.2309 109.212 108.073 112.738 114.917 112.335C122.084 111.585 126.919 105.496 130.945 100.093C133.012 97.213 134.357 93.99 134.846 90.4754C135.337 86.9422 135.122 83.4034 134.79 79.8669C134.093 72.352 132.992 61.5255 132.282 53.9296C134.85 53.7181 137.146 51.5309 137.069 48.8733Z" fill="white"/>
<path fill-rule="evenodd" clip-rule="evenodd" d="M81.0878 44.3555C81.0853 44.3661 81.0886 44.3742 81.091 44.3855C81.0918 44.3823 81.0918 44.3806 81.0926 44.3766C81.091 44.3681 81.0894 44.3624 81.0878 44.3555Z" fill="#4F66AF"/>
<path fill-rule="evenodd" clip-rule="evenodd" d="M81.0869 44.4648C81.0772 44.4548 81.0642 44.4474 81.0504 44.4375C81.0504 44.4378 81.0504 44.4381 81.0496 44.4385C81.0626 44.4468 81.0747 44.4562 81.0869 44.4648Z" fill="#4F66AF"/>
<path fill-rule="evenodd" clip-rule="evenodd" d="M136.66 49.8447C137.503 49.1435 138.832 49.7891 138.547 50.9433C138.236 52.2003 136.889 53.0593 135.777 53.5758C134.633 54.1072 133.518 54.2096 132.269 54.1516L132.254 54.1482C132.601 55.5385 132.797 56.9838 133.063 58.3825C133.399 60.1571 133.73 61.9326 134.056 63.7088C134.371 65.4256 134.77 67.1448 135.013 68.8703C135.257 70.612 135.492 72.355 135.732 74.0973C136.132 77.007 136.456 79.9305 136.797 82.8491L136.96 84.2301C137.301 87.1536 137.576 90.0812 136.929 92.9908C136.322 95.7179 134.955 98.2614 133.37 100.538C131.818 102.766 130.084 104.91 128.18 106.848C124.508 110.587 119.98 113.582 114.67 114.137C112.384 114.377 109.943 114.11 107.793 113.279L107.65 113.223C105.475 112.364 102.81 110.893 102.244 108.478C101.896 106.997 103.422 105.841 104.76 106.543C105.379 106.87 105.845 107.241 106.354 107.708L106.444 107.791C106.86 108.177 107.02 108.296 107.5 108.599C108.484 109.217 109.222 109.51 110.34 109.792C112.4 110.311 114.624 110.229 116.716 109.615C121.157 108.314 124.602 104.916 127.554 101.51C129.157 99.6594 130.678 97.7191 131.851 95.5636C133.082 93.301 133.65 90.9263 133.616 88.3527C133.577 85.4487 133.176 82.5333 132.913 79.6423C132.645 76.6961 132.397 73.7503 132.178 70.7996C131.974 68.0324 131.954 65.2528 131.882 62.477L131.868 61.9566C131.826 60.483 131.797 59.0089 131.764 57.535C131.73 56.0653 131.614 54.577 131.765 53.1135C131.777 53.007 131.92 52.98 131.955 53.0878C132.044 53.3619 132.122 53.6405 132.196 53.9205C132.207 53.9119 132.22 53.9042 132.235 53.8988C133.214 53.5626 134.115 52.8912 134.849 52.1671C135.549 51.4761 135.915 50.4639 136.66 49.8447ZM83.1334 29.2547C83.748 26.7297 86.5132 26.1656 88.5583 27.3817C89.5422 27.9664 90.3297 28.8098 91.2488 29.48C92.1621 30.1464 93.172 30.6816 94.2372 31.0596C96.3537 31.8104 98.5863 32.0834 100.823 32.0933C106.266 32.1171 111.6 30.5865 117.051 30.7573C121.27 30.8894 125.748 32.1366 128.808 35.1874C130.457 36.8309 131.518 38.9438 132.088 41.1869C132.355 42.2353 132.554 43.3091 132.709 44.3804L132.748 44.6482C132.836 45.2743 132.977 45.9371 132.99 46.57C133.001 47.1383 132.857 47.7329 132.779 48.2954C132.615 49.481 130.78 49.346 130.516 48.2954C129.915 45.9033 130.167 43.4346 129.433 41.0507C128.782 38.9367 127.52 37.0885 125.693 35.8244C117.981 30.4915 108.092 34.9573 99.5955 34.5425C97.5187 34.4411 95.412 34.12 93.453 33.4047C92.443 33.0357 91.4485 32.5858 90.5327 32.02C89.6941 31.5018 88.9666 30.8508 88.1905 30.2517L87.8479 29.9912C87.3153 29.5905 86.4085 28.9639 85.8718 29.494C85.638 29.7248 85.6234 30.2465 85.6283 30.645L85.6307 30.8251C85.6551 32.5166 85.9993 34.2049 85.3669 35.8391C85.0778 36.5845 84.2757 37.0544 83.5134 36.6324L83.4736 36.6097C81.8596 35.6493 79.7395 37.5792 80.9796 39.1764L81.0177 39.2247C81.7151 40.0727 81.3433 41.566 80.0951 41.5623L80.0501 41.5615C77.8259 41.492 76.839 44.2729 78.7562 45.4879L78.8151 45.5243C80.3717 46.4561 79.0064 48.6966 77.4111 47.9274C77.5462 47.9926 77.3113 47.9917 77.1768 48.1722C77.0476 48.3455 77.038 48.4954 77.0687 48.7144C77.1618 49.3778 77.745 49.9368 78.2174 50.3565C79.2904 51.31 80.6206 51.9684 81.9912 52.3692C87.4817 53.9749 93.1144 52.0108 98.4637 50.8246C104.04 49.588 110.34 49.0899 115.203 52.599C115.261 52.6405 115.21 52.7333 115.146 52.6962C111.656 50.6685 107.381 50.8484 103.565 51.6798C98.562 52.77 93.6023 54.7993 88.4787 55.334C89.9173 57.8746 90.5189 60.875 90.1349 63.7809C89.8702 65.7812 89.0746 67.5163 88.1345 69.2746L87.9551 69.6096C87.1172 71.1879 86.4685 72.6788 86.458 74.5073C86.4474 76.3234 83.748 76.7066 83.2909 74.936C82.2518 70.9151 86.0366 67.7478 87.5808 64.4318C88.9001 61.5973 88.9415 58.2923 87.8731 55.39C86.6683 55.4869 85.4537 55.497 84.227 55.3876C83.1732 55.2934 82.0894 55.1035 81.0324 54.8028L80.6099 56.5804C80.0499 58.9482 79.531 61.3143 79.3737 63.7737C79.258 65.5808 79.2641 67.3969 79.4403 69.1996C79.5926 70.7565 79.914 72.2581 80.2411 73.7782C80.5218 74.1485 80.6654 74.7151 80.5862 75.1665C82.4076 75.691 83.8406 77.1296 84.3642 79.0334C84.3959 79.1495 84.2335 79.2153 84.1726 79.1146C82.9313 77.0525 79.7327 76.2942 77.7097 77.6565C75.7777 78.9563 75.0156 81.5818 76.1093 83.6602C76.6845 84.7529 77.5373 85.521 78.6371 86.0495L78.8582 86.1534C79.4345 86.4262 79.9635 86.7233 80.3341 87.2713C80.8148 87.9817 80.831 88.7335 80.7856 89.5453L80.7661 89.8749C80.736 90.4189 80.7287 90.9791 80.8911 91.5027L80.9276 91.6196C80.9707 91.7503 81.0153 91.8648 81.0932 91.9898C81.1168 92.0272 81.336 92.2415 81.4066 92.3194L81.4967 92.347L81.5974 92.3511C81.7086 92.3527 81.8556 92.304 81.8077 92.3373L81.8207 92.33C81.8629 92.304 81.9019 92.2756 81.9343 92.2512L81.9968 92.2025C82.1422 91.9923 82.3248 91.8177 82.5489 91.6854L82.7624 91.5904C83.3177 91.0034 84.27 91.3119 84.6679 91.8965C84.9544 92.317 85.1087 92.744 85.1217 93.1654C85.1663 93.0939 85.2662 93.0542 85.3295 93.1353L85.707 93.616C87.1513 95.4629 88.5713 97.3213 90.2136 99.0051C91.118 99.9322 92.0907 100.804 93.1071 101.607C93.9758 102.292 95.6222 102.952 95.6482 104.2C95.6555 104.606 95.3681 104.893 95.0158 105.031C93.8702 105.478 92.4552 103.956 91.6279 103.215L91.5605 103.154C90.5473 102.267 89.6234 101.294 88.771 100.252C87.114 98.2289 85.7289 95.9005 85.1184 93.3383C85.09 93.7856 84.8984 94.2241 84.525 94.6373C84.0281 95.1869 83.3486 95.5725 82.622 95.7317C80.9763 96.0913 79.3694 95.4987 78.3901 94.1274C77.5625 92.9673 77.3188 91.4361 77.4256 90.0349L77.4388 89.8668C77.4538 89.6419 77.4729 89.2295 77.531 89.0541L77.0128 88.77C76.3775 88.4315 75.7887 87.9882 75.2602 87.5011C73.1363 85.5421 72.0707 82.3588 73.0417 79.5725C73.649 77.8302 74.9253 76.3137 76.5595 75.5254C76.2863 74.8946 76.195 74.1443 76.0919 73.4807L76.0746 73.371C75.8998 72.2824 75.7535 71.1802 75.6978 70.0786C75.5935 68.0213 75.7202 65.9447 76.0434 63.9113C76.5682 60.6084 77.6548 57.1057 79.6465 54.3349C78.127 53.7313 76.7285 52.8574 75.6489 51.6439C74.5208 50.3759 73.8016 48.5605 74.674 46.9502C74.8963 46.5398 75.1859 46.1947 75.5189 45.9206C74.9416 44.8301 74.7548 43.5411 75.111 42.3091C75.5367 40.8362 76.6926 39.6874 78.0889 39.1511C77.7499 37.7556 78.027 36.2545 79.0631 35.0915C80.0909 33.9378 81.6867 33.5176 83.1643 33.7813C83.2439 32.297 82.777 30.7185 83.1334 29.2547ZM78.9909 81.3651C80.3452 80.7026 81.9506 80.8073 83.3031 81.4357L83.3949 81.4795C84.8716 82.1956 86.8274 83.8696 86.3581 85.65C86.0837 86.6917 84.9268 87.0472 84.0305 86.5975C83.2812 86.2224 83.1107 85.551 82.7348 84.8763C82.4693 84.399 82.1405 84.0263 81.7549 83.6431C80.9414 82.8345 80.0284 82.2346 78.9909 81.7539C78.8413 81.6849 78.8465 81.4365 78.9909 81.3651ZM113.114 45.3786C112.988 45.3207 113.08 45.1218 113.208 45.1581C116.611 46.1303 119.784 48.3126 121.68 51.3416C121.796 51.5264 121.813 51.8306 121.68 52.0135L121.619 52.0965C121.532 52.2101 121.446 52.294 121.282 52.3193C120.975 52.367 120.708 52.2869 120.531 52.0135C118.663 49.1264 116.27 46.8224 113.114 45.3786ZM135.897 45.9504C136.185 45.4619 136.949 45.5602 137.102 46.1079L137.124 46.1556C137.205 46.3423 137.168 46.3805 137.015 46.2748C137.395 46.5875 137.566 47.0532 137.45 47.5538C136.824 50.2581 133.762 52.1891 131.093 51.9233C130.86 51.9001 130.828 51.6138 131.039 51.5283C132.066 51.1124 132.977 50.4368 133.71 49.6079C134.422 48.8022 134.723 47.8802 135.105 46.9071C135.25 46.5418 135.473 46.2787 135.788 46.1351C135.829 46.0775 135.866 46.0161 135.897 45.9504ZM120.718 44.2127L120.736 44.2138C122.107 44.3911 123.294 45.0682 124.257 46.0603C125.184 47.0157 126.355 48.5922 126.255 49.9942C126.189 50.9237 124.868 51.4551 124.375 50.5038C124.08 49.9362 124.014 49.314 123.807 48.7138C123.619 48.1637 123.358 47.6414 123.045 47.1516C122.402 46.1423 121.517 45.2872 120.611 44.5158C120.505 44.4255 120.579 44.2131 120.718 44.2127ZM85.5414 43.8007C85.2378 43.511 85.5536 43.0173 85.9408 43.1151C87.9802 43.6317 90.0009 44.2601 92.1215 44.3225C93.181 44.3536 94.234 44.27 95.2837 44.1329L95.8146 44.0623C96.633 43.9555 97.4651 43.8716 98.2738 44.0397C98.8136 44.1518 98.9184 44.8467 98.5831 45.2093C96.9959 46.9215 93.9352 46.7578 91.8309 46.4692C89.5463 46.1556 87.2398 45.4195 85.5414 43.8007ZM122.379 38.4636C122.239 38.2699 122.474 37.9641 122.696 38.0501C124.723 38.8339 126.848 40.8745 127.406 43.0096C127.554 43.5736 126.843 43.9995 126.426 43.5808C125.647 42.8006 125.098 41.8791 124.441 41.002C123.786 40.1278 123.018 39.3514 122.379 38.4636ZM89.1631 39.4172C88.9999 39.2546 89.1639 38.931 89.3977 39.0138C90.717 39.4813 92.0468 39.8859 93.4335 40.0982C94.8542 40.3154 96.2871 40.1504 97.7152 40.2384C98.2924 40.2739 98.6854 41.1727 98.044 41.4523C95.1911 42.6948 91.3161 41.5681 89.1631 39.4172ZM92.8083 36.6303C92.581 36.4625 92.7101 36.0019 93.0186 36.1305C94.2754 36.654 95.5467 36.7827 96.8952 36.7288C97.3937 36.7087 97.4984 37.492 97.0129 37.5977C95.5224 37.9222 94.0261 37.5315 92.8083 36.6303Z" fill="black"/>
<path fill-rule="evenodd" clip-rule="evenodd" d="M115.659 97.4463C114.507 96.9763 113.477 96.1912 112.725 95.1886C112.464 94.8395 112.396 94.4717 112.451 94.1348C112.513 93.7564 112.737 93.413 113.042 93.1833C113.348 92.9527 113.731 92.8382 114.102 92.8967C114.423 92.947 114.744 93.1232 114.997 93.4885L115.05 93.5616C115.497 94.1672 116.08 94.6633 116.744 94.984C117.384 95.2925 118.099 95.4362 118.84 95.3526C120.251 95.1934 121.223 94.4303 122.257 93.3935C122.384 93.2628 122.512 93.1281 122.641 92.9909C122.723 92.8667 122.835 92.7863 122.96 92.7449C123.1 92.6978 123.258 92.701 123.401 92.7514C123.541 92.7993 123.665 92.8918 123.748 93.0144C123.828 93.1305 123.872 93.2742 123.858 93.4398C123.763 94.5131 123.202 95.4719 122.404 96.2245C121.519 97.0607 120.346 97.6387 119.241 97.8417C118.023 98.065 116.782 97.905 115.659 97.4463ZM119.815 80.878C121.11 81.6655 123.083 83.5019 121.69 85.4544C120.05 87.1763 117.688 85.2027 116.525 84.3097C115.446 83.618 114.234 85.3976 115.235 86.2054C123.643 92.4331 127.055 81.0842 120.47 79.9525C119.745 79.8274 119.475 80.6344 119.815 80.878ZM104.746 73.6337C104.889 71.8567 107.595 71.4531 107.864 73.2116C108.105 74.7866 107.821 76.2333 107.112 77.6517C106.434 79.0066 104.731 78.375 104.602 77.141C104.43 75.4872 104.657 74.7387 104.746 73.6337ZM125.34 72.8469C125.717 72.3528 126.261 72.0154 126.914 72.2061C128.953 72.802 128.352 75.6975 127.636 77.1061C127.247 77.8717 125.99 78.0657 125.421 77.3919C124.495 76.2934 124.052 74.0986 125.229 73.0164C125.26 72.9604 125.296 72.9039 125.34 72.8469ZM107.084 65.8581L107.405 65.8017C108.401 65.6294 109.64 65.4637 110.345 66.265C110.719 66.6898 110.848 67.4794 110.345 67.8861C109.461 68.6016 108.484 68.3243 107.426 68.3849C106.553 68.435 105.714 68.5795 104.873 68.8199C103.029 69.3472 101.527 70.3097 99.9517 71.3667C99.7446 71.5053 99.5336 71.2409 99.6326 71.0475C100.542 69.266 102.304 67.8025 104.069 66.9105C105.01 66.4343 106.041 66.0393 107.084 65.8581ZM123.482 65.06L123.728 65.1105C126.41 65.6713 129.895 66.7917 131.165 69.4271C131.213 69.7998 131.162 69.8797 131.12 69.9319L131.107 69.9493C131.073 69.9938 131.045 70.0552 130.883 70.1059C130.839 70.0952 130.793 70.0839 130.748 70.0719C130.166 69.9193 129.705 69.709 129.259 69.4909L128.776 69.2526C128.215 68.9775 127.649 68.7123 127.049 68.5166C125.769 68.0989 124.453 67.8047 123.116 67.6476C122.826 67.6136 122.547 67.5158 122.326 67.3481C122.118 67.1889 121.959 66.9686 121.886 66.6757C121.791 66.2967 121.818 66.0097 122.021 65.6678C122.175 65.411 122.393 65.2329 122.645 65.1307C122.9 65.0266 123.192 65.002 123.482 65.06Z" fill="black"/>
<path fill-rule="evenodd" clip-rule="evenodd" d="M128.834 55.3154C129.825 54.9755 130.616 56.0069 130.425 56.9058C130.201 57.9645 129.096 58.8142 128.364 59.5605C127.595 60.3463 126.812 61.1168 125.998 61.858C124.446 63.2755 122.838 64.6103 121.141 65.8542L120.622 66.2345C119.068 67.3726 117.517 68.4843 115.852 69.4696C114.95 70.0015 114.039 70.5162 113.116 71.0121C112.787 71.1888 112.385 71.4615 111.972 71.6642C113.483 72.8309 114.646 74.6123 114.898 76.2709C115.522 80.3927 112.867 84.2125 109.121 85.7306C107.253 86.4873 105.174 86.7073 103.178 86.4792C101.147 86.247 99.0894 85.6462 97.7701 83.9827C96.5986 82.5051 96.1765 80.6192 96.0928 78.7682C96.0531 77.8889 96.062 77.0243 96.2471 76.2473C95.4393 76.2538 94.6315 76.2506 93.8302 76.2595C91.8509 76.2782 89.8683 76.2871 87.8874 76.2319C85.8448 76.1735 83.8119 76.0825 81.7757 75.9007C80.8827 75.8203 79.994 75.688 79.1053 75.5605C78.2427 75.4387 77.2908 75.3925 76.4846 75.0393C76.4298 75.0166 76.4525 74.9378 76.5001 74.9224C77.3594 74.6447 78.3353 74.6943 79.2307 74.6391L80.1033 74.5863C80.8299 74.5433 81.5565 74.5035 82.2856 74.4797C83.9694 74.4243 85.6516 74.4107 87.3353 74.3818L88.0571 74.3683C90.038 74.3288 92.0189 74.3066 93.9999 74.2431C94.8215 74.2174 95.6447 74.1693 96.4703 74.1247C96.5661 73.9066 96.7066 73.7075 96.8422 73.5138C97.2473 72.9339 97.7612 72.4225 98.2954 71.9593C99.3873 71.0051 100.617 70.2966 101.989 69.8213C103.349 69.3519 105.338 69.1191 106.777 69.1494C108.215 69.1796 110.265 69.3826 110.924 70.5592C110.993 70.6809 112.246 70.4459 112.618 70.1609C113.488 69.497 114.343 68.8141 115.181 68.114C116.738 66.8117 118.34 65.5299 119.815 64.1366C121.337 62.6988 122.846 61.2369 124.293 59.7269C125.021 58.9702 125.747 58.2118 126.451 57.4362C127.172 56.6452 127.791 55.6706 128.834 55.3154Z" fill="black"/>
</g>
<defs>
<clipPath id="clip0_1317_51666">
<rect width="194" height="196" fill="white"/>
</clipPath>
</defs>
</svg>
