<svg width="193" height="196" viewBox="0 0 193 196" fill="none" xmlns="http://www.w3.org/2000/svg">
<g clip-path="url(#clip0_1329_52214)">
<rect width="193" height="196" fill="#FFDFDF"/>
<path fill-rule="evenodd" clip-rule="evenodd" d="M161.185 205.621C160.912 200.536 160.578 195.455 160.177 190.379C159.379 180.267 158.335 170.148 156.597 160.153C154.882 150.29 152.483 140.701 149.025 131.303C147.421 126.943 145.684 123.224 143.165 119.304C140.782 115.599 137.741 113.088 133.953 110.85C130.54 108.835 126.575 105.339 123.301 103.081C121.935 102.139 119.123 102.202 118.186 100.808C116.959 98.9825 117.754 96.1889 116.517 94.3704C115.104 92.2904 113.122 90.674 110.888 89.5009C108.45 87.8406 105.578 87.0889 102.699 87.192C98.4527 86.933 94.176 88.2928 91.4502 91.7676C90.09 93.5025 89.2953 95.5029 89.1854 97.7193C89.1572 98.2949 89.3413 98.7495 89.6442 99.0775C89.4649 99.3195 89.2856 99.5614 89.1079 99.8041C88.5506 98.9736 87.247 98.5328 86.3788 99.1595C83.5374 101.21 80.4666 102.841 77.225 104.036C76.4667 103.676 75.5487 103.842 74.8991 104.432C74.6355 104.67 74.3559 104.875 74.0636 105.049C72.8618 105.376 71.6414 105.65 70.4029 105.861C70.0152 105.927 69.6867 106.149 69.4376 106.447C69.0685 106.1 68.5612 105.934 67.9947 106.15C61.4535 108.658 55.2762 112.554 50.5808 117.831C45.3788 123.677 42.6466 130.949 40.5665 138.401C38.3148 146.466 36.8759 154.733 35.6673 163.014C34.4426 171.403 33.2364 179.826 32.3939 188.265C31.9196 193.013 31.7388 197.806 31.9534 202.575C32.0604 204.959 32.2769 207.335 32.6218 209.696C32.7022 210.248 32.7863 210.885 32.9218 211.52C32.51 211.439 32.0196 211.789 32.1031 212.349C32.6842 216.251 37.3757 217.388 40.6113 217.837C45.9039 218.572 51.2239 218.98 56.5673 219.011C61.8183 219.041 67.0683 218.703 72.3084 218.399C77.6807 218.088 83.0528 217.776 88.4246 217.459C109.948 216.19 131.474 214.935 152.997 213.665C154.964 213.549 157.209 213.393 158.893 212.245C161.202 210.673 161.321 208.175 161.185 205.621Z" fill="white"/>
<path fill-rule="evenodd" clip-rule="evenodd" d="M56.2572 161.977C56.1825 161.836 56.3559 161.709 56.4709 161.811C59.0838 164.117 60.4517 167.82 60.7386 171.242C61.0425 174.872 60.6116 178.63 60.447 182.258C60.2637 186.299 60.099 190.342 59.8754 194.381C59.6483 198.479 59.4035 202.576 59.1939 206.675L58.722 215.896C58.6719 216.878 58.7806 218.087 58.4055 219.004C57.8243 220.426 56.098 220.206 55.7352 219.018L55.7238 218.979L55.6907 219.004C55.3706 217.933 55.6101 216.662 55.6644 215.554L56.1587 205.48C56.5079 198.359 56.8195 191.238 57.1946 184.118L57.3222 181.745C57.4975 178.551 57.632 175.364 57.74 172.171L57.775 171.106C57.8775 167.899 57.7962 164.872 56.2572 161.977ZM119.598 102.863C121.055 102.724 122.154 103.21 123.475 103.72C124.051 103.943 124.596 104.2 125.149 104.466C125.84 104.8 126.284 105.389 126.71 106.013L126.938 106.349C128.711 108.961 129.903 111.974 131.25 114.818C132.824 118.145 134.414 121.465 135.955 124.808L136.715 126.455C137.095 127.278 137.474 128.102 137.847 128.928L138.492 130.367C139.14 131.827 139.722 133.37 138.798 134.875C137.939 136.275 136.417 137.358 135.211 138.44C134.205 139.343 133.199 140.246 132.192 141.148C134.273 143.242 135.669 145.879 136.49 148.708C137.655 148.219 139.079 148.126 140.284 147.914C141.972 147.618 142.179 150.188 140.587 150.156C139.41 150.132 138.03 150.253 136.824 150.004C137.033 150.934 137.185 151.877 137.282 152.823C137.789 157.781 136.681 162.768 135.526 167.565L135.43 167.959C134.175 173.151 132.986 178.357 131.921 183.592C130.853 188.838 129.894 194.107 129.042 199.393C128.175 204.774 127.561 210.184 126.901 215.592C126.802 216.411 126.289 217.113 125.39 217.113C124.641 217.113 123.784 216.409 123.878 215.592C124.558 209.702 125.523 203.843 126.482 197.993C128.134 187.919 130.213 177.932 132.604 168.011L133.021 166.283C134.097 161.802 135.073 157.185 134.534 152.563C134.094 148.799 132.529 144.787 129.436 142.449L129.342 142.378C128.619 141.846 128.341 140.827 129.053 140.125C129.506 139.679 129.959 139.233 130.413 138.788L133.136 136.114L133.684 135.574C134.142 135.125 134.602 134.679 135.076 134.245C135.363 133.984 136.139 133.484 136.196 133.053C136.233 132.772 135.902 132.279 135.768 132.02L135.153 130.773C134.804 130.062 134.467 129.345 134.126 128.63C133.419 127.148 132.704 125.67 132.012 124.181L127.862 115.24C126.692 112.717 125.649 110.054 124.118 107.722L123.817 107.267C123.565 106.884 123.342 106.516 123.183 106.048C123.03 105.597 122.838 105.103 122.554 104.718C121.892 103.816 120.625 103.305 119.564 103.115C119.411 103.089 119.467 102.876 119.598 102.863ZM87.6808 100.514C87.7729 100.514 87.7866 100.647 87.7018 100.673C86.4225 101.059 85.2005 101.683 84.2038 102.584C83.7265 103.015 83.2459 103.504 82.9511 104.085C82.8388 104.306 82.7766 104.541 82.7306 104.785L82.7161 104.866C82.6401 105.305 82.5311 105.549 82.309 105.902L82.271 105.961C81.0038 107.929 80.1157 110.115 79.3037 112.303L77.5352 117.075L75.7679 121.848C75.1985 123.386 74.6288 124.923 74.0592 126.462C73.7445 127.31 73.421 128.156 73.0977 129.001C72.9577 129.368 72.8072 129.731 72.6793 130.102C72.6617 130.153 72.6057 130.458 72.5637 130.533L72.5781 130.558C72.9345 131.16 73.8852 131.664 74.424 132.102L76.2795 133.61C77.6024 134.686 78.9594 135.732 80.2422 136.855C81.0482 137.561 80.5467 138.825 79.6481 139.12C78.1418 139.612 76.666 140.203 75.1821 140.762C74.5827 140.987 73.9587 141.183 73.3662 141.432L73.0056 141.588C72.8647 141.653 72.9325 141.652 72.9381 141.913C72.9437 142.188 73.021 142.473 73.0654 142.742C73.5652 145.782 74.095 148.815 74.6542 151.843C76.6322 162.552 78.9953 173.183 81.6903 183.732C83.0521 189.058 84.5115 194.36 85.9031 199.679C87.2907 204.985 89.1169 210.213 90.8606 215.409C91.3525 216.874 89.0418 217.505 88.562 216.046C86.5525 209.935 84.7142 203.771 82.8162 197.626C79.4431 186.706 76.7853 175.549 74.4346 164.365C73.2695 158.823 72.2039 153.258 71.2387 147.677C71.056 146.62 70.8768 145.562 70.7013 144.505L70.4455 142.948C70.2702 141.839 70.1704 140.684 71.0277 139.806C71.8649 138.949 73.3021 138.645 74.4038 138.244L74.4837 138.214C75.1847 137.951 75.8908 137.698 76.5942 137.437C75.5581 136.616 74.5348 135.778 73.5012 134.958C72.6675 134.297 71.8207 133.649 70.9989 132.972C70.3212 132.414 69.7688 131.698 69.6981 130.791C69.6261 129.864 70.0213 129.003 70.34 128.152L70.3706 128.07C70.6836 127.221 70.9973 126.373 71.3191 125.527L73.3104 120.289C74.5759 116.962 75.7879 113.608 77.1188 110.306C77.6454 109 78.2193 107.714 78.8974 106.478C79.2243 105.883 79.575 105.3 79.956 104.737C80.3827 104.107 80.7704 103.8 81.4319 103.452C82.4899 102.896 83.3202 101.963 84.3823 101.39C85.425 100.828 86.4976 100.527 87.6808 100.514ZM91.115 94.5779C91.1554 94.5081 91.262 94.5389 91.2637 94.6185C91.2911 96.2722 90.9002 97.9617 90.6603 99.5976C90.4188 101.238 90.3413 102.971 89.9916 104.594C89.9843 104.67 89.9698 104.744 89.9496 104.817L89.9326 104.873C89.7856 105.328 89.402 105.713 88.9319 105.834C89.0797 106.658 89.2186 107.484 89.3357 108.314C89.5377 109.741 89.721 111.17 89.9019 112.599L90.1184 114.315C90.3227 115.931 90.5214 117.549 90.7177 119.167C91.2168 119.376 91.7265 119.55 92.249 119.7C93.4508 120.046 94.6817 120.186 95.9223 120.309C98.4487 120.558 100.994 120.673 103.53 120.815L104.073 120.846C106.924 121.01 109.789 121.039 112.632 120.745C114.042 120.6 115.44 120.354 116.815 120.008C117.514 119.832 118.193 119.568 118.89 119.396C119.122 119.339 119.328 119.207 119.56 119.067C119.663 118.935 119.807 118.837 119.995 118.798L120.046 118.789L120.097 118.782L120.114 118.774L120.113 118.779C120.255 118.76 120.391 118.761 120.518 118.778C120.569 117.517 120.624 116.255 120.694 114.994C120.879 111.608 121.391 108.076 120.707 104.719C120.685 104.606 120.837 104.566 120.877 104.672C122.218 108.225 122.067 112.112 122.135 115.852C122.202 119.509 122.161 123.17 122.143 126.828C122.404 126.94 122.636 127.091 122.82 127.303C123.188 127.727 123.294 128.464 122.82 128.872C122.611 129.054 122.378 129.18 122.132 129.267C122.119 132.445 122.097 135.625 122.065 138.803C122.666 139.27 122.722 140.378 122.042 140.839C121.929 151.132 121.743 161.425 121.588 171.717L121.265 193.309C121.223 196.186 121.152 199.062 121.126 201.939L121.146 201.947L121.218 201.98C121.338 202.038 121.517 202.129 121.555 202.224C121.564 202.248 121.567 202.265 121.565 202.277C121.763 202.306 121.958 202.399 122.127 202.56C122.545 202.959 122.46 203.56 122.127 203.967L122.038 204.075C121.831 204.328 121.437 204.425 121.116 204.374C121.119 206.169 121.131 207.965 121.125 209.76C121.123 210.309 121.114 210.857 121.105 211.406L121.083 212.72C121.068 213.47 121.001 214.424 120.237 214.761C119.375 215.142 118.602 214.83 118.253 213.949C118.158 213.71 118.179 213.489 118.213 213.253C118.203 212.899 118.147 212.488 118.154 212.159L118.183 210.789C118.187 210.577 118.195 210.366 118.202 210.155L118.177 210.157C115.113 210.306 112.028 210.233 108.959 210.232L107.595 210.233C106.456 210.235 105.315 210.228 104.178 210.185L103.751 210.167C102.9 210.126 102.005 210.113 101.122 210.037C101.234 210.948 101.339 211.859 101.433 212.772C101.522 213.637 100.634 214.373 99.8419 214.373C98.901 214.373 98.3623 213.629 98.25 212.772C97.7186 208.73 97.5005 204.65 96.9925 200.606C96.5378 196.984 96.1428 193.352 95.7422 189.723L95.6081 188.514C94.1406 175.306 92.7158 162.093 91.3533 148.873L90.7185 142.693C90.078 136.465 89.4327 130.236 88.8891 123.998C88.5782 120.432 88.2922 116.865 88.0225 113.295C87.8246 110.673 87.7002 108.065 87.6194 105.448C87.3004 105.117 87.1405 104.636 87.2818 104.138C87.3642 103.848 87.4603 103.559 87.5621 103.27C87.5556 102.988 87.5492 102.705 87.5435 102.42C87.5387 102.153 87.8092 102.015 88.0265 102.058C88.4207 101.099 88.8544 100.147 89.217 99.1974C89.8034 97.6589 90.2864 96.0011 91.115 94.5779ZM58.3706 111.205C64.4996 107.342 71.7953 104.563 79.1024 104.862C79.2686 104.869 79.3154 105.124 79.1429 105.162C75.2452 106.037 71.3047 107.103 67.6148 108.655C63.9141 110.21 60.3952 112.306 57.2612 114.823C51.4787 119.469 46.9841 125.51 44.0247 132.321C42.2912 136.311 41.0761 140.523 40.0151 144.737C38.8923 149.196 37.967 153.704 37.1976 158.238C35.6779 167.195 34.7931 176.251 34.3223 185.322C33.8434 194.549 34.0408 203.783 33.6992 213.012C33.6402 214.612 31.3673 214.58 31.2518 213.012C30.4778 202.52 30.9066 191.859 31.6224 181.374C32.266 171.949 33.39 162.542 35.2 153.268L35.3576 152.464C37.0496 143.884 39.0904 135.095 43.1809 127.325C46.6731 120.69 52.0645 115.179 58.3706 111.205ZM143.481 152.213C143.514 152.121 143.634 152.122 143.666 152.213C144.365 154.18 144.39 156.399 144.576 158.473L144.59 158.632C144.769 160.523 144.903 162.416 145.027 164.311L145.074 165.021C145.574 172.752 146.2 180.472 147.142 188.162C148.082 195.822 149.352 203.429 150.725 211.021C150.879 211.866 150.506 212.727 149.624 212.971C148.847 213.185 147.85 212.704 147.686 211.864C146.833 207.506 146.143 203.143 145.529 198.747C144.446 191.008 143.637 183.232 143.118 175.434C142.857 171.517 142.696 167.602 142.632 163.677C142.603 161.856 142.65 160.03 142.747 158.21L142.77 157.791C142.876 155.932 142.866 153.986 143.481 152.213ZM77.2533 201.448C77.3352 201.404 77.4366 201.495 77.3847 201.581C76.1979 203.52 74.5924 205.193 73.0407 206.841C71.4185 208.563 69.8364 210.338 68.1814 212.028C66.9855 213.248 65.062 211.279 66.324 210.159C68.0984 208.586 69.9531 207.091 71.759 205.551L72.5489 204.878C74.0297 203.621 75.5544 202.374 77.2533 201.448ZM133.621 200.477C133.532 200.308 133.735 200.17 133.872 200.282C134.829 201.065 135.688 201.999 136.612 202.825C137.528 203.643 138.477 204.407 139.453 205.15C140.432 205.898 141.433 206.616 142.461 207.294C143.314 207.858 144.193 208.309 145.085 208.777C145.499 208.83 145.882 209.034 146.189 209.421C146.673 210.033 146.724 211.186 146.052 211.717L145.932 211.813C145.147 212.433 144.216 212.508 143.444 211.813C142.581 211.037 141.767 210.182 140.939 209.362L140.69 209.117C139.801 208.248 138.932 207.35 138.114 206.411L137.373 205.564C135.999 203.988 134.568 202.289 133.621 200.477ZM129.211 109.617C129.052 109.51 129.151 109.225 129.347 109.293L129.708 109.419C131.214 109.945 132.764 110.528 134.132 111.339C135.602 112.21 136.958 113.247 138.256 114.36C140.939 116.664 143.222 119.496 145.162 122.449C149.056 128.374 151.463 135.159 153.407 141.948C155.48 149.187 157.075 156.582 158.379 163.997C159.702 171.533 160.723 179.138 161.395 186.761C161.726 190.516 161.948 194.274 162.059 198.042C162.117 199.98 162.115 201.918 162.099 203.857C162.095 204.355 162.098 204.854 162.104 205.352L162.122 206.849C162.133 207.794 162.245 208.787 162.022 209.711C161.662 211.199 159.217 210.921 159.297 209.401C159.224 208.895 159.22 208.373 159.24 207.849C159.228 207.782 159.215 207.713 159.202 207.643C159.161 207.442 159.195 207.256 159.274 207.096C159.287 206.845 159.298 206.595 159.302 206.349C159.318 205.352 159.317 204.357 159.29 203.359C159.232 201.254 159.148 199.149 159.064 197.046C158.896 192.842 158.663 188.636 158.324 184.442C157.145 169.846 154.655 155.166 150.473 141.122C148.531 134.602 145.853 128.199 142.013 122.564C140.308 120.063 138.385 117.752 136.253 115.607C134.107 113.45 131.743 111.302 129.211 109.617ZM100.274 203.714L100.564 205.823C100.709 206.876 100.852 207.931 100.988 208.986C101.914 208.859 102.859 208.805 103.751 208.726C105.311 208.587 106.882 208.519 108.448 208.455C111.684 208.321 114.937 208.088 118.177 208.104C118.21 208.104 118.241 208.106 118.272 208.109L118.433 203.95L116.157 203.946C114.228 203.943 112.3 203.927 110.372 203.91C108.635 203.895 106.898 203.893 105.16 203.856L104.417 203.838C103.1 203.803 101.645 203.876 100.274 203.714ZM118.624 197.677C118.531 197.689 118.437 197.697 118.336 197.702C117.885 197.721 117.431 197.708 116.98 197.711C116.02 197.72 115.058 197.727 114.098 197.727C112.177 197.726 110.255 197.738 108.335 197.761C106.357 197.785 104.38 197.82 102.402 197.823C101.444 197.826 100.489 197.8 99.531 197.773C99.6861 199.142 99.8484 200.51 100.027 201.874C101.515 201.672 103.115 201.774 104.568 201.76L104.757 201.758C106.741 201.723 108.727 201.749 110.712 201.751C112.754 201.753 114.796 201.76 116.838 201.777L118.515 201.791L118.519 201.706C118.568 200.364 118.599 199.022 118.624 197.677ZM98.7936 191.129C98.9793 192.744 99.1538 194.363 99.3315 195.981C99.4502 195.963 99.5698 195.947 99.6917 195.934C100.651 195.833 101.609 195.747 102.572 195.686C104.492 195.567 106.412 195.504 108.335 195.452C110.312 195.399 112.29 195.358 114.268 195.33C115.229 195.316 116.188 195.318 117.15 195.324C117.6 195.328 118.056 195.313 118.506 195.344C118.56 195.347 118.611 195.353 118.661 195.358L118.695 192.929C118.701 192.524 118.708 192.12 118.714 191.715C117.229 191.807 115.718 191.772 114.235 191.773L113.892 191.773C112.027 191.781 110.162 191.756 108.297 191.717C106.374 191.677 104.455 191.613 102.534 191.49C101.756 191.44 100.984 191.373 100.21 191.287L99.8234 191.242C99.4866 191.203 99.1401 191.17 98.7936 191.129ZM118.867 184.273C115.29 184.558 111.732 184.678 108.146 184.713L107.608 184.718C104.438 184.742 101.242 184.873 98.0659 184.789C98.2557 186.445 98.4455 188.101 98.6361 189.757C99.0908 189.736 99.5479 189.736 99.993 189.719C100.898 189.686 101.799 189.678 102.704 189.676C104.568 189.671 106.433 189.688 108.297 189.684C110.22 189.68 112.14 189.648 114.062 189.611C115.62 189.582 117.194 189.464 118.756 189.468L118.867 184.273ZM119.018 177.208C118.604 177.347 118.115 177.356 117.578 177.38L116.193 177.45C115.552 177.481 114.91 177.511 114.268 177.534C112.127 177.613 109.988 177.687 107.848 177.755C105.654 177.826 103.451 177.866 101.257 177.796C100.183 177.762 99.1175 177.705 98.0457 177.615C97.7808 177.593 97.511 177.579 97.2404 177.559C97.49 179.754 97.7404 181.947 97.9916 184.141C101.153 183.751 104.339 183.508 107.497 183.104L110.352 182.737C113.206 182.371 116.058 182.012 118.922 181.71L119.018 177.208ZM119.171 170.065C118.563 170.216 117.87 170.209 117.285 170.246L117.178 170.253C116.07 170.338 114.962 170.38 113.853 170.408C111.678 170.461 109.503 170.488 107.328 170.502L106.021 170.51C104.278 170.52 102.536 170.525 100.792 170.484C99.6731 170.457 98.5569 170.403 97.4399 170.346C97.1047 170.329 96.7623 170.318 96.419 170.301C96.6524 172.378 96.8891 174.455 97.1241 176.532C97.4916 176.473 97.8607 176.428 98.2121 176.368C99.1126 176.216 100.012 176.093 100.919 175.984C102.884 175.747 104.859 175.577 106.834 175.433C108.86 175.285 110.889 175.16 112.917 175.017L114.352 174.916C114.831 174.883 115.309 174.85 115.788 174.82C116.605 174.77 117.556 174.827 118.367 174.648C118.586 174.556 118.83 174.535 119.074 174.587L119.171 170.065ZM119.355 161.705C119.144 161.973 118.83 162.114 118.456 162.163C116.503 162.417 114.501 162.458 112.533 162.578L112.186 162.6C110.153 162.735 108.12 162.84 106.086 162.949C103.997 163.06 101.907 163.151 99.8161 163.225C98.9285 163.256 98.0368 163.259 97.1475 163.248L96.7663 163.242C96.4013 163.237 96.0192 163.237 95.6356 163.224C95.848 165.167 96.062 167.109 96.2793 169.051C96.6702 169.008 97.0603 168.976 97.4391 168.935C98.5561 168.816 99.6723 168.699 100.792 168.61C102.913 168.442 105.036 168.342 107.161 168.235C109.335 168.127 111.511 168.055 113.685 167.953C114.74 167.903 115.794 167.842 116.845 167.744C117.582 167.677 118.457 167.424 119.226 167.517C119.268 165.579 119.312 163.642 119.355 161.705ZM119.526 154.214C119.493 154.266 119.455 154.317 119.407 154.363C118.548 155.217 117.489 155.151 116.35 155.241L116.28 155.246C115.164 155.34 114.047 155.431 112.93 155.512C110.696 155.673 108.459 155.787 106.222 155.888C103.933 155.992 101.629 156.063 99.3379 156.016C97.8704 155.986 96.3342 155.991 94.8376 155.847C95.067 157.986 95.298 160.126 95.5314 162.264C95.9522 162.184 96.3754 162.124 96.7768 162.059C97.788 161.9 98.8 161.739 99.8169 161.621C101.848 161.386 103.881 161.166 105.916 160.967C107.658 160.798 109.398 160.626 111.14 160.471L112.186 160.38C114.265 160.203 116.37 159.914 118.456 159.871C118.8 159.864 119.188 160.052 119.385 160.349C119.431 158.304 119.479 156.259 119.526 154.214ZM119.671 148.151C119.14 148.216 118.568 148.179 118.078 148.195C116.839 148.236 115.6 148.274 114.362 148.311L106.929 148.531C104.398 148.606 101.859 148.662 99.3266 148.626C98.2137 148.611 97.095 148.609 95.9813 148.548L95.6105 148.526C95.1526 148.495 94.5905 148.49 94.0412 148.434L94.689 154.472C96.1783 154.256 97.7137 154.175 99.1901 154.048L99.5059 154.02C101.683 153.82 103.872 153.688 106.054 153.54C108.293 153.387 110.527 153.202 112.762 153.013C113.879 152.919 114.996 152.825 116.112 152.721L116.251 152.708C117.305 152.596 118.296 152.361 119.231 152.986C119.367 153.078 119.474 153.2 119.547 153.337C119.589 151.608 119.628 149.88 119.671 148.151ZM119.844 141.105C115.317 141.288 110.79 141.428 106.26 141.489C103.71 141.523 101.163 141.498 98.6135 141.445C97.5078 141.422 96.3932 141.368 95.2883 141.283L94.8748 141.25C94.349 141.205 93.7973 141.174 93.2481 141.12C93.4751 143.196 93.7004 145.272 93.9241 147.349C94.4645 147.248 95.029 147.201 95.5031 147.14L95.6105 147.126C96.7873 146.963 97.9754 146.868 99.1578 146.763C101.461 146.559 103.775 146.428 106.084 146.316C108.448 146.201 110.814 146.105 113.179 145.999L115.545 145.893C115.939 145.875 116.333 145.858 116.727 145.841C117.29 145.817 117.853 145.795 118.416 145.771C118.694 145.76 118.983 145.722 119.261 145.736L119.34 145.725C119.376 145.721 119.409 145.717 119.438 145.713C119.514 145.656 119.595 145.608 119.682 145.571L119.734 145.551L119.844 141.105ZM92.5059 134.428C92.7159 136.297 92.9242 138.166 93.1294 140.035C93.7747 139.961 94.4281 139.92 95.0444 139.864C96.2874 139.752 97.5368 139.654 98.7831 139.596L101.276 139.48C102.936 139.403 104.598 139.328 106.26 139.267C110.809 139.1 115.359 138.908 119.905 138.675C119.938 137.407 119.971 136.139 120.005 134.872C119.786 135.107 119.471 135.262 119.056 135.261C114.283 135.248 109.506 135.275 104.733 135.197C102.344 135.157 99.9574 135.098 97.5716 134.975C96.4037 134.915 95.2293 134.792 94.0711 134.631C93.5768 134.562 93.0357 134.513 92.5059 134.428ZM91.7418 127.768C91.9663 129.683 92.1868 131.598 92.4033 133.513C92.9961 133.407 93.6083 133.35 94.1616 133.274C95.3497 133.112 96.545 132.983 97.742 132.915C100.071 132.782 102.401 132.716 104.733 132.665C109.506 132.564 114.283 132.565 119.056 132.526C119.505 132.522 119.837 132.701 120.056 132.967C120.089 131.772 120.124 130.576 120.161 129.381C119.699 129.332 119.242 129.263 118.819 129.233C117.519 129.142 116.218 129.058 114.917 128.984C112.203 128.827 109.485 128.693 106.768 128.574C104.05 128.455 101.331 128.339 98.6127 128.238L97.4238 128.194C95.533 128.124 93.6108 128.034 91.7418 127.768ZM90.8873 120.559C91.1207 122.498 91.3509 124.437 91.5803 126.377L91.6497 126.977C93.9233 126.533 96.3197 126.402 98.6127 126.304C101.332 126.188 104.046 126.127 106.768 126.136C109.486 126.145 112.201 126.209 114.917 126.322C116.275 126.378 117.632 126.443 118.989 126.518C119.362 126.538 119.799 126.527 120.249 126.533C120.259 126.229 120.267 125.924 120.278 125.619C120.319 124.385 120.359 123.15 120.401 121.916C119.484 122.39 118.291 122.581 117.368 122.783L117.263 122.807C115.741 123.15 114.186 123.374 112.632 123.51C109.58 123.778 106.496 123.677 103.447 123.418L102.914 123.372C100.236 123.139 97.4601 122.843 94.8643 122.177C93.6277 121.86 92.35 121.415 91.2418 120.772C91.1264 120.705 91.0076 120.634 90.8873 120.559ZM116.667 97.5193C116.694 97.4145 116.85 97.3902 116.902 97.4884C117.262 98.1769 117.397 99.0041 117.646 99.7421C117.916 100.535 118.167 101.335 118.464 102.118C119.086 103.756 119.818 105.329 120.691 106.847C121.556 108.349 119.135 109.421 118.498 107.776C117.841 106.079 117.301 104.325 116.974 102.532C116.814 101.656 116.672 100.77 116.626 99.8809C116.587 99.117 116.48 98.2637 116.667 97.5193Z" fill="black"/>
<path fill-rule="evenodd" clip-rule="evenodd" d="M103.46 30.5401C110.198 31.0732 118.03 34.9852 118.713 35.105L118.731 35.1074C119.093 35.1361 120.423 36.3264 122.722 38.6784L119.651 43.6829L119.85 43.9066C120.808 44.9813 121.62 45.9561 122.262 46.7246C127.501 52.9995 126.761 75.9506 124.806 83.8205C122.851 91.6896 119.767 99.298 108.209 98.3836C96.6506 97.4692 84.3283 89.4894 82.5143 87.1647C81.305 85.6149 79.8755 84.8049 78.2244 84.7351C78.1638 84.6445 78.1032 84.5539 78.0432 84.4634L77.8032 84.4099C75.5504 83.8989 73.9528 83.3251 73.0092 82.6879C71.1662 81.4432 69.4907 75.5345 69.5881 74.2699C69.6846 73.018 67.2241 63.659 67.235 62.6902L67.2364 62.6635C67.2985 61.8581 63.452 57.827 63.5426 56.6508C63.6333 55.474 62.7951 55.48 63.9472 51.4004L64.2831 50.2018C65.5097 45.8585 67.8072 38.6877 74.6648 36.0353C82.2011 33.1206 96.6538 30.0017 103.46 30.5401Z" fill="white"/>
<path fill-rule="evenodd" clip-rule="evenodd" d="M73.5561 35.7927C77.4779 32.2255 98.5142 27.8921 108.827 29.9793L109.136 30.0446C109.959 30.2158 110.765 30.4405 111.557 30.7215C114.121 31.5392 116.748 32.6779 118.787 34.3942C120.491 35.801 126.015 38.3155 124.086 41.4906C124.616 42.7186 124.736 44.1934 124.227 45.3213C124.143 45.7181 123.99 46.0778 123.803 46.4482C124.979 48.5149 125.859 50.8165 126.547 52.9938C127.624 58.4217 128.123 64.021 127.841 69.4497C127.499 79.7787 125.425 91.9855 115.962 97.9334C110.231 101.724 101.752 101.195 96.0792 95.4855C95.766 95.0492 94.2299 93.8179 94.786 93.6673C94.9338 93.8505 95.0864 94.0296 95.2425 94.2052C95.2363 94.1868 95.2364 94.1689 95.2411 94.1494L95.0931 93.993C94.8159 93.6927 94.4603 93.2607 94.8947 93.3738C94.9126 93.3983 94.9319 93.4196 94.9511 93.4436C95.04 93.5069 95.1072 93.5615 95.1584 93.6084L95.1852 93.6336L95.177 93.6233C94.9444 93.3323 94.813 93.0441 95.179 93.2504L95.2271 93.2791C95.3827 93.47 95.5406 93.654 95.7027 93.8339C95.7011 93.8139 95.7058 93.7945 95.7182 93.7743L95.5675 93.6037C95.4204 93.4352 95.4445 93.4365 95.5322 93.3167C95.2309 92.8161 95.8398 93.1471 95.8699 93.3358C96.2713 93.2734 96.5602 94.0425 96.8073 94.1536C107.283 103.612 124.032 97.2796 125.612 73.3579L125.644 72.89C126.156 65.2414 126.119 57.3355 123.497 50.1677C123.241 49.477 122.948 48.8015 122.619 48.1445C122.395 47.6535 122.151 47.1731 121.887 46.7032C121.053 46.5689 120.237 46.3496 119.44 46.0469C119.165 45.9539 118.894 45.8536 118.625 45.7398C114.562 45.6407 110.588 45.5682 106.514 45.4753L105.241 45.4541C101.787 45.4036 98.2056 45.4769 95.2684 47.3869C92.3978 49.1102 92.0912 52.9321 89.5977 54.8762C86.1023 56.8719 85.9214 58.9063 85.0249 62.184C84.8791 64.6966 86.3346 68.4791 83.0669 69.283C83.5452 70.0933 82.8245 69.6651 82.7863 69.3914C82.7799 69.3921 82.7741 69.3929 82.7697 69.3926C83.1793 70.323 82.5186 69.7055 82.4786 69.4137C82.442 69.4 82.406 69.3702 82.3715 69.3297C82.7936 70.1491 82.0557 69.5403 82.1129 69.4014C81.2907 67.8919 79.389 67.5168 78.0067 67.7902C77.9856 67.8403 77.9257 67.8401 77.8897 67.8097C72.0405 68.604 72.6055 80.6528 78.5905 79.9659C78.8467 79.9343 78.831 80.0547 78.8801 80.0708C78.7715 79.7012 79.1443 79.8779 79.1347 79.9527L79.1583 79.9532C79.1767 79.9534 79.1693 79.9503 79.1829 79.9565C79.1075 79.2132 79.7665 80.3335 79.7049 80.3722C79.7288 80.3606 79.7547 80.355 79.7778 80.3536L79.7578 80.2823C79.6601 79.9443 79.6597 80.0819 79.6755 79.8937C79.6008 79.6542 79.586 79.7554 79.6192 79.6057C79.9638 79.3789 80.0005 80.1517 80.1046 80.2156C79.9389 79.942 80.1029 79.7419 80.267 79.8963C81.3796 82.7998 82.892 85.5639 84.9491 87.8106C85.1771 88.0212 85.4078 88.2289 85.6482 88.4272C86.5279 89.3243 87.9332 89.968 88.7598 90.7668C88.7589 90.7789 88.7521 90.7931 88.742 90.8077L88.7609 90.8277L88.7797 90.8484L89.075 91.0202C89.1597 91.1044 89.2342 91.1967 89.2991 91.2978C89.3689 91.3929 89.4292 91.4963 89.4783 91.6045C89.497 91.7333 89.4302 91.7812 89.314 91.7176C89.2622 91.6949 89.2112 91.6697 89.1601 91.6459C89.1629 91.6512 89.1639 91.6539 89.1669 91.6573C89.182 91.6847 89.2783 91.9656 89.1467 91.911L89.1313 91.9034C89.0593 91.8702 88.9881 91.8345 88.918 91.8002C88.996 91.9139 89.065 92.0358 89.1266 92.1392C89.1948 92.2221 89.2328 92.3166 89.2432 92.4205C89.2357 92.4775 89.2021 92.4991 89.1457 92.487C89.0604 92.4514 88.9772 92.4141 88.8934 92.3762L88.9146 92.4245C88.9656 92.5489 89.0369 92.7568 88.8887 92.6772C88.7607 92.6261 88.6381 92.5697 88.5154 92.5082C88.503 92.5283 88.4815 92.5343 88.4412 92.5113C88.0504 92.3363 87.6754 92.1307 87.3193 91.8951C87.0113 91.6308 86.6998 91.3712 86.3897 91.1086C86.0954 90.8984 85.8135 90.6681 85.5468 90.4141C83.7386 89.032 82.1931 87.3352 81.0054 85.4889C78.6466 87.232 74.3682 85.0496 71.7493 83.332C69.4344 81.7991 68.675 79.2423 68.6352 76.5479C68.4019 72.9063 65.559 71.441 66.3718 63.5557C66.3673 63.5566 66.3628 63.5563 66.3565 63.5558C66.2525 63.5156 66.1518 63.4654 66.0584 63.4036C65.9613 63.3472 65.8707 63.2825 65.7873 63.2061L65.6888 63.0447C65.6342 63.0084 65.5861 62.9713 65.5493 62.9351L65.527 62.9596C65.457 63.0321 65.5091 62.9191 65.5147 62.8959L65.3433 62.6212C64.9385 61.9665 64.4959 61.2325 64.1343 60.6452L64.1199 60.6665C64.1091 60.6829 64.1031 60.6946 64.1071 60.7007C63.2519 59.239 62.4752 57.4944 62.3484 55.8542C62.148 54.5832 62.363 53.3066 62.7112 52.1713C64.1334 48.2117 68.4772 39.3405 73.5561 35.7927ZM95.363 93.8333L95.3069 93.7744L95.355 93.8454C95.3796 93.8819 95.4057 93.9154 95.4496 93.9502C95.4478 93.9398 95.4487 93.929 95.4509 93.917C95.4216 93.891 95.3925 93.8631 95.363 93.8333ZM108.625 32.0095C101.611 30.8428 94.5475 31.8516 87.6657 33.2046L87.1908 33.3017C83.2756 34.0936 79.149 34.7585 75.7313 36.8461C70.9411 39.9586 68.1805 45.2945 65.7497 50.2304C63.6784 53.8766 64.2588 58.2192 66.737 61.0751C67.2189 58.47 67.8907 55.9567 68.8297 53.4849C69.0148 53.1018 68.9075 52.963 69.2461 52.9379C69.2258 59.7968 66.3496 64.6381 70.6504 73.1091C72.4922 77.0917 69.8044 79.6862 75.6822 82.1698L75.8409 82.2457C77.061 82.8197 78.4041 83.3036 79.6559 83.1351L79.5594 82.947C79.4609 82.7529 79.4336 82.6605 79.6032 82.5939C79.5995 82.5847 79.5945 82.5753 79.589 82.564C79.4758 82.3035 79.3679 82.0403 79.2653 81.7742C79.2146 81.7869 79.1643 81.795 79.1119 81.8043C79.1401 81.8686 79.1397 81.9313 79.045 81.945C78.7048 82.0326 78.3603 82.0514 78.0134 82.0022L77.9391 81.9906C77.5468 81.9352 77.3045 81.8438 77.0879 81.7594C77.0146 81.7415 76.9421 81.7236 76.8709 81.7032C76.169 81.4877 75.444 81.0245 74.9856 80.5863C69.6527 76.9714 71.0617 66.2142 78.015 65.737C78.6797 58.9466 82.7933 47.7273 88.652 41.67C93.9555 36.0916 107.38 34.554 116.511 36.1931C116.642 36.2481 116.772 36.3037 116.903 36.3597C118.312 36.5983 119.617 37.3389 121.015 37.7456C120.053 36.8991 118.936 36.2975 117.778 35.7698C115.515 34.1268 112.853 33.1241 110.266 32.3608C109.731 32.1835 109.185 32.0659 108.625 32.0095ZM77.2791 71.1759C77.664 71.0041 77.6066 71.1948 77.6965 71.1455C80.3717 71.1383 83.059 73.6972 84.3953 75.7588C84.2687 75.8717 83.979 75.4846 83.9277 75.4229C83.9195 75.4299 83.9101 75.4356 83.9011 75.4375L83.9378 75.4992C84.4737 76.4133 83.3576 75.2997 83.2623 75.081C83.2418 75.0896 83.2217 75.0944 83.1992 75.0882C83.2871 75.1886 83.5574 75.4538 83.5936 75.6301L83.6653 75.7004C84.3406 76.3772 84.2445 76.8394 83.4917 75.8934C83.5082 75.9357 83.5129 75.9744 83.4966 76.0032L83.5237 76.0246C83.9056 76.3389 84.1763 77.1527 83.3958 76.2775C83.4377 76.8748 82.6023 75.6605 82.5719 75.6664C81.0705 74.2829 78.8123 72.8748 76.8205 72.5521L76.752 72.5384C76.3875 72.4622 76.2223 72.339 76.3701 72.1082C75.9253 71.9648 76.0484 71.7493 76.2626 71.7739C75.9588 71.538 76.262 71.3597 76.4417 71.4527C76.3415 71.0889 76.8342 71.3647 76.8848 71.3194C77.1819 70.9308 77.2272 71.278 77.2791 71.1759ZM73.3946 48.8207C74.7076 48.4531 78.3715 50.1543 77.9267 51.9882C77.7138 52.4005 77.1031 52.5981 76.7053 52.3244L76.1903 51.916C75.2943 51.2071 74.4848 50.5836 73.5122 49.9502C72.9814 49.632 72.788 49.0303 73.3946 48.8207ZM80.8729 46.6347L80.404 46.2741C77.8774 44.3186 74.3187 41.377 80.7805 44.6404C81.5157 45.0272 82.511 45.3005 82.8702 46.0588C83.4193 47.4476 81.6969 47.4017 80.8729 46.6347ZM81.7746 38.8289C81.6236 38.0001 84.208 39.1631 84.9618 39.4755L85.0763 39.5294C85.8075 39.8698 86.6499 40.1987 87.0497 40.8848C87.5077 41.8254 86.4262 41.9272 85.7965 41.4688C84.5093 40.4742 83.0748 39.687 81.7746 38.8289ZM88.824 35.5815C87.4545 33.8268 91.337 35.7111 91.9029 36.1936L91.9191 36.2079C92.3422 36.5588 92.1992 37.2313 91.763 37.3976C90.5654 37.3258 89.7621 36.2574 88.824 35.5815ZM95.769 34.3271C93.5225 32.427 96.5923 33.4891 97.6287 34.2461C98.3197 34.9599 97.4708 36.0054 95.769 34.3271Z" fill="black"/>
<path fill-rule="evenodd" clip-rule="evenodd" d="M108.316 86.7908C107.336 86.2973 106.486 85.5363 105.894 84.6031C105.688 84.279 105.654 83.9504 105.725 83.6585C105.804 83.33 106.024 83.0447 106.308 82.8636C106.592 82.6819 106.936 82.6087 107.257 82.6852C107.536 82.7515 107.805 82.9289 108.003 83.2678L108.044 83.3357C108.396 83.8985 108.873 84.3754 109.434 84.7026C109.975 85.0181 110.593 85.1943 111.249 85.172C112.497 85.1299 113.402 84.5269 114.379 83.6877C114.5 83.5821 114.621 83.472 114.744 83.3608C114.823 83.257 114.928 83.1949 115.041 83.1666C115.166 83.1356 115.304 83.1484 115.427 83.2029C115.546 83.2552 115.649 83.3447 115.713 83.4579C115.775 83.5659 115.805 83.6949 115.781 83.8396C115.625 84.7764 115.068 85.5797 114.317 86.1859C113.484 86.8586 112.415 87.2854 111.431 87.3868C110.348 87.4988 109.271 87.2721 108.316 86.7908ZM113.084 72.5214C114.167 73.3034 115.774 75.0543 114.419 76.6732C112.864 78.0721 110.925 76.1734 109.965 75.3083C109.065 74.6253 107.88 76.1047 108.705 76.8842C115.661 82.9398 119.423 73.2047 113.721 71.7533C113.093 71.5929 112.802 72.2835 113.084 72.5214ZM100.352 65.1096C100.599 63.5579 102.999 63.3913 103.117 64.9552C103.222 66.3562 102.875 67.6075 102.156 68.8044C101.47 69.9482 100.018 69.2746 99.9886 68.1817C99.9491 66.7162 100.199 66.0748 100.352 65.1096ZM118.475 65.8477C118.84 65.4401 119.341 65.1814 119.9 65.394C121.649 66.0591 120.926 68.5613 120.201 69.7501C119.809 70.3955 118.692 70.4787 118.239 69.847C117.501 68.817 117.26 66.8581 118.367 65.9889C118.398 65.9421 118.433 65.8949 118.475 65.8477ZM102.929 58.4398L103.216 58.4126C104.101 58.33 105.199 58.2705 105.764 59.0237C106.063 59.4224 106.122 60.1254 105.654 60.448C104.83 61.0152 103.992 60.7037 103.058 60.6836C102.289 60.667 101.544 60.736 100.79 60.8888C99.1354 61.2239 97.7521 61.9657 96.2984 62.7851C96.1078 62.8922 95.9406 62.6454 96.0399 62.4824C96.9584 60.98 98.6037 59.816 100.213 59.1549C101.072 58.8017 102.003 58.5265 102.929 58.4398ZM117.372 58.8766L117.585 58.9381C119.9 59.6171 122.882 60.8433 123.818 63.2476C123.836 63.578 123.785 63.645 123.745 63.6879L123.732 63.7022C123.699 63.7387 123.671 63.7908 123.525 63.8241C123.487 63.8115 123.448 63.7988 123.408 63.7848C122.908 63.6102 122.518 63.3937 122.142 63.1713L121.733 62.9278C121.26 62.6471 120.781 62.375 120.268 62.1617C119.174 61.7058 118.038 61.3555 116.876 61.1246C116.624 61.0746 116.386 60.9693 116.204 60.8071C116.031 60.6527 115.906 60.4482 115.862 60.1855C115.805 59.8457 115.848 59.5956 116.05 59.3093C116.201 59.0942 116.405 58.953 116.633 58.8806C116.864 58.8068 117.122 58.8055 117.372 58.8766Z" fill="black"/>
<path fill-rule="evenodd" clip-rule="evenodd" d="M98.4786 86.9638C99.9173 84.2011 102.738 82.3103 105.858 81.7842C108.149 81.3999 110.507 81.6043 112.782 82.0088C113.973 82.2202 115.254 82.4167 116.351 82.9533C117.287 83.4113 118.019 84.1947 118.546 85.0879C119.174 86.1472 119.564 87.3329 119.811 88.5367C119.845 88.7077 119.877 88.8798 119.906 89.0529C119.691 89.929 119.323 90.66 118.458 91.1533C117.615 91.6349 116.642 91.7825 115.683 91.7866C115.592 91.7341 115.506 91.6805 115.427 91.6269C114.007 90.6579 113.117 88.5625 111.222 88.6865C109.531 88.7977 108.267 90.8187 107.177 91.9763C103.955 92.0963 100.838 90.883 98.3812 88.8487C98.2977 88.2118 98.3381 87.5803 98.4786 86.9638ZM122.273 86.6643C122.073 85.9255 121.805 85.205 121.474 84.5198C120.381 82.2535 118.578 80.3739 116.356 79.2058C111.101 76.4446 103.942 77.5316 99.2582 81.0075C97.6585 82.1958 95.9944 83.9964 95.3765 86.0262C95.2376 86.0421 95.1028 86.1037 94.9886 86.1958C91.9718 83.945 88.854 81.7623 86.5125 78.7876C84.812 76.6268 83.7051 74.1413 83.1163 71.4587C83.0683 71.238 82.7187 71.2424 82.711 71.4817C82.7093 71.5379 82.7082 71.5934 82.707 71.6496C82.682 71.5447 82.5214 71.5851 82.5017 71.6833C81.8314 74.8318 81.0392 78.164 81.2831 81.4014C81.4288 83.333 82.1865 84.7986 83.2271 86.3991C84.3424 88.1144 85.6298 89.73 86.9537 91.2858C87.7942 92.2736 88.6638 93.405 89.7271 94.1648C90.9639 95.047 92.3887 95.7566 93.7267 96.4677C95.0871 97.1934 96.4727 97.8737 97.8907 98.4811C100.725 99.6976 103.681 100.618 106.719 101.159C109.152 101.591 111.932 102.072 114.352 101.335C116.207 100.769 117.759 99.6048 119.03 98.157C120.413 96.5799 121.553 94.7487 122.256 92.7788C122.987 90.7323 122.368 87.0108 122.273 86.6643Z" fill="black"/>
<path fill-rule="evenodd" clip-rule="evenodd" d="M131.439 62.4368C131.316 62.4066 131.193 62.3771 131.071 62.3489C130.979 62.2866 130.869 62.2351 130.738 62.1992C130.443 62.0992 130.147 62.0234 129.85 61.9718C125.633 60.6664 115.598 61.2541 114.905 64.8882C113.503 65.237 112.352 64.7344 110.765 64.6499C109.948 59.5095 89.0468 58.5745 87.8101 61.5373C87.8064 61.5357 87.8026 61.5348 87.7989 61.5332C86.8585 61.1585 85.4323 61.118 84.3338 60.9839C81.9833 60.7483 79.6102 60.7724 77.2682 61.0872C72.9019 61.4325 66.9532 61.7705 69.537 67.3995C69.5375 67.4009 69.5381 67.4015 69.5386 67.4029L69.5393 67.4023C70.0152 67.9736 70.9254 67.616 71.0138 66.9C70.2018 64.2663 72.5038 64.1394 74.313 63.5441C78.7956 62.3201 83.2524 62.4537 87.7255 63.2948C88.0341 63.7219 88.5221 64.1114 89.0522 64.3367C92.0291 65.0763 90.2671 67.1902 92.1486 67.6662C91.1961 75.4448 100.335 80.4541 106.217 75.756C108.573 73.7855 109.34 70.6513 110.068 67.8286C110.342 67.7895 110.523 67.6562 110.638 67.4697C111.334 66.8752 111.786 66.3114 113.076 66.235C114.367 66.1586 115.322 66.5921 115.447 66.7112C115.475 66.7819 115.506 66.8521 115.543 66.9234C115.593 67.029 115.666 67.1159 115.752 67.1866C113.891 74.8602 119.541 80.2528 125.937 76.7018C128.774 74.4203 129.627 70.6525 130 67.2584C130.375 67.0701 130.634 66.6687 130.551 66.1309C130.436 65.3899 130.885 64.792 131.549 64.5261C132.41 64.1812 132.379 62.6702 131.439 62.4368ZM105.003 64.0585C104.26 63.8324 103.848 64.9727 104.593 65.199C105.12 65.3596 105.554 65.6668 105.826 66.1498L105.855 66.2026C106.216 66.8915 107.306 66.3677 106.941 65.6742C106.532 64.8933 105.846 64.315 105.003 64.0585ZM127.184 65.0837C126.933 64.8747 126.518 64.9826 126.343 65.2353C126.151 65.5141 126.237 65.8482 126.472 66.0591L126.496 66.0802C126.712 66.2597 126.913 66.5664 126.918 66.8653L126.918 66.9023C126.887 67.6804 128.092 67.7794 128.122 66.9975C128.151 66.2321 127.759 65.56 127.184 65.0837Z" fill="black"/>
</g>
<defs>
<clipPath id="clip0_1329_52214">
<rect width="193" height="196" fill="white"/>
</clipPath>
</defs>
</svg>
