<svg width="194" height="196" viewBox="0 0 194 196" fill="none" xmlns="http://www.w3.org/2000/svg">
<g clip-path="url(#clip0_1317_51755)">
<rect width="194" height="196" fill="#FFDFDF"/>
<path fill-rule="evenodd" clip-rule="evenodd" d="M93.345 102.588C97.502 99.4221 107.939 97.9977 112.375 101.047C116.758 104.109 117.235 109.061 119.278 113.616C121.204 112.707 124.386 114.009 124.944 115.797C125.637 116.641 125.668 119.011 126.146 120.144C146.935 123.454 150.09 139.668 152.592 158.075C155.903 176.753 163.417 195.39 160.156 214.61C160.58 215.226 160.915 215.824 161.225 216.535C161.968 217.798 161.012 219.588 159.514 219.518C157.575 219.348 155.656 219.115 153.708 219.042C148.31 218.855 142.905 218.877 137.505 218.946L136.768 218.956C109.548 219.294 82.3297 219.962 55.1086 220.14C54.121 220.141 53.6376 219.255 53.7694 218.381C54.035 216.622 54.2814 214.861 54.5386 213.101C48.1001 214.802 41.2554 215.23 34.8351 213.279C34.386 212.822 35.8816 213.07 36.1188 213C30.2102 208.961 31.9748 200.452 32.4982 194.324C35.7528 173.324 36.9001 150.089 49.4748 132.169C54.9147 124.856 62.8903 119.066 72.0547 117.763L72.3089 117.728C74.9886 117.37 77.9751 117.255 80.318 115.797C82.953 113.692 84.0762 109.804 86.8485 109.768C87.7636 109.756 89.0087 110.914 90.3487 111.701C90.4491 109.97 91.381 108.51 91.5866 107.169L91.6033 107.054C91.8186 105.49 91.5244 104.083 93.345 102.588ZM138.021 158.63C132.179 154.57 117.087 156.61 116.742 156.837C115.982 157.338 115.654 157.382 115.243 158.032C114.836 158.086 114.43 158.142 114.025 158.199C113.212 158.465 113.814 159.466 114.754 159.109C114.189 161.547 115.852 163.282 116.514 165.692C116.729 166.475 116.522 167.883 116.514 168.683C116.579 169.702 117.706 170.907 117.518 171.93C116.85 175.567 113.226 179.115 114.754 182.642C115.766 184.635 118.81 185.65 120.834 186.328C125.027 187.937 132.333 186.267 134.77 182.642C136.069 180.709 137.575 175.832 138.35 174.319L138.521 171.92C138.945 165.955 139.321 159.534 138.021 158.63Z" fill="white"/>
<path fill-rule="evenodd" clip-rule="evenodd" d="M85.8298 109.416C86.2332 109.059 86.8302 109.507 86.5743 109.99C85.998 111.075 85.4073 112.103 84.6341 113.062C84.1654 113.644 83.6632 114.194 83.1547 114.737C84.4604 115.867 85.5803 117.27 86.6373 118.585C87.99 120.266 89.2678 122.019 90.7863 123.557C92.2833 125.075 93.9381 126.136 95.9397 126.843L96.3438 126.983C98.3541 127.69 100.503 128.643 101.636 130.547C101.859 130.923 101.409 131.387 101.031 131.152C99.062 129.933 96.7487 129.687 94.6053 128.881C92.5344 128.103 90.7297 126.905 89.1347 125.376C87.5428 123.849 86.2061 122.112 84.8111 120.412C83.4321 118.731 81.9478 117.294 80.3167 115.872C77.7998 117.566 74.9268 118.304 72.0055 119.027L71.6866 119.106C68.7618 119.831 65.8526 120.672 63.1086 121.934C60.6893 123.046 58.3097 124.374 56.339 126.183C54.2471 128.104 52.6189 130.557 51.1287 132.955C47.7953 138.322 45.4518 144.202 43.3887 150.153C41.2429 156.343 39.448 162.657 37.999 169.046C37.262 172.296 36.6636 175.569 36.1717 178.865C35.9348 180.452 35.7246 182.043 35.5398 183.637C35.3426 185.34 35.2973 187.091 34.7752 188.727C34.5514 189.429 34.023 189.721 33.494 189.695L33.3865 191.04C33.2441 192.832 33.1113 194.624 33.0664 196.428C32.992 199.426 33.0258 202.416 33.2414 205.408L33.2719 205.816C33.4413 208 33.8199 210.454 35.4614 212.053C37.1612 213.708 39.7754 214.23 42.0665 214.259C47.4027 214.328 52.5395 211.806 57.2616 209.594C62.1247 207.315 66.8551 204.785 71.472 202.042C73.8234 200.644 76.1492 199.201 78.4454 197.715C79.5722 196.986 80.6911 196.244 81.8016 195.491C82.4373 195.059 83.0407 194.586 83.688 194.203C83.3707 193.907 83.2288 193.443 83.4951 193.037C81.6229 191.411 80.8438 188.511 80.7527 186.164C80.6792 184.27 80.9578 182.381 81.1778 180.504C81.2888 179.557 81.4258 178.613 81.5682 177.671C81.6244 177.299 81.6673 176.901 81.733 176.508C76.6787 179.286 71.4827 181.761 66.1491 183.959C63.4153 185.086 60.6463 186.099 57.8392 187.028L57.2702 187.215C54.6104 188.087 51.887 188.909 49.1374 189.407C48.9903 189.434 48.871 189.216 49.0279 189.147C51.7075 187.965 54.48 186.967 57.1999 185.877L57.6468 185.695C57.5955 185.692 57.5423 185.685 57.4867 185.672C55.8916 185.287 54.3089 184.693 52.7444 184.193C51.2924 183.729 49.6611 183.439 48.3039 182.739C48.1995 182.684 48.2579 182.539 48.3597 182.532C49.8851 182.426 51.541 182.871 53.0366 183.133L53.5984 183.231C54.5397 183.397 55.5018 183.576 56.4384 183.808C56.4722 183.495 56.6476 183.179 56.897 182.995C59.6415 180.961 59.3627 176.855 59.6563 173.827L59.8739 171.578C60.2568 167.644 60.6618 163.709 61.2771 159.804C61.31 159.596 61.6325 159.656 61.6339 159.853C61.6656 164.693 61.3003 169.512 61.1172 174.345L61.0889 175.138C60.9876 178.121 60.9083 181.218 59.0306 183.513C59.2932 183.359 59.6482 183.359 59.8609 183.612C60.1223 183.923 60.2732 184.272 60.2684 184.615C61.9651 183.904 63.6544 183.174 65.3354 182.429C70.7401 180.033 76.0313 177.353 81.1827 174.453C81.7371 174.14 82.2643 174.386 82.5385 174.797L82.5776 174.791C82.584 174.791 82.5911 174.79 82.5983 174.79L82.6374 174.788C82.639 174.788 82.6405 174.788 82.6413 174.788C83.3667 174.39 84.3544 174.673 84.9769 175.255C84.9952 175.272 85.0112 175.291 85.0271 175.31C85.8147 174.956 86.5504 174.478 87.2184 173.873C88.5839 172.634 89.7413 171.103 90.7504 169.567C92.6077 166.738 94.186 163.593 96.6953 161.264C98.7344 159.373 101.262 158.195 103.914 157.456C103.903 157.378 103.932 157.295 103.986 157.24C104.122 157.101 104.219 157.052 104.395 157.138C104.409 157.144 104.418 157.154 104.423 157.164L104.682 156.722C104.824 156.482 104.969 156.239 105.019 156.176C105.319 155.797 105.629 155.421 105.944 155.052C106.478 154.428 107.085 153.813 107.789 153.38C109.33 152.433 110.95 152.969 112.534 153.487C113.491 153.799 114.446 154.122 115.401 154.44L115.499 154.472C116.212 154.701 117.046 154.902 117.364 155.657C117.491 155.955 117.51 156.266 117.451 156.566C124.218 154.845 131.734 155.636 138.338 157.657C138.592 157.735 138.845 157.943 138.898 158.217C139.654 162.099 139.992 166.08 139.65 170.027C139.354 173.435 138.599 176.775 137.177 179.895L137.096 180.071C135.76 182.962 133.641 186.527 130.405 187.433C128.452 187.98 126.291 187.658 124.298 187.557C122.362 187.459 120.382 187.446 118.464 187.141C116.756 186.869 115.259 186.103 114.203 184.714C113.292 183.515 112.813 182.066 112.42 180.625C112.24 180.682 112.061 180.743 111.886 180.812C111.143 181.102 110.515 181.57 109.946 182.121C108.745 183.284 107.814 184.696 106.558 185.806C105.421 186.811 104.125 187.592 102.736 188.193C99.8559 189.438 96.7663 189.936 93.7197 190.595L93.5069 190.641C91.2136 191.145 88.8732 191.763 86.8485 192.958C86.8095 193.309 86.6493 193.64 86.3926 193.857C86.7497 194.192 86.9003 194.723 86.5871 195.222C85.7102 196.613 84.2013 197.405 82.8462 198.294L82.7577 198.353C81.4247 199.237 80.08 200.103 78.7243 200.952C75.9684 202.679 73.1548 204.309 70.3015 205.869C65.7123 208.377 61.0245 210.743 56.252 212.889C56.5384 214.299 56.4338 215.752 56.6491 217.172L56.6821 217.374C56.7741 217.901 56.6498 218.341 56.2871 218.685L56.2488 218.721L56.2494 218.716L56.2154 218.748L56.204 218.757L56.2079 218.754C56.166 218.792 56.1229 218.828 56.0789 218.858L56.0229 218.894C55.6736 219.106 55.2239 219.104 54.8662 218.917L54.8254 218.894L54.7567 218.855C54.2841 218.583 53.9582 217.909 54.1543 217.374C54.6361 216.059 54.8182 214.654 55.263 213.33L54.9101 213.488L54.4449 213.692C49.4132 215.868 43.8242 217.701 38.3419 216.217C35.9195 215.562 33.6555 214.174 32.4435 211.913C31.2508 209.688 31.0823 207.105 31.0189 204.63C30.9408 201.575 31.1045 198.475 31.5072 195.446C31.7775 193.413 32.1043 191.342 32.6086 189.33C32.3492 189.101 32.1586 188.773 32.1082 188.366C31.8703 186.444 32.2867 184.447 32.5417 182.536C32.7908 180.669 33.0659 178.806 33.3771 176.95C34.0054 173.2 34.7355 169.458 35.5855 165.752C37.0981 159.156 39.0955 152.678 41.5003 146.353L41.7109 145.803C43.9331 140.023 46.5061 134.366 50.0888 129.289C51.8027 126.859 53.6144 124.657 56.0361 122.905C58.3049 121.266 60.8639 120.084 63.5049 119.182C66.1487 118.279 68.866 117.673 71.6314 117.297C74.4399 116.914 77.4044 116.68 80.0242 115.527C79.6928 114.933 79.9772 114.131 80.535 113.762C82.4118 112.521 84.1479 110.907 85.8298 109.416ZM145.918 163.364C145.997 163.244 146.184 163.32 146.149 163.461C145.236 167.203 144.379 170.952 143.819 174.765C142.809 181.647 142.995 188.619 143.078 195.552L143.082 195.91C143.124 199.645 143.183 203.379 143.307 207.112C143.369 208.999 143.493 210.904 143.426 212.792C143.389 213.816 143.116 214.784 143.019 215.796C142.935 216.681 143.01 217.578 143.053 218.465C143.08 219.054 142.212 219.028 142.153 218.465L142.077 217.735C141.979 216.812 141.858 215.895 141.555 215.012C141.191 213.949 141.017 212.906 140.891 211.79C140.698 210.08 140.612 208.353 140.537 206.632L140.486 205.441C140.175 198.247 140.185 191.018 140.69 183.831L140.727 183.318C141.226 176.525 142.092 169.184 145.918 163.364ZM126.458 120.548C126.22 120.449 126.303 120.089 126.567 120.152L127.047 120.266C130.566 121.109 134.021 122.023 137.305 123.592C140.592 125.162 143.374 127.506 145.585 130.387C149.883 135.989 151.669 142.797 153.079 149.598C154.645 157.157 156.072 164.742 157.653 172.297L157.946 173.705C159.409 180.742 160.789 187.783 161.806 194.903L161.88 195.419C162.906 202.742 163.523 210.317 162.403 217.658C162.182 219.11 159.766 218.748 159.861 217.314C160.133 213.165 160.328 209.039 160.14 204.882C159.951 200.723 159.561 196.583 158.98 192.461C158.49 188.992 157.762 185.566 157.116 182.125L157.015 181.581C156.475 178.654 155.918 175.73 155.362 172.807L154.532 168.428C153.287 161.872 152.018 155.311 150.584 148.797L150.499 148.413C149.095 142.145 147.027 135.58 142.817 130.603C138.546 125.553 132.431 123.009 126.458 120.548ZM110.937 187.026C111.039 186.797 111.399 186.822 111.509 187.026C111.942 187.825 111.99 188.845 112.072 189.747L112.081 189.839C112.185 190.94 112.277 192.045 112.333 193.149C112.44 195.245 112.492 197.337 112.485 199.436C112.478 201.586 112.435 203.734 112.319 205.881L112.288 206.456C112.182 208.322 112.004 210.403 111.118 212.035C110.796 212.628 109.92 212.454 109.733 211.854C109.122 209.89 109.436 207.562 109.593 205.551L109.715 203.981C109.835 202.412 109.95 200.842 110.041 199.27C110.166 197.12 110.269 194.969 110.368 192.818C110.4 192.119 110.435 191.421 110.472 190.722L110.529 189.674C110.577 188.798 110.573 187.836 110.937 187.026ZM42.2023 189.809L42.473 189.548C43.3037 188.735 44.3535 187.482 45.5817 187.56C46.0713 187.591 46.3834 187.997 46.2818 188.479C46.0649 189.509 45.0143 190.044 44.258 190.673C43.4294 191.362 42.6485 192.098 41.8692 192.842C41.1777 193.501 40.5128 194.179 39.8638 194.879L39.6211 195.142C39.3884 195.395 37.7319 196.895 37.911 197.284L37.9207 197.301C37.9705 197.375 37.8875 197.477 37.8049 197.452C37.0895 197.225 37.1341 196.612 37.4046 195.991C37.9242 194.797 38.8343 193.692 39.629 192.672C40.4216 191.654 41.2794 190.707 42.2023 189.809ZM113.529 159.863C112.976 158.555 110.937 158.582 109.781 158.661C106.867 158.858 103.716 159.595 101.123 160.957C98.4354 162.369 96.6252 164.632 95.0054 167.134L94.9297 167.252C93.3506 169.707 91.8305 172.614 89.3579 174.301C88.0992 175.161 86.6285 175.947 85.1005 176.287C84.996 176.472 84.8262 176.618 84.6031 176.67L84.4994 176.694C84.0642 176.791 83.3882 176.897 82.8048 176.833C82.8087 177.119 82.8055 177.403 82.8127 177.673C82.8334 178.449 82.8422 179.228 82.8422 180.005C82.8422 181.631 82.7545 183.261 82.8231 184.887C82.8829 186.326 83.0861 187.829 83.7764 189.115C84.2826 190.059 84.9514 190.683 85.7581 191.279C87.7429 190.069 89.9876 189.331 92.265 188.776C95.0198 188.106 97.8408 187.658 100.533 186.749C101.828 186.311 103.074 185.738 104.203 184.959C105.401 184.134 106.316 183.015 107.257 181.922L107.404 181.752C108.364 180.649 109.413 179.595 110.771 178.997C111.94 178.483 113.481 178.391 114.504 177.594C115.038 177.177 115.082 176.573 115.139 175.954C114.485 176.047 113.791 175.897 113.138 175.82L112.8 175.781C112.183 175.707 111.581 175.627 110.973 175.47C110.86 175.44 110.86 175.27 110.973 175.241C111.691 175.056 112.403 174.977 113.138 174.89L113.311 174.869C113.978 174.782 114.678 174.65 115.33 174.796C115.448 174.351 115.617 173.924 115.854 173.498C116.188 172.898 116.819 172.219 116.904 171.519C116.929 171.31 116.88 171.063 116.782 170.878L116.748 170.815C116.706 170.741 116.658 170.666 116.586 170.62C116.578 170.63 116.561 170.64 116.524 170.651C116.021 170.81 115.583 170.563 115.35 170.184C114.363 170.307 113.284 170.265 112.357 170.307L111.42 170.352C110.419 170.398 109.373 170.418 108.432 170.216C108.301 170.187 108.262 169.969 108.393 169.912C109.55 169.418 110.952 169.26 112.191 169.07C112.882 168.964 113.578 168.882 114.272 168.789C114.733 168.727 115.224 168.624 115.702 168.599C116.901 167.106 116.255 164.748 114.586 164.105C113.978 164.373 113.431 164.218 112.767 164.16C112.104 164.104 111.439 164.065 110.772 164.068C109.438 164.073 108.025 164.425 106.703 164.273C106.488 164.249 106.289 163.963 106.502 163.788C107.514 162.962 108.963 162.694 110.247 162.517L110.513 162.481C110.944 162.425 111.467 162.343 112.01 162.294C112.132 162.054 112.353 161.873 112.684 161.828C112.782 161.814 112.881 161.807 112.98 161.798L112.978 161.789C113.786 161.75 113.75 160.386 113.529 159.863ZM58.2804 185.374C58.2661 185.395 58.2506 185.417 58.2339 185.437L58.2083 185.466L58.341 185.413L58.2804 185.374ZM127.612 156.94C124.214 156.575 120.813 156.652 117.406 156.75C117.133 157.641 116.185 158.401 115.267 158.43C115.986 159.526 116.061 161.009 115.555 162.171C116.627 162.598 117.55 163.365 118.111 164.457C118.888 165.97 118.786 167.654 118.018 169.052C118.673 169.646 119.061 170.61 119.022 171.519C118.979 172.532 118.375 173.398 117.873 174.237C117.331 175.145 117.313 175.943 117.146 176.96C116.902 178.447 115.9 179.349 114.61 179.912L114.678 180.182C115.011 181.478 115.425 182.844 116.375 183.791C117.598 185.01 119.495 184.998 121.111 185.075L121.189 185.079C122.669 185.153 124.148 185.24 125.627 185.324L126.736 185.386C128.439 185.479 130.075 185.49 131.465 184.365C133.734 182.526 135.29 179.484 136.275 176.791C138.342 171.137 138.367 164.933 137.418 159.045C134.236 158.019 130.934 157.297 127.612 156.94ZM99.3633 166.32L99.388 166.321C100.088 166.401 100.568 166.968 100.739 167.64C100.988 168.616 100.866 169.499 101.464 170.381C102.079 171.288 102.457 172.014 102.546 173.134C102.584 173.595 102.566 174.055 102.669 174.506L102.743 174.822C102.822 175.159 102.887 175.483 102.847 175.845C102.812 176.175 102.651 176.433 102.321 176.539C101.242 176.884 100.409 176.088 100.131 175.083C99.8902 174.215 100.211 173.18 99.8718 172.365C99.6837 171.913 99.337 171.535 99.1409 171.08C98.9464 170.629 98.8491 170.158 98.8181 169.668C98.7591 168.74 99.5785 167.626 99.1218 166.786C99.0237 166.607 99.1345 166.314 99.3633 166.32ZM85.0399 156.75C85.77 156.602 86.5982 156.262 87.3188 156.545C87.6887 156.69 87.872 157.142 87.5588 157.456C87.0159 158 86.2268 158.03 85.4958 158.159L85.4313 158.17C84.5664 158.33 83.6999 158.482 82.8327 158.626C81.2006 158.896 79.5647 159.135 77.9231 159.338C76.2371 159.547 74.5463 159.733 72.8531 159.873L72.1977 159.927C70.7674 160.042 69.2793 160.128 67.8759 159.908C67.6719 159.877 67.7048 159.579 67.8759 159.527C69.4132 159.062 71.0997 158.938 72.6891 158.74C74.3789 158.53 76.0658 158.309 77.7483 158.046C79.4282 157.783 81.1058 157.502 82.7769 157.19C83.5325 157.05 84.2866 156.903 85.0399 156.75ZM111.388 155.256C110.747 155.028 110.042 154.693 109.348 154.805C108.15 154.999 107.085 156.166 106.136 156.934L106.613 156.842C109.047 156.374 112.273 155.869 114.316 157.418C114.322 157.409 114.326 157.401 114.332 157.392C114.497 157.141 114.688 156.946 114.897 156.731C114.917 156.712 114.936 156.693 114.955 156.673L115.067 156.553L114.81 156.464C114.258 156.269 113.605 156.017 113.502 155.98L113.495 155.978C112.792 155.739 112.088 155.504 111.388 155.256ZM91.3809 104.196C91.2805 102.907 93.2869 102.918 93.3857 104.196C93.6025 106.988 92.9744 109.753 91.6233 112.201C91.6129 112.218 91.6025 112.234 91.5914 112.251C92.4371 112.691 93.2924 113.114 94.1661 113.491C95.2844 113.974 96.4235 114.413 97.5825 114.786C98.6315 115.124 99.9237 115.257 100.805 115.959C102.665 117.441 101.967 120.515 101.609 122.508L101.553 122.822C101.374 123.847 101.246 124.899 101.678 125.883C102.14 126.934 103.072 127.714 103.905 128.466L104.073 128.618C104.811 129.29 105.653 130.107 106.194 131.018C106.688 129.997 107.361 129.163 108.073 128.223C108.58 127.553 108.219 127.331 107.854 126.677C107.503 126.046 107.332 125.374 107.441 124.654C107.644 123.326 108.706 122.367 109.762 121.646C111.009 120.795 112.401 120.165 113.691 119.373C116.34 117.746 118.921 115.887 121.246 113.821C121.31 113.765 121.421 113.84 121.369 113.917C119.533 116.712 117.38 119.126 114.733 121.176C113.66 122.007 112.532 122.697 111.398 123.421L111.071 123.631C110.616 123.926 110.048 124.321 109.841 124.823C109.634 125.329 110.077 125.71 110.314 126.13C111.07 127.459 110.705 128.7 109.81 129.828L109.768 129.88C108.878 130.978 108.203 131.998 107.88 133.4C107.187 136.413 108.153 139.549 109.164 142.377L109.204 142.488C109.751 144.012 110.332 145.525 110.807 147.073L110.937 147.501C111.368 148.926 111.72 150.331 111.237 151.796C111.073 152.294 110.394 152.412 110.112 151.943C109.117 150.29 108.869 148.3 108.245 146.483C107.637 144.711 106.939 142.971 106.352 141.192C105.596 138.902 105.09 136.436 105.364 134.034C105.356 134.02 105.347 134.007 105.341 133.992L105.148 133.571C104.623 132.43 104.117 131.435 103.162 130.525C102.166 129.576 101.085 128.737 100.302 127.589C98.6004 125.096 99.6526 122.322 99.8583 119.596L99.8814 119.261C99.9189 118.695 99.9396 117.926 99.5697 117.534C99.1544 117.093 98.1788 116.98 97.6272 116.785C96.2019 116.281 94.7966 115.692 93.4582 114.986C92.1844 114.314 90.9505 113.571 89.8019 112.701L89.22 112.263C88.3009 111.57 87.3483 110.812 86.7322 109.868C86.6612 109.759 86.7824 109.584 86.9107 109.636C87.939 110.053 88.878 110.717 89.8393 111.295C89.8545 111.259 89.872 111.224 89.8919 111.189C91.0812 109.034 91.5707 106.647 91.3809 104.196ZM124.217 118.957C124.626 117.833 126.493 117.92 126.419 119.255C126.362 120.281 125.926 121.207 125.529 122.138L125.486 122.237C125.075 123.207 124.601 124.119 124.032 125.008C122.948 126.708 121.677 128.285 120.32 129.774C119.089 131.124 117.473 131.949 115.612 131.812C114.827 131.754 114.036 131.555 113.349 131.163C112.532 130.697 111.646 129.299 110.604 129.638C110.504 129.671 110.41 129.523 110.497 129.453C111.699 128.484 113.063 129.986 114.214 130.348C115.949 130.893 117.729 130.291 118.846 128.888C120.011 127.423 121.084 125.784 122.063 124.189C122.561 123.379 123.015 122.539 123.407 121.673C123.802 120.799 123.892 119.848 124.217 118.957ZM121.421 112.043C121.371 111.888 121.564 111.74 121.699 111.829C122.49 112.343 123.174 113.023 123.903 113.619C124.712 114.28 125.525 114.928 126.353 115.566C127.558 116.495 126.16 118.206 125.099 117.191C123.647 115.801 122.056 113.985 121.421 112.043ZM117.084 106.604C117.405 105.366 119.303 105.877 119.027 107.101L119.018 107.138C118.493 109.159 119.239 111.216 120.833 112.527L120.891 112.575C121.899 113.381 120.471 114.792 119.474 113.993C117.295 112.249 116.389 109.286 117.084 106.604Z" fill="black"/>
<path fill-rule="evenodd" clip-rule="evenodd" d="M133.571 67.1902C132.946 62.2 130.983 56.9017 128.917 52.2493C124.274 42.4129 113.643 41.0587 104.112 39.0306C94.7081 37.661 84.7497 36.4242 75.4868 39.157C70.2796 40.4331 68.2457 46.6373 69.0676 51.5333C69.5365 54.5841 70.9247 57.4715 72.1084 60.2989C74.4612 66.1054 75.9539 72.3219 75.9565 78.6089C75.795 82.7172 75.2153 87.4059 79.9348 89.146C84.4252 91.3803 84.8047 97.4368 90.4283 100.872C92.7017 105.481 98.8961 105.885 103.354 106.954C106.171 107.494 109.02 107.891 111.878 108.148C120.151 109.208 126.769 106.81 131.1 99.4368C133.998 94.9506 136.156 89.7693 135.623 84.3314C135.092 78.6049 134.208 72.9088 133.571 67.1902Z" fill="white"/>
<path fill-rule="evenodd" clip-rule="evenodd" d="M104.184 27.076C104.656 26.5407 105.384 26.7243 105.825 27.1477C106.112 27.2324 106.391 27.3585 106.654 27.5252C107.249 27.4489 107.871 27.4489 108.455 27.4703C108.596 27.391 108.748 27.3204 108.913 27.2597C110.091 26.8286 111.136 27.0476 111.997 27.6248C112.412 27.2323 112.935 26.986 113.604 27.0232C114.201 27.0565 114.626 27.3376 114.991 27.7077C115.354 27.1833 115.942 26.8091 116.674 26.757C117.698 26.6842 118.681 27.0948 119.497 27.7304C119.972 27.1852 120.62 26.8719 121.341 26.8689C121.816 26.7826 122.318 26.8167 122.77 26.9534C123.428 27.1521 124.005 27.5242 124.465 28.0072C125.192 27.3104 126.082 26.8091 127.109 26.8822C128.438 26.9782 129.54 27.9555 130.051 29.1584C130.95 29.5187 131.781 30.0327 132.475 30.7656C132.511 30.8042 132.547 30.8446 132.584 30.8852C132.958 31.0232 133.31 31.2187 133.62 31.4764C134.601 32.2937 134.82 33.4763 134.495 34.6352C134.541 34.8207 134.58 35.0094 134.615 35.1979C135.535 35.3377 136.37 35.8686 136.844 36.7328C137.495 37.9188 137.366 39.4821 136.663 40.6145C136.36 41.1015 135.976 41.5118 135.544 41.8707C136.032 42.9793 135.799 44.3021 135.012 45.1987C134.82 45.5078 134.584 45.7868 134.32 46.0393C134.612 47.1855 134.093 48.3679 133.055 48.9804L132.966 49.2025C132.951 49.2394 132.936 49.2762 132.921 49.3126C132.909 49.3597 132.895 49.4054 132.881 49.4514C132.856 49.8581 132.722 50.2572 132.457 50.6332C131.913 51.4038 131.238 51.9064 130.881 52.806L130.845 52.9005C130.691 53.3263 130.195 53.6266 129.771 53.4952C132.121 58.3204 133.352 63.6894 134.197 68.9511C134.619 71.5761 134.944 74.2103 135.208 76.8543L135.467 79.4872C135.694 81.8275 135.897 84.1758 135.898 86.5241C135.901 91.8361 134.383 96.9457 131.123 101.173C128.039 105.169 123.675 108.065 118.746 109.205C113.657 110.382 107.687 109.918 103.123 107.226C101.778 106.435 102.956 104.53 104.326 105.167C106.917 106.374 109.551 107.27 112.424 107.471C115.225 107.668 118.032 107.317 120.688 106.4C125.081 104.883 128.82 101.704 131.223 97.7444C132.407 95.7938 133.264 93.6759 133.72 91.4384C134.289 88.6501 134.203 85.7677 133.995 82.9435L133.98 82.7506C133.567 77.3087 133.024 71.8337 132.145 66.4461C131.367 61.6819 130.172 57.0142 128.621 52.4498C128.014 51.9148 127.334 51.4721 126.607 51.1358C121.281 50.9132 115.945 50.9783 110.626 51.3459C106.089 51.6614 101.574 52.1953 97.0944 52.9734L96.6146 53.0577C95.6222 53.2344 94.5213 53.3355 93.5863 53.7349C92.7844 54.0787 92.46 54.7391 92.2575 55.5509C91.749 57.6045 91.6716 59.8521 91.5856 61.958C91.5019 64.0166 91.6916 66.0923 91.5266 68.1441C91.3871 69.8608 90.9479 71.618 89.6757 72.8598C89.0109 73.5099 88.1922 73.8654 87.4246 74.3593C86.928 74.6774 86.7168 75.0058 86.7813 75.5957C86.9192 76.8862 87.9587 78.5115 86.7909 79.6171C86.586 79.8108 86.2305 79.8363 86.028 79.6171C85.5466 79.0934 84.8818 78.6941 84.3103 78.2708C84.0711 78.0962 84.2704 77.7558 84.5414 77.877C84.8985 78.0372 85.262 78.2253 85.6343 78.3904C84.8124 77.7136 83.6439 77.3812 82.6706 77.1843C82.1804 77.0863 81.665 77.0576 81.1547 77.1038C80.7775 77.284 80.3919 77.4506 80.0062 77.614C79.5161 77.8196 79.0211 78.0061 78.5225 78.1831C76.793 79.5932 75.9679 81.8865 76.3282 84.1288C76.5253 85.3667 77.0962 86.7131 78.1723 87.4361C79.4471 88.2914 81.1547 87.9247 82.5319 88.56C83.8224 89.1538 84.6068 90.3559 85.1951 91.5986L85.4398 92.1167C85.985 93.2622 86.5462 94.3782 87.2915 95.4216C88.154 96.6292 89.2093 97.7141 90.3612 98.6459C90.92 99.0971 91.5162 99.5028 92.1316 99.8719L92.2998 99.9715C92.9231 100.337 93.3695 100.686 93.4109 101.459C93.4245 101.729 93.2547 101.975 93.0355 102.115C92.0925 102.713 91.1543 101.964 90.3699 101.442C89.5226 100.879 88.7127 100.247 87.9634 99.5554C86.539 98.245 85.3059 96.6882 84.3581 94.9983C83.6351 93.7118 83.2246 91.9007 82.0823 90.9027C81.3855 90.2945 80.4002 90.2897 79.5296 90.1781C78.7196 90.0745 77.9533 89.9055 77.2326 89.5062C74.3006 87.8777 73.4721 83.9335 74.1676 80.8861C74.2855 80.372 74.4505 79.8714 74.6543 79.3899C73.563 79.5717 72.337 78.443 72.7799 77.3039C72.8136 77.2178 72.8523 77.1373 72.8894 77.0544C72.1703 76.5809 71.6028 75.8635 71.3333 74.9253C71.1952 74.4398 71.175 73.9496 71.2474 73.4762C70.8988 73.2422 70.6109 72.9203 70.4257 72.5244C69.8463 72.2565 69.3326 71.8557 69.0262 71.2829C68.6018 70.4926 68.6556 69.7648 68.979 69.1094C68.9335 69.0271 68.8898 68.9428 68.8477 68.8567C67.6604 68.1039 66.8318 66.8065 66.9261 65.3677C66.9564 64.8909 67.0743 64.4614 67.2562 64.074C67.2411 64.0252 67.2259 63.9745 67.2125 63.9256C66.2189 63.4202 65.397 62.5898 65.104 61.4812C64.811 60.3658 65.1562 59.2539 65.8467 58.3981C64.8363 57.6587 64.2283 56.6259 64.5971 55.064C64.747 54.4291 65.0484 53.851 65.456 53.3641C65.4543 53.3491 65.4509 53.334 65.4476 53.3187L65.353 53.2453C64.1056 52.2606 63.3886 51.0057 64.1542 49.4624C64.4977 48.7684 64.9878 48.2847 65.5638 47.9664L65.5924 47.8753C65.1798 46.9908 65.04 46.0087 65.3247 44.976C65.557 44.1254 66.1077 43.448 66.8117 42.9983C66.7645 42.6174 66.7713 42.2116 66.847 41.7716C66.9733 41.0289 67.3421 40.3803 67.881 39.9203C67.9013 39.8224 67.9264 39.7265 67.9551 39.6304C68.137 39.0426 68.4772 38.404 68.8713 37.9305C69.1963 37.538 69.56 37.3947 70.0046 37.3796C69.9777 37.0175 69.9962 36.6501 70.0703 36.2778C70.2976 35.129 71.0285 34.0489 72.1113 33.5587C72.556 33.3582 73.0241 33.2994 73.4754 33.3481C73.8594 32.5394 74.6088 31.9533 75.53 31.8269C75.8887 31.7764 76.2221 31.7796 76.5286 31.8253C76.7021 31.7442 76.8823 31.672 77.0709 31.6061C77.1955 31.5623 77.3218 31.5219 77.4481 31.4816C77.8742 30.9526 78.4349 30.5296 79.0901 30.2754C79.8462 29.9805 80.6158 30.0107 81.2979 30.2583L81.5151 30.2129C81.8553 29.6231 82.3972 29.1666 83.231 28.9594C84.1779 28.7253 85.1496 29.0521 85.8933 29.6469C85.8973 29.6469 85.9005 29.6469 85.9053 29.6451C86.2943 28.7741 86.9599 28.1676 88.0758 28.2097C88.7717 28.2366 89.3999 28.5822 89.8845 29.0742C90.1539 29.0403 90.4234 29.0099 90.6952 28.9798C90.9813 28.6444 91.2994 28.3312 91.6517 28.0498C92.2272 27.588 92.9765 27.6253 93.4014 28.2754C93.4939 28.417 93.5799 28.5601 93.6652 28.7034L94.0542 28.6764C94.5126 28.0581 95.1375 27.6403 95.9928 27.6068C96.778 27.5746 97.3368 27.9588 97.7632 28.4961C98.11 28.4877 98.4583 28.4811 98.8066 28.4759C99.2132 28.0059 99.6914 27.5915 100.237 27.2477C100.654 26.9849 101.271 27.0744 101.609 27.4248C101.838 27.663 102.051 27.9117 102.249 28.1691C102.759 27.597 103.447 27.2201 104.184 27.076ZM79.3983 80.5737C80.1847 80.1257 81.2423 80.6111 82.0034 80.9922C82.9312 81.4553 83.8527 82.1543 84.4203 83.0304C85.1935 84.2229 83.376 85.1866 82.563 84.1169C82.0624 83.4584 81.6633 82.7944 81.0571 82.2181C80.503 81.6896 79.6997 81.3357 79.3814 80.6382C79.3696 80.6143 79.373 80.5872 79.3983 80.5737ZM79.9512 51.6221L79.9659 51.58C80.1896 50.968 79.2135 50.7041 78.9917 51.3111C78.6556 52.2312 79.0431 53.2314 79.9515 53.6286C80.2032 53.7388 80.4909 53.7006 80.6426 53.4473C80.77 53.2343 80.7109 52.865 80.4614 52.756C79.9503 52.5324 79.779 52.1377 79.9512 51.6221ZM71.5415 49.9107C72.03 49.4794 71.3131 48.7666 70.8269 49.1961C70.3732 49.5966 70.0367 50.1408 70.1241 50.7667C70.2132 51.4045 70.694 51.8549 71.2203 52.1731C71.778 52.5106 72.2864 51.6368 71.7302 51.3002L71.6677 51.262C71.4342 51.117 71.161 50.9174 71.1215 50.6321C71.0795 50.3289 71.336 50.0921 71.5415 49.9107ZM74.3157 42.3005L74.3503 42.2751C74.8751 41.9004 74.3711 41.0233 73.8403 41.4022C73.3535 41.7498 72.9632 42.2013 72.9221 42.824C72.8822 43.4291 73.1901 43.9537 73.5925 44.3794C74.0403 44.853 74.754 44.1373 74.3071 43.6648C73.8716 43.2042 73.7865 42.7016 74.3157 42.3005Z" fill="black"/>
<path fill-rule="evenodd" clip-rule="evenodd" d="M119.74 93.3512C119.998 92.9016 120.593 92.4855 121.137 92.5493C123.576 92.8355 123.571 95.7928 122.63 97.5193C121.795 99.0506 120.067 99.949 118.338 99.8174C116.521 99.6795 114.973 98.6114 114.293 96.9111C113.842 95.7864 113.634 93.7107 114.832 92.9551C114.855 92.9407 114.891 92.9447 114.909 92.9646C115.483 93.6334 115.506 94.637 116.009 95.3815C116.477 96.0742 117.204 96.6457 118.055 96.7342C118.691 96.8003 119.334 96.5708 119.583 96C119.718 95.6908 119.703 95.5234 119.652 95.3105L119.606 95.1256C119.447 94.4783 119.375 93.9857 119.74 93.3512ZM120.391 80.3813C121.663 81.1545 123.6 82.9576 122.233 84.8747C120.622 86.5654 118.304 84.6276 117.161 83.7507C116.102 83.0716 114.912 84.8189 115.895 85.612C124.15 91.7267 127.501 80.5838 121.035 79.4726C120.323 79.3498 120.058 80.1422 120.391 80.3813ZM106.962 75.0789C107.743 73.9074 109.524 74.0799 109.955 75.4703C110.187 76.2235 109.865 76.9003 109.882 77.652C109.896 78.2873 109.855 78.9951 109.66 79.6105C109.216 81.0134 107.955 82.0042 106.462 81.9636C104.975 81.9229 103.665 80.9807 103.042 79.6543C102.417 78.3232 102.549 76.9449 103.006 75.5914C103.028 75.5261 103.113 75.495 103.164 75.5492C103.704 76.1231 104.099 76.7281 104.507 77.3706L104.926 78.029C105.246 78.5248 105.712 79.1577 106.309 79.1179L106.399 79.1091C106.564 79.0948 106.539 79.1274 106.667 78.9011C106.726 78.7966 106.716 78.6021 106.745 78.4778L106.754 78.4363L106.749 78.414C106.736 78.3542 106.724 78.241 106.714 78.045L106.711 78.0019C106.668 77.086 106.409 75.9087 106.962 75.0789ZM126.748 75.8593C126.609 74.3607 128.714 74.0277 129.415 75.1363C129.78 75.715 129.886 76.4412 129.966 77.1291L130.005 77.4559C130.087 78.1621 130.12 78.8979 129.813 79.5571C129.33 80.5949 128.28 81.1442 127.147 81.0573C126.065 80.9736 125.078 80.3462 124.557 79.3937C124.093 78.5432 123.632 76.8836 124.196 75.9972C124.229 75.943 124.298 75.9366 124.344 75.978C124.877 76.4507 124.964 77.3132 125.28 77.9294C125.607 78.5647 126.102 79.184 126.853 79.2805C127.571 79.373 127.845 78.9808 127.662 78.2961C127.426 77.412 126.838 76.8102 126.748 75.8593ZM107.531 66.1707L107.876 66.0388C109.055 65.5929 110.675 65.0775 111.635 66.0373C112.226 66.6291 112.339 67.501 111.916 68.2232C111.405 69.0981 110.487 69.1196 109.601 69.2485C108.592 69.3951 107.566 69.6737 106.628 70.071C105.57 70.5187 104.589 71.0766 103.628 71.6997C102.714 72.2919 101.803 73.2598 100.71 73.4422C100.665 73.4496 100.615 73.4304 100.603 73.3814C100.354 72.3117 101.044 71.2589 101.661 70.4243C102.406 69.4138 103.309 68.5844 104.319 67.8408C105.293 67.1229 106.406 66.6042 107.531 66.1707ZM128.964 69.9743L129.069 69.9558C129.785 69.8366 130.433 69.8641 130.972 70.431C131.384 70.8635 131.542 71.4239 131.346 71.9958C131.165 72.5232 130.76 73.0591 130.173 73.1696C128.189 73.543 125.992 73.4813 123.998 73.1986C123.086 73.0692 122.166 72.9109 121.278 72.6612L120.869 72.5427C120.127 72.3307 119.278 72.1093 118.739 71.5636C118.545 71.3675 118.657 71.0868 118.889 70.996C119.829 70.6278 121.117 70.8237 122.119 70.7948C123.286 70.7615 124.453 70.6741 125.614 70.5536C126.748 70.4357 127.845 70.1795 128.964 69.9743Z" fill="black"/>
<path fill-rule="evenodd" clip-rule="evenodd" d="M105.389 97.7048C106.752 94.51 109.728 92.1616 113.154 91.3024C115.67 90.6734 118.311 90.6942 120.875 90.9436C122.219 91.0736 123.66 91.1796 124.927 91.6786C126.008 92.1051 126.89 92.9117 127.552 93.8579C128.341 94.9795 128.878 96.2628 129.254 97.5781C129.308 97.7654 129.358 97.9535 129.405 98.1432C129.241 99.1356 128.893 99.9806 127.974 100.604C127.078 101.214 126.008 101.463 124.941 101.552C124.836 101.501 124.735 101.45 124.642 101.396C122.98 100.445 121.81 98.195 119.713 98.4995C117.841 98.7714 116.608 101.128 115.495 102.51C111.921 102.927 108.349 101.852 105.441 99.8076C105.294 99.1085 105.285 98.4023 105.389 97.7048ZM131.834 95.2808C131.548 94.4789 131.188 93.7009 130.761 92.9691C129.35 90.5475 127.184 88.6177 124.612 87.5145C118.529 84.9095 110.658 86.746 105.746 91.0194C104.067 92.4805 102.371 94.6271 101.858 96.9364C101.705 96.9667 101.56 97.0464 101.441 97.1588C97.8912 94.9229 94.2364 92.7722 91.3763 89.6738C89.299 87.422 87.8547 84.7572 86.9699 81.8294C86.8973 81.5887 86.5091 81.6237 86.5211 81.8908C86.5243 81.953 86.5275 82.0151 86.5307 82.0773C86.494 81.9625 86.3186 82.0215 86.3051 82.1331C85.8292 85.6898 85.2337 89.461 85.7822 93.0361C86.1106 95.17 87.0791 96.7315 88.3744 98.4182C89.7614 100.226 91.3325 101.907 92.9387 103.52C93.9574 104.543 95.0224 105.724 96.2698 106.475C97.7214 107.347 99.3682 108.009 100.917 108.682C102.493 109.368 104.092 110.003 105.722 110.553C108.98 111.655 112.347 112.418 115.773 112.752C118.516 113.018 121.651 113.308 124.279 112.276C126.294 111.485 127.92 110.055 129.21 108.334C130.614 106.461 131.725 104.326 132.339 102.076C132.976 99.7383 131.968 95.6578 131.834 95.2808Z" fill="black"/>
</g>
<defs>
<clipPath id="clip0_1317_51755">
<rect width="194" height="196" fill="white"/>
</clipPath>
</defs>
</svg>
