<svg width="194" height="196" viewBox="0 0 194 196" fill="none" xmlns="http://www.w3.org/2000/svg">
<g clip-path="url(#clip0_1317_51720)">
<rect width="194" height="196" fill="#FFDFDF"/>
<path fill-rule="evenodd" clip-rule="evenodd" d="M45.7117 220.51C55.9748 220.797 65.6698 221.114 75.9131 220.51C92.3044 219.495 140.409 221.324 150.982 220.51C151.78 220.448 154.524 221.324 154.581 220.51C155.046 214.841 155.347 157.49 153.967 153.543C152.586 149.597 145.769 130.627 137.084 121.781C134.662 119.392 130.976 118.466 128.941 115.705C127.186 112.694 127.322 110.926 125.589 109.342C124.837 108.654 123.062 108.375 121.744 107.421C120.418 106.103 121.674 103.203 121.129 101.368C120.008 96.7853 115.877 93.8459 111.362 93.1533C105.086 91.6515 98.4608 93.0716 95.4548 98.0031C94.3362 99.8389 94.9312 102.07 93.5555 105.012C93.6539 107.234 91.0596 107.771 89.5086 108.652L86.4296 111.765C76.9429 117.105 65.7829 119.988 57.4706 127.163C50.4035 134.335 43.3742 142.624 40.2386 152.327C39.5894 154.971 39.3776 157.705 39.1086 160.406C38.3406 168.301 36.202 175.965 34.3617 183.656C32.2632 193.345 30.3071 203.632 33.1353 213.413C33.9507 215.484 43.8555 220.413 45.7117 220.51Z" fill="white"/>
<path fill-rule="evenodd" clip-rule="evenodd" d="M94.9114 98.7934C94.9931 98.5253 95.347 98.6007 95.3739 98.8553C95.6405 101.384 95.3057 104.026 94.9836 106.538C94.8297 107.75 94.7401 109.012 94.506 110.207C94.4759 110.334 94.4473 110.464 94.4203 110.591C94.4973 110.729 94.7258 110.883 94.8345 110.988L95.3073 111.448L96.2554 112.367C98.111 114.164 99.9667 115.963 101.822 117.761L104.546 120.402C105.48 121.307 106.54 122.174 107.36 123.184C107.804 123.732 107.904 124.404 107.467 124.991C107.25 125.281 106.862 125.492 106.468 125.536C106.622 125.751 106.741 125.994 106.816 126.263C106.971 126.814 106.414 127.489 105.823 127.26C105.151 127.001 104.596 126.539 103.912 126.317C103.222 126.093 102.47 126.049 101.755 126.17C101.426 126.225 101.104 126.307 100.791 126.411C104.145 127.956 107.774 128.843 111.474 128.969C112.229 128.995 112.982 128.985 113.731 128.935C114.991 128.853 116.243 128.662 117.474 128.353C118.441 128.109 119.397 127.805 120.327 127.436C120.782 127.254 121.233 127.055 121.669 126.829L121.707 126.806C121.805 126.745 123.627 125.711 123.659 125.556C123.69 125.401 123.69 125.347 123.631 125.211C123.571 125.076 123.407 124.984 123.407 124.984C122.845 124.742 122.262 124.519 121.647 124.515C120.232 124.506 118.688 125.552 117.519 126.266C116.234 127.049 115.052 127.963 113.815 128.812C113.786 128.832 113.754 128.841 113.724 128.841C113.593 128.841 113.473 128.68 113.556 128.554C114.443 127.248 115.639 126.161 116.891 125.211L117.396 124.834C118.542 123.978 119.883 123.031 121.277 122.824C122.984 122.573 124.768 123.638 126.292 124.262L128.99 125.367C129.471 125.563 129.994 125.73 130.478 125.953L129.348 122.414C128.782 120.644 128.219 118.873 127.661 117.102L127.552 116.755C126.997 114.956 126.486 113.086 125.56 111.443C125.339 111.049 125.086 110.678 124.837 110.304C124.577 109.917 124.48 109.489 124.153 109.144C123.505 108.458 122.579 108.056 121.693 107.792C121.478 107.729 121.541 107.444 121.744 107.422C122.653 107.326 123.518 107.538 124.339 107.921L124.68 108.084C125.456 108.452 126.213 108.793 126.789 109.452C128.103 110.958 128.785 112.854 129.412 114.725L129.58 115.227C129.814 115.15 131.409 115.636 131.608 115.752C137.584 118.279 142.186 122.984 145.551 128.497C149.239 134.538 151.247 141.442 152.905 148.273C153.416 150.381 153.905 152.496 154.375 154.615C152.281 155.421 150.056 155.843 148.095 156.978C147.349 157.41 148.023 158.57 148.772 158.136C150.608 157.073 152.699 156.681 154.664 155.933C155.73 160.84 156.678 165.774 157.472 170.728C159.911 185.933 161.451 201.385 161.354 216.799C161.352 217.139 161.252 217.52 161.065 217.847C161.175 217.793 161.26 217.729 161.309 217.652C161.927 216.681 163.477 217.582 162.856 218.557L162.765 218.699C162.298 219.418 161.863 219.969 161.042 220.375C160.216 220.784 159.321 220.853 158.409 220.876C155.309 220.958 152.208 221.011 149.106 221.049C148.681 217.73 148.508 214.379 147.922 211.078C147.771 210.23 146.479 210.589 146.629 211.435C147.195 214.622 147.376 217.857 147.771 221.065C141.139 221.137 134.503 221.137 127.875 221.156C118.894 221.183 109.914 221.164 100.933 221.159L97.0836 221.158C86.7089 221.158 76.3335 221.125 65.9586 221.056L63.4912 221.038C62.5097 215.25 61.8416 209.412 61.8292 203.53C61.8274 202.667 60.4865 202.665 60.4883 203.53C60.5007 209.405 61.1614 215.244 62.1339 221.03C59.6774 221.02 57.2221 221.029 54.7655 221.116L53.5151 221.16C51.0133 221.246 48.5065 221.299 46.0095 221.099C43.2372 220.876 40.4333 220.366 37.9476 219.06C36.8281 218.471 35.8425 217.718 35 216.832C35.8564 216.334 36.7249 215.855 37.5544 215.313C38.2736 214.841 37.6027 213.68 36.8776 214.154C35.9838 214.74 35.0441 215.249 34.1238 215.79C33.4573 214.901 32.9104 213.913 32.4951 212.848C31.8398 211.166 31.5867 209.357 31.3671 207.576C31.1074 205.479 31 203.364 31 201.252C31 196.808 31.4677 192.378 32.1198 187.989C32.7435 183.783 33.5678 179.612 34.4393 175.453L34.5584 174.886C35.4182 170.798 36.2378 166.698 37.2234 162.639C38.1346 158.885 39.1877 155.149 40.4428 151.486C41.5599 152.177 42.729 152.78 43.8287 153.501C44.5529 153.974 45.2256 152.814 44.5055 152.342C43.3323 151.575 42.0809 150.936 40.8969 150.185C42.3003 146.262 43.9475 142.43 45.9225 138.76C49.8779 131.411 55.2081 124.837 62.0348 119.984C65.4523 117.556 69.2017 115.57 73.139 114.124C77.1533 112.649 81.3132 111.84 85.5673 111.509C85.6887 111.499 85.7569 111.611 85.7522 111.715L85.7498 111.735L85.918 111.762C85.9798 111.34 86.1068 110.933 86.3503 110.559C86.9033 109.708 87.9521 109.161 88.7899 108.637L88.989 108.514C89.9863 107.896 91.0383 107.286 92.1982 107.07C92.2378 107.063 92.2632 107.105 92.2362 107.137C91.4714 108.014 90.494 108.684 89.5975 109.426L89.3913 109.598C88.6487 110.21 87.6126 110.903 87.5848 111.926C87.5539 113.129 87.7998 114.382 87.8886 115.582C87.9775 116.78 88.0394 117.975 88.0711 119.176C88.1869 123.477 88.0481 127.779 87.6673 132.064L89.35 130.937C91.9689 129.183 94.5965 127.434 97.278 125.792C98.9004 124.798 100.724 123.948 102.668 123.986C103.213 123.997 103.828 124.075 104.418 124.243C103.784 123.641 103.175 123.001 102.553 122.396C101.529 121.398 100.505 120.4 99.4804 119.404L96.5275 116.527L93.5738 113.649C92.6591 112.756 91.5857 111.932 91.6833 110.524C91.7618 109.401 92.3338 108.282 92.7241 107.199C92.7797 107.043 92.8297 106.889 92.8765 106.737C93.6643 104.117 94.1117 101.402 94.9114 98.7934ZM133.074 211.169C132.463 210.557 131.515 211.505 132.126 212.117L132.45 212.439C132.989 212.978 133.524 213.533 133.898 214.199L133.952 214.299C134.355 215.063 135.513 214.386 135.11 213.622C134.612 212.678 133.821 211.915 133.074 211.169ZM106.905 210.996C104.961 210.625 103.087 210.625 101.142 210.996C100.296 211.158 100.655 212.451 101.499 212.29C103.2 211.965 104.848 211.965 106.549 212.29C107.392 212.451 107.753 211.158 106.905 210.996ZM80.6457 197.475C79.8091 197.263 79.452 198.556 80.2893 198.768L80.7017 198.872C82.1031 199.218 83.4379 199.476 84.8937 199.154C85.7252 198.971 85.3888 197.709 84.57 197.855L84.5367 197.861C83.19 198.159 81.949 197.805 80.6457 197.475ZM127.282 188.762C126.663 188.16 125.714 189.107 126.334 189.71C127.108 190.463 128.02 191.035 129.125 191.066C129.975 191.089 129.987 189.788 129.163 189.726L129.125 189.725C128.385 189.704 127.794 189.26 127.282 188.762ZM48.3674 185.179C49.1394 184.793 48.4611 183.636 47.6907 184.021L43.0567 186.339C42.2847 186.725 42.963 187.882 43.7333 187.498L48.3674 185.179ZM139.937 185.475C139.074 185.451 139.075 186.792 139.937 186.816C140.749 186.839 141.58 187.146 142.302 187.497C143.076 187.873 143.756 186.716 142.979 186.338C142.035 185.88 140.997 185.505 139.937 185.475ZM96.6386 178.998C97.3486 178.516 96.6782 177.353 95.9618 177.84C94.9844 178.504 94.099 179.29 93.1375 179.974L92.8725 180.157C92.1632 180.641 92.8328 181.803 93.5492 181.317C94.6155 180.591 95.5731 179.723 96.6386 178.998ZM146.502 169.249C145.64 169.249 145.638 170.59 146.502 170.59L146.667 170.59C147.378 170.586 148.129 170.567 148.791 170.851L148.867 170.886C149.644 171.251 150.325 170.095 149.544 169.727C148.573 169.269 147.558 169.25 146.502 169.249ZM72.0372 168.29L72.1498 168.248C72.956 167.959 72.6084 166.663 71.7933 166.955C70.565 167.396 69.6095 168.231 68.544 168.955C67.834 169.437 68.5042 170.599 69.2206 170.113C70.1387 169.489 70.9929 168.699 72.0372 168.29ZM122.331 164.801L122.512 164.705C123.28 164.309 122.603 163.151 121.835 163.546C121.227 163.859 120.683 164.276 120.085 164.608L119.904 164.705C119.137 165.1 119.815 166.258 120.581 165.863C121.19 165.549 121.735 165.133 122.331 164.801ZM101.933 151.809L101.795 151.674C101.178 151.071 100.229 152.018 100.847 152.623C102.39 154.134 104.214 155.281 106.054 156.39L106.389 156.592C107.131 157.037 107.806 155.877 107.066 155.433L106.575 155.137C104.939 154.151 103.322 153.132 101.933 151.809ZM64.8272 150.556C65.3472 149.881 64.2164 149.22 63.6879 149.855L63.6694 149.879C63.1281 150.582 62.4859 151.218 61.8147 151.799L61.6885 151.907C61.2889 152.247 60.5616 152.976 60.0003 153.023C59.1469 153.096 59.1392 154.439 60.0003 154.365C60.8689 154.291 61.6163 153.679 62.2724 153.156C63.2275 152.393 64.0818 151.524 64.8272 150.556ZM136.164 145.67C136.787 145.084 135.867 144.152 135.238 144.701L135.216 144.721C134.052 145.816 132.377 146.109 130.878 146.48C130.04 146.687 130.395 147.981 131.234 147.774L131.917 147.605C133.449 147.222 134.986 146.777 136.164 145.67ZM109.608 137.208C108.772 136.996 108.415 138.289 109.252 138.502C110.675 138.863 112.022 139.331 113.339 139.98C114.111 140.359 114.791 139.203 114.016 138.821C112.598 138.123 111.139 137.597 109.608 137.208ZM123.306 108.931C123.287 108.871 123.35 108.802 123.412 108.824C124.917 109.385 124.116 111.356 123.649 112.537L123.564 112.753C122.832 114.644 121.808 116.485 120.691 118.178C119.524 119.951 118.227 121.648 116.821 123.241C116.212 123.932 115.581 124.604 114.927 125.256L114.681 125.499C114.021 126.148 113.17 127.288 112.145 127.162C111.042 127.03 110.427 125.852 111.232 124.956C111.8 124.322 112.588 123.817 113.223 123.241C113.854 122.67 114.464 122.082 115.058 121.476C116.275 120.234 117.428 118.921 118.483 117.538C119.502 116.2 120.478 114.826 121.365 113.396L121.541 113.11C122.217 111.998 123.776 110.363 123.306 108.931ZM69.993 122.982C69.2787 122.493 68.6072 123.656 69.3162 124.14C70.6199 125.031 71.7668 126.111 73.178 126.844C73.9335 127.237 74.6054 126.112 73.8815 125.701L73.8548 125.687C72.4447 124.954 71.296 123.873 69.993 122.982Z" fill="black"/>
<path fill-rule="evenodd" clip-rule="evenodd" d="M99.9542 38.5417C125.359 37.292 136.823 55.186 137.565 63.1783C138.08 68.7263 134.803 75.1211 134.803 80.0787C134.803 82.6087 137.9 88.0416 136.458 91.7299C133.249 99.9396 126.454 109.05 117.795 109.05C109.136 109.05 97.8677 111.446 88.2998 97.7412C87.4026 96.4552 76.0478 89.1468 74.9446 82.2026C72.1969 64.9043 81.8273 39.4335 99.9542 38.5417Z" fill="white"/>
<path fill-rule="evenodd" clip-rule="evenodd" d="M98.757 27.4052C99.6654 26.3656 101.199 25.9498 102.562 26.0302C104.541 26.1476 106.263 27.37 108.232 27.4605C110.297 27.5561 112.29 26.8401 114.36 27.1721C115.628 27.3767 116.886 27.9652 117.698 28.9579C120.515 28.1513 123.571 29.2194 125.365 31.5518C127.578 31.208 129.984 32.6737 130.662 34.8064C133.473 34.8969 136.126 37.1555 136.439 39.9859C137.562 40.2827 138.537 41.0575 139.136 42.0818C139.831 43.2689 139.947 44.6305 139.822 45.9686C141.144 46.6443 141.816 48.0963 141.992 49.6323C143.201 50.5343 143.725 52.1558 143.478 53.6866C144.404 54.2081 144.882 55.4221 144.876 56.5053C144.871 57.5164 144.603 58.4119 144.981 59.3876C145.317 60.2566 145.437 60.9809 145.252 61.8912L145.233 61.9799C145.201 62.1283 145.174 62.2706 145.149 62.411C145.399 62.6307 145.611 62.906 145.77 63.2262C146.349 64.3966 146.263 65.7315 145.821 66.9184C146.015 67.6743 145.99 68.4728 145.704 69.1993C146.239 69.9715 146.522 70.9185 146.438 71.9011C146.346 73.0012 145.843 73.9861 145.082 74.7144C145.285 76.217 144.674 77.841 143.57 78.8993C143.727 79.7982 143.591 80.7415 143.099 81.5944C142.748 82.2021 142.276 82.6551 141.732 82.97C141.75 83.4722 141.682 83.9855 141.515 84.4996C141.283 85.2137 140.891 85.8706 140.374 86.4005C140.683 88.372 139.503 90.5593 137.426 91.113C137.251 91.159 137.085 91.1805 136.925 91.1836C136.719 93.0798 136.268 94.9497 135.571 96.726C133.798 101.248 130.573 105.201 126.367 107.668C124.287 108.887 121.951 109.722 119.566 110.071C117.85 110.323 116.199 110.261 114.476 110.089C112.313 109.873 110.141 109.55 108.039 108.993L107.701 108.903C106.83 108.669 105.911 108.4 105.156 107.93C104.311 107.403 103.873 106.591 103.678 105.636C103.569 105.104 103.907 104.532 104.489 104.521H104.526C104.653 104.524 104.78 104.518 104.908 104.51L105.004 104.504H105.009C105.016 104.502 105.019 104.502 105.025 104.502C105.082 104.494 105.138 104.477 105.193 104.469C105.834 104.361 106.394 104.468 106.995 104.668L107.071 104.694C108.083 105.042 109.086 105.366 110.133 105.606C111.213 105.852 112.308 106.049 113.406 106.203L113.515 106.216L113.548 106.221L113.566 106.222C113.569 106.222 113.572 106.222 113.575 106.224L113.899 106.265C114.154 106.295 114.408 106.322 114.663 106.349C115.133 106.395 115.601 106.433 116.071 106.459C124.172 106.915 130.975 100.535 133.028 92.8862C133.772 90.1174 133.821 87.3557 133.601 84.5925C133.531 84.3917 133.489 84.168 133.491 83.9237C133.491 83.7959 133.498 83.6706 133.506 83.5428C133.233 80.87 132.759 78.1956 132.462 75.5133C132.115 72.3792 131.922 69.227 131.992 66.0729C132.028 64.5151 132.194 62.9725 132.411 61.4301L132.49 60.8759C131.506 60.6836 130.59 60.2164 129.861 59.5402C128.279 60.454 126.232 60.535 124.67 59.5701C122.92 60.6678 120.476 60.7674 118.714 59.6941C117.648 60.4547 116.307 60.7829 114.99 60.4941C114.397 60.3644 113.808 60.0834 113.303 59.6946C112.943 59.7582 112.578 59.7828 112.215 59.7639L112.141 59.8058C111.304 60.2468 110.377 60.537 109.424 60.5047C108.718 60.4808 107.991 60.3415 107.317 60.078C106.598 60.5123 105.811 60.8087 104.969 60.915C103.739 61.0701 102.412 60.7979 101.389 60.1001C99.5202 61.1652 97.2218 61.3292 95.2043 60.6135C94.791 61.3135 94.219 61.9172 93.5502 62.3825C93.67 62.812 93.7081 63.2702 93.6668 63.7107C93.5994 64.4356 93.4177 65.0858 93.1202 65.6696C93.4336 66.3215 93.528 67.122 93.3526 67.9255C93.1027 69.0714 92.4363 70.0682 91.5732 70.8446C91.497 72.6733 90.4942 74.3875 88.8631 75.3404C88.7805 75.3888 88.698 75.4276 88.6163 75.4633C88.5441 75.5617 88.4584 75.6482 88.3601 75.722C87.3224 76.6803 85.6801 76.6042 84.3798 76.0623C84.3544 76.0639 84.3298 76.0655 84.3044 76.0663C83.8398 76.0782 83.5231 75.8973 83.3352 75.6307C83.146 75.6402 82.9581 75.6609 82.7689 75.6958C82.0781 75.8251 81.3206 76.0734 80.6954 76.3955C79.0729 77.2301 78.322 78.7058 78.0974 80.4797C77.8529 82.4147 78.4092 84.3862 79.9061 85.696C80.6334 86.3331 81.5636 86.7321 82.5089 86.8995C83.5531 87.086 84.6694 86.6282 85.4405 87.5255C85.5944 87.7032 85.7 87.9515 85.6167 88.1911C85.3548 88.9384 84.9241 89.2256 84.2505 89.3296C85.2239 90.4847 86.2228 91.6017 87.3295 92.6394C88.5259 93.7644 89.7627 94.8545 90.8425 96.0953C91.9841 97.4083 93.0147 98.7998 93.7303 100.393C94.1397 101.308 94.4681 102.253 94.8219 103.189L94.8846 103.353C95.2797 104.349 95.8041 105.309 95.1972 106.349C94.956 106.758 94.4094 107.153 93.9064 107.088C92.4903 106.907 92.0158 105.95 91.5803 104.702C91.2518 103.76 91.0003 102.79 90.6465 101.857C90.5807 101.684 90.5085 101.512 90.4323 101.343C89.6159 101.57 88.7179 101.389 87.9896 100.924C87.2105 101.269 86.3481 101.441 85.5151 101.427C84.3988 101.407 83.3799 101.097 82.5037 100.537C82.4339 100.519 82.3639 100.501 82.2944 100.481C80.9614 100.992 79.4002 100.901 78.1933 100.073C77.4117 99.5369 76.8774 98.8213 76.5737 98.0247C75.5638 98.0057 74.5648 97.6471 73.8413 96.9307C73.1769 96.273 72.7885 95.4241 72.6732 94.5419C71.804 94.3698 70.9891 93.9493 70.35 93.2408C69.8163 92.6498 69.492 91.8961 69.3824 91.1146C68.3237 90.8124 67.369 90.1205 66.8476 89.1566C66.3623 88.2593 66.2923 87.2851 66.5297 86.3997L66.4681 86.3109C65.3776 85.7404 64.5455 84.8059 64.46 83.4707C64.4358 83.0906 64.4768 82.7098 64.5798 82.3504C64.5426 81.9482 64.5664 81.546 64.6719 81.1572C63.2053 79.73 62.674 77.438 63.4701 75.5435C62.0371 74.0004 61.6582 71.5609 62.7091 69.73C61.9884 68.8579 61.618 67.7462 61.68 66.5591C61.7571 65.0771 62.436 63.7824 63.2488 62.5835C62.6455 61.9162 62.3236 60.9856 62.3473 60.0869C62.3807 58.784 63.0729 57.6622 63.9396 56.7334C63.1835 54.4395 64.0282 51.9512 65.8837 50.4992C65.5082 49.8804 65.3691 49.1141 65.4916 48.3378C65.706 46.9813 66.7234 46.0574 67.8212 45.3263C67.5916 44.5787 67.6519 43.772 68.0174 42.999C68.5051 41.9678 69.4252 41.3139 70.3857 40.7605C70.6338 38.4734 73.1881 36.52 75.3302 37.7005C74.7989 35.9986 76.3293 34.1608 78.0892 33.9663C78.9506 31.3539 81.9222 29.7073 84.594 30.3563C85.9602 28.4884 88.5029 27.7692 90.6616 28.5705C93.0353 26.7512 95.9794 26.4813 98.757 27.4052ZM81.8503 78.6986C83.518 78.6082 84.7686 79.9696 85.6468 81.2159C86.4711 82.3846 84.356 83.6182 83.7393 82.3306C83.518 81.8712 83.2666 81.3849 82.9297 80.9827C82.8732 81.062 82.8232 81.1437 82.7734 81.2278L82.7235 81.3127C82.6867 81.3754 82.6482 81.4389 82.6163 81.5039C82.6196 81.5158 82.5694 81.6705 82.5677 81.6769C82.4302 82.0942 82.1302 82.3623 81.7214 82.5067C81.1933 82.6916 80.6938 82.2941 80.5245 81.8276C80.2548 81.0835 80.8815 80.4345 81.5335 80.1394C80.8933 80.0354 80.263 80.2536 79.8004 80.7463C79.7369 80.8153 79.6294 80.7598 79.6263 80.6741C79.5725 79.5055 80.7943 78.7558 81.8503 78.6986Z" fill="black"/>
<path fill-rule="evenodd" clip-rule="evenodd" d="M118.423 96.2642C117.297 95.8048 116.291 95.0377 115.556 94.0579C115.301 93.7167 115.235 93.3573 115.288 93.0281C115.348 92.6584 115.567 92.3228 115.865 92.0983C116.164 91.873 116.539 91.7611 116.901 91.8182C117.216 91.8674 117.528 92.0396 117.777 92.3966L117.828 92.468C118.265 93.0598 118.834 93.5446 119.483 93.858C120.108 94.1594 120.808 94.2999 121.532 94.2181C122.91 94.0626 123.86 93.3169 124.87 92.3038C124.995 92.176 125.121 92.0443 125.246 91.9103C125.325 91.7889 125.436 91.7103 125.559 91.6699C125.694 91.6239 125.848 91.627 125.989 91.6762C126.125 91.723 126.246 91.8135 126.328 91.9333C126.405 92.0467 126.45 92.1871 126.435 92.349C126.342 93.3978 125.794 94.3348 125.015 95.0702C124.15 95.8874 123.002 96.4522 121.923 96.6506C120.733 96.8687 119.521 96.7124 118.423 96.2642ZM122.484 80.0734C123.75 80.843 125.678 82.6375 124.317 84.5456C122.714 86.2283 120.407 84.2996 119.27 83.4269C118.215 82.751 117.03 84.49 118.008 85.2794C126.225 91.3652 129.56 80.2749 123.125 79.169C122.415 79.0468 122.153 79.8354 122.484 80.0734ZM107.76 72.9942C107.899 71.2578 110.543 70.8634 110.806 72.5818C111.041 74.1209 110.764 75.5346 110.071 76.9206C109.409 78.2447 107.745 77.6275 107.618 76.4216C107.45 74.8056 107.672 74.0741 107.76 72.9942ZM127.883 72.2254C128.252 71.7426 128.784 71.4129 129.421 71.5992C131.414 72.1815 130.826 75.011 130.127 76.3875C129.747 77.1356 128.518 77.3252 127.962 76.6668C127.057 75.5934 126.624 73.4486 127.774 72.391C127.806 72.3363 127.841 72.2811 127.883 72.2254ZM110.043 65.3959L110.358 65.3408C111.331 65.1723 112.541 65.0105 113.23 65.7934C113.596 66.2086 113.721 66.9802 113.23 67.3776C112.367 68.0768 111.412 67.8059 110.377 67.8651C109.524 67.914 108.705 68.0552 107.883 68.2901C106.081 68.8054 104.612 69.746 103.073 70.779C102.872 70.9144 102.666 70.656 102.762 70.467C103.65 68.7261 105.372 67.296 107.096 66.4242C108.018 65.9589 109.024 65.5729 110.043 65.3959ZM126.067 64.616L126.308 64.6653C128.93 65.2133 132.335 66.3082 133.575 68.8836C133.623 69.2477 133.573 69.3258 133.533 69.3768L133.519 69.3938C133.485 69.4373 133.459 69.4973 133.301 69.5469C133.257 69.5364 133.213 69.5254 133.168 69.5136C132.599 69.3645 132.149 69.159 131.713 68.9458L131.241 68.713C130.692 68.4441 130.139 68.185 129.553 67.9937C128.303 67.5856 127.016 67.2981 125.71 67.1446C125.427 67.1114 125.154 67.0158 124.939 66.8519C124.735 66.6964 124.579 66.481 124.507 66.1948C124.415 65.8245 124.442 65.544 124.641 65.2099C124.79 64.9589 125.004 64.7849 125.249 64.685C125.499 64.5833 125.784 64.5592 126.067 64.616Z" fill="black"/>
<path fill-rule="evenodd" clip-rule="evenodd" d="M129.41 100.086C128.825 99.8947 128.251 99.6717 127.673 99.4567C124.722 97.9739 121.156 97.705 118.061 98.9537C116.542 99.567 115.125 100.668 113.601 101.39C113.239 101.525 112.874 101.648 112.505 101.751C112.279 101.672 112.053 101.588 111.827 101.504C110.21 100.895 108.69 100.143 107.213 99.3155C107.055 99.0934 106.892 98.8776 106.717 98.6705C107.785 98.519 108.832 98.2667 109.778 98.0065C112.684 97.2099 115.423 95.9128 118.319 95.0806C121.016 94.3047 123.943 93.8802 126.651 94.8442C127.936 95.3019 129.068 96.1032 130.318 96.6435C130.965 96.922 131.741 97.1949 132.497 97.2353C132.009 98.4039 131.393 99.4956 130.55 100.405C130.164 100.322 129.782 100.206 129.41 100.086ZM135.699 90.9321C135.44 91.1471 134.372 91.8413 134.025 92.2554C133.936 92.2213 133.847 92.1864 133.758 92.1507C133.606 91.9635 133.382 91.881 133.153 91.8865C131.556 91.1432 130.134 90.0928 128.865 88.7766C127.963 87.842 127.04 86.8646 125.835 86.3227C124.415 85.6825 123.019 85.9776 121.527 86.0752C119.94 86.1807 118.372 85.7293 116.787 85.9459C115.627 86.1054 114.541 86.5964 113.602 87.289C111.687 88.7028 110.366 90.6878 108.747 92.3998C106.91 94.3412 104.651 95.582 102.138 96.2159C102.108 96.196 102.076 96.1754 102.044 96.1572C100.192 94.4808 98.5196 92.5879 97.0392 90.5704C95.5945 88.6005 91.7848 79.7316 90.8645 78.9541C90.4821 78.6304 90.0632 78.4908 89.6626 78.5027C88.9367 78.5193 88.2663 79.0239 87.9664 79.8188C87.457 81.1707 87.7117 82.9177 87.7522 84.3314C87.8022 86.0617 87.9164 87.7904 88.0973 89.512C88.2766 91.2146 88.5146 92.9108 88.8113 94.5958C88.9605 95.4479 89.1263 96.2984 89.3087 97.1449C89.3659 97.4115 89.4381 97.6495 89.5253 97.8708C89.6142 98.2881 89.7094 98.7046 89.8117 99.1164C90.4789 101.818 91.5317 104.522 93.5413 106.516C95.6326 108.594 98.4759 109.973 101.115 111.208C103.63 112.384 106.264 113.428 108.968 114.246C111.316 115.311 113.831 116.153 116.355 116.596C119.133 117.083 122.055 117.114 124.738 116.147C126.058 115.673 127.305 115.01 128.436 114.186C130.04 113.352 131.483 112.208 132.665 110.691C134.781 107.975 135.791 104.679 136.233 101.279C136.347 100.409 136.772 97.0743 136.805 96.5546C136.913 94.8783 137.021 93.2019 137.129 91.5248C137.181 90.7338 136.209 90.5077 135.699 90.9321Z" fill="black"/>
</g>
<defs>
<clipPath id="clip0_1317_51720">
<rect width="194" height="196" fill="white"/>
</clipPath>
</defs>
</svg>
