<svg width="64" height="63" viewBox="0 0 64 63" fill="none" xmlns="http://www.w3.org/2000/svg">
<path d="M49.007 59.694L50.4807 59.0046L51.8847 58.2022C52.8207 57.6503 53.7234 57.0466 54.5883 56.394C56.3046 55.0426 57.8267 53.4728 59.1137 51.7265C60.3647 49.9415 61.342 47.9885 62.0146 45.9289C62.6653 43.8836 63.0321 41.7627 63.1053 39.6227C63.184 37.5053 63.0166 35.386 62.6064 33.3053C62.2194 31.2356 61.6288 29.207 60.8426 27.2477C60.0777 25.2879 59.1381 23.3971 58.0346 21.597C56.949 19.7932 55.7108 18.0808 54.333 16.4775L53.2771 15.2908L52.1168 14.1607C51.9311 13.9686 51.7455 13.7764 51.5482 13.6069L51.2001 13.2905L51.0608 13.1662L50.5271 12.6914C50.1674 12.3524 49.7729 12.0699 49.3667 11.7648C49.3667 11.7648 48.9374 11.4596 48.276 11.0189L47.4986 10.5555C47.703 10.521 47.8971 10.4434 48.0676 10.3283C48.2381 10.2132 48.3808 10.0633 48.4857 9.88907C48.5906 9.7148 48.6553 9.52034 48.6752 9.31924C48.6951 9.11814 48.6697 8.9153 48.6009 8.72472C48.5968 8.65136 48.5635 8.58239 48.5081 8.53254C47.3417 7.33871 46.085 6.23184 44.7485 5.22124C41.2981 2.56173 37.1868 0.838406 32.8317 0.226042C31.7399 0.0773052 30.6388 0.00177101 29.5363 0C28.4406 0.0263071 27.3476 0.120677 26.2642 0.282535C24.0963 0.595453 21.9836 1.20024 19.9866 2.07949C17.9918 2.93094 16.1067 4.00818 14.3706 5.28905C12.6385 6.5545 11.0443 7.98981 9.6131 9.57232C6.74049 12.7209 4.51493 16.377 3.05713 20.3425C1.5599 24.3199 0.858793 28.5398 0.991705 32.7741C0.991705 33.3052 1.06132 33.8251 1.09613 34.3563C1.13094 34.8874 1.16577 35.4073 1.2586 35.9271C1.44425 36.9669 1.54869 38.0066 1.83877 39.035C2.33003 41.1131 3.09033 43.122 4.10144 45.0135C6.13088 48.7655 8.96417 52.0491 12.4096 54.6422C15.8054 57.2152 19.6331 59.1959 23.723 60.4964C27.7983 61.8215 32.0749 62.4635 36.3708 62.3951C40.7281 62.3448 45.0286 61.4255 49.007 59.694ZM26.2525 58.2248C24.3125 57.6898 22.4191 57.0058 20.5901 56.1793C18.7759 55.3326 17.0404 54.3343 15.4033 53.1957C12.103 50.9611 9.33316 48.063 7.28082 44.697C6.27837 43.0299 5.4985 41.2449 4.96012 39.3853C4.68453 38.455 4.47516 37.5072 4.33352 36.5488C4.2523 36.0741 4.15945 35.5881 4.10144 35.1021L3.98543 33.6443C3.93137 33.1602 3.91196 32.673 3.92739 32.1864V30.7172L4.03182 29.2593V28.5247L4.13625 27.8014L4.35672 26.3549L4.68161 24.9196L4.84408 24.1963L5.05293 23.4956L5.48226 22.0942C6.77307 18.373 8.7729 14.9223 11.3769 11.923C12.0035 11.1545 12.7344 10.4877 13.4191 9.78705C14.1037 9.08636 14.8811 8.45342 15.7398 7.88835C17.2948 6.68141 18.9982 5.6678 20.8105 4.8709C22.5927 4.05225 24.4827 3.47794 26.4266 3.16438C28.3425 2.83287 30.2994 2.79095 32.2284 3.04008C36.1793 3.54825 39.9157 5.08672 43.0428 7.49283C43.7506 8.0353 44.4353 8.623 45.0967 9.21067C44.1778 8.73447 43.2092 8.35559 42.2074 8.08053L41.047 7.75274C40.7144 7.67864 40.3772 7.62584 40.0375 7.59458C39.6558 7.50863 39.2589 7.50863 38.8772 7.59458C38.7031 7.69629 38.7959 7.86581 39.2137 8.15965C39.6314 8.45348 40.374 8.81511 41.5344 9.48189C42.1958 9.84354 42.8804 10.3295 43.5766 10.7703C44.2728 11.211 44.8994 11.7309 45.4796 12.149L46.8488 13.2791L47.3709 13.7538L48.4269 14.6014L48.9374 15.0422L49.1927 15.2682L49.3087 15.3812L49.7148 15.7428C49.9005 15.9011 50.063 16.0932 50.2486 16.2627C53.0847 19.0686 55.4148 22.32 57.1411 25.8802C58.9017 29.4201 59.9457 33.2571 60.216 37.1816C60.2973 38.1536 60.216 39.1142 60.216 40.0748C60.1375 41.0341 60.0058 41.9885 59.8215 42.934C59.4546 44.8076 58.8014 46.6171 57.8837 48.3022C56.9498 49.9624 55.7776 51.4846 54.4027 52.8227C52.9694 54.143 51.3709 55.2821 49.6452 56.2132C46.1406 58.0899 42.2537 59.1897 38.2622 59.4341C34.2171 59.7244 30.1511 59.315 26.2525 58.2248Z" fill="#454242"/>
<path d="M42.5773 43.4089C42.7165 43.2394 42.8674 43.0699 42.9834 42.9004L43.3199 42.3692C43.5487 42.0052 43.7541 41.6278 43.9349 41.239C44.3301 40.402 44.5396 39.4932 44.5499 38.5719C44.5283 37.618 44.2695 36.6834 43.7957 35.8483C42.8935 34.4255 41.6565 33.2323 40.187 32.3675C38.3144 31.2475 36.3461 30.287 34.304 29.4969C34.6985 27.3345 35.151 25.1911 35.6616 23.0664C36.0213 23.2247 36.381 23.4054 36.7291 23.5976C37.9333 24.2698 38.9525 25.2159 39.6996 26.3551C39.7589 26.3998 39.8256 26.4343 39.8969 26.4569C40.1879 26.5939 40.5101 26.6565 40.8329 26.6387C41.1557 26.621 41.4685 26.5233 41.7418 26.3551C41.9156 26.1925 42.0512 25.9951 42.1393 25.7767C42.2275 25.5582 42.266 25.3237 42.2524 25.0894C42.2614 25.0499 42.2609 25.0089 42.2508 24.9697C42.2407 24.9304 42.2214 24.894 42.1944 24.8633C41.1971 23.3318 39.8359 22.0565 38.226 21.1452C37.6287 20.8035 37.0084 20.5014 36.3694 20.2411C36.6131 19.3257 36.8684 18.3989 37.1468 17.4948C37.5994 16.003 38.0867 14.5226 38.6437 13.0873C38.6574 13.0049 38.6574 12.921 38.6437 12.8386C37.9823 11.0191 36.6827 11.4599 36.0677 11.9345C35.9633 12.0023 35.9517 12.0249 35.9285 12.0927C35.3483 13.6071 34.8493 15.1441 34.3736 16.6811C34.1067 17.5739 33.863 18.4667 33.6194 19.3709C32.9231 19.2111 32.218 19.0903 31.5075 19.0092C31.6816 18.4215 31.8788 17.8791 32.0877 17.2575C32.2966 16.6359 32.6099 15.8335 32.9464 15.1555L33.4221 14.1383C33.5962 13.7993 33.7934 13.4828 33.9675 13.1551C33.9851 13.0769 33.9851 12.9959 33.9675 12.9177C33.5962 11.0304 32.285 11.2225 31.5772 11.6294C31.4611 11.6294 31.4495 11.6972 31.4147 11.765C31.2058 12.138 30.9854 12.4996 30.7997 12.8952L30.2775 14.0253C29.9217 14.7613 29.6079 15.5158 29.3377 16.2856C29.0128 17.1784 28.7343 18.0712 28.479 18.964C27.0018 19.0281 25.5617 19.4349 24.2786 20.1507C23.8441 20.4208 23.453 20.7521 23.1182 21.1339C22.7419 21.573 22.4757 22.0915 22.3408 22.6482C22.124 23.6833 22.3014 24.7599 22.8397 25.6771C23.258 26.4093 23.7772 27.0823 24.383 27.6774C24.6733 27.9826 24.9833 28.2695 25.3112 28.5363C25.6536 28.7997 26.0185 29.0341 26.402 29.2369C26.2047 30.7174 26.0423 32.1979 25.8798 33.6784L25.6478 35.9387L25.4969 39.8942C25.4969 40.0976 25.4969 40.301 25.4969 40.4932C24.3351 39.9235 23.2077 39.2896 22.1203 38.5945C20.4958 37.5661 19.0918 36.3343 19.1846 36.4812C18.4023 35.7604 17.5644 35.0992 16.6782 34.5034C16.4926 34.5034 16.423 34.6391 16.5622 35.1363C16.8777 36.0018 17.3492 36.8055 17.9546 37.5096C18.9932 38.8496 20.1887 40.0671 21.5169 41.1374C22.2078 41.7161 22.9323 42.2556 23.6868 42.7534C24.1045 43.0134 24.5454 43.2394 24.9864 43.4768L25.4273 43.7027C25.3109 44.7594 25.3935 45.828 25.671 46.8559C25.8798 47.1384 26.2975 46.5281 26.8313 44.4034C27.6203 44.7424 28.421 45.0702 29.2449 45.3528C29.1288 47.274 29.036 49.1274 29.094 48.9579C29.094 52.1901 29.4305 54.3148 30.6837 49.2518C30.9622 48.2459 31.2406 47.0932 31.4843 45.9969C32.8615 46.3321 34.2769 46.4953 35.6964 46.4829C37.4317 46.4592 39.1295 45.9873 40.6163 45.1154C41.3564 44.6484 42.0179 44.0729 42.5773 43.4089ZM26.6573 25.9483C26.4254 25.7326 26.2083 25.5022 26.0075 25.2588C25.9146 25.1458 25.8102 25.0328 25.7174 24.9085L25.4969 24.5695C25.2593 24.2377 25.1299 23.8438 25.1256 23.4393C25.1541 23.2819 25.2191 23.133 25.3156 23.0037C25.4121 22.8745 25.5376 22.7684 25.6826 22.6935C26.1454 22.3965 26.6608 22.1857 27.2026 22.0719L27.6784 21.9928C27.3651 23.3716 27.0982 24.7729 26.8661 26.163L26.6573 25.9483ZM29.8018 39.0579L29.5001 41.3181C29.5001 41.3181 29.5001 41.7702 29.4305 42.4483L28.6879 42.1658C28.363 42.0414 28.0613 41.8945 27.748 41.7476L27.5391 41.6572C27.7248 40.7983 27.8988 39.9507 28.0497 39.2048C28.3166 37.7469 28.5022 36.6846 28.5022 36.6846L28.7807 34.0627C28.9084 32.9325 29.036 31.7459 29.1868 30.6044L30.4864 31.1243L31.0202 31.3277C30.5677 33.8819 30.1731 36.4698 29.8018 39.0579ZM29.5814 27.6322C29.8831 25.677 30.2428 23.7445 30.7417 21.8459C31.445 21.9126 32.1428 22.0258 32.8303 22.1849C32.3314 24.2643 31.8904 26.3551 31.4843 28.4458C30.8693 28.1633 30.2196 27.9034 29.5814 27.6322ZM39.5488 42.324C38.6269 43.0675 37.5013 43.5312 36.3114 43.6575C34.8766 43.7662 33.4333 43.6402 32.0413 43.2846C32.2038 42.55 32.2966 42.0866 32.2966 42.0866L32.6447 39.476C32.985 37.1253 33.3486 34.7822 33.7354 32.4466C35.2344 33.0431 36.6885 33.7418 38.0867 34.5373C39.1873 35.1308 40.1604 35.9251 40.9528 36.8767C41.2668 37.2565 41.4763 37.7078 41.5616 38.1883C41.6469 38.6688 41.6051 39.1625 41.4402 39.6229L41.3125 39.9959C41.2545 40.1202 41.1733 40.2558 41.1153 40.3801C40.9846 40.6471 40.8333 40.904 40.6627 41.1487C40.3549 41.6099 39.9797 42.0249 39.5488 42.3805V42.324Z" fill="#454242"/>
</svg>
