<svg width="75" height="58" viewBox="0 0 75 58" fill="none" xmlns="http://www.w3.org/2000/svg">
<path d="M58.1933 12.3183C58.1512 12.3157 58.1117 12.2962 58.0829 12.2638C58.054 12.2314 58.038 12.1885 58.0381 12.1441C58.0381 11.8994 58.0413 11.6543 58.0474 11.4091C58.069 10.5474 58.1262 9.68374 58.204 8.82761C58.2191 8.66187 58.2349 8.49641 58.2514 8.33131C58.2584 8.28788 58.2798 8.24851 58.3118 8.22031C58.3438 8.19211 58.3843 8.17695 58.426 8.17757C58.4688 8.1851 58.5074 8.20923 58.5343 8.24523C58.5612 8.28124 58.5744 8.32654 58.5714 8.37231C58.5611 8.46801 58.5513 8.56375 58.5418 8.65953C58.4592 9.49266 58.4043 10.3285 58.3771 11.1656C58.3666 11.4916 58.3602 11.8178 58.3581 12.1441C58.3581 12.1903 58.3407 12.2346 58.3098 12.2673C58.2789 12.2999 58.237 12.3183 58.1933 12.3183Z" fill="#454242"/>
<path d="M61.6515 9.75562C61.6095 9.753 61.57 9.7335 61.5411 9.7011C61.5123 9.66871 61.4963 9.62587 61.4963 9.58138L61.513 8.84808L61.5514 7.15953L61.5642 6.59882C61.5688 6.55524 61.5879 6.5148 61.6181 6.48475C61.6483 6.4547 61.6876 6.437 61.729 6.43483C61.771 6.43745 61.8106 6.45696 61.8394 6.48936C61.8683 6.52175 61.8843 6.56459 61.8842 6.60907L61.8754 6.99784L61.8387 8.60726L61.8163 9.59163C61.8139 9.63604 61.7954 9.67777 61.7647 9.70826C61.7341 9.73875 61.6936 9.7557 61.6515 9.75562Z" fill="#454242"/>
<path d="M22.1739 25.3043C38.1631 17.6481 54.288 9.72532 70.1609 1.73084L1.81168 15.5162L1.87938 15.5548C5.5467 17.6446 16.5753 23.9292 22.1739 25.3043Z" fill="#454242"/>
<path fill-rule="evenodd" clip-rule="evenodd" d="M43.4979 57.5999L43.5036 57.6H43.4961L43.4979 57.5999ZM31.6817 38.1773L31.3221 38.3856L31.0799 37.9954L30.7992 37.5431L31.226 37.2958C31.2806 37.2638 31.3406 37.2437 31.4026 37.2367C31.4647 37.2297 31.5274 37.2359 31.587 37.255C31.6467 37.2741 31.7022 37.3058 31.7502 37.348C31.7981 37.3902 31.8374 37.4422 31.866 37.5008C31.898 37.5575 31.9187 37.6205 31.9268 37.6859C31.9348 37.7514 31.9301 37.8179 31.9128 37.8813C31.8955 37.9447 31.8661 38.0037 31.8263 38.0547C31.8063 38.0802 31.784 38.1035 31.7596 38.1242C31.7355 38.1446 31.7094 38.1624 31.6817 38.1773ZM23.1639 41.9662L30.7992 37.5431L28.7609 34.2592L29.0267 33.8933C29.1038 33.7873 29.138 33.6532 29.1216 33.5206C29.1053 33.3879 29.0397 33.2676 28.9394 33.1861C28.8551 33.1175 28.752 33.0811 28.6468 33.0815C28.7853 32.979 29.2298 32.6516 29.9309 32.1353C29.9494 32.1443 29.9694 32.1497 29.9901 32.151C30.0112 32.1524 30.0325 32.1492 30.0524 32.1416C30.0724 32.134 30.0907 32.1221 30.1061 32.1067C30.1216 32.0914 30.1338 32.0728 30.1422 32.0522C30.1506 32.0316 30.1549 32.0094 30.1549 31.987L30.1551 31.9703L33.379 29.5966L33.3837 29.6704C33.3779 29.6939 33.3779 29.7186 33.3837 29.7421C33.3926 29.7746 33.4121 29.8026 33.4387 29.8214C33.4653 29.8401 33.4973 29.8484 33.5291 29.8446L33.6067 29.8343C33.6252 29.8287 33.6424 29.819 33.6571 29.8058C33.6718 29.7926 33.6837 29.7763 33.6919 29.7578C33.7002 29.7394 33.7047 29.7193 33.705 29.6989C33.7054 29.6786 33.7016 29.6583 33.6939 29.6396L33.6783 29.3762L36.9735 26.9496C37.0062 26.9404 37.0357 26.9206 37.0576 26.8928C37.0587 26.8915 37.0597 26.8902 37.0607 26.8888L37.0657 26.8817C39.228 25.2892 41.6944 23.4722 44.3309 21.5289L44.3169 21.9429C44.3156 21.9652 44.3186 21.9877 44.3258 22.0088C44.333 22.0299 44.3442 22.0492 44.3588 22.0655C44.3733 22.0818 44.3909 22.0948 44.4103 22.1037C44.4298 22.1126 44.4508 22.1171 44.4721 22.1171C44.5126 22.1174 44.5518 22.1019 44.5823 22.0735C44.6127 22.0452 44.6321 22.0059 44.6369 21.9634L44.6597 21.2866L47.5574 19.1504L47.545 19.339C47.5436 19.3606 47.5464 19.3822 47.553 19.4026C47.5596 19.423 47.57 19.4419 47.5835 19.4581C47.597 19.4743 47.6134 19.4875 47.6317 19.4969C47.6501 19.5064 47.67 19.512 47.6904 19.5133C47.7141 19.5166 47.7382 19.5142 47.7608 19.5061C47.7834 19.4981 47.804 19.4846 47.8209 19.4667C47.8378 19.4488 47.8506 19.4271 47.8582 19.4032C47.8658 19.3793 47.8682 19.3538 47.865 19.3288L47.8931 18.9028L51.1722 16.4843L51.1152 17.3508C51.1138 17.3723 51.1166 17.3939 51.1232 17.4144C51.1298 17.4348 51.1402 17.4537 51.1537 17.4698C51.1672 17.486 51.1836 17.4992 51.2019 17.5087C51.2203 17.5182 51.2402 17.5237 51.2606 17.525C51.2818 17.5279 51.3033 17.5261 51.3237 17.5198C51.3442 17.5135 51.3632 17.5028 51.3796 17.4883C51.396 17.4739 51.4093 17.4561 51.4189 17.4359C51.4284 17.4158 51.434 17.3938 51.4352 17.3713L51.5101 16.235C52.5849 15.442 53.6674 14.6432 54.7503 13.8438L54.7159 14.8087C54.7131 14.8306 54.7148 14.8528 54.7208 14.8739C54.7269 14.895 54.7372 14.9144 54.751 14.931C54.7648 14.9475 54.7818 14.9607 54.8008 14.9697C54.8176 14.9776 54.8357 14.9821 54.8541 14.9829C43.2086 23.5801 31.7118 32.0386 29.4946 33.6678L43.4476 56.1343L72.2747 2.08957C67.4016 5.71121 61.197 10.3001 55.0219 14.859C55.0257 14.8426 55.0272 14.8257 55.0262 14.8087L55.0716 13.6067C56.0657 12.8727 57.0596 12.1388 58.0474 11.4091C58.0413 11.6543 58.0381 11.8994 58.0381 12.1441C58.038 12.1885 58.054 12.2314 58.0829 12.2638C58.1117 12.2962 58.1512 12.3157 58.1933 12.3183C58.237 12.3183 58.2789 12.2999 58.3098 12.2673C58.3407 12.2346 58.3581 12.1903 58.3581 12.1441C58.3602 11.8178 58.3666 11.4916 58.3771 11.1656C59.4323 10.3861 60.4799 9.61187 61.513 8.84808L61.4963 9.58138C61.4963 9.62587 61.5123 9.66871 61.5411 9.7011C61.57 9.7335 61.6095 9.753 61.6515 9.75562C61.6936 9.7557 61.7341 9.73875 61.7647 9.70826C61.7954 9.67777 61.8139 9.63604 61.8163 9.59163L61.8387 8.60726C64.1574 6.89287 66.3987 5.23392 68.4835 3.68846C66.2839 4.79344 64.0809 5.89672 61.8754 6.99784L61.8842 6.60907C61.8843 6.56459 61.8683 6.52175 61.8394 6.48936C61.8106 6.45696 61.771 6.43745 61.729 6.43483C61.6876 6.437 61.6483 6.4547 61.6181 6.48475C61.5879 6.5148 61.5688 6.55524 61.5642 6.59882L61.5514 7.15953C60.5487 7.65999 59.5455 8.16001 58.5418 8.65953C58.5513 8.56375 58.5611 8.46801 58.5714 8.37231C58.5744 8.32654 58.5612 8.28124 58.5343 8.24523C58.5074 8.20923 58.4688 8.1851 58.426 8.17757C58.3843 8.17695 58.3438 8.19211 58.3118 8.22031C58.2798 8.24851 58.2584 8.28788 58.2514 8.33131C58.2349 8.49641 58.2191 8.66187 58.204 8.82761C57.2016 9.32634 56.1987 9.82457 55.1956 10.3223L55.2007 10.1863C55.2067 10.1606 55.2072 10.1338 55.2019 10.108C55.1967 10.0821 55.1859 10.0578 55.1705 10.037C55.1551 10.0162 55.1354 9.99931 55.1129 9.98772C55.0904 9.97613 55.0657 9.9701 55.0407 9.9701C55.0157 9.9701 54.991 9.97613 54.9685 9.98772C54.946 9.99931 54.9263 10.0162 54.9109 10.037C54.8955 10.0578 54.8847 10.0821 54.8795 10.108C54.8743 10.1338 54.8747 10.1606 54.8807 10.1863L54.8701 10.4837C53.8433 10.9929 52.8162 11.5016 51.7888 12.0097L51.8036 11.7854C51.8064 11.7408 51.7928 11.6968 51.7657 11.6624C51.7387 11.6281 51.7002 11.6061 51.6582 11.6009C51.637 11.5981 51.6155 11.5999 51.5951 11.6062C51.5746 11.6125 51.5556 11.6232 51.5393 11.6376C51.5229 11.652 51.5095 11.6699 51.4999 11.69C51.4903 11.7101 51.4848 11.7322 51.4836 11.7547L51.456 12.1742C50.3745 12.7088 49.2928 13.2428 48.2108 13.776C48.206 13.7659 48.2002 13.7563 48.1936 13.7473C48.1782 13.7265 48.1584 13.7096 48.1359 13.698C48.1134 13.6865 48.0888 13.6804 48.0637 13.6804C48.0387 13.6804 48.014 13.6865 47.9915 13.698C47.969 13.7096 47.9493 13.7265 47.9339 13.7473C47.9185 13.7681 47.9078 13.7924 47.9025 13.8183C47.8973 13.8442 47.8977 13.8709 47.9037 13.8966L47.9016 13.9283C46.8871 14.4281 45.8725 14.9273 44.8578 15.4257L44.8793 14.7888C44.8806 14.7664 44.8776 14.744 44.8704 14.7229C44.8632 14.7018 44.852 14.6825 44.8374 14.6662C44.8229 14.6498 44.8053 14.6368 44.7858 14.628C44.7664 14.6191 44.7454 14.6145 44.7242 14.6146C44.7038 14.6132 44.6833 14.6161 44.664 14.6231C44.6447 14.63 44.6269 14.641 44.6116 14.6553C44.5962 14.6695 44.5837 14.6869 44.5747 14.7063C44.5658 14.7257 44.5606 14.7468 44.5594 14.7683L44.5317 15.5859C43.2063 16.2368 41.8808 16.8864 40.5553 17.5348L40.5581 17.4018C40.5594 17.3794 40.5564 17.357 40.5492 17.3359C40.542 17.3148 40.5308 17.2955 40.5162 17.2792C40.5017 17.2629 40.4841 17.2499 40.4647 17.241C40.4452 17.2321 40.4242 17.2276 40.4029 17.2276C40.3618 17.2276 40.3224 17.2449 40.2933 17.2756C40.2642 17.3064 40.2478 17.3481 40.2478 17.3916L40.2391 17.6894C39.0746 18.2589 37.9102 18.8274 36.746 19.3947C36.7458 19.2532 36.7459 19.1117 36.7465 18.9701C36.7465 18.9266 36.7301 18.8849 36.701 18.8541C36.6719 18.8234 36.6324 18.8061 36.5913 18.8061C36.5492 18.806 36.5087 18.823 36.478 18.8535C36.4474 18.884 36.429 18.9257 36.4265 18.9701C36.4258 19.1636 36.4257 19.357 36.4264 19.5505C35.4314 20.0352 34.4365 20.5192 33.4418 21.0024L33.4418 20.9482C33.4419 20.9037 33.4259 20.8608 33.397 20.8284C33.3682 20.796 33.3287 20.7765 33.2867 20.7739C33.2447 20.7765 33.2052 20.796 33.1763 20.8284C33.1475 20.8608 33.1315 20.9037 33.1315 20.9482L33.1304 21.1537C32.0761 21.6656 31.022 22.1766 29.9684 22.6867L29.961 22.5474C29.9585 22.5029 29.94 22.4612 29.9094 22.4307C29.8788 22.4002 29.8382 22.3833 29.7961 22.3834C29.7533 22.3884 29.7137 22.4101 29.6851 22.4441C29.6565 22.4782 29.6407 22.5223 29.641 22.5678L29.6573 22.8372C28.5621 23.3672 27.4673 23.8961 26.373 24.4239L26.371 24.269C26.3685 24.2246 26.35 24.1828 26.3194 24.1523C26.2887 24.1219 26.2482 24.1049 26.2061 24.105C26.165 24.105 26.1255 24.1223 26.0965 24.153C26.0674 24.1838 26.051 24.2255 26.051 24.269L26.056 24.5767L25.635 24.7798L25.633 24.7807C24.9729 25.099 24.3132 25.4171 23.6534 25.7345C23.6381 25.7202 23.6203 25.7092 23.601 25.7022C23.5817 25.6953 23.5612 25.6924 23.5408 25.6938C23.4988 25.6964 23.4593 25.7159 23.4305 25.7483C23.4028 25.7793 23.387 25.82 23.3858 25.8624L22.4357 26.319C22.3376 26.3495 22.2333 26.3495 22.1351 26.319L22.1292 26.3176C22.1081 26.2782 22.082 26.242 22.0516 26.2099C22.0075 26.1632 21.9552 26.1262 21.8975 26.101C21.8399 26.0758 21.7781 26.0628 21.7157 26.0628C21.6679 26.0628 21.6205 26.0705 21.5752 26.0857C21.5617 26.0902 21.5484 26.0954 21.5353 26.1012C21.508 26.1133 21.482 26.1281 21.4575 26.1454C21.5981 26.1844 21.736 26.221 21.8712 26.2551L22.2341 36.1303L22.4255 41.3399L23.6835 39.6048C23.7114 39.6294 23.7466 39.6431 23.7832 39.6431C23.8253 39.6432 23.8658 39.6263 23.8965 39.5958C23.9271 39.5653 23.9456 39.5235 23.9481 39.4791L23.9511 39.2358L28.2704 33.2783C28.3475 33.1723 28.4613 33.103 28.5868 33.0857C28.6068 33.083 28.6268 33.0816 28.6468 33.0815L28.6026 33.1143C28.5514 33.1504 28.5075 33.1969 28.4734 33.2511C28.4393 33.3052 28.4157 33.366 28.4039 33.4299C28.3922 33.4937 28.3926 33.5594 28.4051 33.6231C28.4175 33.6868 28.4418 33.7473 28.4765 33.801L28.7609 34.2592L23.1639 41.9662ZM23.1639 41.9662L22.5361 42.8307L22.1714 43.3329C22.1291 43.3932 22.0742 43.4422 22.0109 43.476L21.9994 43.4677L21.9829 43.455C21.8987 43.387 21.8384 43.2911 21.8116 43.1827C21.7849 43.0744 21.7932 42.9596 21.8352 42.8568C21.8773 42.754 21.9506 42.6689 22.0436 42.6152L22.4634 42.372L23.1639 41.9662ZM23.9511 39.2358L23.6835 39.6048L23.679 39.6006L23.6735 39.5951C23.6444 39.5643 23.6281 39.5226 23.6281 39.4791C23.6863 34.9592 23.6281 30.3777 23.3857 25.868L23.3858 25.8624L23.6534 25.7345C23.6687 25.7487 23.6813 25.7661 23.6902 25.7855C23.6992 25.8049 23.7044 25.826 23.7057 25.8475C23.9247 30.2865 24.0034 34.7849 23.9511 39.2358ZM26.056 24.5767L26.2352 35.5637C26.2377 35.6082 26.2561 35.6499 26.2868 35.6804C26.3174 35.7109 26.358 35.7278 26.4001 35.7277L26.3613 35.7072C26.4024 35.7072 26.4419 35.69 26.471 35.6592C26.5001 35.6284 26.5164 35.5867 26.5164 35.5432L26.373 24.4239L26.056 24.5767ZM29.6573 22.8372C29.8349 25.8661 29.8349 28.9407 29.8349 31.9767C29.8349 32.0212 29.8509 32.0641 29.8797 32.0965C29.8944 32.1129 29.9118 32.1261 29.9309 32.1353L30.1551 31.9703C30.1928 28.8865 30.1276 25.7141 29.9684 22.6867L29.6573 22.8372ZM33.1304 21.1537L33.4418 21.0024C33.4428 23.7869 33.5158 26.5996 33.6783 29.3762L33.379 29.5966C33.2023 26.7984 33.1165 23.9624 33.1304 21.1537ZM36.4264 19.5505L36.746 19.3947C36.7498 21.8575 36.8664 24.3188 37.0955 26.7698C37.098 26.8098 37.0874 26.8492 37.0657 26.8817L36.9735 26.9496C36.9658 26.9518 36.958 26.9534 36.9501 26.9543H36.9403C36.8998 26.9546 36.8606 26.9391 36.8302 26.9108C36.7997 26.8824 36.7803 26.8432 36.7755 26.8006C36.5512 24.3909 36.4347 21.9715 36.4264 19.5505ZM40.2391 17.6894C40.1801 19.8168 40.183 21.9702 40.2478 24.1049C40.2503 24.1493 40.2687 24.191 40.2994 24.2215C40.3282 24.2502 40.3658 24.2669 40.4053 24.2687C40.4464 24.2656 40.485 24.2462 40.5133 24.2144C40.5422 24.182 40.5582 24.1391 40.5581 24.0947C40.5581 23.354 40.5527 22.61 40.5474 21.8652C40.5369 20.4182 40.5264 18.9682 40.5553 17.5348L40.2391 17.6894ZM44.5317 15.5859L44.3309 21.5289L44.6597 21.2866L44.8578 15.4257L44.5317 15.5859ZM47.9016 13.9283L47.5574 19.1504L47.8931 18.9028L48.2237 13.8966C48.2297 13.8709 48.2302 13.8442 48.2249 13.8183C48.222 13.8036 48.2172 13.7893 48.2108 13.776L47.9016 13.9283ZM51.456 12.1742L51.7888 12.0097L51.5101 16.235L51.1722 16.4843L51.456 12.1742ZM54.8701 10.4837L54.7503 13.8438L55.0716 13.6067L55.1956 10.3223L54.8701 10.4837Z" fill="#454242"/>
</svg>
