<svg width="40" height="28" viewBox="0 0 40 28" fill="none" xmlns="http://www.w3.org/2000/svg">
<path d="M21.2156 11.4179C21.2329 11.4688 21.249 11.521 21.2669 11.5708V11.5712C21.6525 12.6836 22.306 13.6817 23.1692 14.4758C23.4353 14.7188 23.7182 14.942 24.0164 15.1437C24.0654 15.1773 24.1125 15.2128 24.1622 15.2456C24.212 15.2785 24.2369 15.3001 24.2763 15.3252H24.2759C24.5397 15.4882 24.8127 15.6354 25.0933 15.7667C25.1867 15.8107 25.2854 15.847 25.3815 15.888C25.6273 15.9934 25.8784 16.0877 26.1353 16.1699C26.2536 16.2082 26.3704 16.246 26.4914 16.2789H26.491C26.8458 16.3778 27.2065 16.4554 27.571 16.5106C27.5897 16.5106 27.607 16.5191 27.6257 16.5218C27.6445 16.5245 27.6858 16.5218 27.7115 16.5218C28.7995 16.6713 29.9055 16.6215 30.9762 16.3739C30.7262 17.2464 30.3104 18.0614 29.7523 18.774C29.152 19.5717 27.5177 21.4442 25.2476 21.581V21.5806C24.6094 21.6188 24.096 22.124 24.042 22.7672L23.7204 26.5907V26.5903C23.6887 26.9712 23.8246 27.3466 24.0922 27.617C24.3602 27.8874 24.7323 28.0249 25.1097 27.9928C30.5336 27.5378 38.6509 23.0696 39.7828 15.869C40.527 11.1312 39.323 6.07898 36.7164 2.99864H36.716C35.3899 1.33734 33.4639 0.275946 31.3618 0.04842H31.3461C31.1103 0.0260181 30.8729 0.007864 30.631 0.007864V0.00747681C27.6181 -0.109173 24.7121 1.14382 22.7134 3.42155C21.1208 5.32382 20.4623 7.84915 20.9214 10.2958C20.9922 10.6766 21.0906 11.0517 21.2154 11.4179L21.2156 11.4179ZM34.7646 4.69008C36.8705 7.17833 37.8682 11.5098 37.2465 15.4681C36.4318 20.6517 30.8031 24.1998 26.4269 25.1739L26.5218 24.0198C29.674 23.3121 32.118 20.5388 33.1413 18.0204C33.7905 16.4213 33.7561 15.1031 33.0452 14.307C32.7481 13.9895 32.3634 13.7689 31.9407 13.6747C31.518 13.58 31.077 13.616 30.6747 13.7774C30.3684 13.8639 30.0556 13.9257 29.739 13.9617C29.7253 13.9617 29.7134 13.9539 29.6996 13.952C28.7862 13.8222 25.7592 13.1447 25.17 9.84379L25.1704 9.84418C24.8714 8.23894 25.2638 6.5811 26.2492 5.28526C27.5087 3.73758 29.3489 2.78693 31.3301 2.66106C32.6868 2.87736 33.9134 3.60197 34.7644 4.6901L34.7646 4.69008ZM0.142956 10.3008V10.3012C0.212631 10.6801 0.309097 11.0532 0.431984 11.4178C0.449211 11.4688 0.46529 11.5198 0.483284 11.57L0.483665 11.5704C0.992439 13.0328 1.95871 14.2885 3.23697 15.1479C3.28406 15.18 3.32962 15.2144 3.37862 15.2457C3.42762 15.277 3.45327 15.3009 3.49347 15.326V15.3264C3.75762 15.4902 4.03096 15.6381 4.31234 15.769C4.40307 15.8123 4.49915 15.8471 4.59257 15.8868C4.84217 15.9942 5.09599 16.0892 5.35669 16.1723C5.47231 16.2094 5.58639 16.2476 5.70583 16.2804C6.06186 16.3797 6.42324 16.457 6.78808 16.5126C6.80684 16.5126 6.82407 16.5211 6.84283 16.5238C6.86158 16.5265 6.90216 16.5238 6.92858 16.5238C8.01691 16.674 9.12337 16.6242 10.1941 16.3766C9.94559 17.2492 9.53024 18.0645 8.97126 18.7768C8.37099 19.5744 6.73561 21.447 4.46575 21.5837V21.5833C3.82949 21.6239 3.31881 22.1287 3.26521 22.7695L2.94364 26.593C2.91187 26.9735 3.04777 27.3489 3.31537 27.6193C3.58297 27.8893 3.95469 28.0272 4.33215 27.9955C9.75606 27.5405 17.8733 23.0723 19.0042 15.8717C19.7485 11.1339 18.5456 6.0817 15.9386 3.00135C14.6129 1.34005 12.6868 0.278656 10.5852 0.0507336H10.5714C10.3348 0.0283318 10.0982 0.0101776 9.85626 0.0101776C6.84344 -0.106857 3.93774 1.14573 1.93945 3.42356C0.343853 5.32544 -0.3162 7.85234 0.142849 10.3012L0.142956 10.3008ZM13.982 4.69008C16.0879 7.17833 17.0844 11.5098 16.4627 15.4681C15.6488 20.6517 10.0193 24.1998 5.6431 25.1739L5.73996 24.0198C8.89292 23.3121 11.3368 20.5388 12.3594 18.0204C13.0094 16.4213 12.975 15.1031 12.2652 14.307C11.9674 13.9899 11.5827 13.7701 11.16 13.6758C10.7374 13.5812 10.2968 13.6167 9.89403 13.7774C9.58777 13.8639 9.27501 13.9257 8.95879 13.9617C8.94501 13.9617 8.93314 13.9539 8.91859 13.952C8.00517 13.8222 4.97895 13.1447 4.39015 9.84378L4.38976 9.84417C4.09039 8.23893 4.48279 6.58109 5.46859 5.28526C6.72773 3.73717 8.56833 2.78653 10.5495 2.66105C11.9058 2.87812 13.1313 3.60235 13.9818 4.69009L13.982 4.69008Z" fill="#0F143A" fill-opacity="0.4"/>
</svg>
