<svg width="32" height="38" viewBox="0 0 32 38" fill="none" xmlns="http://www.w3.org/2000/svg">
<path d="M22.8527 3.17719C22.5166 3.32117 22.2286 3.60911 22.0368 3.99315L20.0208 10.2332L17.8126 5.43323L17.3325 5.7694C10.9487 10.3293 7.68447 18.6334 9.07682 26.9854L1.01265 37.1134C0.868671 37.3053 0.868672 37.6414 1.10874 37.7854C1.20483 37.8333 1.30059 37.8815 1.39669 37.8815C1.54066 37.8815 1.68464 37.8336 1.78073 37.6896L9.84456 27.5616C19.7806 26.9375 27.8446 19.6896 29.4766 9.84962L31.1085 0.0576172L22.8527 3.17719ZM28.5166 9.7052C26.9807 18.8252 19.7326 25.5932 10.6606 26.5532L17.4287 18.0092C17.5726 17.8173 17.5726 17.4812 17.3326 17.3372C17.1407 17.1932 16.8045 17.1932 16.6606 17.4333L9.89283 25.9291C8.93292 18.4411 11.8609 11.1451 17.429 6.92105L20.1648 12.8731L22.901 4.28113C22.9489 4.18504 23.045 4.08928 23.1411 4.04106L29.8609 1.54498L28.5166 9.7052Z" fill="#343434"/>
</svg>
