<svg width="28" height="28" viewBox="0 0 28 28" fill="none" xmlns="http://www.w3.org/2000/svg">
<path d="M7.94375 5.6001C6.65376 5.6001 5.59961 6.65424 5.59961 7.94424C5.59961 9.23437 6.65376 10.2885 7.94375 10.2885C9.23389 10.2885 10.288 9.23437 10.288 7.94424C10.288 6.65424 9.23389 5.6001 7.94375 5.6001ZM7.94375 6.38142C8.81148 6.38142 9.50657 7.07651 9.50657 7.94424C9.50657 8.81197 8.81148 9.50706 7.94375 9.50706C7.07602 9.50706 6.38093 8.81197 6.38093 7.94424C6.38093 7.07651 7.07602 6.38142 7.94375 6.38142ZM6.34434 11.0699C6.15221 11.088 5.98936 11.2676 5.9902 11.4605V22.0093C5.9902 22.2139 6.17634 22.4 6.38086 22.4H9.70175C9.90628 22.4 10.0924 22.2139 10.0924 22.0093V11.4605C10.0924 11.256 9.90627 11.0699 9.70175 11.0699H6.34434ZM6.77166 11.8512H9.31123V18.493H9.07931C8.87477 18.5026 8.69723 18.6974 8.70689 18.9021C8.71629 19.1068 8.91128 19.2842 9.11583 19.2745H9.31123V20.0559H9.07931C8.87478 20.0654 8.69723 20.2602 8.70689 20.4649C8.7163 20.6696 8.91129 20.847 9.11584 20.8373H9.31124V21.6187H6.77168L6.77166 11.8512Z" fill="#001636" fill-opacity="0.92"/>
<path d="M6.77166 11.8512H9.31123V18.493H9.07931C8.87477 18.5026 8.69723 18.6974 8.70689 18.9021C8.71629 19.1068 8.91128 19.2842 9.11583 19.2745H9.31123V20.0559H9.07931C8.87478 20.0654 8.69723 20.2602 8.70689 20.4649C8.7163 20.6696 8.91129 20.847 9.11584 20.8373H9.31124V21.6187H6.77168L6.77166 11.8512Z" fill="#001636" fill-opacity="0.92"/>
<path fill-rule="evenodd" clip-rule="evenodd" d="M18.1019 10.6791C16.8526 10.6791 16.0035 11.2102 15.3671 11.8207V11.4606C15.3671 11.256 15.1809 11.0699 14.9764 11.0699H11.8508C11.6462 11.0699 11.4601 11.256 11.4601 11.4606V22.0094C11.4601 22.2139 11.6462 22.4 11.8508 22.4H15.1716C15.3762 22.4 15.5623 22.2139 15.5623 22.0094V16.1489C15.5623 15.6544 15.7182 15.1858 15.9468 14.867C16.1757 14.5481 16.4522 14.3909 16.7344 14.3909H17.1251C17.4073 14.3909 17.6838 14.5481 17.9125 14.867C18.1415 15.1859 18.2972 15.6546 18.2972 16.1491V22.0095C18.2972 22.214 18.4833 22.4002 18.6879 22.4002H22.0088C22.2133 22.4002 22.3994 22.214 22.3994 22.0095V19.8606L22.3996 15.1723C22.3996 13.8699 22.1554 12.7392 21.4595 11.9246C20.7635 11.11 19.6445 10.6791 18.1019 10.6791ZM21.6181 21.6187V19.8606L21.6181 15.1723C21.6181 13.9701 21.3827 13.0417 20.8612 12.4312C20.3397 11.8209 19.5033 11.4606 18.102 11.4606C16.6365 11.4606 15.9376 12.2545 15.2816 13.0722C15.1813 13.1979 14.9987 13.2502 14.847 13.1969C14.6954 13.1438 14.5855 12.9887 14.5857 12.828V11.8513H12.2415V21.6187H14.7811V20.8374H14.5857C14.381 20.847 14.1862 20.6696 14.1767 20.465C14.1671 20.2603 14.3446 20.0654 14.5492 20.0559H14.7811V19.2746H14.5857C14.381 19.2842 14.1861 19.1068 14.1766 18.9023C14.1669 18.6976 14.3445 18.5027 14.549 18.4932H14.7809V16.1491C14.7809 15.4964 14.9759 14.884 15.3122 14.4154C15.6484 13.9466 16.1509 13.6095 16.7345 13.6095H17.1252C17.7087 13.6095 18.2113 13.9466 18.5475 14.4152C18.8837 14.884 19.0787 15.4964 19.0785 16.1489V21.6187H21.6181Z" fill="#001636" fill-opacity="0.92"/>
<path d="M21.6181 19.8606V21.6187H19.0785V16.1489C19.0787 15.4964 18.8837 14.884 18.5475 14.4152C18.2113 13.9466 17.7087 13.6095 17.1252 13.6095H16.7345C16.1509 13.6095 15.6484 13.9466 15.3122 14.4154C14.9759 14.884 14.7809 15.4964 14.7809 16.1491V18.4932H14.549C14.3445 18.5027 14.1669 18.6976 14.1766 18.9023C14.1861 19.1068 14.381 19.2842 14.5857 19.2746H14.7811V20.0559H14.5492C14.3446 20.0654 14.1671 20.2603 14.1767 20.465C14.1862 20.6696 14.381 20.847 14.5857 20.8374H14.7811V21.6187H12.2415V11.8513H14.5857V12.828C14.5855 12.9887 14.6954 13.1438 14.847 13.1969C14.9987 13.2502 15.1813 13.1979 15.2816 13.0722C15.9376 12.2545 16.6365 11.4606 18.102 11.4606C19.5033 11.4606 20.3397 11.8209 20.8612 12.4312C21.3827 13.0417 21.6181 13.9701 21.6181 15.1723L21.6181 19.8606Z" fill="#001636" fill-opacity="0.92"/>
<path d="M7.94375 6.38142C8.81148 6.38142 9.50657 7.07651 9.50657 7.94424C9.50657 8.81197 8.81148 9.50706 7.94375 9.50706C7.07602 9.50706 6.38093 8.81197 6.38093 7.94424C6.38093 7.07651 7.07602 6.38142 7.94375 6.38142Z" fill="#001636" fill-opacity="0.92"/>
</svg>
