<svg width="56" height="64" viewBox="0 0 56 64" fill="none" xmlns="http://www.w3.org/2000/svg">
<path d="M35.6851 23.2547C33.8412 15.9178 32.8047 8.39322 32.5948 0.820959C32.5892 0.669547 32.5413 0.522941 32.4568 0.398485C32.3723 0.274028 32.2547 0.176921 32.1179 0.118643C31.9812 0.0603659 31.8309 0.0433662 31.685 0.0696336C31.5391 0.0959011 31.4036 0.164342 31.2945 0.266877C26.4836 5.61266 23.4626 12.2351 20.5197 18.7599L21.1828 18.3699L4.5438 16.5968C3.04416 16.4372 1.01576 15.6526 0.768706 17.7936C0.543327 19.7395 2.39403 21.8318 3.30421 23.3477C4.73017 25.7281 6.33817 28.0729 7.63843 30.5464C7.75112 30.7414 7.86813 30.932 7.98082 31.1226C8.20163 31.3864 8.3269 31.7199 8.33558 32.067C8.34426 32.4141 8.23583 32.7537 8.02851 33.0287C7.78372 33.6255 7.4939 34.202 7.16166 34.753C6.59388 35.9143 6.04343 37.0845 5.51899 38.2681C3.38949 43.0757 1.63164 48.0466 0.261598 53.1352C0.226556 53.2852 0.234758 53.4423 0.285208 53.5876C0.335658 53.7329 0.426197 53.8602 0.545871 53.9539C0.665545 54.0477 0.809227 54.1041 0.959538 54.1161C1.10985 54.1281 1.26035 54.0953 1.39283 54.0217C4.71861 52.5442 8.04151 51.074 11.3615 49.6112C12.8915 48.9375 14.4215 48.2548 16.0078 47.7362C16.983 47.4171 17.8628 47.0492 18.8293 47.6564C19.5683 48.2086 20.2612 48.8224 20.9011 49.4915L36.3872 63.4766C36.5078 63.6014 36.6654 63.6818 36.8353 63.7053C37.0053 63.7287 37.1781 63.6939 37.3267 63.6063C37.4753 63.5187 37.5913 63.3831 37.6566 63.2209C37.7218 63.0587 37.7327 62.879 37.6875 62.7098C36.7835 55.8832 35.4223 49.1282 33.6133 42.4924L33.0802 43.4587C40.8319 42.1029 48.3979 39.8069 55.6181 36.6191C56.1946 36.3665 56.0515 35.5597 55.6181 35.2627C48.8298 30.4554 41.7087 26.1592 34.3111 22.408C33.4443 21.9647 32.6468 23.2945 33.5353 23.7644C40.9337 27.5139 48.0549 31.8102 54.8423 36.6191V35.2716C47.7411 38.3918 40.3018 40.6358 32.6815 41.956C32.4865 42.0119 32.321 42.1444 32.2211 42.3246C32.1212 42.5048 32.0951 42.7181 32.1484 42.9179C33.9584 49.5547 35.3182 56.3114 36.2182 63.1397L37.5185 62.3729L28.4556 54.2389C25.6471 51.7034 22.9252 48.9197 19.9432 46.5837C17.5161 44.6821 14.2784 46.628 11.8469 47.6786C8.08051 49.3142 4.33576 50.9987 0.578 52.6565L1.70489 53.543C3.57293 46.6325 6.29915 40.245 9.32009 33.8088C9.78819 32.8203 10.0352 32.0136 9.60182 30.9542C9.01671 29.5269 7.99816 28.1882 7.20933 26.8673L4.44844 22.2573C3.84599 21.2511 1.64421 18.7112 2.53706 17.4833L1.87392 17.8734L21.1742 19.9435C21.3088 19.9458 21.4416 19.9107 21.5584 19.842C21.6751 19.7734 21.7715 19.6736 21.8373 19.5534C24.7195 13.1526 27.6581 6.61445 32.3694 1.37948L31.0692 0.825396C31.284 8.53697 32.3409 16.1998 34.2201 23.6713C34.4672 24.6465 35.9538 24.2343 35.6981 23.2547H35.6851Z" fill="#454242"/>
<path d="M32.4164 1.61368C33.1229 1.50286 34.2802 1.57378 34.7699 2.20322C34.9823 2.48247 34.9216 3.46209 34.9606 3.83887C35.056 4.7254 35.1383 5.6341 35.212 6.53393C35.3724 8.44884 35.4894 10.3726 35.5674 12.2964C35.7191 16.0597 35.7104 19.8319 35.5674 23.5908C35.5284 24.6014 37.0627 24.6014 37.1017 23.5908C37.3134 18.3568 37.2324 13.1148 36.859 7.89033C36.768 6.64918 36.6596 5.41689 36.5339 4.18018C36.4472 3.29365 36.4863 2.13674 36.0788 1.33886C35.3377 -0.123921 33.3916 -0.110622 32.0134 0.106578C31.0425 0.257289 31.4542 1.76881 32.4208 1.6181L32.4164 1.61368Z" fill="#454242"/>
<path d="M54.3628 36.463C54.2934 37.4426 54.3107 38.4798 54.1547 39.4417C53.873 41.1793 53.1015 41.4408 51.6409 41.955C49.7527 42.595 47.8159 43.0739 45.8504 43.3868C43.8046 43.7369 41.7415 43.9763 39.6871 44.2378C37.6327 44.4994 35.4179 44.9825 33.3592 44.2999C32.4187 43.9896 32.0156 45.5012 32.9518 45.8159C35.3356 46.6049 37.8451 46.0419 40.2679 45.7316C42.8684 45.3992 45.5166 45.0978 48.0998 44.5526C50.1196 44.1093 53.1015 43.666 54.7442 42.2653C56.1658 41.0552 55.78 38.1341 55.8971 36.463C55.9664 35.4567 54.4321 35.4612 54.3628 36.463Z" fill="#454242"/>
<path d="M35.8686 46.3528C37.3965 51.7433 38.2585 57.3081 38.4345 62.9176L38.9979 62.1596C38.4558 62.3442 37.8876 62.4356 37.3163 62.4301C36.3281 62.4301 36.3281 63.9903 37.3163 63.9992C38.0254 64.0118 38.7316 63.9024 39.4054 63.6756C39.5661 63.6274 39.7075 63.5278 39.8089 63.3914C39.9103 63.255 39.9663 63.089 39.9688 62.9176C39.7989 57.1683 38.9252 51.4633 37.3683 45.9361C37.0909 44.9698 35.6086 45.382 35.886 46.3528H35.8686Z" fill="#454242"/>
<path d="M0.211598 54.7166C2.76011 57.5269 6.43553 56.206 9.46947 55.0801L22.0083 50.4347L21.4146 49.0118L20.4264 49.5792C19.5595 50.0756 20.3353 51.432 21.2022 50.9356L22.1904 50.3682C22.9315 49.9249 22.4331 48.6217 21.6009 48.932L11.5716 52.651C8.66763 53.7281 3.90001 56.4941 1.29515 53.6173C0.623348 52.8771 -0.460204 53.9897 0.211598 54.7299V54.7166Z" fill="#454242"/>
<path d="M4.30984 53.6267C4.34451 53.4361 4.37485 53.2455 4.40952 53.0549L3.28263 53.5248L6.09553 55.4574C6.91903 56.0248 7.68619 54.664 6.87136 54.101L4.05412 52.1684C3.95238 52.1086 3.83864 52.0733 3.72156 52.0653C3.60448 52.0572 3.48714 52.0766 3.37848 52.1219C3.26981 52.1672 3.17269 52.2372 3.09449 52.3267C3.0163 52.4162 2.95909 52.5227 2.92723 52.6382C2.89689 52.8288 2.86221 53.0195 2.83187 53.2101C2.66284 54.1985 4.13214 54.6196 4.30984 53.6267Z" fill="#454242"/>
<path d="M6.32124 52.4741C7.32648 53.0597 8.15776 53.9129 8.72672 54.9431C8.8296 55.123 8.99814 55.2537 9.19525 55.3065C9.39236 55.3593 9.6019 55.3298 9.77777 55.2246C9.95365 55.1194 10.0814 54.947 10.1331 54.7454C10.1847 54.5438 10.1559 54.3295 10.053 54.1497C9.35087 52.8862 8.3281 51.8402 7.09273 51.1222C6.22589 50.6257 5.45873 51.9821 6.32124 52.4741Z" fill="#454242"/>
<path d="M8.78846 51.5873L11.3023 53.6574C11.4488 53.7989 11.6426 53.8778 11.8441 53.8778C12.0456 53.8778 12.2394 53.7989 12.3859 53.6574C12.5293 53.5103 12.6099 53.311 12.6099 53.1033C12.6099 52.8956 12.5293 52.6963 12.3859 52.5492L9.87202 50.4792C9.72557 50.3376 9.53172 50.2588 9.33024 50.2588C9.12876 50.2588 8.93491 50.3376 8.78846 50.4792C8.64501 50.6262 8.56445 50.8255 8.56445 51.0332C8.56445 51.241 8.64501 51.4402 8.78846 51.5873Z" fill="#454242"/>
<path d="M10.8065 50.5056C11.7254 51.466 12.6428 52.4308 13.5587 53.4001C14.2479 54.1226 15.3314 53.0145 14.6423 52.2875L11.8944 49.393C11.2009 48.666 10.1174 49.7786 10.8065 50.5056Z" fill="#454242"/>
<path d="M13.5813 49.322C14.3158 50.1105 14.9308 51.0069 15.406 51.9815C15.8394 52.8681 17.1787 52.0879 16.7323 51.1881C16.1895 50.0967 15.4945 49.0918 14.6692 48.2049C13.9844 47.4735 12.9008 48.5861 13.5813 49.3175V49.322Z" fill="#454242"/>
<path d="M15.0836 48.0854C15.8549 48.7034 16.4702 49.5014 16.8779 50.4126C17.3114 51.3257 18.6116 50.5323 18.2042 49.6236C17.7413 48.5854 17.0448 47.674 16.1715 46.964C16.0243 46.8222 15.8297 46.7432 15.6275 46.7432C15.4253 46.7432 15.2307 46.8222 15.0836 46.964C14.9412 47.1116 14.8613 47.3107 14.8613 47.5181C14.8613 47.7254 14.9412 47.9245 15.0836 48.0721V48.0854Z" fill="#454242"/>
<path d="M17.054 48.1256C17.3907 48.3187 17.6817 48.5852 17.9064 48.9061C18.1311 49.2271 18.284 49.5947 18.3543 49.9829C18.5796 50.967 20.0576 50.5503 19.8366 49.5662C19.714 48.9804 19.4709 48.428 19.1234 47.9458C18.7759 47.4635 18.332 47.0624 17.8212 46.7692C16.9543 46.2905 16.1741 47.6558 17.0496 48.1256H17.054Z" fill="#454242"/>
<path d="M33.7841 43.5021C34.2909 44.2621 34.9629 44.8917 35.7475 45.3417C36.6143 45.8248 37.3902 44.4551 36.519 43.9853C35.9599 43.6759 35.4779 43.2391 35.1104 42.7087C35.0043 42.533 34.836 42.406 34.6407 42.354C34.4453 42.302 34.2379 42.329 34.0615 42.4294C33.8865 42.5349 33.7592 42.7066 33.7073 42.9075C33.6554 43.1083 33.683 43.322 33.7841 43.5021Z" fill="#454242"/>
<path d="M36.8153 43.0501L39.1515 45.4481C39.2952 45.5957 39.4903 45.6788 39.6939 45.6792C39.8975 45.6796 40.0929 45.5973 40.2372 45.4503C40.3814 45.3034 40.4627 45.1038 40.4631 44.8956C40.4635 44.6874 40.383 44.4875 40.2394 44.34L37.8989 41.9419C37.7529 41.8069 37.5618 41.7345 37.3651 41.7395C37.1684 41.7446 36.981 41.8267 36.8419 41.9691C36.7027 42.1114 36.6224 42.3029 36.6174 42.5041C36.6125 42.7053 36.6833 42.9008 36.8153 43.0501Z" fill="#454242"/>
<path d="M40.0047 42.2746C40.3934 43.3701 41.0661 44.337 41.9508 45.0716C42.0972 45.2131 42.2911 45.292 42.4925 45.292C42.694 45.292 42.8879 45.2131 43.0343 45.0716C43.1778 44.9245 43.2583 44.7253 43.2583 44.5175C43.2583 44.3098 43.1778 44.1105 43.0343 43.9634C42.3411 43.4155 41.8051 42.6866 41.4827 41.8535C41.4224 41.6569 41.2911 41.4911 41.1156 41.3899C40.9401 41.2886 40.7336 41.2594 40.5378 41.3083C40.3431 41.3662 40.1783 41.4997 40.0786 41.6803C39.979 41.8609 39.9525 42.0742 40.0047 42.2746Z" fill="#454242"/>
<path d="M43.3259 41.5916C43.8721 42.5523 44.4863 43.4708 45.1636 44.3399C45.3092 44.4847 45.5044 44.5658 45.7075 44.5658C45.9107 44.5658 46.1058 44.4847 46.2515 44.3399C46.3911 44.1899 46.469 43.9907 46.469 43.7836C46.469 43.5764 46.3911 43.3773 46.2515 43.2273C45.6608 42.4588 45.1262 41.6469 44.6522 40.7982C44.5493 40.6183 44.3807 40.4876 44.1836 40.4348C43.9865 40.382 43.777 40.4115 43.6011 40.5167C43.4252 40.6219 43.2974 40.7943 43.2458 40.9959C43.1942 41.1974 43.223 41.4118 43.3259 41.5916Z" fill="#454242"/>
<path d="M45.7538 40.5906C46.2522 41.4063 46.755 42.2219 47.2534 43.0419C47.7519 43.8619 49.1085 43.1084 48.5797 42.2485L47.0757 39.7972C46.5556 38.9461 45.225 39.7307 45.7755 40.5906H45.7538Z" fill="#454242"/>
<path d="M47.5198 39.8324C47.9569 40.954 48.3189 42.1048 48.6034 43.2766C48.8461 44.2518 50.3371 43.8395 50.0857 42.8555C49.796 41.6852 49.4341 40.5348 49.0021 39.4113C48.6424 38.4849 47.1558 38.8883 47.5198 39.8546V39.8324Z" fill="#454242"/>
<path d="M49.1672 38.9903C49.706 40.0318 50.0805 41.1538 50.2768 42.3148C50.4545 43.3077 51.9368 42.8866 51.7591 41.8982C51.528 40.6046 51.101 39.3558 50.4935 38.1969C50.0297 37.3104 48.7035 38.0994 49.1672 38.9903Z" fill="#454242"/>
<path d="M50.9379 38.6976C51.0848 38.8989 51.1876 39.1301 51.2392 39.3757C51.2908 39.6212 51.29 39.8753 51.2369 40.1205C51.1883 40.3213 51.2169 40.5336 51.3169 40.7135C51.4169 40.8933 51.5807 41.027 51.7744 41.0868C51.9709 41.1401 52.1799 41.1123 52.3566 41.0095C52.5333 40.9067 52.6635 40.7371 52.7192 40.5372C52.8247 40.0899 52.8387 39.6252 52.7603 39.1721C52.682 38.719 52.5131 38.2874 52.2641 37.9042C52.1572 37.7283 51.9885 37.601 51.7927 37.5482C51.5968 37.4955 51.3887 37.5213 51.2109 37.6205C51.0363 37.7275 50.9099 37.9004 50.8588 38.1019C50.8077 38.3034 50.8361 38.5174 50.9379 38.6976Z" fill="#454242"/>
<path d="M52.6253 37.519C52.5144 38.4806 52.5716 39.4547 52.7943 40.3958C53.0283 41.3754 54.5063 40.9587 54.2766 39.9746C54.0947 39.1698 54.0551 38.3381 54.1596 37.519C54.1596 37.3109 54.0787 37.1113 53.9349 36.9642C53.791 36.817 53.5959 36.7344 53.3924 36.7344C53.1903 36.7389 52.9978 36.823 52.8548 36.9692C52.7119 37.1154 52.6297 37.3123 52.6253 37.519Z" fill="#454242"/>
<path d="M34.8973 48.1699C35.794 48.9957 36.4584 50.0517 36.8217 51.2284C37.1251 52.1815 38.6074 51.7737 38.304 50.7852C37.8685 49.3438 37.0686 48.0457 35.9852 47.0219C35.2528 46.3437 34.1649 47.4651 34.8973 48.13V48.1699Z" fill="#454242"/>
<path d="M35.9166 51.3747L37.1691 54.1052C37.6026 55.0184 38.9028 54.2205 38.4911 53.3118L37.2558 50.5813C36.8224 49.6681 35.5221 50.4616 35.9296 51.3747H35.9166Z" fill="#454242"/>
<path d="M36.5297 52.869C36.5648 54.3014 36.7685 55.7242 37.1365 57.1066C37.1926 57.3054 37.3231 57.4735 37.4997 57.5744C37.6763 57.6752 37.8847 57.7006 38.0796 57.6451C38.2744 57.5896 38.4399 57.4576 38.5401 57.2779C38.6403 57.0982 38.667 56.8853 38.6145 56.6855C38.2822 55.4405 38.0974 54.1592 38.0641 52.869C38.0337 51.8584 36.4994 51.8539 36.5297 52.869Z" fill="#454242"/>
<path d="M37.143 56.7519C36.9112 58.3954 36.8894 60.0628 37.078 61.7121C37.195 62.7005 38.7293 62.7138 38.6123 61.7121C38.4216 60.2053 38.4216 58.6797 38.6123 57.173C38.7467 56.1845 37.2644 55.7546 37.1343 56.7297L37.143 56.7519Z" fill="#454242"/>
<path d="M31.956 3.98101C32.1575 4.73372 32.6196 5.3859 33.2563 5.81612C33.6897 6.14857 34.4439 6.53865 34.5089 7.14592C34.6129 8.14327 36.1472 8.15214 36.0432 7.14592C36.0021 6.7401 35.8769 6.3479 35.6759 5.99551C35.4748 5.64313 35.2025 5.33867 34.8773 5.10247C34.3355 4.65921 33.577 4.30459 33.4296 3.5599C33.2129 2.57585 31.7306 2.99252 31.9474 3.97657L31.956 3.98101Z" fill="#454242"/>
<path d="M32.6368 8.19555C33.5778 8.69988 34.337 9.49802 34.8039 10.4739C35.2374 11.3605 36.581 10.5803 36.1302 9.68048C35.5303 8.46508 34.5741 7.47171 33.3953 6.83914C32.5285 6.39588 31.744 7.72569 32.6238 8.19555H32.6368Z" fill="#454242"/>
<path d="M32.9484 11.2056C33.1078 11.9062 33.4942 12.5311 34.0449 12.9787C34.4524 13.3466 35.0678 13.7234 35.0808 14.3395C35.0808 15.3457 36.6325 15.3501 36.6151 14.3395C36.6025 13.9575 36.5114 13.5826 36.3479 13.2389C36.1844 12.8953 35.952 12.5907 35.6659 12.3448C35.1848 11.9015 34.5564 11.5115 34.4307 10.8111C34.2487 9.81819 32.7707 10.2393 32.9484 11.2278V11.2056Z" fill="#454242"/>
<path d="M33.5423 14.5791C33.5863 15.1845 33.8435 15.753 34.2661 16.1793C34.4265 16.3611 34.9813 16.7644 34.9336 17.0658C34.7646 18.0543 36.2339 18.4799 36.4116 17.487C36.4716 17.1653 36.4562 16.8336 36.3665 16.5192C36.2768 16.2048 36.1155 15.9167 35.8958 15.6784C35.6531 15.3814 35.1026 15.0135 35.081 14.5969C35.0246 13.5906 33.4903 13.5818 33.5423 14.5969V14.5791Z" fill="#454242"/>
<path d="M33.3642 19.4821C33.9587 20.2763 34.4322 21.1581 34.7685 22.0974C35.1065 23.0371 36.5888 22.6337 36.2508 21.6807C35.8807 20.6088 35.3547 19.6001 34.6905 18.6887C34.5822 18.5155 34.414 18.3906 34.2195 18.3388C34.0251 18.287 33.8187 18.3122 33.6416 18.4094C33.4666 18.5149 33.3393 18.6866 33.2874 18.8875C33.2354 19.0883 33.263 19.302 33.3642 19.4821Z" fill="#454242"/>
</svg>
