<svg width="194" height="196" viewBox="0 0 194 196" fill="none" xmlns="http://www.w3.org/2000/svg">
<g clip-path="url(#clip0_2321_59967)">
<rect width="194" height="196" fill="#FFDFDF"/>
<path fill-rule="evenodd" clip-rule="evenodd" d="M44.8779 204.988C54.1409 205.247 62.8912 205.533 72.1364 204.988C86.9309 204.072 130.347 205.723 139.891 204.988C140.611 204.932 143.088 205.723 143.139 204.988C143.559 199.871 143.831 148.108 142.584 144.547C141.338 140.985 135.186 123.864 127.347 115.88C125.161 113.723 121.835 112.887 119.997 110.396C118.413 107.677 118.536 106.082 116.971 104.652C116.292 104.031 114.691 103.78 113.501 102.919C112.306 101.729 113.438 99.1114 112.947 97.4551C111.935 93.3192 108.206 90.6663 104.131 90.0412C98.4671 88.6857 92.4874 89.9674 89.7743 94.4184C88.764 96.0753 89.3017 98.0889 88.0594 100.744C88.1482 102.75 85.8067 103.234 84.4075 104.03L81.6285 106.84C73.0659 111.659 62.9933 114.262 55.4909 120.737C49.1124 127.21 42.7681 134.692 39.938 143.449C39.3521 145.836 39.1609 148.303 38.9181 150.741C38.2249 157.867 36.2948 164.784 34.6338 171.725C32.7397 180.47 30.9743 189.755 33.5269 198.583C34.2629 200.452 43.2024 204.9 44.8779 204.988Z" fill="white"/>
<path fill-rule="evenodd" clip-rule="evenodd" d="M89.2831 95.1306C89.3576 94.8885 89.6769 94.9566 89.7013 95.1864C89.9419 97.4685 89.639 99.8536 89.349 102.121C89.2094 103.215 89.1292 104.353 88.9172 105.432C88.89 105.547 88.8642 105.664 88.8399 105.779C88.9101 105.903 89.1156 106.042 89.2137 106.137L89.6411 106.552L90.4968 107.381C92.1717 109.003 93.8458 110.627 95.5206 112.25L97.9788 114.634C98.8216 115.451 99.779 116.233 100.519 117.144C100.92 117.639 101.011 118.245 100.616 118.775C100.421 119.037 100.07 119.228 99.7138 119.267C99.8534 119.461 99.9608 119.68 100.029 119.924C100.168 120.421 99.6658 121.03 99.1317 120.823C98.5252 120.59 98.0246 120.172 97.4074 119.972C96.7837 119.77 96.1063 119.73 95.4605 119.839C95.1633 119.889 94.8733 119.963 94.5905 120.057C97.6172 121.451 100.892 122.252 104.233 122.366C104.914 122.389 105.593 122.38 106.269 122.335C107.407 122.261 108.536 122.088 109.647 121.81C110.52 121.59 111.384 121.315 112.222 120.982C112.633 120.818 113.04 120.638 113.433 120.434L113.468 120.414C113.557 120.358 115.201 119.425 115.229 119.286C115.258 119.145 115.258 119.097 115.205 118.974C115.151 118.853 115.003 118.769 115.003 118.769C114.494 118.551 113.969 118.349 113.414 118.346C112.137 118.338 110.744 119.282 109.688 119.926C108.528 120.633 107.461 121.458 106.344 122.224C106.319 122.242 106.29 122.25 106.263 122.25C106.145 122.25 106.036 122.105 106.112 121.991C106.912 120.812 107.992 119.831 109.121 118.974L109.577 118.633C110.611 117.862 111.821 117.007 113.08 116.82C114.621 116.593 116.231 117.554 117.606 118.117L120.041 119.115C120.476 119.291 120.948 119.443 121.384 119.644L120.364 116.449C119.854 114.852 119.346 113.254 118.842 111.655L118.744 111.342C118.242 109.719 117.782 108.03 116.946 106.547C116.746 106.192 116.518 105.857 116.292 105.52C116.058 105.17 115.97 104.784 115.675 104.472C115.092 103.853 114.255 103.49 113.456 103.253C113.261 103.195 113.319 102.938 113.502 102.918C114.321 102.832 115.103 103.023 115.844 103.369L116.151 103.516C116.852 103.848 117.535 104.156 118.055 104.751C119.241 106.11 119.857 107.821 120.423 109.51L120.574 109.963C120.786 109.893 122.224 110.332 122.404 110.437C127.797 112.717 131.952 116.964 134.989 121.939C138.317 127.392 140.13 133.623 141.626 139.788C142.087 141.692 142.529 143.6 142.953 145.513C141.063 146.241 139.054 146.621 137.286 147.646C136.611 148.036 137.22 149.083 137.896 148.691C139.553 147.732 141.441 147.377 143.215 146.703C144.176 151.131 145.032 155.584 145.748 160.055C147.949 173.779 149.34 187.726 149.252 201.637C149.25 201.944 149.159 202.288 148.992 202.583C149.09 202.534 149.167 202.477 149.211 202.408C149.769 201.531 151.168 202.344 150.607 203.225L150.525 203.352C150.104 204.002 149.711 204.499 148.97 204.865C148.225 205.235 147.416 205.296 146.594 205.318C143.797 205.391 140.998 205.439 138.198 205.474C137.813 202.478 137.657 199.453 137.128 196.474C136.993 195.708 135.826 196.033 135.962 196.796C136.472 199.672 136.636 202.592 136.993 205.488C131.007 205.553 125.017 205.553 119.036 205.57C110.929 205.594 102.824 205.578 94.7179 205.573L91.2444 205.572C81.8799 205.572 72.5158 205.542 63.1518 205.479L60.9248 205.464C60.039 200.239 59.436 194.971 59.4248 189.661C59.4231 188.883 58.2129 188.881 58.2146 189.661C58.2258 194.964 58.8221 200.234 59.6998 205.457C57.4827 205.447 55.2666 205.455 53.0493 205.534L51.9208 205.574C49.6628 205.651 47.4003 205.699 45.1465 205.519C42.6445 205.318 40.1137 204.857 37.8703 203.679C36.8599 203.147 35.9702 202.467 35.2099 201.667C35.9828 201.218 36.7667 200.786 37.5153 200.296C38.1645 199.871 37.5589 198.822 36.9045 199.251C36.0977 199.779 35.2497 200.239 34.419 200.727C33.8175 199.924 33.3239 199.033 32.949 198.072C32.3575 196.553 32.1291 194.921 31.9309 193.313C31.6966 191.421 31.5996 189.512 31.5996 187.605C31.5996 183.595 32.0216 179.596 32.6103 175.635C33.1732 171.839 33.9172 168.074 34.7038 164.32L34.8112 163.809C35.5873 160.119 36.327 156.419 37.2166 152.755C38.039 149.367 38.9895 145.995 40.1223 142.688C41.1306 143.312 42.1858 143.857 43.1783 144.507C43.832 144.935 44.439 143.887 43.7891 143.462C42.7302 142.769 41.6007 142.192 40.5321 141.515C41.7988 137.974 43.2855 134.515 45.0681 131.203C48.6381 124.57 53.4489 118.636 59.6104 114.256C62.6948 112.065 66.0789 110.272 69.6326 108.967C73.2557 107.636 77.0102 106.906 80.8495 106.607C80.959 106.598 81.0206 106.699 81.0163 106.793L81.0149 106.811L81.166 106.835C81.2218 106.455 81.3371 106.088 81.5562 105.75C82.0553 104.981 83.0026 104.488 83.7588 104.015L83.9378 103.904C84.8379 103.346 85.7881 102.796 86.8342 102.6C86.8707 102.595 86.8929 102.632 86.8693 102.661C86.179 103.452 85.2962 104.058 84.487 104.727L84.3016 104.882C83.6313 105.435 82.6962 106.06 82.6711 106.983C82.6425 108.07 82.8644 109.2 82.9454 110.284C83.0256 111.364 83.0807 112.443 83.1101 113.527C83.2146 117.409 83.0886 121.292 82.7449 125.159L84.2636 124.142C86.6273 122.559 88.9988 120.981 91.4198 119.498C92.8841 118.601 94.5296 117.834 96.2846 117.869C96.7766 117.878 97.3315 117.949 97.8643 118.101C97.2907 117.557 96.7415 116.979 96.1801 116.433C95.2557 115.532 94.3313 114.632 93.4076 113.733L90.7424 111.136L88.0766 108.539C87.2503 107.732 86.2822 106.989 86.3695 105.718C86.4411 104.704 86.9567 103.695 87.309 102.717C87.3591 102.576 87.4049 102.437 87.4472 102.3C88.1582 99.9352 88.5621 97.4849 89.2831 95.1306ZM123.728 196.556C123.177 196.004 122.321 196.86 122.872 197.412L123.164 197.702C123.651 198.189 124.134 198.69 124.471 199.291L124.521 199.382C124.884 200.071 125.928 199.46 125.565 198.77C125.116 197.918 124.402 197.23 123.728 196.556ZM100.108 196.4C98.354 196.065 96.662 196.065 94.907 196.4C94.1429 196.546 94.4666 197.713 95.2292 197.568C96.7637 197.274 98.2516 197.274 99.7868 197.568C100.548 197.713 100.874 196.546 100.108 196.4ZM76.4078 184.196C75.6526 184.005 75.3304 185.172 76.0862 185.364L76.4583 185.457C77.7231 185.77 78.9279 186.003 80.2416 185.712C80.992 185.547 80.6884 184.408 79.9501 184.539L79.9201 184.545C78.7042 184.814 77.5842 184.494 76.4078 184.196ZM118.5 176.333C117.942 175.789 117.084 176.644 117.644 177.188C118.343 177.868 119.166 178.384 120.163 178.412C120.931 178.433 120.942 177.259 120.198 177.203L120.163 177.201C119.495 177.183 118.962 176.782 118.5 176.333ZM47.2747 173.099C47.9715 172.75 47.3593 171.706 46.664 172.054L42.4815 174.146C41.7847 174.494 42.3969 175.539 43.0922 175.191L47.2747 173.099ZM129.922 173.365C129.143 173.344 129.144 174.555 129.922 174.576C130.654 174.597 131.405 174.874 132.057 175.191C132.754 175.53 133.369 174.486 132.668 174.145C131.815 173.731 130.879 173.393 129.922 173.365ZM90.8427 167.52C91.4828 167.085 90.8785 166.035 90.2319 166.475C89.3497 167.074 88.5499 167.783 87.682 168.401L87.4436 168.566C86.8027 169.003 87.4078 170.052 88.0544 169.613C89.0167 168.958 89.8803 168.174 90.8427 167.52ZM135.848 158.721C135.069 158.721 135.067 159.932 135.848 159.932L135.995 159.931C136.638 159.927 137.316 159.91 137.914 160.166L137.982 160.198C138.683 160.528 139.298 159.484 138.593 159.153C137.717 158.739 136.8 158.721 135.848 158.721ZM68.6381 157.856L68.7397 157.818C69.4674 157.556 69.1537 156.386 68.418 156.651C67.3094 157.049 66.447 157.802 65.4853 158.455C64.8445 158.89 65.4493 159.939 66.096 159.501C66.9246 158.938 67.6956 158.225 68.6381 157.856ZM114.032 154.707L114.195 154.619C114.888 154.262 114.276 153.217 113.584 153.574C113.035 153.856 112.543 154.233 112.005 154.532L111.842 154.619C111.148 154.976 111.76 156.021 112.452 155.665C113.002 155.382 113.493 155.006 114.032 154.707ZM95.6209 142.98L95.4963 142.859C94.9392 142.314 94.0828 143.169 94.6406 143.715C96.0333 145.079 97.6795 146.114 99.3407 147.115L99.6429 147.297C100.312 147.699 100.921 146.652 100.254 146.251L99.8105 145.984C98.3333 145.094 96.874 144.174 95.6209 142.98ZM62.1307 141.849C62.5999 141.24 61.5794 140.643 61.1024 141.217L61.0856 141.238C60.5971 141.873 60.0175 142.447 59.4117 142.971L59.2978 143.069C58.9372 143.376 58.2808 144.033 57.7741 144.076C57.0038 144.142 56.9969 145.354 57.7741 145.287C58.5581 145.22 59.2326 144.668 59.8248 144.196C60.6868 143.508 61.4579 142.723 62.1307 141.849ZM126.516 137.439C127.079 136.911 126.248 136.069 125.681 136.565L125.661 136.583C124.61 137.571 123.099 137.836 121.745 138.17C120.99 138.358 121.31 139.526 122.067 139.338L122.683 139.185C124.066 138.84 125.453 138.439 126.516 137.439ZM102.549 129.802C101.793 129.61 101.471 130.778 102.227 130.97C103.51 131.296 104.726 131.718 105.916 132.304C106.612 132.646 107.227 131.603 106.527 131.258C105.247 130.628 103.931 130.153 102.549 129.802ZM114.911 104.28C114.893 104.226 114.951 104.164 115.007 104.184C116.365 104.69 115.643 106.469 115.221 107.535L115.145 107.729C114.484 109.437 113.559 111.098 112.552 112.627C111.497 114.226 110.326 115.758 109.059 117.196C108.509 117.82 107.938 118.426 107.349 119.014L107.127 119.233C106.531 119.82 105.762 120.849 104.838 120.735C103.843 120.615 103.288 119.552 104.014 118.744C104.526 118.172 105.237 117.716 105.811 117.196C106.38 116.681 106.93 116.149 107.467 115.603C108.566 114.482 109.606 113.297 110.558 112.049C111.479 110.841 112.359 109.6 113.16 108.31L113.319 108.052C113.928 107.048 115.335 105.573 114.911 104.28ZM66.7931 116.962C66.1483 116.521 65.5424 117.57 66.1823 118.008C67.3589 118.812 68.3941 119.786 69.6677 120.448C70.3496 120.802 70.956 119.787 70.3027 119.416L70.2786 119.403C69.0059 118.742 67.9692 117.766 66.7931 116.962Z" fill="black"/>
<path fill-rule="evenodd" clip-rule="evenodd" d="M107.755 105.341C104.397 105.361 101.543 104.408 99.3653 102.831C96.6479 101.861 93.3706 100.366 91.38 98.7967C90.6031 98.995 89.6743 98.1701 89.08 97.7348C85.3852 94.9744 82.4845 90.9337 81.6252 86.8866C80.2984 88.5622 78.4107 88.6316 76.6021 87.7989C72.8111 85.6486 72.9529 81.1196 74.3177 77.7362C71.4484 71.2956 69.4598 54.2934 73.8398 47.4317C74.7356 46.405 76.0504 45.7908 76.997 44.738C77.8393 43.8185 78.6404 42.8779 79.6203 42.1503C82.6105 39.8736 87.7603 38.6614 90.9854 38.0912C104.446 35.1798 114.789 40.4128 126.982 44.8268C126.28 46.5824 125.31 48.1834 124.197 49.6761C127.224 50.8065 125.834 53.3479 123.485 54.6362L122.087 53.9564C124.267 61.7572 129.283 81.1561 127.119 87.3857C125.392 97.1047 117.819 105.412 107.755 105.341Z" fill="white"/>
<path fill-rule="evenodd" clip-rule="evenodd" d="M109.699 106.178C105.34 106.626 100.16 105.595 97.2535 102.052C97.1669 101.946 97.1289 101.826 97.1268 101.71C97.1239 101.581 97.1668 101.457 97.242 101.359C97.3208 101.258 97.4325 101.187 97.5607 101.164C97.6688 101.144 97.7912 101.157 97.9187 101.228L98.1858 101.377C100.171 102.473 102.232 103.409 104.482 103.809C106.798 104.221 109.156 104.175 111.452 103.652C115.633 102.699 119.017 100.267 121.508 97.0615C124.288 93.4841 125.957 88.9429 126.382 84.401C126.898 78.8975 125.702 73.4268 124.465 68.0976C123.164 62.498 121.743 56.9269 120.093 51.4205C120.043 51.2547 120.03 51.0996 120.044 50.9567C119.557 50.7658 119.039 50.8188 118.523 50.993C117.581 51.3114 116.642 52.0291 115.859 52.6217C115.575 52.8363 115.312 53.0357 115.075 53.198C114.104 53.8626 113.042 54.3408 111.855 54.416C110.621 54.4941 109.411 54.1103 108.29 53.6301C107.721 53.386 107.16 53.1329 106.602 52.8809C105.013 52.163 103.442 51.4523 101.726 50.9904C99.4267 50.3713 97.0523 50.0664 94.6707 50.0882C90.4209 50.1271 86.1576 51.2216 83.5526 54.8176C82.4971 56.2743 81.8097 57.9486 82.3461 59.7464C82.6382 60.7244 83.1888 61.6122 83.7896 62.4288L83.9958 62.7069C84.3259 63.1551 84.6124 63.6016 84.699 64.0769C84.7713 64.475 84.7147 64.8963 84.4305 65.3579C84.2515 65.6485 84.0238 65.9092 83.7946 66.169C83.6299 66.3563 83.4645 66.5433 83.322 66.7447C83.0349 67.1507 82.7807 67.588 82.5809 68.044C82.1907 68.9368 82.0253 69.8971 81.9902 70.8656C81.9487 72.034 82.1126 73.1769 82.2759 74.3219C82.3912 75.1332 82.5065 75.9459 82.553 76.7679C82.5609 76.9118 82.5172 77.0185 82.4556 77.098C82.3804 77.1947 82.2709 77.2555 82.1463 77.2727C82.1083 77.2777 82.0689 77.2785 82.0296 77.2749C82.0489 77.3544 82.0661 77.4338 82.0804 77.5133C82.0016 77.4117 81.9179 77.3136 81.8291 77.2183C81.8233 77.2155 81.8183 77.2126 81.8126 77.209C81.7209 77.1589 81.6436 77.0823 81.5949 76.9842C81.4696 76.8674 81.3364 76.7565 81.1975 76.6526C80.4722 76.1113 79.6251 75.7905 78.7757 75.7798C77.9567 75.7697 77.1357 76.049 76.5045 76.6376C75.2499 77.8091 74.8824 79.7202 74.8693 81.3614C74.856 83.0369 75.2436 85.0476 76.7037 86.0873C77.2895 86.5048 78.0048 86.7554 78.7254 86.7625C79.3228 86.769 79.8943 86.557 80.4571 86.3558C80.6311 86.2935 80.8037 86.2319 80.9755 86.1761C81.1717 86.1124 81.35 86.1159 81.5054 86.1625C81.6808 86.2155 81.8298 86.3236 81.9408 86.4682C82.0518 86.6122 82.1241 86.7926 82.1463 86.9817C82.1685 87.165 82.1434 87.3547 82.0661 87.5258C82.046 87.5688 82.026 87.6111 82.0045 87.6519L82.326 88.1803C83.5555 90.1974 84.8064 92.178 86.4476 93.9123C87.3892 94.9076 88.3874 95.8471 89.4822 96.6691L89.6405 96.7865C89.735 96.856 89.8395 96.9412 89.9512 97.0328C90.2706 97.2942 90.6537 97.6451 91.011 97.6587C91.1169 97.663 91.2093 97.6494 91.2938 97.6386C91.4972 97.6114 91.6676 97.6035 91.8359 97.6723C91.9705 97.7274 92.1108 97.8305 92.254 98.0425C92.3514 98.1864 92.4015 98.3668 92.4015 98.5494C92.4015 98.7334 92.3507 98.9168 92.2612 99.0621C92.075 99.3629 91.8502 99.5497 91.606 99.655C91.3339 99.7732 91.0325 99.7911 90.7203 99.7331C89.9498 99.5891 89.097 98.9504 88.5542 98.5344L88.4489 98.4535C87.2467 97.5362 86.1075 96.5209 85.105 95.3852C83.3994 93.4519 81.867 91.1734 81.0801 88.6837C80.5251 89.0482 79.8399 89.2215 79.1232 89.2487C78.0792 89.288 76.9743 89.0195 76.16 88.6336C74.3656 87.7822 73.2757 86.1718 72.7649 84.3201C72.1717 82.1698 72.3645 79.698 73.1155 77.7661C73.1372 77.7102 73.1599 77.6544 73.1833 77.5978C70.8715 71.7382 70.1606 65.2318 70.3587 58.9788C70.4513 56.0519 70.6505 52.981 71.3407 50.1264C71.6501 48.847 72.1877 47.6286 73.0459 46.6213C73.5353 46.047 74.1357 45.5998 74.7388 45.1538C75.2613 44.7676 75.7856 44.3822 76.2268 43.9L76.4355 43.671C76.4808 43.6212 76.5259 43.5714 76.5709 43.5218C77.3329 42.6816 78.0747 41.8664 78.9995 41.1773C80.0719 40.3784 81.2555 39.7531 82.485 39.2338C85.1336 38.1154 87.9849 37.4448 90.8055 36.9259C96.9076 35.8037 103.171 35.7484 109.199 37.3258C112.001 38.0591 114.72 39.0628 117.435 40.0654C117.687 40.1585 117.939 40.2515 118.191 40.3444C120.301 41.1215 122.412 41.8954 124.523 42.6692C125.504 43.0288 126.485 43.3885 127.466 43.7484C127.679 43.8266 127.888 43.9949 128.006 44.204C128.122 44.408 128.156 44.6459 128.063 44.8829C127.461 46.4085 126.702 47.8399 125.777 49.1765C126.098 49.3951 126.372 49.6859 126.579 50.0261C126.84 50.4565 126.995 50.9659 127.005 51.5064C127.04 53.3166 125.394 54.5437 124.028 55.4311C123.901 55.514 123.775 55.5628 123.653 55.5852C124.976 60.6486 126.243 65.7291 127.32 70.8498L127.394 71.2047C128.503 76.5638 129.219 82.033 128.17 87.4636C127.267 92.1394 125.169 96.6526 121.89 100.136C118.676 103.55 114.365 105.699 109.699 106.178ZM80.9913 75.3494C80.4206 73.5371 80.1177 71.565 80.3361 69.7279C80.4736 68.5731 80.8209 67.4614 81.3858 66.4435C81.7095 65.8606 82.104 65.3209 82.5344 64.8125L82.6833 64.6418C82.7585 64.5547 82.833 64.4745 82.8559 64.374C82.8695 64.3157 82.8559 64.2519 82.8208 64.1755C82.742 64.0066 82.596 63.8438 82.4592 63.6848C82.4575 63.6829 82.4558 63.6809 82.4541 63.6789C82.3692 63.5799 82.2859 63.4828 82.2157 63.3883C80.9648 61.6939 80.0318 59.6768 80.3354 57.5282C80.6311 55.4319 82.0045 53.4778 83.4667 52.0053C86.6853 48.7627 91.6769 48.0176 96.0491 48.1965C98.5939 48.3004 101.135 48.7492 103.559 49.5331C104.754 49.9197 105.923 50.3906 107.058 50.9303L107.31 51.051C107.446 51.1168 107.581 51.1833 107.717 51.2498C107.727 51.2549 107.738 51.26 107.748 51.2651C108.626 51.6956 109.507 52.1278 110.46 52.3619C112.341 52.8242 113.618 51.8505 114.96 50.8686C115.42 50.532 115.887 50.1909 116.383 49.8914L116.485 49.8311C117.38 49.3119 118.451 48.9625 119.48 48.9782C120.373 48.9918 121.235 49.2772 121.937 49.9517C122.081 50.0902 122.164 50.2414 122.203 50.3919C122.28 50.5008 122.343 50.6306 122.384 50.7841C122.635 51.7277 122.886 52.6721 123.135 53.6168L123.339 53.4853C123.944 53.0927 124.6 52.6441 124.897 51.9872C125.011 51.7345 124.995 51.3133 124.851 51.0037C124.801 50.8955 124.734 50.7992 124.642 50.7392C124.575 50.6956 124.495 50.6751 124.401 50.6826C124.173 50.712 123.964 50.6786 123.787 50.6036C123.583 50.5172 123.419 50.375 123.313 50.2036C123.205 50.0281 123.156 49.8217 123.182 49.6077C123.205 49.4237 123.285 49.2315 123.441 49.051C124.472 47.8624 125.34 46.5514 125.999 45.1283L121.636 43.5131C120.08 42.9375 118.524 42.3626 116.966 41.79L116.114 41.4766C113.283 40.4379 110.436 39.4226 107.492 38.7539C101.641 37.4249 95.5393 37.7372 89.7042 38.9882L89.3519 39.0644C86.903 39.5985 84.4219 40.2447 82.1742 41.368C81.0715 41.9194 80.0225 42.5898 79.1223 43.4368C78.7282 43.8074 78.3717 44.2128 78.0153 44.6181C78.012 44.6218 78.0087 44.6256 78.0054 44.6294C77.5013 45.2025 76.9967 45.7742 76.3974 46.257L75.8412 46.7026C75.0136 47.3697 74.2672 48.0196 73.8002 49.0542C73.312 50.1357 73.0789 51.3306 72.8888 52.4948C72.4093 55.4274 72.22 58.4071 72.238 61.3777C72.2686 66.3654 73.026 71.2516 73.983 76.1206C74.7508 75.0215 75.8293 74.1694 77.2136 73.9875C78.116 73.8694 79.0108 74.0376 79.7869 74.4365C80.2351 74.667 80.644 74.9749 80.9913 75.3494ZM79.5411 81.2719C78.5302 80.8802 77.4689 80.752 76.3995 80.9389C76.2874 80.959 76.1806 80.9353 76.0907 80.8831C75.9997 80.8301 75.928 80.7463 75.8889 80.6539C75.844 80.5472 75.8416 80.4319 75.8814 80.3288C75.9159 80.24 75.9816 80.1534 76.1024 80.0954C77.2605 79.5426 78.5476 79.2984 79.8248 79.4724L79.9516 79.4903C80.6046 79.587 81.5233 79.7911 82.2114 80.1928C82.7528 80.5078 83.1487 80.9425 83.2476 81.5103C83.2991 81.8068 83.2254 82.1154 83.0549 82.3395C82.8903 82.5557 82.6382 82.7004 82.3117 82.6911C81.736 82.6746 81.3959 82.4312 80.9856 82.1161C80.9362 82.0781 80.8846 82.0388 80.8316 81.9994C80.4356 81.7029 80.0031 81.4509 79.5411 81.2719Z" fill="black"/>
<path d="M80.9913 75.3494C80.4206 73.5371 80.1177 71.565 80.3361 69.7279C80.4736 68.5731 80.8209 67.4614 81.3858 66.4435C81.7095 65.8606 82.104 65.3209 82.5344 64.8125L82.6833 64.6418C82.7585 64.5547 82.833 64.4745 82.8559 64.374C82.8695 64.3157 82.8559 64.2519 82.8208 64.1755C82.742 64.0066 82.596 63.8438 82.4592 63.6848L82.4541 63.6789C82.3692 63.5799 82.2859 63.4828 82.2157 63.3883C80.9648 61.6939 80.0318 59.6768 80.3354 57.5282C80.6311 55.4319 82.0045 53.4778 83.4667 52.0053C86.6853 48.7627 91.6769 48.0176 96.0491 48.1965C98.5939 48.3004 101.135 48.7492 103.559 49.5331C104.754 49.9197 105.923 50.3906 107.058 50.9303L107.31 51.051C107.446 51.1168 107.581 51.1833 107.717 51.2498L107.748 51.2651C108.626 51.6956 109.507 52.1278 110.46 52.3619C112.341 52.8242 113.618 51.8505 114.96 50.8686C115.42 50.532 115.887 50.1909 116.383 49.8914L116.485 49.8311C117.38 49.3119 118.451 48.9625 119.48 48.9782C120.373 48.9918 121.235 49.2772 121.937 49.9517C122.081 50.0902 122.164 50.2414 122.203 50.3919C122.28 50.5008 122.343 50.6306 122.384 50.7841C122.635 51.7277 122.886 52.6721 123.135 53.6168L123.339 53.4853C123.944 53.0927 124.6 52.6441 124.897 51.9872C125.011 51.7345 124.995 51.3133 124.851 51.0037C124.801 50.8955 124.734 50.7992 124.642 50.7392C124.575 50.6956 124.495 50.6751 124.401 50.6826C124.173 50.712 123.964 50.6786 123.787 50.6036C123.583 50.5172 123.419 50.375 123.313 50.2036C123.205 50.0281 123.156 49.8217 123.182 49.6077C123.205 49.4237 123.285 49.2315 123.441 49.051C124.472 47.8624 125.34 46.5514 125.999 45.1283L121.636 43.5131C120.08 42.9375 118.524 42.3626 116.966 41.79L116.114 41.4766C113.283 40.4379 110.436 39.4226 107.492 38.7539C101.641 37.4249 95.5393 37.7372 89.7042 38.9882L89.3519 39.0644C86.903 39.5985 84.4219 40.2447 82.1742 41.368C81.0715 41.9194 80.0225 42.5898 79.1223 43.4368C78.7282 43.8074 78.3717 44.2128 78.0153 44.6181L78.0054 44.6294C77.5013 45.2025 76.9967 45.7742 76.3974 46.257L75.8412 46.7026C75.0136 47.3697 74.2672 48.0196 73.8002 49.0542C73.312 50.1357 73.0789 51.3306 72.8888 52.4948C72.4093 55.4274 72.22 58.4071 72.238 61.3777C72.2686 66.3654 73.026 71.2516 73.983 76.1206C74.7508 75.0215 75.8293 74.1694 77.2136 73.9875C78.116 73.8694 79.0108 74.0376 79.7869 74.4365C80.2351 74.667 80.644 74.9749 80.9913 75.3494Z" fill="black"/>
<path fill-rule="evenodd" clip-rule="evenodd" d="M110.504 92.8493C109.487 92.4347 108.579 91.7423 107.916 90.858C107.686 90.5501 107.625 90.2257 107.674 89.9286C107.729 89.5949 107.926 89.292 108.195 89.0894C108.465 88.886 108.803 88.785 109.13 88.8366C109.413 88.881 109.696 89.0364 109.92 89.3586L109.966 89.423C110.361 89.9572 110.875 90.3947 111.461 90.6775C112.025 90.9496 112.656 91.0764 113.309 91.0026C114.553 90.8623 115.411 90.1892 116.323 89.2748C116.435 89.1595 116.548 89.0407 116.662 88.9196C116.734 88.8101 116.833 88.7392 116.943 88.7027C117.067 88.6612 117.205 88.664 117.332 88.7084C117.455 88.7507 117.565 88.8323 117.638 88.9404C117.708 89.0428 117.747 89.1695 117.735 89.3156C117.652 90.2622 117.156 91.1079 116.453 91.7717C115.672 92.5092 114.637 93.019 113.662 93.198C112.588 93.395 111.494 93.2539 110.504 92.8493ZM114.169 78.2362C115.311 78.9308 117.051 80.5505 115.823 82.2726C114.376 83.7913 112.293 82.0506 111.267 81.2629C110.316 80.6529 109.247 82.2224 110.129 82.9349C117.546 88.4277 120.555 78.4181 114.747 77.4199C114.107 77.3096 113.869 78.0214 114.169 78.2362ZM100.879 71.8468C101.005 70.2795 103.391 69.9236 103.628 71.4745C103.841 72.8637 103.59 74.1397 102.965 75.3906C102.367 76.5857 100.865 76.0286 100.751 74.9402C100.6 73.4816 100.8 72.8214 100.879 71.8468ZM119.042 71.1529C119.374 70.7171 119.855 70.4195 120.431 70.5877C122.229 71.1133 121.699 73.6671 121.067 74.9094C120.724 75.5847 119.615 75.7558 119.114 75.1615C118.297 74.1927 117.906 72.2569 118.944 71.3023C118.972 71.253 119.003 71.2032 119.042 71.1529ZM102.94 64.9889L103.224 64.9391C104.102 64.7871 105.195 64.641 105.817 65.3477C106.146 65.7224 106.26 66.4188 105.817 66.7775C105.037 67.4085 104.175 67.164 103.242 67.2174C102.472 67.2616 101.732 67.389 100.991 67.6011C99.3644 68.0661 98.039 68.9151 96.6498 69.8474C96.4672 69.9696 96.2811 69.7364 96.3684 69.5658C97.1704 67.9945 98.7242 66.7038 100.281 65.917C101.112 65.497 102.021 65.1486 102.94 64.9889ZM117.403 64.2849L117.62 64.3294C119.986 64.8241 123.059 65.8122 124.18 68.1367C124.222 68.4653 124.177 68.5358 124.14 68.5818L124.128 68.5972C124.098 68.6365 124.074 68.6906 123.931 68.7354C123.892 68.7259 123.852 68.716 123.812 68.7054C123.298 68.5707 122.892 68.3853 122.498 68.1929L122.072 67.9827C121.578 67.7401 121.079 67.5062 120.549 67.3336C119.42 66.9651 118.259 66.7057 117.08 66.5672C116.825 66.5372 116.579 66.4509 116.384 66.3029C116.2 66.1626 116.06 65.9683 115.995 65.7099C115.912 65.3757 115.936 65.1225 116.115 64.8209C116.25 64.5944 116.443 64.4374 116.665 64.3473C116.89 64.2554 117.147 64.2337 117.403 64.2849Z" fill="black"/>
<path d="M81.1317 76.9336C82.2015 76.9336 82.639 79.424 82.639 79.424C85.3585 84.1149 87.9757 88.7921 92.6465 92.0193C97.8307 94.098 102.93 97.6375 108.838 98.0263C111.501 97.7463 112.282 95.3074 115.572 96.166C117.67 96.6758 120.025 97.6818 121.966 96.229C123.606 95.1563 124.759 93.5316 126.174 92.2184C126.246 91.9814 126.715 94.4825 126.574 95.3275L126.464 95.8072C125.588 99.6775 124.703 104.232 120.784 106.359C119.589 106.988 117.914 107.596 116.59 107.241C109.589 108.357 101.995 107.54 95.8616 104.047C93.7027 103.485 92.0966 101.763 90.396 100.462C86.2371 96.8176 81.4711 92.2019 81.0272 86.6654C80.5832 81.1296 80.7808 76.9336 81.1317 76.9336Z" fill="black"/>
<path d="M102.285 87.8648C104.668 84.0368 109.401 84.6583 113.085 86.4026C115.12 85.0207 117.805 85.2749 120.013 86.2487L120.012 86.2501C122.046 87.3629 123.586 89.1902 125.003 90.9388C125.347 91.4028 125.484 92.0272 125 92.2556C122.717 94.1374 117.975 93.0332 115.824 91.6341C115.188 91.5828 114.869 91.1827 114.592 90.8341C114.192 90.3315 113.878 89.936 112.82 90.8472C111.624 91.9721 110.122 92.6688 108.49 93.0819C104.842 94.335 101.483 94.1274 98.3054 92.174C97.8966 92.1339 96.2224 91.1866 96.8168 90.85C97.4641 91.0247 101.049 88.9661 102.285 87.8648Z" fill="black"/>
<path fill-rule="evenodd" clip-rule="evenodd" d="M80.5752 81.0485C80.5988 80.8473 80.9117 80.8373 80.9189 81.0485C81.0635 85.478 82.5049 90.3336 84.9431 94.1257C90.8032 103.697 102.763 108.493 114.275 106.845C122.687 106.73 123.586 101.962 125.677 95.3037C126.763 94.4122 127.295 94.7315 126.958 95.7762C124.366 103.811 123.479 108.42 113.223 108.332C96.755 110.684 78.8969 97.2141 80.5752 81.0485ZM103.84 84.6202C106.527 83.4201 109.723 83.5898 111.967 85.2489L112.126 85.2847C112.519 85.3728 112.896 85.4394 113.338 85.395C119.276 82.2673 123.241 87.7214 126.285 91.805C126.515 91.8129 126.702 91.9934 126.64 92.2046L126.737 92.3084C126.354 93.3374 125.661 94.3313 124.713 94.9549C121.606 99.0937 119.286 97.7998 115.238 96.0956C111.077 95.4726 110.908 100.38 105.101 98.132L104.882 98.0612C102.972 97.4296 100.779 96.4722 99.3901 95.0888C99.345 95.0437 99.3894 94.9564 99.4588 94.9793C102.681 95.951 106.824 99.1238 110.104 96.9864C110.933 96.4293 111.677 95.754 112.605 95.3344C117.896 93.5637 119.755 100.558 124.385 93.2966C120.615 93.9539 116.365 93.3001 113.548 90.7324C109.335 95.8077 101.135 94.9943 95.9223 91.8423C95.2091 91.9447 94.1536 91.2394 94.8102 90.5677C95.5292 89.9963 96.6648 90.2204 97.5484 89.9104C100.367 88.9072 101.032 85.7107 103.84 84.6202ZM113.259 86.7426C110.281 84.6238 105.827 84.2672 102.978 86.7669C101.198 88.5549 100.043 91.1205 97.1746 91.5938C102.102 94.4308 109.181 94.4788 112.975 89.9641C113.094 89.5738 113.712 89.7421 113.786 90.0815C116.503 91.9776 119.977 92.9851 123.361 92.4037C123.906 92.3141 124.445 92.1867 124.97 92.0234L124.47 91.3367C121.815 87.7021 118.399 83.4695 113.334 86.459C113.22 86.517 113.172 86.3688 113.158 86.2929L113.095 86.338C113.14 86.4318 113.513 86.7411 113.259 86.7426ZM125.452 93.0538C125.477 93.076 125.497 93.1004 125.515 93.1261C125.598 93.0825 125.685 93.0381 125.774 92.9958L125.749 92.9786C125.654 93.0058 125.555 93.0309 125.452 93.0538ZM80.9583 75.5529L80.9568 75.4075C80.9568 73.9453 81.3499 75.7884 81.5261 76.1515C82.2844 77.517 82.9181 78.8682 83.7215 80.1993C86.9416 85.995 87.4407 88.5076 93.9295 91.8093C94.4114 92.2218 93.9052 92.9629 93.3065 92.8111C92.4108 92.5827 91.5658 92.012 90.7853 91.5516C86.3666 89.2716 84.7182 84.6209 82.7355 80.5731C82.1534 78.9677 80.8108 77.2556 80.9583 75.5529Z" fill="black"/>
</g>
<defs>
<clipPath id="clip0_2321_59967">
<rect width="194" height="196" fill="white"/>
</clipPath>
</defs>
</svg>
