<svg width="194" height="196" viewBox="0 0 194 196" fill="none" xmlns="http://www.w3.org/2000/svg">
<g clip-path="url(#clip0_1317_51694)">
<rect width="194" height="196" fill="#FFDFDF"/>
<path fill-rule="evenodd" clip-rule="evenodd" d="M37.0842 209.285C37.4921 205.498 37.7426 201.685 37.8873 197.88C38.0312 194.079 37.8428 190.231 37.7601 186.429C37.5915 178.693 37.318 170.94 37.9334 163.217C38.5155 155.918 39.8505 148.669 41.9583 141.655C42.9849 138.24 44.0662 134.687 45.7543 131.531C47.4519 128.358 50.141 126.245 53.0941 124.307C56.2388 122.244 59.3581 120.142 62.4901 118.059C65.1196 116.311 69.8514 114.277 72.0086 111.941C74.2787 109.481 74.7048 103.387 76.2172 100.474C77.689 97.6371 81.8562 95.7869 85.0654 95.7869C90.3768 95.7869 94.4009 95.5149 98.7678 100.43C100.947 102.883 99.213 105.362 101.497 107.715C103.597 109.879 108.967 112.103 111.673 113.358C114.915 114.863 118.238 116.191 121.61 117.373C125.049 118.58 128.574 119.479 132.033 120.618C135.348 121.709 139.677 126.208 142.25 128.588C144.643 130.802 145.237 130.554 147.055 133.242C151.047 139.143 155.044 145.111 158.223 151.5C159.806 154.682 161.339 158.029 161.914 161.563C162.527 165.333 161.919 168.975 160.925 172.625C159.914 176.339 156.701 179.875 155.655 183.58C155.172 185.287 156.828 187.15 156.067 188.759C155.686 189.563 155.207 190.277 154.662 190.978C154.242 191.517 152.603 191.398 152.391 192.058C152.177 192.725 153.363 194.108 153.38 194.798C153.405 195.787 153.445 196.774 153.477 197.762L153.668 203.6C153.794 207.438 153.92 211.274 154.046 215.112C154.087 216.364 154.147 217.588 153.847 218.776C153.955 218.675 154.058 218.566 154.152 218.443C154.428 218.084 155.012 218.388 154.778 218.809C154.388 219.511 153.827 220.006 153.168 220.36C152.402 221.49 36.4219 224.012 35.851 220.71C35.5305 218.857 36.1134 216.874 36.3463 215.033C36.5889 213.116 36.8775 211.207 37.0842 209.285Z" fill="white"/>
<path fill-rule="evenodd" clip-rule="evenodd" d="M154.898 161.571C154.615 160.758 153.317 161.11 153.603 161.928C155.071 166.137 154.029 170.717 152.441 174.735C152.123 175.541 153.423 175.887 153.737 175.092C155.408 170.866 156.441 165.991 154.898 161.571ZM145.049 185.612C140.907 186.195 136.761 186.555 132.59 186.846C132.404 186.859 132.242 186.831 132.103 186.77C132.227 188.681 132.328 190.593 132.407 192.505C133.544 192.474 134.705 192.549 135.832 192.519C137.305 192.478 138.777 192.404 140.247 192.292C143.092 192.077 145.933 191.734 148.747 191.26C149.798 191.084 151.134 190.976 152.332 190.626C153.464 190.296 154.472 189.748 155.001 188.716C155.451 187.842 155.533 186.772 155.533 185.806C155.533 185.14 155.419 184.464 155.35 183.794C155.265 183.734 155.187 183.661 155.125 183.581C153.875 183.975 152.579 184.253 151.309 184.521C149.241 184.962 147.143 185.318 145.049 185.612ZM147.386 170.074C147.363 171.358 147.008 172.525 146.317 173.606C145.849 174.338 147.013 175.012 147.477 174.285C148.291 173.012 148.703 171.582 148.73 170.074C148.745 169.207 147.401 169.21 147.386 170.074ZM41.1981 184.086C40.6375 184.118 40.073 184.137 39.5101 184.167C39.0139 184.591 38.3269 184.809 37.6995 184.673C37.6781 184.728 37.6582 184.789 37.6407 184.859C37.5294 185.291 37.4737 185.755 37.4101 186.195C37.3465 186.629 37.298 187.066 37.2638 187.502C37.2471 187.723 37.1414 188.22 37.2758 188.412C37.3966 188.585 37.6638 188.569 37.849 188.592C38.346 188.645 38.8501 188.67 39.3502 188.713C40.2964 188.795 41.2418 188.877 42.1857 188.96C43.112 189.04 44.1282 189.016 45.033 189.259C45.1881 187.442 45.3288 185.626 45.46 183.807C44.0574 184.014 42.5912 184.009 41.1981 184.086ZM158.808 181.073C158.243 182.164 157.722 183.236 156.642 183.891C156.501 183.975 156.343 184.021 156.182 184.032C156.303 184.552 156.379 185.083 156.446 185.573C156.594 186.654 156.625 187.771 156.355 188.837C156.091 189.873 155.654 190.8 154.798 191.464C154.4 191.773 153.964 192.008 153.508 192.194C153.585 192.412 153.63 192.627 153.607 192.864C153.716 193.413 153.788 193.972 153.867 194.508C154.04 195.699 154.213 196.89 154.349 198.086C154.621 200.466 154.835 202.846 155.014 205.234C155.194 207.615 155.324 210 155.431 212.386C155.486 213.606 155.535 214.826 155.581 216.047C155.626 217.303 155.829 218.587 155.275 219.752C154.828 220.693 153.318 220.639 152.854 219.752C152.266 218.624 152.439 217.285 152.424 216.047C152.409 214.883 152.389 213.717 152.364 212.552C152.313 210.167 152.239 207.785 152.181 205.4C152.123 203.073 152.053 200.747 152.006 198.42C151.982 197.201 151.981 195.982 151.974 194.764C151.971 194.088 151.942 193.368 151.992 192.664C151.572 192.762 151.149 192.846 150.731 192.932C147.537 193.588 144.31 194.065 141.063 194.36C139.432 194.508 137.796 194.612 136.16 194.672C134.957 194.715 133.711 194.799 132.489 194.754C132.585 197.671 132.629 200.59 132.624 203.51C132.62 205.615 132.592 207.721 132.54 209.826C132.511 210.934 132.488 212.042 132.454 213.148C132.439 213.646 132.439 214.149 132.405 214.644C132.395 214.799 132.373 214.949 132.345 215.096C132.456 215.411 132.548 215.721 132.624 216.012C132.993 217.424 132.993 218.78 132.829 220.219C132.688 221.438 131.661 222.57 130.306 222.141C130.085 222.072 129.865 222 129.647 221.926C127.651 222.153 125.644 222.205 123.62 222.244C120.662 222.301 117.702 222.319 114.742 222.335C108.937 222.365 103.129 222.38 97.3221 222.397C85.6521 222.43 73.982 222.462 62.3119 222.496C59.0734 222.506 55.8348 222.514 52.5962 222.525C50.9193 222.529 49.2464 222.531 47.5718 222.595C46.7902 222.626 46.0078 222.667 45.2262 222.679C44.3214 222.694 43.5199 222.433 42.6548 222.197C42.1658 222.06 41.9726 221.57 42.0767 221.155C41.2943 221.341 40.3449 220.945 40.0778 220.063C39.883 219.422 39.9553 218.728 40.2455 218.135V218.133C40.8069 214.589 41.5193 211.061 42.0783 207.516C42.6914 203.632 43.2813 199.74 43.8006 195.842C44.1902 192.897 44.5106 194.985 44.7881 192.027C43.5803 192.121 42.2143 191.752 41.0184 191.597C40.1597 191.485 39.2946 191.396 38.435 191.278C38.4987 192.146 38.4804 193.03 38.5034 193.862C38.5487 195.513 38.5289 197.158 38.4867 198.811C38.4064 201.998 38.2267 200.143 37.9397 203.317C37.6487 206.515 37.2924 209.702 36.8607 212.885C36.6389 214.523 36.4019 216.16 36.1522 217.795C36.0361 218.558 35.9169 219.319 35.7944 220.083C35.6481 220.981 35.6012 221.834 34.9269 222.509C34.4149 223.022 33.3685 222.978 33.029 222.264C32.5988 221.361 32.7936 220.588 32.9534 219.641C33.083 218.879 33.2071 218.118 33.3295 217.357C33.5919 215.725 33.8408 214.091 34.0738 212.457C34.5238 209.306 34.9492 206.15 35.3285 202.99C35.7117 199.805 36.1085 201.666 36.4846 198.482C36.6746 196.875 36.8639 195.272 37.0857 193.67C37.1986 192.846 37.2694 191.969 37.4165 191.121C37.3696 191.114 37.3227 191.106 37.2758 191.097C36.254 190.91 35.3825 190.334 35.1257 189.282C34.88 188.275 35.1726 187.118 35.3794 186.13C35.5559 185.288 35.7149 184.214 36.2564 183.493C34.3481 181.061 33.1069 178.001 32.3149 175.059C31.453 171.854 31.0921 168.509 31.0157 165.198C30.9267 161.36 31.2161 157.546 31.8729 153.794C31.8888 152.999 31.9253 152.204 31.9842 151.411C32.5622 143.62 34.9882 134.399 42.6778 130.759C42.7081 130.744 42.7407 130.73 42.7725 130.717C43.3752 129.996 44.1281 129.347 44.7356 128.741C45.813 127.665 46.9381 126.636 48.1308 125.688C50.4931 123.812 53.0829 122.312 55.776 120.963C58.4993 119.597 61.2623 118.314 63.9228 116.824C66.2414 115.524 68.3278 113.957 70.3085 112.189C72.5341 110.201 74.1179 107.521 74.7397 104.595C74.7715 104.442 74.9982 104.484 75.0013 104.63C75.1643 109.993 71.5465 114.732 67.3816 117.73C62.4026 121.311 56.3906 123.007 51.3407 126.479C50.086 127.341 48.9124 128.314 47.7953 129.347C49.5064 129.173 51.2485 129.283 52.8531 129.757C53.4844 129.718 54.1197 129.707 54.7526 129.677C56.2006 129.604 57.6509 129.537 59.1004 129.473C62.0551 129.342 65.0114 129.223 67.9684 129.119C73.7689 128.914 79.5709 128.759 85.373 128.657C97.0327 128.45 108.708 128.409 120.366 128.747C123.527 128.838 140.151 128.208 141.69 128.386C139.427 126.426 136.944 124.827 134.215 123.511C130.799 121.869 127.27 120.773 123.623 119.772C116.113 117.709 108.313 115.722 102.303 110.483C100.81 109.181 99.4825 107.684 98.3956 106.025C97.3571 104.442 96.2034 102.415 96.1748 100.485C96.1541 99.1138 98.0624 98.6144 98.7414 99.7888C99.1629 100.516 99.3712 101.315 99.7155 102.078C100.058 102.834 100.464 103.563 100.917 104.261C101.805 105.632 102.907 106.855 104.107 107.96C106.663 110.316 109.761 112.042 112.966 113.347C120.243 116.31 128.202 117.56 135.098 121.466C138.115 123.174 141.003 125.533 142.815 128.541C143.108 128.586 143.398 128.64 143.689 128.7C143.472 128.426 143.254 128.153 143.034 127.88C142.889 127.702 143.113 127.467 143.289 127.625C146.718 130.676 149.876 133.972 152.738 137.564C155.476 141.003 158.03 144.606 159.837 148.633C163.086 155.866 163.802 164.138 162.124 171.873C161.667 173.98 161.022 176.043 160.2 178.038C159.777 179.069 159.318 180.083 158.808 181.073Z" fill="black"/>
<path fill-rule="evenodd" clip-rule="evenodd" d="M84.7899 30.2256C75.2516 30.2256 63.3048 41.1103 59.8086 45.7423C56.869 49.6365 57.2849 69.6985 57.2849 81.5995C57.2849 84.0883 58.41 88.7986 58.8179 91.18C60.3143 99.9041 66.832 107.221 79.7329 107.221C90.2381 107.221 98.3214 103.892 106.139 95.3791C107.923 93.4366 116.632 100.39 118.413 97.8861C123.066 97.8861 126.956 54.3983 117.821 41.3545C108.687 28.3108 94.3283 30.2256 84.7899 30.2256Z" fill="white"/>
<path fill-rule="evenodd" clip-rule="evenodd" d="M113.458 33.2879C107.946 28.2716 100.604 25.8583 93.1953 26.0365C89.3589 26.1289 85.5351 26.86 81.9117 28.1119C80.0996 28.7404 78.344 29.5605 76.6654 30.4881C76.0612 30.8217 75.5038 31.2125 74.9671 31.6275L74.8327 31.7317H74.8311C73.3919 32.2493 72.107 33.1787 70.9405 34.2659C68.6045 34.0794 66.2493 34.2895 63.9896 35.0104C60.8448 36.0153 57.9339 37.8555 55.8896 40.4686C53.5082 43.5109 52.7162 47.2011 52.9985 51.0105L53.051 51.6577C53.3301 55.0228 53.831 59.3512 56.5917 61.5623C56.8016 61.7304 57.0338 61.8581 57.2739 61.9354C55.4944 64.9838 54.0346 68.3684 53.1615 71.7865C49.8267 84.842 52.3902 98.4578 56.4001 111.041C56.7292 112.078 58.2964 112.767 59.0947 111.754C60.5188 109.943 62.5885 108.561 64.9167 108.302C66.3534 108.142 67.7831 108.432 69.1404 107.78C69.6723 107.522 70.1868 107.102 70.5565 106.591C72.8473 107.46 75.3153 107.871 77.7627 107.77C81.7789 107.605 86.0726 106.213 88.8365 103.162C89.2793 102.672 89.3923 102.122 89.2897 101.626C88.943 101.502 88.5876 101.41 88.221 101.352C84.7169 103.419 80.8542 104.799 76.7028 104.886C74.3047 104.936 71.9647 104.6 70.0198 103.102C69.5992 102.778 69.2119 102.418 68.8541 102.033C64.7879 99.4159 61.9206 94.9712 60.5578 90.2099C59.288 85.77 59.4438 81.1471 59.8803 76.5926L60.1109 74.1897C60.4473 70.6623 60.7589 67.1245 60.8456 63.5823L60.8194 63.581C59.9606 63.5255 59.9543 62.1806 60.8194 62.2365C63.0569 62.3814 65.2776 62.0142 67.508 62.1742C67.5263 61.1194 67.6026 60.0692 67.9127 59.0518C68.0892 58.4705 69.1014 58.3559 69.208 59.0518C69.3519 59.9828 69.4044 60.9086 69.4195 61.8438C72.7574 61.7994 76.093 61.5184 79.4309 61.6339C80.0471 60.9769 80.2427 59.8118 80.5314 59.0012C80.5727 58.8819 80.6148 58.7643 80.6586 58.645C80.9122 59.8032 81.2708 60.936 81.7423 62.045L82.5613 62.0477C87.2072 62.0695 91.947 62.2084 96.4832 63.1736C96.7989 62.9314 96.9865 62.5089 97.0374 62.1253C97.3666 59.6288 97.8357 57.1987 98.6682 54.8196L98.7875 54.4839C98.797 54.456 98.8073 54.4265 98.8177 54.3953C99.4315 55.3856 100.163 56.3088 100.961 57.1683C101.431 57.675 101.925 58.1595 102.431 58.6302C102.923 59.1764 103.431 59.7143 103.923 60.2621C103.904 60.3618 103.887 60.463 103.874 60.5659C103.723 61.7028 103.707 62.8558 103.817 63.9971C104.017 66.0602 104.599 68.0482 105.535 69.8874L105.564 70.0715C105.707 70.9334 105.909 71.8241 106.38 72.4731C105.792 73.133 105.338 73.9218 105.075 74.798C104.841 75.578 105.919 76.2539 106.479 75.6154C106.922 75.1081 107.416 74.6891 107.958 74.3543C107.993 74.4004 108.055 74.4235 108.124 74.3845C109.635 73.5457 112.2 73.8001 113.708 74.5897C115.584 75.5709 116.317 77.5857 116.109 79.6276C115.909 81.5788 115.055 83.8593 113.401 84.8595C112.641 85.3175 112.05 85.3565 111.244 85.1362C110.986 85.0663 110.666 84.8516 110.529 84.745L110.394 84.6369C109.865 84.2187 109.373 83.9324 108.749 83.9213C108.111 83.7225 107.469 83.9984 107.225 84.6679L107.21 84.7116C107.096 85.0528 106.888 85.4805 106.934 86.0021C106.98 86.5595 107.236 87.0676 107.617 87.4755C107.683 87.5463 107.753 87.617 107.825 87.6822C101.257 94.7962 100.413 105.88 103.782 114.767C103.928 115.157 104.084 115.542 104.247 115.924C104.81 117.231 106.976 116.826 107.252 115.53C107.334 115.142 107.426 114.756 107.524 114.372C107.706 113.664 107.916 112.962 108.151 112.272L108.24 112.012C108.44 111.441 108.626 110.865 108.828 110.293L108.848 110.228C108.856 110.203 108.864 110.172 108.874 110.139L109.215 110.883L110.251 113.13C110.736 114.179 112.277 113.609 112.334 112.598L112.336 112.564C112.341 112.377 112.347 112.193 112.359 112.009C112.433 110.637 112.67 109.302 113.046 107.996L113.182 108.165C115.203 110.665 117.576 113.009 120.831 113.586C121.647 113.73 122.571 112.877 122.01 112.051C121.778 111.71 121.555 111.36 121.343 111.006C121.526 110.921 121.699 110.832 121.859 110.741C123.093 110.047 124.121 109.058 124.971 107.937C126.774 105.561 127.419 102.57 127.577 99.6425C127.745 96.5487 127.473 93.2871 126.628 90.3022C126.261 89.0117 125.766 87.7729 125.193 86.5714C125.233 86.4641 125.272 86.3568 125.311 86.2486C125.929 84.5248 126.436 82.762 126.858 80.9785C127.708 77.379 128.165 73.6649 128.22 69.9665C128.321 63.3403 127.179 56.6082 124.771 50.429C122.285 44.0566 118.546 37.9176 113.458 33.2879ZM116.553 91.2213C117.01 90.5026 118.152 91.1506 117.728 91.8749L117.713 91.9004C116.988 93.0414 116.649 94.339 116.233 95.6112C115.965 96.4294 114.667 96.0796 114.937 95.2534L115.027 94.9767C115.441 93.687 115.82 92.3759 116.553 91.2213ZM112.578 77.4951L112.274 77.348C111.318 76.8916 110.479 76.5807 109.349 76.979C107.835 77.5118 106.215 79.2078 107.237 80.8529C107.613 81.4596 108.282 81.7013 108.971 81.559C110.132 81.318 110.432 80.2717 111.021 79.4129L111.122 79.2674C111.482 78.7482 111.936 78.0302 112.534 77.8258C112.67 77.7789 112.727 77.5674 112.578 77.4951ZM111.724 42.5644L111.626 42.4769C110.976 41.9022 111.93 40.9543 112.577 41.5257C115.537 44.1423 116.565 48.2377 118.101 51.728C118.445 52.5128 117.288 53.1985 116.94 52.407C115.475 49.0763 114.503 45.0921 111.724 42.5644ZM76.155 41.4199C76.9286 41.0712 77.6053 42.1972 76.8611 42.5679L76.8332 42.5811C74.2196 43.7625 73.1081 46.4378 72.0426 48.9216C71.7031 49.7149 70.5462 49.0309 70.8817 48.2443L71.0741 47.7987C72.1857 45.2391 73.4818 42.63 76.155 41.4199ZM72.0585 39.8032C72.8783 39.5192 73.2289 40.8165 72.4163 41.1005C70.2003 41.8719 68.68 43.5356 67.3982 45.4379C66.918 46.1505 65.7539 45.4783 66.239 44.759C67.7274 42.5508 69.495 40.6972 72.0585 39.8032Z" fill="black"/>
<path fill-rule="evenodd" clip-rule="evenodd" d="M76.5575 95.419C77.6866 94.9586 78.6948 94.1897 79.4311 93.2077C79.6872 92.8658 79.754 92.5056 79.6999 92.1756C79.6395 91.8051 79.42 91.4688 79.121 91.2437C78.8213 91.0179 78.446 90.9058 78.0834 90.9631C77.7685 91.0124 77.4544 91.1849 77.2064 91.5427L77.1547 91.6143C76.7166 92.2074 76.1457 92.6933 75.4952 93.0073C74.8687 93.3095 74.1682 93.4502 73.4422 93.3683C72.0611 93.2125 71.1085 92.4651 70.0963 91.4497C69.9715 91.3217 69.8459 91.1897 69.7195 91.0553C69.6399 90.9337 69.5294 90.8549 69.407 90.8144C69.2702 90.7683 69.1159 90.7714 68.9752 90.8207C68.8384 90.8677 68.7168 90.9583 68.6357 91.0784C68.5578 91.1921 68.514 91.3328 68.5284 91.495C68.6206 92.5462 69.1708 93.4852 69.9516 94.2223C70.8183 95.0413 71.9681 95.6074 73.0502 95.8062C74.2429 96.0248 75.4579 95.8682 76.5575 95.419ZM72.4881 79.192C71.2191 79.9633 69.2869 81.7619 70.6513 83.6741C72.2575 85.3606 74.5705 83.4277 75.7099 82.553C76.7667 81.8756 77.9538 83.6185 76.9734 84.4096C68.7383 90.5091 65.3964 79.394 71.8464 78.2856C72.5565 78.1631 72.8204 78.9535 72.4881 79.192ZM87.2456 72.097C87.1057 70.3566 84.4555 69.9614 84.1923 71.6836C83.9562 73.2262 84.2345 74.6431 84.9286 76.0322C85.5926 77.3592 87.2607 76.7406 87.3872 75.532C87.5557 73.9124 87.3331 73.1793 87.2456 72.097ZM67.0764 71.3265C66.7075 70.8425 66.174 70.5121 65.5347 70.6989C63.5381 71.2825 64.1265 74.1183 64.8278 75.4979C65.2087 76.2477 66.4404 76.4377 66.9969 75.7777C67.9042 74.7019 68.3383 72.5524 67.1854 71.4924C67.1544 71.4376 67.1194 71.3823 67.0764 71.3265ZM84.9565 64.4817L84.6416 64.4264C83.666 64.2576 82.4526 64.0954 81.7624 64.8801C81.3967 65.2962 81.2703 66.0696 81.7624 66.4678C82.6283 67.1686 83.5849 66.897 84.6217 66.9564C85.4765 67.0054 86.2978 67.147 87.1216 67.3824C88.9273 67.8988 90.3991 68.8415 91.9417 69.8768C92.1444 70.0125 92.3511 69.7535 92.2541 69.5641C91.3636 67.8193 89.6382 66.386 87.9096 65.5123C86.9872 65.046 85.9774 64.6591 84.9565 64.4817ZM68.8965 63.7L68.6556 63.7495C66.0285 64.2987 62.6158 65.396 61.3714 67.9771C61.3245 68.3421 61.3746 68.4204 61.4151 68.4715L61.4287 68.4885C61.4621 68.5321 61.4891 68.5923 61.6473 68.642C61.6911 68.6315 61.7356 68.6204 61.7801 68.6086C62.3502 68.4592 62.8011 68.2532 63.2384 68.0396L63.7115 67.8062C64.2609 67.5367 64.8151 67.277 65.4027 67.0853C66.6566 66.6762 67.9455 66.3882 69.2551 66.2343C69.539 66.201 69.8117 66.1052 70.028 65.9409C70.2323 65.7851 70.3882 65.5693 70.4597 65.2824C70.552 64.9112 70.5257 64.6301 70.3269 64.2952C70.1766 64.0437 69.9628 63.8694 69.7163 63.7693C69.4658 63.6672 69.1804 63.6432 68.8965 63.7Z" fill="black"/>
<path fill-rule="evenodd" clip-rule="evenodd" d="M58.3226 80.6965C59.4533 82.2168 61.55 82.701 63.4846 82.5333C67.6558 82.1317 68.9686 77.3928 69.1053 73.7089C66.3081 74.4961 69.3415 68.9214 59.7801 68.3084C56.4096 68.0274 57.3391 70.0638 55.8498 71.5517C55.88 74.6742 56.4 78.0678 58.3226 80.6965ZM78.1897 77.1081C80.653 88.6454 94.1383 85.9014 95.5544 75.5012C94.2465 74.5772 94.5915 72.297 92.9663 71.4707C90.3909 69.8244 87.1706 69.8948 84.2461 69.9334C80.5075 70.1904 79.442 71.7397 77.5218 73.4299C77.614 74.5589 77.8812 75.8971 78.1897 77.1081ZM52.9802 66.3977C53.1185 66.3746 53.2569 66.353 53.3952 66.3326C53.5034 66.2713 53.6306 66.2241 53.7777 66.1956C54.1148 66.1102 54.4488 66.0525 54.7827 66.0214C59.5757 64.9424 70.6638 66.4745 71.1218 70.5661C72.6476 71.0759 73.9683 70.6194 75.7375 70.6648C77.0844 65.0343 100.364 65.829 101.484 69.2236C101.488 69.2224 101.492 69.2214 101.496 69.2201C102.572 68.887 104.159 68.9673 105.389 68.9146C108.019 68.8595 110.651 69.0939 113.223 69.6486C118.04 70.4144 124.614 71.3109 121.264 77.3284C121.263 77.3292 121.263 77.3307 121.262 77.3315H121.262C120.684 77.9231 119.704 77.4468 119.668 76.6454C120.794 73.794 118.25 73.4521 116.293 72.6327C111.422 70.8823 106.464 70.6396 101.426 71.1811C101.048 71.6274 100.473 72.0166 99.8648 72.2203C96.4975 72.7795 98.2722 75.2785 96.1428 75.6419C96.534 84.3541 85.9612 89.1098 79.8348 83.3825C77.389 80.9907 76.8054 77.4468 76.2384 74.252C75.9387 74.1844 75.7478 74.0206 75.6365 73.8036C74.9153 73.0832 74.4629 72.4181 73.0364 72.2203C71.6108 72.0226 70.5127 72.4194 70.364 72.5409C70.3267 72.6164 70.2869 72.692 70.24 72.7676C70.1748 72.8803 70.0857 72.9703 69.9855 73.041C71.3937 81.7167 64.6614 87.203 57.8646 82.7034C54.9115 79.9245 54.2874 75.6697 54.1641 71.872C53.7642 71.6304 53.5105 71.1621 53.6489 70.5732C53.8397 69.7615 53.3921 69.0587 52.6788 68.7059C51.7517 68.2475 51.9163 66.574 52.9802 66.3977Z" fill="black"/>
</g>
<defs>
<clipPath id="clip0_1317_51694">
<rect width="194" height="196" fill="white"/>
</clipPath>
</defs>
</svg>
