<svg width="40" height="28" viewBox="0 0 40 28" fill="none" xmlns="http://www.w3.org/2000/svg">
<path d="M18.7844 16.5821C18.7671 16.5312 18.751 16.479 18.7331 16.4292V16.4288C18.3475 15.3164 17.694 14.3183 16.8308 13.5242C16.5647 13.2812 16.2818 13.058 15.9836 12.8563C15.9346 12.8227 15.8875 12.7872 15.8378 12.7544C15.788 12.7215 15.7631 12.6999 15.7237 12.6748H15.7241C15.4603 12.5118 15.1873 12.3646 14.9067 12.2333C14.8133 12.1893 14.7146 12.153 14.6185 12.112C14.3727 12.0066 14.1216 11.9123 13.8647 11.8301C13.7464 11.7918 13.6296 11.754 13.5086 11.7211H13.509C13.1542 11.6222 12.7935 11.5446 12.429 11.4894C12.4103 11.4894 12.393 11.4809 12.3743 11.4782C12.3555 11.4755 12.3142 11.4782 12.2885 11.4782C11.2005 11.3287 10.0945 11.3785 9.02385 11.6261C9.27383 10.7536 9.68958 9.9386 10.2477 9.22596C10.848 8.42835 12.4823 6.55578 14.7524 6.41902V6.41941C15.3906 6.38117 15.904 5.87595 15.958 5.23284L16.2796 1.4093V1.40969C16.3113 1.02884 16.1754 0.653407 15.9078 0.383006C15.6398 0.112626 15.2677 -0.0248796 14.8903 0.00717766C9.46635 0.462189 1.34912 4.93037 0.217182 12.131C-0.527037 16.8688 0.676955 21.921 3.28361 25.0014H3.28399C4.61008 26.6627 6.53614 27.7241 8.63821 27.9516H8.65391C8.88973 27.974 9.12708 27.9921 9.36903 27.9921V27.9925C12.3819 28.1092 15.2879 26.8562 17.2866 24.5785C18.8792 22.6762 19.5377 20.1509 19.0786 17.7042C19.0078 17.3234 18.9094 16.9483 18.7846 16.5821L18.7844 16.5821ZM5.23538 23.3099C3.12948 20.8217 2.13181 16.4902 2.75354 12.5319C3.56819 7.34833 9.19687 3.80017 13.5731 2.8261L13.4782 3.98024C10.326 4.68785 7.88199 7.46115 6.85873 9.97955C6.20946 11.5787 6.24392 12.8969 6.95482 13.693C7.25189 14.0105 7.63663 14.2311 8.05932 14.3253C8.48196 14.42 8.92298 14.384 9.32533 14.2226C9.63159 14.1361 9.94436 14.0743 10.261 14.0383C10.2747 14.0383 10.2866 14.0461 10.3004 14.048C11.2138 14.1778 14.2408 14.8553 14.83 18.1562L14.8296 18.1558C15.1286 19.7611 14.7362 21.4189 13.7508 22.7147C12.4913 24.2624 10.6511 25.2131 8.66992 25.3389C7.31316 25.1226 6.08664 24.398 5.23558 23.3099L5.23538 23.3099ZM39.857 17.6992V17.6988C39.7874 17.3199 39.6909 16.9468 39.568 16.5822C39.5508 16.5312 39.5347 16.4802 39.5167 16.43L39.5163 16.4296C39.0076 14.9672 38.0413 13.7115 36.763 12.8521C36.7159 12.82 36.6704 12.7856 36.6214 12.7543C36.5724 12.723 36.5467 12.6991 36.5065 12.674V12.6736C36.2424 12.5098 35.969 12.3619 35.6877 12.231C35.5969 12.1877 35.5008 12.1529 35.4074 12.1132C35.1578 12.0058 34.904 11.9108 34.6433 11.8277C34.5277 11.7906 34.4136 11.7524 34.2942 11.7196C33.9381 11.6203 33.5768 11.543 33.2119 11.4874C33.1932 11.4874 33.1759 11.4789 33.1572 11.4762C33.1384 11.4735 33.0978 11.4762 33.0714 11.4762C31.9831 11.326 30.8766 11.3758 29.8059 11.6234C30.0544 10.7508 30.4698 9.93548 31.0287 9.22323C31.629 8.42562 33.2644 6.55305 35.5342 6.4163V6.41668C36.1705 6.37612 36.6812 5.87129 36.7348 5.2305L37.0564 1.40697C37.0881 1.0265 36.9522 0.651072 36.6846 0.380681C36.417 0.110686 36.0453 -0.0272038 35.6678 0.00446784C30.2439 0.459479 22.1267 4.92766 20.9958 12.1283C20.2515 16.8661 21.4544 21.9183 24.0614 24.9986C25.3871 26.66 27.3132 27.7213 29.4148 27.9493H29.4286C29.6652 27.9717 29.9018 27.9898 30.1437 27.9898C33.1566 28.1069 36.0623 26.8543 38.0606 24.5764C39.6561 22.6746 40.3162 20.1477 39.8572 17.6988L39.857 17.6992ZM26.018 23.3099C23.9121 20.8217 22.9156 16.4902 23.5373 12.5319C24.3512 7.34833 29.9807 3.80017 34.3569 2.8261L34.26 3.98024C31.1071 4.68785 28.6632 7.46115 27.6406 9.97955C26.9906 11.5787 27.025 12.8969 27.7348 13.693C28.0326 14.0101 28.4173 14.2299 28.84 14.3242C29.2626 14.4188 29.7032 14.3833 30.106 14.2226C30.4122 14.1361 30.725 14.0743 31.0412 14.0383C31.055 14.0383 31.0669 14.0461 31.0814 14.048C31.9948 14.1778 35.021 14.8553 35.6099 18.1562L35.6102 18.1558C35.9096 19.7611 35.5172 21.4189 34.5314 22.7147C33.2723 24.2628 31.4317 25.2135 29.4505 25.339C28.0942 25.1219 26.8687 24.3977 26.0182 23.3099L26.018 23.3099Z" fill="#0F143A" fill-opacity="0.4"/>
</svg>
