<svg width="194" height="196" viewBox="0 0 194 196" fill="none" xmlns="http://www.w3.org/2000/svg">
<g clip-path="url(#clip0_1317_51639)">
<rect width="194" height="196" fill="#FFDFDF"/>
<path fill-rule="evenodd" clip-rule="evenodd" d="M34.6077 241.386C30.5879 241.476 32.3115 203.973 34.9958 197.062C35.3718 195.662 35.6821 193.748 35.6198 192.029C32.2999 192.361 32.6572 190.089 32.8288 187.349C32.7723 185.173 32.6213 180.684 35.9508 182.432C45.9329 162.447 35.1398 110.786 61.4231 105.92C64.5901 105.151 67.863 104.355 70.53 102.159C73.3512 96.9437 74.7881 96.2773 79.4633 95.9399C80.3296 91.2422 81.9478 86.2231 86.7702 84.3955C91.1851 82.6648 96.3237 82.5273 100.928 83.4501C104.738 84.693 105.087 91.7762 105.933 95.2683C111.065 93.9072 117.39 91.0449 120.153 97.5336C121.491 97.1339 122.731 97.3935 124.091 97.8382C135.489 99.6749 146.547 104.831 150.774 115.589C153.385 122.045 151.532 129.073 150.553 135.76C149.64 143.04 152.048 149.785 153.164 156.789C154.827 166.432 155.127 174.167 154.042 181.335C156.91 181.988 157.121 184.595 155.961 187.324C155.621 188.248 155.277 189.221 154.524 189.744C152.992 190.708 151.011 189.596 149.346 189.426C149 193.277 148.329 197.056 147.219 201.35C147.541 202.636 147.909 204.071 148.24 205.362L148.352 205.241C152.154 221.165 163.461 236.634 159.947 253.558C159.74 254.122 159.348 254.005 159.047 253.995C157.302 254.659 155.7 254.238 153.941 254.305C149.768 254.308 145.737 254.842 141.997 255.308C141.313 259.773 139.091 267.085 135.127 268.788C135.06 268.81 133.885 268.565 133.787 268.558C144.339 311.343 163.324 350.905 170.865 394.552C170.91 395.085 170.043 394.803 169.759 394.867C169.798 396.078 169.015 396.37 167.919 396.8C169.332 399.752 170.604 402.701 172.009 405.66C172.661 407.125 173.723 408.572 173.917 410.138C175.473 411.133 176.521 413.077 176.493 414.891C180.69 416.665 179.549 425.426 180.507 429.765C181.475 436.229 186.08 440.744 189.237 446.044C189.88 447.108 190.565 448.502 190.596 449.838C192.553 450.755 193.283 452.76 193.153 456.134C193.16 460.081 192.047 461.584 189.045 461.68C180.89 462.494 171.374 462.163 163.171 461.236C157.035 460.456 151.598 461.103 152.97 453.73C153.252 451.946 152.71 449.542 153.766 448.097C154.418 443.797 154.039 439.463 152.634 435.215C151.78 431.638 150.338 424.25 150.936 419.449C151.212 417.229 155.744 416.007 156.542 415.899C156.288 414.228 156.4 411.307 157.299 410.146C155.648 409.916 155.233 409.479 154.889 407.645C154.067 404.675 153.958 401.45 151.923 398.948C148.262 398.995 144.614 398.066 140.956 397.953L140.774 397.532C138.61 397.505 136.459 397.122 134.405 396.373C133.949 396.588 133.367 396.773 133.11 396.084L131.889 392.263C117.667 347.005 101.903 301.636 86.5317 256.709C85.6346 254.525 84.5556 252.203 83.1527 250.257C82.6772 277.746 76.9185 305.206 76.4243 332.682C75.7559 351.584 75.9282 370.286 74.15 389.255C73.6924 393.27 73.2059 393.137 72.6064 392.89C72.3666 392.928 71.8011 393.048 71.5563 393.1C71.9573 397.089 72.4181 403.565 74.1288 407.645C77.9107 408.229 77.2334 411.13 76.3947 413.536C77.297 414.306 77.1685 416.102 76.9005 417.096C80.4588 417.1 81.2345 419.994 80.9896 421.82C80.6509 424.874 80.8405 429.627 78.8027 432.236C77.6022 435.562 75.6486 438.701 74.8858 442.285C74.4064 444.921 74.5915 448.762 74.1288 451.377C75.2926 451.915 74.7997 452.758 74.9957 454.388C76.0027 461.851 72.4579 460.582 66.1889 461.096C62.4314 461.926 33.8268 463.577 35.0633 458.612C34.8525 456.59 35.7927 455.702 36.1956 453.711C36.3762 453.183 39.9396 447.068 42.0655 444.753C49.1949 438.055 48.8833 429.062 48.6577 418.703C49.0767 415.895 51.2366 413.207 53.9923 413.509C53.2012 410.511 54.6677 407.903 57.7324 407.036C57.4265 403.641 57.1039 399.029 55.9832 396.092L57.039 395.017L55.6259 395.186L55.1567 394.004L54.6452 395.299C52.2199 395.299 49.4829 394.761 47.1591 394.508C46.7876 394.529 46.9534 394.024 46.8924 393.83C44.6984 393.375 44.458 392.209 44.8456 389.431C44.3347 344.321 44.5564 299.634 45.2549 254.441C41.8258 254.594 38.4815 253.343 35.1115 252.509C33.9142 253.261 33.5749 250.585 33.715 250.007C33.9046 247.017 34.2748 244.101 34.6077 241.386Z" fill="white"/>
<path fill-rule="evenodd" clip-rule="evenodd" d="M105.036 88.9775C104.525 89.3805 104.579 90.4955 104.529 91.1201L104.525 91.1612C104.365 93.0474 104.582 94.9425 105.042 96.7741L105.113 97.053C105.333 97.9282 105.551 98.9777 106.239 99.5779C107.02 100.26 108.261 99.8182 108.288 98.7187C108.303 98.2078 108.132 97.7155 107.916 97.2368C109.429 97.8203 110.942 98.398 112.461 98.961C113.432 106.987 102.22 116.813 95.7284 120.253C86.2751 125.485 78.3212 117.47 77.1111 108.049C76.9074 106.797 76.7711 105.511 76.7448 104.242L76.7428 104.12C76.7377 103.071 76.9119 101.668 76.2281 100.796C76.7313 100.784 77.1785 100.855 77.6708 100.932L77.647 100.973C77.3681 101.472 76.9736 102.714 77.8572 102.808C79.7658 102.608 80.6533 99.263 81.1179 97.659L81.1366 97.5889C81.4367 96.3865 81.8191 92.023 80.9149 91.4999C80.6366 92.5763 80.7459 93.7453 80.4078 94.8256C79.6379 95.1353 78.1721 95.2195 77.8321 95.2761C73.867 95.3223 71.6191 98.1686 70.0118 101.5C65.3 105.367 58.5278 104.702 53.44 107.887C37.8721 119.171 42.9566 163.1 35.2019 181.789C33.6499 181.147 32.0671 182.433 31.8602 184.002C31.6455 185.21 31.7098 186.502 31.6924 187.725L31.6854 187.878C31.5581 190.379 31.1256 193.191 34.5046 193.245C34.4988 194.642 34.236 195.993 33.8986 197.341C32.0279 205.501 31.2117 213.904 31.0273 222.269L31.0183 222.883C30.9573 227.28 30.9033 240.88 33.4308 242.49L33.3132 243.448C33.0208 245.844 32.7451 248.246 32.5908 250.654C32.3486 251.904 33.1737 254.898 34.8581 254.106C37.9466 254.869 40.9927 255.997 44.2027 256.002C43.4251 281.873 43.8114 307.769 43.6963 333.65C43.9444 352.727 42.9129 371.962 43.8146 390.966L43.7818 391.234C43.5273 393.368 43.4508 395.224 45.9173 395.954C45.9533 396.477 46.3549 396.756 46.8311 396.817C48.1832 396.999 49.5353 397.171 50.8888 397.337C52.1496 397.431 53.4985 397.745 54.7555 397.595C54.6341 397.718 54.9637 397.737 54.9997 397.648C56.1449 400.522 56.4778 403.656 56.7612 406.722C53.9805 407.782 52.4626 410.166 52.9169 413.155C50.1112 413.269 48.0618 416.386 47.6685 419.013C47.4166 420.827 47.6184 422.627 47.7 424.444C48.0881 430.65 47.1756 437.337 43.1681 442.288C40.5673 445.396 37.1806 448.207 36.0457 452.254C35.7372 452.398 35.484 452.676 35.3728 453.111L34.6524 455.937L34.2945 457.35C34.0323 458.38 33.7996 459.434 33.9397 460.5L33.9545 460.603C34.6563 467.357 62.3477 464.102 67.7523 463.617C69.9244 463.276 72.3086 463.462 74.2648 462.311C76.6644 460.728 76.9639 457.516 76.5526 454.885L76.5179 454.638C76.3515 453.462 76.1073 452.228 74.991 451.57C75.3663 449.133 75.2211 446.639 75.6683 444.21C76.3431 440.775 78.3854 437.793 79.4284 434.495C80.9496 432.804 81.0003 430.167 81.3184 428.005C81.5594 425.907 81.7567 423.795 81.8377 421.684C82.0588 418.895 80.8474 416.594 77.9137 416.229C78.05 415.701 77.6772 415.244 77.3064 414.905C78.1811 411.799 78.4227 407.534 74.6279 406.474C73.1903 402.91 72.7726 399.049 72.3896 395.247C72.4352 395.238 72.4808 395.23 72.5265 395.222C74.2648 395.946 74.7372 392.848 74.8997 391.211L74.9357 390.821C76.7255 371.905 76.5603 352.877 77.2325 333.903L77.2981 332.531C77.8874 320.029 78.2383 307.417 80.4001 295.082C82.5767 281.334 83.1455 267.362 83.889 253.47C84.7656 254.831 85.2366 256.394 85.9455 257.844C95.1455 284.872 104.585 311.818 113.681 338.881C120.273 358.476 126.571 378.175 132.888 397.861C133.21 398.869 134.226 399.077 134.969 398.755C136.861 399.411 138.846 399.784 140.845 399.848C140.965 400.125 141.213 400.327 141.574 400.288C142.642 400.171 143.872 400.505 144.941 400.629C147.387 400.871 149.761 401.246 152.228 401.282C153.757 403.214 153.853 405.835 154.558 408.135C154.964 409.308 154.9 411.937 156.301 412.268C155.799 413.041 155.733 413.97 155.815 414.927C155.379 415.026 154.937 415.214 154.527 415.405C154.128 415.607 153.6 415.589 153.325 415.997C145.499 417.415 151.218 432.276 152.579 437.191C153.914 441.209 154.332 445.405 153.723 449.601C152.791 450.887 153.103 452.8 152.96 454.325C152.886 455.686 152.748 457.067 152.76 458.429C152.912 464.088 159.899 463.167 163.84 463.901C166.302 464.188 168.774 464.387 171.246 464.542C177.517 464.932 183.822 464.962 190.08 464.355C194.12 464.227 194.988 461.592 194.982 457.987L194.988 457.838C195.079 455.391 194.685 452.437 192.361 451.165C192.245 449.873 191.59 448.567 190.92 447.438C187.806 442.203 183.132 437.617 182.212 431.335C181.31 427.223 182.332 418.171 178.152 416.026C178.055 414.175 176.917 412.288 175.509 411.287C175.237 409.744 174.213 408.326 173.579 406.909C172.287 404.203 171.092 401.454 169.807 398.745C170.48 398.46 171.195 397.937 171.289 397.193C171.935 397.201 172.573 396.783 172.495 395.997C172.267 393.715 171.767 391.469 171.296 389.226L171.237 388.946C162.844 348.38 145.514 310.447 135.374 270.401C136.739 270.648 138.014 269.089 138.769 268.073C141.205 264.793 142.644 260.824 143.276 256.797L144.422 256.655C148.241 256.186 152.079 255.776 155.93 255.886L156.858 255.917C157.889 255.948 158.922 255.94 159.902 255.569C160.586 255.632 161.298 255.265 161.467 254.498C164.319 240.284 157.308 226.794 152.286 213.95C151.103 210.792 150.261 207.588 149.459 204.318C149.432 204.212 149.266 204.235 149.271 204.344C149.427 207.979 150.329 211.645 151.244 215.15C154.25 227.032 160.513 238.685 158.982 251.264C154.222 247.516 148.57 244.912 142.632 243.811C142.289 242.322 141.91 240.844 141.626 239.346C141.906 237.043 142.097 234.728 142.34 232.414C143.07 225.49 144.184 218.584 145.669 211.782C147.972 204.939 149.984 198.002 150.703 190.787L150.834 190.812C152.431 191.136 154.19 191.84 155.672 190.823C156.613 190.171 157.02 189.091 157.4 188.053C158.485 185.536 158.686 182.229 155.614 181.177C156.759 173.176 156.015 164.825 154.632 156.9C153.524 149.953 151.093 143.108 152.003 135.996C153.013 129.163 154.897 122.005 152.174 115.316C147.698 104.151 136.366 98.8543 125.22 97.1494L125.04 97.0967C123.661 96.6879 122.406 96.258 120.969 96.5671C117.581 90.2795 112.086 92.8372 106.719 94.2382C106.357 93.172 106.055 92.0815 105.771 90.9916C105.594 90.4363 105.653 89.1556 105.036 88.9775ZM73.9756 454.621L73.9898 454.895C74.1311 457.839 73.9718 460.361 70.3216 460.342C67.8101 460.61 65.2981 460.871 62.7828 461.098L61.8394 461.182C54.3732 461.847 46.8176 462.173 39.3656 461.173L39.0552 461.131C38.4324 461.043 37.2789 461.06 36.786 460.599C36.1915 459.8 36.8798 458.275 37.0238 457.347C48.6511 457.211 60.2938 456.783 71.9288 456.931C73.1524 456.937 73.7051 455.891 73.592 454.939C73.7301 454.845 73.86 454.738 73.9756 454.621ZM192.027 453.145C192.599 455.155 192.458 457.055 192.135 459.068C191.974 461.176 190.971 461.311 189.156 461.36C182.071 462.014 174.935 461.877 167.849 461.329C164.051 460.919 160.147 460.935 156.42 460.095C154.642 459.306 155.668 456.828 155.608 455.309C163.979 460.703 176.64 460.019 185.768 456.898L185.915 456.835C188.074 455.928 190.834 455.357 192.027 453.145ZM178.161 416.846C179.123 417.932 179.143 421.024 179.184 422.076L179.189 422.194C179.297 424.404 179.28 426.619 179.375 428.829C179.305 438.136 184.68 442.779 188.671 450.262C189.763 452.078 188.175 452.336 186.883 452.924C178.517 456.817 168.622 457.413 159.883 454.432C155.49 453.156 156.449 450.2 156.822 446.583C157.19 439.194 153.301 432.537 152.151 425.389L152.12 425.205C151.777 423.106 151.185 417.728 154.528 418.877C155.256 419.325 155.94 418.763 156.026 418.077C156.112 418.091 156.201 418.1 156.287 418.101C156.674 420.49 157.074 422.876 157.459 425.264C157.135 425.47 156.832 425.703 156.563 425.969C156.235 426.293 156.464 426.973 156.957 426.932C157.21 426.91 157.461 426.872 157.709 426.825C157.907 428.901 161.205 427.736 160.252 426.072C164.994 424.433 170.219 424.563 175.034 425.82L175.054 425.829C175.427 425.976 178.108 426.514 177.245 426.932C176.886 426.976 177.704 427.446 177.848 426.718C177.894 425.806 175.81 425.357 175.172 424.978C176.782 422.674 177.882 419.687 178.161 416.846ZM56.6738 409.549C61.1408 407.13 66.6309 408.028 71.4758 408.456L71.6795 408.479C72.9127 408.612 74.6311 408.694 75.1973 409.964C76.0167 411.998 74.6581 416.551 74.2314 418.814L74.0862 419.408C73.7327 420.857 73.3966 422.293 73.2752 423.791C73.2726 423.839 73.3176 423.872 73.36 423.872C75.0572 422.059 75.82 419.62 76.613 417.294C76.9511 417.487 77.2814 417.695 77.5924 417.925C78.8089 422.106 79.2164 426.556 78.253 430.821L78.2183 430.971C77.0288 436.241 73.324 440.551 72.9718 446.058C72.7366 448.284 72.7893 450.566 72.1492 452.728C71.7849 452.809 71.4668 453.077 71.3241 453.415L69.2362 453.418C59.1422 453.435 49.045 453.526 38.9575 453.942C39.2827 451.105 41.7864 448.588 43.5498 446.643C48.9608 441.102 51.3013 433.141 50.41 425.469C49.9409 421.63 47.7989 415.6 53.0384 414.182C53.4214 417.31 53.9387 420.428 54.2247 423.569C53.2357 424.045 53.2967 425.303 54.5049 425.279C55.0473 427.103 56.8653 426.366 56.6687 424.644C63.3187 422.188 67.1341 421.365 73.6119 425.065C73.7938 425.039 73.1145 424.311 73.0284 424.182C70.9809 421.975 67.8371 420.937 64.8868 420.9C61.9627 420.899 59.2129 422.001 56.454 422.853C56.0395 419.89 55.7606 416.908 55.4316 413.935L55.3609 413.297C55.1887 411.736 55.251 410.446 56.6738 409.549ZM163.54 447.819C162.567 447.603 161.671 447.274 160.683 447.497C157.203 450.111 171.422 450.848 172.633 450.662C175.715 450.572 178.798 450.18 181.764 449.309L181.971 449.248C182.263 449.167 185.22 448.343 184.659 447.976C180.647 448.331 176.72 449.068 172.633 448.876C170.594 448.833 168.547 448.689 166.53 448.383C165.527 448.229 164.529 448.042 163.54 447.819ZM69.5292 444.581C70.1667 443.626 67.0608 444.894 66.6566 444.905C64.0847 445.539 61.4673 446.02 58.8247 446.22C57.0536 446.354 55.2638 446.383 53.4895 446.295C52.1753 446.25 50.8753 446.056 49.5694 445.922L49.5225 445.92C48.7468 445.893 47.1923 446.374 48.1505 447.297C49.6401 448.453 51.8444 448.101 53.6303 448.27C59.0529 448.253 64.7949 447.38 69.5292 444.581ZM171.474 437.64C169.911 437.356 161.307 437.264 162.164 439.905C162.372 440.407 162.848 440.573 163.349 440.494C168.674 439.199 174.419 438.521 179.727 440.307C179.813 440.338 179.873 440.196 179.788 440.159C177.178 438.85 174.385 437.936 171.474 437.64ZM59.7861 435.058C58.3807 434.951 56.9675 434.989 55.562 435.094L54.9869 435.139C54.3937 435.187 53.7877 435.248 53.2215 435.421L53.1091 435.457C52.3373 435.705 50.5976 437.032 51.9183 437.67C53.3359 438.129 54.5345 437.583 55.902 437.232C59.7141 436.328 63.7217 436.634 67.4985 437.557L66.9663 437.728C66.9336 437.705 66.8912 437.76 66.9226 437.787C67.3044 438.12 67.8288 438.002 68.0993 437.588C68.1462 437.516 68.1167 437.403 68.0415 437.363C65.4812 436.02 62.6587 435.276 59.7861 435.058ZM178.517 434.721C174.212 432.815 169.224 432.604 164.607 433.157L164.278 433.197C162.837 433.366 160.959 433.444 160.135 434.786C159.85 435.251 160.144 435.784 160.604 435.951C161.959 436.447 163.552 435.455 164.854 435.087C168.703 434.032 172.814 433.921 176.729 434.65C176.701 434.795 177.35 434.731 177.491 434.783C177.668 434.772 178.842 435.161 178.517 434.721ZM69.9495 431.745C66.1932 429.918 61.8509 429.483 57.7959 430.425L57.6275 430.474C55.8307 430.978 52.9381 431.573 52.2942 433.476C52.1548 433.905 52.4568 434.484 52.9092 434.571C54.4413 434.864 55.8319 433.745 57.2181 433.207C61.297 431.673 65.9143 431.307 70.1326 432.435C70.1603 432.601 70.1885 432.765 70.2188 432.932C70.1461 432.884 70.0716 432.99 70.1294 433.049C70.8023 433.52 71.5027 432.33 69.9495 431.745ZM168.84 428.534C165.801 428.331 162.736 428.718 159.803 429.519L159.251 429.672C158.449 429.897 157.41 430.25 157.294 431.117C157.248 431.462 157.334 431.699 157.614 431.913C158.636 432.677 160.857 431.076 162.127 430.887C166.737 429.502 171.686 429.522 176.356 430.582L176.515 430.618L176.402 431.421C176.292 431.804 177.318 430.9 176.928 430.488C174.463 429.233 171.586 428.759 168.84 428.534ZM67.0839 427.1C64.6451 426.66 62.1285 426.575 59.6627 426.797L59.3716 426.825C57.8987 426.955 53.1277 427.144 54.2562 429.634C54.4451 430.05 54.9946 430.104 55.35 429.924C56.5421 429.319 57.846 429.101 59.1615 428.902C63.8078 428.255 68.555 428.52 73.0914 429.772C72.9924 429.927 73.1961 430.111 73.3883 430.147C73.867 430.235 73.867 429.664 73.662 429.361C73.4178 429.001 72.9313 428.87 72.556 428.712C70.8093 427.951 68.9566 427.436 67.0839 427.1ZM159.462 413.245L159.74 413.18C164.394 412.084 174.713 410.119 175.782 416.533C176.161 419.358 174.91 422.113 175.003 424.91C170.176 422.946 164.839 422.967 159.825 424.264C159.38 421.362 158.956 418.455 158.503 415.553L158.429 415.206C158.227 414.228 158.159 413.462 159.462 413.245ZM169.829 414.413C168.815 413.543 167.123 413.555 166.128 414.505C165.218 414.696 164.577 415.662 164.562 416.49C163.178 418.922 164.847 422.283 167.488 422.89C173.452 424.147 176.118 415.953 169.829 414.413ZM66.5017 410.532C61.5116 409.641 59.6987 415.973 63.7943 418.54C69.58 421.444 73.4345 412.316 66.5017 410.532ZM167.36 396.467C167.286 396.951 167.524 397.296 167.809 397.622C168.832 401.817 170.372 405.721 171.89 409.743C166.951 408.924 162.285 409.639 157.915 410.98C157.863 409.753 157.303 408.481 156.915 407.324C156.159 405.127 155.245 402.987 154.19 400.919L154.058 400.662C153.679 399.926 153.314 399.157 152.867 398.453C157.701 397.792 162.534 397.198 167.36 396.467ZM70.0099 395.573L70.1391 396.157C70.6937 398.689 71.22 401.245 72.0458 403.705L72.0573 403.756C72.1839 404.377 72.468 407.251 72.6467 405.222C72.7848 405.528 72.9313 405.83 73.0881 406.127L71.8909 405.985C67.4271 405.461 62.7699 405.042 58.3922 406.164C58.8459 402.643 58.1776 399.279 57.2014 395.95C61.4801 395.851 65.7215 395.883 70.0099 395.573ZM151.047 399.95C151.203 400.097 151.357 400.247 151.502 400.404C151.305 400.353 151.108 400.304 150.925 400.261C150.932 400.146 151.014 400.059 151.047 399.95ZM54.6141 396.72L54.7536 397.048C54.6816 397.005 54.6019 396.964 54.5158 396.927C54.555 396.864 54.5878 396.796 54.6141 396.72ZM170.003 396.002C170.054 396.189 170.093 396.396 170.183 396.567C170.111 396.579 170.038 396.594 169.964 396.61C169.875 396.429 169.781 396.254 169.68 396.081C169.788 396.056 169.895 396.031 170.003 396.002ZM132.784 188.371C133.222 188.583 133.679 188.636 134.282 188.662C139.19 188.866 144.082 189.434 148.9 190.404C148.634 194.304 147.448 198.082 146.32 201.8L146.086 202.614C142.272 215.936 138.943 229.857 139.614 243.79C139.576 243.804 139.54 243.824 139.506 243.841C139.567 244.012 139.61 244.187 139.672 244.356L139.711 244.457L139.94 245.026C140.066 245.341 140.189 245.659 140.296 245.983C140.483 246.051 140.713 246.1 140.933 246.132C142.046 253.509 140.988 261.78 135.971 267.549C137.759 263.947 138.383 259.856 138.305 255.855L138.29 255.243C138.27 254.488 138.224 253.735 137.994 253.017C137.985 252.979 137.934 252.986 137.922 253.017C136.86 256.299 136.791 259.864 135.747 263.17L135.667 263.423C134.842 266.014 133.464 269.349 131.07 270.688C130.63 270.819 129.952 270.664 129.723 271.172L129.707 271.209L129.693 271.203C130.762 267.702 131.45 264.081 131.685 260.426L131.701 260.176C131.776 258.901 131.942 257.534 131.624 256.289C131.018 257.428 131.169 259.288 130.887 260.665L130.876 260.744C130.653 262.233 128.511 273.613 127.103 272.093C126.813 271.673 126.888 270.863 126.879 270.364L126.878 270.315C126.856 269.593 126.864 268.871 126.889 268.15C127.041 263.9 127.701 259.538 126.407 255.398C126.191 254.7 125.017 254.569 124.875 255.398C124.305 258.714 123.761 262.034 123.217 265.353C122.82 267.38 122.836 269.667 121.63 271.416C121.616 267.598 121.827 263.792 122.01 259.978L122.059 259.82C122.204 259.338 122.347 258.714 122.015 258.304C121.882 257.434 120.611 257.534 120.503 258.446C120.48 258.635 120.463 258.828 120.444 259.02C120.023 259.548 119.631 260.088 119.134 260.542C115.812 253.754 126.682 242.032 128.183 234.367C132.603 219.441 130.062 203.79 128.776 188.591C130.106 188.433 131.446 188.391 132.784 188.371ZM69.5266 102.464C67.2028 107.131 65.4973 112.07 64.3155 117.153C63.9517 118.723 66.0551 119.686 66.9053 118.312L66.9304 118.269C67.9753 116.524 69.5331 114.987 71.504 114.386C72.8472 120.022 72.1929 125.976 71.495 131.666C70.2573 139.594 69.2728 147.554 69.1256 155.588L69.1185 156.018C68.6873 183.452 64.6586 210.761 60.2456 237.62C53.1913 238.755 46.7334 241.953 40.2312 244.765C39.1014 245.207 37.9466 245.591 36.7635 245.856C40.0307 215.406 52.4555 186.847 56.2946 156.507C57.3094 148.616 57.3569 140.603 55.9553 132.758C55.9316 132.608 55.7188 132.658 55.7098 132.792C55.5556 136.014 55.0049 139.194 54.6784 142.4C54.4561 140.569 53.9432 138.715 53.5281 136.96C53.021 135.244 52.834 132.488 51.3482 131.369L51.2544 131.045C51.2159 130.905 51.0089 130.964 51.0417 131.103C51.0571 131.169 51.0732 131.234 51.0873 131.301C50.133 131.555 51.0244 132.687 51.2608 133.23C52.7923 137.342 53.2479 141.793 54.2935 146.032C52.7807 159.264 50.0565 172.328 46.7013 185.189C43.6186 184.375 40.5255 183.592 37.4351 182.795C44.3287 160.303 40.2974 135.201 50.6259 113.724C54.4953 106.516 64.025 107.495 69.5266 102.464ZM121.903 98.3517C123.348 98.274 124.858 99.0606 126.246 99.3311C128.086 99.6884 129.917 99.9718 131.716 100.521C140.927 103.051 149.814 109.962 151.482 119.917C152.629 126.754 149.789 133.414 149.889 140.232C150.189 146.986 152.411 153.477 153.277 160.164C154.319 167 154.677 174.156 153.784 181.026C145.521 178.677 136.892 178.53 128.42 179.743C129.126 169.33 128.198 158.866 127.686 148.46C127.316 141.778 126.684 135.065 126.908 128.369C126.913 128.22 126.672 128.184 126.648 128.333C124.107 142.008 125.598 155.89 125.855 169.681C126.018 173.165 125.587 176.683 125.761 180.148C121.909 180.979 122.048 185.481 123.226 188.448C123.435 189.162 124.143 189.038 124.717 188.951C125.339 189.606 126.822 188.752 127.667 188.752C128.328 205.871 132.347 224.155 124.112 240.155C120.669 240.174 117.354 238.983 114.008 238.308L113.825 238.272L113.821 238.27C113.328 237.629 113.088 236.597 113.022 235.842C112.555 222.658 114.018 209.445 113.162 196.261C112.113 181.626 108.856 167.081 110.362 152.348C111.404 139.179 114.264 126.25 115.643 113.122L115.712 112.442C115.798 111.633 115.831 110.738 116.23 110.121C118.556 112.244 120.507 114.77 121.904 117.61C122.678 118.983 124.749 118.373 124.782 116.823C125.079 114.057 125.123 111.28 124.821 108.513L124.794 108.268C124.42 104.804 123.375 101.499 121.903 98.3517ZM35.4506 193.359C38.4459 193.518 41.4445 193.851 44.445 193.812L44.143 194.947C40.5107 208.576 36.6433 222.182 34.3632 236.127L34.2803 234.819C34.1981 233.511 34.119 232.202 34.0676 230.891C33.4205 218.358 34.4089 205.842 35.4506 193.359ZM113.418 106.376C113.406 106.943 113.377 107.507 113.333 108.071C111.949 110.152 112.072 112.918 111.762 115.312C110.025 128.241 107.467 141.116 106.605 154.18C105.803 164.63 107.113 175.043 108.451 185.388C110.102 197.236 109.929 209.207 109.545 221.135C103.202 215.38 94.1873 214.371 86.1852 212.583L85.8041 212.506C79.6508 211.243 73.5104 209.412 68.2825 205.815C72.0419 178.859 71.157 151.557 75.0013 124.624C75.1202 122.503 75.1446 120.371 74.9685 118.252C75.1375 115.958 75.1877 113.65 75.1922 111.35C76.8772 118.146 82.5215 124.711 89.917 124.496C97.7855 124.034 104.464 117.574 109.595 112.037C110.986 110.385 112.369 108.457 113.418 106.376ZM44.2136 193.372L44.569 193.355L44.5472 193.432C44.4739 193.417 44.3994 193.403 44.3255 193.391L44.2136 193.372ZM34.4532 184.167C34.5091 184.149 34.6049 184.149 34.7115 184.155C34.8645 184.509 35.1743 184.802 35.5341 184.898L38.5365 185.711C41.039 186.388 43.5427 187.063 46.049 187.719C45.6287 189.345 45.2014 190.972 44.7695 192.596C41.3507 191.49 37.5649 191.741 34.0792 191.029C34.1216 189.151 34.2238 187.264 34.2559 185.384C34.2636 185.077 34.2013 184.583 34.3575 184.308C34.4558 184.132 34.3575 184.197 34.4532 184.167ZM149.302 190.486L149.396 190.506C149.365 190.592 149.337 190.677 149.31 190.764C149.309 190.671 149.307 190.579 149.302 190.486ZM127.044 181.452C133.485 180.51 140.036 179.953 146.533 180.594C149.471 180.994 152.454 181.421 155.334 181.966C156.336 183.512 155.228 187.273 153.981 188.462C153.607 188.605 152.964 188.328 152.606 188.248C149.917 187.637 147.202 187.145 144.473 186.762C144.392 186.865 144.273 186.931 144.126 186.917L143.499 186.859C139.736 186.514 135.94 186.261 132.168 186.477L132.14 186.499C129.596 186.686 127.06 187.089 124.526 187.381C123.526 184.751 123.698 181.734 127.044 181.452ZM80.1745 95.697C79.9252 96.5446 79.6264 97.3679 79.2543 98.1686C78.8661 98.06 78.3302 98.1467 78.0448 98.3929L77.9234 98.371C77.5892 98.3074 77.1882 98.2097 77.0841 98.1981C72.4815 97.5581 72.8324 103.749 72.8157 106.86C72.7874 108.421 72.7559 109.982 72.709 111.542C71.3916 111.091 69.6307 111.902 68.4798 112.619C69.3807 109.602 70.4405 106.634 71.6216 103.718L71.8453 103.15C72.7758 100.798 73.8066 98.416 75.784 96.7779C77.2872 96.382 78.7434 96.3107 80.1745 95.697ZM113.545 94.1437C117.822 92.6097 119.517 96.0961 120.703 99.5734C122.102 103.424 122.484 107.664 122.251 111.807L122.107 111.616C120.533 109.506 118.264 106.024 115.394 106.583C115.423 104.983 115.365 103.224 115.06 101.562C115.238 100.489 115.283 99.4057 115.159 98.3215C115.094 96.963 113.622 97.1693 112.653 96.9771C111.814 96.4155 110.799 96.1892 109.778 96.5845C109.009 96.4816 108.239 96.3833 107.469 96.2856C107.351 96.0247 107.255 95.7619 107.156 95.4946C109.287 95.0518 111.417 94.5955 113.545 94.1437Z" fill="black"/>
<path fill-rule="evenodd" clip-rule="evenodd" d="M84.135 96.6635C87.5224 96.6834 90.4014 95.7239 92.5986 94.1373C95.3394 93.1617 98.6465 91.6573 100.655 90.0777C101.438 90.2769 102.376 89.4466 102.975 89.0077C106.703 86.2302 109.629 82.1636 110.496 78.0905C111.834 79.7768 113.739 79.8468 115.563 79.0088C119.388 76.8438 119.245 72.2862 117.869 68.8808C120.763 62.3985 122.769 45.287 118.35 38.3811C117.447 37.3478 116.121 36.7297 115.166 35.67C114.315 34.7446 113.508 33.798 112.519 33.0657C109.502 30.7743 104.306 29.5542 101.053 28.9805C87.4722 26.0503 77.0383 31.317 64.7362 35.7594C65.4444 37.5263 66.4238 39.1376 67.5465 40.64C64.492 41.7776 65.8949 44.3354 68.2643 45.6321L69.6749 44.9478C67.4758 52.7989 62.4157 72.3228 64.5994 78.5924C66.3403 88.3741 73.9813 96.7348 84.135 96.6635Z" fill="white"/>
<path fill-rule="evenodd" clip-rule="evenodd" d="M82.1723 97.507C86.5712 97.9575 91.7965 96.9196 94.7289 93.3536C94.8163 93.2469 94.8548 93.1261 94.8568 93.0098C94.8593 92.8799 94.8156 92.7546 94.7404 92.657C94.6614 92.5541 94.5483 92.4828 94.4191 92.4597C94.3099 92.4404 94.1858 92.4526 94.058 92.5246L93.7881 92.6743C91.7856 93.7784 89.706 94.7192 87.4362 95.1221C85.0995 95.5373 82.7205 95.4904 80.4044 94.964C76.1861 94.0046 72.7718 91.558 70.259 88.3313C67.4546 84.7306 65.7708 80.1602 65.3416 75.589C64.821 70.0501 66.0279 64.544 67.2759 59.1805C68.5875 53.5449 70.0213 47.9379 71.687 42.3961C71.7371 42.2292 71.7506 42.0731 71.7365 41.9292C72.2275 41.7372 72.7506 41.7905 73.2705 41.9659C74.2216 42.2862 75.1688 43.0086 75.9586 43.6049C76.2446 43.8209 76.5107 44.0217 76.7497 44.185C77.7291 44.8539 78.8004 45.3352 79.9976 45.4109C81.2424 45.4894 82.4634 45.1032 83.5945 44.6199C84.169 44.3743 84.7345 44.1196 85.2975 43.8658C86.9009 43.1434 88.485 42.4281 90.2163 41.9632C92.5362 41.3401 94.9313 41.0332 97.3342 41.0552C101.622 41.0943 105.923 42.1958 108.551 45.815C109.616 47.2812 110.31 48.9662 109.769 50.7756C109.474 51.7599 108.918 52.6534 108.312 53.4753L108.104 53.7552C107.771 54.2063 107.482 54.6556 107.395 55.134C107.322 55.5347 107.379 55.9589 107.666 56.4236C107.846 56.716 108.076 56.9782 108.307 57.2397C108.473 57.428 108.64 57.6163 108.784 57.8187C109.074 58.2275 109.33 58.6677 109.531 59.1265C109.925 60.0249 110.093 60.9915 110.127 61.9663C110.17 63.1424 110.004 64.2927 109.84 65.445C109.723 66.2618 109.607 67.0792 109.56 67.9069C109.551 68.0515 109.596 68.1588 109.658 68.2385C109.734 68.3362 109.844 68.3979 109.97 68.4146C110.008 68.4197 110.048 68.4204 110.088 68.4172C110.069 68.4969 110.051 68.5765 110.036 68.6569C110.116 68.5547 110.2 68.4557 110.29 68.36C110.296 68.3568 110.301 68.3542 110.307 68.351C110.399 68.3002 110.477 68.2237 110.526 68.1241C110.653 68.0072 110.787 67.8954 110.927 67.7906C111.659 67.2463 112.513 66.923 113.371 66.9127C114.197 66.9025 115.025 67.1827 115.662 67.7758C116.928 68.9544 117.298 70.8778 117.312 72.5301C117.325 74.2164 116.934 76.2394 115.461 77.2863C114.87 77.7066 114.148 77.9585 113.421 77.9662C112.819 77.972 112.242 77.7592 111.674 77.5568C111.499 77.4938 111.324 77.4321 111.151 77.3756C110.954 77.3113 110.774 77.3152 110.616 77.3621C110.44 77.4148 110.29 77.524 110.177 77.6699C110.066 77.8145 109.992 77.9964 109.97 78.1866C109.948 78.3704 109.973 78.5619 110.051 78.7341C110.071 78.7772 110.092 78.8196 110.113 78.8607L109.789 79.3922C108.548 81.4229 107.286 83.4164 105.631 85.1618C104.681 86.1637 103.674 87.109 102.569 87.9361L102.41 88.0544C102.315 88.1244 102.209 88.2105 102.096 88.3024C101.774 88.5653 101.387 88.9181 101.027 88.9322C100.92 88.9361 100.826 88.9232 100.741 88.9116C100.536 88.8846 100.364 88.8769 100.195 88.9457C100.059 89.0016 99.9176 89.1051 99.7723 89.3184C99.674 89.463 99.6239 89.6449 99.6239 89.8287C99.6239 90.0138 99.6746 90.1988 99.7653 90.3447C99.9529 90.6474 100.18 90.8351 100.427 90.9417C100.701 91.06 101.005 91.0786 101.32 91.0195C102.097 90.8749 102.958 90.2323 103.505 89.8133L103.611 89.7323C104.824 88.8088 105.974 87.787 106.985 86.6444C108.706 84.6985 110.252 82.4049 111.046 79.8992C111.606 80.2662 112.297 80.4403 113.02 80.468C114.073 80.5078 115.188 80.2373 116.009 79.8485C117.82 78.9918 118.919 77.3711 119.435 75.5081C120.033 73.3437 119.839 70.856 119.081 68.912C119.059 68.8555 119.036 68.7989 119.012 68.7417C121.345 62.8448 122.062 56.2963 121.862 50.0031C121.769 47.0573 121.568 43.9667 120.872 41.0937C120.559 39.806 120.017 38.5797 119.151 37.566C118.658 36.9879 118.052 36.5379 117.443 36.089C116.916 35.7003 116.387 35.3125 115.942 34.8271L115.732 34.5966C115.686 34.5465 115.64 34.4965 115.595 34.4465C114.826 33.6009 114.078 32.7803 113.145 32.0869C112.063 31.2829 110.869 30.6535 109.629 30.1308C106.956 29.0052 104.079 28.3303 101.234 27.8082C95.0778 26.6787 88.7588 26.623 82.6781 28.2106C79.8511 28.9486 77.107 29.9588 74.3681 30.9678C74.1136 31.0615 73.8598 31.1552 73.6053 31.2486C71.4768 32.0308 69.3471 32.8096 67.2174 33.5884C66.2278 33.9503 65.2381 34.3123 64.2478 34.6746C64.0331 34.7533 63.823 34.9227 63.7035 35.1331C63.5865 35.3384 63.5518 35.5779 63.6463 35.8163C64.2536 37.3518 65.0196 38.7924 65.9521 40.1376C65.6282 40.3577 65.3525 40.6503 65.1436 40.9927C64.8795 41.4258 64.7233 41.9386 64.7131 42.4826C64.6771 44.3044 66.3383 45.5393 67.7168 46.4325C67.8453 46.5159 67.9725 46.5651 68.0953 46.5877C66.7599 51.6836 65.4816 56.7969 64.3949 61.9503L64.3204 62.3076C63.2016 67.7013 62.4792 73.2055 63.5377 78.6712C64.4489 83.3772 66.5658 87.9194 69.8741 91.4257C73.1156 94.8612 77.4656 97.0243 82.1723 97.507ZM111.136 66.479C111.711 64.6552 112.017 62.6707 111.796 60.8212C111.657 59.6593 111.307 58.5404 110.737 57.516C110.411 56.9293 110.013 56.3863 109.578 55.8744L109.429 55.7026C109.353 55.6149 109.277 55.5342 109.254 55.4331C109.24 55.3744 109.254 55.3101 109.29 55.2333C109.369 55.0633 109.517 54.8994 109.654 54.7395C109.742 54.6378 109.828 54.538 109.9 54.441C111.162 52.7357 112.103 50.7055 111.797 48.5431C111.499 46.4333 110.113 44.4667 108.638 42.9846C105.39 39.7212 100.355 38.9712 95.9441 39.1512C93.3761 39.2559 90.8126 39.7076 88.3674 40.4965C87.1611 40.8857 85.9825 41.3595 84.8367 41.9027L84.5829 42.0242C84.446 42.0904 84.3091 42.1574 84.1722 42.2243C83.277 42.6626 82.378 43.1052 81.4056 43.3435C79.5073 43.8088 78.2188 42.8288 76.8654 41.8406C76.4014 41.5019 75.9303 41.1585 75.4297 40.8572L75.3269 40.7964C74.4234 40.2739 73.3431 39.9223 72.3059 39.938C71.4042 39.9517 70.5347 40.239 69.8265 40.9177C69.6813 41.0572 69.5971 41.2094 69.5579 41.3608C69.4795 41.4704 69.4165 41.6011 69.3754 41.7555C69.1216 42.7053 68.869 43.6558 68.6177 44.6065L68.4114 44.4742C67.8022 44.0791 67.1397 43.6275 66.8402 42.9665C66.7252 42.712 66.7412 42.2882 66.8865 41.9765C66.9372 41.8677 67.0041 41.7708 67.0972 41.7104C67.1647 41.6665 67.2457 41.6458 67.3402 41.6534C67.5702 41.6829 67.781 41.6494 67.9597 41.574C68.166 41.487 68.3305 41.3438 68.4372 41.1713C68.5464 40.9947 68.5965 40.787 68.5695 40.5716C68.5464 40.3864 68.4667 40.193 68.3086 40.0113C67.2688 38.8151 66.3929 37.4955 65.7278 36.0633L70.1305 34.4377C71.6998 33.8584 73.2698 33.2799 74.8404 32.7035L75.7009 32.3881C78.5568 31.3427 81.4294 30.321 84.3997 29.6479C90.303 28.3103 96.4582 28.6246 102.345 29.8837L102.701 29.9604C105.171 30.4979 107.674 31.1483 109.941 32.2788C111.055 32.8337 112.112 33.5085 113.021 34.3609C113.422 34.7374 113.785 35.1496 114.148 35.5612C114.656 36.1381 115.166 36.7134 115.77 37.1993L116.331 37.6478C117.166 38.3191 117.919 38.9733 118.39 40.0145C118.883 41.103 119.118 42.3056 119.31 43.4772C119.793 46.4288 119.985 49.4276 119.966 52.4173C119.935 57.437 119.171 62.3551 118.206 67.2553C117.431 66.1493 116.343 65.2914 114.946 65.1082C114.036 64.9893 113.133 65.159 112.351 65.5606C111.898 65.7926 111.486 66.1024 111.136 66.479ZM112.598 72.4401C113.618 72.0455 114.689 71.9164 115.768 72.1053C115.881 72.1246 115.989 72.1014 116.079 72.0487C116.171 71.9954 116.244 71.9112 116.283 71.818C116.328 71.7107 116.331 71.5944 116.291 71.4909C116.256 71.401 116.189 71.3142 116.068 71.2557C114.899 70.6992 113.601 70.4537 112.312 70.6285L112.184 70.6465C111.526 70.7442 110.599 70.9492 109.904 71.3534C109.358 71.6709 108.958 72.1085 108.859 72.6798C108.807 72.978 108.881 73.289 109.053 73.5146C109.22 73.7325 109.474 73.8777 109.803 73.8681C110.384 73.852 110.727 73.6071 111.141 73.2897C111.191 73.2511 111.243 73.2119 111.296 73.1721C111.696 72.8732 112.132 72.62 112.598 72.4401Z" fill="black"/>
<path fill-rule="evenodd" clip-rule="evenodd" d="M81.3599 84.0925C82.3855 83.6748 83.3013 82.9782 83.9703 82.0881C84.2029 81.7784 84.2633 81.4519 84.2145 81.1531C84.1599 80.817 83.9606 80.5124 83.6888 80.308C83.4163 80.103 83.0751 80.0021 82.746 80.0535C82.4594 80.0985 82.1747 80.2547 81.9485 80.5792L81.9016 80.6441C81.5038 81.1814 80.9852 81.6222 80.3946 81.9063C79.8252 82.18 79.1884 82.3079 78.529 82.2334C77.274 82.092 76.409 81.4147 75.4893 80.495C75.3756 80.3787 75.2618 80.2585 75.1468 80.1371C75.0748 80.0266 74.9739 79.9559 74.8628 79.9186C74.7387 79.8775 74.5986 79.8794 74.4708 79.9244C74.3467 79.9674 74.2362 80.0491 74.1623 80.1577C74.0916 80.2611 74.0518 80.389 74.0646 80.5355C74.1488 81.4886 74.6481 82.3394 75.3576 83.0078C76.1455 83.7494 77.1898 84.2628 78.173 84.4428C79.2565 84.6414 80.3599 84.4993 81.3599 84.0925ZM77.6621 69.3851C76.5099 70.0843 74.7535 71.7146 75.9932 73.4478C77.4526 74.976 79.554 73.2236 80.5893 72.4312C81.5494 71.8168 82.6284 73.3964 81.7371 74.1136C74.2555 79.6423 71.219 69.5682 77.0792 68.5631C77.7245 68.4526 77.9642 69.1691 77.6621 69.3851ZM91.0702 62.9542C90.9423 61.3771 88.5356 61.0185 88.2959 62.5795C88.0813 63.9779 88.3338 65.2625 88.9649 66.5215C89.5677 67.7238 91.0837 67.1628 91.1981 66.0678C91.3516 64.6 91.1492 63.9355 91.0702 62.9542ZM72.7459 62.2563C72.4098 61.8173 71.9253 61.5179 71.345 61.6869C69.5308 62.2158 70.0654 64.7863 70.7029 66.0369C71.0487 66.7162 72.1675 66.8884 72.6733 66.2901C73.4978 65.3152 73.8924 63.3674 72.8442 62.406C72.816 62.3565 72.7845 62.3064 72.7459 62.2563ZM88.9906 56.0522L88.704 56.0021C87.8178 55.8491 86.7156 55.702 86.0884 56.4134C85.7562 56.7906 85.6411 57.4911 86.0884 57.8522C86.875 58.4872 87.7439 58.241 88.6866 58.295C89.4629 58.3394 90.209 58.4679 90.9571 58.6812C92.5984 59.1491 93.9351 60.0038 95.3367 60.9421C95.5205 61.0648 95.7081 60.8302 95.6207 60.6587C94.8116 59.0771 93.2436 57.7783 91.673 56.986C90.835 56.5637 89.9179 56.2129 88.9906 56.0522ZM74.3994 55.3437L74.1796 55.3885C71.7935 55.8863 68.6928 56.8806 67.5624 59.2204C67.5193 59.5514 67.5649 59.6221 67.6022 59.6683L67.6144 59.6838C67.6446 59.723 67.669 59.7776 67.813 59.8226C67.8528 59.8136 67.8927 59.8033 67.9338 59.7924C68.4518 59.6574 68.8618 59.4704 69.2583 59.277L69.6889 59.0655C70.1876 58.8213 70.6914 58.5855 71.2248 58.412C72.3635 58.0412 73.5351 57.7803 74.7246 57.6408C74.9829 57.6106 75.231 57.5238 75.427 57.3748C75.6127 57.2334 75.7548 57.038 75.8197 56.7777C75.9032 56.4416 75.8794 56.1865 75.6982 55.8831C75.5626 55.6552 75.3679 55.4972 75.1442 55.4065C74.9168 55.3139 74.6571 55.2922 74.3994 55.3437Z" fill="black"/>
<path fill-rule="evenodd" clip-rule="evenodd" d="M59.94 57.7867C60.066 57.7662 60.1919 57.7463 60.3173 57.7283C60.4156 57.6724 60.5306 57.6293 60.6649 57.6036C60.9708 57.5265 61.2748 57.4738 61.5781 57.4461C65.9327 56.468 76.0067 57.8568 76.4225 61.5648C77.8093 62.0269 79.0091 61.613 80.6164 61.6542C81.8399 56.5509 102.991 57.2713 104.007 60.3483C104.011 60.347 104.015 60.3464 104.019 60.3451C104.996 60.0431 106.438 60.1157 107.556 60.0681C109.945 60.018 112.336 60.2307 114.673 60.7333C119.049 61.4273 125.022 62.2402 121.979 67.6943C121.978 67.695 121.977 67.6963 121.977 67.6969L121.976 67.6963C121.452 68.2329 120.562 67.801 120.528 67.0748C121.552 64.4908 119.24 64.1804 117.462 63.4381C113.037 61.8515 108.532 61.6317 103.956 62.1226C103.611 62.5269 103.089 62.8797 102.537 63.0641C99.4772 63.5712 101.09 65.8365 99.1553 66.1655C99.5107 74.0616 89.9045 78.3718 84.3385 73.1812C82.1163 71.0129 81.5868 67.801 81.0714 64.9059C80.7989 64.8449 80.626 64.6958 80.5245 64.4991C79.8696 63.8462 79.4577 63.2434 78.1621 63.0641C76.8666 62.8848 75.8692 63.2447 75.7342 63.3546C75.7002 63.4234 75.6635 63.4915 75.6211 63.5602C75.562 63.6624 75.4817 63.744 75.3898 63.8083C76.6693 71.671 70.5526 76.6438 64.3781 72.5656C61.6951 70.0471 61.1276 66.1906 61.0158 62.7486C60.6521 62.5294 60.422 62.1053 60.548 61.5713C60.7215 60.8361 60.3147 60.1986 59.6663 59.8792C58.8244 59.4634 58.9735 57.9468 59.94 57.7867ZM86.4728 61.5173C87.2394 61.3489 87.5665 62.5282 86.7979 62.6972C86.2536 62.8167 85.7922 63.0905 85.4799 63.5544L85.4471 63.6052C85.0287 64.2697 83.971 63.656 84.3925 62.9876C84.8662 62.2351 85.6026 61.7081 86.4728 61.5173ZM64.0247 60.786C64.2946 60.5957 64.7039 60.7371 64.8607 61.0057C65.033 61.3014 64.9199 61.6304 64.6673 61.8232L64.641 61.8425C64.409 62.0057 64.1827 62.2981 64.1545 62.5982L64.1519 62.6355C64.1217 63.4201 62.8994 63.4246 62.9302 62.6355C62.9598 61.8643 63.4077 61.2197 64.0247 60.786Z" fill="black"/>
</g>
<defs>
<clipPath id="clip0_1317_51639">
<rect width="194" height="196" fill="white"/>
</clipPath>
</defs>
</svg>
