<svg width="194" height="196" viewBox="0 0 194 196" fill="none" xmlns="http://www.w3.org/2000/svg">
<g clip-path="url(#clip0_1317_51746)">
<rect width="194" height="196" fill="#FFDFDF"/>
<path fill-rule="evenodd" clip-rule="evenodd" d="M144.93 209.65C139.444 209.668 134.114 209.855 128.613 209.873C106.252 209.948 83.685 209.84 61.2428 208.933C54.8998 208.677 53.3165 208.683 47.0009 208.286C43.2719 208.271 32.0707 207.963 32.6314 202.882C32.8789 193.42 35.221 183.996 35.9588 174.559C37.3746 156.818 38.5802 138.522 45.6896 121.929C47.3351 117.966 50.8693 115.374 54.3679 113.044C57.8763 110.53 58.7374 107.739 61.9757 104.899C62.6603 104.299 66.5484 104.054 68.6405 102.531C71.6853 100.314 73.1953 96.6844 74.3314 96.0664C75.1673 95.6119 75.152 92.4752 76.8275 91.3651C79.0759 89.8753 86.2407 88.7675 88.8475 88.5604C91.3494 88.3614 95.7012 88.7792 98.0486 89.6956C101.963 91.224 103.525 94.1392 105.249 97.8952C128.025 104.937 148.844 116.861 155.309 140.912C160.885 161.084 161.089 182.71 158.934 203.398C158.504 204.911 158.805 207.282 157.499 208.286C162.04 208.546 145.546 209.483 144.93 209.65Z" fill="white"/>
<path fill-rule="evenodd" clip-rule="evenodd" d="M41.3326 189.732C41.7636 189.517 42.2129 189.27 42.7052 189.253C43.5505 189.223 43.5517 187.908 42.7052 187.937C41.9668 187.964 41.3184 188.272 40.6689 188.596C39.9108 188.974 40.5776 190.108 41.3326 189.732ZM42.7052 152.7C42.1283 152.701 41.5469 152.774 41.1038 153.177C40.8405 153.418 40.8613 153.865 41.1038 154.108C41.3634 154.367 41.7715 154.347 42.034 154.108C41.9483 154.186 42.0332 154.108 42.0641 154.091C42.0716 154.087 42.0757 154.084 42.0777 154.083C42.0842 154.081 42.0909 154.08 42.1015 154.077C42.1702 154.06 42.2382 154.043 42.3076 154.03C42.3087 154.033 42.4544 154.02 42.4887 154.019C42.561 154.016 42.633 154.016 42.7052 154.016C43.062 154.016 43.3628 153.715 43.3628 153.358C43.3628 153.003 43.0606 152.7 42.7052 152.7ZM48.889 167.458C49.0774 168.284 50.3451 167.932 50.1572 167.108C49.8839 165.91 49.9337 164.681 50.1572 163.478C50.311 162.651 49.0433 162.299 48.889 163.13C48.6209 164.572 48.5609 166.019 48.889 167.458ZM50.5501 120.177C51.5295 119.944 52.4983 119.916 53.5002 119.916C54.3477 119.915 54.3464 118.6 53.5002 118.6C52.3827 118.6 51.2919 118.649 50.2003 118.908C49.3761 119.104 49.7273 120.372 50.5501 120.177ZM53.832 152.221C54.4 151.937 54.9683 151.653 55.5364 151.369C56.2945 150.99 55.6276 149.855 54.8726 150.233L53.1682 151.085C52.4103 151.464 53.0771 152.599 53.832 152.221ZM54.0686 178.129C54.7892 179.168 55.8023 179.814 57.0182 180.136C57.8385 180.353 58.1853 179.084 57.3679 178.867C56.4983 178.637 55.7259 178.217 55.2043 177.465C54.7247 176.773 53.5851 177.431 54.0686 178.129ZM58.6129 131.809C58.808 131.445 59.1015 131.291 59.4657 131.283C60.312 131.263 60.3121 129.948 59.4657 129.967C58.6356 129.986 57.8742 130.403 57.4776 131.145C57.0782 131.892 58.214 132.556 58.6129 131.809ZM66.9548 140.752C67.1906 141.009 67.6477 141.002 67.8848 140.752C68.03 140.598 68.1519 140.427 68.2479 140.24C68.2844 140.168 68.3188 140.096 68.3589 140.027C68.3768 139.996 68.3967 139.965 68.4171 139.936C68.4241 139.93 68.4383 139.915 68.4531 139.899C68.7058 139.632 68.6993 139.237 68.4531 138.969C68.2173 138.712 67.76 138.718 67.5229 138.969C67.378 139.122 67.2558 139.293 67.16 139.481C67.1235 139.552 67.0891 139.625 67.0488 139.694C67.0309 139.725 67.011 139.755 66.9907 139.785C66.9838 139.791 66.9696 139.806 66.9548 139.821C66.7021 140.089 66.7084 140.483 66.9548 140.752ZM67.6562 160.178C68.5126 160.57 69.452 160.57 70.3086 160.178C70.6329 160.03 70.7098 159.561 70.5442 159.277C70.3526 158.95 69.9673 158.894 69.6447 159.043C69.2562 159.22 68.7078 159.22 68.3198 159.043C67.9956 158.894 67.6142 158.946 67.4202 159.277C67.2537 159.562 67.333 160.03 67.6562 160.178ZM69.9924 173.929C70.1396 174.276 70.4573 174.462 70.8289 174.477C71.1969 174.49 71.471 174.164 71.4865 173.818C71.4962 173.595 71.3758 173.404 71.2027 173.287C71.2024 173.274 71.2021 173.263 71.2021 173.25C71.2019 172.881 70.9009 172.608 70.5445 172.593C70.1896 172.577 69.8868 172.906 69.887 173.25C69.8871 173.483 69.9015 173.712 69.9924 173.929ZM73.3855 195.789C74.4351 195.805 75.4606 196.056 76.5102 196.073C77.3583 196.087 77.3557 194.772 76.5102 194.757C75.4608 194.741 74.4353 194.49 73.3855 194.474C72.5374 194.459 72.54 195.776 73.3855 195.789ZM77.7499 111.482C78.3643 112.068 79.1232 112.356 79.8715 112.722C80.6296 113.092 81.2956 111.957 80.5352 111.586C79.9013 111.276 79.1996 111.047 78.6798 110.552C78.0665 109.968 77.1355 110.897 77.7499 111.482ZM79.3989 126.646C79.8301 126.431 80.2794 126.185 80.7714 126.168C81.6168 126.138 81.618 124.822 80.7714 124.852C80.0332 124.878 79.3849 125.186 78.7352 125.51C77.9767 125.889 78.6437 127.023 79.3989 126.646ZM87.305 187.507C87.4996 187.142 87.7931 186.987 88.1573 186.979C89.0039 186.961 89.0042 185.645 88.1573 185.664C87.3272 185.684 86.5658 186.101 86.1692 186.842C85.7701 187.59 86.9056 188.254 87.305 187.507ZM90.0428 158.938C90.3045 158.699 90.2862 158.252 90.0428 158.008C89.7587 157.724 89.4747 157.44 89.1905 157.156C88.9307 156.896 88.5232 156.915 88.2606 157.156C87.9989 157.396 88.0172 157.842 88.2606 158.086C88.5448 158.37 88.8287 158.655 89.1129 158.938C89.3728 159.199 89.7802 159.18 90.0428 158.938ZM93.2709 203.461C94.2197 203.44 95.1091 203.168 96.0025 202.87C96.8028 202.604 96.4576 201.333 95.6527 201.602C94.8762 201.859 94.0963 202.127 93.2709 202.146C92.4245 202.166 92.4241 203.481 93.2709 203.461ZM97.532 175.329C98.3892 175.305 99.1002 174.868 99.7015 174.283C100.31 173.693 99.3786 172.762 98.7715 173.354C98.4273 173.688 98.0304 173.999 97.532 174.014C96.6859 174.037 96.6853 175.352 97.532 175.329ZM94.886 139.15C94.8756 139.5 94.7276 139.875 94.5104 140.106C93.9291 140.721 94.858 141.653 95.4403 141.036C95.9207 140.527 96.1809 139.846 96.2011 139.15C96.2254 138.301 94.9101 138.305 94.886 139.15ZM104.918 110.497C105.193 109.957 105.554 109.325 106.102 109.028C106.847 108.623 106.183 107.488 105.438 107.892C104.693 108.296 104.159 109.094 103.782 109.832C103.397 110.586 104.533 111.251 104.918 110.497ZM106.622 124.178C106.927 124.17 107.23 124.117 107.525 124.038C107.65 124.003 107.775 123.964 107.901 123.93C107.954 123.915 108.184 123.887 108.043 123.894C108.399 123.875 108.7 123.608 108.7 123.236C108.7 122.895 108.398 122.559 108.043 122.579C107.555 122.605 107.111 122.849 106.622 122.863C105.777 122.887 105.776 124.202 106.622 124.178ZM110.884 145.207H112.304C113.152 145.207 113.15 143.891 112.304 143.891H110.884C110.036 143.891 110.037 145.207 110.884 145.207ZM112.54 203.372C112.971 203.587 113.479 203.792 113.828 204.121C114.443 204.703 115.374 203.774 114.758 203.191C114.313 202.77 113.745 202.506 113.204 202.236C112.885 202.076 112.493 202.148 112.304 202.472C112.133 202.764 112.223 203.214 112.54 203.372ZM115.714 186.749C115.769 186.733 115.827 186.723 115.883 186.715C116.107 186.686 116.341 186.696 116.565 186.696C117.413 186.696 117.411 185.379 116.565 185.381C115.898 185.381 115.204 185.39 114.68 185.856C114.413 186.094 114.439 186.547 114.68 186.787C114.941 187.049 115.345 187.023 115.61 186.787C115.582 186.813 115.678 186.759 115.714 186.749ZM116.565 164.393C116.374 163.998 116.371 163.742 116.37 163.304C116.37 162.457 115.055 162.458 115.055 163.304C115.056 163.94 115.15 164.481 115.429 165.058C115.585 165.379 116.04 165.462 116.329 165.294C116.652 165.105 116.72 164.712 116.565 164.393ZM120.367 133.533C121.13 133.792 121.811 134.159 122.483 134.603C123.192 135.071 123.85 133.931 123.147 133.467C122.38 132.961 121.587 132.56 120.717 132.264C119.913 131.99 119.57 133.261 120.367 133.533ZM124.803 111.391C125.37 111.407 125.955 111.624 126.46 111.869C127.219 112.238 127.885 111.103 127.124 110.733C126.402 110.383 125.613 110.098 124.803 110.075C123.955 110.051 123.959 111.367 124.803 111.391ZM126.792 170.497C127.015 170.509 127.205 170.388 127.323 170.214C127.336 170.214 127.348 170.214 127.36 170.214C127.729 170.214 128.002 169.912 128.018 169.555C128.034 169.202 127.704 168.899 127.36 168.899C127.128 168.899 126.898 168.913 126.682 169.003C126.334 169.151 126.149 169.469 126.134 169.841C126.12 170.209 126.447 170.483 126.792 170.497ZM130.026 125.007C130.834 125.271 131.177 124.001 130.376 123.739C129.436 123.432 128.475 123.193 127.535 122.886C126.727 122.622 126.384 123.893 127.185 124.155C128.125 124.462 129.086 124.7 130.026 125.007ZM132.975 149.839C133.226 150.647 134.495 150.3 134.244 149.489C134.001 148.707 133.984 147.919 133.983 147.106C133.983 146.259 132.668 146.26 132.668 147.106C132.669 148.032 132.7 148.949 132.975 149.839ZM141.769 179.581C141.817 179.908 142.076 180.145 142.416 180.159C142.762 180.176 143.086 179.846 143.074 179.503C143.05 178.839 142.51 178.3 141.848 178.275C141.48 178.262 141.206 178.588 141.19 178.934C141.175 179.269 141.456 179.532 141.769 179.581ZM146.218 141.773C146.913 142.005 147.656 142.226 148.201 142.741C148.816 143.322 149.748 142.393 149.131 141.811C148.412 141.132 147.488 140.812 146.568 140.505C145.762 140.236 145.42 141.507 146.218 141.773ZM149.234 167.331C149.425 167.657 149.812 167.715 150.134 167.567C150.565 167.365 151.042 167.373 151.507 167.372C152.354 167.372 152.353 166.057 151.507 166.057C150.789 166.057 150.127 166.125 149.47 166.43C149.147 166.581 149.068 167.046 149.234 167.331ZM150.938 198.346C151.307 198.36 151.581 198.035 151.596 197.689C151.611 197.353 151.331 197.091 151.018 197.042C150.97 196.715 150.71 196.478 150.37 196.462C150.024 196.447 149.7 196.777 149.713 197.12C149.737 197.782 150.276 198.323 150.938 198.346ZM31.1219 203.321C31.3453 202.516 31.8567 201.867 32.2429 201.144C32.3725 200.899 32.4176 200.748 32.4878 200.57C32.5832 200.761 32.7683 200.904 33.0465 200.904C33.5805 200.904 34.205 200.87 34.7033 201.098C35.0273 201.247 35.4091 201.194 35.6029 200.862C35.7694 200.577 35.6899 200.111 35.367 199.962C34.6326 199.627 33.8432 199.589 33.0465 199.588C32.8498 199.588 32.7008 199.661 32.5956 199.77C32.2911 195.6 32.2986 191.426 32.5868 187.253C32.8939 182.793 33.601 178.422 34.3409 174.019C34.6991 171.884 35.1643 169.728 35.0739 167.554C34.9834 165.395 34.058 163.382 34.7139 161.217C34.9769 160.348 35.4273 159.553 35.72 158.694C36.0339 157.77 36.006 156.857 35.8629 155.9C35.5688 153.951 35.0806 152.026 35.8615 150.123C36.2066 149.279 36.7658 148.526 37.0351 147.655C37.3705 146.571 37.3244 145.372 37.3804 144.249C37.4939 141.983 37.5234 139.702 37.7109 137.441C37.7947 136.427 37.977 135.467 38.3931 134.538C38.7927 133.643 39.386 132.829 39.6507 131.88C39.9137 130.946 39.9367 129.961 40.0781 129.006C40.2261 127.996 40.4578 127.001 40.7702 126.031C41.977 122.275 44.188 118.9 46.8003 115.975C49.577 112.865 52.8961 110.523 56.4191 108.341C58.2717 107.193 60.1241 106.046 61.9753 104.898C62.0149 105.114 62.1522 105.311 62.4157 105.4C63.1109 105.632 63.8531 105.852 64.3981 106.367C65.0136 106.948 65.9449 106.019 65.3281 105.437C64.6847 104.829 63.876 104.509 63.053 104.228C63.8965 103.696 64.7491 103.146 65.701 102.838C66.5347 102.569 67.7641 102.804 68.44 102.192C68.9708 101.71 69.1387 100.817 69.3424 100.163C69.5972 99.3504 69.8174 98.4937 70.1414 97.7044C70.3617 97.165 70.6822 96.6469 71.0865 96.2292C71.2642 95.5451 71.5898 94.9201 72.1652 94.5403C73.671 93.5438 75.5204 94.5338 76.1829 95.9546C76.7304 95.953 77.3073 96.0729 77.84 96.1059C78.935 96.175 80.0314 96.2062 81.1279 96.203C83.2733 96.1963 85.4204 96.0565 87.5477 95.7721C91.3517 95.2622 95.0425 94.2344 98.7824 93.4336C98.8038 93.3842 98.8286 93.3349 98.8581 93.2856C99.6637 91.9339 101.671 92.1623 102.935 92.6739C103.478 92.8926 104.03 93.1688 104.341 93.682C104.67 93.9039 104.954 94.1736 105.143 94.4581C105.534 95.0451 105.837 96.2292 106.631 96.328C107.154 96.392 107.685 96.2918 108.216 96.3674C108.88 96.4595 109.475 96.693 110.088 96.9594C114.757 98.987 119.584 101.242 124.65 102.028C125.839 102.212 127.049 102.403 128.081 103.069C128.92 103.61 129.568 104.353 130.26 105.059C130.934 105.746 131.489 106.05 132.451 106.173C133.618 106.323 134.629 106.645 135.482 107.494C136.191 108.2 136.653 109.101 137.209 109.92C137.774 110.755 138.604 111.225 139.466 111.711C141.503 112.859 143.4 114.245 145.052 115.907C148.532 119.414 150.64 123.919 152.764 128.31C155.06 133.059 157.207 137.866 158.696 142.938C160.156 147.918 161.025 153.04 161.426 158.21C161.848 163.637 161.908 169.083 162.26 174.511C162.434 177.223 162.568 179.938 162.703 182.651C162.835 185.332 163.028 188.017 162.997 190.701C162.936 195.89 161.9 201.095 160.086 205.953C159.633 207.16 159.133 208.353 158.598 209.527C158.129 210.558 156.527 210.443 156.024 209.527C155.909 209.316 155.818 209.1 155.743 208.88C154.427 208.891 153.099 208.788 151.792 208.911C149.484 209.126 147.171 209.246 144.856 209.39C140.276 209.673 135.688 209.862 131.106 210.125C130.662 210.149 130.217 210.175 129.773 210.201C133.038 200.093 132.614 189.163 133.131 178.65C133.173 177.801 131.857 177.806 131.816 178.65C131.297 189.209 131.739 200.166 128.358 210.291C127.047 210.381 125.737 210.488 124.432 210.648C123.376 210.773 122.316 210.923 121.251 210.871C120.042 210.814 118.862 210.537 117.683 210.297C115.541 209.861 113.478 210.058 111.328 210.327C109.028 210.614 106.72 210.773 104.405 210.874C95.1362 211.28 85.805 211.65 76.5396 211.031C74.2972 210.881 72.0598 210.671 69.8322 210.384C67.5372 210.09 65.267 209.595 62.9738 209.313C60.7134 209.038 58.6353 209.796 56.4011 209.936C54.1227 210.077 51.7832 209.603 49.526 209.329C48.7896 209.24 48.0525 209.153 47.3153 209.067C48.2644 202.56 48.8041 196.002 49.3283 189.448C49.396 188.602 48.0802 188.61 48.0132 189.448C47.4932 195.952 46.9655 202.459 46.0178 208.916C42.1093 208.461 38.1969 208.001 34.3291 207.292C33.2277 207.092 32.1329 206.764 31.4736 205.782C30.9855 205.053 30.8867 204.16 31.1219 203.321Z" fill="black"/>
<path fill-rule="evenodd" clip-rule="evenodd" d="M60.6574 65.3038C61.0114 62.1931 60.5535 55.6914 60.5227 55.2964C60.3287 52.7994 61.4983 42.9384 63.7096 43.8469C67.4187 40.9096 72.3589 40.2611 76.9784 39.9513C86.5739 39.3076 96.7817 40.7851 104.191 47.2448C107.855 50.5994 111.423 55.4784 111.136 60.5586C114.465 65.3742 119.158 71.9797 115.01 77.6092C113.6 79.4078 111.359 80.0776 109.588 81.4398C106.025 84.3144 103.79 88.4398 100.194 91.2972C90.6653 99.8623 74.4857 101.651 65.1241 91.9094C57.8848 84.854 59.0554 74.2985 60.3287 65.3038C61.1848 59.2566 59.9671 71.3721 60.6574 65.3038Z" fill="white"/>
<path fill-rule="evenodd" clip-rule="evenodd" d="M89.7967 26.7606C87.2304 26.2426 84.5953 25.9202 81.9747 26.0172L81.7727 26.0252C79.8008 26.1039 77.3037 26.2782 75.5837 27.4253C75.4846 27.3259 75.3255 27.2749 75.1812 27.3439C73.1371 28.3198 70.8887 29.0256 68.7365 29.7267C66.594 30.4245 64.3714 30.8852 62.1259 31.0708C61.2811 31.1407 60.5581 32.0533 61.0931 32.8717C61.2204 33.0668 61.3442 33.2638 61.4677 33.4613C61.2613 33.4398 61.0548 33.4175 60.8483 33.3966C60.1688 33.3281 59.49 34.0537 59.5303 34.7154C59.5555 35.1316 59.6004 35.5428 59.6668 35.9492C59.4081 35.9438 59.1507 35.9826 58.9022 36.0877C57.6435 36.6193 57.7312 38.1191 57.8254 39.26C57.9559 40.8433 58.5479 42.5204 59.647 43.7054C58.8263 44.558 58.2453 45.5764 57.8989 46.7857C57.6474 47.6688 57.5076 48.6094 57.5767 49.5287L57.5987 49.8039C57.6841 50.8016 57.8537 51.906 58.5712 52.6237C58.9395 52.9938 59.3932 53.1285 59.8257 53.0858C59.5642 55.3847 59.3965 57.697 59.2387 60.001L59.1646 61.1021C58.8126 66.427 58.5481 71.7865 58.6172 77.1201C58.6816 82.1047 59.666 86.9428 62.7222 90.99C65.5056 94.6752 69.5019 97.392 74.0228 98.4248C76.4593 98.9823 78.9466 99.0217 81.4125 98.6665C82.6078 98.4938 83.811 98.2291 84.9455 97.8113C86.2013 97.3476 87.104 96.6652 87.9489 95.6422C88.3485 95.1571 88.1562 94.1244 87.3603 94.2214C86.1568 94.3674 85.058 94.5434 83.904 94.8995L83.7388 94.9516C82.5896 95.3199 81.3993 95.5945 80.1978 95.7113C77.7366 95.9497 75.2379 95.7097 72.8803 94.963C69.0416 93.7462 65.7355 91.0343 63.6166 87.627C61.1012 83.5881 60.8169 79.0032 60.8532 74.3591C60.8922 69.2631 61.0579 64.164 61.3282 59.0732L61.3744 58.2248C61.5174 55.6052 61.6555 52.9838 61.7769 50.3624C61.8148 49.5403 61.8724 48.7114 61.976 47.8908C62.9245 47.3349 63.7743 46.5687 64.3284 45.623C65.4414 46.0835 66.6118 46.4156 67.6888 46.6804C70.1834 47.2942 72.7732 47.4431 75.3123 47.0588C75.9973 47.3419 76.6957 47.5908 77.4049 47.8047C77.5967 47.8898 77.7884 47.9734 77.9799 48.0552C79.6898 48.7871 81.4242 49.407 83.229 49.861L83.6725 49.9715C84.6224 50.2058 85.6541 50.4364 86.6649 50.5089C86.831 50.573 87.0103 50.6272 87.206 50.675C88.1264 50.8986 89.0818 50.9693 90.0252 50.8904C90.9443 50.8132 91.6086 49.884 91.1022 49.0141C90.7323 48.3792 90.359 47.7461 89.9825 47.1146C91.2927 47.6605 92.6456 48.1145 94.0101 48.4993C95.3878 48.8874 96.7852 49.2147 98.1844 49.5155C98.9324 49.675 99.6835 49.8165 100.43 49.976C100.964 50.0895 101.785 50.1488 102.22 50.5006C102.702 50.8871 102.838 51.7883 103.021 52.3442C103.261 53.0661 103.486 53.7913 103.692 54.5248C104.101 55.9884 104.436 57.4733 104.696 58.9732C104.956 60.4745 105.13 61.9907 105.227 63.512C105.324 65.0314 105.281 66.5608 105.437 68.0738C105.521 68.8764 106.383 69.2892 107.019 68.7282C107.094 68.6626 107.169 68.5961 107.243 68.5288L107.354 68.4274C107.899 67.934 108.426 67.411 108.862 66.8224C108.941 66.7139 109.016 66.6003 109.087 66.4852C109.098 66.4852 109.108 66.482 109.12 66.4737L109.241 66.3827C110.57 65.3929 112.792 64.1022 114.088 65.7468C114.501 66.2708 114.713 66.9379 114.888 67.5815L115.196 68.7333C115.395 69.4854 115.583 70.2415 115.693 71.0108C115.941 72.7343 115.816 74.7208 114.631 76.1023C114.157 76.6549 113.504 77.0494 112.776 77.153C112.37 77.2089 111.969 77.1398 111.566 77.089C111.157 77.038 110.762 77.1201 110.353 77.0807C109.702 77.0167 109.417 77.7961 109.661 78.2861C109.792 78.5493 109.947 78.7762 110.123 78.9686C109.982 79.0903 109.846 79.2219 109.717 79.36C109.332 79.4834 108.987 79.7481 108.729 80.0984C108.52 80.3813 108.412 80.6888 108.393 81.0128C108.37 81.0933 108.351 81.1756 108.332 81.2594L107.98 81.832C107.902 81.9577 107.825 82.0817 107.747 82.2034C106.85 83.6176 105.853 84.8149 104.615 85.9429C103.423 87.0284 102.13 88.0003 101.01 89.1645L100.878 89.3029C99.8344 90.4032 98.7341 91.7351 99.1426 93.335C99.2479 93.7462 99.8218 94.0421 100.196 93.7643C101.401 92.8696 102.008 91.452 103.031 90.3667C104.083 89.2484 105.248 88.2436 106.304 87.1286C107.302 86.0762 108.089 84.884 108.683 83.5716C108.92 83.833 109.265 84.019 109.743 84.0913C110.565 84.2145 111.331 83.7328 111.689 83.0207C111.92 83.1227 112.155 83.2147 112.392 83.2871C113.638 83.6686 114.422 82.2823 113.951 81.2577C113.7 80.7086 113.386 80.2316 112.996 79.8304C114.215 79.6627 115.454 79.0328 116.255 78.2467C118.264 76.2716 118.54 73.3032 118.088 70.6639C117.848 69.2644 117.434 67.8486 116.896 66.5346C116.802 66.306 116.702 66.0757 116.592 65.8487C116.653 65.8471 116.715 65.8208 116.755 65.7698C117.118 65.2733 117.56 64.867 117.83 64.3111C118.078 63.8014 118.354 63.285 118.55 62.7539C118.952 61.6668 119.15 60.44 119.281 59.2905C119.552 56.9373 119.447 54.5988 119.087 52.2603C118.474 48.2773 116.993 44.4656 114.812 41.121C114.93 41.0586 115.044 40.9833 115.15 40.8942L115.203 40.8484L115.288 40.7714C115.91 40.2079 115.857 39.1516 115.288 38.5807L115.108 38.4007C114.881 38.1746 114.685 37.9954 114.317 37.7493C114.263 37.713 114.207 37.6787 114.151 37.6468C114.344 37.2914 114.411 36.8755 114.277 36.4169C113.81 34.8191 111.511 34.8756 110.055 35.5725C108.443 34.1337 106.656 32.8847 104.719 31.8734C100.106 29.4658 94.89 27.7868 89.7967 26.7606ZM113.642 68.8435C112.781 68.5622 111.637 69.1526 110.863 69.5078C109.881 69.9584 109.046 70.6245 108.237 71.3283C107.834 71.6801 107.762 72.2557 107.862 72.7475C107.872 72.7967 107.882 72.8478 107.894 72.8988C108 73.4233 108.586 73.8361 109.104 73.8213C110.187 73.7918 110.703 72.8561 111.316 72.0634C111.389 72.1917 111.479 72.31 111.591 72.3988L111.666 72.4579C111.921 72.6519 112.202 72.8069 112.538 72.7919C112.776 72.7803 113.004 72.7195 113.215 72.6093C113.741 72.3313 113.973 71.6506 113.83 71.0964C113.741 70.7478 113.537 70.4747 113.271 70.2857L113.37 70.2177C113.583 70.0699 113.776 69.914 113.927 69.6838L113.961 69.6294H113.948C114.113 69.3467 114.006 68.9618 113.642 68.8435Z" fill="black"/>
<path fill-rule="evenodd" clip-rule="evenodd" d="M73.0673 85.3929C74.2784 85.7437 75.5784 85.775 76.8128 85.4127C77.9324 85.084 79.0821 84.3606 79.9062 83.4034C80.6382 82.5531 81.1123 81.5199 81.0937 80.4168C81.0916 80.2908 81.0466 80.1857 80.9773 80.1041C80.9027 80.0162 80.7986 79.9559 80.6869 79.9297C80.5722 79.9028 80.451 79.9123 80.3476 79.9592C80.2541 80.0017 80.1741 80.0739 80.1239 80.1794C79.9973 80.3458 79.8711 80.5099 79.7445 80.6692C78.7262 81.927 77.7401 82.8669 76.2089 83.2041C75.3781 83.3869 74.5485 83.3058 73.7871 83.0268C72.9723 82.7279 72.2355 82.2025 71.6583 81.5303C71.3974 81.2264 71.0894 81.1024 70.7883 81.1003C70.4469 81.098 70.1095 81.2565 69.8555 81.5101C69.6057 81.7594 69.4383 82.0981 69.4231 82.4524C69.4099 82.7633 69.5113 83.0881 69.781 83.378C70.6696 84.3325 71.8213 85.0317 73.0673 85.3929ZM73.1048 69.6398C71.8633 70.3946 69.9718 72.1548 71.3073 74.0261C72.8792 75.6761 75.1426 73.7842 76.2579 72.9287C77.2921 72.2656 78.454 73.971 77.4945 74.7452C69.4352 80.714 66.1646 69.8371 72.4769 68.7523C73.1719 68.6327 73.4301 69.4063 73.1048 69.6398ZM84.7176 66.3185C85.1166 66.0631 85.5861 65.9756 86.1062 66.2122C86.5127 66.3972 87.2256 67.0137 87.7218 67.8239C88.0613 68.3783 88.302 69.0287 88.2518 69.7063C88.2402 69.8635 88.2982 69.9796 88.39 70.0653C88.4623 70.1331 88.567 70.1828 88.6898 70.1984C88.7941 70.2116 88.9108 70.1997 89.0056 70.1701C89.1862 70.1137 89.2817 69.9965 89.3177 69.9009C89.6652 68.978 89.5156 67.9481 89.1261 67.0189C88.6007 65.7649 87.6464 64.7146 87.0213 64.376C85.9514 63.7963 84.6893 63.7696 83.618 64.3601C82.706 64.8627 82.1357 65.6743 81.5686 66.5015C81.448 66.6773 81.3283 66.8518 81.2047 67.0233C80.9568 67.367 80.9322 67.7077 81.0282 67.9999C81.1344 68.3237 81.4056 68.5968 81.7447 68.7399C82.0579 68.8721 82.4217 68.8907 82.7435 68.7549C83.0153 68.6402 83.2648 68.4166 83.4227 68.0372C83.6887 67.3982 84.1316 66.6933 84.7176 66.3185ZM64.4531 67.74C64.7264 67.8824 64.9402 67.9253 65.2433 67.8345C65.411 67.7841 65.5766 67.6875 65.7063 67.5578C65.8349 67.4292 65.9276 67.2693 65.9636 67.0919C66.0523 66.6542 66.2918 66.2443 66.6331 65.9771C66.9248 65.7487 67.2929 65.6277 67.7013 65.6959C68.1419 65.7696 68.5617 66.0523 68.8508 66.3856C68.9476 66.4971 69.0232 66.6237 69.0995 66.7497C69.2419 66.9848 69.3805 67.2035 69.5768 67.3764C69.6513 67.4421 69.7636 67.4876 69.8723 67.4876C69.9164 67.4876 69.9612 67.4804 70.0041 67.467C70.4426 67.0267 70.5269 66.6926 70.5129 66.3613C70.498 66.0139 70.361 65.6621 70.1397 65.3338C69.6207 64.564 68.6351 63.9327 67.97 63.7896C67.0592 63.5939 66.1546 63.8289 65.4293 64.3378C64.6831 64.8614 64.1301 65.6744 63.9577 66.5906C63.9163 66.8113 63.9339 67.0493 64.0179 67.2558C64.1 67.4577 64.2431 67.6305 64.4531 67.74ZM82.7088 58.1094C83.2554 58.6421 83.9023 58.7248 84.557 58.7981C84.9205 58.8393 85.2109 58.8724 85.4966 58.9369C86.2817 59.1142 87.0579 59.3813 87.766 59.7659C88.5063 60.1679 89.313 60.6528 89.8933 61.274C90.0313 61.4218 90.1614 61.5768 90.2916 61.7322C90.4104 61.874 90.5248 62.0104 90.6454 62.1421C90.7839 62.2931 90.9154 62.4515 91.0463 62.6094C91.1271 62.7427 91.1431 62.7755 91.1594 62.8097C91.184 62.8611 91.2125 62.9184 91.2451 62.98C91.2896 63.0643 91.3419 63.1565 91.3966 63.2403C91.4876 63.3933 91.5364 63.4353 91.5787 63.4542C91.6487 63.4854 91.7151 63.5008 91.7796 63.4924C91.8401 63.4847 91.8969 63.4555 91.9531 63.4081C92.2338 63.1708 92.3166 62.7817 92.3081 62.3684C92.2952 61.7415 92.064 61.0473 91.8508 60.6205C91.3552 59.6289 90.668 58.5981 89.8416 57.858C88.8987 57.0133 87.867 56.3737 86.682 55.9331C85.9457 55.6591 85.0931 55.4077 84.2908 55.4394C83.7133 55.4623 83.162 55.634 82.7068 56.0628C82.4272 56.326 82.2931 56.7004 82.2931 57.0746C82.2931 57.4563 82.4324 57.84 82.7088 58.1094ZM63.3414 62.9878C63.3763 63.0449 63.4244 63.0842 63.4778 63.1078C63.534 63.1324 63.5966 63.1396 63.6567 63.1295C63.7167 63.1194 63.7736 63.0921 63.8187 63.0507C63.8619 63.011 63.8948 62.9582 63.9097 62.8937C64.2726 61.2992 64.9772 60.1129 66.4812 59.3479C67.221 58.9716 68.0719 58.7326 68.8772 58.5419C69.1112 58.4865 69.3586 58.4505 69.6076 58.4142C70.3882 58.3002 71.1743 58.1695 71.6831 57.5386C71.9898 57.1584 72.1184 56.6721 72.0457 56.2275C71.9773 55.8089 71.7326 55.4249 71.2881 55.195C70.1812 54.6225 68.8059 55.1842 67.6881 55.6627C67.6053 55.6982 67.5238 55.7331 67.4443 55.7667C66.3512 56.2282 65.3543 56.8373 64.5349 57.7085C63.8847 58.3998 63.2822 59.4216 63.0396 60.4727C62.8379 61.3471 62.8853 62.2399 63.3414 62.9878Z" fill="black"/>
<path fill-rule="evenodd" clip-rule="evenodd" d="M69.6228 88.0493C71.1539 86.6848 72.87 83.9416 75.0695 86.1121C75.6135 86.7253 75.8338 88.1001 76.6656 88.3698C77.7703 88.7283 78.8652 87.5591 79.2417 86.6611C80.7822 81.6722 74.4144 80.3038 70.7869 81.1098C69.0147 81.838 67.7093 84.7683 67.6305 86.2977C67.5795 87.3255 68.449 88.8368 69.6228 88.0493ZM58.0724 80.3596C58.0874 80.2932 58.1083 80.2334 58.1334 80.1788C58.8105 79.9228 59.3463 80.1841 59.6774 80.6718C59.6665 80.793 59.6303 80.9157 59.6075 81.036C59.863 81.5744 60.0935 82.2406 60.4398 82.7059C60.508 82.7111 60.5789 82.7039 60.6471 82.6842C66.3866 83.2838 63.5844 77.2765 69.4059 75.7844C73.906 75.0418 82.0392 75.8924 84.1622 80.5779C85.8363 88.0616 94.3492 82.847 97.1444 78.955C100.127 75.4128 102.055 71.0844 103.914 66.8844C104.307 65.9956 105.533 66.6311 105.4 67.4839C107.119 70.9327 107.062 75.0752 107.487 78.8533C108.211 86.3908 108.917 96.9613 101.915 101.564C92.7936 111.878 70.0151 115.517 59.4941 106.041C55.8521 98.208 56.301 88.6522 58.0724 80.3596Z" fill="black"/>
<path fill-rule="evenodd" clip-rule="evenodd" d="M64.0641 57.4102C60.2053 57.4102 58.0034 58.2401 57.1964 58.3048L57.1721 58.3066C56.8366 58.3281 56.5354 58.3562 56.2196 58.4784C55.058 58.9259 54.8688 60.1445 55.5466 60.9125C55.5942 62.5017 55.3852 64.3585 55.7438 65.953C56.186 72.6742 59.3459 73.8084 61.142 74.2223C62.0437 74.4302 63.1126 74.513 64.0703 74.2935C65.7045 74.2326 67.3199 73.7209 68.7022 72.8298C70.6271 71.5879 72.0568 69.6791 72.5207 67.4136C72.7407 66.3338 72.8434 65.2098 72.7238 64.1121L72.706 63.9609C73.3318 63.6615 74.0568 63.605 74.8041 63.5784C75.1612 63.5657 75.5132 63.5543 75.8551 63.5696C76.1892 63.607 76.5193 63.6567 76.8506 63.7243C77.2122 63.8335 77.5538 64.0135 77.8691 64.2989L77.8908 64.7154C77.9501 65.7558 78.0867 66.7992 78.2972 67.8198C78.6082 69.3258 79.1083 70.7641 80.1728 71.8323C80.5331 72.3706 80.9789 72.8511 81.5203 73.2673C83.4866 74.7816 86.1579 75.3376 88.6096 75.1282C93.5872 74.7034 96.4641 70.7509 97.1272 69.0615L97.1668 68.9591C97.6457 67.7032 98.0275 66.0735 99.541 65.8037L99.8628 65.7458C100.553 65.6161 101.191 65.4355 101.596 64.7615C101.773 64.4672 101.864 64.138 101.887 63.8025C102.123 63.8208 102.359 63.838 102.594 63.855C104.47 64.2516 115.719 64.5881 116.617 64.5881C116.617 64.5881 118.343 65.3148 119.072 64.7518C119.577 64.3602 119.743 63.8384 119.465 63.2473C119.045 62.3578 117.11 61.8228 116.25 61.6534C116.25 61.6534 102.381 61.7686 101.383 61.5792C100.765 60.9422 99.6604 61.0294 98.7372 60.9287C97.973 60.3836 96.9039 60.0185 96.0594 59.7741C95.8874 59.7089 95.7169 59.6458 95.5512 59.5864C94.003 59.0349 92.3938 58.7427 90.7601 58.5858C89.0754 58.4257 87.3856 58.4981 85.7107 58.7277C85.0049 58.8235 84.3056 58.9474 83.6114 59.1094C82.3682 59.2733 81.1323 59.5433 79.8886 59.8635L79.6397 59.9284C78.3301 60.2718 76.9842 60.5689 75.6286 60.336C74.525 60.1478 73.4636 59.7228 72.4459 59.2634L72.3134 59.2032C70.076 58.1813 66.5816 57.4102 64.0641 57.4102ZM83.746 61.1469C84.5716 60.9652 84.9241 62.2386 84.0959 62.4206C83.5094 62.5497 83.0124 62.8454 82.6765 63.3467L82.6412 63.4011C82.1906 64.1185 81.0511 63.4564 81.5048 62.7343C82.0154 61.9219 82.8087 61.3529 83.746 61.1469ZM59.5656 60.3573C59.8566 60.1523 60.2969 60.3045 60.4659 60.5943C60.6519 60.9134 60.5301 61.2688 60.2575 61.4775L60.2298 61.4979C59.9796 61.6742 59.7362 61.9902 59.7055 62.3138L59.7029 62.3544C59.6702 63.2017 58.3538 63.2059 58.3867 62.3544C58.4188 61.5214 58.901 60.8254 59.5656 60.3573Z" fill="black"/>
</g>
<defs>
<clipPath id="clip0_1317_51746">
<rect width="194" height="196" fill="white"/>
</clipPath>
</defs>
</svg>
