<svg width="56" height="30" viewBox="0 0 56 30" fill="none" xmlns="http://www.w3.org/2000/svg">
<path d="M51.3073 0.368854C53.5787 2.83497 54.6444 5.79227 55.8895 8.86714C56.1929 9.62211 55.8567 10.436 54.9951 10.7156C52.2149 11.6192 49.4254 12.4946 46.6452 13.3982C45.0524 13.9166 44.5699 11.5148 46.1469 10.9915C47.9596 10.4035 49.7742 9.82084 51.5907 9.24356C51.5039 9.2128 51.4213 9.1728 51.3446 9.12425C46.6011 6.17796 39.3419 3.97873 34.3679 8.80525C34.0727 9.09358 33.7954 9.39892 33.5378 9.71934C34.7591 11.1147 35.6824 12.7439 36.2596 14.5222C36.865 16.3562 36.9018 18.9659 34.6634 19.9818C32.8699 20.7943 31.0304 19.7035 30.0997 18.3278C29.0951 16.8258 28.9173 14.8199 29.2843 12.9982C29.4833 12.0494 29.8197 11.123 30.2832 10.248C28.5718 8.92527 26.4133 8.20435 24.0609 8.48895C22.0419 8.72271 20.1124 9.7298 18.8891 11.2446C20.0708 12.0281 21.1152 12.986 21.9894 14.088C23.1763 15.5094 24.5916 17.3563 24.0892 19.403C23.5867 21.4497 21.3673 22.3725 19.4686 21.8795C17.5307 21.3768 16.1131 19.7758 15.4572 17.9826C14.8326 16.283 14.8198 14.3833 15.4209 12.5816C15.1325 12.5198 14.8389 12.4769 14.5418 12.4529C11.0499 12.1981 7.45783 14.1872 5.40116 17.0714C2.91319 20.5625 2.35275 24.8346 2.59316 28.8065C2.69342 30.3964 0.143647 30.3948 0.0474229 28.82C-0.249243 23.9406 0.77873 18.677 4.21962 14.6613C7.13409 11.2602 11.9418 9.29589 16.1953 10.1457C16.3311 10.1733 16.4627 10.2033 16.5936 10.2379C17.4795 8.96151 18.6766 7.91102 20.0637 7.1926C24.0095 5.14784 28.4833 5.68587 31.7329 8.05551C33.3509 6.11193 35.5261 4.68273 37.9362 3.97968C42.9577 2.56927 48.0095 4.12439 52.1325 6.54423C51.4274 4.96011 50.6004 3.45697 49.3804 2.13483C48.3384 1.01917 50.2492 -0.779337 51.3073 0.368854ZM18.4971 18.2015C19.036 18.9141 21.9447 20.6553 21.6092 18.4731C21.3789 16.9792 19.8843 15.5473 18.8909 14.5596C18.5321 14.2014 18.1393 13.8773 17.7169 13.5912C17.5147 14.3961 17.4796 15.2201 17.6137 16.0128C17.7479 16.8055 18.0485 17.5503 18.4971 18.2015ZM31.7988 15.7092C31.9555 16.3273 33.2177 18.7331 34.0251 17.3974C34.7926 16.1291 32.9815 13.3442 32.3353 12.4143C32.2677 12.3169 32.1947 12.2237 32.123 12.1287C31.6413 13.2898 31.528 14.5406 31.7988 15.7092ZM52.9397 8.8072L53.0513 8.77224C53.0425 8.74672 53.0325 8.72293 53.0225 8.69915C53.002 8.73881 52.9736 8.77599 52.9447 8.81037L52.9397 8.8072Z" fill="#001AFF" fill-opacity="0.82"/>
</svg>
