<svg width="192" height="80" viewBox="0 0 192 80" fill="none" xmlns="http://www.w3.org/2000/svg">
<g clip-path="url(#clip0_627_7352)">
<path d="M9.7574 0.650181C10.1974 0.685241 10.6124 0.79042 10.9574 1.08592C11.5474 1.59178 11.8674 2.23287 11.8824 3.01921C11.8874 3.23959 11.7324 3.41989 11.5374 3.43993C11.2874 3.46998 11.1074 3.33475 11.0524 3.09434C11.0024 2.85393 10.9124 2.63355 10.7874 2.4232C10.4624 1.87727 10.0224 1.68694 9.4024 1.82217C8.6224 1.99246 7.9324 2.35308 7.2974 2.81887C5.2324 4.33645 3.8574 6.31982 3.2774 8.8341C3.0524 9.81577 2.9924 10.8024 3.2074 11.7991C3.2774 12.1197 3.3924 12.4202 3.5424 12.7107C3.8674 13.3468 4.3924 13.7074 5.0774 13.8576C5.8624 14.0279 6.6174 13.8927 7.3524 13.6172C8.4024 13.2216 9.3124 12.6005 10.1574 11.8693C10.5374 11.5387 10.8624 11.1581 11.2224 10.8175C11.6324 10.4268 12.0974 10.1363 12.6724 10.0662C12.9274 10.0361 13.1874 10.0261 13.4424 10.0912C13.8974 10.2064 14.1924 10.5019 14.3824 10.9227C14.5774 11.3584 14.6574 11.8192 14.7574 12.28C14.8124 12.5354 14.8474 12.7958 14.9274 13.0463C15.0624 13.452 15.3874 13.5772 15.7624 13.3668C16.0274 13.2166 16.2324 12.9962 16.4274 12.7658C16.9774 12.1147 17.4224 11.3985 17.8524 10.6672C17.8774 10.6221 17.8824 10.5771 17.8774 10.522C17.7674 9.8358 17.7474 9.14463 17.7274 8.45345C17.7074 7.8324 17.7174 7.21134 17.7424 6.59028C17.7874 5.45836 17.8774 4.33645 18.1324 3.22957C18.2324 2.78381 18.3674 2.35308 18.5874 1.9524C18.6724 1.79713 18.7774 1.64688 18.9024 1.52166C19.3124 1.11597 19.9074 1.13601 20.2924 1.56674C20.5874 1.90231 20.7124 2.308 20.8024 2.73372C20.9724 3.51505 20.9724 4.3064 20.8824 5.09775C20.6774 6.87076 20.1374 8.54361 19.3224 10.1313C19.2274 10.3166 19.2174 10.4819 19.2524 10.6722C19.3774 11.3434 19.5424 11.9995 19.8274 12.6205C19.8874 12.7558 19.9674 12.886 20.0574 13.0062C20.2774 13.2817 20.5174 13.3317 20.8274 13.1665C21.0724 13.0362 21.2774 12.8559 21.4924 12.6806C21.9724 12.29 22.4624 11.9043 23.0174 11.6188C23.3374 11.4536 23.6774 11.3484 24.0424 11.4185C24.5224 11.5137 24.8324 11.8192 25.0074 12.2699C25.0424 12.3651 25.0624 12.4653 25.0974 12.5805C25.2774 12.32 25.4474 12.0696 25.6374 11.8292C25.9724 11.4035 26.3374 11.0028 26.7824 10.6873C27.8674 9.91093 28.9074 10.4318 29.4124 11.2332C29.5824 11.4986 29.6924 11.7891 29.7824 12.0896C29.7924 12.1147 29.8024 12.1447 29.8174 12.1898C29.9574 11.9544 30.0874 11.734 30.2374 11.5287C30.5624 11.0929 30.9324 10.7123 31.4474 10.4919C32.2324 10.1614 33.1924 10.4569 33.6274 11.153C33.8574 11.5187 34.0474 11.8993 34.2074 12.3C34.3774 12.7257 34.6174 13.1014 34.9874 13.3818C35.4674 13.7475 36.0174 13.8376 36.6024 13.8226C37.3324 13.8076 37.9774 13.487 38.6374 13.2266C38.8624 13.1364 38.9374 13.1414 39.0874 13.3317C39.0874 13.3969 39.0874 13.467 39.0874 13.5321C39.0374 13.5772 38.9924 13.6323 38.9374 13.6773C38.6124 13.9378 38.2474 14.1331 37.8724 14.2984C37.0774 14.654 36.2574 14.8744 35.3774 14.7542C34.7274 14.664 34.1774 14.3785 33.7274 13.8927C33.3124 13.4419 33.0524 12.906 32.8874 12.32C32.8324 12.1247 32.7574 11.9394 32.6424 11.7741C32.4274 11.4736 32.1524 11.4135 31.8374 11.6038C31.6324 11.729 31.4674 11.9043 31.3324 12.0997C31.0674 12.4803 30.9124 12.911 30.7374 13.3368C30.5924 13.6874 30.4574 14.043 30.2074 14.3385C29.7874 14.8343 29.1074 14.7241 28.8574 14.1231C28.7574 13.8877 28.7374 13.6423 28.7274 13.3868C28.7174 13.0062 28.7174 12.6306 28.6574 12.2499C28.6224 12.0345 28.5674 11.8242 28.4324 11.6489C28.1974 11.3283 27.9024 11.2532 27.5424 11.4185C27.3374 11.5137 27.1574 11.6489 26.9924 11.8042C26.4324 12.33 26.0074 12.9561 25.6624 13.6373C25.5174 13.9228 25.3874 14.2183 25.1724 14.4637C25.0024 14.664 24.7824 14.6891 24.5474 14.6239C24.3274 14.5638 24.2174 14.3986 24.1774 14.1782C24.1474 13.9929 24.1624 13.8026 24.1624 13.6172C24.1574 13.3418 24.1424 13.0663 24.0374 12.8059C23.9374 12.5654 23.8824 12.5454 23.6624 12.6806C23.4024 12.8409 23.1674 13.0362 22.9324 13.2266C22.4424 13.6172 21.9674 14.0229 21.4324 14.3485C21.2424 14.4637 21.0524 14.5739 20.8274 14.6089C20.0924 14.7191 19.5224 14.4236 19.0674 13.8627C18.7324 13.452 18.5174 12.9711 18.3374 12.4753C18.2924 12.3501 18.2524 12.2299 18.2074 12.0846C18.1674 12.1447 18.1374 12.1848 18.1124 12.2299C17.7074 12.8509 17.2774 13.4469 16.7274 13.9478C16.4274 14.2233 16.0974 14.4336 15.6974 14.5388C14.8424 14.7692 14.1974 14.4286 13.9074 13.5922C13.8924 13.5571 13.8924 13.5121 13.8524 13.472C13.7574 13.6573 13.6524 13.8276 13.5274 13.9879C12.9624 14.7041 11.8974 14.8593 11.1874 14.3234C10.8374 14.058 10.6474 13.6974 10.5474 13.2817C10.5224 13.1715 10.4974 13.1865 10.4274 13.2466C9.1724 14.3986 7.7274 15.1549 6.0074 15.3101C5.5574 15.3502 5.1074 15.3652 4.6624 15.2801C4.0324 15.1599 3.4824 14.8593 3.0074 14.4286C2.2024 13.6974 1.8224 12.7558 1.6624 11.704C1.6374 11.5487 1.6474 11.3935 1.5874 11.2432C1.5874 10.8275 1.5874 10.4068 1.5874 9.99107C1.6374 9.87587 1.6174 9.74565 1.6324 9.62545C1.7574 8.32824 2.1574 7.11117 2.7274 5.94919C3.5274 4.33144 4.6974 3.03424 6.1474 1.98746C7.2174 1.21614 8.3774 0.625139 9.7574 0.650181ZM12.7924 11.1681C12.7324 11.1731 12.6774 11.1731 12.6174 11.1881C12.2424 11.2732 11.9524 11.4886 11.7324 11.7991C11.4374 12.2199 11.3524 12.6756 11.5324 13.1615C11.6224 13.4119 11.8074 13.5722 12.0824 13.5872C12.4374 13.6072 12.6924 13.4169 12.9024 13.1565C13.2274 12.7508 13.3324 12.2549 13.4474 11.7591C13.4524 11.744 13.4474 11.729 13.4424 11.709C13.3824 11.3884 13.1274 11.1731 12.7924 11.1681ZM19.6224 2.56844C19.5124 2.72371 19.4724 2.88398 19.4324 3.03924C19.2174 3.85062 19.1424 4.67703 19.0874 5.50844C19.0274 6.39996 19.0124 7.29148 19.0174 8.18299C19.0174 8.23308 19.0124 8.28817 19.0424 8.34327C19.0574 8.31321 19.0674 8.29318 19.0774 8.27815C19.7574 6.71049 20.0424 5.07771 19.8274 3.37482C19.7924 3.10936 19.7424 2.84391 19.6224 2.56844Z" fill="#343434"/>
<path d="M64.228 3.90918H65.3422V6.86867C65.8009 6.2203 66.4126 5.90658 67.1553 5.90658C68.1711 5.90658 68.7501 6.43991 68.7501 7.50658V11.1354H67.6359V7.78894C67.6359 7.05691 67.3519 6.84776 66.7949 6.84776C66.4563 6.84776 66.1177 7.04645 65.8118 7.43338C65.506 7.82031 65.3422 8.33273 65.3422 8.97064V11.1458H64.228V3.90918Z" fill="#343434"/>
<path d="M74.376 8.86602H70.5639C70.5639 9.67126 71.0555 10.2883 71.8965 10.2883C72.4973 10.2883 73.0434 9.96407 73.3055 9.42028L74.2558 9.77583C73.7097 10.7902 73.0871 11.2294 71.8965 11.2294C70.127 11.2294 69.3843 9.79675 69.3843 8.57321C69.3843 7.34968 70.1161 5.91699 71.8965 5.91699C73.6114 5.91699 74.376 7.25556 74.376 8.40589V8.86602ZM70.5858 7.97713H73.1963C73.098 7.32876 72.6502 6.85817 71.8965 6.85817C71.1865 6.84772 70.7169 7.30785 70.5858 7.97713Z" fill="#343434"/>
<path d="M83.0826 5.90658C83.3447 5.90658 83.6178 5.97978 83.9018 6.11573C84.1858 6.25168 84.3933 6.38762 84.5244 6.5654V3.90918H85.6385V11.1458H84.5244V10.5497C84.3168 10.8844 83.7161 11.2295 83.0607 11.2295C81.4878 11.2295 80.6577 10.2465 80.6577 8.57326C80.6686 6.93142 81.5097 5.90658 83.0826 5.90658ZM81.8374 8.5628C81.8374 9.08568 81.9684 9.50398 82.2197 9.81771C82.4709 10.121 82.8095 10.2778 83.2136 10.2778C83.6178 10.2778 83.9455 10.121 84.2076 9.81771C84.4588 9.50398 84.5899 9.08568 84.5899 8.5628C84.5899 8.03992 84.4588 7.62162 84.2076 7.31835C83.9564 7.00462 83.6178 6.84776 83.2136 6.84776C82.8095 6.84776 82.4818 7.00462 82.2197 7.31835C81.9684 7.62162 81.8374 8.05038 81.8374 8.5628Z" fill="#343434"/>
<path d="M89.8871 6.72263L89.1881 7.31871C88.9369 7.00499 88.6201 6.84812 88.2487 6.84812C87.9538 6.84812 87.7135 7.03636 87.7135 7.36054C87.7135 7.47558 87.7681 7.59061 87.8555 7.67427C88.0412 7.85205 88.216 7.92525 88.6747 8.09257C89.0461 8.22852 89.2099 8.28081 89.5048 8.46905C89.9308 8.70957 90.1384 9.0233 90.1821 9.57755C90.193 10.0168 90.0073 10.4455 89.6687 10.7383C89.3301 11.0521 88.8823 11.2089 88.3143 11.2089C87.2875 11.2089 86.5666 10.571 86.228 9.82853L87.1674 9.33702C87.4514 9.96448 87.8446 10.2677 88.347 10.2677C88.8276 10.2677 89.0679 10.0481 89.0679 9.59846C89.0679 9.42069 88.9915 9.30565 88.7949 9.19062C88.7075 9.13833 88.6201 9.08604 88.5218 9.04421C88.358 8.97101 87.9647 8.83506 87.8009 8.77232C87.0363 8.46905 86.6431 7.99846 86.6431 7.36054C86.6322 6.96316 86.8069 6.58668 87.1128 6.32525C87.4186 6.04289 87.8118 5.89648 88.2924 5.89648C88.9478 5.90694 89.5376 6.22067 89.8871 6.72263Z" fill="#343434"/>
<path d="M93.448 11.2197C92.8145 11.2197 92.2793 10.9373 92.0062 10.5713V13.2275H90.8921V5.99089H92.0062V6.57651C92.2137 6.24187 92.8145 5.90723 93.4699 5.90723C95.0427 5.90723 95.8729 6.89024 95.8729 8.56345C95.8729 10.2053 95.0318 11.2197 93.448 11.2197ZM94.6932 8.57391C94.6932 8.05103 94.5621 7.63273 94.3109 7.32946C94.0597 7.01573 93.7211 6.85887 93.3169 6.85887C92.9128 6.85887 92.5851 7.01573 92.323 7.32946C92.0718 7.63273 91.9407 8.05103 91.9407 8.57391C91.9407 9.09679 92.0718 9.51509 92.323 9.82882C92.5742 10.1321 92.9128 10.2889 93.3169 10.2889C93.7211 10.2889 94.0488 10.1321 94.3109 9.82882C94.5731 9.50463 94.6932 9.08633 94.6932 8.57391Z" fill="#343434"/>
<path d="M106.869 9.80721C106.433 10.7588 105.657 11.2294 104.543 11.2294C103.735 11.2294 103.101 10.9785 102.664 10.4765C102.227 9.96407 102.009 9.33662 102.009 8.57321C102.009 7.80981 102.227 7.18236 102.664 6.68039C103.101 6.16797 103.735 5.91699 104.543 5.91699C105.668 5.91699 106.433 6.38758 106.869 7.33922L105.875 7.74707C105.602 7.15099 105.155 6.85817 104.543 6.85817C103.636 6.85817 103.188 7.53791 103.188 8.57321C103.188 9.60851 103.636 10.2883 104.543 10.2883C105.155 10.2883 105.602 9.99544 105.875 9.39936L106.869 9.80721Z" fill="#343434"/>
<path d="M112.243 8.86602H108.431C108.431 9.67126 108.922 10.2883 109.763 10.2883C110.375 10.2883 110.921 9.94316 111.172 9.42028L112.123 9.77583C111.576 10.7902 110.954 11.2294 109.763 11.2294C107.994 11.2294 107.251 9.79675 107.251 8.57321C107.251 7.34968 107.983 5.91699 109.763 5.91699C111.478 5.91699 112.243 7.25556 112.243 8.40589V8.86602ZM108.452 7.97713H111.063C110.965 7.32876 110.517 6.85817 109.763 6.85817C109.053 6.84772 108.584 7.30785 108.452 7.97713Z" fill="#343434"/>
<path d="M77.4263 5.91699C77.6885 5.91699 77.9615 5.9902 78.2455 6.12614C78.5295 6.26209 78.737 6.39804 78.8681 6.57582V6.00065H79.9822V11.1562H79.0538L78.8681 10.5601C78.6606 10.8948 78.0598 11.2399 77.4045 11.2399C75.8316 11.2399 75.0015 10.2569 75.0015 8.58367C75.0015 6.94183 75.8425 5.91699 77.4263 5.91699ZM76.1702 8.57321C76.1702 9.09609 76.3013 9.51439 76.5525 9.82812C76.8037 10.1314 77.1423 10.2883 77.5465 10.2883C77.9506 10.2883 78.2783 10.1314 78.5404 9.82812C78.7917 9.51439 78.9227 9.09609 78.9227 8.57321C78.9227 8.05033 78.7917 7.63203 78.5404 7.32876C78.2892 7.01504 77.9506 6.85817 77.5465 6.85817C77.1423 6.85817 76.8146 7.01504 76.5525 7.32876C76.3013 7.63203 76.1702 8.05033 76.1702 8.57321Z" fill="#343434"/>
<path d="M98.8209 5.91699C99.083 5.91699 99.3561 5.9902 99.6401 6.12614C99.9241 6.26209 100.132 6.39804 100.263 6.57582V6.00065H101.376V11.1562H100.448L100.263 10.5601C100.055 10.8948 99.4544 11.2399 98.799 11.2399C97.2261 11.2399 96.396 10.2569 96.396 8.58367C96.396 6.94183 97.2371 5.91699 98.8209 5.91699ZM97.5647 8.57321C97.5647 9.09609 97.6958 9.51439 97.947 9.82812C98.1983 10.1314 98.5369 10.2883 98.941 10.2883C99.3452 10.2883 99.6729 10.1314 99.935 9.82812C100.186 9.51439 100.317 9.09609 100.317 8.57321C100.317 8.05033 100.186 7.63203 99.935 7.32876C99.6838 7.01504 99.3452 6.85817 98.941 6.85817C98.5369 6.85817 98.2092 7.01504 97.947 7.32876C97.6958 7.63203 97.5647 8.05033 97.5647 8.57321Z" fill="#343434"/>
<path d="M60.7881 7.91456C60.9519 10.1002 59.8924 11.3446 59.248 12.2126C58.254 13.2166 56.9979 14.5865 53.7866 14.6597C51.0668 14.7643 49.7343 13.6139 48.6201 12.6309C47.1565 11.0937 46.7742 10.1839 46.7087 7.92502C46.6977 6.53416 47.2657 5.15376 48.2378 3.94068C49.6032 2.08969 51.7877 1.47269 53.7975 1.33674C55.9056 1.26354 57.5877 2.27792 58.7346 3.37597C60.1873 4.84003 60.6461 6.1054 60.7881 7.91456Z" fill="#343434"/>
<path d="M126.916 0.157227C122.592 0.157227 119.087 3.66869 119.087 8.00022C119.087 12.3322 122.592 15.8435 126.916 15.8435C131.24 15.8435 134.745 12.3322 134.745 8.00022C134.745 3.66897 131.24 0.157601 126.916 0.157601V0.157227ZM130.506 11.4691C130.365 11.7001 130.065 11.7725 129.835 11.6318C127.997 10.5061 125.683 10.2518 122.958 10.8755C122.695 10.9358 122.433 10.7709 122.373 10.5079C122.313 10.2448 122.477 9.98255 122.74 9.92262C125.723 9.23958 128.281 9.53357 130.344 10.7968C130.574 10.9382 130.647 11.2389 130.506 11.4693V11.4691ZM131.464 9.3338C131.287 9.62161 130.911 9.71189 130.625 9.53516C128.521 8.23952 125.313 7.86423 122.823 8.62117C122.501 8.71885 122.16 8.53659 122.062 8.21376C121.964 7.89036 122.147 7.54945 122.469 7.45111C125.312 6.58685 128.846 7.00549 131.263 8.49323C131.55 8.67025 131.641 9.04675 131.464 9.33389V9.3338ZM131.546 7.11001C129.023 5.6086 124.86 5.47055 122.451 6.20304C122.064 6.32058 121.655 6.1018 121.538 5.71424C121.421 5.32651 121.639 4.91695 122.026 4.79913C124.792 3.95809 129.389 4.12058 132.294 5.84827C132.642 6.05515 132.756 6.50536 132.55 6.85348C132.344 7.20208 131.893 7.31699 131.547 7.11001H131.546ZM140.386 7.39773C139.035 7.0748 138.794 6.84815 138.794 6.3719C138.794 5.92198 139.217 5.61919 139.846 5.61919C140.455 5.61919 141.06 5.84912 141.693 6.32246C141.712 6.33679 141.737 6.34249 141.76 6.33875C141.784 6.33519 141.805 6.32217 141.819 6.3026L142.479 5.37053C142.506 5.33213 142.498 5.27922 142.462 5.2499C141.708 4.64366 140.858 4.34892 139.866 4.34892C138.406 4.34892 137.387 5.22639 137.387 6.48186C137.387 7.82817 138.266 8.30489 139.786 8.67286C141.079 8.97134 141.298 9.22141 141.298 9.66843C141.298 10.1638 140.856 10.4717 140.146 10.4717C139.357 10.4717 138.713 10.2055 137.993 9.58086C137.975 9.56541 137.951 9.55839 137.928 9.5597C137.905 9.56167 137.883 9.57272 137.868 9.59098L137.128 10.4733C137.097 10.5099 137.1 10.5646 137.136 10.5963C137.974 11.3455 139.004 11.7412 140.116 11.7412C141.689 11.7412 142.705 10.8803 142.705 9.54781C142.708 8.42299 142.036 7.80017 140.389 7.39895L140.386 7.39773ZM146.263 6.06218C145.581 6.06218 145.022 6.33116 144.561 6.88233V6.26195C144.561 6.21297 144.521 6.17307 144.473 6.17307H143.262C143.213 6.17307 143.174 6.21297 143.174 6.26195V13.1553C143.174 13.2042 143.213 13.2441 143.262 13.2441H144.473C144.521 13.2441 144.561 13.2043 144.561 13.1553V10.9793C145.022 11.4978 145.582 11.7512 146.263 11.7512C147.53 11.7512 148.812 10.7743 148.812 8.907C148.814 7.03921 147.531 6.06209 146.264 6.06209L146.263 6.06218ZM147.404 8.907C147.404 9.8579 146.82 10.5215 145.983 10.5215C145.155 10.5215 144.531 9.82774 144.531 8.907C144.531 7.98636 145.155 7.29255 145.983 7.29255C146.806 7.29246 147.405 7.97128 147.405 8.90691L147.404 8.907ZM152.098 6.06218C150.467 6.06218 149.189 7.32055 149.189 8.92732C149.189 10.5166 150.458 11.7617 152.078 11.7617C153.715 11.7617 154.997 10.5076 154.997 8.907C154.997 7.31193 153.724 6.06237 152.098 6.06237V6.06218ZM152.098 10.5309C151.231 10.5309 150.577 9.83252 150.577 8.90653C150.577 7.97661 151.208 7.30182 152.078 7.30182C152.952 7.30182 153.61 8.00021 153.61 8.92685C153.61 9.85659 152.974 10.5309 152.099 10.5309H152.098ZM158.481 6.17308H157.149V4.80887C157.149 4.75998 157.109 4.72008 157.06 4.72008H155.85C155.801 4.72008 155.762 4.75998 155.762 4.80887V6.17308H155.18C155.131 6.17308 155.091 6.21297 155.091 6.26195V7.30407C155.091 7.35296 155.131 7.39295 155.18 7.39295H155.762V10.0894C155.762 11.1791 156.303 11.7316 157.371 11.7316C157.805 11.7316 158.165 11.6418 158.504 11.4489C158.532 11.4335 158.549 11.4037 158.549 11.3721V10.3797C158.549 10.349 158.533 10.3201 158.507 10.3041C158.481 10.2875 158.448 10.2867 158.421 10.3001C158.188 10.4176 157.962 10.4718 157.71 10.4718C157.322 10.4718 157.149 10.2952 157.149 9.8993V7.39343H158.481C158.53 7.39343 158.569 7.35353 158.569 7.30455V6.26252C158.571 6.21354 158.532 6.17364 158.482 6.17364L158.481 6.17308ZM163.121 6.17841V6.01086C163.121 5.51794 163.31 5.29813 163.733 5.29813C163.985 5.29813 164.188 5.34833 164.415 5.42419C164.443 5.433 164.472 5.4286 164.495 5.41183C164.518 5.39506 164.532 5.36818 164.532 5.33971V4.31792C164.532 4.27886 164.506 4.2443 164.469 4.23278C164.229 4.16132 163.922 4.08799 163.463 4.08799C162.345 4.08799 161.754 4.71867 161.754 5.9112V6.16782H161.173C161.124 6.16782 161.084 6.20772 161.084 6.25661V7.30407C161.084 7.35295 161.124 7.39294 161.173 7.39294H161.754V11.5521C161.754 11.6011 161.793 11.641 161.842 11.641H163.053C163.102 11.641 163.141 11.6011 163.141 11.5521V7.39323H164.271L166.003 11.5514C165.806 11.9883 165.613 12.0752 165.349 12.0752C165.136 12.0752 164.911 12.0114 164.682 11.8856C164.66 11.8737 164.634 11.8717 164.611 11.8789C164.588 11.8871 164.569 11.9043 164.559 11.9268L164.148 12.8284C164.129 12.871 164.146 12.921 164.187 12.9431C164.615 13.1755 165.001 13.2747 165.479 13.2747C166.373 13.2747 166.867 12.8576 167.302 11.7356L169.402 6.29979C169.413 6.27244 169.41 6.24153 169.393 6.21728C169.376 6.1932 169.349 6.17869 169.32 6.17869H168.06C168.022 6.17869 167.989 6.20276 167.976 6.23826L166.685 9.93189L165.272 6.23582C165.259 6.20145 165.226 6.17869 165.189 6.17869H163.121V6.17841ZM160.431 6.17308H159.22C159.172 6.17308 159.132 6.21297 159.132 6.26195V11.5521C159.132 11.6011 159.172 11.641 159.22 11.641H160.431C160.48 11.641 160.52 11.6011 160.52 11.5521V6.26232C160.52 6.25064 160.517 6.23906 160.513 6.22826C160.508 6.21745 160.502 6.20764 160.494 6.19938C160.485 6.19112 160.476 6.18458 160.465 6.18013C160.454 6.17568 160.442 6.17341 160.431 6.17345V6.17308ZM159.833 3.76432C159.353 3.76432 158.964 4.15318 158.964 4.63355C158.964 5.11419 159.353 5.50353 159.833 5.50353C160.312 5.50353 160.701 5.11419 160.701 4.63355C160.701 4.15327 160.312 3.76432 159.833 3.76432ZM170.436 7.87397C169.957 7.87397 169.584 7.48857 169.584 7.02057C169.584 6.55257 169.962 6.16277 170.44 6.16277C170.919 6.16277 171.292 6.54807 171.292 7.0157C171.292 7.4837 170.914 7.87397 170.436 7.87397ZM170.44 6.24762C170.004 6.24762 169.674 6.59509 169.674 7.02057C169.674 7.44587 170.002 7.78865 170.436 7.78865C170.872 7.78865 171.203 7.44147 171.203 7.0157C171.203 6.59041 170.875 6.24762 170.441 6.24762H170.44ZM170.629 7.10345L170.87 7.44137H170.667L170.45 7.13137H170.264V7.44137H170.094V6.54564H170.492C170.7 6.54564 170.837 6.65212 170.837 6.83139C170.838 6.97824 170.752 7.06796 170.63 7.10346H170.629V7.10345ZM170.485 6.69933H170.264V6.98265H170.485C170.596 6.98265 170.662 6.92842 170.662 6.84085C170.662 6.74869 170.596 6.69934 170.485 6.69934V6.69933Z" fill="#343434"/>
<path d="M8.63105 28.1572C4.30742 28.1572 0.802246 31.6687 0.802246 36.0002C0.802246 40.3322 4.30742 43.8435 8.63105 43.8435C12.9549 43.8435 16.4599 40.3322 16.4599 36.0002C16.4599 31.669 12.9551 28.1576 8.63096 28.1576L8.63105 28.1572ZM12.2213 39.4691C12.0807 39.7001 11.7802 39.7725 11.5503 39.6318C9.71193 38.5061 7.39796 38.2518 4.67285 38.8755C4.41025 38.9358 4.14848 38.7709 4.08866 38.5079C4.02854 38.2448 4.19242 37.9826 4.45568 37.9226C7.43788 37.2396 9.99595 37.5336 12.0595 38.7968C12.2894 38.9382 12.3624 39.2389 12.2212 39.4693L12.2213 39.4691ZM13.1795 37.3338C13.0025 37.6216 12.6268 37.7119 12.3399 37.5352C10.236 36.2395 7.02785 35.8642 4.53879 36.6212C4.21598 36.7189 3.87504 36.5366 3.77707 36.2138C3.67984 35.8904 3.86186 35.5495 4.18411 35.4511C7.0273 34.5869 10.5618 35.0055 12.9784 36.4932C13.2654 36.6702 13.3561 37.0467 13.1794 37.3339L13.1795 37.3338ZM13.2618 35.11C10.7382 33.6086 6.57566 33.4706 4.16662 34.203C3.77978 34.3206 3.37068 34.1018 3.25345 33.7142C3.13622 33.3265 3.35441 32.9169 3.74154 32.7991C6.50695 31.9581 11.1041 32.1206 14.0091 33.8483C14.3571 34.0552 14.4712 34.5054 14.265 34.8535C14.0593 35.2021 13.6087 35.317 13.2619 35.11H13.2618ZM22.1018 35.3977C20.7501 35.0748 20.5095 34.8482 20.5095 34.3719C20.5095 33.922 20.9323 33.6192 21.5611 33.6192C22.1706 33.6192 22.775 33.8491 23.4087 34.3225C23.4278 34.3368 23.4519 34.3425 23.4755 34.3388C23.4992 34.3352 23.5201 34.3222 23.5339 34.3026L24.194 33.3705C24.2211 33.3321 24.2137 33.2792 24.1771 33.2499C23.423 32.6437 22.5737 32.3489 21.5811 32.3489C20.1216 32.3489 19.1021 33.2264 19.1021 34.4819C19.1021 35.8282 19.9816 36.3049 21.5013 36.6729C22.7948 36.9713 23.013 37.2214 23.013 37.6684C23.013 38.1638 22.5716 38.4717 21.8612 38.4717C21.0722 38.4717 20.4286 38.2055 19.7087 37.5809C19.6908 37.5654 19.6663 37.5584 19.6437 37.5597C19.6199 37.5617 19.5981 37.5727 19.5829 37.591L18.8429 38.4733C18.8119 38.5099 18.8158 38.5646 18.8517 38.5963C19.6893 39.3455 20.7195 39.7412 21.8313 39.7412C23.404 39.7412 24.4203 38.8803 24.4203 37.5478C24.4231 36.423 23.7509 35.8002 22.1046 35.3989L22.1018 35.3977ZM27.9784 34.0622C27.2967 34.0622 26.7375 34.3312 26.2764 34.8823V34.2619C26.2764 34.213 26.2368 34.1731 26.188 34.1731H24.9776C24.9288 34.1731 24.8892 34.213 24.8892 34.2619V41.1553C24.8892 41.2042 24.9287 41.2441 24.9776 41.2441H26.188C26.2368 41.2441 26.2764 41.2043 26.2764 41.1553V38.9793C26.7376 39.4978 27.2969 39.7512 27.9784 39.7512C29.245 39.7512 30.5273 38.7743 30.5273 36.907C30.5291 35.0392 29.2465 34.0621 27.9798 34.0621L27.9784 34.0622ZM29.1198 36.907C29.1198 37.8579 28.5352 38.5215 27.698 38.5215C26.8704 38.5215 26.2461 37.8277 26.2461 36.907C26.2461 35.9864 26.8704 35.2926 27.698 35.2926C28.5216 35.2925 29.1199 35.9713 29.1199 36.9069L29.1198 36.907ZM33.8138 34.0622C32.1825 34.0622 30.9046 35.3206 30.9046 36.9273C30.9046 38.5166 32.1737 39.7617 33.7938 39.7617C35.4308 39.7617 36.7127 38.5076 36.7127 36.907C36.7127 35.3119 35.4394 34.0624 33.8137 34.0624L33.8138 34.0622ZM33.8138 38.5309C32.9461 38.5309 32.292 37.8325 32.292 36.9065C32.292 35.9766 32.9235 35.3018 33.7938 35.3018C34.667 35.3018 35.3255 36.0002 35.3255 36.9269C35.3255 37.8566 34.6898 38.5309 33.8138 38.5309ZM40.1961 34.1731H38.8642V32.8089C38.8642 32.76 38.8247 32.7201 38.7758 32.7201H37.5656C37.5167 32.7201 37.4769 32.76 37.4769 32.8089V34.1731H36.895C36.8463 34.1731 36.8068 34.213 36.8068 34.262V35.3041C36.8068 35.353 36.8463 35.3929 36.895 35.3929H37.4769V38.0894C37.4769 39.1791 38.0183 39.7316 39.086 39.7316C39.5202 39.7316 39.8804 39.6418 40.2198 39.4489C40.2474 39.4335 40.2645 39.4037 40.2645 39.3721V38.3797C40.2645 38.349 40.2486 38.3201 40.2224 38.3041C40.1961 38.2875 40.1632 38.2867 40.1362 38.3001C39.9031 38.4176 39.6777 38.4718 39.4257 38.4718C39.0374 38.4718 38.8642 38.2952 38.8642 37.8993V35.3934H40.1961C40.2449 35.3934 40.2843 35.3535 40.2843 35.3045V34.2625C40.2862 34.2135 40.2469 34.1736 40.1974 34.1736L40.1961 34.1731ZM44.8367 34.1784V34.0109C44.8367 33.5179 45.0254 33.2981 45.4485 33.2981C45.7008 33.2981 45.9035 33.3483 46.1305 33.4242C46.1584 33.433 46.1876 33.4286 46.2103 33.4118C46.2337 33.3951 46.2469 33.3682 46.2469 33.3397V32.3179C46.2469 32.2789 46.2218 32.2443 46.1842 32.2328C45.9444 32.1613 45.6376 32.088 45.1782 32.088C44.0603 32.088 43.4694 32.7187 43.4694 33.9112V34.1678H42.8879C42.8391 34.1678 42.7991 34.2077 42.7991 34.2566V35.3041C42.7991 35.353 42.8391 35.3929 42.8879 35.3929H43.4694V39.5521C43.4694 39.6011 43.5088 39.641 43.5576 39.641H44.768C44.8169 39.641 44.8567 39.6011 44.8567 39.5521V35.3932H45.9868L47.7179 39.5514C47.5213 39.9883 47.3281 40.0752 47.0643 40.0752C46.8511 40.0752 46.6265 40.0114 46.3969 39.8856C46.3753 39.8737 46.3497 39.8717 46.3264 39.8789C46.3033 39.8871 46.2839 39.9043 46.2741 39.9268L45.8638 40.8284C45.8443 40.871 45.861 40.921 45.902 40.9431C46.3302 41.1755 46.7168 41.2747 47.1946 41.2747C48.0883 41.2747 48.5823 40.8576 49.0178 39.7356L51.1176 34.2998C51.1281 34.2724 51.125 34.2415 51.1082 34.2173C51.0916 34.1932 51.0648 34.1787 51.0354 34.1787H49.7754C49.7376 34.1787 49.7039 34.2028 49.6915 34.2383L48.4008 37.9319L46.987 34.2358C46.9741 34.2014 46.941 34.1787 46.9043 34.1787H44.8364L44.8367 34.1784ZM42.1462 34.1731H40.9358C40.8869 34.1731 40.8471 34.213 40.8471 34.262V39.5521C40.8471 39.6011 40.8869 39.641 40.9358 39.641H42.1462C42.195 39.641 42.2349 39.6011 42.2349 39.5521V34.2623C42.2349 34.2506 42.2326 34.2391 42.2282 34.2283C42.2237 34.2175 42.2172 34.2076 42.2089 34.1994C42.2007 34.1911 42.1909 34.1846 42.1801 34.1801C42.1693 34.1757 42.1577 34.1734 42.1461 34.1734L42.1462 34.1731ZM41.5479 31.7643C41.0684 31.7643 40.6793 32.1532 40.6793 32.6335C40.6793 33.1142 41.0685 33.5035 41.5479 33.5035C42.0272 33.5035 42.4159 33.1142 42.4159 32.6335C42.4159 32.1533 42.027 31.7643 41.5483 31.7643H41.5479ZM52.1511 35.874C51.672 35.874 51.2993 35.4886 51.2993 35.0206C51.2993 34.5526 51.6769 34.1628 52.1555 34.1628C52.6346 34.1628 53.0073 34.5481 53.0073 35.0157C53.0073 35.4837 52.6296 35.874 52.151 35.874H52.1511ZM52.1557 34.2476C51.7194 34.2476 51.3893 34.5951 51.3893 35.0206C51.3893 35.4459 51.7171 35.7887 52.1513 35.7887C52.5875 35.7887 52.918 35.4415 52.918 35.0157C52.918 34.5904 52.5899 34.2476 52.1561 34.2476H52.1557ZM52.3446 35.1035L52.5855 35.4414H52.3824L52.1655 35.1314H51.979V35.4414H51.8089V34.5456H52.2076C52.4154 34.5456 52.5519 34.6521 52.5519 34.8314C52.5529 34.9782 52.4678 35.068 52.3453 35.1035H52.3446ZM52.2006 34.6993H51.9788V34.9826H52.2006C52.3113 34.9826 52.3774 34.9284 52.3774 34.8408C52.3774 34.7487 52.311 34.6993 52.2007 34.6993H52.2006Z" fill="#343434"/>
<path d="M60.9184 40.7446L60.3073 42.4703H60.1434L59.4925 40.7446L59.3286 42.0747C59.3236 42.0995 59.3236 42.139 59.3236 42.1539C59.3236 42.3121 59.3932 42.3467 59.6316 42.3566V42.4703H58.8765V42.3566C59.0603 42.3467 59.1199 42.3121 59.1448 42.1687L59.3485 40.5666C59.3733 40.3935 59.2839 40.3391 59.0752 40.3292V40.2204H59.8006C59.8055 40.2897 59.8254 40.344 59.8453 40.4182L60.3719 41.8127L60.8588 40.4083C60.8886 40.3391 60.9035 40.2847 60.9085 40.2155H61.6239V40.3243C61.4152 40.3342 61.3357 40.3886 61.3556 40.5616L61.5543 42.1638C61.5692 42.317 61.6388 42.3467 61.8226 42.3517V42.4654H60.7793V42.3517C61.0029 42.3418 61.0824 42.3072 61.0824 42.1489C61.0824 42.1341 61.0824 42.0995 61.0774 42.0698L60.9184 40.7446ZM63.487 42.2528C63.4472 42.2676 63.4025 42.2874 63.3578 42.2874C63.2783 42.2874 63.2485 42.2132 63.2485 42.1044V41.2539C63.2485 40.8731 63.0249 40.7297 62.6175 40.7297C62.2549 40.7297 61.9766 40.8633 61.9766 41.1352C61.9766 41.2786 62.0661 41.3676 62.2052 41.3676C62.3542 41.3676 62.4486 41.2786 62.4486 41.1402C62.4486 41.0363 62.394 40.9572 62.2896 40.9374C62.3344 40.8682 62.4238 40.8286 62.5778 40.8286C62.7417 40.8286 62.8063 40.9572 62.8063 41.1451V41.4171L62.3194 41.5901C62.081 41.6742 61.8822 41.7929 61.8822 42.0649C61.8822 42.317 62.0512 42.4753 62.3145 42.4753C62.548 42.4753 62.7169 42.3319 62.8212 42.1984C62.856 42.3714 62.9703 42.4802 63.1442 42.4802C63.2932 42.4802 63.4174 42.4159 63.5069 42.3121L63.487 42.2528ZM62.8063 42.1341C62.7169 42.2033 62.6523 42.2379 62.5579 42.2379C62.389 42.2379 62.3095 42.1242 62.3095 41.9561C62.3095 41.7731 62.394 41.7088 62.5331 41.6495L62.8113 41.5407V42.1341H62.8063ZM63.5516 42.3368L63.5267 41.8967H63.646C63.7205 42.1736 63.8795 42.3813 64.1279 42.3813C64.3018 42.3813 64.4359 42.3022 64.4359 42.1192C64.4359 41.9462 64.3167 41.8769 64.0683 41.7879C63.7255 41.6693 63.5466 41.5358 63.5466 41.2391C63.5466 40.9176 63.79 40.7297 64.1428 40.7297C64.3515 40.7297 64.5303 40.7792 64.6694 40.8633V41.2539H64.5601C64.5055 41.0264 64.3713 40.8336 64.1478 40.8336C63.9838 40.8336 63.8844 40.9275 63.8844 41.0709C63.8844 41.2143 63.9888 41.2836 64.2372 41.3775C64.585 41.4962 64.7887 41.6248 64.7887 41.9412C64.7887 42.2824 64.5353 42.4852 64.1378 42.4852C63.8894 42.4951 63.6857 42.4357 63.5516 42.3368ZM65.4792 40.7594H65.9015V40.9078H65.4792V41.9758C65.4792 42.1687 65.5538 42.2528 65.7078 42.2528C65.7922 42.2528 65.8668 42.2231 65.9463 42.1687L65.991 42.2231C65.8866 42.3813 65.7227 42.5 65.4892 42.5C65.2259 42.5 65.0371 42.3665 65.0371 42.0006V40.9078H64.8383V40.8484C65.0619 40.7446 65.2457 40.5715 65.3898 40.3589H65.4941L65.4792 40.7594ZM67.4019 41.9313C67.2827 42.0945 67.1386 42.1934 66.92 42.1934C66.6021 42.1934 66.3735 41.9215 66.3884 41.4764H67.4417V41.4022C67.4417 41.0165 67.2132 40.7347 66.7759 40.7347C66.3387 40.7347 65.981 41.1154 65.981 41.6643C65.981 42.1539 66.299 42.5 66.766 42.5C67.1337 42.5 67.3721 42.2775 67.4516 41.961L67.4019 41.9313ZM66.7412 40.8534C66.9498 40.8534 67.0293 41.0561 67.0293 41.3627H66.3884C66.4182 41.066 66.5226 40.8534 66.7412 40.8534ZM70.681 40.3737L70.6859 40.888H70.5617C70.4872 40.5221 70.2984 40.3193 69.9805 40.3193C69.5383 40.3193 69.3346 40.7594 69.3346 41.3083C69.3346 41.9066 69.5731 42.3615 70.0103 42.3615C70.3183 42.3615 70.522 42.1687 70.6313 41.7039H70.7605L70.7108 42.3072C70.522 42.4258 70.2736 42.5 69.9655 42.5C69.2601 42.5 68.8278 42.0649 68.8278 41.3973C68.8278 40.6506 69.3296 40.1759 69.9655 40.1759C70.2636 40.1809 70.5021 40.2452 70.681 40.3737ZM71.5007 42.2181C71.5007 42.3319 71.5454 42.3467 71.6995 42.3615V42.4703H70.8449V42.3615C70.994 42.3517 71.0437 42.3319 71.0437 42.2181V40.5072L70.8549 40.4034V40.3342L71.4262 40.1809H71.5007V42.2181ZM73.3638 42.2528C73.3241 42.2676 73.2794 42.2874 73.2346 42.2874C73.1502 42.2874 73.1253 42.2132 73.1253 42.1044L73.1303 41.2539C73.1303 40.8731 72.9018 40.7297 72.4944 40.7297C72.1317 40.7297 71.8535 40.8633 71.8535 41.1352C71.8535 41.2786 71.9429 41.3676 72.082 41.3676C72.2311 41.3676 72.3255 41.2786 72.3255 41.1402C72.3255 41.0363 72.2708 40.9572 72.1665 40.9374C72.2112 40.8682 72.3006 40.8286 72.4546 40.8286C72.6186 40.8286 72.6832 40.9572 72.6832 41.1451V41.4171L72.1963 41.5901C71.9578 41.6742 71.7591 41.7929 71.7591 42.0649C71.7591 42.317 71.928 42.4753 72.1913 42.4753C72.4248 42.4753 72.5937 42.3319 72.6981 42.1984C72.7329 42.3714 72.8471 42.4802 73.021 42.4802C73.1701 42.4802 73.2943 42.4159 73.3837 42.3121L73.3638 42.2528ZM72.6832 42.1341C72.5937 42.2033 72.5292 42.2379 72.4348 42.2379C72.2658 42.2379 72.1863 42.1242 72.1863 41.9561C72.1863 41.7731 72.2758 41.7039 72.4099 41.6495L72.6881 41.5407V42.1341H72.6832ZM73.4383 42.3368L73.4234 41.8967H73.5427C73.6122 42.1736 73.7762 42.3813 74.0246 42.3813C74.1985 42.3813 74.3326 42.3022 74.3326 42.1192C74.3326 41.9462 74.2134 41.8769 73.96 41.7879C73.6172 41.6693 73.4383 41.5358 73.4383 41.2391C73.4383 40.9176 73.6818 40.7297 74.0395 40.7297C74.2432 40.7297 74.427 40.7792 74.5612 40.8633V41.2539H74.4519C74.4022 41.0264 74.2631 40.8336 74.0395 40.8336C73.8706 40.8336 73.7712 40.9275 73.7712 41.0709C73.7712 41.2143 73.8755 41.2836 74.124 41.3775C74.4767 41.4962 74.6804 41.6248 74.6804 41.9412C74.6804 42.2824 74.4171 42.4852 74.0196 42.4852C73.7662 42.4951 73.5675 42.4357 73.4383 42.3368ZM74.8344 42.3368L74.8195 41.8967H74.9387C75.0083 42.1736 75.1722 42.3813 75.4207 42.3813C75.5945 42.3813 75.7287 42.3022 75.7287 42.1192C75.7287 41.9462 75.6045 41.8769 75.361 41.7879C75.0133 41.6693 74.8394 41.5358 74.8394 41.2391C74.8394 40.9176 75.0828 40.7297 75.4405 40.7297C75.6442 40.7297 75.8281 40.7792 75.9622 40.8633V41.2539H75.8529C75.8032 41.0264 75.6641 40.8336 75.4405 40.8336C75.2716 40.8336 75.1772 40.9275 75.1772 41.0709C75.1772 41.2143 75.2716 41.2836 75.525 41.3775C75.8777 41.4962 76.0765 41.6248 76.0765 41.9412C76.0765 42.2824 75.8231 42.4852 75.4256 42.4852C75.1723 42.4951 74.9735 42.4357 74.8344 42.3368ZM68.5595 40.7396C68.3857 40.7396 68.2714 40.8633 68.1472 41.2143L68.1571 40.7396H68.0826L67.5013 40.9127V40.977L67.6951 41.0957V42.228C67.6951 42.3418 67.6454 42.3566 67.4963 42.3714V42.4802H68.4155V42.3714C68.2167 42.3566 68.1422 42.3368 68.1422 42.2083V41.3825C68.1869 41.2687 68.2416 41.1748 68.3161 41.0907C68.3558 41.1649 68.4254 41.2143 68.5198 41.2143C68.6738 41.2143 68.7732 41.1105 68.7732 40.972C68.7732 40.8188 68.6887 40.7396 68.5595 40.7396ZM62.4536 29.5H66.0158C66.0158 29.5 67.0343 33.0108 67.3225 33.9751C67.4814 34.4992 67.7597 34.7712 68.3857 34.702L67.4765 37.7431H65.6581C65.6581 37.7431 64.2571 32.6845 63.7503 30.934C63.6261 30.5038 63.5267 30.1725 63.0051 30.1725H62.4486V29.5H62.4536ZM69.0564 29.5H71.774C71.774 29.5 73.0906 34.2075 73.801 36.4376C73.9054 36.7689 74.0743 36.9667 74.4568 36.9816C74.6059 36.9865 75.0431 36.9816 75.0431 36.9816V37.748H71.4212L69.0564 29.5ZM59.9844 36.9964H63.1293V37.7431H59.9844V36.9964Z" fill="#343434"/>
<path fill-rule="evenodd" clip-rule="evenodd" d="M93.3247 32.1459C93.5102 32.3474 93.6438 32.5983 93.712 32.8734C93.9617 33.8865 93.9617 35.9996 93.9617 35.9996C93.9617 35.9996 93.9617 38.1126 93.712 39.1257C93.6438 39.4008 93.5102 39.6517 93.3247 39.8532C93.1391 40.0547 92.908 40.1998 92.6546 40.2738C91.7217 40.545 87.9816 40.545 87.9816 40.545C87.9816 40.545 84.2415 40.545 83.3086 40.2738C83.0552 40.1998 82.8241 40.0547 82.6385 39.8532C82.453 39.6517 82.3194 39.4008 82.2512 39.1257C82.0015 38.1126 82.0015 35.9996 82.0015 35.9996C82.0015 35.9996 82.0015 33.8865 82.2512 32.8734C82.3194 32.5983 82.453 32.3474 82.6385 32.1459C82.8241 31.9444 83.0552 31.7993 83.3086 31.7253C84.2415 31.4541 87.9802 31.4541 87.9802 31.4541C87.9802 31.4541 91.7217 31.4541 92.6546 31.7253C92.908 31.7993 93.1391 31.9444 93.3247 32.1459ZM89.8932 35.9997L86.7857 37.9478V34.0515L89.8932 35.9997Z" fill="#343434"/>
<path d="M99.2756 34.3389V34.6531C99.2756 36.2237 98.6343 37.1415 97.2317 37.1415H97.0182V39.8901H95.8726V32.1013H97.333C98.6686 32.1013 99.2756 32.7144 99.2756 34.3389ZM98.0702 34.4505C98.0702 33.3175 97.8822 33.0484 97.2322 33.0484H97.0186V36.2148H97.2154C97.8311 36.2148 98.0707 35.7321 98.0707 34.6829L98.0702 34.4505ZM101.986 34.107L101.926 35.5834C101.439 35.4719 101.036 35.5557 100.857 35.8975V39.8901H99.7206V34.1997H100.627L100.729 35.4332H100.772C100.892 34.5327 101.277 34.0777 101.773 34.0777C101.844 34.0799 101.916 34.0897 101.986 34.107ZM103.294 37.475V37.763C103.294 38.7661 103.345 39.1095 103.738 39.1095C104.114 39.1095 104.2 38.7954 104.208 38.1441L105.226 38.209C105.303 39.4346 104.713 39.9823 103.712 39.9823C102.498 39.9823 102.139 39.1189 102.139 37.5499V36.5551C102.139 34.9023 102.541 34.0944 103.747 34.0944C104.961 34.0944 105.269 34.7813 105.269 36.4991V37.475H103.294ZM103.294 36.3049V36.7132H104.157V36.3075C104.157 35.2604 104.089 34.9609 103.723 34.9609C103.358 34.9609 103.294 35.2677 103.294 36.3075V36.3049ZM111.144 35.5902V39.8891H109.965V35.6855C109.965 35.2211 109.854 34.9892 109.597 34.9892C109.392 34.9892 109.204 35.119 109.075 35.3604C109.083 35.4374 109.086 35.5149 109.084 35.5923V39.8912H107.903V35.6855C107.903 35.2211 107.792 34.9892 107.535 34.9892C107.33 34.9892 107.15 35.119 107.022 35.3515V39.8917H105.842V34.1997H106.774L106.879 34.9243H106.896C107.161 34.3766 107.589 34.0793 108.093 34.0793C108.589 34.0793 108.871 34.3484 109 34.8316C109.273 34.3395 109.684 34.0793 110.154 34.0793C110.87 34.0793 111.144 34.6363 111.144 35.5902ZM111.734 32.7421C111.734 32.129 111.939 31.9531 112.375 31.9531C112.82 31.9531 113.016 32.1573 113.016 32.7421C113.016 33.3735 112.82 33.5316 112.375 33.5316C111.939 33.5311 111.734 33.3735 111.734 32.7421ZM111.802 34.1997H112.931V39.8917H111.802V34.1997ZM116.787 34.1997V39.8917H115.864L115.761 39.1954H115.736C115.471 39.7524 115.086 39.9844 114.607 39.9844C113.906 39.9844 113.589 39.5017 113.589 38.4525V34.1997H114.769V38.3781C114.769 38.8797 114.865 39.0839 115.103 39.0839C115.209 39.0791 115.312 39.0429 115.401 38.979C115.49 38.9151 115.561 38.8261 115.606 38.7216V34.1997H116.787ZM122.773 35.5902V39.8891H121.593V35.6855C121.593 35.2211 121.482 34.9892 121.225 34.9892C121.02 34.9892 120.832 35.119 120.703 35.3604C120.711 35.4367 120.714 35.5135 120.712 35.5902V39.8891H119.532V35.6855C119.532 35.2211 119.421 34.9892 119.164 34.9892C118.959 34.9892 118.779 35.119 118.651 35.3515V39.8917H117.472V34.1997H118.403L118.505 34.9237H118.522C118.787 34.3761 119.215 34.0787 119.719 34.0787C120.215 34.0787 120.497 34.3478 120.626 34.8311C120.9 34.3389 121.31 34.0787 121.78 34.0787C122.501 34.0793 122.773 34.6363 122.773 35.5902Z" fill="#343434"/>
<path d="M162.73 33.5371C161.858 33.5371 161.153 32.836 161.153 31.9688C161.153 31.1015 161.858 30.4004 162.73 30.4004C163.602 30.4004 164.306 31.1015 164.306 31.9688C164.306 32.836 163.602 33.5371 162.73 33.5371Z" fill="#343434"/>
<path d="M162.73 37.5723C161.858 37.5723 161.153 36.8711 161.153 36.0039C161.153 35.1367 161.858 34.4355 162.73 34.4355C163.602 34.4355 164.306 35.1367 164.306 36.0039C164.306 36.865 163.602 37.5723 162.73 37.5723Z" fill="#343434"/>
<path d="M166.788 37.5723C165.917 37.5723 165.212 36.8711 165.212 36.0039C165.212 35.1367 165.917 34.4355 166.788 34.4355C167.66 34.4355 168.365 35.1367 168.365 36.0039C168.371 36.865 167.66 37.5723 166.788 37.5723Z" fill="#343434"/>
<path d="M162.73 41.6006C161.858 41.6006 161.153 40.8995 161.153 40.0322C161.153 39.165 161.858 38.4639 162.73 38.4639C163.602 38.4639 164.306 39.165 164.306 40.0322C164.306 40.8995 163.602 41.6006 162.73 41.6006Z" fill="#343434"/>
<path d="M158.66 41.6006C157.789 41.6006 157.083 40.8995 157.083 40.0322C157.083 39.165 157.789 38.4639 158.66 38.4639C159.532 38.4639 160.236 39.165 160.236 40.0322C160.236 40.8995 159.532 41.6006 158.66 41.6006Z" fill="#343434"/>
<path d="M158.66 33.5371C157.789 33.5371 157.083 32.836 157.083 31.9688C157.083 31.1015 157.789 30.4004 158.66 30.4004C159.532 30.4004 160.236 31.1015 160.236 31.9688C160.236 32.836 159.532 33.5371 158.66 33.5371Z" fill="#343434"/>
<path d="M158.66 37.5723C157.789 37.5723 157.083 36.8711 157.083 36.0039C157.083 35.1367 157.789 34.4355 158.66 34.4355C159.532 34.4355 160.236 35.1367 160.236 36.0039C160.236 36.865 159.532 37.5723 158.66 37.5723Z" fill="#343434"/>
<path d="M151.544 38.4941C151.365 38.2174 151.124 37.9959 150.827 37.8299C151.049 37.6823 151.229 37.4916 151.365 37.2702C151.501 37.0488 151.569 36.7781 151.569 36.4583C151.569 36.1754 151.513 35.9232 151.408 35.6957C151.303 35.4681 151.154 35.2713 150.969 35.1052C150.784 34.9392 150.561 34.8161 150.301 34.73C150.042 34.6439 149.757 34.5947 149.448 34.5947H146.048V41.4586H149.646C149.967 41.4586 150.264 41.4094 150.53 41.3172C150.796 41.2249 151.025 41.0896 151.216 40.9174C151.408 40.7452 151.556 40.5422 151.661 40.3024C151.767 40.0625 151.822 39.7919 151.822 39.4967C151.816 39.0969 151.723 38.7647 151.544 38.4941ZM147.328 35.6649H149.349C149.646 35.6649 149.875 35.7326 150.042 35.874C150.202 36.0155 150.289 36.2246 150.289 36.4952C150.289 36.772 150.209 36.9873 150.042 37.141C149.875 37.2948 149.646 37.3747 149.349 37.3747H147.328V35.6649ZM150.301 40.1117C150.147 40.2839 149.893 40.37 149.547 40.37H147.328V38.4572H149.547C149.887 38.4572 150.141 38.5556 150.295 38.7463C150.456 38.937 150.53 39.1707 150.53 39.4351C150.53 39.7181 150.456 39.9395 150.301 40.1117Z" fill="#343434"/>
<path d="M143.499 41.3913C143.851 41.256 144.154 41.0653 144.402 40.8254C144.649 40.5856 144.834 40.3027 144.97 39.9828C145.1 39.6569 145.168 39.3124 145.168 38.9496V34.5889H143.888V38.9496C143.888 39.1956 143.851 39.417 143.777 39.6138C143.703 39.8045 143.598 39.9705 143.456 40.1058C143.32 40.2411 143.153 40.3457 142.961 40.4134C142.769 40.4872 142.553 40.5179 142.318 40.5179C142.083 40.5179 141.867 40.481 141.675 40.4134C141.484 40.3396 141.317 40.2411 141.174 40.1058C141.038 39.9705 140.927 39.8106 140.853 39.6138C140.779 39.4231 140.742 39.2017 140.742 38.9496V34.5889H139.462V38.9496C139.462 39.3186 139.53 39.663 139.66 39.9828C139.79 40.3088 139.981 40.5856 140.229 40.8254C140.476 41.0653 140.773 41.2498 141.125 41.3913C141.477 41.5266 141.873 41.5943 142.324 41.5943C142.745 41.6004 143.147 41.5327 143.499 41.3913Z" fill="#343434"/>
<path d="M134.92 41.4528L136.484 38.4637C136.577 38.2915 136.657 38.1315 136.731 37.9839C136.805 37.8363 136.873 37.6826 136.935 37.5349C137.003 37.3873 137.065 37.2397 137.127 37.086C137.189 36.9322 137.257 36.7723 137.331 36.6001H137.368C137.356 36.7846 137.343 36.9568 137.331 37.1167C137.318 37.2766 137.306 37.4304 137.3 37.5841C137.294 37.7318 137.288 37.8917 137.288 38.0516C137.281 38.2115 137.281 38.3837 137.281 38.5682V41.4589H138.561V34.5889H137.133L135.791 37.1967C135.699 37.375 135.618 37.5349 135.538 37.6887C135.464 37.8363 135.39 37.9839 135.322 38.1315C135.254 38.273 135.186 38.4206 135.118 38.5744C135.05 38.722 134.982 38.888 134.914 39.0541C134.839 38.8819 134.771 38.722 134.71 38.5744C134.642 38.4268 134.574 38.2791 134.505 38.1315C134.437 37.9901 134.363 37.8425 134.289 37.6887C134.215 37.5411 134.128 37.375 134.036 37.1967L132.694 34.5889H131.278V41.4528H132.558V38.5621C132.558 38.3776 132.558 38.2053 132.552 38.0454C132.546 37.8855 132.546 37.7318 132.54 37.578C132.533 37.4304 132.521 37.2705 132.509 37.1106C132.496 36.9506 132.484 36.7784 132.472 36.5939H132.509C132.577 36.7661 132.638 36.926 132.706 37.0798C132.774 37.2336 132.836 37.3812 132.904 37.5288C132.972 37.6764 133.04 37.824 133.108 37.9778C133.182 38.1254 133.263 38.2915 133.356 38.4575L134.92 41.4528Z" fill="#343434"/>
<path d="M153.918 34.5889H152.639V41.4528H153.918V34.5889Z" fill="#343434"/>
<path d="M30.9155 73.3501C30.9155 72.4427 31.6599 71.707 32.5783 71.707C33.4967 71.707 34.2412 72.4427 34.2412 73.3501" fill="#343434"/>
<path d="M33.9724 65.3662H31.1147V67.8914H33.9724V65.3662Z" fill="#343434"/>
<path d="M1.54053 64.1328H2.41333V68.5273H1.54053V64.1328Z" fill="#343434"/>
<path d="M34.9931 72.8184V73.6808H30.0679V72.8184H34.9931Z" fill="#343434"/>
<path d="M7.24494 68.5273H6.37226V66.3302C6.37226 65.8823 6.29676 65.559 6.14576 65.3599C5.96098 65.1113 5.63651 64.987 5.17197 64.987C4.7078 64.987 4.38044 65.1113 4.19037 65.3599C4.03925 65.559 3.96375 65.8823 3.96375 66.3302V68.5273H3.09131V66.3343C3.09131 64.8668 3.78487 64.1328 5.17197 64.1328C6.55379 64.1328 7.24482 64.8669 7.24482 66.3343V68.5273H7.24494Z" fill="#343434"/>
<path d="M12.0809 68.5273H11.2083V66.3302C11.2083 65.8823 11.1327 65.559 10.9817 65.3599C10.7972 65.1113 10.4726 64.987 10.0081 64.987C9.54374 64.987 9.21674 65.1113 9.02655 65.3599C8.87543 65.559 8.79993 65.8823 8.79993 66.3302V68.5273H7.92725V66.3343C7.92725 64.8668 8.62092 64.1328 10.0081 64.1328C11.39 64.1328 12.0808 64.8669 12.0808 66.3343V68.5273H12.0809Z" fill="#343434"/>
<path d="M16.8619 68.5273H14.7895C13.4018 68.5273 12.7085 67.7963 12.7085 66.3343C12.7085 64.8668 13.4018 64.1328 14.7895 64.1328C16.171 64.1328 16.8619 64.8659 16.8619 66.3316V66.7613H13.6062C13.6956 67.3693 14.0901 67.6736 14.7895 67.6736H16.8619V68.5273ZM15.9641 65.9072C15.8746 65.2937 15.483 64.987 14.7894 64.987C14.0901 64.987 13.6955 65.2937 13.6061 65.9072H15.9641Z" fill="#343434"/>
<path d="M19.7915 64.987C19.2488 64.987 18.8741 65.0615 18.6674 65.2108C18.5161 65.3217 18.4406 65.4928 18.4406 65.7249V68.5273H17.5679V65.7302C17.5679 64.6655 18.309 64.1328 19.7914 64.1328V64.987H19.7915Z" fill="#343434"/>
<path d="M25.1589 68.5275H24.2778V66.3304C24.2778 65.8826 24.2029 65.5592 24.0529 65.3601C23.8698 65.1115 23.5474 64.9873 23.0865 64.9873C22.6254 64.9873 22.3002 65.1115 22.1114 65.3601C21.9614 65.5592 21.8865 65.8826 21.8865 66.3304V68.5275H21.0054V62.4004H21.8865V64.4151C22.2143 64.2274 22.6142 64.1331 23.0865 64.1331C24.4681 64.1331 25.1589 64.8672 25.1589 66.3346V68.5275Z" fill="#343434"/>
<path d="M29.8073 66.3343C29.8073 67.7963 29.1165 68.5273 27.7348 68.5273C26.3472 68.5273 25.6538 67.7963 25.6538 66.3343C25.6538 64.8668 26.3472 64.1328 27.7348 64.1328C29.1165 64.1328 29.8073 64.8669 29.8073 66.3343ZM28.9346 66.3343C28.9346 65.8852 28.8593 65.5608 28.708 65.3613C28.5236 65.1116 28.1992 64.9871 27.7347 64.9871C27.2702 64.9871 26.9459 65.1118 26.7613 65.3613C26.6103 65.5609 26.5347 65.8852 26.5347 66.3343C26.5347 66.7832 26.6103 67.1079 26.7613 67.3072C26.9459 67.5515 27.2701 67.6734 27.7347 67.6734C28.1991 67.6734 28.5236 67.5515 28.708 67.3072C28.8594 67.1079 28.9346 66.7832 28.9346 66.3343Z" fill="#343434"/>
<path d="M34.6396 66.3343C34.6396 67.7963 33.9458 68.5273 32.5586 68.5273C31.1769 68.5273 30.4858 67.7963 30.4858 66.3343V64.1328H31.3586V66.3385C31.3586 66.7861 31.4341 67.1096 31.5854 67.3085C31.7698 67.5518 32.0943 67.6734 32.5587 67.6734C33.0231 67.6734 33.3475 67.5518 33.5322 67.3085C33.6831 67.1096 33.7589 66.7861 33.7589 66.3385V64.1328H34.6397V66.3343H34.6396Z" fill="#343434"/>
<path d="M30.486 70.6141C30.486 69.1519 31.1798 68.4209 32.5671 68.4209C33.9489 68.4209 34.6397 69.1519 34.6397 70.6141V72.8154H33.7669V70.6098C33.7669 70.162 33.6914 69.8385 33.5405 69.6398C33.3558 69.3965 33.0314 69.2749 32.567 69.2749C32.1026 69.2749 31.7782 69.3965 31.5938 69.6398C31.4427 69.8385 31.3673 70.162 31.3673 70.6098V72.8153H30.4858V70.6141H30.486Z" fill="#343434"/>
<path d="M37.7018 64.987C37.159 64.987 36.7841 65.0615 36.5773 65.2108C36.4261 65.3217 36.3508 65.4928 36.3508 65.7249V68.5273H35.478V65.7302C35.478 64.6655 36.2193 64.1328 37.7016 64.1328V64.987H37.7018Z" fill="#343434"/>
<path d="M32.9063 71.0862C32.9063 71.2714 32.7546 71.4212 32.5673 71.4212C32.3798 71.4212 32.228 71.2713 32.228 71.0862C32.228 70.9008 32.3799 70.751 32.5673 70.751C32.7547 70.751 32.9063 70.9009 32.9063 71.0862Z" fill="#343434"/>
<path d="M32.5683 70.3769C32.7907 70.3769 32.971 70.1988 32.971 69.979C32.971 69.7592 32.7907 69.5811 32.5683 69.5811C32.3458 69.5811 32.1655 69.7592 32.1655 69.979C32.1655 70.1988 32.3458 70.3769 32.5683 70.3769Z" fill="#343434"/>
<path fill-rule="evenodd" clip-rule="evenodd" d="M56.4701 65.5646L56.5895 64.8256H50.6668L50.5775 65.3672C50.4807 65.9305 50.339 66.4371 50.1454 66.8805C49.9144 67.4012 49.6238 67.7813 49.3335 67.9573C49.6238 68.1333 49.9069 68.5061 50.1454 69.0341C50.339 69.4702 50.4881 69.9769 50.5775 70.5471L50.6668 71.0887H56.5895L56.4704 70.35C56.3216 69.435 56.0381 68.6119 55.6507 67.9853L55.6358 67.9642L55.6507 67.9431C56.0306 67.3027 56.3212 66.4793 56.4704 65.5646H56.4701ZM54.6602 69.0408C54.7569 69.252 54.8462 69.4913 54.9207 69.7587H51.8366C51.6726 69.0552 51.4266 68.4428 51.1215 67.9501C51.4266 67.4576 51.6651 66.8452 51.8366 66.1415H54.9132C54.8388 66.4091 54.7495 66.6484 54.6527 66.8594C54.399 67.4293 54.0864 67.8093 53.7958 67.9501C54.0938 68.0911 54.4068 68.4639 54.6602 69.0411V69.0408ZM60.1029 71.1995H61.6987V66.1748H63.3811V64.8004H58.4201V66.1748H60.1029V71.1995ZM65.6609 67.2869V64.8004H64.0651V71.1995H65.6609V68.6532H67.5027V71.1995H69.0985V64.8004H67.5023V67.2869H65.6606H65.6609ZM71.8574 68.6617H74.3994V67.2869H71.8574V66.1748H74.8426V64.8004H70.2619V71.1995H74.8426V69.8251H71.8574V68.6617ZM83.4173 64.8004H81.4491L79.4294 67.1572V64.8004H77.8336V71.1995H79.4294V69.27L80.0654 68.5518L81.6483 71.1998H83.5073L81.1294 67.3912L83.417 64.7998L83.4173 64.8004ZM85.4448 68.6617H87.9869V67.2869H85.4448V66.1748H88.4304V64.8004H83.8494V71.1995H88.43V69.8251H85.4448V68.6617ZM90.7058 64.8004H89.3222V71.1995H90.918V67.8493L93.207 71.1995H94.5906V64.8004H92.9952V68.1437L90.7058 64.8004Z" fill="#343434"/>
<path fill-rule="evenodd" clip-rule="evenodd" d="M137.125 60.862L137.124 60.8566V60.8565C137.12 60.8361 137.116 60.8173 137.116 60.7998H130.652C130.655 60.8045 130.658 60.8088 130.661 60.8129C130.656 60.8104 130.651 60.8076 130.646 60.8047H130.435C130.436 61.0174 130.437 61.2306 130.438 61.444V61.4442C130.439 61.901 130.44 62.3591 130.451 62.8158C130.462 63.2675 130.537 63.3311 130.964 63.3346H131.816L129.541 65.4298C129.705 65.612 129.869 65.7924 130.033 65.9721C130.385 66.3594 130.734 66.7435 131.076 67.1355C131.215 67.2958 131.286 67.2311 131.403 67.1231V67.1228C131.708 66.8418 132.014 66.563 132.321 66.2842C132.768 65.8771 133.216 65.47 133.657 65.0559C133.832 64.8954 133.924 64.9237 134.079 65.0651C134.466 65.4251 134.857 65.7811 135.248 66.1372V66.1373V66.1374C135.61 66.4678 135.973 66.7983 136.333 67.132C136.463 67.2522 136.524 67.2776 136.656 67.1228C136.915 66.8164 137.187 66.5216 137.46 66.2267V66.2263C137.561 66.1165 137.663 66.0068 137.764 65.8964L137.765 65.8954C137.976 65.6645 138.081 65.5489 138.076 65.438C138.072 65.3269 137.956 65.2205 137.725 65.0074L137.721 65.0043C137.336 64.6516 136.952 64.2956 136.549 63.9231V63.9229V63.9225L136.548 63.922L136.541 63.9152C136.339 63.7287 136.133 63.5381 135.921 63.3417C136.042 63.3417 136.153 63.3404 136.259 63.3391C136.481 63.3365 136.676 63.3342 136.871 63.3452C137.159 63.3615 137.273 63.2477 137.267 62.9565C137.258 62.528 137.259 62.1009 137.261 61.6743C137.261 61.5126 137.262 61.3509 137.262 61.1893C137.262 61.1739 137.262 61.1582 137.263 61.1424V61.1422C137.265 61.0301 137.267 60.9141 137.125 60.862ZM155.628 72.8443C155.714 72.4042 155.8 71.9644 155.935 71.5358L155.932 71.2552C155.835 71.2552 155.738 71.2566 155.641 71.258C155.422 71.2612 155.203 71.2644 154.986 71.2516C154.693 71.234 154.57 71.3584 154.523 71.6411C154.47 71.9608 154.399 72.2784 154.322 72.6254C154.287 72.7849 154.25 72.9506 154.213 73.1256C154.147 72.9731 154.085 72.8302 154.026 72.6936C153.9 72.4047 153.787 72.1443 153.679 71.8822L153.632 71.7701C153.505 71.4626 153.451 71.3327 153.355 71.2806C153.285 71.2425 153.192 71.2461 153.032 71.2523C152.956 71.2552 152.865 71.2587 152.755 71.2587C152.637 71.2585 152.537 71.2561 152.453 71.2541H152.452C152.215 71.2484 152.096 71.2455 152.025 71.3024C151.953 71.3596 151.929 71.4773 151.882 71.7133C151.866 71.7946 151.846 71.8899 151.822 72.0016C151.656 72.7439 151.5 73.4882 151.344 74.2323L151.245 74.7062C151.161 75.1048 151.18 75.126 151.572 75.126H152.028C152.513 75.126 152.538 75.0992 152.63 74.6044C152.688 74.3038 152.752 74.0044 152.822 73.6804V73.6803C152.856 73.5251 152.89 73.3642 152.926 73.1949L153.054 73.4972L153.055 73.4975C153.158 73.7402 153.249 73.954 153.337 74.1689C153.738 75.1395 153.754 75.1515 154.808 75.126C154.82 75.1253 154.831 75.1253 154.843 75.126C155.078 75.1557 155.177 75.0172 155.219 74.8094C155.24 74.7052 155.26 74.6008 155.28 74.4965V74.4959C155.33 74.2337 155.38 73.9715 155.443 73.7123C155.514 73.4249 155.571 73.1346 155.628 72.8443ZM111.685 73.4395C111.719 73.2823 111.766 73.0788 111.818 72.8539C111.911 72.4512 112.02 71.9795 112.1 71.5804C112.16 71.2878 112.258 71.1471 112.577 71.1733C112.809 71.1923 113.043 71.1881 113.29 71.1837C113.401 71.1817 113.514 71.1796 113.631 71.1796L113.538 71.6217V71.6219V71.6225C113.421 72.1841 113.306 72.7335 113.194 73.2833L113.186 73.3187C113.136 73.5629 113.084 73.8116 113.422 73.9195C113.495 73.9427 113.571 73.951 113.647 73.9439C113.723 73.9368 113.797 73.9145 113.864 73.8782C113.931 73.842 113.99 73.7925 114.038 73.7328C114.086 73.6732 114.121 73.6044 114.142 73.5307C114.305 72.8981 114.449 72.2583 114.56 71.6158C114.617 71.2864 114.741 71.1478 115.083 71.1768C115.317 71.1966 115.547 71.192 115.791 71.1871C115.904 71.1848 116.02 71.1825 116.141 71.1825C116.07 71.4705 115.999 71.7562 115.93 72.04C115.751 72.7683 115.575 73.4841 115.384 74.1952C115.281 74.5762 114.992 74.8363 114.629 74.9777C113.908 75.2689 113.104 75.2739 112.38 74.9918C112.047 74.8653 111.767 74.5981 111.691 74.2899C111.615 73.9817 111.589 73.8782 111.685 73.4395ZM144.294 72.356L144.295 72.3556V72.3555C144.465 72.1191 144.619 71.9057 144.76 71.6837C144.954 71.3804 145.194 71.2178 145.566 71.2454C145.881 71.2648 146.198 71.2648 146.513 71.2454C146.705 71.2362 146.762 71.2991 146.724 71.4829C146.489 72.5899 146.258 73.6973 146.03 74.8052C145.986 75.0173 145.866 75.1283 145.641 75.1226C145.396 75.1046 145.15 75.106 144.905 75.1269C144.58 75.1707 144.594 74.9975 144.64 74.7805C144.673 74.6253 144.707 74.4703 144.741 74.3153V74.3149V74.3146V74.3143V74.3139V74.3135V74.313V74.3126C144.789 74.0921 144.837 73.8714 144.883 73.6495C144.894 73.5957 144.899 73.5408 144.906 73.4596C144.91 73.4106 144.915 73.352 144.923 73.2784L143.663 74.8957C143.533 74.5717 143.409 74.2597 143.281 73.937V73.9368C143.185 73.6965 143.087 73.4502 142.983 73.1886C142.948 73.3579 142.914 73.5188 142.882 73.6737C142.802 74.0542 142.729 74.3986 142.669 74.7437C142.638 74.9134 142.564 75.0731 142.418 75.088C142.058 75.1248 141.696 75.1303 141.336 75.1042C141.192 75.0938 141.229 74.9659 141.257 74.8697C141.263 74.8488 141.269 74.8294 141.272 74.813C141.384 74.2402 141.506 73.6693 141.628 73.0987L141.629 73.0985L141.709 72.7235C141.735 72.6008 141.763 72.4786 141.791 72.3563V72.3562C141.85 72.1029 141.909 71.8494 141.948 71.5925C141.992 71.3048 142.138 71.2249 142.402 71.239C142.683 71.2568 142.965 71.2568 143.245 71.239C143.526 71.2185 143.647 71.3535 143.716 71.6002C143.783 71.8538 143.862 72.1003 143.953 72.3844V72.3846V72.385L143.954 72.3891L143.955 72.3921L143.957 72.3973V72.3974C143.987 72.4919 144.018 72.5907 144.051 72.6952C144.136 72.5758 144.216 72.4641 144.294 72.3571V72.356ZM134.209 71.5767V71.5766V71.5765V71.5764C134.23 71.4708 134.251 71.3632 134.273 71.2532C133.844 71.2532 133.447 71.2532 133.046 71.2525C132.84 71.2511 132.795 71.4045 132.765 71.5522C132.546 72.5904 132.332 73.6302 132.122 74.6716C132.03 75.1255 132.036 75.1255 132.482 75.1255C132.569 75.1255 132.647 75.126 132.719 75.1265C133.108 75.1291 133.295 75.1303 133.402 75.0389C133.5 74.955 133.531 74.793 133.592 74.4824C133.61 74.3895 133.63 74.2833 133.656 74.162C133.724 73.8481 133.858 73.706 134.178 73.7506C134.271 73.763 134.365 73.763 134.459 73.7506C134.801 73.7053 134.842 73.8495 134.757 74.15C134.742 74.2021 134.724 74.2575 134.707 74.3145C134.622 74.5862 134.525 74.8942 134.629 75.0519C134.723 75.1917 134.946 75.1666 135.175 75.1407C135.294 75.1273 135.414 75.1137 135.519 75.1226C135.566 75.1264 135.613 75.1251 135.659 75.1239C135.683 75.1233 135.706 75.1226 135.73 75.1226C135.807 75.1283 135.883 75.104 135.942 75.0548C136.002 75.0056 136.041 74.9353 136.05 74.8583C136.289 73.7522 136.523 72.6448 136.753 71.5359C136.79 71.3564 136.777 71.2164 136.517 71.2496C136.296 71.2768 136.072 71.2768 135.851 71.2496C135.473 71.2051 135.327 71.3415 135.267 71.7339C135.131 72.6168 135.103 72.6154 134.246 72.5712L134.225 72.5701C134.057 72.5588 133.997 72.5355 134.045 72.3467C134.108 72.0968 134.157 71.8429 134.209 71.5767ZM138.278 71.1825C138.916 71.1825 138.916 71.1825 138.781 71.801C138.748 71.9557 138.713 72.1101 138.678 72.2646V72.2647V72.2649V72.265V72.2652V72.2653C138.599 72.6118 138.521 72.9582 138.455 73.3066L138.45 73.3329C138.405 73.5739 138.354 73.8435 138.705 73.9308C139.024 74.01 139.338 73.8516 139.423 73.5307C139.505 73.229 139.57 72.9224 139.635 72.6161C139.659 72.4998 139.684 72.3835 139.71 72.2675C139.723 72.2089 139.738 72.1504 139.753 72.0918V72.0917C139.79 71.9455 139.828 71.799 139.835 71.6511C139.851 71.2666 140.036 71.1302 140.397 71.1803C140.49 71.1871 140.584 71.1871 140.678 71.1803C141.385 71.1803 141.385 71.1804 141.233 71.8582C141.181 72.0876 141.131 72.317 141.08 72.5464V72.547L141.079 72.5475V72.5481V72.5486V72.5495C140.999 72.9118 140.918 73.274 140.836 73.636C140.584 74.7437 139.901 75.2619 138.77 75.1912C138.514 75.1791 138.258 75.1469 138.007 75.095C137.127 74.8978 136.829 74.4652 136.982 73.5816C137.09 72.9603 137.224 72.3432 137.36 71.7268C137.479 71.1917 137.5 71.1825 138.066 71.1825H138.278ZM123.058 71.2532H121.512C121.199 71.2532 120.884 71.2532 120.572 71.256C120.429 71.2576 120.309 71.2555 120.208 71.2537C119.956 71.2493 119.821 71.2469 119.729 71.309C119.623 71.3807 119.575 71.5385 119.472 71.8789C119.444 71.9711 119.412 72.0767 119.373 72.1976C119.317 72.375 119.338 72.4577 119.549 72.4457C119.674 72.4385 119.799 72.4403 119.924 72.4421C120.045 72.4438 120.165 72.4456 120.285 72.4393C120.496 72.4273 120.571 72.4648 120.512 72.7101C120.413 73.1183 120.327 73.5296 120.241 73.9407C120.181 74.2265 120.122 74.5121 120.058 74.7968C120 75.0548 120.058 75.1806 120.339 75.1255C120.547 75.0851 120.755 75.1012 120.962 75.1174H120.963C120.999 75.1202 121.035 75.123 121.07 75.1255C121.335 75.1445 121.473 75.0244 121.524 74.7543C121.576 74.4859 121.634 74.2186 121.693 73.9513C121.777 73.5698 121.861 73.1883 121.923 72.8034C121.973 72.4895 122.117 72.4379 122.389 72.4379C123.243 72.4464 123.244 72.4386 123.278 71.5656C123.275 71.5421 123.275 71.5184 123.278 71.4949C123.334 71.2942 123.233 71.2532 123.058 71.2532ZM117.445 75.1226C117.324 75.1226 117.202 75.1216 117.081 75.1206C116.781 75.1181 116.48 75.1156 116.18 75.1282C115.969 75.1367 115.94 75.0512 115.976 74.8822L116.678 71.5274C116.72 71.3295 116.834 71.2354 117.051 71.2446C117.342 71.263 117.635 71.263 117.926 71.2446C118.162 71.2277 118.168 71.3422 118.131 71.514C118.088 71.7166 118.046 71.9196 118.004 72.1226V72.1227V72.1228V72.1229C117.902 72.6156 117.8 73.1081 117.68 73.5957C117.61 73.8785 117.699 73.9152 117.94 73.9067C118.132 73.9006 118.324 73.902 118.516 73.9035C118.721 73.9051 118.926 73.9066 119.131 73.899C119.342 73.8912 119.376 73.9696 119.316 74.1457C119.257 74.321 119.213 74.465 119.176 74.5834C119.092 74.8599 119.05 74.996 118.958 75.0621C118.868 75.1262 118.732 75.1244 118.462 75.1208C118.355 75.1194 118.227 75.1177 118.073 75.1197C117.918 75.124 117.761 75.1234 117.603 75.1229C117.551 75.1227 117.498 75.1226 117.445 75.1226ZM127.126 75.0992H125.896C125.646 75.0992 125.543 74.931 125.439 74.7607C125.416 74.7227 125.393 74.6846 125.368 74.6482C125.334 74.5998 125.31 74.5406 125.285 74.4811C125.222 74.3299 125.159 74.177 124.946 74.1958C124.684 74.2193 124.648 74.4313 124.614 74.6313C124.608 74.6659 124.602 74.7002 124.595 74.733C124.537 74.9925 124.384 75.1077 124.122 75.1006C123.888 75.0876 123.653 75.0888 123.419 75.1041C123.151 75.1289 123.102 75.025 123.156 74.7825C123.288 74.1885 123.414 73.5933 123.541 72.9977V72.9974V72.9964C123.605 72.6965 123.668 72.3964 123.733 72.0964C123.758 71.9796 123.777 71.8787 123.794 71.7917C123.849 71.5098 123.875 71.3729 123.958 71.3083C124.037 71.2472 124.166 71.2508 124.416 71.2577C124.515 71.2604 124.633 71.2637 124.774 71.2637C124.906 71.2637 125.037 71.2603 125.168 71.257C125.529 71.2479 125.889 71.2387 126.25 71.2983C126.938 71.4114 127.316 71.7168 127.418 72.2406C127.559 72.9475 127.333 73.5243 126.742 73.877C126.531 74.0007 126.489 74.0848 126.64 74.2905C126.749 74.4439 126.843 74.609 126.948 74.792V74.7921V74.7922C127.003 74.8892 127.061 74.9912 127.126 75.0992ZM125.322 73.1575L125.302 73.1576C125.168 73.1585 124.965 73.1598 124.96 72.985C124.956 72.5404 125.117 72.31 125.422 72.3093C125.869 72.3093 126.042 72.4139 126.049 72.6903C126.058 73.0204 125.857 73.1561 125.322 73.1575ZM149.799 75.1C149.893 75.094 149.986 75.094 150.08 75.1C150.208 75.0928 150.337 75.093 150.466 75.1007C150.736 75.134 150.832 75.0506 150.807 74.7565C150.716 73.7167 150.646 72.674 150.582 71.6321C150.565 71.3536 150.467 71.2426 150.176 71.2539C149.658 71.2737 149.143 71.2631 148.63 71.2468C148.358 71.2377 148.191 71.3472 148.077 71.5854C147.872 72.0158 147.661 72.4433 147.451 72.8704V72.8705V72.8713C147.372 73.0317 147.293 73.1921 147.215 73.3526C147.153 73.4786 147.091 73.6047 147.03 73.7308V73.7311L147.027 73.7361V73.7364V73.7366C146.854 74.0924 146.681 74.448 146.501 74.801C146.399 75.0011 146.377 75.1191 146.668 75.1036C146.959 75.088 147.252 75.0944 147.544 75.1036C147.757 75.1099 147.895 75.047 147.959 74.8208C148.053 74.4843 148.297 74.3635 148.63 74.3967C148.77 74.4159 148.911 74.4208 149.052 74.4115C149.285 74.3861 149.384 74.4964 149.361 74.7084C149.326 75.0541 149.498 75.1396 149.799 75.1ZM148.737 73.1796L148.611 73.4444C148.748 73.4378 148.886 73.4388 149.023 73.4472C149.234 73.472 149.331 73.4126 149.304 73.1828C149.292 73.0745 149.294 72.9647 149.296 72.8547C149.298 72.7883 149.299 72.7218 149.297 72.6555C149.294 72.5742 149.285 72.4816 149.189 72.4562C149.094 72.4298 149.06 72.5018 149.029 72.5677C149.025 72.5759 149.022 72.5841 149.018 72.5919C148.926 72.7827 148.834 72.9742 148.737 73.179V73.1796ZM130.679 71.263C130.874 71.2644 131.069 71.2658 131.263 71.2616C131.455 71.2559 131.538 71.345 131.551 71.5309L131.575 71.8822V71.8833C131.643 72.8771 131.711 73.8715 131.784 74.8652C131.798 75.0526 131.73 75.1169 131.547 75.1042C131.36 75.0921 131.173 75.0921 130.985 75.1042L130.967 75.1052C130.608 75.1262 130.261 75.1465 130.339 74.5995C130.347 74.538 130.314 74.4355 130.237 74.4362C130.126 74.4378 130.014 74.4267 129.903 74.4157C129.666 74.3922 129.43 74.3689 129.201 74.4659C129.136 74.4961 129.08 74.5414 129.037 74.598C128.994 74.6546 128.965 74.7208 128.953 74.791C128.895 75.0504 128.727 75.1155 128.487 75.1056C128.206 75.0936 127.925 75.0922 127.643 75.1056C127.404 75.1169 127.351 75.0469 127.464 74.8285C127.63 74.5062 127.789 74.1804 127.948 73.8548L127.949 73.8532C128.005 73.7381 128.061 73.623 128.118 73.508C128.203 73.3339 128.29 73.16 128.376 72.986V72.9854C128.601 72.5306 128.826 72.0759 129.044 71.6178C129.17 71.3535 129.342 71.222 129.647 71.2545C129.892 71.2689 130.138 71.2705 130.382 71.2595L130.387 71.2616C130.484 71.2616 130.581 71.2623 130.679 71.263ZM129.593 73.4267L129.74 73.1203L129.741 73.1198C129.829 72.9363 129.915 72.7567 130.001 72.5784C130.04 72.4979 130.099 72.43 130.189 72.459C130.279 72.488 130.286 72.5777 130.287 72.6619V72.8032C130.296 73.4635 130.296 73.4635 129.593 73.4267Z" fill="#343434"/>
<path fill-rule="evenodd" clip-rule="evenodd" d="M178.816 58.7658C178.814 58.8384 178.767 58.8732 178.72 58.908C178.701 58.9219 178.682 58.9359 178.666 58.9523L178.655 58.9512L178.666 58.9538C178.465 58.9913 178.26 58.9922 178.059 58.9566L178.07 58.9539L178.059 58.955C178.023 58.9462 177.989 58.9276 177.963 58.9012C177.936 58.8749 177.916 58.8416 177.906 58.805L177.907 58.7987C177.878 58.4415 177.878 58.0825 177.907 57.7253L177.906 57.7174C178.11 57.4102 178.649 57.4335 178.816 57.7563V57.7657C178.83 58.1001 178.834 58.4326 178.815 58.764L178.816 58.7658ZM183.299 61.2565C183.299 61.3252 183.235 61.3983 183.146 61.4589C182.959 61.5854 182.772 61.7122 182.586 61.8389L182.585 61.8391V61.8392V61.8394V61.8395V61.8396L182.584 61.8398V61.8399V61.8401V61.8402V61.8404L182.583 61.8405V61.8407V61.8408V61.8409C182.216 62.0898 181.85 62.3387 181.483 62.5853C181.289 62.7158 181.16 62.6871 181.031 62.4987C180.69 62.0027 180.693 61.9879 181.189 61.6507L182.576 60.708C182.831 60.5348 182.934 60.5526 183.103 60.8207C183.12 60.8476 183.14 60.8736 183.159 60.9002C183.227 60.9927 183.301 61.0918 183.299 61.2565ZM175.249 62.5962C175.307 62.6371 175.373 62.6637 175.443 62.6739C175.525 62.6661 175.603 62.6436 175.657 62.5701C175.702 62.508 175.747 62.4458 175.79 62.3818C176.007 62.0504 175.991 61.9657 175.669 61.7451C175.222 61.4382 174.775 61.1323 174.328 60.8272C173.855 60.5052 173.812 60.5157 173.506 61.0075C173.383 61.2071 173.403 61.338 173.592 61.4674C173.888 61.6705 174.185 61.8721 174.482 62.0737V62.0738C174.738 62.2476 174.994 62.4214 175.249 62.5962ZM178.363 63.6166H183.653C184.012 63.6166 184.131 63.7386 184.131 64.1037V64.4533C184.128 64.7301 183.992 64.8725 183.726 64.8806H183.516H173.202C173.133 64.8806 173.063 64.8806 172.993 64.8786C172.746 64.8685 172.625 64.7442 172.617 64.4902C172.612 64.348 172.614 64.2055 172.617 64.0629C172.617 63.7413 172.74 63.6189 173.055 63.6185L178.363 63.6166ZM178.686 65.6408L178.696 65.6438C178.836 65.6842 179.146 65.7738 179.43 66.1216C180.018 66.8422 180.621 67.5509 181.224 68.2594V68.26L181.225 68.2601V68.2602V68.2603C181.446 68.5198 181.666 68.7792 181.886 69.0392C182.087 69.2762 182.077 69.4595 181.845 69.6696C181.746 69.7601 181.644 69.8483 181.542 69.9361C181.335 70.1148 181.141 70.1062 180.961 69.8953C180.637 69.5163 180.316 69.1352 179.994 68.7541V68.7534C179.827 68.5556 179.66 68.3577 179.493 68.1602C179.204 67.8164 178.914 67.473 178.62 67.1328C178.429 66.909 178.276 66.9145 178.088 67.1366C177.319 68.043 176.55 68.9475 175.779 69.8503C175.565 70.1016 175.386 70.1097 175.144 69.8953C175.11 69.8649 175.075 69.8347 175.04 69.8046V69.8045V69.8044C174.978 69.7507 174.916 69.6971 174.856 69.6417C174.64 69.4432 174.626 69.268 174.817 69.0384C175.136 68.6581 175.457 68.2797 175.778 67.9014L175.779 67.9009V67.9003V67.9001L176.049 67.5826C176.19 67.4161 176.331 67.2502 176.473 67.0843V67.0842C176.811 66.6885 177.148 66.2928 177.479 65.8905C177.621 65.7166 177.891 65.6567 178.031 65.6256C178.053 65.6207 178.072 65.6166 178.086 65.6128C178.231 65.5753 178.552 65.5825 178.686 65.6408ZM173.718 78.5C174.238 78.5019 174.685 78.3229 175.067 77.9239C175.082 77.9601 175.096 77.9919 175.109 78.0214V78.0216C175.123 78.0556 175.136 78.0866 175.149 78.1174L175.161 78.1489C175.223 78.3108 175.248 78.3761 175.295 78.402C175.327 78.4195 175.369 78.419 175.438 78.4182C175.48 78.4178 175.533 78.4172 175.599 78.4203C175.731 78.427 175.777 78.3842 175.777 78.2459C175.775 77.9628 175.778 77.6797 175.782 77.3965C175.784 77.2205 175.786 77.0445 175.787 76.8685C175.792 76.0471 175.795 75.2256 175.795 74.4039C175.795 74.1724 175.767 74.1433 175.547 74.1433H175.184C174.893 74.1437 174.891 74.1448 174.891 74.4509C174.89 74.7015 174.888 74.952 174.887 75.2024C174.885 75.6384 174.883 76.0741 174.881 76.5096C174.882 76.6194 174.87 76.7288 174.846 76.8359C174.793 77.0988 174.64 77.3298 174.421 77.4793C174.201 77.6288 173.933 77.6848 173.673 77.6353C173.321 77.5712 173.124 77.2982 173.118 76.8476C173.107 76.0207 173.1 75.1929 173.096 74.3643C173.096 74.2081 173.044 74.1378 172.885 74.1456C172.747 74.1514 172.609 74.1492 172.471 74.1469L172.388 74.1456C172.26 74.1437 172.206 74.205 172.206 74.3344C172.207 74.6314 172.206 74.9284 172.204 75.2254C172.201 75.8341 172.198 76.4428 172.216 77.0511C172.243 77.9562 172.826 78.4965 173.718 78.5ZM169.882 78.4771C168.56 78.4301 167.784 77.3433 167.875 76.0898C167.937 75.2457 168.304 74.6021 169.088 74.2505C169.923 73.8765 170.934 74.0889 171.477 74.7442C171.63 74.9295 171.626 74.9812 171.445 75.14C171.096 75.447 171.095 75.4462 170.718 75.1885L170.704 75.1789C170.298 74.9012 169.857 74.8681 169.42 75.0756C168.982 75.283 168.763 75.6637 168.732 76.1539C168.687 76.8686 169.019 77.4116 169.618 77.5775C170.149 77.7239 170.593 77.5425 170.972 77.1638C171.163 76.9723 171.169 76.9696 171.365 77.1537L171.375 77.1628L171.38 77.1677V77.1678V77.1679C171.389 77.1766 171.398 77.185 171.407 77.1926C171.733 77.5033 171.735 77.5301 171.409 77.8576C170.985 78.2821 170.482 78.5028 169.882 78.4771ZM183.675 77.1586V77.1585V77.1584V77.1583V77.1582V77.1581V77.158C183.676 76.9856 183.676 76.8133 183.676 76.6409L183.675 75.2235C183.675 74.9279 183.675 74.9279 183.963 74.9279C184.547 74.9279 184.547 74.9279 184.503 74.334V74.3146C184.498 74.198 184.445 74.1394 184.323 74.1429C184.227 74.1458 184.132 74.1453 184.036 74.1447C183.953 74.1443 183.87 74.1438 183.787 74.1456C183.711 74.1476 183.668 74.134 183.673 74.0419C183.675 73.9789 183.675 73.9158 183.674 73.8528C183.674 73.7732 183.673 73.6937 183.678 73.6146C183.692 73.3874 183.846 73.2343 184.071 73.218C184.153 73.2117 184.236 73.2141 184.319 73.2165L184.377 73.218C184.471 73.2204 184.519 73.1811 184.519 73.0813C184.518 72.9194 184.52 72.7577 184.525 72.5961C184.529 72.4815 184.471 72.4423 184.367 72.4229C184.127 72.3817 183.882 72.3879 183.645 72.4411C183.215 72.5305 182.937 72.7938 182.829 73.2332C182.788 73.4093 182.767 73.5895 182.767 73.7704V73.7771C182.764 73.9593 182.762 74.0509 182.715 74.097C182.668 74.1437 182.575 74.1437 182.387 74.1437C182.103 74.1444 182.1 74.1468 182.1 74.4404C182.099 74.9252 182.099 74.9322 182.583 74.9225C182.737 74.9205 182.769 74.9683 182.769 75.1167C182.764 75.8662 182.765 76.6165 182.765 77.3668C182.766 77.6069 182.766 77.847 182.766 78.0871C182.766 78.1045 182.765 78.1218 182.765 78.1391C182.765 78.1736 182.764 78.208 182.766 78.2425C182.772 78.3648 182.822 78.4305 182.957 78.4231C183.122 78.4139 183.288 78.4139 183.454 78.4231C183.621 78.4324 183.676 78.3598 183.676 78.1947C183.674 77.849 183.675 77.5038 183.675 77.1586ZM179.405 76.0921C179.409 76.2029 179.407 76.3228 179.404 76.4481C179.4 76.6595 179.395 76.8867 179.424 77.1133C179.466 77.4396 179.608 77.5627 179.928 77.5693H179.929C180.247 77.5759 180.253 77.576 180.326 77.9018C180.337 77.9525 180.348 77.9983 180.357 78.0396C180.403 78.2383 180.426 78.3344 180.387 78.3807C180.352 78.424 180.263 78.4236 180.091 78.423C180.039 78.4227 179.979 78.4225 179.911 78.4235C179.701 78.4273 179.491 78.3986 179.29 78.3384C179.078 78.2779 178.889 78.1521 178.75 77.9782C178.611 77.8043 178.528 77.5909 178.513 77.3673C178.478 76.9423 178.482 76.5173 178.486 76.0933V76.0932C178.488 75.8972 178.489 75.7014 178.487 75.5059C178.48 74.8173 178.481 74.1288 178.481 73.44V73.4399V73.4398V73.4397V73.4396V73.4395V73.4394V73.4393C178.481 73.2036 178.482 72.9678 178.482 72.7321C178.482 72.4567 178.509 72.4291 178.772 72.4283C178.818 72.4283 178.865 72.429 178.912 72.4296C179.005 72.4309 179.099 72.4322 179.192 72.4283C179.35 72.4202 179.407 72.494 179.406 72.6482C179.404 72.8498 179.405 73.0515 179.405 73.2531V73.2532V73.2533V73.2534V73.2535V73.2536V73.2537V73.2538V73.2539V73.254V73.2541V73.2542C179.406 73.4987 179.406 73.743 179.403 73.9867C179.401 74.1087 179.427 74.1576 179.558 74.1503C179.688 74.1433 179.817 74.1447 179.947 74.1461H179.948C180.035 74.147 180.121 74.1479 180.208 74.1464C180.334 74.1464 180.397 74.1965 180.394 74.3297C180.392 74.4381 180.393 74.5271 180.394 74.6003C180.396 74.7717 180.397 74.8559 180.355 74.8964C180.315 74.9355 180.235 74.934 180.079 74.9311C180.013 74.9298 179.935 74.9284 179.84 74.9295L179.824 74.9297C179.406 74.9348 179.406 74.9348 179.406 75.3711L179.405 76.0921ZM186.945 72.7103V74.9811L186.952 74.9819C186.952 75.2031 186.952 75.4243 186.951 75.6453C186.949 76.1756 186.947 76.7054 186.956 77.2348C186.962 77.6163 187.089 77.9585 187.421 78.1838C187.814 78.4512 188.256 78.4352 188.697 78.4193L188.765 78.4168C188.847 78.413 188.882 78.3485 188.863 78.2615L188.85 78.2028L188.831 78.1127C188.816 78.0427 188.802 77.9727 188.786 77.9029C188.717 77.5833 188.711 77.5786 188.384 77.5689C188.042 77.5588 187.882 77.4077 187.878 77.0581C187.874 76.693 187.873 76.3277 187.873 75.9625V75.9619C187.873 75.661 187.873 75.3601 187.87 75.0592C187.869 74.9586 187.896 74.924 187.998 74.9271C188.111 74.9307 188.223 74.9299 188.336 74.9292C188.446 74.9285 188.557 74.9277 188.666 74.931C188.801 74.9349 188.85 74.8747 188.846 74.7457C188.843 74.6032 188.843 74.4606 188.846 74.3184C188.848 74.1949 188.791 74.1452 188.672 74.1452C188.59 74.147 188.508 74.1456 188.426 74.1443H188.425C188.297 74.1421 188.169 74.1399 188.042 74.1499C187.889 74.1607 187.867 74.104 187.87 73.9665C187.877 73.6566 187.876 73.3466 187.874 73.0367V73.0364C187.874 72.9192 187.874 72.8019 187.874 72.6847C187.874 72.5188 187.829 72.4089 187.633 72.4252C187.536 72.4333 187.438 72.4314 187.34 72.4296C187.297 72.4287 187.255 72.4279 187.212 72.4279C186.971 72.4291 186.945 72.454 186.945 72.7103ZM176.681 75.408V72.6932C176.681 72.4473 176.7 72.4291 176.943 72.4279C176.985 72.4279 177.027 72.4283 177.069 72.4287C177.174 72.4296 177.278 72.4306 177.382 72.4256C177.528 72.4186 177.589 72.4947 177.588 72.6357V72.7523V78.0661C177.588 78.4009 177.568 78.4204 177.248 78.4207H176.981C176.72 78.4207 176.68 78.3819 176.68 78.1236C176.681 77.2183 176.681 76.3131 176.681 75.408ZM186.046 78.1609V76.2805C186.047 75.6603 186.048 75.0398 186.047 74.4191C186.047 74.1837 186.01 74.1449 185.787 74.1449H185.424C185.178 74.146 185.143 74.1826 185.143 74.4401V77.5398V78.2002C185.144 78.3501 185.215 78.4255 185.367 78.4204C185.461 78.4181 185.555 78.4189 185.648 78.4196C185.695 78.42 185.741 78.4204 185.788 78.4204C186 78.4185 186.046 78.3742 186.046 78.1609ZM180.924 66.4958C180.787 66.3443 180.767 66.1943 180.889 66.0141C181.221 65.5262 181.225 65.5216 181.708 65.8517C181.725 65.8631 181.742 65.8736 181.759 65.8842C181.774 65.893 181.788 65.9018 181.803 65.9112C181.87 65.9556 181.916 65.9852 181.961 66.0141C181.975 66.0231 181.99 66.0318 182.007 66.0412C182.043 66.0619 182.085 66.0863 182.138 66.1263C182.259 66.1929 182.291 66.2178 182.368 66.2764L182.411 66.3089H182.409C182.527 66.3788 182.585 66.4177 182.682 66.4958L182.739 66.5324C182.86 66.6091 182.951 66.6675 183.1 66.7778C183.121 66.7931 183.141 66.8062 183.161 66.8187C183.232 66.8641 183.288 66.9006 183.291 66.9999V67.002C183.318 67.0665 183.329 67.1303 183.29 67.1941V67.1942C183.248 67.322 183.168 67.4259 183.089 67.529L183.088 67.5291C183.071 67.5513 183.054 67.5734 183.038 67.5958C182.944 67.7221 182.817 67.7341 182.683 67.6615C182.638 67.6371 182.594 67.6103 182.55 67.5835C182.529 67.5705 182.508 67.5576 182.487 67.5449C182.421 67.5132 182.358 67.4741 182.3 67.4284L182.138 67.3119C182.117 67.2986 182.096 67.2852 182.074 67.2719V67.2718C182.033 67.246 181.992 67.2201 181.954 67.1945C181.954 67.1945 181.935 67.1751 181.897 67.1557L181.858 67.1324C181.855 67.1306 181.854 67.1304 181.854 67.1302H181.853C181.852 67.1298 181.851 67.1288 181.839 67.117V67.1169C181.839 67.1169 181.792 67.0895 181.782 67.078C181.729 67.029 181.657 66.9895 181.592 66.9531C181.549 66.9293 181.508 66.9068 181.476 66.8838C181.409 66.8352 181.352 66.7964 181.295 66.7575C181.237 66.7187 181.18 66.6799 181.113 66.6313C181.037 66.5925 180.98 66.5446 180.924 66.4958ZM177.898 68.9666V69.7046C177.898 69.7604 177.899 69.8161 177.9 69.8718V69.8719V69.872C177.901 69.9644 177.903 70.0565 177.9 70.1478C177.881 70.7793 177.928 70.7788 178.399 70.7735C178.446 70.773 178.497 70.7724 178.553 70.7724C178.72 70.7724 178.818 70.6707 178.82 70.5114C178.828 69.9757 178.826 69.4401 178.82 68.9044C178.818 68.7265 178.7 68.6244 178.537 68.6345C178.483 68.6377 178.426 68.6325 178.368 68.6273C178.188 68.6112 178.004 68.5947 177.904 68.8322C177.892 68.8598 177.894 68.8938 177.897 68.9275C177.897 68.9407 177.898 68.9539 177.898 68.9666ZM181.931 78.3532C181.999 78.2853 181.999 78.1486 181.999 77.8746C181.999 77.3587 181.981 77.3405 181.478 77.3405C181.465 77.3405 181.453 77.3401 181.44 77.3398C181.414 77.3391 181.389 77.3384 181.364 77.3405C181.18 77.3553 181.089 77.4477 181.082 77.6373C181.079 77.7268 181.08 77.8173 181.081 77.9078C181.081 77.9531 181.082 77.9984 181.082 78.0436C181.083 78.338 181.163 78.4184 181.456 78.4184C181.727 78.42 181.863 78.4207 181.931 78.3532ZM186.051 72.9713C186.051 73.491 186.051 73.4926 185.529 73.4922C185.196 73.4922 185.142 73.4378 185.142 73.1038V72.7367C185.145 72.5164 185.226 72.4322 185.438 72.4287H185.743C185.973 72.4314 186.049 72.5063 186.053 72.7394L186.052 72.7975C186.051 72.8554 186.051 72.9134 186.051 72.9713ZM178.358 63.0087C178.137 63.0109 177.918 62.9682 177.714 62.8833C177.509 62.7984 177.323 62.6729 177.167 62.5142C177.011 62.3555 176.888 62.1668 176.804 61.959C176.721 61.7513 176.679 61.5287 176.681 61.3043C176.681 60.3604 177.433 59.6122 178.374 59.6161C179.295 59.62 180.047 60.393 180.037 61.3225C180.036 61.5454 179.992 61.7659 179.907 61.9713C179.822 62.1768 179.698 62.3632 179.542 62.5198C179.386 62.6765 179.201 62.8003 178.998 62.8842C178.795 62.9681 178.577 63.0104 178.358 63.0087ZM179.051 61.3128C179.049 61.4512 179.008 61.5861 178.931 61.7006C178.854 61.8151 178.746 61.9041 178.62 61.9565C178.494 62.0089 178.356 62.0223 178.222 61.9951C178.088 61.9678 177.966 61.9012 177.869 61.8035C177.773 61.7057 177.707 61.5812 177.68 61.4456C177.652 61.3099 177.665 61.1691 177.716 61.0408C177.767 60.9125 177.855 60.8023 177.967 60.7241C178.079 60.6459 178.212 60.6032 178.348 60.6012C178.725 60.5946 179.051 60.9232 179.051 61.3128ZM173.512 67.3149C173.39 67.1347 173.41 66.9847 173.546 66.8332C173.603 66.7844 173.659 66.7365 173.736 66.6977C173.802 66.6492 173.86 66.6103 173.917 66.5715V66.5714C173.975 66.5326 174.032 66.4937 174.099 66.4452C174.13 66.4222 174.171 66.3997 174.214 66.3759C174.28 66.3395 174.351 66.3 174.405 66.251C174.415 66.2395 174.462 66.2121 174.462 66.2121C174.474 66.2002 174.475 66.1992 174.476 66.1988C174.476 66.1987 174.477 66.1986 174.477 66.1984C174.478 66.1982 174.479 66.1976 174.481 66.1966L174.519 66.1733C174.557 66.1539 174.577 66.1345 174.577 66.1345C174.614 66.1089 174.656 66.083 174.697 66.0572V66.0571C174.718 66.0437 174.74 66.0304 174.76 66.0171L174.922 65.9006C174.98 65.8549 175.043 65.8158 175.11 65.7841C175.131 65.7714 175.152 65.7585 175.173 65.7455C175.217 65.7187 175.26 65.6919 175.305 65.6675C175.44 65.5949 175.566 65.6069 175.66 65.7332C175.677 65.7556 175.694 65.7778 175.711 65.8V65.8001C175.791 65.9032 175.871 66.007 175.912 66.1348V66.1353C175.951 66.1987 175.941 66.2621 175.914 66.3263V66.3291C175.911 66.4284 175.854 66.4649 175.783 66.5103C175.764 66.5228 175.744 66.5359 175.723 66.5512C175.574 66.6615 175.482 66.7199 175.362 66.7966L175.305 66.8332C175.207 66.9113 175.15 66.9502 175.031 67.0201H175.034L174.991 67.0526C174.914 67.1112 174.881 67.1361 174.76 67.2027C174.708 67.2428 174.665 67.2671 174.629 67.2879C174.613 67.2973 174.598 67.3059 174.584 67.3149C174.539 67.3438 174.493 67.3734 174.425 67.4178C174.411 67.4272 174.396 67.436 174.382 67.4448C174.365 67.4554 174.348 67.4659 174.331 67.4773C173.848 67.8074 173.843 67.8028 173.512 67.3149Z" fill="#343434"/>
</g>
<defs>
<clipPath id="clip0_627_7352">
<rect width="191" height="80" fill="white" transform="translate(0.333496)"/>
</clipPath>
</defs>
</svg>
