<svg width="1920" height="1114" viewBox="0 0 1920 1114" fill="none" xmlns="http://www.w3.org/2000/svg">
<path opacity="0.5" d="M780.156 -148.496L698.953 -241.715M474.639 -361.761L-322.683 -1022.27L474.639 -361.761ZM609.378 -347.394L480.999 -491.026L609.378 -347.394ZM719.817 -397.987L517.863 -810.786L719.817 -397.987ZM868.629 -278.036L809.439 -578.798L868.629 -278.036ZM964.072 -335.992L990.481 -585.079L964.072 -335.992ZM1059.05 -392.78L1266.33 -1021.5L1059.05 -392.78ZM1158.44 -331.764L1614.93 -1021.5L1158.44 -331.764ZM1341.98 -379.298L1823.02 -835.558L1341.98 -379.298ZM1669.95 -445.219L2444.43 -925.779L1669.95 -445.219ZM1638.12 -300.084L2441.72 -653.827L1638.12 -300.084ZM1444.95 -117.374L2453.33 -378.576L1444.95 -117.374ZM1789.06 -69.7456L2236.56 -112.072L1789.06 -69.7456ZM1576.8 47.3096L2441.72 94.6542L1576.8 47.3096ZM1628.48 135.4L2175.66 228.267L1628.48 135.4ZM1789.44 304.611L2441.72 527.629L1789.44 304.611ZM1803.09 493.164L2441.72 844.708L1803.09 493.164ZM1239.85 270.147L2255.75 1112.88L1239.85 270.147ZM1262.1 404.318L1880.85 1112.88L1262.1 404.318ZM1131.01 405.366L1426.7 993.641L1131.01 405.366ZM977.151 274.357L1142.04 1112.88L977.151 274.357ZM898.02 349.129L827.608 1112.87L898.02 349.129ZM780.336 463.537L571.603 1112.88L780.336 463.537ZM738.501 309.913L341.672 917.865L738.501 309.913ZM413.437 499.927L-228.761 1112.87L413.437 499.927ZM377.555 356.252L-230.893 737.122L377.555 356.252ZM-25.3942 441.446L-342.769 583.48L-25.3942 441.446ZM84.6968 234.943L-533.332 390.648L84.6968 234.943ZM278.817 81.7139L-348.937 144.233L278.817 81.7139ZM103.596 -27.0496L-351.512 -52.7325L103.596 -27.0496ZM335.324 -80.89L-533.332 -226.61L335.324 -80.89ZM64.6716 -273.705L-425.013 -440.846L64.6716 -273.705ZM103.261 -427.631L-269.53 -632.973L103.261 -427.631ZM859.299 -128.733L779.581 -281.894L859.299 -128.733ZM894.523 -135.401L890.619 -155.352L894.523 -135.401ZM946.97 -137.506L948.024 -148.573L946.97 -137.506ZM951.916 -207.311L959.581 -266.53L951.916 -207.311ZM986.876 -171.034L1016.84 -263.248L986.876 -171.034ZM1049.54 -165.251L1113.76 -263.557L1049.54 -165.251ZM1139.14 -187.273L1280.03 -318.008L1139.14 -187.273ZM1184.27 -143.649L1302.79 -214.821L1184.27 -143.649ZM1380.41 -265.156L1591.16 -395.881L1380.41 -265.156ZM1094.14 -87.5406L1105.32 -94.4146L1094.14 -87.5406ZM1148.55 -81.6204L1550.52 -258.703L1148.55 -81.6204ZM1137.98 -37.7043L1233.37 -62.4935L1137.98 -37.7043ZM1349.49 -26.1302L1579.38 -46.8982L1349.49 -26.1302ZM1242.08 30.0387L1472.23 41.9136L1242.08 30.0387ZM1147.82 55.0944L1407.54 98.5036L1147.82 55.0944ZM1133.33 85.8555L1138.63 87.6513L1133.33 85.8555ZM1342.58 156.434L1584.48 237.805L1342.58 156.434ZM1108.24 115.809L1116.86 122.743L1108.24 115.809ZM1045.6 155.953L1066.31 179.659L1045.6 155.953ZM1351.25 250.152L1566.85 367.336L1351.25 250.152ZM1133.59 257.052L1196.5 326.144L1133.59 257.052ZM1010.26 168.137L1085.39 320.241L1010.26 168.137ZM956.012 177.211L957.389 184.162L956.012 177.211ZM915.638 187.479L906.56 259.544L915.638 187.479ZM875.156 172.536L868.042 201.871L875.156 172.536ZM830.555 317.431L803.092 393.44L830.555 317.431ZM792.217 141.475L576.717 348.544L792.217 141.475ZM761.388 118.962L595.162 224.521L761.388 118.962ZM565.483 178.474L217.149 333.456L565.483 178.474ZM723.865 69.4782L354.152 167.218L723.865 69.4782ZM714.104 36.8182L561.663 53.7969L714.104 36.8182ZM574.226 -2.81026L389.723 -12.3823L574.226 -2.81026ZM718.356 -15.0115L553.686 -42.6191L718.356 -15.0115ZM734.584 -48.3332L285.812 -201.236L734.584 -48.3332ZM757.292 -75.0128L734.884 -87.1626L757.292 -75.0128ZM614.169 -152.62L282.878 -330.579L614.169 -152.62ZM689.863 -183.166L621.092 -240.298L689.863 -183.166Z" stroke="white" stroke-opacity="0.8" stroke-width="2" stroke-miterlimit="10"/>
</svg>
