<svg width="278" height="260" viewBox="0 0 278 260" fill="none" xmlns="http://www.w3.org/2000/svg">
<path d="M115.888 122.193C115.888 122.193 116.31 123.508 117.303 127.188C118.296 130.868 120.347 133.042 124.225 132.551C125.318 132.412 126.194 132.173 126.849 131.83C126.636 131.118 126.416 130.405 126.19 129.694C126.186 129.681 126.182 129.669 126.179 129.656C125.349 127.046 124.437 124.455 123.44 121.988C123.128 121.263 122.797 120.507 122.452 119.724L115.888 122.193Z" fill="white"/>
<path d="M121.028 116.526L121.028 116.524L120.87 116.172L113.319 119.019L113.562 119.514L115.111 122.67L115.888 122.193L122.452 119.724C122 118.701 121.522 117.631 121.028 116.526Z" fill="white"/>
<path d="M105.784 87.2606C105.34 92.7461 105.923 102.374 106.224 103.559C107.738 109.314 110.701 118.076 113.247 119.046L113.319 119.019L113.304 118.988L120.847 116.119C115.475 104.088 108.349 87.9702 111.073 79.6879C108.159 80.8294 106.057 83.9016 105.784 87.2606Z" fill="white"/>
<path d="M142.587 66.0284C137.8 65.533 116.556 72.4453 116.556 72.4453C116.556 72.4453 115.431 73.9541 112.754 76.7796C111.993 77.585 111.442 78.5643 111.073 79.6879C108.349 87.9702 115.475 104.088 120.847 116.119L120.87 116.172L121.028 116.524L121.028 116.526C121.522 117.631 122 118.701 122.452 119.724C122.797 120.507 123.128 121.263 123.44 121.988C124.437 124.455 125.349 127.046 126.179 129.656L126.19 129.694C126.416 130.405 126.636 131.118 126.849 131.83C128.546 137.488 129.855 143.103 130.789 147.619C131.984 147.83 134.645 148.216 136.796 147.922C140.609 147.402 141.957 146.331 142.326 145.95L142.329 145.917C142.919 137.639 143.979 116.994 143.979 116.994C143.979 116.994 152.283 117.671 153.741 118.568C154.625 119.113 156.526 123.727 158.713 129.604C159.92 129.594 162.661 129.492 164.767 128.812C167.917 127.793 169.219 126.707 169.721 126.137C168.398 119.083 166.829 111.458 165.964 109.89C165.248 108.594 163.382 106.942 161.436 105.219C158.791 102.877 155.999 100.405 155.745 98.5195C155.462 96.4196 155.138 94.1335 154.757 91.7786C154.256 88.7305 153.277 83.6724 152.096 79.3098C151.294 76.5275 150.352 73.9617 149.233 71.8405C147.49 68.5347 145.32 66.3092 142.587 66.0284Z" fill="white"/>
<path d="M142.438 159.141L142.444 145.811C142.444 145.811 142.411 145.862 142.326 145.95C141.957 146.331 140.609 147.402 136.796 147.922C134.645 148.216 131.984 147.83 130.789 147.619C130.391 147.549 130.155 147.498 130.155 147.498C130.155 147.498 131.662 157.899 131.681 159.204C131.707 161.038 131.692 162.173 131.679 163.104C131.654 164.87 131.64 165.905 131.944 169.597L153.649 166.638C155.339 160.91 151.24 155.833 142.438 159.141Z" fill="white"/>
<path d="M172.33 138.73L170.009 125.733C170.009 125.733 169.944 125.885 169.721 126.137C169.219 126.707 167.917 127.793 164.767 128.812C162.661 129.492 159.92 129.594 158.713 129.604C158.325 129.607 158.096 129.601 158.096 129.601C158.096 129.601 161.403 139.467 161.648 140.738C162.652 145.91 162.277 145.407 163.712 150.831L184.754 144.023C185.453 138.127 180.497 133.921 172.33 138.73Z" fill="white"/>
<path d="M174.226 94.8323L174.528 93.9464L176.938 86.8638L177.432 85.4129L173.369 84.8216L173.345 84.8912C173.357 84.8987 173.369 84.9062 173.381 84.9137L170.222 94.2555L174.226 94.8323Z" fill="white"/>
<path d="M154.757 91.7786C160.248 93.6909 167.977 95.7547 170.194 94.34L170.222 94.2555L170.18 94.2494L173.345 84.8912C170.983 83.4217 160.294 81.0121 158.847 80.0679C154.301 77.1047 151.471 74.0291 149.236 71.8404C150.226 73.2018 151.217 76.0632 152.096 79.3098C153.231 83.2483 154.084 87.6205 154.757 91.7786Z" fill="white"/>
<path d="M176.938 86.8638L174.528 93.9464C174.528 93.9464 175.679 94.3345 179.201 95.5929C182.723 96.8514 185.754 96.4038 187.867 92.9705C189.981 89.5372 189.335 87.6134 185.772 87.2565C184.453 87.1263 182.417 87.6706 182.417 87.6706C182.417 87.6706 185.326 86.7611 184.924 85.1761C184.365 82.9825 179.292 86.3754 176.938 86.8638Z" fill="white"/>
<path d="M153.539 96.9818C153.665 97.4568 153.598 97.9732 153.352 98.4175C153.106 98.8617 152.702 99.1975 152.228 99.351L136.641 107.129C136.169 107.278 135.667 107.235 135.246 107.007C134.824 106.779 134.517 106.386 134.391 105.914L130.076 89.6168C129.952 89.143 130.021 88.6288 130.267 88.1868C130.513 87.7448 130.916 87.4111 131.388 87.2587L146.974 79.4815C147.208 79.4054 147.453 79.3764 147.693 79.396C147.934 79.4157 148.165 79.4837 148.375 79.5962C148.585 79.7086 148.769 79.8633 148.917 80.0514C149.064 80.2395 149.172 80.4573 149.235 80.6924L153.539 96.9818Z" fill="#FF98A5"/>
<path d="M111.093 77.6691C111.093 77.6691 98.1568 84.0104 102.597 99.3037C105.815 110.387 106.775 117.639 113.562 119.514L113.319 119.019L113.247 119.046C110.701 118.076 107.738 109.314 106.224 103.559C105.923 102.374 105.34 92.7461 105.784 87.2606C106.057 83.9016 108.159 80.8294 111.073 79.6879C111.442 78.5643 111.993 77.585 112.754 76.7796C112.335 76.9282 111.473 77.4345 111.093 77.6691Z" fill="#FF98A5"/>
<path d="M111.093 77.6691L111.21 77.9405C111.219 77.936 111.228 77.931 111.237 77.9255L111.093 77.6691ZM102.597 99.3037L102.312 99.404L102.597 99.3037ZM158.847 80.0679L159.016 79.8104L159.016 79.8103L158.847 80.0679ZM170.194 94.34L170.341 94.5941C170.403 94.5545 170.45 94.4943 170.474 94.4244L170.194 94.34ZM173.381 84.9137L173.661 84.9981C173.705 84.8667 173.659 84.726 173.548 84.655L173.381 84.9137ZM170.18 94.2494L169.9 94.1649C169.871 94.2492 169.879 94.3401 169.922 94.4138C169.965 94.4875 170.038 94.5369 170.123 94.5491L170.18 94.2494ZM174.226 94.8323L174.169 95.132C174.314 95.1528 174.457 95.0614 174.506 94.9173L174.226 94.8323ZM177.432 85.4129L177.712 85.4979C177.74 85.4136 177.732 85.3227 177.69 85.2489C177.647 85.175 177.574 85.1255 177.489 85.1132L177.432 85.4129ZM173.369 84.8216L173.426 84.522C173.281 84.5009 173.137 84.5926 173.089 84.7372L173.369 84.8216ZM185.772 87.2565L185.817 86.9552L185.817 86.9552L185.772 87.2565ZM182.417 87.6706L182.344 87.3816C182.187 87.4306 182.091 87.5962 182.127 87.7544C182.163 87.9127 182.319 88.0054 182.477 87.9631L182.417 87.6706ZM184.924 85.1761L185.211 85.0853L185.211 85.0852L184.924 85.1761ZM176.938 86.8638L176.658 86.7788L176.938 86.8638ZM155.745 98.5195L156.039 98.4624L156.039 98.4623L155.745 98.5195ZM142.587 66.0284L142.541 66.3295L142.541 66.3295L142.587 66.0284ZM116.556 72.4453L116.48 72.1574C116.418 72.1776 116.363 72.2173 116.323 72.2707L116.556 72.4453ZM123.44 121.988L123.716 121.86L123.713 121.854L123.44 121.988ZM142.329 145.917L142.625 145.923L142.625 145.923L142.329 145.917ZM143.979 116.994L144.018 116.692C143.936 116.686 143.853 116.715 143.789 116.772C143.725 116.829 143.687 116.91 143.682 116.995L143.979 116.994ZM153.741 118.568L153.905 118.307L153.741 118.568ZM165.964 109.89L165.703 110.049L165.964 109.89ZM172.33 138.73L172.038 138.8C172.054 138.894 172.114 138.971 172.199 139.009C172.284 139.046 172.384 139.039 172.468 138.99L172.33 138.73ZM170.009 125.733L170.302 125.663C170.279 125.534 170.175 125.44 170.046 125.431C169.917 125.422 169.793 125.5 169.739 125.623L170.009 125.733ZM164.767 128.812L164.843 129.1L164.843 129.1L164.767 128.812ZM158.096 129.601L158.12 129.298C158.021 129.295 157.924 129.344 157.862 129.427C157.801 129.511 157.783 129.618 157.814 129.712L158.096 129.601ZM161.648 140.738L161.357 140.812L161.357 140.813L161.648 140.738ZM163.712 150.831L163.425 150.924C163.467 151.083 163.629 151.17 163.787 151.119L163.712 150.831ZM184.754 144.023L184.829 144.311C184.947 144.273 185.034 144.167 185.048 144.043L184.754 144.023ZM142.438 159.141L142.141 159.157C142.141 159.253 142.186 159.341 142.263 159.394C142.339 159.447 142.437 159.458 142.527 159.424L142.438 159.141ZM142.444 145.811L142.741 145.795C142.741 145.663 142.657 145.551 142.532 145.518C142.408 145.486 142.274 145.54 142.2 145.653L142.444 145.811ZM136.796 147.922L136.772 147.622L136.772 147.622L136.796 147.922ZM130.155 147.498L130.232 147.202C130.135 147.181 130.032 147.211 129.958 147.283C129.883 147.355 129.847 147.458 129.861 147.558L130.155 147.498ZM131.681 159.204L131.384 159.225L131.384 159.225L131.681 159.204ZM131.944 169.597L131.649 169.639C131.662 169.804 131.805 169.919 131.968 169.897L131.944 169.597ZM153.649 166.638L153.672 166.938C153.793 166.921 153.897 166.831 153.932 166.71L153.649 166.638ZM161.436 105.219L161.234 105.452L161.436 105.219ZM142.326 145.95L142.532 146.156L142.532 146.156L142.326 145.95ZM121.028 116.524L121.299 116.387L121.299 116.387L121.028 116.524ZM131.679 163.104L131.976 163.092L131.679 163.104ZM158.713 129.604L158.699 129.907L158.713 129.604ZM169.721 126.137L169.937 126.332L169.721 126.137ZM105.784 87.2606L105.489 87.2521L105.784 87.2606ZM106.224 103.559L105.936 103.65L105.937 103.652L106.224 103.559ZM113.247 119.046L113.13 119.33C113.195 119.355 113.269 119.355 113.336 119.329L113.247 119.046ZM113.304 118.988L113.213 118.705C113.131 118.736 113.065 118.801 113.031 118.884C112.997 118.966 112.999 119.058 113.037 119.135L113.304 118.988ZM115.111 122.67L114.844 122.817C114.879 122.89 114.943 122.943 115.021 122.963C115.098 122.984 115.182 122.971 115.254 122.927L115.111 122.67ZM115.888 122.193L115.799 121.909C115.78 121.916 115.762 121.925 115.745 121.936L115.888 122.193ZM124.225 132.551L124.204 132.251L124.225 132.551ZM122.452 119.724L122.723 119.588L122.452 119.724ZM121.028 116.526L120.757 116.663L120.757 116.663L121.028 116.526ZM126.19 129.694L126.473 129.586L126.19 129.694ZM149.233 71.8405L149.497 71.6861L149.233 71.8405ZM149.236 71.8404L149.448 71.6167C149.339 71.5104 149.164 71.5116 149.046 71.6194C148.927 71.7273 148.905 71.9056 148.994 72.029L149.236 71.8404ZM123.065 125.573C122.97 125.442 122.785 125.421 122.651 125.525C122.517 125.629 122.486 125.819 122.581 125.95L123.065 125.573ZM125.543 132.555C125.694 132.611 125.868 132.528 125.931 132.37C125.994 132.213 125.922 132.04 125.771 131.984L125.543 132.555ZM121.374 126.537C121.306 126.389 121.13 126.331 120.981 126.409C120.832 126.486 120.766 126.669 120.833 126.817L121.374 126.537ZM122.662 132.85C122.79 132.948 122.977 132.917 123.08 132.782C123.183 132.646 123.163 132.457 123.036 132.359L122.662 132.85ZM119.707 127.034C119.67 126.874 119.51 126.782 119.35 126.828C119.191 126.875 119.092 127.043 119.129 127.204L119.707 127.034ZM147.897 79.7197C148.03 79.8093 148.216 79.7675 148.311 79.6264C148.406 79.4853 148.376 79.2983 148.242 79.2087L147.897 79.7197ZM143.887 79.6273L144.006 79.8977L144.006 79.8977L143.887 79.6273ZM128.157 87.4732L128.232 87.7612C128.247 87.7564 128.261 87.7506 128.275 87.7436L128.157 87.4732ZM126.679 90.1407L126.392 90.2341L126.392 90.2343L126.679 90.1407ZM131.534 108.478L131.821 108.384L131.821 108.384L131.534 108.478ZM134.078 109.843L134.153 110.131C134.168 110.126 134.182 110.12 134.196 110.114L134.078 109.843ZM151.616 101.097L151.54 100.809C151.525 100.814 151.511 100.82 151.497 100.827L151.616 101.097ZM153.663 98.4611C153.737 98.3079 153.678 98.1296 153.531 98.0629C153.385 97.9962 153.206 98.0664 153.133 98.2196L153.663 98.4611ZM153.539 96.9818L153.252 97.0752L153.253 97.0754L153.539 96.9818ZM152.228 99.351L152.152 99.0631C152.138 99.0678 152.123 99.0737 152.11 99.0806L152.228 99.351ZM136.641 107.129L136.715 107.417C136.73 107.412 136.745 107.406 136.76 107.399L136.641 107.129ZM134.391 105.914L134.104 106.007L134.104 106.008L134.391 105.914ZM130.076 89.6168L129.788 89.7092L129.789 89.7104L130.076 89.6168ZM131.388 87.2587L131.464 87.5469C131.479 87.5421 131.493 87.5362 131.507 87.5292L131.388 87.2587ZM146.974 79.4815L146.898 79.1936C146.883 79.1983 146.869 79.2041 146.855 79.2111L146.974 79.4815ZM149.235 80.6924L149.522 80.5989L149.521 80.5986L149.235 80.6924ZM132.757 109.191C132.642 109.316 132.644 109.508 132.762 109.618C132.879 109.728 133.067 109.715 133.182 109.589L132.757 109.191ZM135.414 107.138C135.529 107.012 135.526 106.821 135.409 106.711C135.292 106.601 135.104 106.614 134.989 106.739L135.414 107.138ZM126.905 88.3191C126.742 88.3119 126.597 88.4414 126.581 88.6084C126.565 88.7754 126.684 88.9166 126.847 88.9238L126.905 88.3191ZM130.035 89.0648C130.198 89.072 130.343 88.9425 130.359 88.7755C130.375 88.6085 130.256 88.4673 130.093 88.46L130.035 89.0648ZM111.093 77.6691C110.977 77.3976 110.977 77.3977 110.976 77.3978C110.976 77.3979 110.976 77.3981 110.976 77.3982C110.975 77.3985 110.974 77.3989 110.973 77.3994C110.971 77.4004 110.969 77.4017 110.965 77.4035C110.958 77.407 110.948 77.4121 110.935 77.4187C110.909 77.4321 110.871 77.4517 110.823 77.4777C110.725 77.5298 110.585 77.6075 110.408 77.7114C110.056 77.9192 109.559 78.2323 108.978 78.6559C107.816 79.5026 106.313 80.7941 104.95 82.5734C102.214 86.1444 100.062 91.6563 102.312 99.404L102.882 99.2034C100.691 91.6578 102.788 86.3524 105.41 82.9294C106.726 81.2117 108.18 79.9621 109.305 79.1418C109.867 78.732 110.347 78.4301 110.684 78.2314C110.853 78.1321 110.986 78.0586 111.076 78.0103C111.121 77.9862 111.155 77.9683 111.178 77.9567C111.189 77.9509 111.198 77.9467 111.203 77.944C111.206 77.9426 111.208 77.9417 111.209 77.9411C111.209 77.9408 111.21 77.9406 111.21 77.9405C111.21 77.9405 111.21 77.9405 111.21 77.9404C111.21 77.9405 111.21 77.9405 111.093 77.6691ZM174.506 94.9173L177.712 85.4979L177.152 85.3279L173.947 94.7473L174.506 94.9173ZM177.489 85.1132L173.426 84.522L173.311 85.1213L177.374 85.7126L177.489 85.1132ZM174.528 93.9464C174.421 94.2343 174.421 94.2343 174.421 94.2343C174.421 94.2343 174.421 94.2343 174.421 94.2343C174.421 94.2343 174.421 94.2343 174.421 94.2344C174.421 94.2344 174.421 94.2345 174.422 94.2346C174.422 94.2347 174.423 94.235 174.424 94.2354C174.426 94.2361 174.43 94.2373 174.434 94.2388C174.444 94.2419 174.457 94.2467 174.477 94.2531C174.515 94.2661 174.573 94.2861 174.654 94.3141C174.817 94.3699 175.07 94.4576 175.434 94.5847C176.161 94.8387 177.329 95.2501 179.089 95.8792L179.313 95.3067C177.551 94.6773 176.382 94.2654 175.654 94.0109C175.289 93.8836 175.035 93.7956 174.871 93.7394C174.79 93.7113 174.731 93.6911 174.692 93.6779C174.673 93.6714 174.658 93.6665 174.649 93.6633C174.644 93.6617 174.641 93.6605 174.638 93.6597C174.637 93.6593 174.636 93.659 174.636 93.6588C174.635 93.6587 174.635 93.6587 174.635 93.6586C174.635 93.6586 174.635 93.6586 174.635 93.6585C174.635 93.6585 174.635 93.6585 174.635 93.6585C174.635 93.6585 174.635 93.6585 174.528 93.9464ZM179.089 95.8792C180.879 96.5188 182.58 96.7384 184.121 96.334C185.673 95.9266 187.023 94.8966 188.116 93.1211L187.618 92.8199C186.598 94.4776 185.375 95.3881 184.003 95.7483C182.62 96.1113 181.044 95.9255 179.313 95.3067L179.089 95.8792ZM188.116 93.1211C189.18 91.3933 189.621 89.9387 189.228 88.8424C188.827 87.725 187.623 87.1362 185.817 86.9552L185.727 87.5577C187.484 87.7337 188.385 88.2852 188.669 89.0773C188.961 89.8905 188.668 91.1144 187.618 92.8199L188.116 93.1211ZM185.817 86.9552C185.115 86.886 184.243 86.9959 183.564 87.1166C183.221 87.1776 182.92 87.2427 182.705 87.2926C182.597 87.3176 182.51 87.3388 182.451 87.3538C182.421 87.3613 182.397 87.3673 182.381 87.3715C182.373 87.3735 182.367 87.3751 182.363 87.3763C182.361 87.3768 182.359 87.3773 182.358 87.3776C182.358 87.3777 182.357 87.3778 182.357 87.3779C182.357 87.378 182.356 87.378 182.356 87.378C182.356 87.378 182.356 87.3781 182.356 87.3781C182.356 87.3781 182.356 87.3781 182.417 87.6706C182.477 87.9631 182.477 87.9631 182.477 87.9631C182.477 87.9631 182.477 87.9631 182.477 87.9631C182.477 87.9631 182.477 87.9631 182.477 87.9631C182.477 87.963 182.477 87.963 182.478 87.9628C182.479 87.9626 182.48 87.9623 182.482 87.9618C182.485 87.9609 182.491 87.9595 182.498 87.9576C182.512 87.9538 182.534 87.9482 182.563 87.9411C182.619 87.9269 182.702 87.9066 182.806 87.8825C183.013 87.8344 183.304 87.7716 183.635 87.7128C184.304 87.5939 185.109 87.4967 185.727 87.5577L185.817 86.9552ZM182.417 87.6706C182.489 87.9596 182.489 87.9595 182.489 87.9595C182.489 87.9595 182.489 87.9595 182.49 87.9594C182.49 87.9594 182.49 87.9593 182.49 87.9592C182.491 87.959 182.492 87.9588 182.492 87.9585C182.494 87.9579 182.497 87.9571 182.5 87.9561C182.506 87.9541 182.515 87.9511 182.527 87.9473C182.55 87.9396 182.583 87.9284 182.624 87.9137C182.707 87.8843 182.824 87.8407 182.963 87.7834C183.239 87.6694 183.608 87.4984 183.967 87.273C184.322 87.0497 184.688 86.7601 184.94 86.4015C185.199 86.033 185.338 85.5851 185.211 85.0853L184.636 85.2668C184.71 85.5595 184.637 85.8197 184.464 86.0675C184.283 86.3252 183.997 86.5602 183.676 86.7624C183.357 86.9625 183.023 87.118 182.767 87.224C182.639 87.2768 182.532 87.3167 182.457 87.3432C182.42 87.3564 182.391 87.3663 182.371 87.3727C182.362 87.3759 182.354 87.3783 182.35 87.3798C182.347 87.3805 182.346 87.381 182.345 87.3814C182.344 87.3815 182.344 87.3816 182.344 87.3817C182.344 87.3817 182.344 87.3817 182.344 87.3817C182.344 87.3817 182.344 87.3817 182.344 87.3817C182.344 87.3817 182.344 87.3816 182.417 87.6706ZM185.211 85.0852C185.124 84.7444 184.942 84.492 184.676 84.3348C184.418 84.1823 184.105 84.1336 183.779 84.1432C183.133 84.162 182.33 84.4137 181.512 84.7322C180.689 85.0524 179.803 85.4596 178.997 85.8079C178.179 86.1618 177.448 86.4525 176.894 86.5674L176.982 87.1603C177.605 87.031 178.391 86.7144 179.203 86.3633C180.028 86.0066 180.887 85.6111 181.697 85.2962C182.51 84.9796 183.228 84.7638 183.764 84.7482C184.028 84.7405 184.222 84.7828 184.358 84.8627C184.485 84.9379 184.583 85.0594 184.636 85.2669L185.211 85.0852ZM176.658 86.7788L174.248 93.8614L174.808 94.0314L177.218 86.9488L176.658 86.7788ZM142.633 65.7272C141.999 65.6616 141.115 65.7196 140.07 65.8619C139.021 66.005 137.79 66.236 136.453 66.5261C133.78 67.1064 130.669 67.9259 127.712 68.7597C124.754 69.5937 121.946 70.443 119.878 71.0838C118.844 71.4042 117.995 71.6726 117.404 71.8608C117.108 71.9549 116.878 72.0291 116.721 72.0797C116.642 72.105 116.582 72.1244 116.541 72.1375C116.521 72.1441 116.506 72.149 116.496 72.1524C116.49 72.154 116.487 72.1553 116.484 72.1562C116.483 72.1566 116.482 72.1569 116.481 72.1571C116.481 72.1572 116.48 72.1573 116.48 72.1574C116.48 72.1574 116.48 72.1574 116.556 72.4453C116.632 72.7332 116.632 72.7332 116.632 72.7331C116.632 72.7331 116.633 72.733 116.633 72.7329C116.634 72.7327 116.634 72.7324 116.636 72.732C116.638 72.7312 116.642 72.7299 116.647 72.7283C116.657 72.725 116.673 72.72 116.693 72.7135C116.733 72.7005 116.793 72.6812 116.871 72.656C117.027 72.6056 117.258 72.5317 117.552 72.4377C118.142 72.2499 118.99 71.9821 120.022 71.6622C122.087 71.0224 124.889 70.1746 127.841 69.3425C130.793 68.5101 133.89 67.6944 136.546 67.1179C137.875 66.8296 139.089 66.602 140.117 66.4618C141.151 66.321 141.978 66.2712 142.541 66.3295L142.633 65.7272ZM116.556 72.4453C116.323 72.2707 116.323 72.2706 116.323 72.2706C116.323 72.2706 116.323 72.2706 116.323 72.2706C116.323 72.2706 116.323 72.2706 116.323 72.2707C116.323 72.2708 116.323 72.271 116.323 72.2713C116.322 72.2718 116.322 72.2728 116.321 72.2741C116.319 72.2767 116.316 72.2808 116.311 72.2863C116.303 72.2974 116.29 72.3143 116.273 72.3371C116.238 72.3825 116.184 72.4512 116.112 72.5427C115.966 72.7258 115.744 73.0002 115.438 73.3629C114.826 74.0884 113.88 75.1673 112.546 76.5756L112.962 76.9836C114.305 75.5664 115.259 74.4781 115.879 73.7428C116.189 73.3752 116.416 73.0958 116.565 72.9077C116.64 72.8136 116.695 72.7424 116.732 72.6943C116.751 72.6702 116.764 72.652 116.774 72.6396C116.779 72.6334 116.782 72.6287 116.785 72.6254C116.786 72.6238 116.787 72.6225 116.787 72.6216C116.788 72.6212 116.788 72.6208 116.788 72.6205C116.788 72.6204 116.788 72.6203 116.789 72.6202C116.789 72.6202 116.789 72.6201 116.789 72.6201C116.789 72.62 116.789 72.62 116.556 72.4453ZM142.625 145.923C142.92 141.781 143.333 134.547 143.671 128.352C143.841 125.253 143.992 122.414 144.1 120.349C144.155 119.316 144.198 118.477 144.228 117.897C144.243 117.606 144.255 117.381 144.263 117.227C144.267 117.151 144.27 117.092 144.272 117.053C144.273 117.033 144.274 117.018 144.274 117.008C144.275 117.003 144.275 117 144.275 116.997C144.275 116.996 144.275 116.995 144.275 116.994C144.275 116.994 144.275 116.994 144.275 116.994C144.275 116.993 144.275 116.993 143.979 116.994C143.682 116.995 143.682 116.995 143.682 116.995C143.682 116.995 143.682 116.995 143.682 116.996C143.682 116.996 143.682 116.997 143.682 116.998C143.682 117.001 143.682 117.005 143.681 117.01C143.681 117.02 143.68 117.035 143.679 117.054C143.677 117.093 143.674 117.152 143.67 117.229C143.662 117.382 143.651 117.608 143.636 117.898C143.605 118.478 143.562 119.317 143.507 120.349C143.399 122.414 143.248 125.253 143.079 128.351C142.74 134.547 142.327 141.776 142.032 145.912L142.625 145.923ZM143.979 116.994C143.939 117.296 143.939 117.296 143.939 117.296C143.939 117.296 143.939 117.296 143.939 117.296C143.94 117.296 143.94 117.296 143.94 117.296C143.941 117.296 143.943 117.296 143.945 117.296C143.949 117.297 143.955 117.297 143.962 117.298C143.978 117.299 144.001 117.301 144.032 117.303C144.093 117.309 144.182 117.316 144.297 117.326C144.526 117.347 144.855 117.376 145.255 117.415C146.055 117.492 147.136 117.605 148.261 117.745C149.388 117.886 150.556 118.053 151.53 118.241C152.018 118.335 152.453 118.434 152.809 118.535C153.171 118.638 153.429 118.738 153.578 118.83L153.905 118.307C153.689 118.174 153.369 118.057 152.997 117.951C152.62 117.844 152.167 117.742 151.671 117.646C150.679 117.455 149.497 117.285 148.365 117.144C147.232 117.003 146.146 116.89 145.343 116.813C144.941 116.774 144.61 116.744 144.38 116.723C144.265 116.713 144.174 116.705 144.113 116.7C144.082 116.698 144.058 116.696 144.043 116.694C144.035 116.694 144.029 116.693 144.025 116.693C144.023 116.693 144.021 116.693 144.02 116.692C144.019 116.692 144.019 116.692 144.019 116.692C144.019 116.692 144.018 116.692 144.018 116.692C144.018 116.692 144.018 116.692 143.979 116.994ZM172.622 138.66L170.302 125.663L169.717 125.803L172.038 138.8L172.622 138.66ZM158.096 129.601C157.814 129.712 157.814 129.712 157.814 129.712C157.814 129.712 157.814 129.713 157.815 129.713C157.815 129.713 157.815 129.713 157.815 129.714C157.815 129.715 157.816 129.717 157.817 129.719C157.818 129.724 157.821 129.731 157.824 129.74C157.83 129.759 157.839 129.787 157.852 129.823C157.876 129.896 157.911 130.002 157.957 130.138C158.048 130.411 158.178 130.801 158.335 131.273C158.648 132.218 159.069 133.49 159.498 134.802C159.926 136.115 160.362 137.466 160.706 138.568C161.053 139.679 161.299 140.515 161.357 140.812L161.94 140.665C161.874 140.326 161.615 139.452 161.273 138.356C160.928 137.251 160.491 135.897 160.062 134.583C159.633 133.27 159.212 131.996 158.898 131.051C158.741 130.579 158.611 130.188 158.52 129.916C158.475 129.779 158.439 129.673 158.415 129.6C158.402 129.564 158.393 129.536 158.387 129.517C158.384 129.508 158.381 129.501 158.38 129.496C158.379 129.494 158.378 129.492 158.378 129.491C158.378 129.49 158.378 129.49 158.377 129.489C158.377 129.489 158.377 129.489 158.377 129.489C158.377 129.489 158.377 129.489 158.096 129.601ZM161.357 140.813C162.355 145.955 161.988 145.489 163.425 150.924L163.999 150.737C162.567 145.324 162.949 145.864 161.94 140.664L161.357 140.813ZM163.787 151.119L184.829 144.311L184.678 143.735L163.636 150.543L163.787 151.119ZM185.048 144.043C185.409 141.002 184.313 138.348 182.018 137.093C179.726 135.841 176.329 136.034 172.192 138.47L172.468 138.99C176.498 136.617 179.663 136.509 181.716 137.63C183.766 138.751 184.798 141.148 184.459 144.003L185.048 144.043ZM142.735 159.124L142.741 145.795L142.147 145.828L142.141 159.157L142.735 159.124ZM130.155 147.498C129.861 147.558 129.861 147.558 129.861 147.558C129.861 147.558 129.861 147.558 129.861 147.559C129.862 147.559 129.862 147.559 129.862 147.56C129.862 147.561 129.862 147.563 129.863 147.566C129.863 147.571 129.864 147.578 129.866 147.588C129.869 147.608 129.873 147.637 129.878 147.675C129.889 147.751 129.906 147.864 129.926 148.007C129.967 148.294 130.026 148.705 130.097 149.203C130.239 150.198 130.427 151.539 130.617 152.92C130.806 154.301 130.996 155.722 131.14 156.879C131.285 158.045 131.379 158.92 131.384 159.225L131.977 159.183C131.972 158.836 131.872 157.921 131.729 156.77C131.585 155.61 131.395 154.186 131.205 152.804C131.015 151.421 130.826 150.08 130.685 149.084C130.614 148.586 130.555 148.175 130.514 147.888C130.493 147.744 130.477 147.632 130.466 147.555C130.46 147.517 130.456 147.487 130.453 147.468C130.452 147.458 130.451 147.45 130.45 147.445C130.45 147.443 130.449 147.441 130.449 147.44C130.449 147.439 130.449 147.439 130.449 147.438C130.449 147.438 130.449 147.438 130.449 147.438C130.449 147.438 130.449 147.438 130.155 147.498ZM131.968 169.897L153.672 166.938L153.625 166.338L131.921 169.297L131.968 169.897ZM153.932 166.71C154.805 163.756 154.193 160.921 152.172 159.261C150.153 157.603 146.807 157.182 142.349 158.857L142.527 159.424C146.871 157.792 149.976 158.256 151.784 159.741C153.59 161.224 154.183 163.792 153.365 166.565L153.932 166.71ZM155.451 98.5766C155.523 99.1074 155.768 99.656 156.118 100.206C156.469 100.76 156.936 101.332 157.473 101.912C158.544 103.07 159.915 104.283 161.234 105.452L161.637 104.985C160.312 103.812 158.964 102.618 157.915 101.484C157.391 100.918 156.948 100.372 156.621 99.8583C156.293 99.3418 156.095 98.8744 156.039 98.4624L155.451 98.5766ZM161.234 105.452C162.209 106.315 163.156 107.153 163.949 107.937C164.745 108.725 165.366 109.439 165.703 110.049L166.224 109.731C165.846 109.046 165.176 108.285 164.374 107.492C163.568 106.695 162.609 105.846 161.637 104.985L161.234 105.452ZM142.032 145.912L142.03 145.944L142.622 145.955L142.625 145.923L142.032 145.912ZM142.121 145.743C141.817 146.056 140.544 147.108 136.772 147.622L136.819 148.222C140.675 147.696 142.096 146.605 142.532 146.156L142.121 145.743ZM136.772 147.622C134.671 147.909 132.049 147.532 130.855 147.321L130.723 147.917C131.92 148.129 134.619 148.522 136.819 148.222L136.772 147.622ZM142.532 146.156C142.581 146.105 142.617 146.063 142.643 146.031C142.656 146.015 142.666 146.002 142.673 145.992C142.677 145.987 142.68 145.982 142.682 145.978C142.684 145.977 142.685 145.975 142.686 145.973C142.686 145.973 142.687 145.972 142.687 145.971C142.687 145.971 142.688 145.971 142.688 145.97C142.688 145.97 142.688 145.97 142.688 145.97C142.688 145.97 142.688 145.97 142.688 145.97C142.688 145.97 142.688 145.97 142.688 145.97C142.688 145.97 142.688 145.97 142.444 145.811C142.2 145.653 142.2 145.653 142.2 145.653C142.2 145.653 142.2 145.653 142.2 145.653C142.2 145.653 142.2 145.653 142.2 145.653C142.2 145.653 142.2 145.653 142.2 145.653C142.2 145.652 142.201 145.652 142.201 145.652C142.201 145.651 142.201 145.651 142.202 145.651C142.202 145.65 142.202 145.65 142.203 145.649C142.203 145.649 142.203 145.649 142.202 145.65C142.201 145.652 142.197 145.657 142.191 145.665C142.178 145.68 142.156 145.707 142.121 145.743L142.532 146.156ZM132.24 169.555C131.937 165.873 131.951 164.848 131.976 163.092L131.382 163.116C131.357 164.892 131.344 165.936 131.649 169.639L132.24 169.555ZM131.976 163.092C131.989 162.159 132.004 161.022 131.977 159.183L131.384 159.225C131.41 161.055 131.395 162.186 131.382 163.116L131.976 163.092ZM130.155 147.498C130.079 147.794 130.079 147.794 130.079 147.794C130.079 147.794 130.079 147.794 130.079 147.794C130.079 147.794 130.079 147.794 130.079 147.794C130.079 147.794 130.079 147.794 130.079 147.794C130.079 147.794 130.079 147.794 130.08 147.794C130.08 147.794 130.081 147.795 130.082 147.795C130.084 147.795 130.087 147.796 130.091 147.797C130.098 147.798 130.109 147.801 130.124 147.804C130.153 147.81 130.196 147.818 130.251 147.829C130.361 147.851 130.522 147.882 130.723 147.917L130.855 147.321C130.658 147.286 130.502 147.256 130.395 147.235C130.341 147.224 130.3 147.216 130.272 147.21C130.259 147.207 130.248 147.205 130.242 147.204C130.238 147.203 130.236 147.203 130.234 147.202C130.233 147.202 130.233 147.202 130.232 147.202C130.232 147.202 130.232 147.202 130.232 147.202C130.232 147.202 130.232 147.202 130.232 147.202C130.232 147.202 130.232 147.202 130.232 147.202C130.232 147.202 130.232 147.202 130.232 147.202C130.232 147.202 130.232 147.202 130.155 147.498ZM142.622 145.955C142.623 145.944 142.624 145.934 142.625 145.923L142.032 145.912C142.032 145.923 142.031 145.933 142.03 145.944L142.622 145.955ZM158.991 129.483C157.897 126.544 156.873 123.914 156.01 121.95C155.579 120.969 155.186 120.148 154.843 119.535C154.672 119.229 154.51 118.97 154.359 118.767C154.213 118.57 154.061 118.403 153.905 118.307L153.578 118.83C153.643 118.87 153.744 118.967 153.879 119.149C154.01 119.325 154.159 119.562 154.324 119.857C154.654 120.446 155.038 121.248 155.466 122.222C156.322 124.171 157.341 126.787 158.434 129.725L158.991 129.483ZM164.692 128.524C162.634 129.189 159.932 129.292 158.726 129.301L158.699 129.907C159.907 129.897 162.689 129.796 164.843 129.1L164.692 128.524ZM158.726 129.301C158.535 129.303 158.383 129.302 158.279 129.301C158.227 129.3 158.187 129.299 158.16 129.299C158.146 129.299 158.136 129.298 158.13 129.298C158.126 129.298 158.124 129.298 158.122 129.298C158.122 129.298 158.121 129.298 158.121 129.298C158.12 129.298 158.12 129.298 158.12 129.298C158.12 129.298 158.12 129.298 158.12 129.298C158.12 129.298 158.12 129.298 158.12 129.298L158.12 129.298C158.12 129.298 158.12 129.298 158.096 129.601C158.071 129.903 158.071 129.903 158.071 129.903C158.071 129.903 158.071 129.903 158.071 129.903C158.072 129.903 158.072 129.903 158.072 129.903C158.072 129.903 158.072 129.903 158.072 129.903C158.072 129.903 158.072 129.903 158.072 129.903C158.073 129.903 158.074 129.903 158.075 129.903C158.077 129.903 158.079 129.903 158.083 129.903C158.091 129.904 158.101 129.904 158.116 129.904C158.144 129.905 158.186 129.905 158.239 129.906C158.347 129.907 158.503 129.908 158.699 129.907L158.726 129.301ZM170.009 125.733C169.739 125.623 169.739 125.623 169.739 125.623C169.739 125.623 169.739 125.623 169.739 125.623C169.739 125.623 169.739 125.623 169.739 125.623C169.739 125.623 169.739 125.622 169.74 125.622C169.74 125.622 169.74 125.621 169.74 125.621C169.74 125.62 169.741 125.62 169.741 125.619C169.741 125.619 169.741 125.618 169.741 125.619C169.741 125.62 169.739 125.623 169.736 125.628C169.731 125.639 169.72 125.658 169.702 125.685C169.667 125.74 169.606 125.828 169.505 125.942L169.937 126.332C170.059 126.194 170.141 126.079 170.195 125.995C170.222 125.953 170.241 125.919 170.255 125.893C170.262 125.881 170.267 125.87 170.271 125.861C170.273 125.857 170.275 125.853 170.276 125.85C170.277 125.849 170.278 125.847 170.278 125.846C170.279 125.845 170.279 125.845 170.279 125.844C170.279 125.844 170.279 125.844 170.279 125.844C170.279 125.843 170.28 125.843 170.28 125.843C170.28 125.843 170.28 125.843 170.28 125.843C170.28 125.843 170.28 125.843 170.009 125.733ZM169.505 125.942C169.052 126.456 167.806 127.516 164.692 128.524L164.843 129.1C168.027 128.07 169.385 126.959 169.937 126.332L169.505 125.942ZM170.013 126.065C169.351 122.536 168.627 118.863 167.96 115.874C167.627 114.38 167.307 113.054 167.016 112.001C166.727 110.959 166.459 110.157 166.224 109.731L165.703 110.049C165.901 110.407 166.153 111.146 166.444 112.195C166.731 113.234 167.049 114.549 167.381 116.038C168.046 119.018 168.768 122.684 169.43 126.209L170.013 126.065ZM105.489 87.2521C105.265 90.0139 105.3 93.807 105.428 97.0511C105.492 98.6748 105.579 100.165 105.67 101.324C105.759 102.47 105.853 103.323 105.936 103.65L106.512 103.469C106.444 103.202 106.352 102.408 106.262 101.244C106.172 100.093 106.085 98.611 106.021 96.9938C105.893 93.7563 105.859 89.9928 106.08 87.269L105.489 87.2521ZM105.937 103.652C106.696 106.538 107.819 110.18 109.074 113.227C109.701 114.75 110.364 116.132 111.036 117.199C111.698 118.251 112.402 119.053 113.13 119.33L113.364 118.762C112.819 118.554 112.198 117.897 111.541 116.853C110.894 115.825 110.244 114.475 109.623 112.967C108.381 109.952 107.266 106.336 106.511 103.466L105.937 103.652ZM115.888 122.193C115.606 122.301 115.606 122.301 115.606 122.301C115.606 122.301 115.606 122.301 115.606 122.301C115.606 122.301 115.606 122.301 115.606 122.301C115.606 122.301 115.606 122.301 115.606 122.301C115.606 122.302 115.606 122.303 115.607 122.304C115.607 122.307 115.609 122.31 115.61 122.315C115.613 122.326 115.618 122.341 115.625 122.362C115.638 122.405 115.658 122.47 115.686 122.56C115.74 122.739 115.824 123.017 115.938 123.411C116.167 124.197 116.521 125.444 117.017 127.283L117.59 127.093C117.093 125.251 116.738 124.001 116.508 123.21C116.393 122.814 116.309 122.534 116.254 122.352C116.226 122.261 116.205 122.194 116.192 122.15C116.185 122.129 116.18 122.112 116.176 122.101C116.174 122.096 116.173 122.092 116.172 122.089C116.172 122.088 116.171 122.087 116.171 122.086C116.171 122.085 116.171 122.085 116.171 122.085C116.171 122.085 116.171 122.085 116.171 122.085C116.171 122.085 116.171 122.085 116.171 122.085C116.171 122.085 116.171 122.085 115.888 122.193ZM117.017 127.283C117.521 129.153 118.304 130.679 119.486 131.671C120.677 132.671 122.241 133.105 124.246 132.851L124.204 132.251C122.332 132.488 120.931 132.08 119.878 131.196C118.817 130.304 118.078 128.902 117.59 127.093L117.017 127.283ZM121.3 116.388L121.299 116.387L120.756 116.662L120.757 116.663L121.3 116.388ZM121.299 116.387L121.142 116.034L120.599 116.309L120.756 116.662L121.299 116.387ZM106.08 87.269C106.344 84.015 108.379 81.0612 111.166 79.9697L110.98 79.4061C107.938 80.5977 105.769 83.7883 105.489 87.2521L106.08 87.269ZM110.792 79.606C110.09 81.7406 110.03 84.3535 110.401 87.2379C110.774 90.1265 111.582 93.3125 112.642 96.606C114.76 103.192 117.891 110.244 120.575 116.256L121.118 115.981C118.431 109.963 115.314 102.94 113.207 96.3894C112.153 93.1143 111.356 89.966 110.99 87.1271C110.624 84.2841 110.694 81.7764 111.354 79.7698L110.792 79.606ZM111.354 79.7698C111.711 78.6842 112.239 77.7487 112.962 76.9833L112.545 76.5759C111.747 77.4213 111.174 78.4445 110.792 79.606L111.354 79.7698ZM120.756 115.836L113.213 118.705L113.394 119.271L120.937 116.402L120.756 115.836ZM121.299 116.387C121.247 116.27 121.194 116.152 121.142 116.034L120.599 116.309C120.652 116.427 120.704 116.545 120.756 116.662L121.299 116.387ZM121.142 116.034C121.134 116.016 121.126 115.999 121.118 115.981L120.575 116.256C120.583 116.274 120.591 116.292 120.599 116.309L121.142 116.034ZM124.246 132.851C125.357 132.71 126.273 132.464 126.973 132.098L126.725 131.562C126.115 131.881 125.279 132.114 124.204 132.251L124.246 132.851ZM131.08 147.541C130.144 143.02 128.833 137.396 127.134 131.727L126.565 131.933C128.258 137.58 129.565 143.187 130.498 147.697L131.08 147.541ZM127.134 131.727C126.92 131.014 126.7 130.299 126.473 129.586L125.907 129.801C126.133 130.511 126.352 131.222 126.565 131.933L127.134 131.727ZM113.336 119.329L113.408 119.302L113.23 118.736L113.158 118.763L113.336 119.329ZM113.586 118.872L113.57 118.841L113.037 119.135L113.052 119.166L113.586 118.872ZM120.781 115.889L113.23 118.736L113.408 119.302L120.96 116.455L120.781 115.889ZM123.713 121.854C123.401 121.128 123.069 120.371 122.723 119.588L122.18 119.861C122.525 120.643 122.856 121.398 123.167 122.122L123.713 121.854ZM122.363 119.441L115.799 121.909L115.977 122.476L122.541 120.007L122.363 119.441ZM122.723 119.588C122.271 118.563 121.793 117.494 121.3 116.388L120.757 116.663C121.251 117.769 121.728 118.838 122.18 119.861L122.723 119.588ZM115.745 121.936L114.968 122.413L115.254 122.927L116.031 122.45L115.745 121.936ZM149.497 71.6861C147.742 68.3582 145.511 66.023 142.632 65.7272L142.541 66.3295C145.129 66.5954 147.239 68.7112 148.97 71.9949L149.497 71.6861ZM156.039 98.4623C155.756 96.3611 155.432 94.0721 155.05 91.7136L154.464 91.8437C154.845 94.1948 155.168 96.4781 155.451 98.5768L156.039 98.4623ZM154.648 92.0656C157.4 93.0241 160.718 94.0225 163.631 94.6041C165.087 94.8947 166.451 95.0832 167.596 95.1081C168.726 95.1327 169.704 95.0009 170.341 94.5941L170.046 94.0859C169.575 94.3865 168.756 94.5272 167.641 94.5029C166.543 94.479 165.216 94.2973 163.776 94.0098C160.897 93.4351 157.606 92.4454 154.867 91.4917L154.648 92.0656ZM159.016 79.8103C154.498 76.8655 151.691 73.8134 149.448 71.6167L149.025 72.0641C151.252 74.2448 154.103 77.3439 158.677 80.3255L159.016 79.8103ZM120.575 116.256L120.599 116.309L121.142 116.034L121.118 115.981L120.575 116.256ZM170.474 94.4244L170.503 94.3399L169.942 94.1711L169.914 94.2556L170.474 94.4244ZM170.28 93.9558L170.237 93.9496L170.123 94.5491L170.165 94.5552L170.28 93.9558ZM170.46 94.3338L173.625 84.9757L173.065 84.8067L169.9 94.1649L170.46 94.3338ZM173.51 84.6305C172.887 84.2431 171.745 83.8079 170.392 83.3619C169.029 82.9127 167.422 82.4429 165.847 81.9909C164.271 81.5381 162.729 81.1036 161.49 80.723C160.871 80.5327 160.331 80.357 159.902 80.2004C159.466 80.041 159.168 79.9092 159.016 79.8104L158.677 80.3254C158.887 80.4626 159.24 80.6127 159.675 80.7715C160.117 80.9331 160.668 81.112 161.291 81.3034C162.537 81.686 164.086 82.1228 165.658 82.5742C167.232 83.0263 168.83 83.4934 170.181 83.9389C171.542 84.3875 172.622 84.8046 173.181 85.1519L173.51 84.6305ZM148.994 72.029C149.466 72.6778 149.95 73.7039 150.429 74.989C150.906 76.269 151.371 77.7866 151.809 79.405L152.382 79.2146C151.941 77.5864 151.471 76.0501 150.986 74.7474C150.502 73.4497 149.996 72.3644 149.478 71.6518L148.994 72.029ZM151.811 79.4095C152.941 83.3318 153.792 87.6909 154.464 91.8437L155.05 91.7136C154.376 87.5501 153.521 83.1648 152.381 79.2101L151.811 79.4095ZM155.05 91.7129C154.548 88.6585 153.567 83.59 152.382 79.2146L151.809 79.405C152.987 83.7549 153.964 88.8024 154.464 91.8444L155.05 91.7129ZM152.381 79.2101C151.576 76.417 150.627 73.8307 149.497 71.6861L148.97 71.9949C150.076 74.0926 151.012 76.6381 151.811 79.4095L152.381 79.2101ZM173.548 84.655C173.536 84.6468 173.523 84.6386 173.51 84.6305L173.181 85.1519C173.192 85.1588 173.202 85.1656 173.213 85.1724L173.548 84.655ZM170.165 94.5552L174.169 95.132L174.284 94.5325L170.28 93.9558L170.165 94.5552ZM173.089 84.7372L173.065 84.8067L173.625 84.9757L173.649 84.9061L173.089 84.7372ZM170.503 94.3399L173.661 84.9981L173.101 84.8293L169.942 94.1711L170.503 94.3399ZM125.657 132.27C125.771 131.984 125.771 131.984 125.771 131.984C125.771 131.984 125.771 131.984 125.771 131.984C125.771 131.984 125.771 131.985 125.772 131.985C125.772 131.985 125.772 131.985 125.772 131.985C125.772 131.985 125.771 131.984 125.769 131.984C125.767 131.983 125.762 131.981 125.755 131.978C125.741 131.972 125.718 131.962 125.687 131.947C125.625 131.918 125.531 131.869 125.41 131.796C125.167 131.649 124.815 131.403 124.395 131.012C123.555 130.23 122.438 128.862 121.374 126.537L120.833 126.817C121.925 129.204 123.084 130.633 123.982 131.469C124.43 131.887 124.813 132.155 125.087 132.321C125.224 132.404 125.334 132.461 125.412 132.498C125.451 132.517 125.481 132.53 125.504 132.539C125.515 132.544 125.523 132.548 125.53 132.55C125.533 132.551 125.536 132.552 125.538 132.553C125.539 132.554 125.54 132.554 125.541 132.554C125.541 132.554 125.542 132.555 125.542 132.555C125.542 132.555 125.542 132.555 125.542 132.555C125.543 132.555 125.543 132.555 125.657 132.27ZM122.849 132.604C123.036 132.359 123.036 132.359 123.036 132.359C123.036 132.359 123.036 132.359 123.036 132.359C123.036 132.359 123.036 132.359 123.036 132.359C123.036 132.359 123.036 132.359 123.035 132.359C123.034 132.358 123.033 132.357 123.031 132.355C123.027 132.352 123.02 132.347 123.011 132.339C122.993 132.325 122.966 132.303 122.931 132.273C122.862 132.214 122.759 132.125 122.634 132.007C122.383 131.77 122.038 131.419 121.669 130.961C120.929 130.044 120.096 128.711 119.707 127.034L119.129 127.204C119.544 128.992 120.428 130.401 121.202 131.361C121.59 131.841 121.952 132.211 122.218 132.462C122.352 132.587 122.461 132.683 122.538 132.748C122.576 132.78 122.607 132.805 122.628 132.822C122.638 132.831 122.647 132.837 122.652 132.842C122.655 132.844 122.658 132.846 122.659 132.847C122.66 132.848 122.661 132.848 122.661 132.849C122.661 132.849 122.662 132.849 122.662 132.849C122.662 132.849 122.662 132.849 122.662 132.849C122.662 132.849 122.662 132.85 122.849 132.604ZM126.473 129.586C126.469 129.574 126.465 129.561 126.461 129.549L125.896 129.763C125.9 129.776 125.904 129.788 125.907 129.801L126.473 129.586ZM126.461 129.549C125.63 126.933 124.715 124.335 123.716 121.86L123.165 122.116C124.158 124.575 125.068 127.159 125.896 129.763L126.461 129.549ZM122.823 125.762C122.581 125.95 122.581 125.95 122.581 125.95C122.581 125.95 122.581 125.95 122.581 125.95C122.581 125.95 122.581 125.95 122.581 125.951C122.582 125.951 122.582 125.951 122.582 125.952C122.583 125.953 122.584 125.955 122.586 125.957C122.589 125.962 122.594 125.968 122.6 125.977C122.613 125.994 122.632 126.019 122.656 126.052C122.704 126.117 122.775 126.212 122.865 126.33C123.046 126.568 123.305 126.901 123.618 127.287C124.244 128.057 125.091 129.041 125.969 129.882L126.388 129.43C125.533 128.612 124.703 127.648 124.084 126.886C123.775 126.506 123.52 126.177 123.342 125.943C123.253 125.826 123.184 125.734 123.136 125.67C123.113 125.638 123.095 125.614 123.083 125.597C123.077 125.589 123.072 125.583 123.069 125.579C123.068 125.577 123.067 125.575 123.066 125.574C123.066 125.574 123.065 125.574 123.065 125.573C123.065 125.573 123.065 125.573 123.065 125.573C123.065 125.573 123.065 125.573 123.065 125.573C123.065 125.573 123.065 125.573 122.823 125.762ZM125.896 129.763L125.907 129.801L126.473 129.586L126.461 129.549L125.896 129.763ZM174.506 94.9173L174.808 94.0314L174.248 93.8614L173.947 94.7473L174.506 94.9173ZM177.218 86.9488L177.712 85.4979L177.152 85.3279L176.658 86.7788L177.218 86.9488ZM148.07 79.4642C148.242 79.2087 148.242 79.2086 148.242 79.2085C148.242 79.2085 148.242 79.2084 148.241 79.2083C148.241 79.2081 148.241 79.208 148.241 79.2078C148.24 79.2074 148.239 79.2069 148.239 79.2064C148.237 79.2054 148.235 79.2041 148.233 79.2026C148.228 79.1995 148.222 79.1955 148.214 79.1906C148.198 79.1808 148.175 79.1675 148.147 79.1517C148.09 79.1199 148.007 79.0776 147.901 79.0319C147.69 78.9405 147.383 78.8348 146.992 78.7718C146.209 78.6452 145.099 78.693 143.769 79.3568L144.006 79.8977C145.214 79.2949 146.196 79.2612 146.869 79.3698C147.207 79.4243 147.469 79.5154 147.645 79.5913C147.733 79.6292 147.799 79.6633 147.841 79.6869C147.863 79.6987 147.878 79.7079 147.887 79.7137C147.892 79.7165 147.895 79.7186 147.897 79.7196C147.898 79.7201 147.898 79.7204 147.898 79.7204C147.898 79.7204 147.898 79.7204 147.898 79.7203C147.898 79.7202 147.898 79.7201 147.897 79.7201C147.897 79.72 147.897 79.7199 147.897 79.7199C147.897 79.7198 147.897 79.7197 148.07 79.4642ZM143.769 79.3568L128.038 87.2027L128.275 87.7436L144.006 79.8977L143.769 79.3568ZM128.081 87.1851C127.471 87.3824 126.951 87.8144 126.634 88.3863L127.147 88.6616C127.385 88.2331 127.775 87.9092 128.232 87.7612L128.081 87.1851ZM126.634 88.3863C126.317 88.9581 126.23 89.6228 126.392 90.2341L126.966 90.0472C126.844 89.5885 126.91 89.0902 127.147 88.6616L126.634 88.3863ZM126.392 90.2343L131.248 108.571L131.821 108.384L126.966 90.0471L126.392 90.2343ZM131.247 108.571C131.327 108.874 131.466 109.154 131.655 109.396L132.127 109.003C131.985 108.821 131.881 108.611 131.821 108.384L131.247 108.571ZM131.655 109.396C131.845 109.638 132.081 109.837 132.351 109.982L132.65 109.443C132.447 109.334 132.27 109.185 132.127 109.003L131.655 109.396ZM132.351 109.982C132.621 110.127 132.919 110.215 133.228 110.24L133.308 109.637C133.076 109.618 132.852 109.552 132.65 109.443L132.351 109.982ZM133.228 110.24C133.537 110.266 133.852 110.229 134.153 110.131L134.002 109.555C133.776 109.628 133.54 109.656 133.308 109.637L133.228 110.24ZM134.196 110.114L151.734 101.368L151.497 100.827L133.959 109.573L134.196 110.114ZM151.692 101.385C151.834 101.338 151.958 101.232 152.053 101.136C152.155 101.032 152.259 100.902 152.36 100.762C152.563 100.481 152.775 100.13 152.966 99.7925C153.158 99.4535 153.332 99.121 153.458 98.8738C153.521 98.75 153.572 98.6473 153.608 98.5753C153.625 98.5393 153.639 98.511 153.649 98.4915C153.653 98.4818 153.657 98.4743 153.66 98.4692C153.661 98.4667 153.662 98.4647 153.662 98.4633C153.663 98.4627 153.663 98.4621 153.663 98.4618C153.663 98.4616 153.663 98.4614 153.663 98.4613C153.663 98.4613 153.663 98.4612 153.663 98.4612C153.663 98.4612 153.663 98.4611 153.398 98.3404C153.133 98.2196 153.133 98.2196 153.133 98.2196C153.133 98.2196 153.133 98.2196 153.133 98.2197C153.133 98.2197 153.133 98.2198 153.133 98.2199C153.133 98.2202 153.132 98.2206 153.132 98.2212C153.132 98.2223 153.131 98.224 153.13 98.2264C153.127 98.231 153.124 98.238 153.119 98.2472C153.111 98.2657 153.097 98.2929 153.08 98.3278C153.046 98.3976 152.996 98.4977 152.934 98.6185C152.811 98.8605 152.642 99.1839 152.456 99.5119C152.27 99.8414 152.071 100.168 151.888 100.421C151.797 100.547 151.715 100.648 151.645 100.719C151.568 100.798 151.533 100.811 151.54 100.809L151.692 101.385ZM153.253 97.0754C153.358 97.4741 153.301 97.9073 153.095 98.2799L153.608 98.555C153.894 98.0391 153.972 97.4395 153.826 96.8882L153.253 97.0754ZM153.095 98.2799C152.889 98.6525 152.55 98.9342 152.152 99.0631L152.304 99.639C152.854 99.4609 153.323 99.071 153.608 98.555L153.095 98.2799ZM152.11 99.0806L136.523 106.858L136.76 107.399L152.347 99.6215L152.11 99.0806ZM136.567 106.84C136.171 106.966 135.75 106.929 135.395 106.738L135.096 107.276C135.585 107.54 136.167 107.591 136.715 107.417L136.567 106.84ZM135.395 106.738C135.041 106.547 134.783 106.217 134.678 105.82L134.104 106.008C134.25 106.556 134.607 107.012 135.096 107.276L135.395 106.738ZM134.678 105.82L130.363 89.5232L129.789 89.7104L134.104 106.007L134.678 105.82ZM130.363 89.5244C130.259 89.1268 130.317 88.6956 130.523 88.3251L130.011 88.0485C129.725 88.5619 129.645 89.1592 129.788 89.7092L130.363 89.5244ZM130.523 88.3251C130.73 87.9545 131.068 87.6746 131.464 87.5469L131.313 86.9706C130.765 87.1475 130.297 87.535 130.011 88.0485L130.523 88.3251ZM131.507 87.5292L147.092 79.752L146.855 79.2111L131.27 86.9883L131.507 87.5292ZM147.049 79.7695C147.246 79.7056 147.451 79.6812 147.653 79.6977L147.733 79.0944C147.454 79.0715 147.17 79.1052 146.898 79.1936L147.049 79.7695ZM147.653 79.6977C147.855 79.7143 148.05 79.7713 148.226 79.8658L148.525 79.3265C148.281 79.1961 148.012 79.1172 147.733 79.0944L147.653 79.6977ZM148.226 79.8658C148.403 79.9602 148.557 80.0901 148.681 80.2481L149.153 79.8547C148.982 79.6365 148.768 79.457 148.525 79.3265L148.226 79.8658ZM148.681 80.2481C148.805 80.406 148.895 80.5889 148.948 80.7862L149.521 80.5986C149.449 80.3257 149.324 80.073 149.153 79.8547L148.681 80.2481ZM148.948 80.7858L153.252 97.0752L153.826 96.8883L149.522 80.5989L148.948 80.7858ZM133.182 109.589L135.414 107.138L134.989 106.739L132.757 109.191L133.182 109.589ZM126.847 88.9238L130.035 89.0648L130.093 88.46L126.905 88.3191L126.847 88.9238ZM113.052 119.166L113.295 119.661L113.829 119.367L113.586 118.872L113.052 119.166ZM113.295 119.661L114.844 122.817L115.378 122.523L113.829 119.367L113.295 119.661ZM102.312 99.404C103.913 104.919 104.968 109.542 106.468 112.997C107.979 116.476 109.968 118.839 113.47 119.807L113.654 119.222C110.37 118.314 108.484 116.114 107.014 112.727C105.533 109.317 104.498 104.772 102.882 99.2034L102.312 99.404ZM111.237 77.9255C111.423 77.8105 111.729 77.6279 112.039 77.4563C112.356 77.2813 112.655 77.1296 112.838 77.0648L112.67 76.4943C112.434 76.5782 112.093 76.7539 111.779 76.9278C111.458 77.1052 111.143 77.2931 110.95 77.4126L111.237 77.9255Z" fill="#001636" fill-opacity="0.92"/>
<path d="M144.736 57.2582C146.031 52.8423 146.03 48.2024 144.733 43.9254C142.994 38.1917 139.053 33.5166 133.775 30.9282C128.497 28.3398 122.314 28.05 116.587 30.1226C112.315 31.6686 108.523 34.4484 105.691 38.1105C102.858 41.7726 101.113 46.1524 100.675 50.696C100.645 51.0154 100.62 51.3347 100.603 51.6536C100.619 51.6532 100.635 51.6531 100.652 51.6531C100.652 51.6531 100.346 60.0512 108.477 61.0495C108.777 60.7513 109.122 60.4999 109.499 60.3067C109.841 60.1313 110.201 60.0084 110.566 59.9391C111.19 59.821 111.83 59.8584 112.429 60.0565C113.379 60.3708 114.148 61.0636 114.567 61.9828C114.879 62.6687 114.98 63.4443 114.855 64.2115C114.76 64.8026 114.534 65.3682 114.199 65.8665C114.099 66.0151 113.989 66.1576 113.87 66.2931C113.351 66.8831 112.681 67.3121 111.942 67.5258C111.204 67.7396 110.432 67.7286 109.723 67.4941C109.014 67.2597 108.4 66.8124 107.959 66.2087C107.577 65.6848 107.339 65.0634 107.268 64.4054C105.823 64.2434 104.092 63.4675 102.515 62.1824C102.735 62.6754 102.975 63.1604 103.232 63.6363C103.843 64.767 104.548 65.8314 105.339 66.8201C107.269 69.236 109.704 71.1992 112.498 72.5693C116.435 74.5001 120.908 75.1663 125.351 74.4835C129.793 73.8008 134.006 71.7999 137.457 68.7337C139.574 66.8523 141.346 64.6217 142.698 62.1586C143.55 60.6076 144.235 58.9644 144.736 57.2582Z" fill="white"/>
<path d="M107.247 64.1029C107.223 63.3335 107.424 62.5622 107.825 61.8865C108.007 61.5793 108.227 61.2981 108.477 61.0495C100.346 60.0512 100.652 51.6531 100.652 51.6531C100.635 51.6531 100.619 51.6532 100.603 51.6536C100.4 55.3155 101.057 58.9251 102.515 62.1824C104.092 63.4675 105.823 64.2434 107.268 64.4054C107.257 64.3053 107.25 64.2044 107.247 64.1029Z" fill="white"/>
<path fill-rule="evenodd" clip-rule="evenodd" d="M114.855 64.2115C114.98 63.4443 114.879 62.6687 114.567 61.9828C114.148 61.0636 113.379 60.3708 112.429 60.0565C111.83 59.8584 111.19 59.821 110.566 59.9391C110.201 60.0084 109.841 60.1313 109.499 60.3067C109.122 60.4999 108.777 60.7513 108.477 61.0495C108.227 61.2981 108.007 61.5793 107.825 61.8865C107.424 62.5622 107.223 63.3335 107.247 64.1029C107.25 64.2044 107.257 64.3053 107.268 64.4054C107.339 65.0634 107.577 65.6848 107.959 66.2087C108.4 66.8124 109.014 67.2597 109.723 67.4941C110.432 67.7286 111.204 67.7396 111.942 67.5258C112.681 67.3121 113.351 66.8831 113.87 66.2931C113.989 66.1576 114.099 66.0151 114.199 65.8665C114.534 65.3682 114.76 64.8026 114.855 64.2115ZM112.684 63.9595C112.737 63.6331 112.694 63.303 112.561 63.0112C112.382 62.6204 112.055 62.326 111.65 62.1925C111.246 62.059 110.798 62.0973 110.404 62.2991C110.11 62.4499 109.862 62.684 109.692 62.9716C109.521 63.2592 109.436 63.5874 109.446 63.9148C109.457 64.2421 109.562 64.5539 109.75 64.8107C109.938 65.0674 110.199 65.2577 110.501 65.3573C110.802 65.4569 111.131 65.4615 111.445 65.3704C111.759 65.2792 112.045 65.0966 112.265 64.8454C112.486 64.5943 112.631 64.286 112.684 63.9595Z" fill="white"/>
<path d="M112.561 63.0112C112.694 63.303 112.737 63.6331 112.684 63.9595C112.631 64.286 112.486 64.5943 112.265 64.8454C112.045 65.0966 111.759 65.2792 111.445 65.3704C111.131 65.4615 110.802 65.4569 110.501 65.3573C110.199 65.2577 109.938 65.0674 109.75 64.8107C109.562 64.5539 109.457 64.2421 109.446 63.9148C109.436 63.5874 109.521 63.2592 109.692 62.9716C109.862 62.684 110.11 62.4499 110.404 62.2991C110.798 62.0973 111.246 62.059 111.65 62.1925C112.055 62.326 112.382 62.6204 112.561 63.0112Z" fill="white"/>
<path d="M100.603 51.6536C98.5576 51.7002 97.722 54.9599 99.0408 57.754C99.8916 59.5681 101.145 61.067 102.515 62.1824C101.057 58.9251 100.4 55.3155 100.603 51.6536Z" fill="white"/>
<path d="M111.03 75.0295C114.151 77.1213 108.33 78.5917 108.906 80.3166C109.768 82.8667 120.801 85.7005 128.751 83.4526C144.708 78.9381 147.504 68.9445 147.504 68.9445C147.119 66.7928 144.168 66.5597 144.168 66.5597C144.168 66.5597 144.427 63.6272 143.069 62.3811C143.064 62.3823 142.983 62.3395 142.698 62.1586C141.346 64.6217 139.574 66.8523 137.457 68.7337C134.006 71.7999 129.793 73.8008 125.351 74.4835C120.908 75.1663 116.435 74.5001 112.498 72.5693C109.704 71.1992 107.269 69.236 105.339 66.8201C106.033 68.3515 108.409 73.2728 111.03 75.0295Z" fill="white"/>
<path d="M143.143 61.296C132.539 73.9089 119.971 69.1542 114.199 65.8665M126.491 28.8663C111.077 36.8557 110.113 52.6677 110.566 59.9391M107.269 64.4055L107.268 64.4054M108.513 61.0538C108.501 61.0524 108.489 61.0509 108.477 61.0495M111.569 75.4592C111.569 75.4592 120.527 82.0417 131.693 78.0571M144.15 66.518C144.15 66.518 141.366 72.0646 137.869 74.508M110.566 59.9391C110.201 60.0084 109.841 60.1313 109.499 60.3067C109.122 60.4999 108.777 60.7513 108.477 61.0495M110.566 59.9391C111.19 59.821 111.83 59.8584 112.429 60.0565C113.379 60.3708 114.148 61.0636 114.567 61.9828C114.879 62.6687 114.98 63.4443 114.855 64.2115C114.76 64.8026 114.534 65.3682 114.199 65.8665M114.199 65.8665C114.099 66.0151 113.989 66.1576 113.87 66.2931C113.351 66.8831 112.681 67.3121 111.942 67.5258C111.204 67.7396 110.432 67.7286 109.723 67.4941C109.014 67.2597 108.4 66.8124 107.959 66.2087C107.577 65.6847 107.339 65.0634 107.268 64.4054M105.339 66.8201C107.269 69.236 109.704 71.1992 112.498 72.5693C116.435 74.5001 120.908 75.1663 125.351 74.4835C129.793 73.8008 134.006 71.7999 137.457 68.7337C139.574 66.8523 141.346 64.6217 142.698 62.1586M105.339 66.8201C104.548 65.8314 103.843 64.767 103.232 63.6363C102.975 63.1604 102.735 62.6754 102.515 62.1824M105.339 66.8201C106.033 68.3515 108.409 73.2728 111.03 75.0295C114.151 77.1213 108.33 78.5917 108.906 80.3166C109.768 82.8667 120.801 85.7005 128.751 83.4526C144.708 78.9381 147.504 68.9445 147.504 68.9445C147.119 66.7928 144.168 66.5597 144.168 66.5597C144.168 66.5597 144.427 63.6272 143.069 62.3811C143.064 62.3823 142.983 62.3395 142.698 62.1586M100.603 51.6536C100.62 51.3347 100.645 51.0154 100.675 50.696C101.113 46.1524 102.858 41.7726 105.691 38.1105C108.523 34.4484 112.315 31.6686 116.587 30.1226C122.314 28.05 128.497 28.3398 133.775 30.9282C139.053 33.5166 142.994 38.1917 144.733 43.9254C146.03 48.2024 146.031 52.8423 144.736 57.2582C144.235 58.9644 143.55 60.6076 142.698 62.1586M100.603 51.6536C100.619 51.6532 100.635 51.6531 100.652 51.6531C100.652 51.6531 100.346 60.0512 108.477 61.0495M100.603 51.6536C98.5576 51.7002 97.722 54.9599 99.0408 57.754C99.8916 59.5681 101.145 61.067 102.515 62.1824M100.603 51.6536C100.4 55.3155 101.057 58.9251 102.515 62.1824M108.477 61.0495C108.227 61.2981 108.007 61.5793 107.825 61.8865C107.424 62.5622 107.223 63.3335 107.247 64.1029C107.25 64.2044 107.257 64.3053 107.268 64.4054M107.268 64.4054C105.823 64.2434 104.092 63.4675 102.515 62.1824M112.561 63.0112C112.694 63.303 112.737 63.6331 112.684 63.9595C112.631 64.286 112.486 64.5943 112.265 64.8454C112.045 65.0966 111.759 65.2792 111.445 65.3704C111.131 65.4615 110.802 65.4569 110.501 65.3573C110.199 65.2577 109.938 65.0674 109.75 64.8107C109.562 64.5539 109.457 64.2421 109.446 63.9148C109.436 63.5874 109.521 63.2592 109.692 62.9716C109.862 62.684 110.11 62.4499 110.404 62.2991C110.798 62.0973 111.246 62.059 111.65 62.1925C112.055 62.326 112.382 62.6204 112.561 63.0112Z" stroke="#001636" stroke-opacity="0.92" stroke-width="0.6" stroke-linecap="round" stroke-linejoin="round"/>
<path d="M118.632 38.8294C109.478 51.3103 114.022 62.658 114.022 62.658C114.022 62.658 131.822 75.395 145.15 55.5942C145.15 55.5942 147.699 47.2171 143.512 39.4988C139.325 31.7805 131.45 29.4484 131.45 29.4484C131.45 29.4484 124.592 30.7015 118.632 38.8294Z" fill="#001636" fill-opacity="0.92"/>
<path d="M118.866 39.0023L118.866 39.0022C121.815 34.9814 124.981 32.6662 127.404 31.3567C128.616 30.7016 129.643 30.2979 130.364 30.0585C130.724 29.9387 131.008 29.8601 131.201 29.8117C131.297 29.7875 131.37 29.7708 131.419 29.7604C131.419 29.7602 131.42 29.7601 131.42 29.76C131.425 29.7617 131.431 29.7635 131.437 29.7654C131.493 29.7836 131.577 29.8116 131.687 29.8502C131.905 29.9274 132.224 30.0466 132.62 30.2139C133.413 30.5485 134.515 31.0748 135.747 31.8399C138.212 33.3708 141.187 35.8516 143.25 39.6556C145.312 43.4552 145.717 47.4215 145.605 50.4452C145.548 51.9562 145.363 53.2286 145.192 54.1218C145.106 54.5683 145.024 54.9197 144.964 55.1585C144.934 55.2778 144.909 55.369 144.892 55.4297C144.888 55.4468 144.884 55.4615 144.88 55.4738C141.585 60.3556 138.028 63.217 134.556 64.7755C131.073 66.3391 127.654 66.6006 124.637 66.2507C121.618 65.9007 119.006 64.9391 117.147 64.0629C116.219 63.6252 115.479 63.2096 114.974 62.9042C114.721 62.7515 114.526 62.6264 114.396 62.5399C114.342 62.5047 114.3 62.476 114.268 62.4543C114.263 62.4413 114.258 62.4266 114.252 62.4103C114.222 62.3275 114.179 62.203 114.127 62.0394C114.023 61.7121 113.884 61.2283 113.744 60.6079C113.465 59.3668 113.187 57.581 113.191 55.4088C113.199 51.0677 114.336 45.1793 118.866 39.0023Z" stroke="#001636" stroke-opacity="0.92" stroke-width="0.6"/>
<path d="M116.849 48.7909C115.251 52.7603 116.118 59.0454 118.006 59.3751C119.894 59.7049 118.484 52.73 120.433 49.5561C122.484 46.225 118.463 44.7822 116.849 48.7909Z" fill="#FBF06D"/>
<path d="M117.123 48.8932L117.123 48.8932C117.895 46.9765 119.172 46.4948 119.921 46.7123C120.299 46.8221 120.583 47.1099 120.675 47.5451C120.767 47.9866 120.668 48.6184 120.183 49.4049L120.183 49.4052C119.663 50.2531 119.377 51.3337 119.204 52.443C119.037 53.5081 118.969 54.6303 118.908 55.6415C118.906 55.6867 118.903 55.7316 118.9 55.7763C118.836 56.8367 118.775 57.7436 118.62 58.3661C118.542 58.6797 118.45 58.8761 118.356 58.9822C118.283 59.0646 118.206 59.1006 118.07 59.0769C117.742 59.0195 117.387 58.6802 117.074 58.0005C116.769 57.3393 116.539 56.4312 116.415 55.3961C116.166 53.3229 116.35 50.8151 117.123 48.8932Z" stroke="#001636" stroke-opacity="0.92" stroke-width="0.6"/>
<path d="M118.898 41.8398C118.545 42.1739 118.328 42.6292 118.293 43.1077C118.259 43.5861 118.41 44.0493 118.714 44.3975L118.837 44.5367C118.989 44.7086 119.175 44.8465 119.384 44.9423C119.593 45.0381 119.82 45.0901 120.053 45.0953C120.286 45.1005 120.52 45.0587 120.742 44.9724C120.964 44.8861 121.169 44.7569 121.346 44.5923C121.523 44.4276 121.669 44.2308 121.774 44.0129C121.879 43.795 121.942 43.5603 121.959 43.3223C121.976 43.0843 121.948 42.8476 121.874 42.6258C121.801 42.4039 121.685 42.2013 121.533 42.0293L121.41 41.8902C121.099 41.5458 120.661 41.3474 120.191 41.338C119.721 41.3286 119.256 41.5089 118.898 41.8398Z" fill="#FBF06D"/>
<path d="M121.307 42.2383L121.308 42.2386C121.435 42.3819 121.532 42.5507 121.593 42.7355C121.654 42.9203 121.677 43.1175 121.663 43.3157C121.649 43.514 121.596 43.7094 121.509 43.891C121.421 44.0725 121.3 44.2365 121.153 44.3737C121.005 44.5108 120.834 44.6185 120.649 44.6904C120.464 44.7623 120.269 44.7971 120.075 44.7928C119.881 44.7885 119.691 44.7452 119.518 44.6653L119.384 44.9423L119.518 44.6653C119.344 44.5855 119.189 44.4706 119.062 44.3274L118.94 44.1893C118.686 43.8989 118.561 43.5128 118.589 43.1141C118.618 42.7156 118.799 42.3364 119.092 42.0578C119.391 41.7826 119.778 41.6327 120.17 41.6405C120.561 41.6484 120.926 41.8135 121.185 42.1002L121.307 42.2383Z" stroke="#001636" stroke-opacity="0.92" stroke-width="0.6"/>
<path d="M141.571 53.9835C141.486 53.8886 141.381 53.8154 141.263 53.7693C141.144 53.7233 141.016 53.7055 140.887 53.7174C140.758 53.7293 140.631 53.7705 140.517 53.838C140.403 53.9054 140.304 53.9974 140.227 54.1071C139.295 55.458 135.151 59.1022 137.012 60.8323C138.436 62.1502 139.993 60.7082 140.967 58.9015C142.226 57.3637 142.925 55.3492 141.571 53.9835Z" fill="#FBF06D"/>
<path d="M141.351 54.1986L141.346 54.1929C141.291 54.1308 141.222 54.0829 141.144 54.0527C141.067 54.0226 140.983 54.011 140.898 54.0187C140.814 54.0265 140.731 54.0535 140.656 54.0977C140.582 54.1418 140.517 54.2018 140.467 54.2732C140.467 54.2735 140.466 54.2737 140.466 54.274L140.227 54.1071L141.351 54.1986ZM141.351 54.1986L141.356 54.204M141.351 54.1986L141.356 54.204M141.356 54.204C141.957 54.8101 142.104 55.5522 141.957 56.3361C141.807 57.1331 141.351 57.9723 140.743 58.7149L140.723 58.7391M141.356 54.204L140.723 58.7391M140.723 58.7391L140.709 58.7666M140.723 58.7391L140.709 58.7666M140.709 58.7666C140.233 59.6486 139.634 60.4027 139.015 60.7813C138.711 60.9675 138.414 61.056 138.127 61.0386C137.841 61.0214 137.536 60.8978 137.218 60.6038L140.709 58.7666Z" stroke="#001636" stroke-opacity="0.92" stroke-width="0.6"/>
<path d="M101.336 195.352L87.9975 206.686L94.1487 221.93L110.902 219.052L101.336 195.352Z" fill="#34FFE7" stroke="#001636" stroke-opacity="0.92" stroke-width="0.6" stroke-linecap="round" stroke-linejoin="round"/>
<path d="M77.1544 212.927L82.5985 226.482C66.502 242.64 49.6668 234.954 49.6668 234.954C56.0478 213.194 77.1544 212.927 77.1544 212.927Z" fill="#FFF89F" stroke="#001636" stroke-opacity="0.92" stroke-width="0.6" stroke-linecap="round" stroke-linejoin="round"/>
<path d="M81.7352 224.346L78.0003 215.038C72.7248 216.737 64.2811 220.747 59.9174 229.679C59.9174 229.679 69.8292 232.084 81.7352 224.346Z" fill="#FFA386" stroke="#001636" stroke-opacity="0.92" stroke-width="0.6" stroke-linecap="round" stroke-linejoin="round"/>
<path d="M69.8966 224.713C69.8966 224.713 74.5599 225.389 80.9955 222.518L78.7332 216.881C75.6202 218.469 72.1576 220.95 69.8966 224.713Z" fill="#FFF89F" stroke="#001636" stroke-opacity="0.92" stroke-width="0.6" stroke-linecap="round" stroke-linejoin="round"/>
<path d="M83.2296 228.062L76.4482 211.294L81.2364 209.556L87.6661 225.457L83.2296 228.062Z" fill="#34FFE7" stroke="#001636" stroke-opacity="0.92" stroke-width="0.6" stroke-linecap="round" stroke-linejoin="round"/>
<path d="M88.0143 226.353L93.3548 223.837C93.7133 223.667 93.9988 223.361 94.1487 222.984C94.2986 222.608 94.3007 222.192 94.1544 221.828L88.0876 206.82C87.94 206.457 87.6566 206.176 87.2992 206.039C86.9419 205.902 86.5399 205.919 86.1812 206.088L80.8408 208.604L88.0143 226.353Z" fill="#FF8181" stroke="#001636" stroke-opacity="0.92" stroke-width="0.6" stroke-linecap="round" stroke-linejoin="round"/>
<path d="M111.669 173.993C111.669 173.993 100.632 176.23 90.3315 180.394C79.9809 184.585 69.5739 192.473 69.5739 192.473L70.0733 193.728L70.0954 193.784L70.5967 195.038C70.5967 195.038 82.5709 192.279 92.2477 186.986C102.26 181.514 111.669 173.993 111.669 173.993Z" fill="#FF98A5" stroke="#001636" stroke-opacity="0.92" stroke-width="0.6" stroke-linecap="round" stroke-linejoin="round"/>
<path d="M132.489 225.179C132.489 225.179 123.461 232.475 113.644 237.857C103.777 243.272 91.4105 246.216 91.4105 246.216L90.9111 244.961L90.8887 244.904L90.3892 243.648C90.3892 243.648 100.405 235.957 110.548 231.832C121.04 227.566 132.489 225.179 132.489 225.179Z" fill="#FF98A5" stroke="#001636" stroke-opacity="0.92" stroke-width="0.6" stroke-linecap="round" stroke-linejoin="round"/>
<path d="M95.7204 208.334C101.957 223.862 99.0187 206.744 100.689 206.075C105.576 204.103 110.627 202.561 114.591 201.493C111.571 189.555 128.097 176.045 128.097 176.045C102.099 195.693 102.635 182.773 106.698 177.661C105.802 178.401 104.853 179.068 103.862 179.657C100.111 182.261 96.2415 184.665 92.2682 186.861C85.8545 190.353 78.4307 192.746 74.1488 193.961C74.1488 193.961 89.4819 192.803 95.7204 208.334Z" fill="#FF98A5" stroke="#001636" stroke-opacity="0.92" stroke-width="0.6" stroke-linecap="round" stroke-linejoin="round"/>
<path d="M142.178 210.782C142.178 210.782 121.748 214.746 115.785 204.163C112.226 206.673 107.513 209.792 102.665 212.426C101.261 213.192 92.7225 200.544 98.3472 214.561C103.972 228.578 93.3744 241.492 93.3711 241.494C97.1062 238.916 103.767 234.639 110.493 231.914C114.68 230.248 118.937 228.807 123.248 227.595C124.322 227.208 125.419 226.908 126.53 226.697C120.311 226.458 111.226 218.09 142.178 210.782Z" fill="#FF98A5" stroke="#001636" stroke-opacity="0.92" stroke-width="0.6" stroke-linecap="round" stroke-linejoin="round"/>
<path d="M122.07 199.57C122.07 199.57 111.035 201.806 100.733 205.97C90.3808 210.164 79.9772 218.049 79.9772 218.049L80.4748 219.305L80.4972 219.362L80.9984 220.617C80.9984 220.617 92.9729 217.86 102.65 212.566C112.662 207.095 122.07 199.57 122.07 199.57Z" fill="#FF8181" stroke="#001636" stroke-opacity="0.92" stroke-width="0.6" stroke-linecap="round" stroke-linejoin="round"/>
<path d="M111.561 202.649C115.954 201.456 119.007 200.837 119.007 200.837C119.007 200.837 116.493 202.835 112.687 205.522L112.701 205.519C136.849 222.584 205.5 223.231 245.156 141.093C158.914 121.335 111.564 173.661 111.561 202.649Z" fill="#78A6FF" stroke="#001636" stroke-opacity="0.92" stroke-width="0.6" stroke-linecap="round" stroke-linejoin="round"/>
<path d="M205.225 161.03C203.478 156.696 200.505 153.057 196.683 150.572C192.861 148.088 188.362 146.871 183.753 147.073C179.145 147.276 174.634 148.891 170.793 151.713C166.951 154.534 163.95 158.437 162.17 162.926C160.39 167.415 159.911 172.29 160.792 176.934C161.674 181.578 163.877 185.782 167.123 189.016C170.369 192.249 174.512 194.366 179.029 195.098C183.545 195.831 188.232 195.146 192.496 193.132C195.328 191.794 197.903 189.902 200.076 187.565C202.248 185.228 203.974 182.49 205.156 179.509C206.338 176.528 206.952 173.362 206.964 170.191C206.976 167.021 206.385 163.908 205.225 161.03ZM167.269 178.967C165.938 175.67 165.599 171.993 166.295 168.4C166.99 164.806 168.69 161.459 171.178 158.78C173.666 156.101 176.83 154.212 180.271 153.351C183.712 152.49 187.275 152.696 190.509 153.943C193.743 155.191 196.503 157.423 198.44 160.358C200.376 163.292 201.402 166.798 201.388 170.431C201.374 174.064 200.321 177.66 198.361 180.766C196.401 183.872 193.623 186.348 190.379 187.879C186.031 189.932 181.155 190.146 176.821 188.475C172.488 186.804 169.052 183.384 167.269 178.967Z" fill="#FEFFC7" stroke="#001636" stroke-opacity="0.92" stroke-width="0.6" stroke-linecap="round" stroke-linejoin="round"/>
<path d="M190.377 187.879C187.133 189.414 183.568 189.936 180.132 189.38C176.696 188.825 173.543 187.216 171.073 184.757C168.602 182.298 166.925 179.1 166.254 175.568C165.583 172.035 165.947 168.326 167.301 164.911C168.655 161.495 170.937 158.526 173.86 156.38C176.783 154.233 180.214 153.005 183.72 152.851C187.226 152.697 190.649 153.624 193.556 155.515C196.463 157.405 198.723 160.175 200.052 163.472C201.831 167.891 201.812 172.944 199.998 177.52C198.183 182.097 194.723 185.823 190.377 187.879Z" fill="white" stroke="#001636" stroke-opacity="0.92" stroke-width="0.6" stroke-linecap="round" stroke-linejoin="round"/>
<path d="M195.606 137.433C195.606 137.433 215.878 150.285 214.735 184.612" stroke="#001636" stroke-opacity="0.92" stroke-width="0.6" stroke-linecap="round" stroke-linejoin="round"/>
<path d="M238.413 146.1C237.352 148.134 236.39 150.209 235.196 152.174C233.944 154.199 232.585 156.154 231.127 158.031C229.647 159.964 228.074 161.819 226.413 163.589C225.673 164.377 224.913 165.144 224.145 165.903C223.463 166.577 222.601 167.285 222.184 168.17C222.04 168.478 222.374 168.684 222.613 168.6C223.557 168.273 224.389 167.343 225.094 166.636C225.937 165.794 226.759 164.931 227.561 164.047C229.197 162.252 230.747 160.376 232.205 158.426C233.686 156.437 235.033 154.347 236.235 152.173C237.279 150.275 238.293 148.311 238.81 146.197C238.876 145.929 238.504 145.897 238.397 146.103L238.413 146.1Z" fill="#001636" fill-opacity="0.92"/>
<path d="M238.29 146.975C238.116 147.316 237.943 147.659 237.77 148.003C237.037 149.456 236.299 150.92 235.446 152.323L235.445 152.325C234.186 154.36 232.822 156.324 231.357 158.21C229.871 160.151 228.29 162.014 226.623 163.792L226.622 163.792C225.878 164.584 225.115 165.354 224.346 166.115C224.346 166.115 224.346 166.115 224.346 166.115L224.145 165.903C224.018 166.029 223.884 166.155 223.749 166.284C223.157 166.847 222.523 167.45 222.184 168.17L238.29 146.975ZM238.29 146.975C237.745 148.731 236.88 150.396 235.978 152.035L238.29 146.975Z" stroke="#001636" stroke-opacity="0.92" stroke-width="0.6"/>
<path d="M125.396 207.094C132.384 209.306 139.725 210.224 147.09 210.283C154.79 210.343 162.566 209.562 170.152 207.717C174.175 206.737 178.101 205.523 181.777 203.413C181.917 203.334 181.869 203.064 181.698 203.118C178.282 204.191 174.857 205.328 171.404 206.234C167.793 207.169 164.143 207.88 160.472 208.362C152.852 209.382 145.186 209.514 137.613 208.757C133.534 208.38 129.495 207.714 125.524 206.761C125.323 206.712 125.187 207.021 125.396 207.092L125.396 207.094Z" fill="#001636" fill-opacity="0.92"/>
<path d="M170.152 207.717C174.175 206.737 178.101 205.523 181.777 203.413M170.152 207.717L170.099 207.423C170.099 207.423 170.099 207.423 170.099 207.423M170.152 207.717C162.566 209.562 154.79 210.343 147.09 210.283M170.152 207.717L170.099 207.423M181.777 203.413L181.771 203.407L181.771 203.407C181.291 203.558 180.811 203.71 180.33 203.862M181.777 203.413C181.917 203.334 181.869 203.064 181.698 203.118C181.002 203.337 180.305 203.558 179.607 203.78C176.884 204.645 174.153 205.513 171.404 206.234C167.793 207.169 164.143 207.88 160.472 208.362M181.777 203.413L160.493 208.663M170.099 207.423C173.633 206.561 177.074 205.524 180.33 203.862M170.099 207.423C162.539 209.261 154.788 210.04 147.109 209.981M180.33 203.862C180.115 203.93 179.9 203.999 179.684 204.067C176.96 204.933 174.22 205.804 171.463 206.527L171.462 206.527C167.839 207.466 164.176 208.179 160.493 208.663M180.33 203.862C180.771 203.637 181.209 203.4 181.643 203.151C181.601 203.176 181.578 203.212 181.569 203.238C181.561 203.262 181.561 203.282 181.565 203.299C181.568 203.315 181.581 203.351 181.622 203.381L160.493 208.663M160.493 208.663C160.493 208.663 160.494 208.662 160.494 208.662L160.472 208.362M160.493 208.663C160.493 208.663 160.493 208.663 160.493 208.663L160.472 208.362M160.493 208.663C152.852 209.685 145.164 209.818 137.569 209.058M160.472 208.362C152.852 209.382 145.186 209.514 137.613 208.757M137.613 208.757L137.57 209.058C137.569 209.058 137.569 209.058 137.569 209.058M137.613 208.757C133.534 208.38 129.495 207.714 125.524 206.761L125.396 207.094L125.397 207.092L125.412 207.051L125.499 206.804C125.5 206.805 125.502 206.805 125.503 206.806C125.506 206.807 125.508 206.807 125.51 206.808C125.51 206.808 125.51 206.808 125.51 206.808C125.513 206.809 125.515 206.81 125.517 206.81C125.515 206.809 125.513 206.808 125.511 206.807C125.511 206.807 125.511 206.807 125.51 206.807C125.508 206.806 125.506 206.805 125.504 206.804L125.511 206.807L125.511 206.807L125.575 206.829C126.892 207.243 128.221 207.612 129.561 207.938M137.613 208.757L137.567 209.058C137.568 209.058 137.568 209.058 137.569 209.058M137.569 209.058C134.879 208.81 132.208 208.436 129.561 207.938M129.561 207.938C135.276 209.327 141.182 209.933 147.109 209.981M129.561 207.938L147.09 210.283M147.09 210.283L147.109 209.981M147.09 210.283L147.109 209.981" stroke="#001636" stroke-opacity="0.92" stroke-width="0.6"/>
<path d="M178.754 157.468C181.905 158.56 185.188 159.312 188.362 160.358C191.608 161.426 194.791 162.656 198.083 163.568C198.116 163.581 198.153 163.579 198.186 163.563C198.219 163.547 198.246 163.518 198.259 163.483C198.273 163.448 198.273 163.409 198.259 163.375C198.246 163.342 198.219 163.315 198.186 163.303C195.083 161.724 191.804 160.629 188.488 159.578C185.356 158.584 182.132 157.473 178.847 157.108C178.806 157.11 178.767 157.125 178.735 157.152C178.702 157.179 178.679 157.216 178.668 157.257C178.658 157.298 178.66 157.341 178.676 157.379C178.691 157.417 178.719 157.448 178.754 157.468Z" fill="#001636" fill-opacity="0.92"/>
<path d="M188.386 159.868C191.022 160.703 193.623 161.563 196.126 162.667C194.67 162.209 193.23 161.707 191.784 161.203C190.685 160.82 189.582 160.436 188.467 160.069C186.994 159.584 185.499 159.162 184.011 158.742C183.888 158.708 183.765 158.673 183.642 158.638C182.454 158.302 181.271 157.964 180.103 157.592C182.575 158.008 185.013 158.789 187.423 159.56C187.744 159.663 188.066 159.766 188.386 159.868L188.386 159.868Z" stroke="#001636" stroke-opacity="0.92" stroke-width="0.6"/>
<path d="M179.373 159.949C181.792 161.172 184.511 161.67 187.14 162.293C188.497 162.594 189.833 162.973 191.144 163.429C192.433 163.897 193.618 164.703 194.937 165.061C194.966 165.071 194.997 165.071 195.027 165.061C195.057 165.051 195.083 165.031 195.101 165.005C195.12 164.978 195.13 164.946 195.13 164.914C195.13 164.882 195.12 164.851 195.102 164.826C194.339 163.823 193.065 163.344 191.942 162.908C190.586 162.402 189.196 161.991 187.781 161.678C185.002 161.026 182.184 160.552 179.426 159.83C179.41 159.824 179.392 159.826 179.376 159.834C179.36 159.842 179.347 159.856 179.341 159.873C179.334 159.89 179.334 159.909 179.341 159.926C179.347 159.942 179.359 159.955 179.375 159.962L179.373 159.949Z" fill="#001636" fill-opacity="0.92"/>
<path d="M185.984 161.712C184.925 161.47 183.871 161.229 182.84 160.934C183.307 161.033 183.774 161.129 184.241 161.226C185.403 161.466 186.561 161.706 187.7 161.973L187.7 161.973L187.703 161.974C189.105 162.284 190.482 162.691 191.826 163.192L191.864 163.207C192.802 163.571 193.767 163.946 194.468 164.588C194.033 164.427 193.605 164.226 193.169 164.012C193.085 163.971 193 163.929 192.915 163.887C192.379 163.623 191.828 163.351 191.257 163.143L191.257 163.143L191.253 163.142C189.933 162.683 188.586 162.301 187.219 161.998C186.808 161.9 186.396 161.806 185.984 161.712ZM179.406 159.896L179.405 159.896L179.406 159.896ZM194.989 164.926L194.988 164.925L194.989 164.926Z" stroke="#001636" stroke-opacity="0.92" stroke-width="0.6"/>
<path d="M176.757 161.71C180.085 162.931 183.632 163.63 187.034 164.632C190.583 165.677 193.999 167.131 197.565 168.115C197.725 168.159 197.887 167.923 197.723 167.82C194.573 165.882 190.87 164.874 187.336 163.855C183.922 162.87 180.389 161.834 176.831 161.425C176.798 161.424 176.765 161.435 176.738 161.456C176.711 161.477 176.691 161.507 176.682 161.541C176.674 161.575 176.676 161.61 176.69 161.641C176.704 161.672 176.728 161.696 176.757 161.71Z" fill="#001636" fill-opacity="0.92"/>
<path d="M178.44 161.96C180.029 162.466 181.649 162.883 183.276 163.301C184.561 163.632 185.849 163.964 187.13 164.341L178.44 161.96ZM178.44 161.96C181.316 162.437 184.171 163.261 186.968 164.068C187.059 164.094 187.15 164.12 187.241 164.146C187.422 164.199 187.604 164.251 187.785 164.303C190.782 165.165 193.838 166.043 196.552 167.502L178.44 161.96ZM197.655 167.822C197.656 167.822 197.656 167.823 197.657 167.823L197.657 167.823C197.656 167.823 197.656 167.822 197.655 167.822Z" stroke="#001636" stroke-opacity="0.92" stroke-width="0.6"/>
<path d="M172.845 163.551C174.768 164.141 176.8 164.401 178.744 164.929C180.913 165.521 183.057 166.196 185.175 166.953C187.273 167.701 189.34 168.526 191.39 169.39C192.37 169.804 193.344 170.229 194.314 170.665C195.167 171.051 196.209 171.741 197.162 171.763C197.21 171.767 197.26 171.756 197.303 171.73C197.347 171.705 197.383 171.667 197.407 171.622C197.431 171.576 197.442 171.525 197.438 171.474C197.435 171.423 197.417 171.376 197.386 171.337C196.814 170.647 195.697 170.285 194.904 169.923C193.94 169.483 192.971 169.058 191.996 168.647C189.81 167.724 187.584 166.882 185.337 166.114C183.169 165.379 180.97 164.692 178.734 164.162C176.853 163.718 174.843 163.183 172.869 163.305C172.746 163.313 172.73 163.523 172.839 163.552L172.845 163.551Z" fill="#001636" fill-opacity="0.92"/>
<path d="M175.86 163.966C175.335 163.858 174.813 163.748 174.298 163.625C175.596 163.728 176.901 164.039 178.181 164.345C178.338 164.382 178.496 164.42 178.653 164.457C180.876 164.984 183.065 165.668 185.23 166.401C187.471 167.168 189.69 168.008 191.87 168.927L191.87 168.927C192.843 169.337 193.81 169.762 194.771 170.2C194.943 170.279 195.117 170.352 195.293 170.426C195.553 170.536 195.817 170.647 196.087 170.781C196.485 170.977 196.834 171.194 197.081 171.455C196.693 171.425 196.273 171.276 195.834 171.074C195.597 170.965 195.363 170.844 195.129 170.725L195.123 170.722C194.894 170.604 194.665 170.486 194.446 170.387L194.445 170.387C193.474 169.95 192.497 169.524 191.516 169.109L191.516 169.109C189.463 168.244 187.39 167.417 185.286 166.667C183.161 165.907 181.011 165.23 178.835 164.636L178.834 164.636C177.954 164.397 177.056 164.212 176.168 164.03C176.065 164.009 175.962 163.987 175.86 163.966ZM197.181 171.508L197.181 171.507L197.181 171.507L197.181 171.508Z" stroke="#001636" stroke-opacity="0.92" stroke-width="0.6"/>
</svg>
