<svg width="98" height="44" viewBox="0 0 98 44" fill="none" xmlns="http://www.w3.org/2000/svg">
<g clip-path="url(#clip0_614_2655)">
<path d="M53.2913 9.56158V7.17597H49.6485V23.4732H53.4739V15.5768C53.4739 13.9489 53.8918 12.7027 54.7277 11.8382C55.5641 10.9736 56.7295 10.5402 58.225 10.538C58.5233 10.5414 58.8206 10.5722 59.1132 10.63V6.99872C56.3332 6.99872 54.3924 7.85304 53.2913 9.56158ZM29.2399 5.47193H36.3384V23.4783H40.3156V5.47193H47.4158V2.11503H29.2399V5.47193ZM69.4171 19.237L64.2765 7.18109H60.2974L67.4264 23.5396L67.1516 24.1803C66.7851 24.9949 66.3825 25.5747 65.9439 25.9202C65.4635 26.2765 64.8745 26.4569 64.2765 26.4313C63.7562 26.4293 63.2412 26.3255 62.7608 26.1263C62.2799 25.9343 61.8394 25.6546 61.4609 25.3016L59.9231 28.1098C60.4934 28.6111 61.1635 28.9857 61.8894 29.2089C62.6676 29.472 63.4838 29.6066 64.3053 29.6076C65.7541 29.6076 66.9887 29.2464 68.0091 28.5239C69.0299 27.8013 69.8966 26.5552 70.6095 24.7852L78.2597 7.17425H74.5886L69.4171 19.237ZM96.9225 10.9657C96.2355 9.73112 95.2118 8.71568 93.9704 8.0365C92.6599 7.33064 91.189 6.97328 89.6993 6.99872C88.6986 6.98696 87.7057 7.17348 86.778 7.54743C85.8965 7.90857 85.1072 8.46096 84.4664 9.16453V0.833618H80.6463V23.4783H84.2872V21.3704C84.9093 22.1357 85.7139 22.7333 86.6277 23.1085C87.6038 23.5048 88.6491 23.7025 89.7026 23.6896C91.1923 23.715 92.6633 23.3576 93.9738 22.6518C95.2185 21.9695 96.2427 20.9475 96.9258 19.7056C97.6579 18.3632 98.0269 16.854 97.9971 15.3262C97.9961 13.6756 97.6382 12.2221 96.9244 10.9657H96.9225ZM92.7454 19.0223C91.8341 19.9595 90.6764 20.4276 89.2722 20.4264C88.4056 20.4395 87.551 20.2238 86.7948 19.801C86.0555 19.3819 85.4497 18.7627 85.0472 18.0152C84.6249 17.1826 84.4049 16.2627 84.4049 15.3296C84.4049 14.3967 84.6249 13.4767 85.0472 12.6441C85.4493 11.8973 86.0536 11.2784 86.7915 10.8583C87.5481 10.4364 88.4022 10.2207 89.2688 10.233C90.6764 10.233 91.8346 10.701 92.7421 11.6371C93.65 12.5731 94.1054 13.804 94.1088 15.3296C94.1045 16.8576 93.6505 18.0885 92.7474 19.0223H92.7454Z" fill="#001636" fill-opacity="0.92"/>
<path d="M25.611 10.0486L23.402 7.8453L20.0979 11.146L15.041 6.10208L18.8969 2.25441L16.6879 0.0511237L12.832 3.89879L8.92309 0L6.71411 2.20329L10.6213 6.10208L5.56433 11.146L2.209 7.79757L0 10.0026L3.35535 13.3493L0 16.6959L2.209 18.8992L5.56433 15.5526L10.6213 20.5964L6.71411 24.4883L8.92309 26.6934L12.832 22.7945L16.6879 26.6405L18.8969 24.4372L15.041 20.5913L20.0979 15.5474L23.402 18.843L25.611 16.6397L22.3069 13.3441L25.611 10.0486ZM12.832 18.388L7.77505 13.3441L12.832 8.30027L17.8889 13.3441L12.832 18.388Z" fill="#001636" fill-opacity="0.92"/>
<path d="M19.7721 38.0794C20.1107 38.267 20.389 38.5464 20.5751 38.8854C20.7657 39.2512 20.8653 39.6575 20.8653 40.0697C20.8653 40.4821 20.7657 40.8883 20.5751 41.254C20.3885 41.5934 20.1104 41.8739 19.7721 42.0634C19.4225 42.2583 19.0277 42.3582 18.6274 42.3531C18.2757 42.3585 17.928 42.2765 17.6161 42.1145C17.3173 41.9574 17.0672 41.7217 16.8933 41.4329V42.319H16.3124V35.9971H16.9189V38.6894C17.0969 38.4091 17.3463 38.181 17.6417 38.0282C17.9473 37.8752 18.2854 37.7982 18.6274 37.8033C19.0264 37.7957 19.4207 37.8907 19.7721 38.0794ZM19.4304 41.5982C19.6857 41.454 19.8944 41.24 20.0318 40.9813C20.1755 40.6988 20.2505 40.3865 20.2505 40.0697C20.2505 39.7529 20.1755 39.4405 20.0318 39.158C19.8946 38.8988 19.686 38.6841 19.4304 38.5395C19.168 38.3982 18.8743 38.3241 18.5762 38.3241C18.2779 38.3241 17.9844 38.3982 17.722 38.5395C17.4676 38.6847 17.2602 38.8992 17.124 39.158C16.9802 39.4405 16.9052 39.7529 16.9052 40.0697C16.9052 40.3865 16.9802 40.6988 17.124 40.9813C17.2603 41.2395 17.4678 41.4535 17.722 41.5982C17.9839 41.7408 18.2776 41.8154 18.5762 41.8154C18.8747 41.8154 19.1683 41.7408 19.4304 41.5982Z" fill="#001636" fill-opacity="0.92"/>
<path d="M25.7519 37.8295L23.5052 42.841C23.3749 43.1884 23.1573 43.4963 22.8731 43.7356C22.6222 43.9152 22.3191 44.008 22.0104 43.9997C21.8037 44.0014 21.5985 43.9668 21.4039 43.8975C21.2207 43.8324 21.0545 43.7277 20.917 43.5907L21.1989 43.1392C21.305 43.2489 21.4324 43.3356 21.5735 43.3943C21.7145 43.4529 21.866 43.482 22.0189 43.48C22.2082 43.4852 22.3936 43.4251 22.5434 43.3096C22.7219 43.1504 22.8612 42.9521 22.95 42.7302L23.1465 42.2957L21.1391 37.8226H21.7712L23.4625 41.6311L25.1539 37.8226L25.7519 37.8295Z" fill="#001636" fill-opacity="0.92"/>
<path d="M31.2337 42.3113V34.2548H33.0788V37.2522H33.113C33.3047 36.9756 33.5614 36.7503 33.8609 36.5958C34.1603 36.4412 34.493 36.3623 34.8299 36.366C35.105 36.3527 35.3797 36.3998 35.6344 36.5041C35.8891 36.6082 36.1179 36.767 36.3043 36.9693C36.6757 37.4111 36.8672 37.9762 36.8407 38.5523V42.3011H34.9922V38.9306C35.0071 38.661 34.9247 38.395 34.7599 38.1809C34.6762 38.0873 34.5723 38.014 34.456 37.9664C34.3396 37.9189 34.2141 37.8983 34.0885 37.9065C33.9481 37.9029 33.8087 37.9319 33.6812 37.991C33.5538 38.0501 33.4418 38.1379 33.3539 38.2473C33.1576 38.4973 33.0575 38.8093 33.072 39.1266V42.3147L31.2337 42.3113Z" fill="#001636" fill-opacity="0.92"/>
<path d="M39.6045 42.4795C38.9507 42.4795 38.4484 42.2864 38.0976 41.9001C37.7469 41.514 37.5715 40.9896 37.5715 40.3273V36.5359H39.4012V39.9439C39.4012 40.5982 39.6916 40.9254 40.2725 40.9254C40.4131 40.9323 40.5533 40.9067 40.6823 40.8508C40.8115 40.7949 40.9261 40.7104 41.0173 40.6034C41.2065 40.3658 41.3028 40.0681 41.289 39.765V36.5359H43.1307V42.3057H41.359V41.5951H41.3249C41.1333 41.8725 40.876 42.0983 40.5759 42.2527C40.2757 42.4069 39.9421 42.4849 39.6045 42.4795Z" fill="#001636" fill-opacity="0.92"/>
<path d="M46.3969 42.4999C45.5529 42.4999 44.881 42.3176 44.3809 41.9529C44.1387 41.7825 43.9403 41.5574 43.8019 41.2958C43.6636 41.0343 43.5891 40.7439 43.5848 40.4483H45.324C45.3923 41.0162 45.746 41.3003 46.3849 41.3003C46.6154 41.3124 46.8446 41.2592 47.0461 41.1469C47.1212 41.1053 47.1836 41.0442 47.2265 40.97C47.2695 40.8961 47.2916 40.8116 47.2904 40.726C47.2914 40.6722 47.2832 40.6187 47.2665 40.5675C47.2506 40.5205 47.2236 40.4777 47.1879 40.4431C47.1503 40.4057 47.1144 40.3716 47.0803 40.3426C47.0348 40.3058 46.9834 40.277 46.9282 40.2574C46.8599 40.2319 46.8018 40.2114 46.7573 40.1961C46.6871 40.1753 46.6159 40.1582 46.5438 40.145L46.3234 40.1007C46.2705 40.0887 46.1867 40.0734 46.074 40.0547L45.8262 40.0154C45.5854 39.9779 45.3821 39.9388 45.2163 39.8962C45.0281 39.8474 44.8444 39.782 44.6679 39.7002C44.4903 39.624 44.3263 39.5194 44.1827 39.3901C44.048 39.2575 43.9431 39.0977 43.8752 38.9215C43.7879 38.7015 43.7456 38.4662 43.7505 38.2297C43.7411 37.9604 43.8018 37.6932 43.9267 37.4543C44.0515 37.2154 44.2362 37.0128 44.4629 36.8664C44.99 36.5236 45.6091 36.3489 46.238 36.3654C47.0444 36.3654 47.6709 36.5291 48.117 36.8562C48.3351 37.0132 48.5143 37.2175 48.6416 37.4536C48.7689 37.6897 48.841 37.9516 48.852 38.2194H47.1571C47.0968 37.765 46.7881 37.5378 46.2312 37.5378C46.0282 37.5283 45.8266 37.5748 45.6486 37.6724C45.5792 37.7119 45.5218 37.7697 45.483 37.8394C45.4442 37.9091 45.4253 37.988 45.4282 38.0678C45.428 38.1099 45.4362 38.1514 45.4521 38.1904C45.4678 38.2297 45.4924 38.2646 45.5239 38.2927C45.556 38.3215 45.5901 38.3477 45.6264 38.3711C45.6709 38.3992 45.7184 38.422 45.7682 38.4392L45.939 38.4955C46.0056 38.5152 46.0736 38.5301 46.1423 38.5398L46.3559 38.5807L46.5882 38.625C46.6856 38.6437 46.7591 38.6574 46.8257 38.6642C47.0803 38.7084 47.2921 38.7511 47.4578 38.7886C47.6566 38.8375 47.8509 38.9031 48.0386 38.9845C48.2319 39.0617 48.4101 39.1725 48.5648 39.3117C48.7084 39.4589 48.8213 39.6325 48.8982 39.8229C48.9966 40.0603 49.0452 40.3157 49.0399 40.5727C49.0504 40.8524 48.9875 41.13 48.8578 41.3783C48.7281 41.6266 48.5359 41.8368 48.3001 41.9887C47.8149 42.3295 47.1805 42.4999 46.3969 42.4999Z" fill="#001636" fill-opacity="0.92"/>
<path d="M51.6845 42.3791C51.0965 42.3791 50.641 42.2603 50.3177 42.0229C49.9964 41.7861 49.8374 41.3754 49.8374 40.7892V37.6913H49.0687V36.536H49.8374V34.7161H51.6331V36.536H52.6837V37.6862H51.6331V40.3904C51.6249 40.4719 51.6359 40.5542 51.6657 40.6305C51.6955 40.7069 51.7426 40.7754 51.8041 40.8301C51.9468 40.9211 52.1149 40.964 52.284 40.9528H52.5213H52.6923V42.2938C52.3628 42.3659 52.0251 42.3963 51.6878 42.3842" fill="#001636" fill-opacity="0.92"/>
<path d="M55.1629 34.2548H53.299V42.3114H55.1629V34.2548Z" fill="#001636" fill-opacity="0.92"/>
<path d="M58.813 42.4795C57.8786 42.4795 57.1311 42.1921 56.5695 41.6173C56.03 41.0158 55.7312 40.2374 55.7293 39.4303C55.7274 38.6233 56.0228 37.8437 56.5594 37.2397C57.1056 36.7114 57.8291 36.404 58.5896 36.3771C59.35 36.35 60.0937 36.6051 60.6769 37.0931C61.3701 37.7258 61.7092 38.6613 61.6934 39.8996H57.5433C57.5798 40.2459 57.7268 40.5713 57.9622 40.8283C58.0775 40.9415 58.2153 41.0294 58.3667 41.0867C58.5185 41.1439 58.6799 41.1691 58.8418 41.1606C59.3169 41.1606 59.6368 40.9692 59.8021 40.5863H61.5925C61.4532 41.1473 61.1059 41.6345 60.6202 41.9496C60.0889 42.3117 59.4562 42.497 58.813 42.4795ZM57.5433 38.8056H59.8261C59.8131 38.5001 59.6921 38.2091 59.4841 37.9843C59.3865 37.8845 59.2698 37.8059 59.1401 37.7534C59.0109 37.7009 58.872 37.6757 58.7323 37.6793C58.0765 37.6793 57.6778 38.0547 57.5366 38.8056" fill="#001636" fill-opacity="0.92"/>
<path d="M62.2478 42.3112V36.5363H64.0108V37.3594H64.045C64.216 37.0484 64.4706 36.7908 64.78 36.6154C65.0889 36.44 65.441 36.3537 65.7965 36.3659C66.14 36.349 66.4801 36.438 66.7712 36.621C67.0623 36.804 67.2895 37.0719 67.4226 37.3883H67.4533C67.6368 37.0709 67.903 36.8085 68.2229 36.6287C68.5429 36.4488 68.9056 36.3581 69.2731 36.3659C69.912 36.3659 70.3991 36.5629 70.7354 36.9572C71.0712 37.3514 71.2388 37.883 71.2374 38.5522V42.301H69.3874V38.8759C69.3874 38.2216 69.1174 37.8961 68.5741 37.8961C68.4444 37.8905 68.3152 37.9169 68.1984 37.9728C68.0812 38.0285 67.9799 38.1122 67.903 38.2165C67.7296 38.4658 67.6441 38.7655 67.6604 39.0685V42.3061H65.8186V38.881C65.8186 38.2267 65.5467 37.9012 65.0053 37.9012C64.8751 37.8956 64.7459 37.9218 64.6286 37.9776C64.5114 38.0335 64.4096 38.1173 64.3322 38.2216C64.1588 38.4709 64.0738 38.7706 64.0896 39.0736V42.3112H62.2478Z" fill="#001636" fill-opacity="0.92"/>
<path d="M73.7008 42.458C73.182 42.4834 72.6718 42.3191 72.2654 41.9962C72.0834 41.8347 71.9397 41.6341 71.846 41.4095C71.7524 41.1851 71.7106 40.9423 71.724 40.6995C71.724 40.115 71.9205 39.6873 72.3115 39.4215C72.8049 39.1197 73.3617 38.9365 73.9382 38.8864C74.3321 38.855 74.7212 38.7773 75.0964 38.6546C75.1857 38.6286 75.264 38.5746 75.3202 38.5006C75.376 38.4266 75.4067 38.3367 75.4072 38.244C75.4072 37.8304 75.1439 37.6237 74.6165 37.6237C74.051 37.6237 73.7383 37.8725 73.6783 38.3667H71.9839C71.9906 38.0928 72.0574 37.8239 72.1794 37.5787C72.3015 37.3333 72.4763 37.118 72.691 36.9472C73.1388 36.5723 73.7763 36.3849 74.6045 36.3849C75.4326 36.3849 76.0586 36.5422 76.4837 36.8569C76.9742 37.2113 77.2183 37.7583 77.2183 38.503V41.41C77.2183 41.8643 77.286 42.1387 77.4215 42.2331V42.3115H75.633C75.5273 42.1119 75.4624 41.8936 75.4418 41.6691H75.4178C75.0488 42.1961 74.4791 42.459 73.709 42.458H73.7008ZM74.297 41.2856C74.604 41.2995 74.9047 41.1972 75.1391 40.9993C75.2443 40.9055 75.3279 40.7896 75.3832 40.6601C75.4389 40.5304 75.4653 40.3903 75.4605 40.2496V39.568C75.155 39.7001 74.8374 39.8023 74.5122 39.873C74.236 39.9187 73.9708 40.0183 73.733 40.1661C73.6581 40.2218 73.598 40.2951 73.5586 40.3796C73.5188 40.464 73.501 40.5568 73.5058 40.65C73.5058 41.0795 73.7691 41.2925 74.297 41.2925" fill="#001636" fill-opacity="0.92"/>
<path d="M80.31 42.5005C79.9622 42.5111 79.6168 42.4424 79.2997 42.2998C78.9827 42.1572 78.7021 41.9443 78.4802 41.6775C78.0142 41.1288 77.7807 40.3812 77.7798 39.435C77.7798 38.5329 78.0147 37.7984 78.485 37.2317C78.7031 36.9589 78.9808 36.7401 79.2973 36.5922C79.6139 36.4444 79.9603 36.3717 80.31 36.3797C80.6275 36.3676 80.9427 36.4369 81.2256 36.5811C81.5086 36.7253 81.7497 36.9391 81.926 37.2027H81.9602V34.2548H83.802V42.3114H82.0389V41.5343H82.0164C81.8497 41.8372 81.6013 42.0873 81.2996 42.2565C80.9974 42.4257 80.6544 42.5073 80.3081 42.492L80.31 42.5005ZM80.7832 41.0385C80.9571 41.0444 81.13 41.0066 81.2862 40.9286C81.4418 40.8505 81.5754 40.7348 81.6748 40.592C81.9073 40.2488 82.0226 39.84 82.0029 39.4265C82.0236 39.0015 81.9179 38.5799 81.6988 38.2149C81.6027 38.0677 81.4697 37.9481 81.3131 37.868C81.1565 37.7879 80.9811 37.75 80.8053 37.7582C80.6357 37.7536 80.4685 37.7928 80.3187 37.8719C80.1693 37.951 80.0424 38.0674 79.9512 38.2098C79.7494 38.5751 79.6437 38.9855 79.6437 39.4026C79.6437 39.8198 79.7494 40.2301 79.9512 40.5954C80.0405 40.734 80.1649 40.8473 80.311 40.9243C80.4575 41.0013 80.6213 41.0395 80.7866 41.0351" fill="#001636" fill-opacity="0.92"/>
</g>
<defs>
<clipPath id="clip0_614_2655">
<rect width="98" height="44" fill="white"/>
</clipPath>
</defs>
</svg>
