<svg width="186" height="78" viewBox="0 0 186 78" fill="none" xmlns="http://www.w3.org/2000/svg">
<path d="M181.602 58.3849C181.824 58.3134 182.02 58.1521 182.157 57.9272C182.294 57.7023 182.365 57.4272 182.357 57.147C183.936 46.2485 184.795 35.213 184.926 24.1467C184.926 20.96 186.135 10.3726 183.739 6.18497C183.701 5.90515 183.601 5.64358 183.448 5.42961C183.296 5.21565 183.097 5.05768 182.875 4.97341L182.422 4.78911L182.012 4.57837H181.775C176.627 3.01862 171.343 2.23151 166.04 2.23442C156.888 1.65501 148.168 0.706847 138.973 0.891206C138.809 0.893816 138.647 0.938658 138.498 1.02286C135.52 0.206412 132.023 3.9463 131.44 7.55447C128.289 7.76516 125.418 8.10758 124.188 8.08124C117.713 7.94955 110.503 1.60233 103.942 0.180136C98.9775 -1.00503 93.1497 3.94625 89.1566 6.60629C88.4228 7.08036 87.7753 7.47542 87.1278 7.84413C87.1278 7.84413 87.1277 7.84413 86.9551 7.84413C80.989 5.89487 74.6905 6.06851 68.8027 8.34454C61.2483 10.9782 54.7298 14.9815 46.7652 12.1371C46.5153 9.47386 46.1187 6.83419 45.5781 4.23598C45.5388 4.03795 45.4668 3.85179 45.3666 3.68879C45.2664 3.52579 45.1401 3.38939 44.9953 3.28788H44.7795C44.5133 3.17945 44.2255 3.17945 43.9593 3.28788C30.2749 7.65983 15.8998 3.94631 2.08587 1.89203C1.73841 1.89881 1.40674 2.07026 1.16102 2.37009C0.915297 2.66992 0.774786 3.07458 0.769226 3.49854C1.02824 14.7181 2.92764 25.727 3.35933 36.9202C3.56195 48.3472 3.22323 59.779 2.34487 71.1583C2.342 71.368 2.37338 71.5764 2.43718 71.7712C2.50098 71.9659 2.59593 72.1433 2.71647 72.2928C2.83701 72.4423 2.98074 72.5611 3.13929 72.6421C3.29784 72.7232 3.46803 72.765 3.63993 72.7649C15.4897 72.0012 27.3826 72.3172 39.1676 72.7649C39.4352 72.7897 39.7016 72.701 39.9218 72.5138C40.142 72.3267 40.3025 72.0526 40.3763 71.7377V71.6061C42.1678 64.8375 43.9593 58.0689 45.6644 51.2739C55.3773 50.9579 62.3059 54.9084 70.4863 61.4927C77.083 67.0838 84.2906 71.5166 91.8978 74.6612C94.9844 75.8727 100.532 79.9285 103.985 76.8998C105.279 76.0798 106.284 74.713 106.813 73.0546C107.194 72.3135 107.457 71.4916 107.59 70.6316C107.727 70.7071 107.872 70.7602 108.021 70.7896C109.303 71.0314 110.615 70.865 111.829 70.3067C113.042 69.7484 114.118 68.817 114.95 67.6028C117.108 63.2045 120.044 65.2061 122.591 61.756C124.749 58.7009 124.231 57.1207 127.771 56.0936C131.311 55.0664 132.368 51.2213 132.843 47.5867L133.879 47.7184L134.138 47.8764C134.138 53.4335 133.534 59.0959 133.879 64.6267C134.009 66.7864 134.915 70.3946 137.203 70.0259C137.296 70.0991 137.398 70.1525 137.505 70.1839C141.65 71.4744 149.096 66.7864 153.175 65.4432C162.414 62.4408 171.911 60.7553 181.235 58.78L181.602 58.3849ZM43.4628 49.2459C41.7793 55.9092 40.0309 62.5461 38.261 69.183H36.8581C37.1582 68.5868 37.432 67.9714 37.6783 67.3395C38.5804 65.3509 39.304 63.2493 39.8367 61.0713C39.8567 60.9735 39.8441 60.87 39.8016 60.7835C39.7591 60.6971 39.6902 60.6348 39.61 60.6103C39.5299 60.5859 39.4451 60.6013 39.3743 60.6532C39.3034 60.705 39.2524 60.7891 39.2323 60.8869C38.8236 62.5683 38.3039 64.2065 37.6783 65.7855C37.2897 66.9737 36.8052 68.1118 36.2321 69.183H34.5917C35.9663 66.7455 37.056 64.0863 37.8293 61.2819C37.8293 60.8342 37.3329 60.6235 37.225 61.0976C36.4167 63.9743 35.2912 66.7033 33.8794 69.2094H32.6707C34.1031 66.7821 35.2509 64.1227 36.081 61.3083C36.2321 60.8606 35.6925 60.4655 35.5414 60.9133C34.699 63.8676 33.4669 66.6342 31.8937 69.104H30.8577C31.9452 66.9023 32.9114 64.6147 33.7499 62.2564C33.9226 61.8087 33.383 61.44 33.2103 61.8614C32.3605 64.3879 31.3199 66.8126 30.1022 69.104H28.6129C29.7889 67.2529 30.6944 65.168 31.2893 62.9412C31.4188 62.4935 30.8145 62.2827 30.685 62.7568C30.0689 65.0659 29.1105 67.2174 27.8574 69.104H26.0659C27.328 67.2573 28.3541 65.1885 29.1093 62.9676C29.2604 62.5198 28.6561 62.3354 28.505 62.7832C27.7174 65.0907 26.6154 67.2189 25.2457 69.0777H23.7996C25.0896 67.5455 26.0593 65.6578 26.6271 63.5733C26.6297 63.4851 26.608 63.3984 26.5655 63.327C26.5229 63.2556 26.4621 63.2036 26.3925 63.1793C26.323 63.1551 26.2488 63.16 26.1818 63.1932C26.1148 63.2265 26.0588 63.286 26.0228 63.3626C25.4175 65.5491 24.3709 67.5145 22.9794 69.0777H21.8139C22.667 67.7285 23.2974 66.19 23.6701 64.5477C23.6727 64.4595 23.651 64.3728 23.6084 64.3014C23.5659 64.23 23.505 64.1781 23.4355 64.1539C23.366 64.1296 23.2917 64.1345 23.2247 64.1677C23.1577 64.2009 23.1017 64.2605 23.0657 64.337C22.6784 66.0698 21.986 67.6786 21.0368 69.0514H19.5691C20.3893 67.4185 21.08 65.6539 21.7275 63.942C21.9002 63.4943 21.3822 63.0992 21.1879 63.547L21.0368 63.863C20.9996 63.8199 20.9539 63.7891 20.9042 63.7735C20.8545 63.7579 20.8023 63.758 20.7527 63.7738C20.703 63.7896 20.6574 63.8206 20.6203 63.8638C20.5831 63.9071 20.5556 63.9612 20.5404 64.021C20.2622 65.2689 19.8173 66.4524 19.2238 67.5238L18.3604 69.025H16.202C17.3694 67.6279 18.3329 65.998 19.0511 64.2054C19.2453 63.784 18.7057 63.3889 18.5115 63.8103C17.8169 65.8878 16.6851 67.7048 15.2307 69.0777L12.1657 68.8934C12.7765 67.8648 13.3111 66.7719 13.7629 65.6275C13.914 65.1798 13.396 64.8111 13.2233 65.2589C12.7272 66.5155 12.1269 67.7069 11.4318 68.8144L9.4461 68.63C10.2144 66.7069 10.8848 64.7279 11.4534 62.7042C11.6045 62.2301 11.0001 62.0457 10.8491 62.4934C10.2477 64.5722 9.52639 66.5965 8.69063 68.551L7.7841 68.4193C8.38846 66.2069 9.07914 63.9946 9.66192 61.756C9.66449 61.6678 9.64279 61.5811 9.60026 61.5097C9.55774 61.4383 9.49687 61.3864 9.42732 61.3622C9.35778 61.3379 9.28359 61.3428 9.21657 61.376C9.14956 61.4092 9.09357 61.4688 9.05756 61.5453C8.47479 63.8103 7.78412 66.049 7.15817 68.314L6.40271 68.1559C6.8344 65.5222 7.43876 62.8885 7.95678 60.4129C7.95678 59.9388 7.43876 59.7544 7.35242 60.2285C6.8344 62.8622 6.23004 65.3642 5.79836 67.9716C5.34509 67.7872 5.10768 67.6029 5.10768 67.3922C6.05313 54.7827 6.19022 42.1024 5.51775 29.4669C5.06448 23.2777 4.17954 17.1412 3.63993 11.031C3.33775 7.58082 4.28746 6.15862 5.79836 5.76357C5.64727 7.9232 5.47458 10.0828 5.453 12.2688C5.47129 12.3531 5.5119 12.4275 5.5685 12.4807C5.62511 12.5338 5.69455 12.5627 5.76598 12.5627C5.83741 12.5627 5.90685 12.5338 5.96346 12.4807C6.02007 12.4275 6.06067 12.3531 6.07896 12.2688C6.07896 10.0302 6.27322 7.84414 6.44589 5.63184C7.62073 5.5692 8.79708 5.70209 9.94252 6.02687C9.94252 6.57995 9.79143 7.15941 9.76985 7.63347C9.67531 9.73628 9.42975 11.8249 9.03599 13.8753C9.03599 14.3494 9.55401 14.5338 9.64035 14.0597C9.94877 12.3205 10.1794 10.5621 10.3311 8.79231C10.3311 7.89685 10.3311 6.94872 10.4606 6.15861L12.3168 6.63265C12.101 9.082 11.6045 11.4523 11.216 13.8753C11.216 14.3494 11.734 14.5338 11.8203 14.0597C12.2089 11.6367 12.7053 9.24001 12.9427 6.79067C13.547 6.96881 14.1597 7.10074 14.7774 7.18571C14.7574 8.26179 14.6342 9.33138 14.4105 10.3725C14.2378 11.6367 13.9788 13.0063 13.8493 14.1651C13.8493 14.6391 14.4105 14.6391 14.4752 14.1651C14.6479 12.3742 15.058 10.6359 15.2307 8.89768C15.2995 8.37454 15.3428 7.84685 15.3602 7.31744H16.1156C16.055 9.57358 15.765 11.8118 15.2523 13.9807C15.2322 14.0785 15.2448 14.182 15.2873 14.2684C15.3298 14.3549 15.3987 14.4171 15.4789 14.4416C15.559 14.466 15.6439 14.4507 15.7147 14.3988C15.7855 14.3469 15.8366 14.2629 15.8566 14.1651C16.3781 11.9617 16.6753 9.68842 16.7416 7.39645L17.9287 7.55447C17.9571 8.63946 17.8479 9.7233 17.6049 10.7676C17.3669 12.0505 17.0494 13.3095 16.6552 14.5338C16.5041 15.0078 17.1085 15.1922 17.2596 14.7445C17.7685 13.1329 18.1516 11.4663 18.4035 9.76677C18.5126 9.07279 18.556 8.36589 18.533 7.65984L19.6339 7.79149C19.7236 10.4427 19.2867 13.0812 18.3604 15.4819C18.2309 15.956 18.8352 16.1667 18.9647 15.6926C19.8834 13.2118 20.3404 10.5134 20.303 7.79149L21.598 7.9495C21.3924 10.2147 21.0898 12.4652 20.6915 14.6918C20.6915 15.1658 21.2311 15.3766 21.2959 14.8762C21.7219 12.5129 22.0318 10.1208 22.224 7.71248L23.7565 7.84413C23.6437 8.9543 23.4706 10.0541 23.2384 11.1363C22.9578 12.6638 22.5909 14.165 22.2671 15.6926C22.2671 16.1667 22.7852 16.3773 22.8715 15.9033C23.3032 13.9016 23.7564 11.9264 24.0802 9.89842C24.2018 9.22866 24.2954 8.55184 24.3608 7.8705H25.699C25.4985 10.1183 25.0782 12.3288 24.4471 14.4547C24.3176 14.9288 24.922 15.1132 25.0515 14.6391C25.5502 12.8653 25.9187 11.0409 26.1523 9.18735C26.2153 8.77005 26.2514 8.34733 26.2602 7.92314H27.879C27.5768 10.5568 27.0588 13.0326 26.6271 15.5609C26.6271 16.035 27.1452 16.2457 27.2315 15.7716C27.6632 13.1379 28.2028 10.5042 28.4834 7.8705H30.0806C30.0984 10.683 29.8302 13.4874 29.282 16.2194C29.282 16.6934 29.8 16.9041 29.8648 16.4037C30.4568 13.6175 30.7471 10.7487 30.7281 7.8705H31.721C32.6491 10.2145 31.721 13.928 31.1383 16.2456C31.0088 16.7197 31.6131 16.9041 31.7426 16.43C32.6663 13.7142 32.8922 10.72 32.3901 7.84413H34.5486C34.5486 9.26633 34.2464 11.3996 34.2032 11.6367C34.0305 13.0062 33.7715 14.4021 33.5557 15.7716C33.5557 16.2457 34.0953 16.4564 34.16 15.9823C34.6714 13.2941 34.9606 10.5501 35.0234 7.79149L36.3185 7.65984C36.2105 10.5306 35.7357 13.3749 35.563 16.2456C35.563 16.746 36.1674 16.746 36.189 16.2456C36.3616 13.3749 36.8365 10.5042 36.9444 7.60711L38.11 7.42281C38.1142 10.5748 37.8903 13.7211 37.4408 16.8251C37.4408 17.2991 38.002 17.2991 38.0668 16.8251C38.5295 13.6881 38.7463 10.5046 38.7143 7.31744L40.2036 7.05406C40.9807 7.65981 40.2036 11.426 40.2036 12.3215C39.9662 14.1387 39.6424 15.9296 39.3834 17.7205C39.3834 18.1946 39.9014 18.4053 39.9662 17.9313C40.3115 15.6136 40.7432 13.296 40.9807 10.952C41.2925 9.66259 41.2925 8.29078 40.9807 7.00141L42.103 6.71166C42.1583 10.4971 41.7435 14.271 40.8727 17.9049C40.8727 18.4053 41.3908 18.5897 41.4555 18.1156C42.365 14.3651 42.7875 10.4637 42.7074 6.55365L43.3981 6.36927C43.3634 8.13063 43.2553 9.8887 43.0743 11.6367C42.7074 14.6128 42.1678 17.5888 41.6498 20.5386C41.6498 21.039 42.1462 21.2234 42.2325 20.7493C43.0071 16.795 43.5695 12.7833 43.9161 8.73966C44.132 10.2935 44.3262 11.8474 44.4989 13.4276C44.2183 15.2186 43.8945 16.9041 43.8298 17.3518C43.4353 20.3427 42.9094 23.3055 42.2541 26.2274C42.2515 26.3156 42.2733 26.4023 42.3158 26.4737C42.3583 26.5451 42.4192 26.5971 42.4887 26.6213C42.5583 26.6456 42.6325 26.6407 42.6995 26.6075C42.7665 26.5743 42.8225 26.5146 42.8585 26.4381C43.6714 22.8301 44.2915 19.1616 44.7147 15.4556L45.0385 18.0893C45.4572 28.3252 44.9651 38.5864 43.5708 48.6929C43.5708 48.6929 43.4197 49.1142 43.4197 49.2459H43.4628ZM135.822 5.07878C137.225 3.47222 138.541 4.02532 139.448 5.84258C139.742 6.4593 139.981 7.11265 140.16 7.79149C138.221 7.39311 136.253 7.25181 134.289 7.37009C134.7 6.51419 135.217 5.74123 135.822 5.07878ZM50.5425 47.4287H49.9813C50.2835 46.3752 50.6072 45.2954 50.8878 44.2155C50.7583 45.348 50.6504 46.4015 50.5425 47.455V47.4287ZM51.3411 40.2913C51.2967 40.2752 51.2499 40.2717 51.2042 40.2811C51.1585 40.2906 51.1152 40.3127 51.0777 40.3458C51.0401 40.3788 51.0093 40.422 50.9876 40.4719C50.9659 40.5219 50.9539 40.5772 50.9526 40.6337C50.6137 43.02 50.0562 45.3523 49.2906 47.5867H48.5135C49.0963 44.953 49.7654 42.3193 50.305 39.6856C50.3251 39.5879 50.3125 39.4843 50.27 39.3979C50.2274 39.3115 50.1585 39.2491 50.0784 39.2247C49.9983 39.2003 49.9135 39.2157 49.8426 39.2675C49.7718 39.3194 49.7207 39.4035 49.7007 39.5013C49.1395 42.135 48.4704 44.7687 47.8876 47.5604C47.6788 47.5265 47.4752 47.4555 47.2833 47.3496C47.6743 44.5498 48.2739 41.7993 49.0747 39.1325C49.0773 39.0443 49.0556 38.9576 49.0131 38.8862C48.9706 38.8149 48.9097 38.7628 48.8401 38.7386C48.7706 38.7144 48.6964 38.7192 48.6294 38.7524C48.5624 38.7856 48.5064 38.8453 48.4704 38.9218C47.7468 41.4234 47.1698 43.9846 46.7436 46.5859C46.5859 45.7808 46.5859 44.9416 46.7436 44.1365C47.715 34.5714 47.9535 24.9167 47.4559 15.2976C49.2752 15.8031 51.1374 16.0418 53.0031 16.0086C53.0161 24.1545 52.4601 32.287 51.3411 40.3177V40.2913ZM123.907 53.0385C121.188 49.9834 118.274 47.2443 115.554 44.2155C114.302 42.8197 112.424 45.0847 113.698 46.4806C116.374 49.4566 119.245 52.1693 121.922 55.1717C120.389 59.5173 118.144 61.3083 115.187 60.4391C113.038 57.6592 110.769 55.0217 108.388 52.538C107.093 51.2212 105.215 53.4599 106.532 54.8031C108.843 57.2322 111.048 59.808 113.137 62.5198C111.971 64.6268 112.986 68.2086 106.791 66.9707C105.796 65.6026 104.705 64.3425 103.532 63.2046C102.032 61.453 100.439 59.8252 98.7617 58.3322C97.3587 57.147 96.042 59.9388 97.4234 60.9659C98.945 62.2972 100.388 63.7582 101.74 65.3379C102.453 66.128 103.165 66.9181 103.899 67.7345C104.179 68.0506 104.438 68.3403 104.676 68.6564L104.805 68.8407C104.05 79.7178 81.8828 65.7066 79.6596 64.2317C73.1843 59.8861 67.4645 53.5126 60.5575 49.9571C58.2249 48.7462 55.7722 47.9138 53.2621 47.4814C54.3845 36.9466 55.9601 26.4118 55.6795 15.877C64.9607 14.5865 73.8534 8.34456 83.6095 10.0038C81.8779 11.3824 80.5776 13.4329 79.9186 15.8242C77.3717 23.7253 77.6523 33.4964 76.2925 41.7926C76.2351 42.0684 76.2432 42.3585 76.3158 42.6289C76.3885 42.8994 76.5226 43.1391 76.7026 43.3201C76.783 43.5078 76.8931 43.6743 77.0264 43.8099C77.1598 43.9455 77.3138 44.0476 77.4796 44.1102C87.9695 48.1398 89.243 33.2594 92.3943 24.6999C97.4882 24.9896 101.783 28.15 106.748 26.043C112.295 33.9441 122.224 39.8963 129.26 45.6115C129.561 45.8253 129.87 46.0187 130.188 46.1908C128.354 48.6928 129.649 52.9068 123.907 53.0648V53.0385ZM133.555 44.0839C132.47 43.9611 131.422 43.5378 130.49 42.846C123.691 37.447 113.676 31.2578 108.41 23.6727C108.35 23.4456 108.25 23.2371 108.118 23.0614C107.985 22.8856 107.823 22.7467 107.643 22.6542C107.463 22.5617 107.268 22.5178 107.073 22.5254C106.877 22.533 106.685 22.5919 106.51 22.6982C102.021 25.3319 97.445 22.1189 92.826 21.5658C92.7114 21.3427 92.5523 21.1587 92.3635 21.0312C92.1747 20.9037 91.9625 20.8368 91.7468 20.8368C91.531 20.8368 91.3188 20.9037 91.13 21.0312C90.9412 21.1587 90.7821 21.3427 90.6676 21.5658C87.84 27.913 87.1061 43.2938 78.9689 41.2132C79.8538 35.419 80.3503 29.5722 81.1273 23.7517C82.0986 15.9823 85.1204 12.6902 90.6028 9.18735C97.7472 4.63105 102.712 2.20803 110.762 5.55283C114.691 7.15938 119.547 11.1363 123.713 11.2153H131.785C135.455 21.3023 134.894 33.4964 133.555 44.1102V44.0839ZM134.57 11.426L141.045 11.5577C141.283 12.9535 141.477 14.3757 141.736 15.6662C142.189 22.6719 142.383 36.7358 142.47 43.3991C140.527 43.6361 138.326 44.0575 136.21 44.1629C137.484 33.4964 137.937 21.6185 134.57 11.4524V11.426ZM138.779 65.1008C136.081 68.9197 136.491 61.914 136.62 60.0177C136.75 55.8038 136.901 51.5899 136.923 47.376H137.678C137.966 48.4741 138.018 49.6439 137.829 50.7735C137.829 52.064 137.548 53.4072 137.354 54.6713C137.354 55.1454 137.872 55.3561 137.937 54.8821C138.595 52.4351 138.722 49.8215 138.304 47.297H138.887C138.977 49.2739 138.926 51.2566 138.736 53.2228C138.736 53.6969 139.275 53.9076 139.34 53.4335C139.538 51.371 139.595 49.2921 139.513 47.218H140.117C140.117 49.2723 139.988 51.3529 139.966 53.4072C139.984 53.4915 140.025 53.566 140.081 53.6192C140.138 53.6723 140.207 53.7011 140.279 53.7011C140.35 53.7011 140.42 53.6723 140.476 53.6192C140.533 53.566 140.574 53.4915 140.592 53.4072C140.592 51.3002 140.721 49.2196 140.743 47.1126H141.261C141.38 48.9182 141.38 50.7325 141.261 52.538C141.279 52.6223 141.32 52.6968 141.377 52.75C141.433 52.8031 141.503 52.832 141.574 52.832C141.645 52.832 141.715 52.8031 141.771 52.75C141.828 52.6968 141.869 52.6223 141.887 52.538C141.963 50.7019 141.919 48.8614 141.757 47.0336H142.362V49.8517C142.146 55.5142 141.39 61.3873 138.779 65.1008ZM180.285 53.3545C179.983 55.7248 180.631 55.2508 179.443 55.0927C179.204 55.036 178.956 55.0841 178.743 55.2286C178.529 55.3732 178.365 55.6049 178.278 55.8829C171.695 57.2524 165.112 58.5166 158.572 60.3075C154.665 61.3083 150.801 62.5988 146.938 63.8893C145.837 64.258 143.635 65.4432 141.628 66.207C144.52 61.4663 145.038 53.1965 145.125 47.06C145.114 46.8846 145.114 46.7086 145.125 46.5332C145.125 45.19 145.125 43.8995 145.125 42.8987C145.147 42.733 145.147 42.564 145.125 42.3984C145.017 36.2618 144.909 30.1516 144.693 23.9625C144.693 21.3287 144.693 18.4843 144.326 15.6399C144.38 15.3896 144.38 15.1265 144.326 14.8762C143.936 11.127 143.07 7.47488 141.757 4.0516L143.722 4.0516C144.397 5.68968 144.967 7.38917 145.427 9.1347C145.578 9.58243 146.182 9.39805 146.031 8.95032C145.579 7.27144 145.046 5.62687 144.434 4.02532H146.096C146.757 5.67356 147.313 7.38179 147.758 9.1347C147.887 9.60877 148.492 9.39805 148.362 8.95032C147.927 7.26782 147.401 5.62253 146.787 4.02532H147.887C148.381 5.82689 148.973 7.58654 149.657 9.29272C149.852 9.71411 150.391 9.29273 150.197 8.89768C149.567 7.32238 149.013 5.70432 148.535 4.0516H149.852C150.645 5.55498 151.262 7.1861 151.686 8.89768C151.837 9.34541 152.377 8.89764 152.226 8.52892C151.806 6.99316 151.278 5.50408 150.65 4.07796H151.341C151.325 4.11928 151.317 4.16424 151.317 4.20969C151.317 4.25515 151.325 4.30003 151.341 4.34135C152.115 5.91993 152.794 7.56606 153.37 9.26635C153.542 9.71408 154.06 9.26637 153.909 8.87132C153.333 7.23609 152.677 5.64427 151.945 4.10432H153.65C154.192 5.74011 154.66 7.41057 155.053 9.10834C155.161 9.58241 155.766 9.37169 155.658 8.92396C155.226 7.3174 154.859 5.68457 154.341 4.13069H155.118C155.785 5.67902 156.383 7.27035 156.91 8.89768C157.061 9.34541 157.665 9.161 157.514 8.68694C157.015 7.16093 156.453 5.66665 155.83 4.20969L157.6 4.39399C158.226 6.05322 158.787 7.73883 159.435 9.37173C159.608 9.81945 160.147 9.37174 159.975 8.97669C159.37 7.50181 158.852 5.97421 158.313 4.473L159.629 4.63102C160.344 6.15384 160.895 7.78262 161.27 9.4771C161.306 9.55364 161.362 9.61324 161.429 9.64644C161.496 9.67965 161.57 9.68451 161.639 9.66027C161.709 9.63602 161.77 9.58409 161.812 9.5127C161.855 9.44131 161.877 9.35455 161.874 9.26635C161.503 7.69463 161.012 6.16907 160.406 4.71002H160.622C161.226 4.71002 161.831 4.86812 162.457 4.94713C163.083 6.55369 163.385 8.37089 163.903 10.0038C164.054 10.4515 164.658 10.2671 164.507 9.81941C164.011 8.26553 163.687 6.58002 163.147 5.02614H164.421C165.09 6.7117 165.522 8.52896 166.277 10.2935C166.471 10.7149 167.011 10.2935 166.817 9.89842C166.197 8.37182 165.642 6.80707 165.155 5.21043L166.752 5.34217C167.486 7.02774 167.896 8.97667 168.608 10.6096C168.802 11.0573 169.342 10.6095 169.148 10.2408C168.479 8.68693 168.069 6.92239 167.443 5.34217L169.364 5.47382C169.426 5.70635 169.498 5.93492 169.579 6.15861C170.258 7.95233 170.856 9.78986 171.371 11.663C171.522 12.1108 172.105 11.9264 171.975 11.4524C171.414 9.55611 170.831 7.63344 170.119 5.78985C170.11 5.70237 170.11 5.61402 170.119 5.52655L171.652 5.6582C171.911 6.42197 172.062 7.44907 172.213 8.00215C172.533 9.28378 172.915 10.5414 173.357 11.7684C173.529 12.1898 174.069 11.7684 173.896 11.3734C173.414 9.98679 172.989 8.57155 172.623 7.13306C172.623 6.76435 172.429 6.23761 172.299 5.73721L174.112 5.92158C174.112 6.07961 174.242 6.2113 174.285 6.34299C174.587 7.10676 174.846 7.87046 175.105 8.66057C175.546 10.0458 176.051 11.3998 176.616 12.7165C176.667 12.7796 176.734 12.8199 176.806 12.831C176.878 12.8422 176.951 12.8235 177.013 12.7779C177.075 12.7323 177.123 12.6626 177.149 12.5798C177.175 12.497 177.177 12.406 177.156 12.3215C176.383 10.5238 175.705 8.66763 175.127 6.76439L174.889 6.05324L176.767 6.36927C177.674 8.50257 178.148 10.8203 178.925 13.0062C179.098 13.454 179.638 13.0062 179.465 12.6375C178.753 10.5832 178.256 8.44994 177.458 6.42199C178.666 6.68536 179.832 7.05404 180.998 7.4491C181.192 8.21287 181.278 9.02931 181.386 9.58239C181.645 11.0046 181.839 12.4531 182.163 13.8753C182.199 13.9519 182.255 14.0115 182.322 14.0447C182.389 14.0779 182.463 14.0828 182.533 14.0585C182.602 14.0343 182.663 13.9823 182.706 13.9109C182.748 13.8395 182.77 13.7529 182.767 13.6647C182.422 12.1371 182.206 10.5569 181.926 9.00297C181.926 8.63425 181.775 8.21286 181.71 7.76513C183.976 10.0301 182.185 30.257 182.077 32.759C181.818 37.605 181.458 42.451 180.998 47.297C180.695 49.404 180.48 51.3792 180.264 53.3545H180.285Z" fill="#001636" fill-opacity="0.92"/>
<path d="M43.4628 49.2459C41.7793 55.9092 40.0309 62.5461 38.261 69.183H36.8581C37.1582 68.5868 37.432 67.9714 37.6783 67.3395C38.5804 65.3509 39.304 63.2493 39.8367 61.0713C39.8567 60.9735 39.8441 60.87 39.8016 60.7835C39.7591 60.6971 39.6902 60.6348 39.61 60.6103C39.5299 60.5859 39.4451 60.6013 39.3743 60.6532C39.3034 60.705 39.2524 60.7891 39.2323 60.8869C38.8236 62.5683 38.3039 64.2065 37.6783 65.7855C37.2897 66.9737 36.8052 68.1118 36.2321 69.183H34.5917C35.9663 66.7455 37.056 64.0863 37.8293 61.2819C37.8293 60.8342 37.3329 60.6235 37.225 61.0976C36.4167 63.9743 35.2912 66.7033 33.8794 69.2094H32.6707C34.1031 66.7821 35.2509 64.1227 36.081 61.3083C36.2321 60.8606 35.6925 60.4655 35.5414 60.9133C34.699 63.8676 33.4669 66.6342 31.8937 69.104H30.8577C31.9452 66.9023 32.9114 64.6147 33.7499 62.2564C33.9226 61.8087 33.383 61.44 33.2103 61.8614C32.3605 64.3879 31.3199 66.8126 30.1022 69.104H28.6129C29.7889 67.2529 30.6944 65.168 31.2893 62.9412C31.4188 62.4935 30.8145 62.2827 30.685 62.7568C30.0689 65.0659 29.1105 67.2174 27.8574 69.104H26.0659C27.328 67.2573 28.3541 65.1885 29.1093 62.9676C29.2604 62.5198 28.6561 62.3354 28.505 62.7832C27.7174 65.0907 26.6154 67.2189 25.2457 69.0777H23.7996C25.0896 67.5455 26.0593 65.6578 26.6271 63.5733C26.6297 63.4851 26.608 63.3984 26.5655 63.327C26.5229 63.2556 26.4621 63.2036 26.3925 63.1793C26.323 63.1551 26.2488 63.16 26.1818 63.1932C26.1148 63.2265 26.0588 63.286 26.0228 63.3626C25.4175 65.5491 24.3709 67.5145 22.9794 69.0777H21.8139C22.667 67.7285 23.2974 66.19 23.6701 64.5477C23.6727 64.4595 23.651 64.3728 23.6084 64.3014C23.5659 64.23 23.505 64.1781 23.4355 64.1539C23.366 64.1296 23.2917 64.1345 23.2247 64.1677C23.1577 64.2009 23.1017 64.2605 23.0657 64.337C22.6784 66.0698 21.986 67.6786 21.0368 69.0514H19.5691C20.3893 67.4185 21.08 65.6539 21.7275 63.942C21.9002 63.4943 21.3822 63.0992 21.1879 63.547L21.0368 63.863C20.9996 63.8199 20.9539 63.7891 20.9042 63.7735C20.8545 63.7579 20.8023 63.758 20.7527 63.7738C20.703 63.7896 20.6574 63.8206 20.6203 63.8638C20.5831 63.9071 20.5556 63.9612 20.5404 64.021C20.2622 65.2689 19.8173 66.4524 19.2238 67.5238L18.3604 69.025H16.202C17.3694 67.6279 18.3329 65.998 19.0511 64.2054C19.2453 63.784 18.7057 63.3889 18.5115 63.8103C17.8169 65.8878 16.6851 67.7048 15.2307 69.0777L12.1657 68.8934C12.7765 67.8648 13.3111 66.7719 13.7629 65.6275C13.914 65.1798 13.396 64.8111 13.2233 65.2589C12.7272 66.5155 12.1269 67.7069 11.4318 68.8144L9.4461 68.63C10.2144 66.7069 10.8848 64.7279 11.4534 62.7042C11.6045 62.2301 11.0001 62.0457 10.8491 62.4934C10.2477 64.5722 9.52639 66.5965 8.69063 68.551L7.7841 68.4193C8.38846 66.2069 9.07914 63.9946 9.66192 61.756C9.66449 61.6678 9.64279 61.5811 9.60026 61.5097C9.55774 61.4383 9.49687 61.3864 9.42732 61.3622C9.35778 61.3379 9.28359 61.3428 9.21657 61.376C9.14956 61.4092 9.09357 61.4688 9.05756 61.5453C8.47479 63.8103 7.78412 66.049 7.15817 68.314L6.40271 68.1559C6.8344 65.5222 7.43876 62.8885 7.95678 60.4129C7.95678 59.9388 7.43876 59.7544 7.35242 60.2285C6.8344 62.8622 6.23004 65.3642 5.79836 67.9716C5.34509 67.7872 5.10768 67.6029 5.10768 67.3922C6.05313 54.7827 6.19022 42.1024 5.51775 29.4669C5.06448 23.2777 4.17954 17.1412 3.63993 11.031C3.33775 7.58082 4.28746 6.15862 5.79836 5.76357C5.64727 7.9232 5.47458 10.0828 5.453 12.2688C5.47129 12.3531 5.5119 12.4275 5.5685 12.4807C5.62511 12.5338 5.69455 12.5627 5.76598 12.5627C5.83741 12.5627 5.90685 12.5338 5.96346 12.4807C6.02007 12.4275 6.06067 12.3531 6.07896 12.2688C6.07896 10.0302 6.27322 7.84414 6.44589 5.63184C7.62073 5.5692 8.79708 5.70209 9.94252 6.02687C9.94252 6.57995 9.79143 7.15941 9.76985 7.63347C9.67531 9.73628 9.42975 11.8249 9.03599 13.8753C9.03599 14.3494 9.55401 14.5338 9.64035 14.0597C9.94877 12.3205 10.1794 10.5621 10.3311 8.79231C10.3311 7.89685 10.3311 6.94872 10.4606 6.15861L12.3168 6.63265C12.101 9.082 11.6045 11.4523 11.216 13.8753C11.216 14.3494 11.734 14.5338 11.8203 14.0597C12.2089 11.6367 12.7053 9.24001 12.9427 6.79067C13.547 6.96881 14.1597 7.10074 14.7774 7.18571C14.7574 8.26179 14.6342 9.33138 14.4105 10.3725C14.2378 11.6367 13.9788 13.0063 13.8493 14.1651C13.8493 14.6391 14.4105 14.6391 14.4752 14.1651C14.6479 12.3742 15.058 10.6359 15.2307 8.89768C15.2995 8.37454 15.3428 7.84685 15.3602 7.31744H16.1156C16.055 9.57358 15.765 11.8118 15.2523 13.9807C15.2322 14.0785 15.2448 14.182 15.2873 14.2684C15.3298 14.3549 15.3987 14.4171 15.4789 14.4416C15.559 14.466 15.6439 14.4507 15.7147 14.3988C15.7855 14.3469 15.8366 14.2629 15.8566 14.1651C16.3781 11.9617 16.6753 9.68842 16.7416 7.39645L17.9287 7.55447C17.9571 8.63946 17.8479 9.7233 17.6049 10.7676C17.3669 12.0505 17.0494 13.3095 16.6552 14.5338C16.5041 15.0078 17.1085 15.1922 17.2596 14.7445C17.7685 13.1329 18.1516 11.4663 18.4035 9.76677C18.5126 9.07279 18.556 8.36589 18.533 7.65984L19.6339 7.79149C19.7236 10.4427 19.2867 13.0812 18.3604 15.4819C18.2309 15.956 18.8352 16.1667 18.9647 15.6926C19.8834 13.2118 20.3404 10.5134 20.303 7.79149L21.598 7.9495C21.3924 10.2147 21.0898 12.4652 20.6915 14.6918C20.6915 15.1658 21.2311 15.3766 21.2959 14.8762C21.7219 12.5129 22.0318 10.1208 22.224 7.71248L23.7565 7.84413C23.6437 8.9543 23.4706 10.0541 23.2384 11.1363C22.9578 12.6638 22.5909 14.165 22.2671 15.6926C22.2671 16.1667 22.7852 16.3773 22.8715 15.9033C23.3032 13.9016 23.7564 11.9264 24.0802 9.89842C24.2018 9.22866 24.2954 8.55184 24.3608 7.8705H25.699C25.4985 10.1183 25.0782 12.3288 24.4471 14.4547C24.3176 14.9288 24.922 15.1132 25.0515 14.6391C25.5502 12.8653 25.9187 11.0409 26.1523 9.18735C26.2153 8.77005 26.2514 8.34733 26.2602 7.92314H27.879C27.5768 10.5568 27.0588 13.0326 26.6271 15.5609C26.6271 16.035 27.1452 16.2457 27.2315 15.7716C27.6632 13.1379 28.2028 10.5042 28.4834 7.8705H30.0806C30.0984 10.683 29.8302 13.4874 29.282 16.2194C29.282 16.6934 29.8 16.9041 29.8648 16.4037C30.4568 13.6175 30.7471 10.7487 30.7281 7.8705H31.721C32.6491 10.2145 31.721 13.928 31.1383 16.2456C31.0088 16.7197 31.6131 16.9041 31.7426 16.43C32.6663 13.7142 32.8922 10.72 32.3901 7.84413H34.5486C34.5486 9.26633 34.2464 11.3996 34.2032 11.6367C34.0305 13.0062 33.7715 14.4021 33.5557 15.7716C33.5557 16.2457 34.0953 16.4564 34.16 15.9823C34.6714 13.2941 34.9606 10.5501 35.0234 7.79149L36.3185 7.65984C36.2105 10.5306 35.7357 13.3749 35.563 16.2456C35.563 16.746 36.1674 16.746 36.189 16.2456C36.3616 13.3749 36.8365 10.5042 36.9444 7.60711L38.11 7.42281C38.1142 10.5748 37.8903 13.7211 37.4408 16.8251C37.4408 17.2991 38.002 17.2991 38.0668 16.8251C38.5295 13.6881 38.7463 10.5046 38.7143 7.31744L40.2036 7.05406C40.9807 7.65981 40.2036 11.426 40.2036 12.3215C39.9662 14.1387 39.6424 15.9296 39.3834 17.7205C39.3834 18.1946 39.9014 18.4053 39.9662 17.9313C40.3115 15.6136 40.7432 13.296 40.9807 10.952C41.2925 9.66259 41.2925 8.29078 40.9807 7.00141L42.103 6.71166C42.1583 10.4971 41.7435 14.271 40.8727 17.9049C40.8727 18.4053 41.3908 18.5897 41.4555 18.1156C42.365 14.3651 42.7875 10.4637 42.7074 6.55365L43.3981 6.36927C43.3634 8.13063 43.2553 9.8887 43.0743 11.6367C42.7074 14.6128 42.1678 17.5888 41.6498 20.5386C41.6498 21.039 42.1462 21.2234 42.2325 20.7493C43.0071 16.795 43.5695 12.7833 43.9161 8.73966C44.132 10.2935 44.3262 11.8474 44.4989 13.4276C44.2183 15.2186 43.8945 16.9041 43.8298 17.3518C43.4353 20.3427 42.9094 23.3055 42.2541 26.2274C42.2515 26.3156 42.2733 26.4023 42.3158 26.4737C42.3583 26.5451 42.4192 26.5971 42.4887 26.6213C42.5583 26.6456 42.6325 26.6407 42.6995 26.6075C42.7665 26.5743 42.8225 26.5146 42.8585 26.4381C43.6714 22.8301 44.2915 19.1616 44.7147 15.4556L45.0385 18.0893C45.4572 28.3252 44.9651 38.5864 43.5708 48.6929C43.5708 48.6929 43.4197 49.1142 43.4197 49.2459H43.4628Z" fill="#001636" fill-opacity="0.92"/>
<path d="M180.285 53.3545C179.983 55.7248 180.631 55.2508 179.443 55.0927C179.204 55.036 178.956 55.0841 178.743 55.2286C178.529 55.3732 178.365 55.6049 178.278 55.8829C171.695 57.2524 165.112 58.5166 158.572 60.3075C154.665 61.3083 150.801 62.5988 146.938 63.8893C145.837 64.258 143.635 65.4432 141.628 66.207C144.52 61.4663 145.038 53.1965 145.125 47.06C145.114 46.8846 145.114 46.7086 145.125 46.5332V42.8987C145.147 42.733 145.147 42.564 145.125 42.3984C145.017 36.2618 144.909 30.1516 144.693 23.9625C144.693 21.3287 144.693 18.4843 144.326 15.6399C144.38 15.3896 144.38 15.1265 144.326 14.8762C143.936 11.127 143.07 7.47488 141.757 4.0516L143.722 4.0516C144.397 5.68968 144.967 7.38917 145.427 9.1347C145.578 9.58243 146.182 9.39805 146.031 8.95032C145.579 7.27144 145.046 5.62687 144.434 4.02532H146.096C146.757 5.67356 147.313 7.38179 147.758 9.1347C147.887 9.60877 148.492 9.39805 148.362 8.95032C147.927 7.26782 147.401 5.62253 146.787 4.02532H147.887C148.381 5.82689 148.973 7.58654 149.657 9.29272C149.852 9.71411 150.391 9.29273 150.197 8.89768C149.567 7.32238 149.013 5.70432 148.535 4.0516H149.852C150.645 5.55498 151.262 7.1861 151.686 8.89768C151.837 9.34541 152.377 8.89764 152.226 8.52892C151.806 6.99316 151.278 5.50408 150.65 4.07796H151.341C151.325 4.11928 151.317 4.16424 151.317 4.20969C151.317 4.25515 151.325 4.30003 151.341 4.34135C152.115 5.91993 152.794 7.56606 153.37 9.26635C153.542 9.71408 154.06 9.26637 153.909 8.87132C153.333 7.23609 152.677 5.64427 151.945 4.10432H153.65C154.192 5.74011 154.66 7.41057 155.053 9.10834C155.161 9.58241 155.766 9.37169 155.658 8.92396C155.226 7.3174 154.859 5.68457 154.341 4.13069H155.118C155.785 5.67902 156.383 7.27035 156.91 8.89768C157.061 9.34541 157.665 9.161 157.514 8.68694C157.015 7.16093 156.453 5.66665 155.83 4.20969L157.6 4.39399C158.226 6.05322 158.787 7.73883 159.435 9.37173C159.608 9.81945 160.147 9.37174 159.975 8.97669C159.37 7.50181 158.852 5.97421 158.313 4.473L159.629 4.63102C160.344 6.15384 160.895 7.78262 161.27 9.4771C161.306 9.55364 161.362 9.61324 161.429 9.64644C161.496 9.67965 161.57 9.68451 161.639 9.66027C161.709 9.63602 161.77 9.58409 161.812 9.5127C161.855 9.44131 161.877 9.35455 161.874 9.26635C161.503 7.69463 161.012 6.16907 160.406 4.71002H160.622C161.226 4.71002 161.831 4.86812 162.457 4.94713C163.083 6.55369 163.385 8.37089 163.903 10.0038C164.054 10.4515 164.658 10.2671 164.507 9.81941C164.011 8.26553 163.687 6.58002 163.147 5.02614H164.421C165.09 6.7117 165.522 8.52896 166.277 10.2935C166.471 10.7149 167.011 10.2935 166.817 9.89842C166.197 8.37182 165.642 6.80707 165.155 5.21043L166.752 5.34217C167.486 7.02774 167.896 8.97667 168.608 10.6096C168.802 11.0573 169.342 10.6095 169.148 10.2408C168.479 8.68693 168.069 6.92239 167.443 5.34217L169.364 5.47382C169.426 5.70635 169.498 5.93492 169.579 6.15861C170.258 7.95233 170.856 9.78986 171.371 11.663C171.522 12.1108 172.105 11.9264 171.975 11.4524C171.414 9.55611 170.831 7.63344 170.119 5.78985C170.11 5.70237 170.11 5.61402 170.119 5.52655L171.652 5.6582C171.911 6.42197 172.062 7.44907 172.213 8.00215C172.533 9.28378 172.915 10.5414 173.357 11.7684C173.529 12.1898 174.069 11.7684 173.896 11.3734C173.414 9.98679 172.989 8.57155 172.623 7.13306C172.623 6.76435 172.429 6.23761 172.299 5.73721L174.112 5.92158C174.112 6.07961 174.242 6.2113 174.285 6.34299C174.587 7.10676 174.846 7.87046 175.105 8.66057C175.546 10.0458 176.051 11.3998 176.616 12.7165C176.667 12.7796 176.734 12.8199 176.806 12.831C176.878 12.8422 176.951 12.8235 177.013 12.7779C177.075 12.7323 177.123 12.6626 177.149 12.5798C177.175 12.497 177.177 12.406 177.156 12.3215C176.383 10.5238 175.705 8.66763 175.127 6.76439L174.889 6.05324L176.767 6.36927C177.674 8.50257 178.148 10.8203 178.925 13.0062C179.098 13.454 179.638 13.0062 179.465 12.6375C178.753 10.5832 178.256 8.44994 177.458 6.42199C178.666 6.68536 179.832 7.05404 180.998 7.4491C181.192 8.21287 181.278 9.02931 181.386 9.58239C181.645 11.0046 181.839 12.4531 182.163 13.8753C182.199 13.9519 182.255 14.0115 182.322 14.0447C182.389 14.0779 182.463 14.0828 182.533 14.0585C182.602 14.0343 182.663 13.9823 182.706 13.9109C182.748 13.8395 182.77 13.7529 182.767 13.6647C182.422 12.1371 182.206 10.5569 181.926 9.00297C181.926 8.63425 181.775 8.21286 181.71 7.76513C183.976 10.0301 182.185 30.257 182.077 32.759C181.818 37.605 181.458 42.451 180.998 47.297C180.695 49.404 180.48 51.3792 180.264 53.3545H180.285Z" fill="#001636" fill-opacity="0.92"/>
<path d="M149.008 51.2745C148.79 51.4093 148.612 51.6241 148.5 51.8888C148.388 52.1534 148.346 52.4545 148.382 52.7493C147.914 53.3992 147.67 54.2451 147.702 55.1094C147.735 55.9738 148.04 56.7892 148.555 57.3846C148.827 57.7647 149.165 58.0661 149.544 58.2668C149.924 58.4675 150.335 58.5625 150.749 58.5449C151.162 58.5272 151.567 58.3974 151.934 58.1648C152.302 57.9322 152.622 57.6027 152.871 57.2003C153.369 56.4825 153.695 55.6108 153.813 54.6814C153.932 53.752 153.837 52.801 153.54 51.9329C152.569 49.8523 150.454 50.2737 149.008 51.2745ZM151.037 54.5139C150.648 56.2258 150.044 54.3559 151.188 53.8291C151.166 53.9872 151.101 54.1978 151.037 54.5139V54.5139Z" fill="#101063"/>
<path d="M156.046 51.0627C155.525 51.3643 155.076 51.8229 154.741 52.3951C154.407 52.9673 154.197 53.6341 154.132 54.3327C154.067 55.0314 154.149 55.7386 154.371 56.3877C154.592 57.0367 154.946 57.6061 155.398 58.042C155.737 58.4532 156.147 58.7651 156.599 58.9543C157.051 59.1434 157.532 59.2048 158.006 59.1337C158.48 59.0627 158.934 58.8611 159.335 58.5443C159.736 58.2274 160.072 57.8034 160.319 57.3046C160.628 56.3129 160.714 55.239 160.57 54.193C160.426 53.147 160.056 52.1666 159.499 51.3525C159.3 51.0357 159.047 50.7743 158.759 50.5855C158.47 50.3968 158.152 50.285 157.826 50.2576C157.499 50.2302 157.172 50.2878 156.865 50.4266C156.558 50.5655 156.279 50.7822 156.046 51.0627V51.0627ZM156.715 54.4339C156.896 54.3358 157.057 54.1922 157.19 54.0125C157.372 53.9864 157.549 53.9147 157.708 53.8018C157.884 54.2204 157.994 54.6763 158.031 55.145C158.031 55.6717 157.772 56.0141 158.031 55.9614C157.362 56.0668 156.672 55.1186 156.672 54.4339H156.715Z" fill="#101063"/>
<path d="M163.923 50.8261C163.84 50.6837 163.734 50.5638 163.611 50.4739C163.489 50.3839 163.352 50.3261 163.21 50.3038C163.068 50.2815 162.924 50.2953 162.787 50.3445C162.649 50.3936 162.522 50.4769 162.412 50.5891C162.034 50.8807 161.71 51.264 161.458 51.7152C161.207 52.1665 161.034 52.6759 160.951 53.212C160.868 53.748 160.877 54.2991 160.976 54.8311C161.075 55.3631 161.262 55.8646 161.527 56.3043C161.804 56.7337 162.149 57.0905 162.541 57.3533C162.934 57.6161 163.366 57.7795 163.811 57.8336C164.257 57.8877 164.706 57.8315 165.134 57.6682C165.561 57.505 165.957 57.2382 166.297 56.8837C166.773 56.3859 167.101 55.7105 167.231 54.9622C167.36 54.2139 167.284 53.4342 167.013 52.7443C166.743 52.0543 166.293 51.4924 165.735 51.1456C165.176 50.7988 164.539 50.6866 163.923 50.8261V50.8261ZM164.614 54.3553C164.614 54.7767 164.074 54.724 163.75 54.3553C163.884 54.3181 164.009 54.2463 164.117 54.1446C164.678 53.8286 164.786 53.4335 164.678 54.3553H164.614Z" fill="#101063"/>
</svg>
