<svg width="1622" height="24" viewBox="0 0 1622 24" fill="none" xmlns="http://www.w3.org/2000/svg">
<path d="M1371.3 6.04429C1363.65 5.8825 1355.99 6.16431 1348.47 6.88426C1344.71 7.23759 1341.68 8.72008 1342.03 10.8046C1342.33 12.6071 1345.92 14.4509 1349.71 14.0919C1357.23 13.3744 1364.9 13.0954 1372.55 13.2602C1376.38 13.3389 1379.29 11.1045 1378.99 9.33516C1378.59 7.16994 1375.12 6.1157 1371.3 6.04429Z" fill="#FF4D93" fill-opacity="0.98"/>
<path d="M1415.45 6.25664L1399.4 6.15871C1395.58 6.12965 1392.65 8.27305 1392.96 10.0791C1393.33 12.1921 1396.77 13.3321 1400.65 13.37L1416.68 13.4689C1420.5 13.498 1423.43 11.3546 1423.12 9.54853C1422.77 7.42987 1419.27 6.27278 1415.45 6.25664Z" fill="#FF4D93" fill-opacity="0.98"/>
<path d="M1460.95 8.05822L1444.89 8.02846C1441.08 8.00666 1438.13 10.1263 1438.45 11.9489C1438.8 14.0417 1442.28 15.2339 1446.13 15.2361L1462.19 15.2659C1465.99 15.2877 1468.94 13.1681 1468.63 11.3455C1468.27 9.25265 1464.83 8.07495 1460.95 8.05822Z" fill="#FF4D93" fill-opacity="0.98"/>
<path d="M1519.12 8.59564C1512.82 8.04688 1506.42 7.91386 1500.06 8.19985C1490.97 8.61027 1492.19 15.8189 1501.28 15.4168C1506.38 15.1825 1511.51 15.2869 1516.55 15.7272C1525.55 16.5014 1528.12 9.38271 1519.12 8.59564Z" fill="#FF4D93" fill-opacity="0.98"/>
<path d="M1571.6 10.438C1563.31 9.63566 1554.01 10.1512 1545.88 11.0804C1542.15 11.5118 1540.51 14.0736 1541.7 15.7282C1543.18 17.7593 1547.07 18.2875 1550.8 17.8644C1549.63 18.001 1551.83 17.7875 1552.05 17.7697C1552.94 17.7056 1553.83 17.6451 1554.72 17.5939C1556.62 17.487 1558.54 17.4215 1560.45 17.3771C1563.3 17.2475 1566.16 17.3049 1568.98 17.5478C1578.02 18.4331 1580.56 11.3154 1571.6 10.438Z" fill="#FF4D93" fill-opacity="0.98"/>
<path d="M1614.28 8.1616L1596.29 8.28211C1592.46 8.30368 1589.54 10.3587 1589.85 12.2025C1590.21 14.2742 1593.69 15.5123 1597.53 15.4897L1615.54 15.3848C1619.38 15.3622 1622.3 13.3035 1621.98 11.4643C1621.6 9.37715 1618.12 8.13902 1614.28 8.1616Z" fill="#FF4D93" fill-opacity="0.98"/>
<path d="M1074.3 6.04429C1066.65 5.8825 1058.99 6.16431 1051.47 6.88426C1047.71 7.23759 1044.68 8.72008 1045.03 10.8046C1045.33 12.6071 1048.92 14.4509 1052.71 14.0919C1060.23 13.3744 1067.9 13.0954 1075.55 13.2602C1079.38 13.3389 1082.29 11.1045 1081.99 9.33516C1081.59 7.16994 1078.12 6.1157 1074.3 6.04429Z" fill="#FF4D93" fill-opacity="0.98"/>
<path d="M1118.45 6.25664L1102.4 6.15871C1098.58 6.12965 1095.65 8.27305 1095.96 10.0791C1096.33 12.1921 1099.77 13.3321 1103.65 13.37L1119.68 13.4689C1123.5 13.498 1126.43 11.3546 1126.12 9.54853C1125.77 7.42987 1122.27 6.27278 1118.45 6.25664Z" fill="#FF4D93" fill-opacity="0.98"/>
<path d="M1163.95 8.05822L1147.89 8.02846C1144.08 8.00666 1141.13 10.1263 1141.45 11.9489C1141.8 14.0417 1145.28 15.2339 1149.13 15.2361L1165.19 15.2659C1168.99 15.2877 1171.94 13.1681 1171.63 11.3455C1171.27 9.25265 1167.83 8.07495 1163.95 8.05822Z" fill="#FF4D93" fill-opacity="0.98"/>
<path d="M1222.12 8.59564C1215.82 8.04688 1209.42 7.91386 1203.06 8.19985C1193.97 8.61027 1195.19 15.8189 1204.28 15.4168C1209.38 15.1825 1214.51 15.2869 1219.55 15.7272C1228.55 16.5014 1231.12 9.38271 1222.12 8.59564Z" fill="#FF4D93" fill-opacity="0.98"/>
<path d="M1274.6 10.438C1266.31 9.63566 1257.01 10.1512 1248.88 11.0804C1245.15 11.5118 1243.51 14.0736 1244.7 15.7282C1246.18 17.7593 1250.07 18.2875 1253.8 17.8644C1252.63 18.001 1254.83 17.7875 1255.05 17.7697C1255.94 17.7056 1256.83 17.6451 1257.72 17.5939C1259.62 17.487 1261.54 17.4215 1263.45 17.3771C1266.3 17.2475 1269.16 17.3049 1271.98 17.5478C1281.02 18.4331 1283.56 11.3154 1274.6 10.438Z" fill="#FF4D93" fill-opacity="0.98"/>
<path d="M1317.28 8.1616L1299.29 8.28211C1295.46 8.30368 1292.54 10.3587 1292.85 12.2025C1293.21 14.2742 1296.69 15.5123 1300.53 15.4897L1318.54 15.3848C1322.38 15.3622 1325.3 13.3035 1324.98 11.4643C1324.6 9.37715 1321.12 8.13902 1317.28 8.1616Z" fill="#FF4D93" fill-opacity="0.98"/>
<path d="M777.305 6.04429C769.654 5.8825 761.993 6.16431 754.467 6.88426C750.705 7.23759 747.675 8.72008 748.029 10.8046C748.331 12.6071 751.922 14.4509 755.707 14.0919C763.234 13.3744 770.897 13.0954 778.547 13.2602C782.38 13.3389 785.287 11.1045 784.993 9.33516C784.587 7.16994 781.119 6.1157 777.305 6.04429Z" fill="#FF4D93" fill-opacity="0.98"/>
<path d="M821.446 6.25664L805.402 6.15871C801.581 6.12965 798.653 8.27305 798.964 10.0791C799.332 12.1921 802.771 13.3321 806.651 13.37L822.679 13.4689C826.5 13.498 829.428 11.3546 829.117 9.54853C828.772 7.42987 825.272 6.27278 821.446 6.25664Z" fill="#FF4D93" fill-opacity="0.98"/>
<path d="M866.947 8.05822L850.887 8.02846C847.084 8.00666 844.134 10.1263 844.449 11.9489C844.804 14.0417 848.28 15.2339 852.127 15.2361L868.188 15.2659C871.99 15.2877 874.941 13.1681 874.626 11.3455C874.271 9.25265 870.831 8.07495 866.947 8.05822Z" fill="#FF4D93" fill-opacity="0.98"/>
<path d="M925.116 8.59564C918.823 8.04688 912.418 7.91386 906.058 8.19985C896.967 8.61027 898.191 15.8189 907.284 15.4168C912.377 15.1825 917.508 15.2869 922.549 15.7272C931.555 16.5014 934.117 9.38271 925.116 8.59564Z" fill="#FF4D93" fill-opacity="0.98"/>
<path d="M977.597 10.438C969.308 9.63566 960.012 10.1512 951.884 11.0804C948.149 11.5118 946.513 14.0736 947.7 15.7282C949.175 17.7593 953.067 18.2875 956.804 17.8644C955.628 18.001 957.829 17.7875 958.047 17.7697C958.936 17.7056 959.833 17.6451 960.717 17.5939C962.623 17.487 964.539 17.4215 966.452 17.3771C969.295 17.2475 972.16 17.3049 974.975 17.5478C984.016 18.4331 986.562 11.3154 977.597 10.438Z" fill="#FF4D93" fill-opacity="0.98"/>
<path d="M1020.28 8.1616L1002.29 8.28211C998.464 8.30368 995.539 10.3587 995.851 12.2025C996.209 14.2742 999.688 15.5123 1003.53 15.4897L1021.54 15.3848C1025.38 15.3622 1028.3 13.3035 1027.98 11.4643C1027.6 9.37715 1024.12 8.13902 1020.28 8.1616Z" fill="#FF4D93" fill-opacity="0.98"/>
<path d="M480.305 6.04429C472.654 5.8825 464.993 6.16431 457.467 6.88426C453.705 7.23759 450.675 8.72008 451.029 10.8046C451.331 12.6071 454.922 14.4509 458.707 14.0919C466.234 13.3744 473.897 13.0954 481.547 13.2602C485.38 13.3389 488.287 11.1045 487.993 9.33516C487.587 7.16994 484.119 6.1157 480.305 6.04429Z" fill="#FF4D93" fill-opacity="0.98"/>
<path d="M524.446 6.25664L508.402 6.15871C504.581 6.12965 501.653 8.27305 501.964 10.0791C502.332 12.1921 505.771 13.3321 509.651 13.37L525.679 13.4689C529.5 13.498 532.428 11.3546 532.117 9.54853C531.772 7.42987 528.272 6.27278 524.446 6.25664Z" fill="#FF4D93" fill-opacity="0.98"/>
<path d="M569.947 8.05822L553.887 8.02846C550.084 8.00666 547.134 10.1263 547.449 11.9489C547.804 14.0417 551.28 15.2339 555.127 15.2361L571.188 15.2659C574.99 15.2877 577.941 13.1681 577.626 11.3455C577.271 9.25265 573.831 8.07495 569.947 8.05822Z" fill="#FF4D93" fill-opacity="0.98"/>
<path d="M628.116 8.59564C621.823 8.04688 615.418 7.91386 609.058 8.19985C599.967 8.61027 601.191 15.8189 610.284 15.4168C615.377 15.1825 620.508 15.2869 625.549 15.7272C634.555 16.5014 637.117 9.38271 628.116 8.59564Z" fill="#FF4D93" fill-opacity="0.98"/>
<path d="M680.597 10.438C672.308 9.63566 663.012 10.1512 654.884 11.0804C651.149 11.5118 649.513 14.0736 650.7 15.7282C652.175 17.7593 656.067 18.2875 659.804 17.8644C658.628 18.001 660.829 17.7875 661.047 17.7697C661.935 17.7056 662.833 17.6451 663.717 17.5939C665.623 17.487 667.539 17.4215 669.451 17.3771C672.295 17.2475 675.16 17.3049 677.975 17.5478C687.016 18.4331 689.562 11.3154 680.597 10.438Z" fill="#FF4D93" fill-opacity="0.98"/>
<path d="M723.278 8.1616L705.289 8.28211C701.464 8.30368 698.539 10.3587 698.851 12.2025C699.209 14.2742 702.688 15.5123 706.529 15.4897L724.538 15.3848C728.38 15.3622 731.296 13.3035 730.977 11.4643C730.598 9.37715 727.119 8.13902 723.278 8.1616Z" fill="#FF4D93" fill-opacity="0.98"/>
<path d="M183.305 6.04429C175.654 5.8825 167.993 6.16431 160.467 6.88426C156.705 7.23759 153.675 8.72008 154.029 10.8046C154.331 12.6071 157.922 14.4509 161.707 14.0919C169.234 13.3744 176.897 13.0954 184.547 13.2602C188.38 13.3389 191.287 11.1045 190.993 9.33516C190.587 7.16994 187.119 6.1157 183.305 6.04429Z" fill="#FF4D93" fill-opacity="0.98"/>
<path d="M227.446 6.25664L211.402 6.15871C207.581 6.12965 204.653 8.27305 204.964 10.0791C205.332 12.1921 208.771 13.3321 212.651 13.37L228.679 13.4689C232.5 13.498 235.428 11.3546 235.117 9.54853C234.772 7.42987 231.272 6.27278 227.446 6.25664Z" fill="#FF4D93" fill-opacity="0.98"/>
<path d="M272.947 8.05822L256.887 8.02846C253.084 8.00666 250.134 10.1263 250.449 11.9489C250.804 14.0417 254.28 15.2339 258.127 15.2361L274.188 15.2659C277.99 15.2877 280.941 13.1681 280.626 11.3455C280.271 9.25265 276.831 8.07495 272.947 8.05822Z" fill="#FF4D93" fill-opacity="0.98"/>
<path d="M331.116 8.59564C324.823 8.04688 318.418 7.91386 312.058 8.19985C302.967 8.61027 304.191 15.8189 313.284 15.4168C318.377 15.1825 323.508 15.2869 328.549 15.7272C337.555 16.5014 340.117 9.38271 331.116 8.59564Z" fill="#FF4D93" fill-opacity="0.98"/>
<path d="M383.597 10.438C375.308 9.63566 366.012 10.1512 357.884 11.0804C354.149 11.5118 352.513 14.0736 353.7 15.7282C355.175 17.7593 359.067 18.2875 362.804 17.8644C361.628 18.001 363.829 17.7875 364.047 17.7697C364.935 17.7056 365.833 17.6451 366.717 17.5939C368.623 17.487 370.539 17.4215 372.451 17.3771C375.295 17.2475 378.16 17.3049 380.975 17.5478C390.016 18.4331 392.562 11.3154 383.597 10.438Z" fill="#FF4D93" fill-opacity="0.98"/>
<path d="M426.278 8.1616L408.289 8.28211C404.464 8.30368 401.539 10.3587 401.851 12.2025C402.209 14.2742 405.688 15.5123 409.529 15.4897L427.538 15.3848C431.38 15.3622 434.296 13.3035 433.977 11.4643C433.598 9.37715 430.119 8.13902 426.278 8.1616Z" fill="#FF4D93" fill-opacity="0.98"/>
<path d="M-113.695 6.04429C-121.345 5.8825 -129.007 6.16431 -136.533 6.88426C-140.295 7.23759 -143.325 8.72008 -142.971 10.8046C-142.669 12.6071 -139.078 14.4509 -135.293 14.0919C-127.766 13.3744 -120.103 13.0954 -112.453 13.2602C-108.62 13.3389 -105.713 11.1045 -106.007 9.33516C-106.413 7.16994 -109.881 6.1157 -113.695 6.04429Z" fill="#FF4D93" fill-opacity="0.98"/>
<path d="M-69.5541 6.25664L-85.5979 6.15871C-89.4188 6.12965 -92.3473 8.27305 -92.0363 10.0791C-91.6679 12.1921 -88.2292 13.3321 -84.3486 13.37L-68.321 13.4689C-64.5001 13.498 -61.5716 11.3546 -61.8826 9.54853C-62.2277 7.42987 -65.7281 6.27278 -69.5541 6.25664Z" fill="#FF4D93" fill-opacity="0.98"/>
<path d="M-24.0527 8.05822L-40.1129 8.02846C-43.9157 8.00666 -46.8665 10.1263 -46.5514 11.9489C-46.1961 14.0417 -42.7201 15.2339 -38.8727 15.2361L-22.8125 15.2659C-19.0097 15.2877 -16.059 13.1681 -16.3741 11.3455C-16.7294 9.25265 -20.169 8.07495 -24.0527 8.05822Z" fill="#FF4D93" fill-opacity="0.98"/>
<path d="M34.1161 8.59564C27.823 8.04688 21.4178 7.91386 15.0581 8.19985C5.9672 8.61027 7.1912 15.8189 16.2841 15.4168C21.3772 15.1825 26.5083 15.2869 31.5488 15.7272C40.5547 16.5014 43.1169 9.38271 34.1161 8.59564Z" fill="#FF4D93" fill-opacity="0.98"/>
<path d="M86.5972 10.438C78.3078 9.63566 69.0121 10.1512 60.8843 11.0804C57.1495 11.5118 55.5133 14.0736 56.7003 15.7282C58.1751 17.7593 62.0668 18.2875 65.8036 17.8644C64.6282 18.001 66.8291 17.7875 67.0467 17.7697C67.9355 17.7056 68.8333 17.6451 69.717 17.5939C71.6229 17.487 73.5387 17.4215 75.4515 17.3771C78.2953 17.2475 81.16 17.3049 83.9752 17.5478C93.0161 18.4331 95.5622 11.3154 86.5972 10.438Z" fill="#FF4D93" fill-opacity="0.98"/>
<path d="M129.278 8.1616L111.289 8.28211C107.464 8.30368 104.539 10.3587 104.851 12.2025C105.209 14.2742 108.688 15.5123 112.529 15.4897L130.538 15.3848C134.38 15.3622 137.296 13.3035 136.977 11.4643C136.598 9.37715 133.119 8.13902 129.278 8.1616Z" fill="#FF4D93" fill-opacity="0.98"/>
</svg>
