<svg width="140" height="56" viewBox="0 0 140 56" fill="none" xmlns="http://www.w3.org/2000/svg">
<g clip-path="url(#clip0_367_7302)">
<path d="M32.9856 2.27515C34.5256 2.39785 35.9781 2.76598 37.1856 3.80024C39.2506 5.57075 40.3706 7.81457 40.4231 10.5667C40.4406 11.3381 39.8981 11.9691 39.2156 12.0393C38.3406 12.1444 37.7106 11.6711 37.5181 10.8297C37.3431 9.98826 37.0281 9.21695 36.5906 8.4807C35.4531 6.56995 33.9131 5.90382 31.7431 6.37712C29.0131 6.97314 26.5981 8.23528 24.3756 9.86556C17.1481 15.1771 12.3356 22.1189 10.3056 30.9189C9.51813 34.3547 9.30813 37.8081 10.0606 41.2965C10.3056 42.4184 10.7081 43.4702 11.2331 44.4869C12.3706 46.7132 14.2081 47.9754 16.6056 48.5013C19.3531 49.0973 21.9956 48.624 24.5681 47.6598C28.2431 46.275 31.4281 44.1013 34.3856 41.5419C35.7156 40.385 36.8531 39.0527 38.1131 37.8607C39.5481 36.4933 41.1756 35.4766 43.1881 35.2312C44.0806 35.126 44.9906 35.091 45.8831 35.3188C47.4756 35.722 48.5081 36.7563 49.1731 38.2288C49.8556 39.7539 50.1356 41.3666 50.4856 42.9794C50.6781 43.8734 50.8006 44.7849 51.0806 45.6614C51.5531 47.0814 52.6906 47.5196 54.0031 46.7833C54.9306 46.2574 55.6481 45.4861 56.3306 44.6798C58.2556 42.4009 59.8131 39.8941 61.3181 37.3348C61.4056 37.177 61.4231 37.0192 61.4056 36.8264C61.0206 34.4248 60.9506 32.0057 60.8806 29.5866C60.8106 27.4129 60.8456 25.2392 60.9331 23.0655C61.0906 19.1038 61.4056 15.1771 62.2981 11.303C62.6481 9.74285 63.1206 8.23528 63.8906 6.8329C64.1881 6.28947 64.5556 5.76358 64.9931 5.32533C66.4281 3.90542 68.5106 3.97554 69.8581 5.4831C70.8906 6.6576 71.3281 8.07751 71.6431 9.56755C72.2381 12.3022 72.2381 15.0719 71.9231 17.8416C71.2056 24.0472 69.3156 29.9021 66.4631 35.4591C66.1306 36.1077 66.0956 36.6862 66.2181 37.3523C66.6556 39.7013 67.2331 41.9977 68.2306 44.1714C68.4406 44.6447 68.7206 45.1005 69.0356 45.5212C69.8056 46.4853 70.6456 46.6606 71.7306 46.0822C72.5881 45.6264 73.3056 44.9953 74.0581 44.3818C75.7381 43.0144 77.4531 41.6646 79.3956 40.6654C80.5156 40.087 81.7056 39.7188 82.9831 39.9642C84.6631 40.2973 85.7481 41.3666 86.3606 42.9443C86.4831 43.2774 86.5531 43.628 86.6756 44.0312C87.3056 43.1196 87.9006 42.2431 88.5656 41.4017C89.7381 39.9117 91.0156 38.5093 92.5731 37.4049C96.3706 34.6878 100.011 36.5109 101.778 39.3156C102.373 40.2447 102.758 41.2615 103.073 42.3132C103.108 42.4009 103.143 42.5061 103.196 42.6638C103.686 41.8399 104.141 41.0686 104.666 40.3499C105.803 38.8248 107.098 37.4925 108.901 36.7212C111.648 35.5643 115.008 36.5985 116.531 39.0352C117.336 40.3148 118.001 41.6471 118.561 43.0495C119.156 44.5395 119.996 45.8543 121.291 46.8359C122.971 48.1156 124.896 48.4311 126.943 48.3786C129.498 48.326 131.756 47.2041 134.066 46.2925C134.853 45.977 135.116 45.9945 135.641 46.6606C135.641 46.8885 135.641 47.1339 135.641 47.3618C135.466 47.5196 135.308 47.7124 135.116 47.8702C133.978 48.7817 132.701 49.4654 131.388 50.0439C128.606 51.2885 125.736 52.0598 122.656 51.6391C120.381 51.3236 118.456 50.3244 116.881 48.624C115.428 47.0463 114.518 45.1706 113.941 43.1196C113.748 42.436 113.486 41.7873 113.083 41.2089C112.331 40.1571 111.368 39.9467 110.266 40.6128C109.548 41.0511 108.971 41.6646 108.498 42.3483C107.571 43.6806 107.028 45.1881 106.416 46.6782C105.908 47.9053 105.436 49.1499 104.561 50.1841C103.091 51.9196 100.711 51.5339 99.8356 49.4303C99.4856 48.6064 99.4156 47.7475 99.3806 46.8535C99.3456 45.5212 99.3456 44.2065 99.1356 42.8742C99.0131 42.1204 98.8206 41.3842 98.3481 40.7706C97.5256 39.6487 96.4931 39.3858 95.2331 39.9642C94.5156 40.2973 93.8856 40.7706 93.3081 41.314C91.3481 43.1547 89.8606 45.3459 88.6531 47.73C88.1456 48.7292 87.6906 49.7634 86.9381 50.6224C86.3431 51.3236 85.5731 51.4112 84.7506 51.1833C83.9806 50.973 83.5956 50.3945 83.4556 49.6232C83.3506 48.9746 83.4031 48.3084 83.4031 47.6598C83.3856 46.6957 83.3331 45.7316 82.9656 44.82C82.6156 43.9786 82.4231 43.9085 81.6531 44.3818C80.7431 44.9427 79.9206 45.6264 79.0981 46.2925C77.3831 47.6598 75.7206 49.0797 73.8481 50.2192C73.1831 50.6224 72.5181 51.008 71.7306 51.1307C69.1581 51.5164 67.1631 50.4821 65.5706 48.5188C64.3981 47.0813 63.6456 45.3985 63.0156 43.663C62.8581 43.2248 62.7181 42.8041 62.5606 42.2957C62.4206 42.5061 62.3156 42.6463 62.2281 42.8041C60.8106 44.9778 59.3056 47.0638 57.3806 48.8168C56.3306 49.7809 55.1756 50.5172 53.7756 50.8853C50.7831 51.6917 48.5256 50.4997 47.5106 47.5722C47.4581 47.4495 47.4581 47.2917 47.3181 47.1515C46.9856 47.8001 46.6181 48.3961 46.1806 48.957C44.2031 51.4638 40.4756 52.0072 37.9906 50.1315C36.7656 49.2025 36.1006 47.9403 35.7506 46.4853C35.6631 46.0997 35.5756 46.1523 35.3306 46.3626C30.9381 50.3945 25.8806 53.0415 19.8606 53.5849C18.2856 53.7252 16.7106 53.7777 15.1531 53.4797C12.9481 53.059 11.0231 52.0072 9.36063 50.4997C6.54313 47.9403 5.21313 44.6447 4.65313 40.9634C4.56563 40.42 4.60063 39.8766 4.39062 39.3507C4.39062 37.8957 4.39062 36.4232 4.39062 34.9682C4.56563 34.5651 4.49563 34.1093 4.54813 33.6886C4.98563 29.1484 6.38563 24.8886 8.38063 20.8217C11.1806 15.1596 15.2756 10.6193 20.3506 6.95561C24.0956 4.25602 28.1556 2.1875 32.9856 2.27515ZM43.6081 39.0878C43.3981 39.1053 43.2056 39.1053 42.9956 39.1579C41.6831 39.4559 40.6681 40.2097 39.8981 41.2965C38.8656 42.769 38.5681 44.3642 39.1981 46.0646C39.5131 46.9411 40.1606 47.5021 41.1231 47.5547C42.3656 47.6248 43.2581 46.9586 43.9931 46.0471C45.1306 44.6272 45.4981 42.8917 45.9006 41.1563C45.9181 41.1037 45.9006 41.0511 45.8831 40.981C45.6731 39.8591 44.7806 39.1053 43.6081 39.0878ZM67.5131 8.98906C67.1281 9.53249 66.9881 10.0934 66.8481 10.6369C66.0956 13.4767 65.8331 16.3691 65.6406 19.2791C65.4306 22.3994 65.3781 25.5197 65.3956 28.64C65.3956 28.8153 65.3781 29.0081 65.4831 29.2009C65.5356 29.0958 65.5706 29.0256 65.6056 28.9731C67.9856 23.4862 68.9831 17.7715 68.2306 11.8114C68.1081 10.8823 67.9331 9.9532 67.5131 8.98906Z" fill="#343434"/>
</g>
<defs>
<clipPath id="clip0_367_7302">
<rect width="131.25" height="51.45" fill="white" transform="translate(4.375 2.27539)"/>
</clipPath>
</defs>
</svg>
