<svg width="80" height="80" viewBox="0 0 80 80" fill="none" xmlns="http://www.w3.org/2000/svg">
<path fill-rule="evenodd" clip-rule="evenodd" d="M41.4914 9.21937C41.4868 9.46132 41.3293 9.57747 41.1723 9.69324C41.1092 9.7398 41.0462 9.78629 40.9932 9.84087L40.9567 9.83738L40.9929 9.84614C40.3243 9.97084 39.6392 9.97391 38.9695 9.85521L39.0052 9.84623L38.9698 9.84994C38.8487 9.82051 38.7375 9.75864 38.6479 9.67074C38.5582 9.58284 38.4934 9.47214 38.4602 9.35015L38.4617 9.32894C38.366 8.1383 38.3662 6.9417 38.4621 5.75108L38.4602 5.72473C39.138 4.70055 40.9346 4.77824 41.4939 5.85421L41.4917 5.88573C41.5392 7.00046 41.5526 8.10886 41.491 9.21343L41.4914 9.21937ZM56.4355 17.5216C56.4355 17.7508 56.2227 17.9942 55.9259 18.1962C55.302 18.6187 54.6783 19.0421 54.0548 19.4655L54.0535 19.4664L54.0521 19.4673L54.0491 19.4693C52.8269 20.2992 51.605 21.1288 50.382 21.9511C49.7347 22.3861 49.3066 22.2903 48.8746 21.6624C47.7406 20.0089 47.7496 19.9597 49.4021 18.8358L54.0274 15.6934C54.8772 15.1159 55.22 15.1754 55.7844 16.0689C55.8408 16.1585 55.9049 16.2454 55.9703 16.3341L55.9704 16.3342C56.1977 16.6423 56.4415 16.9727 56.4355 17.5216ZM29.603 21.9872C29.7955 22.1236 30.0167 22.2123 30.249 22.2462C30.5217 22.2203 30.7829 22.1452 30.9612 21.9005C31.1129 21.6933 31.2632 21.4862 31.4047 21.2725C32.1309 20.1681 32.0774 19.8858 31.0033 19.1504C29.5142 18.1275 28.0243 17.1076 26.5335 16.0908C24.9548 15.0174 24.8134 15.0523 23.7941 16.6915C23.3825 17.3571 23.45 17.7934 24.0795 18.2246C25.0662 18.9019 26.0559 19.5739 27.0456 20.246C27.8987 20.8253 28.7518 21.4046 29.603 21.9872ZM39.9824 25.3887H57.6168C58.812 25.3887 59.2095 25.7952 59.2108 27.0123V28.1777C59.1981 29.1004 58.7474 29.5752 57.8589 29.6019H57.1594H22.7811C22.5479 29.6019 22.3148 29.6019 22.0816 29.5954C21.261 29.5618 20.8558 29.1474 20.8291 28.3007C20.8138 27.8268 20.8202 27.3516 20.8291 26.8764C20.8291 25.8043 21.2381 25.3964 22.2893 25.3951L39.9824 25.3887ZM41.0588 32.1358L41.0944 32.1461C41.5593 32.2805 42.5936 32.5795 43.5408 33.7388C45.4988 36.1406 47.5093 38.5029 49.5194 40.8647C50.2563 41.7306 50.9931 42.5964 51.7273 43.464C52.3963 44.2538 52.3644 44.865 51.591 45.5655C51.2584 45.8672 50.9195 46.1611 50.5806 46.4537C49.8887 47.0493 49.2414 47.0208 48.6413 46.3178C47.5624 45.0544 46.4917 43.7843 45.421 42.5141L45.4208 42.5139L45.4206 42.5137L45.4204 42.5134L45.4202 42.5132L45.4201 42.513L45.4199 42.5128L45.4197 42.5126L45.4195 42.5123L45.4193 42.5121L45.4192 42.5119L45.419 42.5117L45.4188 42.5115L45.4186 42.5113L45.4184 42.511L45.4182 42.5108L45.4181 42.5106L45.4179 42.5104L45.4177 42.5102L45.4175 42.51L45.4173 42.5097L45.4171 42.5095L45.417 42.5093L45.4168 42.5091C44.8615 41.8504 44.3062 41.1917 43.7498 40.5339C42.7852 39.388 41.8181 38.2434 40.8409 37.1092C40.2038 36.3634 39.6941 36.3815 39.0659 37.1221C36.504 40.1433 33.9387 43.1585 31.37 46.1676C30.6552 47.0053 30.0601 47.0325 29.2536 46.3178C29.1384 46.2161 29.0221 46.1154 28.9057 46.0148L28.9054 46.0145L28.9054 46.0145L28.9054 46.0145L28.9053 46.0144L28.9053 46.0144L28.9053 46.0144L28.9052 46.0143L28.9052 46.0143L28.9052 46.0143L28.9051 46.0142L28.9051 46.0142L28.9051 46.0142L28.905 46.0141L28.905 46.0141L28.905 46.0141L28.9049 46.014L28.9049 46.014L28.9048 46.014L28.9048 46.0139L28.9048 46.0139L28.9047 46.0139L28.9047 46.0138L28.9047 46.0138L28.9046 46.0138C28.6983 45.8352 28.4918 45.6567 28.2916 45.4723C27.5742 44.8106 27.5271 44.2267 28.1642 43.4614C29.2278 42.1924 30.2991 40.9297 31.3704 39.6671C31.6697 39.3143 31.9691 38.9615 32.2683 38.6086C32.7384 38.054 33.2103 37.501 33.6823 36.948L33.6827 36.9476C34.8085 35.6286 35.9343 34.3094 37.0349 32.9684C37.5108 32.3886 38.4094 32.1891 38.8764 32.0854L38.8764 32.0854L38.8767 32.0854C38.9497 32.0691 39.0122 32.0553 39.0609 32.0427C39.5419 31.9178 40.6128 31.9417 41.0588 32.1358ZM24.5001 74.9999C26.2342 75.0064 27.7225 74.4095 28.9966 73.0798C29.0468 73.2003 29.0923 73.3063 29.1344 73.4045L29.1345 73.4048L29.1345 73.4049L29.1349 73.4057C29.1836 73.5191 29.2277 73.622 29.2693 73.7245L29.3098 73.8298C29.5174 74.3693 29.6011 74.5868 29.7574 74.6732C29.8629 74.7315 30.0015 74.73 30.2338 74.7274H30.234C30.3739 74.7259 30.5478 74.7239 30.769 74.7345C31.2086 74.7565 31.3615 74.6141 31.3615 74.1531C31.3552 73.2093 31.3668 72.2655 31.3785 71.3218C31.3857 70.7351 31.3929 70.1484 31.3959 69.5618C31.4129 66.8237 31.4214 64.0853 31.4214 61.3463C31.4239 60.5746 31.3283 60.4775 30.5957 60.4775H29.3865C28.4169 60.4788 28.4092 60.4827 28.4092 61.503C28.4055 62.3385 28.4011 63.1735 28.3967 64.0081L28.3967 64.0088C28.3891 65.4619 28.3814 66.9139 28.3774 68.3654C28.378 68.7312 28.3387 69.096 28.2601 69.453C28.0822 70.3292 27.5729 71.0993 26.8418 71.5977C26.1107 72.096 25.2162 72.2828 24.351 72.1177C23.1749 71.9041 22.52 70.9938 22.5009 69.4919C22.4627 66.7357 22.4381 63.9765 22.427 61.2143C22.4257 60.6938 22.2537 60.4594 21.7237 60.4853C21.2644 60.5047 20.8042 60.4972 20.3446 60.4896H20.3445H20.3444H20.3443H20.3442H20.3442H20.3441H20.344H20.3439H20.3438H20.3437H20.3436H20.3435H20.3434H20.3434H20.3433H20.3432H20.3431H20.343H20.3429H20.3428H20.3427H20.3426L20.3422 60.4896L20.3417 60.4896L20.3412 60.4896C20.2499 60.4881 20.1585 60.4866 20.0673 60.4853C19.6404 60.4788 19.4595 60.6834 19.4595 61.1146C19.4628 62.1046 19.4579 63.0946 19.4531 64.0846C19.4431 66.1138 19.4331 68.1427 19.4939 70.1703C19.5843 73.1872 21.5262 74.9883 24.5001 74.9999ZM11.7123 74.9237C7.30499 74.7671 4.7197 71.1442 5.02423 66.9659C5.22937 64.1523 6.45256 62.0069 9.06588 60.8351C11.8499 59.5882 15.2201 60.2965 17.0294 62.4808C17.5391 63.0984 17.5264 63.2706 16.9237 63.8002C15.7593 64.8235 15.7552 64.8207 14.4984 63.9615L14.4518 63.9296C13.0986 63.0039 11.6295 62.8938 10.1719 63.5852C8.71421 64.2766 7.98284 65.5455 7.87836 67.1796C7.72801 69.562 8.83526 71.3721 10.8344 71.925C12.6042 72.4131 14.0823 71.8085 15.345 70.546C15.9821 69.9077 16.0012 69.8986 16.6574 70.5124C16.6741 70.528 16.6904 70.5439 16.7065 70.5598C16.7358 70.5885 16.7646 70.6168 16.795 70.6418C17.8831 71.6777 17.8908 71.767 16.8014 72.8585C15.3909 74.2737 13.7115 75.0092 11.7123 74.9237ZM57.6907 70.5287V70.5286V70.5284V70.5283V70.5281V70.528V70.5279V70.5277V70.5276V70.5275V70.5273V70.5272V70.527V70.5269V70.5268V70.5266V70.5265V70.5264V70.5262V70.5261C57.6921 69.9518 57.6935 69.3775 57.6935 68.8031L57.6897 64.0784C57.6897 63.5812 57.6897 63.3349 57.8128 63.2128C57.9337 63.0931 58.1732 63.0931 58.6478 63.0931C60.5948 63.0931 60.5948 63.0931 60.4482 61.1133V61.0486C60.4317 60.6602 60.2559 60.4647 59.8481 60.4763C59.53 60.486 59.212 60.4842 58.8941 60.4824H58.894H58.8939H58.8938H58.8937H58.8936H58.8935H58.8935H58.8934H58.8933H58.8932H58.8931H58.893H58.8929H58.8928H58.8927H58.8926H58.8925H58.8924H58.8924H58.8923C58.6161 60.4809 58.34 60.4793 58.0643 60.4854C57.8094 60.4918 57.6667 60.4465 57.682 60.1397C57.6899 59.9297 57.6883 59.7194 57.6868 59.5094V59.5093C57.6848 59.244 57.6828 58.9791 57.6999 58.7154C57.747 57.9579 58.2579 57.4478 59.0097 57.3934C59.2844 57.3724 59.5607 57.3803 59.836 57.3882L59.8369 57.3883L59.9754 57.3921L60.029 57.3934C60.3425 57.4012 60.5018 57.2704 60.5018 56.9376C60.4984 56.3981 60.5056 55.8591 60.5234 55.3204C60.5349 54.9385 60.3438 54.8077 59.9947 54.743C59.1968 54.6056 58.3804 54.6263 57.5903 54.8038C56.1556 55.1016 55.228 55.9795 54.8687 57.4439C54.7333 58.0309 54.664 58.6317 54.6622 59.2346L54.6618 59.2572C54.6513 59.8642 54.646 60.1696 54.4906 60.3233C54.3333 60.4789 54.0221 60.4789 53.3958 60.4789H53.3957C52.4503 60.4815 52.4401 60.4893 52.4401 61.4681C52.4376 63.084 52.4376 63.1073 54.0494 63.075C54.5629 63.0685 54.6699 63.2277 54.6699 63.7224C54.6535 66.2206 54.6554 68.7218 54.6572 71.2226V71.2228C54.6578 72.0231 54.6584 72.8235 54.6584 73.6236C54.6584 73.6816 54.6576 73.7393 54.6567 73.797V73.7971C54.655 73.9122 54.6533 74.0269 54.6584 74.1415C54.6788 74.5494 54.847 74.7682 55.2955 74.7436C55.8472 74.7131 56.4002 74.7131 56.9519 74.7436C57.5087 74.7747 57.6935 74.5326 57.6935 73.9823C57.685 72.8302 57.6878 71.6799 57.6907 70.5297V70.5287ZM43.455 66.9735C43.4707 67.3431 43.4625 67.7425 43.4539 68.1603C43.4395 68.8651 43.424 69.6224 43.52 70.3776C43.6602 71.4652 44.1341 71.8756 45.1981 71.8977L45.2031 71.8978C46.2621 71.9197 46.2828 71.9201 46.5258 73.006C46.5634 73.175 46.5987 73.3277 46.6306 73.4655C46.7839 74.1278 46.8581 74.448 46.7309 74.6022C46.6118 74.7466 46.3163 74.7454 45.7442 74.7432H45.7434C45.5694 74.7425 45.3699 74.7417 45.142 74.7449C44.4421 74.7575 43.7444 74.6619 43.0728 74.4613C42.3648 74.2598 41.7357 73.8403 41.2719 73.2607C40.8081 72.6811 40.5322 71.9697 40.4824 71.2244C40.3674 69.8076 40.3799 68.3909 40.3923 66.9775V66.9771V66.9767V66.9763V66.976V66.9756V66.9752V66.9748V66.9744V66.9741V66.9737V66.9733V66.9729V66.9726V66.9722V66.9718V66.9714V66.971V66.9707V66.9703C40.3981 66.3193 40.4039 65.669 40.397 65.0197C40.3723 62.7236 40.3745 60.4275 40.3767 58.1309C40.3775 57.3452 40.3782 56.5594 40.3779 55.7736C40.3779 54.8556 40.4709 54.7637 41.345 54.7611C41.5009 54.7611 41.6568 54.7632 41.8127 54.7654C42.1243 54.7697 42.4357 54.774 42.7466 54.7611C43.2741 54.7339 43.4639 54.9799 43.4588 55.4939C43.4531 56.1659 43.4546 56.8384 43.4561 57.5106V57.5108V57.511V57.5112V57.5114V57.5116V57.5118V57.512V57.5122V57.5123V57.5125V57.5127V57.5129V57.5131V57.5133V57.5135V57.5137V57.5139V57.5141V57.5143C43.458 58.3291 43.4598 59.1434 43.4487 59.9558C43.4423 60.3623 43.5289 60.5255 43.9672 60.5009C44.3982 60.4776 44.8305 60.4822 45.2639 60.4869H45.2641H45.2643H45.2646H45.2648H45.2651H45.2653H45.2656H45.2658H45.2661H45.2663H45.2666H45.2668H45.2671H45.2673H45.2676H45.2678H45.2681H45.2684H45.2686H45.2689C45.5566 60.49 45.8447 60.4931 46.1333 60.4879C46.5525 60.4879 46.7615 60.655 46.7526 61.0991C46.7458 61.4602 46.7491 61.757 46.7519 62.0009C46.7583 62.5723 46.7615 62.8529 46.6229 62.988C46.4892 63.1183 46.2236 63.1133 45.7018 63.1035C45.4839 63.0994 45.2213 63.0945 44.905 63.0982L44.8529 63.0989C43.4601 63.1161 43.4601 63.1161 43.4601 64.5704L43.455 66.9735ZM68.5888 55.7011V63.2704L68.6143 63.273C68.6143 64.0097 68.6115 64.7462 68.6088 65.4823L68.6088 65.4844V65.4848C68.6022 67.2524 68.5956 69.0182 68.627 70.7828C68.6474 72.0543 69.0704 73.195 70.1764 73.946C71.4848 74.8372 72.9602 74.784 74.4285 74.7309L74.6564 74.7228C74.9291 74.7099 75.0476 74.4949 74.9826 74.2049C74.9472 74.04 74.9122 73.8746 74.8772 73.7092C74.8278 73.4759 74.7784 73.2424 74.7277 73.0098C74.4958 71.9442 74.4767 71.9287 73.3873 71.8963C72.2457 71.8626 71.7143 71.359 71.6991 70.1936C71.6851 68.9759 71.6841 67.7578 71.6832 66.5397C71.6824 65.5366 71.6816 64.5335 71.6736 63.5307C71.671 63.1953 71.7602 63.0801 72.0991 63.0904C72.475 63.1022 72.8511 63.0998 73.2271 63.0973C73.5942 63.0949 73.9613 63.0925 74.3277 63.1034C74.7762 63.1163 74.938 62.9156 74.9252 62.4858C74.915 62.0106 74.9163 61.5354 74.9252 61.0615C74.9329 60.6498 74.743 60.484 74.3468 60.484C74.0736 60.4901 73.7992 60.4855 73.5247 60.4809H73.5246C73.0976 60.4737 72.6704 60.4665 72.2469 60.4996C71.7373 60.5358 71.6634 60.3468 71.6736 59.8884C71.6948 58.855 71.6913 57.8215 71.6877 56.7881C71.6864 56.3973 71.685 56.0064 71.685 55.6156C71.6863 55.0627 71.5347 54.6963 70.8823 54.7507C70.558 54.7778 70.2319 54.7715 69.9056 54.7652L69.9051 54.7652C69.7636 54.7625 69.6221 54.7598 69.4807 54.7598C68.6754 54.7636 68.5888 54.8465 68.5888 55.7011ZM34.3757 64.6934V55.6441C34.3757 54.8245 34.4394 54.7636 35.2511 54.7597C35.3901 54.7597 35.5292 54.761 35.6683 54.7623L35.6694 54.7623H35.6695H35.6696H35.6697H35.6698H35.6699H35.67H35.6701H35.6702H35.6702H35.6703H35.6704H35.6705H35.6706H35.6707H35.6708H35.6709H35.671C36.0189 54.7654 36.3667 54.7686 36.7138 54.752C37.2005 54.7287 37.4031 54.9824 37.398 55.4524V55.8409V73.5537C37.398 74.6698 37.3343 74.7345 36.2666 74.7358H35.3747C34.5057 74.7358 34.3732 74.6063 34.3732 73.7453C34.3749 70.7276 34.3757 67.7103 34.3757 64.6934ZM65.5927 73.8698V67.6017C65.5978 65.5343 65.5986 63.4661 65.5952 61.397C65.5952 60.6124 65.4742 60.4829 64.73 60.4829H63.5209C62.7003 60.4868 62.5831 60.6085 62.5831 61.467V71.7994V74.0006C62.5856 74.5004 62.8214 74.7515 63.331 74.7347C63.6429 74.7269 63.9547 74.7295 64.2662 74.7321H64.2664H64.2667C64.4221 74.7334 64.5774 74.7347 64.7326 74.7347C65.441 74.7282 65.5927 74.5806 65.5927 73.8698ZM48.5187 34.9859C48.0638 34.4809 47.9963 33.9811 48.4028 33.3803C49.5087 31.7541 49.5228 31.7385 51.1333 32.8391C51.1895 32.8772 51.2468 32.9122 51.3042 32.9472C51.3523 32.9765 51.4004 33.0059 51.448 33.0372C51.6737 33.1854 51.8262 33.284 51.9768 33.3803C52.0238 33.4104 52.074 33.4392 52.1285 33.4705C52.2487 33.5396 52.3901 33.6208 52.5655 33.7545C52.9683 33.9763 53.0774 34.0595 53.3336 34.2546L53.3336 34.2546C53.3764 34.2872 53.4234 34.323 53.4765 34.3631H53.4689C53.8639 34.5961 54.055 34.7256 54.3799 34.9859L54.571 35.1079L54.5711 35.108L54.5712 35.108L54.5714 35.1081L54.5715 35.1083C54.9722 35.3638 55.2777 35.5586 55.7738 35.9259C55.8428 35.9769 55.9111 36.0208 55.9759 36.0624C56.2114 36.2137 56.4009 36.3354 56.4109 36.6665L56.4111 36.6733C56.5011 36.8885 56.5368 37.1011 56.4046 37.3137L56.4046 37.3139C56.2662 37.7399 55.9994 38.0862 55.7347 38.4299L55.7344 38.4301L55.7342 38.4304L55.734 38.4307L55.7338 38.431L55.7336 38.4313L55.7334 38.4316L55.7331 38.4319L55.7329 38.4321L55.7327 38.4324L55.7325 38.4327C55.6761 38.5059 55.6198 38.579 55.5649 38.6527C55.2514 39.0735 54.8297 39.1137 54.3812 38.8715C54.2317 38.7904 54.0863 38.701 53.9411 38.6116C53.8709 38.5685 53.8007 38.5253 53.7301 38.4831C53.5085 38.3774 53.2991 38.2471 53.1057 38.0947L52.5655 37.7062C52.4963 37.662 52.4252 37.6175 52.3539 37.5729L52.3539 37.5728C52.2165 37.4868 52.0785 37.4004 51.9526 37.3151C51.9526 37.3151 51.8889 37.2504 51.7615 37.1857C51.7615 37.1857 51.665 37.1265 51.6341 37.108C51.624 37.102 51.6205 37.1013 51.6181 37.1008L51.6169 37.1005C51.613 37.0995 51.6096 37.0961 51.5708 37.0566L51.5706 37.0564L51.5704 37.0562C51.5704 37.0562 51.4132 36.9649 51.3792 36.9267C51.202 36.7632 50.9642 36.6318 50.7448 36.5104L50.7447 36.5104C50.6013 36.4311 50.4657 36.3561 50.3599 36.2793C50.1369 36.1175 49.9458 35.988 49.7547 35.8585C49.5635 35.729 49.3724 35.5995 49.1494 35.4377C48.8946 35.3082 48.7077 35.1487 48.5187 34.9859ZM38.434 43.2219V45.682C38.434 45.8679 38.4367 46.0537 38.4394 46.2392C38.4438 46.5474 38.4483 46.8547 38.4403 47.1594C38.3766 49.2645 38.5331 49.2627 40.1023 49.2451C40.2589 49.2433 40.4295 49.2414 40.6153 49.2414C41.1721 49.2414 41.4996 48.9022 41.5073 48.3713C41.5315 46.5858 41.5264 44.8003 41.5073 43.0148C41.5009 42.4218 41.1072 42.0812 40.5631 42.1149C40.3828 42.1256 40.1919 42.1084 39.9999 42.0911C39.3992 42.0372 38.7871 41.9822 38.4531 42.7739C38.4137 42.866 38.421 42.9795 38.4283 43.0918C38.4311 43.1358 38.434 43.1796 38.434 43.2219ZM51.8756 74.5106C52.1034 74.2845 52.1034 73.8287 52.1034 72.9153C52.1022 71.1958 52.0423 71.135 50.3667 71.135C50.3243 71.135 50.2818 71.1338 50.2393 71.1327H50.2391C50.1542 71.1304 50.0694 71.1281 49.9845 71.135C49.3729 71.1842 49.0709 71.4923 49.0454 72.1242C49.0361 72.4228 49.0392 72.7243 49.0423 73.026C49.0439 73.1769 49.0454 73.3279 49.0454 73.4785C49.0505 74.46 49.3168 74.728 50.2916 74.728C51.1956 74.7332 51.6486 74.7358 51.8756 74.5106ZM65.6084 56.571C65.6084 58.3035 65.6084 58.3086 63.8691 58.3073C62.7593 58.3073 62.581 58.1261 62.5797 57.0126V55.789C62.5899 55.0548 62.86 54.7739 63.5646 54.7622H64.5839C65.3484 54.7713 65.6033 55.0212 65.6148 55.798L65.6127 55.9919C65.6105 56.1849 65.6084 56.378 65.6084 56.571ZM39.9655 23.3625C39.2294 23.3696 38.4993 23.2274 37.8178 22.9444C37.1364 22.6614 36.5174 22.2431 35.9969 21.7141C35.4764 21.1851 35.065 20.5559 34.7866 19.8634C34.5082 19.1709 34.3685 18.429 34.3757 17.6809C34.3757 14.5346 36.882 12.0408 40.0203 12.0538C43.0885 12.0667 45.596 14.6433 45.5616 17.7418C45.5586 18.4846 45.4114 19.2195 45.1283 19.9044C44.8452 20.5893 44.4318 21.2106 43.9119 21.7328C43.392 22.255 42.7758 22.6677 42.0986 22.9474C41.4213 23.227 40.6964 23.3681 39.9655 23.3625ZM42.2756 17.7093C42.2706 18.1707 42.1317 18.6204 41.8764 19.0021C41.6211 19.3837 41.2608 19.6804 40.8404 19.855C40.42 20.0295 39.9583 20.0743 39.513 19.9835C39.0678 19.8928 38.6587 19.6706 38.3371 19.3449C38.0155 19.0191 37.7955 18.6041 37.7048 18.152C37.614 17.6998 37.6565 17.2305 37.8269 16.8027C37.9973 16.375 38.2881 16.0078 38.6628 15.7471C39.0376 15.4865 39.4796 15.3439 39.9337 15.3372C41.1901 15.3152 42.2756 16.4106 42.2756 17.7093ZM23.8114 37.7164C23.4049 37.1156 23.4724 36.6158 23.9273 36.1108C24.1163 35.948 24.3032 35.7885 24.558 35.659C24.781 35.4971 24.9721 35.3677 25.1632 35.2382L25.1633 35.2382C25.3544 35.1087 25.5455 34.9792 25.7685 34.8174C25.8743 34.7406 26.0099 34.6656 26.1534 34.5863C26.3728 34.4649 26.6105 34.3334 26.7878 34.17C26.8218 34.1318 26.9789 34.0405 26.9789 34.0405L26.9792 34.0402C27.0182 34.0006 27.0215 33.9972 27.0255 33.9962L27.0267 33.9959C27.0278 33.9957 27.0291 33.9954 27.0312 33.9946C27.0337 33.9936 27.0372 33.9919 27.0427 33.9887C27.0735 33.9702 27.1701 33.911 27.1701 33.911C27.2975 33.8463 27.3612 33.7815 27.3612 33.7815C27.4871 33.6963 27.6251 33.6099 27.7625 33.5238L27.7626 33.5238L27.7627 33.5237C27.8339 33.4791 27.9049 33.4346 27.9741 33.3905L28.5143 33.002C28.7077 32.8496 28.9171 32.7193 29.1386 32.6136C29.2092 32.5714 29.2794 32.5282 29.3496 32.4851L29.3496 32.4851L29.3496 32.4851C29.4949 32.3957 29.6403 32.3063 29.7897 32.2251C30.2382 31.983 30.66 32.0232 30.9734 32.444C31.0291 32.5186 31.0861 32.5926 31.1432 32.6668L31.1432 32.6668L31.1432 32.6668C31.408 33.0105 31.6748 33.3568 31.8131 33.7828L31.8132 33.7842C31.9438 33.9956 31.9089 34.207 31.8198 34.4209L31.8195 34.4302C31.8095 34.7613 31.62 34.883 31.3844 35.0343L31.3844 35.0343L31.3843 35.0344C31.3195 35.076 31.2513 35.1198 31.1824 35.1708C30.686 35.5382 30.3805 35.733 29.9796 35.9887L29.7885 36.1108C29.4636 36.3711 29.2724 36.5006 28.8774 36.7336H28.8851C28.832 36.7737 28.785 36.8094 28.7422 36.8421L28.7422 36.8421C28.486 37.0372 28.3769 37.1204 27.9741 37.3422C27.7987 37.4758 27.6573 37.5571 27.5371 37.6261L27.5371 37.6262C27.4825 37.6575 27.4324 37.6863 27.3854 37.7164C27.2348 37.8127 27.0823 37.9113 26.8566 38.0595C26.809 38.0907 26.7609 38.1201 26.7129 38.1494C26.6554 38.1845 26.5981 38.2195 26.5419 38.2576C24.9313 39.3582 24.9173 39.3426 23.8114 37.7164Z" fill="#343434"/>
</svg>
