<svg width="246" height="56" viewBox="0 0 246 56" fill="none" xmlns="http://www.w3.org/2000/svg">
<path d="M69.6328 13.6846H73.5322V24.0428C75.1379 21.7735 77.2787 20.6755 79.8784 20.6755C83.4337 20.6755 85.4599 22.5421 85.4599 26.2755V38.9762H81.5605V27.2637C81.5605 24.7016 80.5665 23.9696 78.6168 23.9696C77.4317 23.9696 76.2465 24.665 75.1761 26.0193C74.1057 27.3735 73.5322 29.167 73.5322 31.3997V39.0128H69.6328V13.6846Z" fill="#343434"/>
<path d="M105.147 31.0335H91.8046C91.8046 33.8518 93.5249 36.0113 96.4686 36.0113C98.5712 36.0113 100.483 34.8767 101.4 32.9734L104.726 34.2179C102.815 37.7682 100.636 39.3055 96.4686 39.3055C90.2754 39.3055 87.6758 34.2911 87.6758 30.0087C87.6758 25.7263 90.2372 20.7119 96.4686 20.7119C102.471 20.7119 105.147 25.3969 105.147 29.4231V31.0335ZM91.881 27.9224H101.018C100.674 25.6531 99.1064 24.006 96.4686 24.006C93.9837 23.9694 92.3398 25.5799 91.881 27.9224Z" fill="#343434"/>
<path d="M135.62 20.6755C136.537 20.6755 137.493 20.9317 138.487 21.4075C139.481 21.8833 140.207 22.3591 140.666 22.9813V13.6846H144.566V39.0128H140.666V36.9265C139.94 38.0978 137.837 39.3056 135.543 39.3056C130.038 39.3056 127.133 35.8651 127.133 30.0088C127.171 24.2624 130.115 20.6755 135.62 20.6755ZM131.262 29.9722C131.262 31.8023 131.72 33.2664 132.6 34.3644C133.479 35.4259 134.664 35.9749 136.079 35.9749C137.493 35.9749 138.64 35.4259 139.557 34.3644C140.437 33.2664 140.895 31.8023 140.895 29.9722C140.895 28.1422 140.437 26.6781 139.557 25.6167C138.678 24.5186 137.493 23.9696 136.079 23.9696C134.664 23.9696 133.517 24.5186 132.6 25.6167C131.72 26.6781 131.262 28.1788 131.262 29.9722Z" fill="#343434"/>
<path d="M159.436 23.5302L156.989 25.6165C156.11 24.5184 155.001 23.9694 153.701 23.9694C152.669 23.9694 151.828 24.6282 151.828 25.7629C151.828 26.1655 152.019 26.5681 152.325 26.8609C152.975 27.4832 153.587 27.7394 155.192 28.325C156.492 28.8008 157.066 28.9838 158.098 29.6426C159.589 30.4845 160.315 31.5825 160.468 33.5224C160.506 35.0597 159.856 36.5603 158.671 37.5852C157.486 38.6832 155.919 39.2322 153.931 39.2322C150.337 39.2322 147.814 36.9995 146.629 34.4008L149.917 32.6806C150.911 34.8767 152.287 35.9381 154.045 35.9381C155.728 35.9381 156.569 35.1695 156.569 33.5956C156.569 32.9734 156.301 32.5708 155.613 32.1681C155.307 31.9851 155.001 31.8021 154.657 31.6557C154.084 31.3995 152.707 30.9237 152.134 30.7041C149.458 29.6426 148.082 27.9956 148.082 25.7629C148.043 24.372 148.655 23.0544 149.726 22.1393C150.796 21.1511 152.172 20.6387 153.854 20.6387C156.148 20.6753 158.212 21.7733 159.436 23.5302Z" fill="#343434"/>
<path d="M171.899 39.2684C169.682 39.2684 167.808 38.2801 166.853 36.9991V46.2959H162.953V20.9676H166.853V23.0173C167.579 21.8461 169.682 20.6748 171.975 20.6748C177.48 20.6748 180.386 24.1153 180.386 29.9716C180.386 35.718 177.442 39.2684 171.899 39.2684ZM176.257 30.0082C176.257 28.1781 175.798 26.7141 174.919 25.6526C174.04 24.5546 172.855 24.0055 171.44 24.0055C170.026 24.0055 168.879 24.5546 167.961 25.6526C167.082 26.7141 166.623 28.1781 166.623 30.0082C166.623 31.8383 167.082 33.3023 167.961 34.4004C168.84 35.4618 170.026 36.0108 171.44 36.0108C172.855 36.0108 174.001 35.4618 174.919 34.4004C175.837 33.2657 176.257 31.8017 176.257 30.0082Z" fill="#343434"/>
<path d="M218.883 34.3277C217.354 37.6584 214.64 39.3055 210.74 39.3055C207.911 39.3055 205.694 38.427 204.165 36.6702C202.636 34.8767 201.871 32.6806 201.871 30.0087C201.871 27.3368 202.636 25.1407 204.165 23.3838C205.694 21.5903 207.911 20.7119 210.74 20.7119C214.678 20.7119 217.354 22.359 218.883 25.6897L215.404 27.1172C214.449 25.0309 212.881 24.006 210.74 24.006C207.567 24.006 206 26.3851 206 30.0087C206 33.6322 207.567 36.0113 210.74 36.0113C212.881 36.0113 214.449 34.9865 215.404 32.9002L218.883 34.3277Z" fill="#343434"/>
<path d="M237.69 31.0335H224.348C224.348 33.8518 226.068 36.0113 229.012 36.0113C231.152 36.0113 233.064 34.8035 233.943 32.9734L237.269 34.2179C235.358 37.7682 233.179 39.3055 229.012 39.3055C222.818 39.3055 220.219 34.2911 220.219 30.0087C220.219 25.7263 222.78 20.7119 229.012 20.7119C235.014 20.7119 237.69 25.3969 237.69 29.4231V31.0335V31.0335ZM224.424 27.9224H233.561C233.217 25.6531 231.649 24.006 229.012 24.006C226.527 23.9694 224.883 25.5799 224.424 27.9224Z" fill="#343434"/>
<path d="M115.819 20.7119C116.737 20.7119 117.692 20.9681 118.686 21.4439C119.68 21.9198 120.407 22.3956 120.865 23.0178V21.0047H124.765V39.0492H121.515L120.865 36.963C120.139 38.1342 118.036 39.3421 115.743 39.3421C110.237 39.3421 107.332 35.9015 107.332 30.0453C107.332 24.2989 110.276 20.7119 115.819 20.7119ZM111.423 30.0087C111.423 31.8388 111.881 33.3028 112.761 34.4009C113.64 35.4623 114.825 36.0113 116.24 36.0113C117.654 36.0113 118.801 35.4623 119.718 34.4009C120.598 33.3028 121.056 31.8388 121.056 30.0087C121.056 28.1786 120.598 26.7146 119.718 25.6531C118.839 24.5551 117.654 24.006 116.24 24.006C114.825 24.006 113.678 24.5551 112.761 25.6531C111.881 26.7146 111.423 28.1786 111.423 30.0087Z" fill="#343434"/>
<path d="M190.71 20.7119C191.627 20.7119 192.583 20.9681 193.577 21.4439C194.571 21.9198 195.297 22.3956 195.756 23.0178V21.0047H199.656V39.0492H196.406L195.756 36.963C195.03 38.1342 192.927 39.3421 190.633 39.3421C185.128 39.3421 182.223 35.9015 182.223 30.0453C182.223 24.2989 185.166 20.7119 190.71 20.7119ZM186.313 30.0087C186.313 31.8388 186.772 33.3028 187.651 34.4009C188.531 35.4623 189.716 36.0113 191.13 36.0113C192.545 36.0113 193.692 35.4623 194.609 34.4009C195.488 33.3028 195.947 31.8388 195.947 30.0087C195.947 28.1786 195.488 26.7146 194.609 25.6531C193.73 24.5551 192.545 24.006 191.13 24.006C189.716 24.006 188.569 24.5551 187.651 25.6531C186.772 26.7146 186.313 28.1786 186.313 30.0087Z" fill="#343434"/>
<path d="M57.591 27.7024C58.1645 35.3521 54.4562 39.7077 52.2006 42.7457C48.7217 46.2594 44.3253 51.0542 33.0858 51.3104C23.5667 51.6764 18.9026 47.6503 15.0032 44.2097C9.88046 38.8293 8.54242 35.645 8.31304 27.739C8.27481 22.871 10.2628 18.0396 13.6652 13.7938C18.4439 7.31537 26.0898 5.15588 33.1241 4.68006C40.5024 4.42385 46.3897 7.9742 50.4039 11.8174C55.4884 16.9416 57.094 21.3704 57.591 27.7024Z" fill="#343434"/>
</svg>
