<svg width="180" height="56" viewBox="0 0 180 56" fill="none" xmlns="http://www.w3.org/2000/svg">
<path d="M142.715 52.9646C142.715 48.73 146.189 45.2969 150.474 45.2969C154.76 45.2969 158.235 48.73 158.235 52.9646" fill="#343434"/>
<path d="M156.972 15.7051H143.637V27.4895H156.972V15.7051Z" fill="#343434"/>
<path d="M5.625 9.95215H9.69808V30.4598H5.625V9.95215Z" fill="#343434"/>
<path d="M161.742 50.4814V54.506H138.758V50.4814H161.742Z" fill="#343434"/>
<path d="M32.2547 30.4598H28.1822V20.2065C28.1822 18.1166 27.8298 16.6077 27.1252 15.6786C26.2629 14.5183 24.7487 13.9385 22.5808 13.9385C20.4147 13.9385 18.887 14.5183 18 15.6786C17.2948 16.6077 16.9425 18.1166 16.9425 20.2065V30.4598H12.8711V20.2259C12.8711 13.3775 16.1077 9.95215 22.5808 9.95215C29.0293 9.95215 32.2541 13.378 32.2541 20.2259V30.4598H32.2547Z" fill="#343434"/>
<path d="M54.8094 30.4598H50.7374V20.2065C50.7374 18.1166 50.3845 16.6077 49.6799 15.6786C48.8187 14.5183 47.3039 13.9385 45.1367 13.9385C42.9694 13.9385 41.4434 14.5183 40.5558 15.6786C39.8506 16.6077 39.4983 18.1166 39.4983 20.2065V30.4598H35.4258V20.2259C35.4258 13.3775 38.6629 9.95215 45.1367 9.95215C51.5851 9.95215 54.8088 13.378 54.8088 20.2259V30.4598H54.8094Z" fill="#343434"/>
<path d="M77.1286 30.4598H67.4575C60.9816 30.4598 57.7461 27.0483 57.7461 20.2259C57.7461 13.3775 60.9816 9.95215 67.4575 9.95215C73.9043 9.95215 77.1286 13.373 77.1286 20.2132V22.2183H61.9353C62.3527 25.056 64.1934 26.4757 67.4575 26.4757H77.1286V30.4598ZM72.9388 18.2325C72.5214 15.3698 70.6935 13.9385 67.457 13.9385C64.1934 13.9385 62.3521 15.3698 61.9347 18.2325H72.9388V18.2325Z" fill="#343434"/>
<path d="M90.7948 13.9385C88.2623 13.9385 86.5136 14.2861 85.5491 14.9829C84.8428 15.5001 84.4905 16.2989 84.4905 17.3821V30.4598H80.418V17.4065C80.418 12.4379 83.8767 9.95215 90.7942 9.95215V13.9385H90.7948Z" fill="#343434"/>
<path d="M115.836 30.4596H111.724V20.2063C111.724 18.1164 111.375 16.6075 110.675 15.6784C109.82 14.5182 108.316 13.9383 106.165 13.9383C104.013 13.9383 102.495 14.5182 101.615 15.6784C100.914 16.6075 100.565 18.1164 100.565 20.2063V30.4596H96.4531V1.86621H100.565V11.268C102.095 10.3921 103.961 9.95197 106.165 9.95197C112.612 9.95197 115.836 13.3779 115.836 20.2257V30.4596V30.4596Z" fill="#343434"/>
<path d="M137.531 20.2259C137.531 27.0483 134.308 30.4598 127.86 30.4598C121.384 30.4598 118.148 27.0483 118.148 20.2259C118.148 13.3775 121.384 9.95215 127.86 9.95215C134.308 9.95215 137.531 13.378 137.531 20.2259ZM133.459 20.2259C133.459 18.1299 133.107 16.616 132.401 15.6852C131.541 14.52 130.027 13.939 127.859 13.939C125.691 13.939 124.178 14.5205 123.317 15.6852C122.612 16.6165 122.259 18.1299 122.259 20.2259C122.259 22.3208 122.612 23.8359 123.317 24.7661C124.178 25.9058 125.691 26.4751 127.859 26.4751C130.027 26.4751 131.541 25.9058 132.401 24.7661C133.108 23.8359 133.459 22.3208 133.459 20.2259Z" fill="#343434"/>
<path d="M160.087 20.2259C160.087 27.0483 156.85 30.4598 150.376 30.4598C143.928 30.4598 140.703 27.0483 140.703 20.2259V9.95215H144.776V20.2453C144.776 22.3341 145.129 23.8436 145.834 24.7721C146.695 25.9075 148.209 26.4751 150.376 26.4751C152.544 26.4751 154.057 25.9075 154.92 24.7721C155.624 23.8436 155.977 22.3341 155.977 20.2453V9.95215H160.088V20.2259H160.087Z" fill="#343434"/>
<path d="M140.704 40.1959C140.704 33.3724 143.941 29.9609 150.416 29.9609C156.864 29.9609 160.088 33.3724 160.088 40.1959V50.4686H156.015V40.176C156.015 38.0861 155.662 36.5766 154.958 35.6491C154.096 34.5138 152.582 33.9462 150.415 33.9462C148.248 33.9462 146.734 34.5138 145.874 35.6491C145.168 36.5766 144.817 38.0861 144.817 40.176V50.468H140.703V40.1959H140.704Z" fill="#343434"/>
<path d="M174.373 13.9385C171.84 13.9385 170.091 14.2861 169.126 14.9829C168.42 15.5001 168.069 16.2989 168.069 17.3821V30.4598H163.996V17.4065C163.996 12.4379 167.455 9.95215 174.373 9.95215V13.9385H174.373Z" fill="#343434"/>
<path d="M152.001 42.3993C152.001 43.2636 151.293 43.9626 150.419 43.9626C149.544 43.9626 148.836 43.263 148.836 42.3993C148.836 41.534 149.545 40.835 150.419 40.835C151.294 40.835 152.001 41.5346 152.001 42.3993Z" fill="#343434"/>
<path d="M150.419 39.0882C151.456 39.0882 152.298 38.2567 152.298 37.2311C152.298 36.2055 151.456 35.374 150.419 35.374C149.381 35.374 148.539 36.2055 148.539 37.2311C148.539 38.2567 149.381 39.0882 150.419 39.0882Z" fill="#343434"/>
</svg>
