<svg width="70" height="56" viewBox="0 0 70 56" fill="none" xmlns="http://www.w3.org/2000/svg">
<path d="M12.0452 44.606L9.90641 50.6462H9.33258L7.05465 44.606L6.48082 49.2616C6.46343 49.3481 6.46343 49.4866 6.46343 49.5385C6.46343 50.0923 6.70687 50.2135 7.54153 50.2481V50.6462H4.89844V50.2481C5.54182 50.2135 5.75049 50.0923 5.83743 49.5904L6.55037 43.983C6.63732 43.3772 6.32432 43.1869 5.59399 43.1522V42.7715H8.13275C8.15014 43.0138 8.2197 43.2042 8.28925 43.4638L10.1325 48.3443L11.8366 43.4292C11.9409 43.1869 11.9931 42.9965 12.0105 42.7542H14.5144V43.1349C13.7841 43.1696 13.5059 43.3599 13.5754 43.9657L14.271 49.5731C14.3232 50.1096 14.5666 50.2135 15.21 50.2308V50.6289H11.5583V50.2308C12.3408 50.1962 12.6191 50.075 12.6191 49.5212C12.6191 49.4693 12.6191 49.3481 12.6017 49.2443L12.0452 44.606ZM21.0352 49.8847C20.8961 49.9366 20.7396 50.0058 20.5831 50.0058C20.3049 50.0058 20.2006 49.7462 20.2006 49.3654V46.3886C20.2006 45.056 19.4181 44.5541 17.9922 44.5541C16.7228 44.5541 15.749 45.0214 15.749 45.9733C15.749 46.4752 16.062 46.7867 16.5489 46.7867C17.0706 46.7867 17.401 46.4752 17.401 45.9906C17.401 45.6271 17.2097 45.3502 16.8445 45.281C17.001 45.0387 17.314 44.9002 17.8531 44.9002C18.4269 44.9002 18.653 45.3502 18.653 46.0079V46.9598L16.9489 47.5655C16.1142 47.8597 15.4187 48.2751 15.4187 49.227C15.4187 50.1096 16.0099 50.6635 16.9315 50.6635C17.7488 50.6635 18.34 50.1616 18.7051 49.6943C18.8269 50.3 19.2268 50.6808 19.8354 50.6808C20.3571 50.6808 20.7918 50.4558 21.1048 50.0923L21.0352 49.8847ZM18.653 49.4693C18.34 49.7116 18.1139 49.8327 17.7835 49.8327C17.1923 49.8327 16.9141 49.4347 16.9141 48.8462C16.9141 48.2059 17.2097 47.9809 17.6966 47.7732L18.6704 47.3925V49.4693H18.653ZM21.2613 50.1789L21.1743 48.6386H21.5917C21.8525 49.6077 22.409 50.3346 23.2784 50.3346C23.887 50.3346 24.3565 50.0577 24.3565 49.4174C24.3565 48.8116 23.9392 48.5693 23.0697 48.2578C21.8699 47.8424 21.2439 47.3751 21.2439 46.3367C21.2439 45.2118 22.096 44.5541 23.3306 44.5541C24.0609 44.5541 24.6869 44.7272 25.1738 45.0214V46.3886H24.7912C24.5999 45.5925 24.1304 44.9176 23.3479 44.9176C22.7741 44.9176 22.4263 45.2464 22.4263 45.7483C22.4263 46.2502 22.7915 46.4925 23.6609 46.8213C24.8782 47.2367 25.5911 47.6867 25.5911 48.7943C25.5911 49.9885 24.7043 50.6981 23.3132 50.6981C22.4437 50.7327 21.7308 50.525 21.2613 50.1789V50.1789ZM28.0081 44.658H29.4862V45.1772H28.0081V48.9155C28.0081 49.5904 28.269 49.8847 28.808 49.8847C29.1036 49.8847 29.3645 49.7808 29.6427 49.5904L29.7992 49.7808C29.434 50.3346 28.8602 50.75 28.0429 50.75C27.1213 50.75 26.4605 50.2827 26.4605 49.002V45.1772H25.765V44.9695C26.5475 44.606 27.1909 44.0003 27.6951 43.2561H28.0603L28.0081 44.658ZM34.7376 48.7597C34.3203 49.3308 33.816 49.677 33.0509 49.677C31.938 49.677 31.1381 48.7251 31.1903 47.1675H34.8767V46.9079C34.8767 45.5579 34.0768 44.5714 32.5466 44.5714C31.0164 44.5714 29.7644 45.9041 29.7644 47.8251C29.7644 49.5385 30.8773 50.75 32.5118 50.75C33.7986 50.75 34.6333 49.9712 34.9115 48.8635L34.7376 48.7597ZM32.4249 44.9868C33.1552 44.9868 33.4334 45.6964 33.4334 46.7694H31.1903C31.2946 45.731 31.6598 44.9868 32.4249 44.9868ZM46.2142 43.308L46.2316 45.1079H45.7969C45.536 43.8272 44.8753 43.1176 43.7624 43.1176C42.2148 43.1176 41.5018 44.6579 41.5018 46.579C41.5018 48.6732 42.3365 50.2654 43.8667 50.2654C44.9448 50.2654 45.6578 49.5904 46.0403 47.9636H46.4924L46.3185 50.075C45.6578 50.4904 44.7883 50.75 43.7102 50.75C41.241 50.75 39.7282 49.227 39.7282 46.8905C39.7282 44.2772 41.4845 42.6157 43.7102 42.6157C44.7535 42.633 45.5882 42.858 46.2142 43.308V43.308ZM49.0834 49.7635C49.0834 50.1616 49.2399 50.2135 49.7789 50.2654V50.6462H46.788V50.2654C47.3097 50.2308 47.4836 50.1616 47.4836 49.7635V43.7753L46.8228 43.4118V43.1696L48.8225 42.633H49.0834V49.7635ZM55.6042 49.8847C55.465 49.9366 55.3085 50.0058 55.152 50.0058C54.8564 50.0058 54.7695 49.7462 54.7695 49.3654L54.7869 46.3886C54.7869 45.056 53.987 44.5541 52.5611 44.5541C51.2917 44.5541 50.318 45.0214 50.318 45.9733C50.318 46.4752 50.631 46.7867 51.1178 46.7867C51.6395 46.7867 51.9699 46.4752 51.9699 45.9906C51.9699 45.6271 51.7786 45.3502 51.4135 45.281C51.57 45.0387 51.883 44.9002 52.422 44.9002C52.9958 44.9002 53.2219 45.3502 53.2219 46.0079V46.9598L51.5178 47.5655C50.6831 47.8597 49.9876 48.2751 49.9876 49.227C49.9876 50.1096 50.5788 50.6635 51.5004 50.6635C52.3177 50.6635 52.9089 50.1616 53.2741 49.6943C53.3958 50.3 53.7957 50.6808 54.4043 50.6808C54.926 50.6808 55.3607 50.4558 55.6737 50.0923L55.6042 49.8847ZM53.2219 49.4693C52.9089 49.7116 52.6828 49.8327 52.3524 49.8327C51.7612 49.8327 51.483 49.4347 51.483 48.8462C51.483 48.2059 51.796 47.9636 52.2655 47.7732L53.2393 47.3925V49.4693H53.2219ZM55.865 50.1789L55.8128 48.6386H56.2302C56.4736 49.6077 57.0474 50.3346 57.9169 50.3346C58.5255 50.3346 58.995 50.0577 58.995 49.4174C58.995 48.8116 58.5776 48.5693 57.6908 48.2578C56.491 47.8424 55.865 47.3751 55.865 46.3367C55.865 45.2118 56.717 44.5541 57.969 44.5541C58.682 44.5541 59.3254 44.7272 59.7949 45.0214V46.3886H59.4123C59.2384 45.5925 58.7515 44.9176 57.969 44.9176C57.3778 44.9176 57.03 45.2464 57.03 45.7483C57.03 46.2502 57.3952 46.4925 58.2646 46.8213C59.4992 47.2367 60.2122 47.6867 60.2122 48.7943C60.2122 49.9885 59.2906 50.6981 57.8995 50.6981C57.0126 50.7327 56.3171 50.525 55.865 50.1789V50.1789ZM60.7512 50.1789L60.6991 48.6386H61.1164C61.3598 49.6077 61.9337 50.3346 62.8031 50.3346C63.4117 50.3346 63.8812 50.0577 63.8812 49.4174C63.8812 48.8116 63.4465 48.5693 62.5944 48.2578C61.3772 47.8424 60.7686 47.3751 60.7686 46.3367C60.7686 45.2118 61.6207 44.5541 62.8727 44.5541C63.5856 44.5541 64.229 44.7272 64.6985 45.0214V46.3886H64.3159C64.1421 45.5925 63.6552 44.9176 62.8727 44.9176C62.2814 44.9176 61.9511 45.2464 61.9511 45.7483C61.9511 46.2502 62.2814 46.4925 63.1683 46.8213C64.4029 47.2367 65.0984 47.6867 65.0984 48.7943C65.0984 49.9885 64.2116 50.6981 62.8205 50.6981C61.9337 50.7327 61.2381 50.525 60.7512 50.1789V50.1789ZM38.7892 44.5887C38.1806 44.5887 37.7806 45.0214 37.3459 46.2502L37.3807 44.5887H37.1199L35.0854 45.1945V45.4195L35.7635 45.8348V49.7981C35.7635 50.1962 35.5897 50.2481 35.068 50.3V50.6808H38.2849V50.3C37.5894 50.2481 37.3285 50.1789 37.3285 49.7289V46.8386C37.485 46.4406 37.6763 46.1117 37.9371 45.8175C38.0763 46.0771 38.3197 46.2502 38.6501 46.2502C39.1891 46.2502 39.5369 45.8867 39.5369 45.4021C39.5369 44.8656 39.2413 44.5887 38.7892 44.5887ZM17.4184 5.25H29.8861C29.8861 5.25 33.4508 17.5379 34.4594 20.9128C35.0158 22.7473 35.9896 23.6992 38.1806 23.4569L34.9984 34.1007H28.6341C28.6341 34.1007 23.7305 16.3957 21.9568 10.269C21.5221 8.76331 21.1743 7.60375 19.3485 7.60375H17.401V5.25H17.4184ZM40.5281 5.25H50.0397C50.0397 5.25 54.6478 21.7262 57.1344 29.5317C57.4995 30.6912 58.0907 31.3835 59.4297 31.4354C59.9514 31.4527 61.4816 31.4354 61.4816 31.4354V34.118H48.8051L40.5281 5.25ZM8.77614 31.4874H19.7832V34.1007H8.77614V31.4874Z" fill="#343434"/>
</svg>
