<svg width="180" height="56" viewBox="0 0 180 56" fill="none" xmlns="http://www.w3.org/2000/svg">
<path d="M141.736 18.1466C138.249 18.1466 135.43 15.342 135.43 11.8731C135.43 8.40422 138.249 5.59961 141.736 5.59961C145.222 5.59961 148.042 8.40422 148.042 11.8731C148.042 15.342 145.222 18.1466 141.736 18.1466Z" fill="#343434"/>
<path d="M141.736 34.2852C138.249 34.2852 135.43 31.4806 135.43 28.0118C135.43 24.5429 138.249 21.7383 141.736 21.7383C145.223 21.7383 148.042 24.5429 148.042 28.0118C148.042 31.456 145.223 34.2852 141.736 34.2852Z" fill="#343434"/>
<path d="M157.982 34.2852C154.495 34.2852 151.676 31.4806 151.676 28.0118C151.676 24.5429 154.495 21.7383 157.982 21.7383C161.469 21.7383 164.288 24.5429 164.288 28.0118C164.313 31.456 161.469 34.2852 157.982 34.2852Z" fill="#343434"/>
<path d="M141.736 50.3995C138.249 50.3995 135.43 47.5949 135.43 44.126C135.43 40.6572 138.249 37.8525 141.736 37.8525C145.223 37.8525 148.042 40.6572 148.042 44.126C148.042 47.5949 145.223 50.3995 141.736 50.3995Z" fill="#343434"/>
<path d="M125.462 50.3995C121.975 50.3995 119.156 47.5949 119.156 44.126C119.156 40.6572 121.975 37.8525 125.462 37.8525C128.949 37.8525 131.768 40.6572 131.768 44.126C131.768 47.5949 128.949 50.3995 125.462 50.3995Z" fill="#343434"/>
<path d="M125.462 18.1466C121.975 18.1466 119.156 15.342 119.156 11.8731C119.156 8.40422 121.975 5.59961 125.462 5.59961C128.949 5.59961 131.768 8.40422 131.768 11.8731C131.768 15.342 128.949 18.1466 125.462 18.1466Z" fill="#343434"/>
<path d="M125.462 34.2852C121.975 34.2852 119.156 31.4806 119.156 28.0118C119.156 24.5429 121.975 21.7383 125.462 21.7383C128.949 21.7383 131.768 24.5429 131.768 28.0118C131.768 31.456 128.949 34.2852 125.462 34.2852Z" fill="#343434"/>
<path d="M97.0001 37.9755C96.2829 36.8684 95.3185 35.9828 94.1315 35.3185C95.0217 34.7281 95.7389 33.9654 96.2829 33.0797C96.827 32.1941 97.099 31.1116 97.099 29.8323C97.099 28.7006 96.8764 27.6919 96.456 26.7817C96.0356 25.8714 95.4421 25.0841 94.7002 24.4199C93.9584 23.7556 93.0681 23.2636 92.0295 22.9192C90.9908 22.5747 89.8533 22.3779 88.6168 22.3779H75.0156V49.8336H89.4081C90.6941 49.8336 91.8811 49.6368 92.9445 49.2678C94.0078 48.8988 94.9228 48.3575 95.6894 47.6687C96.456 46.9798 97.0495 46.1679 97.4699 45.2085C97.8903 44.249 98.1129 43.1665 98.1129 41.9856C98.0882 40.3865 97.7172 39.058 97.0001 37.9755ZM80.1346 26.6587H88.2211C89.4081 26.6587 90.3231 26.9293 90.9908 27.4951C91.6338 28.061 91.98 28.8974 91.98 29.9799C91.98 31.087 91.6585 31.9481 90.9908 32.5631C90.3231 33.1782 89.4081 33.498 88.2211 33.498H80.1346V26.6587ZM92.0295 44.4458C91.4112 45.1347 90.3973 45.4791 89.0125 45.4791H80.1346V37.8279H89.0125C90.3726 37.8279 91.3865 38.2215 92.0047 38.9842C92.6477 39.7469 92.9445 40.6817 92.9445 41.7396C92.9445 42.8713 92.6477 43.757 92.0295 44.4458Z" fill="#343434"/>
<path d="M64.828 49.5632C66.2376 49.022 67.4493 48.2593 68.4385 47.2998C69.4276 46.3404 70.1695 45.2087 70.7136 43.9294C71.2329 42.6255 71.5049 41.2478 71.5049 39.7963V22.3535H66.3859V39.7963C66.3859 40.7803 66.2376 41.666 65.9408 42.4533C65.6441 43.2159 65.2237 43.8802 64.6549 44.4214C64.1108 44.9626 63.4431 45.3809 62.6765 45.6515C61.9099 45.9467 61.0444 46.0697 60.1047 46.0697C59.165 46.0697 58.2994 45.9221 57.5328 45.6515C56.7662 45.3563 56.0985 44.9626 55.5297 44.4214C54.9857 43.8802 54.5406 43.2405 54.2438 42.4533C53.947 41.6906 53.7987 40.8049 53.7987 39.7963V22.3535H48.6797V39.7963C48.6797 41.2724 48.9517 42.6501 49.471 43.9294C49.9903 45.2333 50.757 46.3404 51.7461 47.2998C52.7353 48.2593 53.9223 48.9974 55.3319 49.5632C56.7415 50.1044 58.3242 50.3751 60.1294 50.3751C61.811 50.3997 63.4184 50.129 64.828 49.5632Z" fill="#343434"/>
<path d="M30.5031 49.8092L36.7597 37.8527C37.1306 37.1638 37.4521 36.5242 37.7488 35.9338C38.0456 35.3433 38.3176 34.7283 38.5649 34.1378C38.8369 33.5474 39.0842 32.9569 39.3315 32.3419C39.5788 31.7268 39.8508 31.0872 40.1476 30.3983H40.296C40.2465 31.1364 40.197 31.8252 40.1476 32.4649C40.0981 33.1045 40.0487 33.7196 40.0239 34.3346C39.9992 34.9251 39.9745 35.5647 39.9745 36.2044C39.9497 36.844 39.9497 37.5329 39.9497 38.2709V49.8338H45.0687V22.3535H39.3562L33.99 32.7847C33.619 33.4982 33.2975 34.1378 32.9761 34.7529C32.6793 35.3433 32.3825 35.9337 32.1105 36.5242C31.8385 37.09 31.5665 37.6805 31.2945 38.2955C31.0224 38.886 30.7504 39.5502 30.4784 40.2145C30.1816 39.5256 29.9096 38.886 29.6623 38.2955C29.3903 37.7051 29.1183 37.1146 28.8462 36.5242C28.5742 35.9584 28.2775 35.3679 27.9807 34.7529C27.684 34.1624 27.3378 33.4982 26.9668 32.7847L21.6005 22.3535H15.9375V49.8092H21.0565V38.2463C21.0565 37.5083 21.0565 36.8194 21.0318 36.1798C21.007 35.5401 21.007 34.9251 20.9823 34.31C20.9576 33.7196 20.9081 33.0799 20.8587 32.4403C20.8092 31.8006 20.7597 31.1118 20.7103 30.3737H20.8587C21.1307 31.0626 21.378 31.7022 21.65 32.3173C21.922 32.9323 22.1693 33.5228 22.4413 34.1132C22.7134 34.7037 22.9854 35.2941 23.2574 35.9091C23.5542 36.4996 23.8756 37.1638 24.2466 37.8281L30.5031 49.8092Z" fill="#343434"/>
<path d="M106.498 22.3535H101.379V49.8092H106.498V22.3535Z" fill="#343434"/>
</svg>
