<svg width="232" height="88" viewBox="0 0 232 88" fill="none" xmlns="http://www.w3.org/2000/svg">
<path fill-rule="evenodd" clip-rule="evenodd" d="M15.1736 33.9978C1.0895 43.7418 -6.19917 58.0501 10.9499 68.7213C25.7496 77.9335 51.2044 80.8919 71.893 82.4525C92.6625 84.0209 113.542 83.6629 134.088 82.2656C168.836 79.9059 233.024 72.7091 230.411 47.1792C228.913 32.5474 206.58 18.0631 184.078 11.0429C156.965 2.58401 125.083 3.59587 96.5944 7.27674C67.6724 11.0121 40.2325 18.3989 22.3878 31.6222C7.94833 42.3226 -3.22006 59.8124 15.4114 71.7197C31.8719 82.2402 62.5963 82.987 84.9756 81.8053C112.088 80.3726 139.106 78.1155 164.82 73.4123C188.41 69.0956 213.332 62.1217 224.763 49.391C232.883 40.3436 231.785 30.3747 216.684 23.4299C201.211 16.3118 178.798 14.1139 159.749 12.7292C138.806 11.2074 118.362 11.2529 97.6789 12.7236C92.7373 13.0762 87.7912 13.4249 82.8457 13.7557C80.6394 13.9044 81.5113 15.7728 83.6966 15.6246C97.4696 14.7003 111.098 13.4148 125.058 13.4138C134.862 13.4148 144.694 13.7284 154.486 14.2961C174.82 15.477 198.145 17.6773 214.876 25.0161C234.976 33.8365 225.383 48.4307 211.059 56.7336C191.505 68.0709 160.788 72.8411 133.537 76.0152C107.685 79.0265 78.8437 81.8194 52.1352 79.4987C39.1941 78.3738 25.8855 75.5532 17.0246 69.8894C6.78893 63.3482 8.12166 54.3352 12.1921 46.8925C22.1785 28.6506 51.1385 17.153 82.7178 11.4126C113.1 5.89297 148.545 3.51814 179.088 11.7094C194.307 15.7892 206.464 22.5656 215.492 30.3809C222.677 36.6046 228.09 43.7438 226.818 51.0804C224.646 63.619 200.83 70.4547 181.9 74.3034C159.785 78.797 135.517 80.7715 111.801 81.4386C89.6721 82.0602 66.7892 81.0178 45.2518 77.4031C33.2371 75.3844 21.1632 72.2575 12.6238 66.9441C3.05854 60.9899 2.62715 52.9207 6.88713 45.9455C12.5818 36.6244 26.3607 29.1298 40.2759 23.4317C54.0497 17.7903 71.2033 13.1748 88.8897 12.7781C91.0947 12.729 91.1853 10.8237 88.9594 10.8734C59.9367 11.5233 32.4686 22.0309 15.1736 33.9978Z" fill="#FF4D93" fill-opacity="0.98"/>
</svg>
