<svg width="186" height="56" viewBox="0 0 186 56" fill="none" xmlns="http://www.w3.org/2000/svg">
<path d="M29.0414 0.548828C13.9087 0.548828 1.64062 12.839 1.64062 27.9993C1.64062 43.1613 13.9087 55.4508 29.0414 55.4508C44.1748 55.4508 56.4422 43.1613 56.4422 27.9993C56.4422 12.8399 44.1755 0.550138 29.0411 0.550138L29.0414 0.548828V0.548828ZM41.6073 40.1403C41.1152 40.949 40.0635 41.2024 39.2589 40.7097C32.8245 36.7699 24.7256 35.8799 15.1877 38.0627C14.2686 38.2738 13.3524 37.6966 13.1431 36.7761C12.9327 35.8553 13.5062 34.9375 14.4276 34.7277C24.8653 32.3371 33.8186 33.366 41.0409 37.7874C41.8458 38.2824 42.101 39.3346 41.6069 40.141L41.6073 40.1403V40.1403ZM44.9611 32.6668C44.3413 33.6742 43.0266 33.9902 42.0225 33.3716C34.6588 28.8368 23.4302 27.5233 14.7185 30.1726C13.5887 30.5145 12.3954 29.8766 12.0525 28.7467C11.7122 27.6148 12.3493 26.4216 13.4771 26.0774C23.4283 23.0525 35.7991 24.5178 44.2572 29.7249C45.2618 30.3444 45.5791 31.6621 44.9607 32.6672L44.9611 32.6668ZM45.249 24.8836C36.4165 19.6287 21.8476 19.1455 13.4159 21.7092C12.062 22.1206 10.6301 21.3548 10.2198 19.9984C9.8095 18.6413 10.5732 17.2079 11.9281 16.7955C21.6071 13.8519 37.6972 14.4206 47.8646 20.4675C49.0825 21.1916 49.482 22.7673 48.7602 23.9857C48.0403 25.2058 46.4632 25.608 45.2493 24.8836H45.249V24.8836ZM76.1891 25.8906C71.4581 24.7603 70.6159 23.9671 70.6159 22.3002C70.6159 20.7255 72.0958 19.6657 74.2966 19.6657C76.4299 19.6657 78.5453 20.4704 80.7631 22.1271C80.8302 22.1773 80.9143 22.1973 80.997 22.1842C81.0798 22.1717 81.1531 22.1261 81.2015 22.0576L83.5116 18.7954C83.6065 18.661 83.5806 18.4758 83.4527 18.3732C80.8132 16.2513 77.8409 15.2198 74.3667 15.2198C69.2584 15.2198 65.6903 18.2909 65.6903 22.685C65.6903 27.3971 68.7682 29.0656 74.0872 30.3536C78.6144 31.3982 79.3784 32.2735 79.3784 33.8381C79.3784 35.5718 77.8333 36.6496 75.3469 36.6496C72.5854 36.6496 70.3329 35.7177 67.8131 33.5316C67.7507 33.4775 67.6649 33.4529 67.5857 33.4575C67.5023 33.4644 67.4261 33.503 67.3731 33.567L64.7829 36.6552C64.6743 36.7833 64.688 36.9748 64.8137 37.0856C67.7454 39.7076 71.3512 41.0926 75.2423 41.0926C80.7467 41.0926 84.3038 38.0795 84.3038 33.4159C84.3136 29.479 81.961 27.2991 76.199 25.8949L76.1891 25.8906V25.8906ZM96.757 21.2162C94.3711 21.2162 92.4141 22.1576 90.8003 24.0867V21.9154C90.8003 21.7439 90.6616 21.6043 90.4908 21.6043H86.2545C86.0834 21.6043 85.945 21.7439 85.945 21.9154V46.042C85.945 46.2134 86.0834 46.353 86.2545 46.353H90.4908C90.6616 46.353 90.8003 46.2134 90.8003 46.042V38.4262C92.4144 40.2409 94.3717 41.1276 96.757 41.1276C101.19 41.1276 105.678 37.7087 105.678 31.1731C105.685 24.6358 101.195 21.2159 96.7619 21.2159L96.757 21.2162ZM100.752 31.1731C100.752 34.5012 98.7058 36.8237 95.7757 36.8237C92.879 36.8237 90.694 34.3956 90.694 31.1731C90.694 27.9508 92.879 25.5225 95.7757 25.5225C98.6584 25.5221 100.752 27.898 100.752 31.1727L100.752 31.1731V31.1731ZM117.181 21.2162C111.472 21.2162 106.999 25.6205 106.999 31.2442C106.999 36.8066 111.441 41.1647 117.111 41.1647C122.841 41.1647 127.327 36.7751 127.327 31.173C127.327 25.5903 122.871 21.2168 117.181 21.2168L117.181 21.2162V21.2162ZM117.181 36.8567C114.144 36.8567 111.855 34.4123 111.855 31.1714C111.855 27.9167 114.065 25.5549 117.111 25.5549C120.167 25.5549 122.472 27.9993 122.472 31.2425C122.472 34.4966 120.247 36.8567 117.181 36.8567H117.181V36.8567ZM139.519 21.6043H134.857V16.8296C134.857 16.6585 134.719 16.5188 134.548 16.5188H130.312C130.141 16.5188 130.002 16.6585 130.002 16.8296V21.6043H127.965C127.795 21.6043 127.657 21.7439 127.657 21.9154V25.5628C127.657 25.7339 127.795 25.8739 127.965 25.8739H130.002V35.3115C130.002 39.1254 131.897 41.0591 135.634 41.0591C137.153 41.0591 138.414 40.7448 139.602 40.0698C139.699 40.0157 139.758 39.9115 139.758 39.8007V36.3274C139.758 36.2202 139.703 36.1189 139.611 36.0628C139.519 36.0048 139.404 36.0019 139.309 36.0487C138.493 36.4601 137.705 36.6499 136.823 36.6499C135.464 36.6499 134.857 36.0317 134.857 34.6461V25.8755H139.519C139.69 25.8755 139.828 25.7359 139.828 25.5645V21.9174C139.834 21.7459 139.697 21.6063 139.524 21.6063L139.519 21.6043V21.6043ZM155.761 21.623V21.0365C155.761 19.3113 156.421 18.542 157.902 18.542C158.786 18.542 159.495 18.7177 160.289 18.9832C160.387 19.014 160.489 18.9986 160.569 18.9399C160.651 18.8813 160.697 18.7872 160.697 18.6875V15.1112C160.697 14.9745 160.609 14.8536 160.477 14.8133C159.638 14.5632 158.564 14.3065 156.956 14.3065C153.044 14.3065 150.976 16.5139 150.976 20.6877V21.5859H148.94C148.77 21.5859 148.63 21.7256 148.63 21.8967V25.5628C148.63 25.7339 148.77 25.8738 148.94 25.8738H150.976V40.431C150.976 40.6025 151.114 40.7421 151.284 40.7421H155.521C155.692 40.7421 155.831 40.6025 155.831 40.431V25.8749H159.786L165.845 40.4284C165.157 41.9576 164.481 42.2618 163.558 42.2618C162.811 42.2618 162.025 42.0386 161.222 41.598C161.146 41.5564 161.057 41.5495 160.975 41.5748C160.894 41.6033 160.826 41.6636 160.792 41.7422L159.356 44.898C159.288 45.0471 159.346 45.2222 159.49 45.2995C160.989 46.1128 162.342 46.4599 164.014 46.4599C167.142 46.4599 168.871 45.0002 170.395 41.0732L177.744 22.0478C177.781 21.9521 177.77 21.8439 177.712 21.759C177.653 21.6748 177.559 21.624 177.457 21.624H173.047C172.914 21.624 172.796 21.7082 172.753 21.8324L168.235 34.7601L163.287 21.8239C163.242 21.7036 163.126 21.6239 162.998 21.6239H155.76L155.761 21.623V21.623ZM146.344 21.6043H142.108C141.937 21.6043 141.798 21.7439 141.798 21.9154V40.4311C141.798 40.6025 141.937 40.7421 142.108 40.7421H146.344C146.515 40.7421 146.655 40.6025 146.655 40.4311V21.9167C146.655 21.8758 146.647 21.8352 146.631 21.7974C146.616 21.7596 146.593 21.7253 146.564 21.6964C146.535 21.6675 146.501 21.6446 146.463 21.629C146.425 21.6134 146.385 21.6055 146.344 21.6056L146.344 21.6043ZM144.25 13.1737C142.572 13.1737 141.21 14.5347 141.21 16.2159C141.21 17.8982 142.572 19.2609 144.25 19.2609C145.928 19.2609 147.288 17.8982 147.288 16.2159C147.288 14.535 145.927 13.1737 144.252 13.1737H144.25V13.1737ZM181.361 27.5574C179.685 27.5574 178.38 26.2085 178.38 24.5705C178.38 22.9325 179.702 21.5682 181.377 21.5682C183.054 21.5682 184.358 22.9168 184.358 24.5535C184.358 26.1915 183.036 27.5574 181.361 27.5574H181.361V27.5574ZM181.378 21.8652C179.851 21.8652 178.695 23.0813 178.695 24.5705C178.695 26.0591 179.843 27.2588 181.362 27.2588C182.889 27.2588 184.046 26.0437 184.046 24.5535C184.046 23.065 182.897 21.8652 181.379 21.8652H181.378V21.8652ZM182.039 24.8606L182.882 26.0433H182.171L181.412 24.9583H180.759V26.0433H180.164V22.9083H181.559C182.286 22.9083 182.765 23.281 182.765 23.9084C182.768 24.4224 182.47 24.7364 182.041 24.8606H182.039V24.8606ZM181.535 23.4462H180.759V24.4378H181.535C181.922 24.4378 182.154 24.248 182.154 23.9415C182.154 23.619 181.921 23.4462 181.535 23.4462H181.535V23.4462Z" fill="#343434"/>
</svg>
