<svg width="272" height="56" viewBox="0 0 272 56" fill="none" xmlns="http://www.w3.org/2000/svg">
<path fill-rule="evenodd" clip-rule="evenodd" d="M63.3042 16.6355L63.8615 13.1869H36.2219L35.8051 15.7142C35.3536 18.343 34.6921 20.7072 33.789 22.7761C32.7107 25.2064 31.3546 26.98 30 27.8014C31.3546 28.6228 32.676 30.3625 33.789 32.8267C34.6921 34.8618 35.3883 37.226 35.8051 39.887L36.2219 42.4144H63.8615L63.3057 38.9672C62.6111 34.6972 61.2881 30.8562 59.4804 27.9321L59.4109 27.8337L59.4804 27.7353C61.2533 24.7465 62.6095 20.9041 63.3057 16.6355H63.3042ZM54.8577 32.8575C55.3093 33.8435 55.7261 34.9602 56.0734 36.2077H41.6813C40.9156 32.9251 39.7679 30.0672 38.3438 27.7676C39.7679 25.4695 40.8809 22.6115 41.6813 19.3274H56.0387C55.6913 20.5764 55.2745 21.6932 54.823 22.6776C53.6389 25.3372 52.1801 27.1108 50.824 27.7676C52.2149 28.4259 53.6752 30.1656 54.8577 32.859V32.8575ZM80.257 42.9316H87.704V19.4832H95.5553V13.0693H72.4042V19.4832H80.257V42.9316ZM106.195 24.6731V13.0693H98.7475V42.9316H106.195V31.0487H114.789V42.9316H122.236V13.0693H114.788V24.6731H106.193H106.195ZM135.111 31.0884H146.974V24.6731H135.111V19.4832H149.042V13.0693H127.666V42.9316H149.042V36.5177H135.111V31.0884ZM189.058 13.0693H179.873L170.447 24.0677V13.0693H163V42.9316H170.447V33.9272L173.415 30.5756L180.803 42.9331H189.478L178.381 25.1594L189.056 13.0664L189.058 13.0693ZM198.519 31.0884H210.382V24.6731H198.519V19.4832H212.452V13.0693H191.074V42.9316H212.451V36.5177H198.519V31.0884ZM223.071 13.0693H216.614V42.9316H224.061V27.2974L234.743 42.9316H241.2V13.0693H233.754V28.6712L223.071 13.0693Z" fill="#343434"/>
</svg>
