<svg width="216" height="68" viewBox="0 0 216 68" fill="none" xmlns="http://www.w3.org/2000/svg">
<path fill-rule="evenodd" clip-rule="evenodd" d="M120.641 7.03481L120.643 7.0348L120.639 7.01427L120.639 7.01415C120.622 6.93681 120.606 6.86605 120.609 6.7998H96.1871C96.1979 6.81742 96.2091 6.83391 96.2206 6.84935C96.2017 6.83969 96.1828 6.82939 96.164 6.8184H95.3677C95.3736 7.62171 95.3758 8.42691 95.3779 9.23306C95.3825 10.9594 95.3871 12.6901 95.4288 14.4158C95.4712 16.1222 95.7553 16.3625 97.3665 16.3759H100.586L91.9912 24.291C92.6112 24.979 93.2306 25.6603 93.8478 26.3391L93.8484 26.3398L93.8484 26.3399L93.8485 26.34L93.8486 26.3401L93.8487 26.3402L93.8488 26.3403L93.8489 26.3404C95.1788 27.8031 96.4979 29.254 97.7886 30.7347C98.3164 31.3404 98.5818 31.0957 99.0244 30.6878L99.0256 30.6867C100.176 29.6251 101.334 28.572 102.492 27.5188L102.493 27.5181L102.493 27.5178C104.184 25.9802 105.875 24.4424 107.541 22.8783C108.2 22.2722 108.547 22.379 109.134 22.9131C110.596 24.2731 112.072 25.6181 113.549 26.9633C114.919 28.2118 116.29 29.4604 117.65 30.7214C118.141 31.1754 118.372 31.2715 118.868 30.6867C119.847 29.5292 120.876 28.4156 121.905 27.3015L121.906 27.3008L121.907 27.3L121.908 27.2988L121.908 27.2985C122.291 26.8844 122.674 26.4701 123.054 26.0535L123.057 26.0499C123.855 25.1775 124.254 24.7408 124.236 24.3219C124.218 23.9021 123.782 23.5 122.908 22.6951L122.895 22.6834C121.44 21.3506 119.986 20.0048 118.464 18.5969C117.694 17.8836 116.906 17.1542 116.091 16.4026C116.549 16.4026 116.971 16.3976 117.37 16.3929C118.21 16.383 118.945 16.3743 119.683 16.4159C120.771 16.4773 121.201 16.0474 121.177 14.9472C121.143 13.3292 121.149 11.7168 121.154 10.106V10.1058V10.1055V10.1053V10.105V10.1048V10.1045V10.1043V10.1041V10.1038V10.1036V10.1029V10.1022V10.1016V10.1009V10.1003V10.0996V10.099V10.0983V10.0977V10.097C121.157 9.48823 121.159 8.87967 121.159 8.27111C121.159 8.21265 121.16 8.15316 121.161 8.09338C121.17 7.6699 121.179 7.23143 120.641 7.03481ZM190.54 52.3014C190.866 50.6386 191.191 48.977 191.701 47.3581L191.691 46.2979C191.325 46.2979 190.959 46.3032 190.591 46.3086H190.591H190.591H190.591H190.591H190.591H190.59H190.59H190.59H190.59C189.765 46.3205 188.938 46.3326 188.115 46.2845C187.008 46.2178 186.546 46.6878 186.368 47.7559C186.166 48.9633 185.9 50.1632 185.609 51.474L185.608 51.4744C185.475 52.077 185.335 52.7029 185.195 53.3638C184.947 52.7878 184.713 52.2479 184.489 51.7319L184.488 51.7297C184.015 50.6392 183.588 49.6559 183.178 48.6666C183.115 48.5164 183.057 48.3755 183.002 48.2433C182.522 47.0815 182.319 46.5907 181.956 46.394C181.691 46.2501 181.341 46.2636 180.734 46.287H180.733C180.447 46.298 180.105 46.3112 179.687 46.3112C179.242 46.3105 178.865 46.3015 178.545 46.2938L178.545 46.2938C177.648 46.2721 177.199 46.2613 176.929 46.4762C176.658 46.6924 176.569 47.1369 176.39 48.0284C176.328 48.3355 176.256 48.6957 176.162 49.1179C175.538 51.9205 174.949 54.7304 174.359 57.54L174.358 57.5436C174.233 58.1407 174.108 58.7379 173.982 59.3349C173.667 60.841 173.738 60.9212 175.219 60.9212H176.942C178.774 60.9212 178.867 60.8197 179.217 58.9504C179.434 57.8166 179.677 56.6878 179.941 55.466L179.942 55.4616L179.942 55.4604C180.069 54.8738 180.2 54.2658 180.335 53.6255C180.504 54.0258 180.664 54.4023 180.817 54.7621L180.818 54.7658L180.819 54.767C181.209 55.6846 181.552 56.493 181.888 57.3054C183.401 60.9719 183.462 61.0173 187.443 60.9212C187.488 60.9185 187.532 60.9185 187.576 60.9212C188.465 61.0333 188.84 60.5099 188.996 59.7248C189.075 59.3305 189.151 58.9355 189.226 58.5405C189.416 57.55 189.606 56.5597 189.843 55.5803C190.111 54.4949 190.326 53.3982 190.54 52.3019L190.54 52.3014ZM24.5352 54.5499C24.6646 53.9559 24.8418 53.1873 25.0377 52.3374C25.3884 50.8161 25.7991 49.0343 26.104 47.5266C26.3296 46.4211 26.6986 45.8897 27.9037 45.9885C28.7812 46.0604 29.665 46.0445 30.597 46.0277H30.5971H30.5972H30.5974H30.5975H30.5977H30.5978H30.598H30.5981H30.5983C31.0164 46.0202 31.4442 46.0125 31.8855 46.0125C31.7686 46.5729 31.6524 47.1293 31.5368 47.6825L31.5368 47.6827C31.0934 49.8054 30.6597 51.8817 30.2344 53.9597C30.2253 54.0041 30.2161 54.0487 30.2068 54.0933L30.2068 54.0934C30.0157 55.0159 29.8209 55.9555 31.0971 56.3631C31.3715 56.4507 31.6606 56.482 31.9473 56.4552C32.2339 56.4284 32.5123 56.3441 32.766 56.2071C33.0197 56.0702 33.2435 55.8834 33.4242 55.658C33.6049 55.4325 33.7388 55.1728 33.8179 54.8943C34.4338 52.5043 34.9753 50.0876 35.3974 47.6602C35.6124 46.4158 36.0796 45.8923 37.3723 46.0018C38.2559 46.0767 39.1246 46.0592 40.047 46.0406H40.0471H40.0472H40.0473H40.0474H40.0475H40.0476H40.0477H40.0478H40.0479H40.048C40.4749 46.032 40.9133 46.0232 41.37 46.0232C41.099 47.1113 40.8339 48.1906 40.5706 49.2627L40.5705 49.2631L40.5704 49.2634C39.8947 52.0143 39.2304 54.7184 38.5085 57.4046C38.1182 58.8439 37.0272 59.8266 35.6549 60.3607C32.9324 61.4607 29.8964 61.4798 27.1605 60.4141C25.9022 59.9361 24.8432 58.9268 24.5564 57.7624C24.2695 56.598 24.1739 56.2071 24.5352 54.5499ZM146.808 51.738C147.128 51.2848 147.434 50.8608 147.727 50.4548L147.727 50.4545L147.727 50.4541C148.372 49.5613 148.953 48.7553 149.486 47.9166C150.216 46.771 151.124 46.1568 152.531 46.2609C153.721 46.3344 154.916 46.3344 156.106 46.2609C156.834 46.2262 157.046 46.4639 156.903 47.1582C156.018 51.3401 155.145 55.5237 154.283 59.7092C154.115 60.5103 153.662 60.9296 152.812 60.9082C151.887 60.8401 150.957 60.8454 150.033 60.9242C148.806 61.0898 148.857 60.4356 149.032 59.6157C149.157 59.0271 149.285 58.4394 149.413 57.8512L149.414 57.8473C149.595 57.0146 149.776 56.1811 149.951 55.3431C149.992 55.1398 150.01 54.9324 150.036 54.6255C150.051 54.4405 150.07 54.2193 150.099 53.9411L145.34 60.051C144.85 58.8279 144.382 57.6502 143.897 56.4324L143.896 56.4294L143.884 56.4002C143.527 55.5012 143.16 54.5799 142.77 53.6019C142.639 54.2416 142.511 54.8493 142.388 55.4344L142.388 55.4348L142.388 55.4367L142.388 55.4379L142.388 55.4383L142.387 55.4402L142.387 55.4414L142.387 55.4418C142.086 56.8764 141.813 58.1753 141.584 59.4769C141.469 60.1178 141.188 60.7213 140.636 60.7774C139.278 60.9166 137.91 60.9372 136.548 60.8388C136.007 60.7993 136.147 60.3163 136.253 59.9527C136.275 59.8738 136.297 59.8005 136.309 59.7386C136.731 57.5763 137.192 55.4213 137.653 53.2676L137.654 53.2666L137.654 53.2656L137.654 53.2646L137.654 53.2636L137.654 53.2626L137.655 53.2616L137.655 53.2606C137.756 52.7886 137.857 52.3167 137.958 51.8448C138.056 51.3815 138.163 50.9195 138.27 50.4576C138.492 49.5004 138.713 48.5429 138.86 47.5721C139.027 46.4852 139.579 46.1835 140.578 46.2369C141.638 46.304 142.702 46.304 143.763 46.2369C144.825 46.1594 145.279 46.6695 145.541 47.6015C145.794 48.5596 146.092 49.4912 146.435 50.5648C146.554 50.9365 146.678 51.3252 146.808 51.738ZM109.626 47.5127L109.626 47.512C109.704 47.1128 109.783 46.7062 109.868 46.2903C108.246 46.2903 106.746 46.2903 105.23 46.2877C104.455 46.2823 104.285 46.8618 104.169 47.4199C103.344 51.3419 102.534 55.2701 101.74 59.2045C101.395 60.9189 101.416 60.9189 103.101 60.9189C103.428 60.9189 103.726 60.9209 103.998 60.9228C105.467 60.9327 106.171 60.9374 106.575 60.592C106.946 60.275 107.065 59.6631 107.293 58.4895L107.293 58.4893C107.362 58.1385 107.44 57.7375 107.537 57.2792C107.792 56.0935 108.299 55.5567 109.507 55.725C109.859 55.7719 110.216 55.7719 110.569 55.725C111.861 55.5541 112.018 56.0988 111.694 57.2337C111.638 57.4305 111.572 57.6398 111.505 57.8552C111.184 58.8817 110.821 60.0452 111.214 60.6412C111.567 61.1693 112.408 61.0743 113.275 60.9765C113.722 60.9259 114.177 60.8746 114.574 60.9083C114.751 60.9225 114.928 60.9177 115.105 60.913C115.194 60.9106 115.282 60.9083 115.371 60.9083C115.661 60.9297 115.949 60.838 116.174 60.6521C116.399 60.4662 116.545 60.2004 116.581 59.9095C117.484 55.7312 118.368 51.5475 119.235 47.3585C119.376 46.6802 119.326 46.1515 118.344 46.277C117.509 46.3797 116.665 46.3797 115.83 46.277C114.402 46.1088 113.849 46.6241 113.621 48.1062C113.108 51.4419 113.004 51.4365 109.765 51.2693L109.687 51.2653C109.053 51.2226 108.825 51.1345 109.005 50.4215C109.242 49.4774 109.43 48.5182 109.626 47.5127ZM124.998 46.0232C127.406 46.0232 127.408 46.0232 126.899 48.3598C126.771 48.9428 126.64 49.525 126.509 50.1072L126.508 50.1085L126.508 50.1098L126.508 50.1111L126.507 50.1125L126.507 50.1138L126.507 50.1147L126.507 50.115C126.212 51.4236 125.916 52.7319 125.667 54.0478L125.648 54.1469C125.476 55.0576 125.283 56.076 126.612 56.4058C127.814 56.7049 129.001 56.1067 129.322 54.8944C129.634 53.7544 129.879 52.5962 130.123 51.439C130.216 50.9996 130.309 50.5604 130.405 50.1223C130.455 49.9008 130.511 49.6796 130.568 49.4582C130.711 48.9056 130.853 48.3524 130.878 47.7937C130.939 46.341 131.637 45.8256 133.001 46.0152C133.355 46.0406 133.71 46.0406 134.063 46.0152C136.736 46.0152 136.736 46.0152 136.16 48.5761C135.966 49.4444 135.773 50.313 135.58 51.1817L135.579 51.1849L135.579 51.1866L135.579 51.1882L135.578 51.1899L135.578 51.1915L135.578 51.1932C135.275 52.5597 134.971 53.9265 134.66 55.2923C133.71 59.4768 131.13 61.4343 126.856 61.1672C125.887 61.1214 124.923 61 123.973 60.804C120.647 60.059 119.524 58.4247 120.103 55.0866C120.509 52.7393 121.014 50.4081 121.529 48.0794C121.977 46.0579 122.059 46.0232 124.196 46.0232H124.998ZM67.5002 46.2903H61.6603H61.6577C60.4773 46.2903 59.2863 46.2903 58.1085 46.301C57.5675 46.307 57.1152 46.2991 56.7337 46.2924C55.7807 46.2757 55.2697 46.2668 54.9231 46.5011C54.5223 46.772 54.3415 47.3683 53.9515 48.654C53.8458 49.0023 53.7248 49.4013 53.58 49.858C53.3676 50.5283 53.4472 50.8407 54.2436 50.7953C54.7137 50.7681 55.1872 50.7749 55.6611 50.7817C56.1157 50.7883 56.5705 50.7949 57.0229 50.7713C57.8192 50.7259 58.1059 50.8674 57.8803 51.7941C57.5075 53.3364 57.1829 54.8898 56.8583 56.4429L56.8583 56.443L56.8583 56.4431L56.8582 56.4432L56.8582 56.4433C56.6326 57.5227 56.4071 58.602 56.1654 59.6772C55.9451 60.6519 56.1654 61.1272 57.2272 60.9189C58.0146 60.7664 58.7982 60.8274 59.5828 60.8884L59.5833 60.8884C59.719 60.8989 59.8548 60.9095 59.9906 60.9189C60.9913 60.991 61.5116 60.5371 61.7054 59.517C61.8989 58.5027 62.1208 57.493 62.3428 56.4834L62.3428 56.4831C62.6596 55.0419 62.9763 53.6007 63.2105 52.1466C63.399 50.9609 63.9431 50.766 64.9731 50.766C68.1983 50.798 68.2009 50.7686 68.331 47.4707C68.3201 47.382 68.3201 47.2923 68.331 47.2036C68.5407 46.4452 68.1611 46.2903 67.5002 46.2903ZM46.2951 60.908C45.8362 60.908 45.3773 60.9042 44.9184 60.9005H44.9182C43.7844 60.8912 42.6507 60.8818 41.5169 60.9294C40.7206 60.9614 40.6091 60.6383 40.7445 60.0001L43.399 47.3262C43.5556 46.5785 43.9883 46.2233 44.8059 46.258C45.9073 46.3275 47.012 46.3275 48.1134 46.258C49.0053 46.1939 49.0265 46.6266 48.8858 47.2755C48.7224 48.0414 48.564 48.8084 48.4056 49.5753L48.4054 49.5759L48.4054 49.576C48.0209 51.4374 47.6366 53.298 47.1817 55.1399C46.9162 56.2081 47.256 56.3469 48.1638 56.3149C48.8887 56.2916 49.6154 56.2971 50.3422 56.3026H50.3423H50.3423H50.3423H50.3426C51.1168 56.3085 51.891 56.3144 52.6632 56.2855C53.4595 56.2561 53.5896 56.5525 53.364 57.2175C53.1395 57.8797 52.9725 58.424 52.8353 58.8712C52.5149 59.9155 52.3571 60.4299 52.0093 60.6795C51.6719 60.9218 51.1556 60.9149 50.1382 60.9014H50.1382H50.1382C49.7334 60.896 49.2493 60.8896 48.6655 60.8973C48.0806 60.9133 47.4882 60.9113 46.8929 60.9093C46.6939 60.9087 46.4945 60.908 46.2951 60.908ZM82.8672 60.8197H78.2192C77.2774 60.8197 76.8891 60.1843 76.4959 59.541C76.4081 59.3974 76.3201 59.2534 76.2257 59.116C76.0991 58.9329 76.0062 58.7093 75.9128 58.4848C75.6753 57.9133 75.4353 57.336 74.633 57.4069C73.6419 57.4957 73.5053 58.2965 73.3764 59.052C73.3541 59.1828 73.332 59.3123 73.3057 59.4364C73.0881 60.4165 72.5094 60.8518 71.5193 60.8251C70.635 60.776 69.7485 60.7804 68.8648 60.8384C67.8507 60.9319 67.6649 60.5393 67.8693 59.6234C68.367 57.3791 68.8448 55.1301 69.3229 52.8795L69.3232 52.878C69.5641 51.7442 69.805 50.61 70.0487 49.4757C70.1423 49.0345 70.2163 48.6535 70.2802 48.3248L70.2802 48.3247C70.4872 47.2599 70.5877 46.7425 70.9011 46.4984C71.1973 46.2678 71.6835 46.2812 72.6292 46.3074H72.6292C73.003 46.3177 73.4486 46.33 73.9826 46.33C74.4791 46.33 74.9756 46.3174 75.4722 46.3048C76.8338 46.2703 78.1954 46.2358 79.5571 46.4608C82.1585 46.8881 83.5839 48.0417 83.9715 50.0205C84.5024 52.6909 83.6503 54.87 81.4179 56.2025C80.6215 56.6699 80.4623 56.9876 81.033 57.7647C81.444 58.344 81.7995 58.9677 82.1936 59.659C82.4026 60.0258 82.6225 60.4115 82.8672 60.8197ZM76.0521 53.4845L75.9757 53.4849C75.471 53.4881 74.7054 53.493 74.685 52.8329C74.6691 51.1532 75.2769 50.2826 76.4317 50.28C78.1199 50.28 78.7729 50.6752 78.7995 51.7193C78.8313 52.9664 78.0721 53.4791 76.0521 53.4845ZM168.521 60.8229C168.874 60.8001 169.229 60.8001 169.582 60.8229C170.068 60.7956 170.554 60.7965 171.04 60.8256C172.062 60.9511 172.423 60.636 172.327 59.5251C171.985 55.5969 171.722 51.658 171.478 47.7218C171.414 46.6696 171.045 46.2504 169.944 46.2931C167.99 46.3679 166.044 46.3278 164.104 46.2664C163.079 46.2317 162.447 46.6456 162.017 47.5455C161.24 49.1707 160.447 50.7845 159.653 52.3973L159.651 52.4029C159.353 53.0091 159.054 53.6151 158.757 54.2216C158.521 54.7043 158.286 55.1873 158.05 55.6703C157.396 57.015 156.741 58.3592 156.063 59.6933C155.678 60.449 155.593 60.895 156.692 60.8362C157.791 60.7775 158.898 60.8015 160.002 60.8362C160.807 60.8603 161.33 60.6226 161.569 59.7681C161.924 58.4969 162.845 58.0403 164.106 58.1658C164.634 58.2383 165.168 58.257 165.699 58.2219C166.578 58.1258 166.952 58.5424 166.867 59.3435C166.734 60.6493 167.385 60.9724 168.521 60.8229ZM164.508 53.5677L164.217 54.1805L164.032 54.5683C164.551 54.5435 165.072 54.5471 165.59 54.5789C166.387 54.6724 166.753 54.4481 166.652 53.5802C166.606 53.1708 166.614 52.7562 166.622 52.341V52.3407C166.628 52.0897 166.633 51.8385 166.626 51.5881C166.615 51.281 166.58 50.9311 166.217 50.835C165.858 50.7353 165.73 51.0072 165.613 51.2564L165.592 51.3011C165.584 51.3169 165.577 51.3325 165.569 51.3477C165.222 52.0675 164.878 52.7899 164.511 53.5623L164.508 53.5674L164.508 53.5677ZM95.1855 46.3221C95.5537 46.3221 95.9219 46.3247 96.29 46.3274C97.0259 46.3328 97.7614 46.3381 98.4957 46.3221C99.223 46.3007 99.5363 46.6372 99.5841 47.3395L99.6747 48.6676L99.6747 48.668C99.9309 52.4235 100.187 56.1808 100.463 59.9359C100.516 60.6436 100.261 60.8866 99.5708 60.8385C98.8636 60.7929 98.1543 60.7929 97.4472 60.8385L97.3784 60.8425C96.022 60.9218 94.7101 60.9985 95.005 58.9318C95.0369 58.6995 94.9121 58.3123 94.6201 58.315C94.2006 58.321 93.7789 58.2792 93.3574 58.2375L93.3573 58.2374C92.4641 58.149 91.5722 58.0607 90.7047 58.4271C90.4622 58.5414 90.2505 58.7127 90.0874 58.9264C89.9243 59.1402 89.8147 59.3902 89.7677 59.6555C89.55 60.6356 88.9156 60.8812 88.0078 60.8439C86.946 60.7985 85.8842 60.7931 84.8224 60.8439C83.9172 60.8866 83.7181 60.6222 84.1455 59.7971C84.7723 58.5793 85.373 57.3485 85.9734 56.1186C86.1866 55.6816 86.3999 55.2448 86.6142 54.8087C86.9382 54.1501 87.2636 53.4924 87.589 52.8347L87.5892 52.8343L87.5894 52.8338C88.4395 51.1157 89.2894 49.3981 90.1128 47.668C90.5879 46.6692 91.2383 46.1725 92.393 46.2954C93.3176 46.3497 94.2444 46.3559 95.1696 46.3141L95.1855 46.3221ZM92.1868 54.5014C92.375 54.1104 92.5602 53.7251 92.7434 53.344C93.0769 52.6504 93.4035 51.9708 93.7291 51.2969C93.8751 50.9925 94.098 50.7361 94.4378 50.8456C94.7776 50.9551 94.8068 51.2942 94.8094 51.612V52.1461C94.8413 54.6403 94.8413 54.6403 92.1868 54.5014Z" fill="#343434"/>
</svg>
