<svg width="184" height="44" viewBox="0 0 184 44" fill="none" xmlns="http://www.w3.org/2000/svg">
<path fill-rule="evenodd" clip-rule="evenodd" d="M52.1228 5.04379C52.9393 5.93038 53.527 7.03433 53.827 8.2451C54.9259 12.7026 54.9259 22 54.9259 22C54.9259 22 54.9259 31.2974 53.827 35.7549C53.527 36.9657 52.9393 38.0696 52.1228 38.9562C51.3063 39.8428 50.2897 40.4809 49.1746 40.8067C45.0696 42 28.6134 42 28.6134 42C28.6134 42 12.1571 42 8.05208 40.8067C6.93705 40.4809 5.92039 39.8428 5.10389 38.9562C4.2874 38.0696 3.69973 36.9657 3.3997 35.7549C2.30078 31.2974 2.30078 22 2.30078 22C2.30078 22 2.30078 12.7026 3.3997 8.2451C3.69973 7.03433 4.2874 5.93038 5.10389 5.04379C5.92039 4.15719 6.93705 3.51906 8.05208 3.19327C12.1571 2 28.607 2 28.607 2C28.607 2 45.0696 2 49.1746 3.19327C50.2897 3.51906 51.3063 4.15719 52.1228 5.04379ZM37.0244 22.0005L23.3516 30.5722V13.4287L37.0244 22.0005Z" fill="#343434"/>
<path d="M78.3093 14.6929V16.0751C78.3093 22.9859 75.4877 27.0242 69.3164 27.0242H68.3765V39.1181H63.3359V4.84724H69.7619C75.6383 4.84724 78.3093 7.54477 78.3093 14.6929ZM73.0056 15.1836C73.0056 10.1985 72.1782 9.01448 69.3185 9.01448H68.3787V22.9468H69.2442C71.9533 22.9468 73.0077 20.8228 73.0077 16.2064L73.0056 15.1836ZM90.2362 13.6724L89.9731 20.1686C87.8283 19.6779 86.059 20.0465 85.2698 21.5508V39.1181H80.2674V14.0801H84.2557L84.7076 19.5075H84.8964C85.4226 15.5452 87.1155 13.5434 89.2985 13.5434C89.6142 13.5531 89.9282 13.5963 90.2362 13.6724V13.6724ZM95.9917 28.4916V29.7585C95.9917 34.1723 96.2166 35.6834 97.9477 35.6834C99.6024 35.6834 99.9801 34.3013 100.016 31.4356L104.492 31.7212C104.832 37.114 102.235 39.5236 97.8331 39.5236C92.4913 39.5236 90.9108 35.7249 90.9108 28.821V24.4441C90.9108 17.1716 92.6801 13.6171 97.9838 13.6171C103.326 13.6171 104.681 16.6395 104.681 24.1976V28.4916H95.9917ZM95.9917 23.343V25.1398H99.7913V23.3545C99.7913 18.7473 99.49 17.4296 97.8819 17.4296C96.2739 17.4296 95.9917 18.7795 95.9917 23.3545V23.343ZM130.531 20.1985V39.1135H125.344V20.6178C125.344 18.5745 124.854 17.554 123.726 17.554C122.822 17.554 121.995 18.1253 121.43 19.1873C121.462 19.5262 121.475 19.8671 121.468 20.2078V39.1227H116.273V20.6178C116.273 18.5745 115.783 17.554 114.654 17.554C113.751 17.554 112.957 18.1253 112.397 19.1481V39.1251H107.206V14.0801H111.307L111.767 17.2683H111.841C113.008 14.8588 114.89 13.5503 117.109 13.5503C119.292 13.5503 120.533 14.7344 121.097 16.8606C122.302 14.6952 124.108 13.5503 126.176 13.5503C129.328 13.5503 130.531 16.0013 130.531 20.1985ZM133.128 7.66686C133.128 4.96933 134.032 4.19531 135.95 4.19531C137.906 4.19531 138.771 5.09372 138.771 7.66686C138.771 10.445 137.906 11.1407 135.95 11.1407C134.032 11.1384 133.128 10.445 133.128 7.66686ZM133.429 14.0801H138.396V39.1251H133.429V14.0801ZM155.363 14.0801V39.1251H151.301L150.849 36.0612H150.736C149.569 38.5123 147.876 39.5328 145.77 39.5328C142.685 39.5328 141.291 37.4089 141.291 32.7924V14.0801H146.483V32.4653C146.483 34.6722 146.907 35.5706 147.951 35.5706C148.419 35.5498 148.873 35.3903 149.263 35.1092C149.654 34.8282 149.966 34.4365 150.166 33.9765V14.0801H155.363ZM181.699 20.1985V39.1135H176.508V20.6178C176.508 18.5745 176.018 17.554 174.889 17.554C173.985 17.554 173.158 18.1253 172.594 19.1873C172.626 19.5232 172.638 19.8609 172.632 20.1985V39.1135H167.441V20.6178C167.441 18.5745 166.951 17.554 165.822 17.554C164.918 17.554 164.125 18.1253 163.565 19.1481V39.1251H158.374V14.0801H162.47L162.922 17.266H162.996C164.163 14.8565 166.045 13.548 168.264 13.548C170.447 13.548 171.688 14.7321 172.252 16.8583C173.457 14.6929 175.263 13.548 177.331 13.548C180.503 13.5503 181.699 16.0013 181.699 20.1985V20.1985Z" fill="#343434"/>
</svg>
