<svg width="22" height="24" viewBox="0 0 22 24" fill="none" xmlns="http://www.w3.org/2000/svg">
<path d="M20.1663 16.9201V19.9201C20.1674 20.1986 20.1151 20.4743 20.0128 20.7294C19.9105 20.9846 19.7605 21.2137 19.5724 21.402C19.3843 21.5902 19.1622 21.7336 18.9203 21.8228C18.6785 21.912 18.4222 21.9452 18.168 21.9201C15.3473 21.5857 12.6377 20.5342 10.2572 18.8501C8.04233 17.3148 6.16455 15.2663 4.75715 12.8501C3.20797 10.2413 2.24388 7.27109 1.94299 4.1801C1.92008 3.90356 1.95021 3.62486 2.03145 3.36172C2.11269 3.09859 2.24326 2.85679 2.41486 2.65172C2.58645 2.44665 2.79531 2.28281 3.02813 2.17062C3.26095 2.05843 3.51263 2.00036 3.76715 2.0001H6.51716C6.96202 1.99532 7.3933 2.16718 7.7306 2.48363C8.06791 2.80008 8.28823 3.23954 8.35049 3.7201C8.46656 4.68016 8.68182 5.62282 8.99216 6.5301C9.11549 6.88802 9.14218 7.27701 9.06907 7.65098C8.99596 8.02494 8.82611 8.36821 8.57966 8.6401L7.41549 9.9101C8.72041 12.4136 10.6206 14.4865 12.9155 15.9101L14.0797 14.6401C14.3289 14.3712 14.6435 14.1859 14.9863 14.1062C15.3292 14.0264 15.6857 14.0556 16.0138 14.1901C16.8455 14.5286 17.7096 14.7635 18.5897 14.8901C19.0349 14.9586 19.4416 15.2033 19.7323 15.5776C20.023 15.9519 20.1775 16.4297 20.1663 16.9201Z" fill="#0F143A" fill-opacity="0.8"/>
</svg>
