<svg width="46" height="52" viewBox="0 0 46 52" fill="none" xmlns="http://www.w3.org/2000/svg">
<path d="M39.8027 38.5682C46.5001 30.7429 47.7169 17.1065 41.281 9.06971C38.1771 5.19946 33.9139 2.43017 29.1197 1.16999C24.3255 -0.0901972 19.2538 0.225383 14.6523 2.07022C4.77711 5.8167 0.493164 12.1414 0.493164 21.3364C0.493164 30.8134 4.03296 38.6991 15.9797 42.2543C20.2693 43.396 24.7505 43.6224 29.1331 42.919C30.1288 42.719 31.1542 42.719 32.1499 42.919C33.4068 43.4338 34.5087 44.2667 35.3478 45.336C37.6708 47.733 39.7725 50.6939 43.2117 51.4895C44.8006 51.842 39.7122 43.7146 39.8027 38.5682Z" fill="white"/>
<path d="M43.322 51.9932C43.2519 52.0023 43.1809 52.0023 43.1108 51.9932C40.0939 51.3084 38.1531 49.133 36.2323 47.018C35.8301 46.5749 35.4077 46.1217 34.9954 45.6987L34.7943 45.4872C34.2279 44.6064 33.3911 43.9337 32.4099 43.5705C31.4287 43.2072 30.3562 43.173 29.3539 43.473H29.2031C24.75 44.1946 20.1947 43.9612 15.8385 42.7881C10.0461 41.066 5.95326 38.3065 3.33865 34.3485C1.09613 30.9444 0 26.7045 0 21.3969C0 11.8092 4.73642 5.35355 14.4808 1.6675C24.537 -2.11927 35.1563 0.660387 41.6325 8.81805C47.9679 16.734 47.3243 30.4207 40.2649 38.81C40.2649 41.5494 41.7431 45.1649 42.8392 47.8137C43.9354 50.4624 44.237 51.3084 43.8448 51.8421C43.7727 51.9018 43.689 51.946 43.599 51.972C43.5091 51.998 43.4148 52.0052 43.322 51.9932ZM30.9528 42.2644C31.4078 42.2575 31.8615 42.3151 32.3004 42.4356C33.5587 42.9139 34.6663 43.7206 35.5083 44.7722L35.7094 44.9736C36.1318 45.4167 36.5542 45.88 36.9564 46.3231C38.7062 48.2366 40.5062 50.2005 42.9901 50.9156C42.7053 49.9715 42.3696 49.0436 41.9845 48.1359C40.8381 45.3462 39.2693 41.5192 39.3296 38.5582C39.3361 38.4441 39.3783 38.3348 39.4503 38.246C46.3388 30.1891 47.0126 16.9858 40.9185 9.37195C34.6938 1.58692 24.4566 -1.092 14.863 2.53362C5.2694 6.15925 1.01568 12.0811 1.01568 21.3365C1.01568 32.2134 5.82253 38.7093 16.0999 41.781C20.3234 42.9086 24.7369 43.1316 29.0523 42.4356H29.2031C29.7815 42.3368 30.3662 42.2796 30.9528 42.2644V42.2644Z" fill="black"/>
<path d="M18.4839 17.2771C17.6065 17.1826 16.7872 16.7922 16.1604 16.17C15.5337 15.5478 15.1367 14.7308 15.0346 13.853C15.0071 12.9837 15.2163 12.1233 15.6397 11.364C16.0631 10.6047 16.6847 9.97506 17.438 9.54249C19.0325 8.62576 20.888 8.27114 22.7075 8.53537C23.8563 8.63107 24.9733 8.96096 25.9902 9.50477C27.007 10.0486 27.9021 10.7949 28.6204 11.6977C29.2814 12.5792 29.6496 13.6462 29.6731 14.7483C29.6965 15.8505 29.3741 16.9322 28.7512 17.8411C27.5646 19.4324 25.322 20.4194 24.8595 22.3127C24.5276 23.6522 25.131 25.3341 24.065 26.2606C23.5963 26.5943 23.0243 26.7501 22.4514 26.7003C21.8785 26.6505 21.3419 26.3983 20.9376 25.9887C20.5737 25.58 20.2969 25.1013 20.124 24.5818C19.9511 24.0623 19.8858 23.513 19.932 22.9674C19.9389 22.3383 20.0652 21.7163 20.304 21.1344C21.3097 18.7375 24.8192 17.4181 24.8695 14.8399C24.8441 14.2071 24.6207 13.5982 24.2309 13.0994C23.8411 12.6006 23.3047 12.2371 22.6974 12.0603C21.6918 11.7682 20.3242 12.1811 20.123 13.148C19.9923 13.8026 20.4146 14.427 20.5152 15.0917C20.666 15.9981 20.113 16.9347 18.4839 17.2771Z" fill="#ACD4F7"/>
<path d="M22.7769 27.238C21.9653 27.227 21.1885 26.9064 20.6048 26.3416C20.1896 25.8865 19.874 25.3495 19.6783 24.765C19.4826 24.1805 19.4111 23.5614 19.4684 22.9476C19.48 22.2574 19.6163 21.575 19.8707 20.9334C20.4499 19.8335 21.2512 18.8663 22.2238 18.0933C23.33 17.0862 24.3859 16.0791 24.406 14.8303C24.3861 14.3034 24.1988 13.7965 23.8715 13.3836C23.5441 12.9706 23.0937 12.673 22.5858 12.534C22.0724 12.3891 21.5227 12.4543 21.0573 12.7153C20.9518 12.7674 20.8592 12.8423 20.7862 12.9346C20.7132 13.027 20.6615 13.1343 20.635 13.2491C20.6148 13.5738 20.6734 13.8987 20.8059 14.1958C20.9067 14.4631 20.9807 14.7397 21.0271 15.0216C21.1779 16.0287 20.6148 17.3078 18.6036 17.7811C18.5538 17.7912 18.5025 17.7912 18.4527 17.7811C17.4571 17.6807 16.5261 17.2408 15.8158 16.5349C15.1055 15.829 14.6589 14.9 14.5509 13.9037C14.5132 12.9429 14.7388 11.9902 15.2033 11.1487C15.6677 10.3072 16.3533 9.60906 17.1856 9.12997C18.8738 8.14654 20.8429 7.75992 22.7769 8.03222C23.9948 8.13485 25.1786 8.48733 26.2547 9.06775C27.3307 9.64817 28.2761 10.4441 29.0318 11.4061C29.754 12.3707 30.1552 13.5383 30.1786 14.7437C30.2021 15.9491 29.8467 17.1314 29.1626 18.1235C28.641 18.7633 28.0546 19.3472 27.4128 19.8659C26.4982 20.4938 25.7965 21.3862 25.4016 22.4239C25.3106 22.8812 25.2768 23.3481 25.301 23.8138C25.3741 24.3155 25.3363 24.8272 25.1904 25.3127C25.0444 25.7982 24.7938 26.2457 24.4563 26.6236C23.9968 27.038 23.3949 27.2581 22.7769 27.238V27.238ZM22.0428 11.4967C22.315 11.4932 22.5861 11.5305 22.8473 11.6075C23.5632 11.8089 24.1961 12.2341 24.6538 12.8211C25.1115 13.4081 25.3699 14.1261 25.3915 14.8705C25.3915 16.5524 24.0943 17.7106 22.8775 18.8386C22.0172 19.526 21.3026 20.3786 20.7757 21.3463C20.5603 21.874 20.4477 22.438 20.4439 23.0081C20.4003 23.4837 20.4527 23.9633 20.5978 24.4183C20.7429 24.8733 20.9778 25.2945 21.2886 25.6568C21.6104 25.9672 22.0263 26.1614 22.4707 26.2088C22.915 26.2563 23.3624 26.1542 23.7423 25.9186C24.2551 25.4554 24.2551 24.7101 24.2451 23.854C24.2235 23.3036 24.2674 22.7525 24.3758 22.2124C24.8277 20.9629 25.6617 19.8879 26.7591 19.1407C27.3479 18.6734 27.8841 18.1432 28.3581 17.5595C28.9181 16.7364 29.2058 15.7579 29.1805 14.7622C29.1552 13.7665 28.8183 12.8039 28.2173 12.0103C27.5404 11.1637 26.6981 10.4643 25.7419 9.95517C24.7856 9.44603 23.7356 9.13781 22.6562 9.0494C20.9445 8.80395 19.1999 9.13708 17.6985 9.99609C17.0212 10.3788 16.4611 10.9393 16.0783 11.6172C15.6956 12.2951 15.5047 13.0648 15.5264 13.8433C15.6136 14.5927 15.9477 15.2916 16.4758 15.8296C17.0039 16.3677 17.696 16.7141 18.4427 16.8143C19.569 16.5323 20.1522 15.9381 20.0416 15.1827C20.0021 14.9626 19.9415 14.7467 19.8606 14.5382C19.6646 14.0746 19.5952 13.5671 19.6595 13.0678C19.7152 12.8211 19.8218 12.5889 19.9725 12.386C20.1231 12.183 20.3145 12.0139 20.5344 11.8895C20.9921 11.6234 21.5137 11.4876 22.0428 11.4967Z" fill="black"/>
<path d="M23.4009 29.362C22.9622 29.2241 22.4984 29.1851 22.0429 29.2478C21.5874 29.3105 21.1514 29.4733 20.7661 29.7246C20.4033 29.9668 20.1096 30.2993 19.9139 30.6895C19.7182 31.0798 19.6272 31.5142 19.6499 31.9503C19.7339 32.5525 20.0194 33.1084 20.4595 33.5273C20.8997 33.9462 21.4686 34.2033 22.0734 34.2566C22.6836 34.3118 23.295 34.1655 23.8144 33.84C24.3337 33.5145 24.7324 33.0276 24.9495 32.4539C25.1371 31.838 25.0809 31.1733 24.7926 30.5977C24.5043 30.0222 24.006 29.5797 23.4009 29.362V29.362Z" fill="#ACD4F7"/>
<path d="M22.3254 34.7308H22.0237C21.3025 34.6695 20.6243 34.3619 20.1026 33.8595C19.5809 33.3572 19.2473 32.6906 19.1577 31.9713C19.1296 31.4495 19.2371 30.9293 19.4698 30.4615C19.7025 29.9937 20.0523 29.5944 20.4851 29.3025C20.9263 29.015 21.4248 28.8273 21.9458 28.7525C22.4668 28.6777 22.9979 28.7176 23.502 28.8694C24.2299 29.1307 24.8299 29.662 25.178 30.3536C25.526 31.0452 25.5956 31.8442 25.3724 32.5857C25.1406 33.2098 24.7253 33.749 24.1814 34.1319C23.6374 34.5149 22.9903 34.7237 22.3254 34.7308V34.7308ZM22.4762 29.6952C21.9691 29.6929 21.4725 29.84 21.0483 30.1182C20.757 30.3098 20.5205 30.574 20.3618 30.8847C20.2032 31.1954 20.1278 31.5421 20.1432 31.8908C20.2159 32.3836 20.4553 32.8365 20.8213 33.1738C21.1874 33.5111 21.658 33.7123 22.1544 33.7439C22.6521 33.7918 23.1519 33.6763 23.5783 33.4146C24.0046 33.153 24.3344 32.7595 24.5177 32.2936C24.6675 31.8018 24.6239 31.2713 24.3958 30.8107C24.1677 30.35 23.7724 29.9942 23.2908 29.8161V29.8161C23.0284 29.7275 22.7531 29.6832 22.4762 29.6852V29.6952Z" fill="black"/>
<g opacity="0.13">
<path opacity="0.13" d="M0.76452 26.0694C1.42823 25.5759 2.15227 26.1299 2.21261 26.8751C2.27295 27.6204 2.66512 28.6174 2.94669 29.4634C3.28783 30.497 3.79754 31.4669 4.45511 32.3337C5.89182 33.9939 7.53808 35.4598 9.35246 36.6945C10.3945 37.4932 11.5248 38.1691 12.7213 38.7088C15.7159 39.9074 18.8998 40.5622 22.1238 40.6424C24.9797 40.7431 27.8458 40.2497 30.6917 40.5619C32.5118 40.8439 33.8895 42.1934 35.237 43.3415C36.5845 44.4896 37.7611 45.4766 38.9578 46.6147C40.2651 47.9038 41.6026 48.4174 43.3121 49.777C43.4602 49.9618 43.5385 50.1929 43.5332 50.4297C43.528 50.6666 43.4395 50.894 43.2834 51.072C43.1272 51.25 42.9135 51.3672 42.6796 51.4029C42.4458 51.4387 42.2069 51.3907 42.0049 51.2675C40.4929 50.3755 39.0538 49.3653 37.7008 48.2462C35.4482 46.3024 33.7688 44.4091 31.6671 43.2106C30.4704 42.3646 26.5384 43.0797 23.6222 42.9991C18.4131 42.9185 12.9425 41.8711 8.67872 38.6987C6.53974 37.2968 4.65556 35.5393 3.10756 33.502C2.64016 32.8621 2.22003 32.1889 1.85054 31.4877C1.44465 30.6736 1.13421 29.8152 0.925391 28.9297C0.764493 28.3254 0.623714 27.7211 0.492984 27.1168C0.414608 26.937 0.398763 26.7361 0.447994 26.5461C0.497224 26.3562 0.608699 26.1884 0.76452 26.0694V26.0694Z" fill="black"/>
</g>
</svg>
