<svg width="92" height="94" viewBox="0 0 92 94" fill="none" xmlns="http://www.w3.org/2000/svg">
<path d="M14.5268 57.1114C18.7694 45.0654 23.2186 32.3194 27.4338 20.2423C28.2154 18.0378 29.1801 15.6169 31.3101 14.562C32.659 14.0082 34.1353 13.8329 35.5777 14.0552C48.6405 15.2464 63.6841 25.3917 72.5977 27.2545C77.4445 37.0065 75.5186 50.5888 71.6812 60.7555C70.4809 64.3414 68.5222 67.631 65.9363 70.4037C63.8854 72.3682 61.4189 73.8538 58.7166 74.7524C50.8257 77.4627 41.9213 75.6178 34.5749 71.67C27.2286 67.7222 20.9336 62.647 14.5268 57.1114Z" fill="#ACD4F7"/>
<path d="M61.6207 74.148C60.7362 74.5942 59.8212 74.9781 58.8825 75.297C51.6399 77.8368 42.6729 76.664 34.3438 72.1907C26.7712 68.1551 20.2297 62.6877 14.1953 57.4807C14.124 57.415 14.0733 57.3303 14.0494 57.2368C14.0255 57.1432 14.0293 57.0448 14.0605 56.9533L20.5591 38.5184C22.6949 32.3363 24.8667 26.1361 26.9678 20.1289C27.811 17.7359 28.8119 15.3193 31.0136 14.2056L31.0675 14.1783C32.4881 13.5914 34.0438 13.4031 35.5649 13.634C43.4638 14.3357 52.0184 18.2117 59.4558 21.6752C64.4122 23.9439 69.0926 26.0938 72.639 26.8283C72.713 26.8427 72.7824 26.8743 72.8416 26.9205C72.9008 26.9668 72.948 27.0264 72.9793 27.0945C77.9909 37.1676 75.8114 51.2041 72.1108 60.9758C70.9524 64.0339 69.241 67.9111 66.2728 70.8396C64.9024 72.1729 63.3333 73.2888 61.6207 74.148V74.148ZM15.107 56.9633C21.0278 62.0593 27.4236 67.3531 34.8153 71.323C42.9089 75.6681 51.5596 76.7761 58.5642 74.368C61.1965 73.4961 63.599 72.0506 65.5954 70.1372C68.4292 67.3441 70.0784 63.5882 71.197 60.6289C74.8049 51.1177 76.938 37.4979 72.2265 27.7449C68.5984 26.9394 63.9363 24.8252 59.0657 22.5692C51.6512 19.1503 43.2095 15.2959 35.4956 14.6017C34.1565 14.3962 32.7863 14.5535 31.5298 15.057V15.057C29.6606 16.0025 28.7394 18.2214 27.9669 20.4214C25.8478 26.4377 23.676 32.6379 21.5042 38.8381L15.107 56.9633Z" fill="black"/>
<path d="M14.239 30.0844C22.8802 45.2886 31.249 60.6457 39.3453 76.1555C39.3453 76.1555 74.6236 57.4231 74.4262 56.9724C66.1882 41.8039 58.2437 26.4794 50.5926 10.999L14.239 30.0844Z" fill="white"/>
<path d="M39.5696 76.5935C39.5129 76.6223 39.4512 76.6398 39.3877 76.6449C39.3243 76.65 39.2605 76.6426 39.1999 76.6232C39.1374 76.6068 39.0792 76.5773 39.0291 76.5368C38.979 76.4962 38.9382 76.4455 38.9095 76.388C30.8528 60.9555 22.4033 45.4632 13.8077 30.3258C13.7744 30.2688 13.753 30.2058 13.7447 30.1405C13.7365 30.0752 13.7416 30.0089 13.7597 29.9455C13.7778 29.8824 13.809 29.8237 13.8514 29.7732C13.8937 29.7228 13.9462 29.6817 14.0055 29.6526L50.35 10.5494C50.4071 10.5175 50.4704 10.498 50.5356 10.4921C50.6009 10.4862 50.6667 10.4941 50.7286 10.5153C50.7936 10.5343 50.8539 10.5666 50.9055 10.6102C50.9571 10.6537 50.9989 10.7076 51.0283 10.7682C58.6335 26.1594 66.6588 41.6191 74.8527 56.7237L74.8756 56.7683C75.132 57.2679 75.1503 57.3036 69.2575 60.5765C66.3605 62.188 62.2998 64.3993 57.1924 67.1513C48.4912 71.8335 39.6593 76.5257 39.5694 76.5711L39.5696 76.5935ZM14.9169 30.2816C23.3479 45.1202 31.6511 60.3494 39.5566 75.4876C52.4541 68.6378 71.2716 58.5239 73.7982 56.8526C65.7461 42.0021 57.8582 26.8101 50.3721 11.6732L14.9169 30.2816Z" fill="black"/>
<path d="M14.5272 57.1106C20.446 66.0843 30.1738 87.7061 32.2243 89.8266C32.8752 90.503 33.7312 90.9494 34.6616 91.0976C35.592 91.2458 36.5457 91.0877 37.3771 90.6475C37.3771 90.6475 68.6249 75.7068 86.0639 66.4138C88.3056 65.2237 90.7912 62.8988 88.5934 58.6167C82.9981 47.7151 78.9724 40.9302 72.5355 27.3303C68.8801 38.4837 64.9443 49.5542 60.7282 60.5417C60.0559 62.2752 59.0293 64.289 57.1508 64.5987C51.6354 65.3209 46.0728 64.0105 40.6637 62.7124C31.8879 60.5889 22.9725 58.4799 14.5272 57.1106Z" fill="white"/>
<path d="M73.7122 73.3576C57.0963 81.7623 37.839 90.975 37.5917 91.0888C36.6662 91.5695 35.6089 91.7402 34.5776 91.5752C33.5464 91.4103 32.5965 90.9187 31.8699 90.1737C30.8787 89.1468 28.4055 84.2398 25.2727 78.0258C21.7323 70.9955 17.3171 62.2388 14.109 57.3776C14.0581 57.2973 14.0307 57.2045 14.03 57.1096C14.0293 57.0147 14.0552 56.9214 14.1049 56.8403C14.1554 56.7592 14.2273 56.6935 14.3129 56.6502C14.3985 56.6069 14.4944 56.5878 14.5902 56.5949C23.0442 57.9372 32.064 60.1171 40.8037 62.2364C45.8694 63.461 51.6129 64.8372 57.1012 64.1062C58.7316 63.7984 59.6725 61.7942 60.2203 60.281C64.4173 49.3593 68.3868 38.1707 72.0547 27.0783C72.0859 26.9854 72.1445 26.9038 72.2228 26.8441C72.3011 26.7845 72.3957 26.7495 72.4942 26.7437C72.5919 26.7373 72.6893 26.7606 72.7734 26.8103C72.8575 26.86 72.9245 26.9339 72.9654 27.0222C77.22 36.0174 80.3821 41.9357 83.7183 48.2153C85.3977 51.3551 87.1231 54.6064 89.0187 58.2997C90.9143 61.9931 89.9165 64.8127 86.2823 66.7521C82.648 68.6915 78.2593 71.0575 73.7122 73.3576ZM37.1659 90.2592C37.4984 90.091 68.6294 75.2094 85.8527 66.0255C89.0152 64.3359 89.7732 61.9972 88.1752 58.8837C86.2841 55.1993 84.5498 51.9525 82.884 48.8172C79.6759 42.7873 76.6373 37.0876 72.64 28.7039C69.091 39.4326 65.2358 50.2263 61.1848 60.7708C60.5302 62.4728 59.4201 64.7649 57.2762 65.1751C51.5716 65.9256 45.7331 64.5188 40.5816 63.2814C32.2443 61.2844 23.6579 59.155 15.5464 57.7743C18.7197 62.8103 22.819 70.9514 26.1669 77.5847C29.0112 83.2367 31.7042 88.5719 32.5818 89.4877C33.1542 90.0987 33.9134 90.5055 34.7421 90.6449C35.5708 90.7844 36.4227 90.6488 37.1659 90.2592V90.2592Z" fill="black"/>
<g opacity="0.13">
<path opacity="0.13" d="M28.9985 57.184C26.626 56.1333 24.0854 55.5107 21.4961 55.3454C20.5038 55.2445 19.5068 55.1995 18.5098 55.2104C17.4704 55.1401 16.427 55.1732 15.3949 55.3092C15.0512 55.3784 14.7496 55.5805 14.5566 55.8712C14.3635 56.1619 14.2948 56.5172 14.3656 56.8591C14.4364 57.201 14.6408 57.5015 14.934 57.6943C15.2271 57.8872 15.5849 57.9567 15.9287 57.8876C17.7658 57.6124 18.3029 57.6675 19.7176 57.5383L20.182 57.5401C20.1968 57.7574 20.2911 57.962 20.447 58.1155C20.6029 58.269 20.8098 58.3606 21.0285 58.3732C22.3098 58.2848 23.5975 58.4276 24.8292 58.7948C25.4851 59.015 26.1861 59.235 26.7969 59.4556C26.9314 59.5215 27.0789 59.5568 27.2287 59.5591C27.3784 59.5613 27.5267 59.5303 27.6627 59.4684C27.8213 59.3892 27.9497 59.2611 28.029 59.1033L28.1556 59.1295C28.3092 59.1644 28.762 59.3634 28.8569 59.3943C28.9618 59.4629 29.081 59.5066 29.2053 59.5222C29.3616 59.5456 29.521 59.5323 29.6708 59.4833C29.8207 59.4343 29.9567 59.3509 30.068 59.24C30.1792 59.129 30.2626 58.9935 30.3114 58.8444C30.3602 58.6953 30.3731 58.5368 30.349 58.3817C30.2214 57.7595 29.511 57.4992 28.9985 57.184Z" fill="black"/>
</g>
<g opacity="0.13">
<path opacity="0.13" d="M71.3574 27.7275C71.0936 27.962 71.0429 28.3253 70.8699 28.6265C71.0909 28.1547 70.5873 29.2645 70.3214 29.759C69.4533 31.4131 68.6577 33.1205 67.9296 34.8051C67.3949 35.9644 66.9968 36.7733 66.286 38.3817C66.061 38.9117 65.8271 39.4463 65.6338 39.9941C65.5073 40.2358 65.4476 40.5068 65.4609 40.7794C65.4567 41.0689 65.5605 41.35 65.7522 41.5687C65.9439 41.7873 66.2101 41.928 66.4993 41.9636C66.7885 41.9992 67.0804 41.9272 67.3187 41.7615C67.557 41.5957 67.7249 41.348 67.79 41.066C68.602 38.7087 69.5949 36.4176 70.4927 34.0732C71.2112 32.3259 71.6559 31.6736 72.4813 29.7822C72.6392 29.3198 73.0139 28.8829 72.9913 28.3991C72.9707 28.2209 72.9024 28.0513 72.7935 27.908C72.6847 27.7647 72.5392 27.6529 72.3723 27.5843C72.2054 27.5157 72.0232 27.4928 71.8447 27.518C71.6662 27.5432 71.4979 27.6155 71.3574 27.7275V27.7275Z" fill="black"/>
</g>
<g opacity="0.13">
<path opacity="0.13" d="M65.0726 45.0294C64.6189 46.1933 63.9373 48.0579 63.6058 48.7772C63.2742 49.4965 62.4992 51.0254 61.6451 52.7744C60.7582 54.8779 60.3651 55.7634 59.4193 57.8403C58.8477 58.9287 58.2283 60.6943 56.7414 61.8283C55.8604 62.3382 54.9008 62.7012 53.9009 62.903C53.0722 63.0788 52.2211 63.1291 51.3764 63.0522C50.0678 62.9926 48.7763 62.8342 47.4767 62.77C46.9757 62.7416 46.4103 62.5655 46.0079 62.949C45.8784 63.0823 45.7889 63.249 45.7492 63.4303C45.7096 63.6116 45.7214 63.8004 45.7834 63.9758C45.8453 64.1512 45.955 64.3062 46.1002 64.4235C46.2454 64.5408 46.4204 64.6159 46.6056 64.6403C48.6864 64.794 50.7689 65.1271 52.8614 65.0835C54.0118 65.015 55.1481 64.8005 56.2428 64.4451C59.15 63.7422 60.6173 61.0077 61.5764 58.4286C62.5336 56.1319 63.3234 53.7734 64.2988 51.4901C64.9952 49.7644 65.651 48.0255 66.2932 46.2821C66.3892 45.9408 66.6251 45.6077 66.5992 45.2491C66.6278 45.048 66.5749 44.8435 66.4519 44.6807C66.329 44.5179 66.1463 44.4101 65.9438 44.3809C65.7414 44.3518 65.5358 44.4037 65.3725 44.5253C65.2091 44.6469 65.1012 44.8283 65.0726 45.0294Z" fill="black"/>
</g>
<g opacity="0.13">
<path opacity="0.13" d="M38.6227 15.1861C36.6553 16.1806 34.665 17.1302 32.6286 17.9904C31.1203 18.6848 29.6795 19.515 28.3239 20.4707L27.1849 21.2493C26.9712 21.3442 26.7863 21.4931 26.6487 21.6813C26.5111 21.8695 26.4256 22.0905 26.4007 22.3222C26.3904 22.5238 26.434 22.7247 26.527 22.9045C26.62 23.0844 26.7591 23.2367 26.9301 23.346C27.1012 23.4553 27.2982 23.5178 27.5011 23.527C27.7039 23.5362 27.9054 23.4919 28.0851 23.3985C30.5456 21.7379 33.1601 20.3145 35.8934 19.1474C37.2678 18.4526 38.5871 17.6505 39.9386 16.911C40.4395 16.651 40.9155 16.3462 41.3607 16.0005C41.5048 15.8415 41.5937 15.6406 41.6144 15.4272C41.6352 15.2139 41.5866 14.9993 41.4759 14.8149C40.7607 13.6207 39.4895 14.7367 38.6227 15.1861Z" fill="black"/>
</g>
<path d="M35.4622 88.6834C35.4271 88.7015 35.3866 88.7062 35.3482 88.6966C35.3099 88.6869 35.2765 88.6637 35.2543 88.6313C33.8302 86.705 32.5427 84.6829 31.4011 82.5794C31.3811 82.5407 31.3769 82.4959 31.3891 82.4542C31.4014 82.4125 31.4293 82.377 31.467 82.355C31.5659 82.305 31.6518 82.3402 31.6931 82.4205C32.8251 84.5137 34.1035 86.5255 35.519 88.4412C35.5322 88.4575 35.5419 88.4763 35.5473 88.4966C35.5528 88.5168 35.554 88.5379 35.5507 88.5586C35.5475 88.5793 35.5399 88.5991 35.5285 88.6167C35.5171 88.6343 35.5022 88.6493 35.4846 88.6609L35.4622 88.6834Z" fill="black"/>
<path d="M37.8019 87.7919C37.7694 87.8078 37.7327 87.813 37.697 87.8068C37.6613 87.8007 37.6284 87.7834 37.6032 87.7576C36.9506 87.0803 36.3898 86.3213 35.9351 85.4999C35.9264 85.4629 35.9305 85.424 35.9467 85.3896C35.9628 85.3551 35.9901 85.327 36.0243 85.3098C36.0584 85.2925 36.0973 85.2871 36.1349 85.2944C36.1725 85.3016 36.2065 85.3212 36.2316 85.3499C36.6754 86.1463 37.2207 86.8827 37.8542 87.5408C37.8797 87.5738 37.893 87.6146 37.8916 87.6563C37.8903 87.6979 37.8745 87.7378 37.8469 87.7692L37.8019 87.7919Z" fill="black"/>
<path d="M76.8902 43.0733C76.8512 43.0931 76.8061 43.0973 76.7641 43.0851C76.722 43.073 76.6863 43.0453 76.6642 43.0078L73.6284 37.0931C73.6173 37.0747 73.6103 37.0541 73.6078 37.0328C73.6054 37.0114 73.6076 36.9898 73.6143 36.9694C73.621 36.949 73.632 36.9302 73.6466 36.9144C73.6612 36.8986 73.6791 36.886 73.699 36.8776C73.7178 36.8681 73.7384 36.8623 73.7596 36.8607C73.7807 36.859 73.8019 36.8615 73.8221 36.868C73.8422 36.8745 73.8609 36.8849 73.877 36.8985C73.8931 36.9122 73.9064 36.9289 73.916 36.9476L76.9517 42.8624C76.9614 42.8811 76.9672 42.9015 76.9688 42.9225C76.9705 42.9435 76.968 42.9646 76.9614 42.9846C76.9549 43.0046 76.9444 43.0231 76.9307 43.0391C76.9169 43.0551 76.9001 43.0683 76.8812 43.0778L76.8902 43.0733Z" fill="black"/>
<path d="M73.4893 42.4001C73.4705 42.4096 73.4499 42.4154 73.4287 42.417C73.4076 42.4187 73.3864 42.4162 73.3662 42.4097C73.3461 42.4032 73.3274 42.3928 73.3113 42.3791C73.2952 42.3655 73.2819 42.3488 73.2723 42.3301L72.0009 40.0515C71.9886 40.0338 71.9802 40.0136 71.9764 39.9924C71.9726 39.9712 71.9734 39.9495 71.9788 39.9286C71.9842 39.9078 71.9941 39.8883 72.0077 39.8716C72.0214 39.8548 72.0385 39.8412 72.0579 39.8316C72.0969 39.8118 72.142 39.8076 72.184 39.8198C72.226 39.8319 72.2618 39.8596 72.2839 39.8971L73.5643 42.1711C73.5842 42.2098 73.5885 42.2546 73.5762 42.2963C73.564 42.3381 73.5361 42.3735 73.4983 42.3955L73.4893 42.4001Z" fill="black"/>
<path d="M46.8773 46.0175C46.2163 46.3285 45.4997 46.5061 44.7691 46.54C44.0384 46.574 43.3082 46.4636 42.6209 46.2153C40.7363 45.4688 39.1541 44.1233 38.1216 42.3893C36.5185 39.9679 35.5699 37.1778 35.3668 34.2873C35.2922 33.6173 35.3267 32.9397 35.4688 32.2805C35.6535 31.6113 36.0049 30.999 36.4906 30.5C36.9763 30.001 37.5806 29.6313 38.248 29.4251C39.0816 29.1324 39.9705 29.0281 40.8499 29.1198C41.7292 29.2116 42.5769 29.4971 43.331 29.9554C46.0625 31.4842 47.2627 34.4842 48.3471 37.6777C49.2007 40.1788 49.8203 42.7534 48.338 44.7393C47.9591 45.2734 47.4587 45.7114 46.8773 46.0175V46.0175ZM38.0677 30.6175C37.6787 30.8119 37.3347 31.0846 37.0577 31.4182C36.7807 31.7517 36.5767 32.1389 36.4587 32.5551C36.3394 33.1129 36.3088 33.6857 36.3679 34.2529C36.5542 36.9906 37.4542 39.6333 38.9795 41.9216C39.9019 43.4739 41.3165 44.679 43.0021 45.3482C43.7939 45.6501 44.66 45.703 45.483 45.4998C46.3061 45.2965 47.0463 44.8469 47.6032 44.212C48.7817 42.6045 48.2364 40.307 47.466 38.056C46.4416 35.0457 45.324 32.2286 42.9005 30.8811C42.2641 30.4885 41.5461 30.2446 40.8009 30.168C40.0556 30.0914 39.3025 30.184 38.5986 30.4389C38.4092 30.461 38.2232 30.506 38.0448 30.5729L38.0677 30.6175Z" fill="black"/>
<path d="M52.398 44.8425C52.3249 44.8787 52.2439 44.8967 52.1622 44.895C52.0804 44.8932 52.0004 44.8718 51.9288 44.8326L45.4513 41.2543C45.3947 41.2225 45.345 41.1799 45.305 41.129C45.2651 41.078 45.2356 41.0197 45.2184 40.9574C45.2011 40.8952 45.1964 40.8301 45.2046 40.7661C45.2127 40.702 45.2335 40.6401 45.2658 40.5841C45.329 40.4703 45.4351 40.386 45.5609 40.3498C45.6866 40.3136 45.8216 40.3284 45.9364 40.3909L52.4139 43.9692C52.4913 44.0141 52.5552 44.0786 52.5991 44.1562C52.643 44.2337 52.6653 44.3215 52.6637 44.4104C52.662 44.4994 52.6366 44.5863 52.5899 44.6622C52.5432 44.7381 52.477 44.8004 52.398 44.8425V44.8425Z" fill="black"/>
</svg>
