<svg width="72" height="68" viewBox="0 0 72 68" fill="none" xmlns="http://www.w3.org/2000/svg">
<path d="M54.8679 67.9579C54.7882 67.9584 54.7097 67.9371 54.6404 67.8962C52.1272 66.5074 50.3364 62.8451 48.6049 59.2959C47.091 56.2097 45.5178 52.9795 43.5885 51.6421C40.264 49.3275 35.8412 49.1217 31.5669 48.9263H30.8941C28.4687 48.8548 26.0414 48.9132 23.6218 49.1011C20.0203 49.458 16.3912 49.3786 12.8074 48.8645C10.5614 48.4633 7.77115 46.7248 4.50604 43.7208C2.52718 41.8897 1.73565 39.2664 1.21125 36.9415C-0.369635 29.904 -0.403462 22.5864 1.11231 15.5335C1.77522 12.4473 2.90318 8.65122 5.82199 5.93536C9.00795 2.9726 13.6286 1.97471 18.1503 1.32661C26.4964 0.150703 34.927 -0.245223 43.3411 0.143565C51.2071 0.503623 60.8441 1.46034 65.6032 5.69874C69.561 9.21702 70.3228 14.8236 71.0055 19.7616C71.0649 20.2245 71.1341 20.6874 71.1935 21.1401C72.3215 29.0408 73.0734 37.9599 67.681 43.7723C65.9891 45.5932 63.664 46.4984 61.4081 47.3831C58.8257 48.4119 56.3818 49.3583 55.5705 51.5495C54.9669 53.1544 55.2439 56.2406 55.5111 59.2342C55.8178 62.629 56.1047 65.8387 55.3132 67.7213C55.2883 67.7869 55.2496 67.8459 55.2 67.8939C55.1503 67.942 55.091 67.9779 55.0263 67.999C54.9713 67.9966 54.9175 67.9826 54.8679 67.9579ZM29.0142 47.8461C29.6474 47.8461 30.2905 47.8461 30.9337 47.8461H31.6065C31.6197 47.8467 31.6329 47.8473 31.646 47.8479C36.0466 48.0531 40.5912 48.2649 44.1327 50.7265C46.2504 52.1944 47.7949 55.3391 49.4305 58.6692C49.4455 58.6998 49.4605 58.7304 49.4756 58.761C51.0092 61.9192 52.6022 65.17 54.6008 66.6205C55.0441 64.869 54.791 62.0058 54.5446 59.2191C54.5436 59.207 54.5425 59.1949 54.5414 59.1828C54.5393 59.1583 54.5371 59.1338 54.535 59.1094C54.2504 55.8859 53.9826 52.8525 54.6602 51.0352C55.6471 48.4288 58.2583 47.3987 61.0406 46.301C61.0476 46.2983 61.0547 46.2955 61.0618 46.2927C63.2187 45.4491 65.4449 44.5747 66.9983 42.9287C72.084 37.4558 71.3419 28.8145 70.2536 21.1504C70.1843 20.6977 70.1249 20.2348 70.0557 19.7719C70.0551 19.7677 70.0545 19.7635 70.054 19.7594C69.3718 14.7636 68.6674 9.6052 64.9898 6.32627C60.4582 2.29362 51.029 1.36777 43.3213 1.018C34.9632 0.634596 26.5888 1.03052 18.2987 2.20104C13.9353 2.81828 9.48287 3.775 6.4948 6.55259C3.77387 9.08328 2.7053 12.725 2.08196 15.6261C0.595578 22.5262 0.629379 29.6865 2.18088 36.5711C2.67559 38.7418 3.40777 41.1902 5.14916 42.8361C8.22628 45.696 10.9274 47.4037 12.9558 47.7741C16.468 48.2731 20.0242 48.3456 23.5525 47.9901C25.3434 47.9489 27.164 47.8461 29.0142 47.8461Z" fill="black"/>
<path d="M29.0142 47.8461H30.9337H31.6065L31.646 47.8479C36.0466 48.0531 40.5912 48.2649 44.1327 50.7265C46.2504 52.1944 47.7949 55.3391 49.4305 58.6692L49.4756 58.761C51.0092 61.9192 52.6022 65.17 54.6008 66.6205C55.0441 64.869 54.791 62.0058 54.5446 59.2191L54.5414 59.1828L54.535 59.1094C54.2504 55.8859 53.9826 52.8525 54.6602 51.0352C55.6471 48.4288 58.2583 47.3987 61.0406 46.301L61.0618 46.2927C63.2187 45.4491 65.4449 44.5747 66.9983 42.9287C72.084 37.4558 71.3419 28.8145 70.2536 21.1504C70.1843 20.6977 70.1249 20.2348 70.0557 19.7719L70.054 19.7594C69.3718 14.7636 68.6674 9.6052 64.9898 6.32627C60.4582 2.29362 51.029 1.36777 43.3213 1.018C34.9632 0.634596 26.5888 1.03052 18.2987 2.20104C13.9353 2.81828 9.48287 3.775 6.4948 6.55259C3.77387 9.08328 2.7053 12.725 2.08196 15.6261C0.595578 22.5262 0.629379 29.6865 2.18088 36.5711C2.67559 38.7418 3.40777 41.1902 5.14916 42.8361C8.22628 45.696 10.9274 47.4037 12.9558 47.7741C16.468 48.2731 20.0242 48.3456 23.5525 47.9901C25.3434 47.9489 27.164 47.8461 29.0142 47.8461Z" fill="white"/>
<path d="M16.0927 33.7004C16.001 33.7005 15.911 33.6736 15.8334 33.6226C15.7558 33.5717 15.6937 33.4989 15.6543 33.4126C15.6149 33.3264 15.5999 33.2304 15.611 33.1356C15.622 33.0409 15.6587 32.9514 15.7168 32.8775C17.1515 31.0257 18.6158 29.1123 19.9219 27.1371C20.8569 25.8379 21.5821 24.389 22.0689 22.8473C22.5445 21.366 22.4488 19.7507 21.8018 18.3414C21.6584 18.0291 21.4486 17.7547 21.1883 17.539C20.5396 17.1858 19.7853 17.1048 19.0808 17.3127C18.4031 17.3518 17.7672 17.6658 17.3098 18.1871C16.8843 18.8455 17.0921 19.8228 17.9727 21.2733C18.0422 21.3865 18.0656 21.5239 18.0378 21.655C18.01 21.7862 17.9331 21.9005 17.8242 21.9728C17.7153 22.0452 17.5833 22.0695 17.4571 22.0406C17.3309 22.0116 17.221 21.9318 17.1514 21.8185C16.4489 20.6766 15.6277 18.9998 16.4984 17.6316C16.7959 17.2565 17.1629 16.9475 17.5777 16.723C17.9925 16.4985 18.4465 16.3632 18.9126 16.3251C19.39 16.193 19.888 16.1613 20.3773 16.232C20.8666 16.3027 21.3375 16.4742 21.7622 16.7366C22.1436 17.0393 22.4519 17.4303 22.6626 17.8785C23.4244 19.5191 23.5485 21.402 23.0089 23.1353C22.4946 24.7849 21.7224 26.335 20.7233 27.7235C19.5953 29.4312 18.3486 31.0772 17.1218 32.682L24.0478 32.5585C24.179 32.5585 24.3048 32.6127 24.3976 32.7092C24.4903 32.8057 24.5425 32.9365 24.5425 33.0729C24.5425 33.2093 24.4903 33.3402 24.3976 33.4366C24.3048 33.5331 24.179 33.5873 24.0478 33.5873L16.0829 33.7313L16.0927 33.7004Z" fill="black"/>
<path d="M33.2093 26.9516H33.15C31.3234 26.7013 29.4787 26.6255 27.6388 26.7252C27.5619 26.7301 27.485 26.7159 27.4145 26.6837C27.3439 26.6515 27.2818 26.6022 27.2332 26.5401C27.184 26.4758 27.151 26.3999 27.1372 26.319C27.1234 26.2382 27.1292 26.1551 27.154 26.0772C28.001 23.0083 28.2764 19.7994 27.9653 16.6231C27.9522 16.4866 27.9918 16.3504 28.0753 16.2443C28.1588 16.1382 28.2794 16.0709 28.4106 16.0573C28.5418 16.0436 28.6728 16.0847 28.7749 16.1715C28.877 16.2583 28.9416 16.3838 28.9548 16.5202C29.2562 19.5928 29.0284 22.6967 28.282 25.6862C29.9583 25.6365 31.6358 25.7259 33.2984 25.9537C33.4256 25.9716 33.5408 26.0412 33.6187 26.1473C33.6966 26.2534 33.7308 26.3872 33.7139 26.5195C33.6948 26.643 33.6329 26.755 33.5401 26.8345C33.4472 26.9141 33.3296 26.9557 33.2093 26.9516Z" fill="black"/>
<path d="M33.4576 33.7621C33.3314 33.7596 33.211 33.7071 33.1209 33.6153C33.0307 33.5235 32.9778 33.3994 32.9728 33.2683L32.8243 20.7898C32.823 20.7227 32.8346 20.656 32.8583 20.5937C32.8821 20.5313 32.9176 20.4746 32.9628 20.4266C33.0079 20.3787 33.0618 20.3407 33.1213 20.3147C33.1808 20.2887 33.2447 20.2754 33.3092 20.2754C33.4353 20.2779 33.5557 20.3304 33.6458 20.4222C33.736 20.514 33.7889 20.6381 33.794 20.7692L33.9424 33.258C33.9424 33.3242 33.9298 33.3898 33.9055 33.4509C33.8811 33.5121 33.8454 33.5677 33.8004 33.6145C33.7553 33.6613 33.7019 33.6984 33.6431 33.7237C33.5843 33.7491 33.5212 33.7621 33.4576 33.7621V33.7621Z" fill="black"/>
<path d="M39.0775 38.5254H38.9588C38.8961 38.5098 38.837 38.4813 38.785 38.4417C38.733 38.402 38.6892 38.352 38.656 38.2945C38.6228 38.2371 38.601 38.1733 38.5919 38.1069C38.5827 38.0406 38.5863 37.973 38.6025 37.9082C40.4429 30.2749 42.3822 22.5594 44.3709 14.957C44.387 14.8928 44.4152 14.8325 44.4538 14.7796C44.4924 14.7266 44.5406 14.6822 44.5958 14.6487C44.651 14.6153 44.7119 14.5935 44.7752 14.5846C44.8385 14.5757 44.9029 14.5799 44.9646 14.597C45.0262 14.6136 45.084 14.6429 45.1345 14.6832C45.185 14.7235 45.2272 14.7739 45.2585 14.8315C45.2899 14.8891 45.3099 14.9526 45.3172 15.0184C45.3244 15.0841 45.319 15.1507 45.301 15.2142C43.3221 22.8166 41.3433 30.5321 39.5425 38.155C39.516 38.2619 39.4558 38.3565 39.3715 38.4236C39.2872 38.4908 39.1837 38.5266 39.0775 38.5254Z" fill="black"/>
<path d="M50.8414 34.112C50.7119 34.1093 50.5886 34.0539 50.4979 33.9578C50.4073 33.8616 50.3565 33.7323 50.3565 33.5976C50.4258 28.0091 52.0327 22.558 54.9871 17.8888L48.8032 17.7859C48.7395 17.7846 48.6767 17.7702 48.6183 17.7437C48.56 17.7171 48.5073 17.6788 48.4632 17.631C48.4191 17.5833 48.3845 17.5269 48.3613 17.4653C48.3382 17.4036 48.3269 17.3378 48.3282 17.2716C48.3282 17.2049 48.3411 17.139 48.3662 17.0777C48.3913 17.0164 48.428 16.9611 48.4743 16.9149C48.5205 16.8688 48.5752 16.8329 48.6351 16.8093C48.695 16.7857 48.7589 16.775 48.8229 16.7778L55.9072 16.8909C55.9953 16.8946 56.0809 16.9221 56.1556 16.9708C56.2302 17.0196 56.2913 17.0878 56.3327 17.1687C56.379 17.2477 56.4035 17.3385 56.4035 17.431C56.4035 17.5236 56.379 17.6143 56.3327 17.6933C53.1787 22.3586 51.4543 27.9059 51.3856 33.6079C51.3861 33.6796 51.3719 33.7507 51.3439 33.8162C51.3159 33.8818 51.2748 33.9404 51.2233 33.9881C51.1717 34.0358 51.111 34.0715 51.0452 34.0929C50.9793 34.1143 50.9099 34.1208 50.8414 34.112V34.112Z" fill="black"/>
<path d="M55.69 26.4796H55.6208C53.5409 26.1831 51.4335 26.1589 49.3478 26.4076C49.2206 26.4221 49.0931 26.3837 48.993 26.3009C48.8929 26.218 48.8284 26.0974 48.8135 25.9653C48.7994 25.8319 48.836 25.6981 48.9155 25.5924C48.995 25.4867 49.1111 25.4174 49.2389 25.3995C51.4037 25.1456 53.5903 25.1698 55.7494 25.4715C55.8774 25.4918 55.9926 25.5636 56.0703 25.6713C56.148 25.779 56.182 25.9141 56.1649 26.0476C56.1484 26.1667 56.0915 26.2757 56.0044 26.3549C55.9173 26.4342 55.8058 26.4784 55.69 26.4796Z" fill="black"/>
<g opacity="0.13">
<path opacity="0.13" d="M4.05071 40.1199C4.33764 40.2845 4.45636 40.6136 4.65424 40.8708L4.72351 40.9634C5.01635 41.3427 5.34812 41.6877 5.71294 41.9922C6.13839 42.3316 6.59353 42.63 7.03877 42.9489L7.27625 43.1341C6.88048 42.8152 7.32572 43.1341 7.49393 43.3192C7.99854 43.741 8.48335 44.2039 8.96817 44.6154L9.07699 44.6977C10.9767 45.8808 11.1845 45.7265 13.2623 46.1483C14.5782 46.498 16.8143 46.2923 18.902 46.3026C20.3961 46.2408 21.3558 45.9734 23.305 45.8602C24.4847 45.7882 25.6674 45.7882 26.8471 45.8602C28.2422 45.8602 29.6472 45.7059 31.0423 45.7779C33.7356 46 36.4045 46.4717 39.0171 47.1873C40.0719 47.4641 41.1094 47.8076 42.1239 48.216C42.5296 48.4012 43.0243 48.4732 43.2519 48.9053C43.3472 49.0809 43.3908 49.2819 43.3772 49.4831C43.3636 49.6844 43.2933 49.877 43.1752 50.0371C43.0572 50.1971 42.8964 50.3176 42.713 50.3834C42.5296 50.4492 42.3316 50.4575 42.1437 50.4072C40.1332 49.6339 38.0604 49.0486 35.9499 48.6584C34.3383 48.2775 32.7009 48.0265 31.0522 47.9074C29.6274 47.9074 28.2027 48.0514 26.7779 48.072C24.6926 48.0151 22.6061 48.1149 20.5346 48.3703C19.6227 48.492 18.7028 48.5368 17.784 48.5041C16.8737 48.5041 15.9634 48.6069 15.0531 48.5658C12.2826 48.5164 9.59295 47.5866 7.34549 45.9013C6.05923 44.7697 5.52495 44.636 4.05071 43.1752C3.40529 42.6385 2.91555 41.9263 2.63583 41.1177C2.5962 40.9308 2.61141 40.7358 2.67952 40.5579C2.74763 40.38 2.86551 40.2275 3.01789 40.12C3.17026 40.0126 3.35012 39.9551 3.53425 39.9551C3.71838 39.955 3.89829 40.0124 4.05071 40.1199V40.1199Z" fill="black"/>
</g>
</svg>
