<svg width="94" height="102" viewBox="0 0 94 102" fill="none" xmlns="http://www.w3.org/2000/svg">
<path d="M77.3797 45.5412C77.8055 40.8696 77.2778 36.1608 75.8283 31.6966C74.3789 27.2323 72.0374 23.1044 68.944 19.5598C65.7079 16.0145 61.68 13.2721 57.1836 11.5527C52.6871 9.83325 47.8473 9.18476 43.0529 9.65921C38.9772 10.2107 35.0083 11.3683 31.2796 13.0932C27.7903 14.5518 24.5069 16.4551 21.5122 18.7552C18.0518 21.4853 15.2048 24.9042 13.154 28.7921C11.1033 32.68 9.89424 36.9509 9.60449 41.3305C9.37468 45.5163 10.0654 49.7016 11.6286 53.5955C13.1919 57.4895 15.5901 60.9986 18.6568 63.8791L22.5601 66.2045C24.3813 61.4375 20.0382 56.9598 17.5739 52.5992C13.5872 45.566 14.4502 36.4203 18.8147 29.3858C23.1792 22.3513 30.6415 17.2785 38.7304 14.8681C52.8264 10.6459 64.4937 20.963 68.642 27.0261C71.8216 31.6804 72.2261 37.5817 72.8142 43.1726C72.8166 44.1615 73.1249 45.1258 73.6973 45.935C74.3202 46.6471 75.6499 46.924 77.3797 45.5412Z" fill="white"/>
<path d="M22.7651 66.7491C22.6818 66.7775 22.5934 66.7881 22.5057 66.7799C22.418 66.7718 22.3331 66.7451 22.2566 66.7017L18.3688 64.3836L18.2671 64.3176C15.1352 61.3752 12.6861 57.7907 11.09 53.8132C9.49396 49.8358 8.7892 45.5609 9.02468 41.2857C9.32106 36.816 10.5569 32.4576 12.6527 28.4913C14.7485 24.5249 17.6577 21.0385 21.1928 18.2568C24.2314 15.9263 27.5617 13.9974 31.1002 12.5184C34.8828 10.7619 38.9138 9.59058 43.0531 9.04516C47.9311 8.57729 52.8515 9.25012 57.4206 11.0098C61.9897 12.7694 66.0806 15.567 69.3657 19.1786C72.5166 22.7815 74.9015 26.9799 76.3771 31.5214C77.8526 36.0629 78.3883 40.8539 77.9521 45.6063C77.9361 45.7706 77.8578 45.9228 77.7331 46.0321C75.6422 47.6995 73.9804 47.2217 73.1944 46.3117C72.5386 45.4147 72.1799 44.3373 72.1679 43.2289L72.0514 42.0641C71.4603 36.9235 70.9823 31.5624 68.107 27.3503C64.0469 21.4222 52.7149 11.2792 38.8514 15.4303C30.8111 17.684 23.8605 22.7452 19.2781 29.6829C14.814 36.869 14.3319 45.7486 18.0517 52.3004C18.5814 53.2517 19.1951 54.1854 19.8565 55.179C22.1992 58.749 24.6259 62.4428 23.0868 66.4273C23.0258 66.572 22.9104 66.6874 22.7651 66.7491ZM19.0141 63.3928L22.2063 65.2947C23.0253 62.0969 20.9236 58.902 18.8821 55.8008C18.2445 54.8372 17.5945 53.8396 17.0409 52.8584C13.1113 45.9458 13.5996 36.589 18.2919 29.0379C22.5091 22.2364 29.8861 16.8605 38.5427 14.2707C53.0694 9.91842 64.9009 20.4716 69.1219 26.6624C72.1654 31.1219 72.7618 36.5944 73.2657 41.9204L73.3937 43.0811C73.3884 43.9461 73.6445 44.7928 74.1293 45.5115C74.5736 46.0186 75.4933 46.1997 76.8081 45.2366C77.1963 40.6911 76.6631 36.1145 75.2401 31.7771C73.8171 27.4398 71.5331 23.4297 68.5231 19.984C65.3532 16.5029 61.4047 13.8096 56.9954 12.1208C52.586 10.4319 47.839 9.79474 43.1365 10.2605C39.1167 10.8011 35.2026 11.9433 31.5272 13.6481C28.0999 15.0852 24.8752 16.9587 21.9342 19.2214C18.5346 21.9051 15.7394 25.2669 13.7289 29.0899C11.7184 32.9128 10.5373 37.112 10.2619 41.4163C10.0353 45.4899 10.7004 49.5639 12.2113 53.3577C13.7222 57.1516 16.0431 60.5752 19.0141 63.3928V63.3928Z" fill="black"/>
<path d="M18.6029 57.5448C19.5037 56.0944 20.9062 55.0203 22.5476 54.5239C24.1889 54.0276 25.9563 54.143 27.518 54.8486C30.5087 56.2713 32.1963 59.5003 34.1806 62.1984C35.6452 64.1725 37.3647 65.9468 39.295 67.4758C40.9714 68.6393 42.5746 69.9036 44.0956 71.2616C45.6413 72.661 46.5691 74.6094 46.6775 76.6839C46.5912 77.9619 46.1032 79.1807 45.2823 80.1686C44.4613 81.1564 43.3489 81.8634 42.1018 82.1899C40.8416 82.4716 39.5376 82.5029 38.2651 82.282C36.9926 82.061 35.7767 81.5922 34.6875 80.9025C32.4576 79.5067 30.4398 77.802 28.695 75.8398C23.7353 70.7377 18.7856 64.6048 18.6029 57.5448Z" fill="white"/>
<path d="M42.7758 82.6531L42.2849 82.8306C40.9489 83.139 39.5642 83.1794 38.2122 82.9494C36.8603 82.7193 35.5682 82.2234 34.4117 81.4908C32.1384 80.0593 30.0777 78.3192 28.2896 76.3209C23.3091 71.1621 18.1985 64.9076 18.0084 57.5806C18.005 57.4714 18.0326 57.3635 18.0882 57.2693C19.0631 55.6836 20.5906 54.5089 22.3804 53.9685C24.1702 53.428 26.0976 53.5595 27.7962 54.3379C30.3001 55.5257 31.9096 57.8714 33.4671 60.1459C33.8596 60.7231 34.2677 61.3074 34.6789 61.8649C36.108 63.7979 37.7878 65.535 39.6749 67.031C40.1971 67.4328 40.7422 67.8265 41.2603 68.217C42.4204 69.021 43.5166 69.9126 44.5389 70.8838C46.1954 72.3927 47.183 74.4915 47.2859 76.7215C47.2113 78.043 46.7426 79.3126 45.9395 80.3688C45.1364 81.4251 44.0352 82.2202 42.7758 82.6531ZM19.2032 57.7008C19.4491 64.5454 24.3675 70.5227 29.1425 75.4734C30.8488 77.396 32.8201 79.0695 34.9979 80.4443C36.0121 81.0924 37.1453 81.5353 38.3324 81.7474C39.5194 81.9595 40.7369 81.9367 41.915 81.6803C43.0461 81.3865 44.0547 80.7449 44.7962 79.8472C45.5378 78.9495 45.9744 77.8418 46.0435 76.6827C45.9162 74.7766 45.0584 72.9914 43.6464 71.6943C42.6688 70.7759 41.6244 69.9304 40.5216 69.1645C39.9765 68.7709 39.4273 68.366 38.9009 67.9527C36.9221 66.3968 35.1622 64.5845 33.6682 62.5641C33.2487 61.9839 32.8364 61.3882 32.4284 60.8039C30.9705 58.6602 29.4492 56.4495 27.2298 55.4029C25.8337 54.7856 24.2629 54.6777 22.7945 55.0981C21.3261 55.5185 20.0542 56.4402 19.2032 57.7008V57.7008Z" fill="black"/>
<path d="M18.5347 61.4982C17.8124 61.9609 17.2328 62.6128 16.8599 63.382C16.487 64.1512 16.3354 65.0077 16.4217 65.8571C16.6917 67.4157 17.3331 68.8875 18.2923 70.1499C20.4486 73.5621 23.0503 76.6757 26.0297 79.4095C27.786 81.1493 29.9852 82.3825 32.3923 82.9774C34.7029 83.4261 37.9898 82.6232 38.5248 80.5552C38.843 79.2718 37.9584 78.1278 37.1049 77.1395C32.4617 71.8074 27.5597 66.663 22.399 61.7063C21.9534 61.203 21.3708 60.8384 20.7214 60.6564C20.0176 60.4999 19.3359 61.0032 18.5347 61.4982Z" fill="white"/>
<path d="M36.3878 83.265C35.0659 83.7274 33.6434 83.8293 32.2683 83.56C29.7633 82.9337 27.4708 81.6576 25.6255 79.8623C22.6094 77.0927 19.9756 73.939 17.7926 70.4831C16.7759 69.1409 16.1001 67.575 15.8223 65.9182C15.7285 64.9599 15.9014 63.9943 16.322 63.1268C16.7427 62.2593 17.3951 61.5231 18.208 60.9985L18.4364 60.9159C18.7667 60.63 19.1508 60.4121 19.5667 60.275C19.9825 60.1379 20.4217 60.0843 20.8586 60.1174C21.6102 60.3269 22.2849 60.7472 22.802 61.328C27.9609 66.2682 32.9767 71.4528 37.5245 76.8066C38.4735 77.9144 39.4661 79.212 39.0629 80.7573C38.8554 81.3595 38.5034 81.9025 38.0374 82.3394C37.5713 82.7763 37.0052 83.094 36.3878 83.265ZM20.1449 61.2742C19.7676 61.4364 19.4075 61.6354 19.0698 61.8682L18.8414 61.9508C18.2133 62.356 17.7103 62.926 17.3883 63.5976C17.0663 64.2692 16.9377 65.0163 17.0168 65.756C17.2785 67.2165 17.8854 68.5945 18.7877 69.7768C20.9122 73.147 23.4782 76.2219 26.4182 78.9209C28.1012 80.5848 30.205 81.7672 32.5078 82.3435C34.6222 82.7862 37.5478 81.9854 37.9418 80.3793C38.1947 79.3762 37.4378 78.4044 36.6518 77.4944C32.0366 72.2035 27.1018 67.0282 21.9625 62.1066C21.5981 61.6831 21.1205 61.3706 20.5849 61.205C20.4347 61.1915 20.2836 61.2153 20.1449 61.2742Z" fill="black"/>
<path d="M21.2809 60.8264L21.1896 60.8595C21.1634 60.8571 21.138 60.849 21.1152 60.8359C21.0924 60.8229 21.0727 60.805 21.0575 60.7837C21.0423 60.7623 21.032 60.738 21.0271 60.7123C21.0223 60.6866 21.0232 60.6601 21.0297 60.6348C21.1767 59.6397 21.4658 58.6705 21.8883 57.7565C21.9121 57.7109 21.9523 57.6758 22.0009 57.6582C22.0496 57.6406 22.1031 57.6418 22.1508 57.6616C22.1746 57.6721 22.1961 57.6873 22.2138 57.7063C22.2316 57.7252 22.2454 57.7475 22.2543 57.7718C22.2632 57.7961 22.2671 57.822 22.2657 57.8479C22.2644 57.8737 22.2578 57.899 22.2464 57.9223C21.8393 58.8109 21.5573 59.751 21.4086 60.7161C21.3979 60.7433 21.3807 60.7676 21.3584 60.7869C21.3362 60.8061 21.3096 60.8197 21.2809 60.8264V60.8264Z" fill="black"/>
<path d="M23.9512 63.0719C23.929 63.0907 23.9006 63.101 23.8713 63.1008C23.8453 63.098 23.8201 63.0899 23.7972 63.0772C23.7743 63.0645 23.7544 63.0473 23.7384 63.0267C23.7224 63.0061 23.7107 62.9825 23.7041 62.9574C23.6975 62.9322 23.6961 62.9059 23.7 62.8802C23.8101 62.0997 24.0928 61.353 24.5276 60.6936C24.5498 60.6494 24.5882 60.6154 24.635 60.5985C24.6817 60.5816 24.7332 60.5832 24.7788 60.6028C24.8026 60.6134 24.824 60.6286 24.8418 60.6475C24.8596 60.6664 24.8733 60.6887 24.8823 60.7131C24.8912 60.7374 24.8951 60.7633 24.8937 60.7891C24.8924 60.815 24.8858 60.8403 24.8744 60.8635C24.4711 61.4716 24.2115 62.1624 24.1152 62.8842C24.1104 62.9284 24.0922 62.97 24.0629 63.0036C24.0336 63.0372 23.9946 63.061 23.9512 63.0719Z" fill="black"/>
<path d="M30.1246 69.4972C30.0883 69.5126 30.048 69.516 30.0096 69.5067C29.9712 69.4974 29.9368 69.476 29.9118 69.4457C29.8753 69.4076 29.855 69.3571 29.855 69.3045C29.855 69.2519 29.8753 69.2014 29.9117 69.1632L31.5585 67.6949C31.5997 67.6616 31.6518 67.6444 31.7049 67.6465C31.758 67.6485 31.8085 67.6698 31.847 67.7061C31.8661 67.7234 31.8813 67.7445 31.8915 67.768C31.9018 67.7915 31.9069 67.817 31.9065 67.8426C31.9061 67.8682 31.9002 67.8935 31.8893 67.9167C31.8783 67.9399 31.8626 67.9605 31.843 67.9772L30.1952 69.5487L30.1246 69.4972Z" fill="black"/>
<path d="M27.1488 66.2572C27.112 66.2683 27.0727 66.2689 27.0356 66.259C26.9984 66.2491 26.9648 66.2292 26.9384 66.2013C26.9121 66.1734 26.8941 66.1388 26.8865 66.1014C26.8789 66.0639 26.882 66.0251 26.8954 65.9893C27.2027 65.2847 27.592 64.6182 28.0553 64.0036C28.0707 63.9817 28.0904 63.9632 28.1134 63.9493C28.1363 63.9354 28.1618 63.9264 28.1885 63.9228C28.2151 63.9192 28.2422 63.9211 28.268 63.9284C28.2939 63.9358 28.3179 63.9483 28.3386 63.9654C28.3601 63.9798 28.3782 63.9986 28.3918 64.0206C28.4054 64.0425 28.4141 64.0671 28.4174 64.0927C28.4206 64.1182 28.4184 64.1442 28.4107 64.1688C28.4031 64.1934 28.3902 64.2161 28.373 64.2354C27.9268 64.8269 27.5547 65.4702 27.265 66.151C27.2409 66.1995 27.1995 66.2374 27.1488 66.2572V66.2572Z" fill="black"/>
<path d="M36.0777 72.6702L35.9749 72.7073L33.4632 72.9091C33.4375 72.911 33.4116 72.9078 33.3871 72.8997C33.3626 72.8916 33.34 72.8787 33.3206 72.8619C33.3012 72.845 33.2853 72.8244 33.274 72.8014C33.2626 72.7784 33.256 72.7533 33.2545 72.7277C33.2537 72.6768 33.2719 72.6274 33.3056 72.5891C33.3394 72.5508 33.3863 72.5264 33.4372 72.5205L35.9448 72.3074C35.9708 72.3036 35.9974 72.3055 36.0227 72.3129C36.048 72.3203 36.0714 72.333 36.0912 72.3503C36.1111 72.3675 36.1269 72.3888 36.1376 72.4127C36.1484 72.4366 36.1538 72.4626 36.1534 72.4888C36.1583 72.523 36.1538 72.5579 36.1405 72.5898C36.1272 72.6217 36.1055 72.6494 36.0777 72.6702V72.6702Z" fill="black"/>
<path d="M39.884 76.303C39.2813 76.5205 38.6398 76.6119 37.9998 76.5715C37.3598 76.5311 36.7352 76.3597 36.165 76.0681C36.1191 76.0444 36.0838 76.0045 36.0661 75.9562C36.0484 75.9079 36.0496 75.8548 36.0695 75.8073C36.0801 75.7837 36.0954 75.7624 36.1145 75.7447C36.1335 75.7271 36.156 75.7134 36.1805 75.7046C36.205 75.6957 36.231 75.6919 36.257 75.6932C36.2831 75.6945 36.3086 75.7011 36.332 75.7124C36.884 75.9892 37.4895 76.1452 38.1074 76.17C38.7253 76.1947 39.3413 76.0875 39.914 75.8557C39.9371 75.8436 39.9626 75.8367 39.9887 75.8352C40.0148 75.8338 40.0408 75.838 40.0651 75.8475C40.0894 75.857 40.1115 75.8715 40.1296 75.8902C40.1478 75.9088 40.1617 75.9311 40.1704 75.9556C40.181 75.9798 40.1865 76.0059 40.1866 76.0323C40.1867 76.0587 40.1813 76.0848 40.1708 76.1091C40.1603 76.1333 40.1449 76.1552 40.1256 76.1733C40.1062 76.1914 40.0833 76.2054 40.0583 76.2144L39.884 76.303Z" fill="black"/>
<path d="M41.5886 80.1166C41.0558 80.1974 40.5119 80.1644 39.993 80.0199C39.474 79.8753 38.9922 79.6226 38.5794 79.2784C38.5382 79.2438 38.5123 79.1945 38.5072 79.1411C38.5022 79.0878 38.5184 79.0345 38.5523 78.9929C38.5697 78.9734 38.5908 78.9576 38.6145 78.9464C38.6381 78.9353 38.6638 78.9289 38.69 78.9279C38.7161 78.9268 38.7423 78.931 38.7668 78.9402C38.7913 78.9494 38.8136 78.9635 38.8325 78.9815C39.2007 79.2891 39.6314 79.5142 40.0953 79.6413C40.5591 79.7684 41.0451 79.7944 41.52 79.7177C41.5737 79.7106 41.6281 79.7248 41.6714 79.7572C41.7147 79.7896 41.7435 79.8376 41.7515 79.8908C41.7582 79.9165 41.7591 79.9433 41.7542 79.9693C41.7493 79.9953 41.7388 80.02 41.7232 80.0415C41.7077 80.0631 41.6876 80.0809 41.6643 80.0939C41.641 80.1069 41.6152 80.1147 41.5886 80.1166V80.1166Z" fill="black"/>
<path d="M73.0382 37.5353C71.4074 36.9991 69.6357 37.072 68.0552 37.7402C66.4746 38.4085 65.1936 39.6263 64.4524 41.1653C63.0936 44.1602 63.8866 47.6998 64.1056 51.0489C64.2669 53.4961 64.098 55.9537 63.6033 58.3565C63.0743 60.3185 62.6645 62.3103 62.3761 64.3211C62.1067 66.3757 62.6592 68.4532 63.915 70.1077C64.803 71.0454 65.9663 71.6811 67.2392 71.9241C68.5121 72.1671 69.8298 72.0051 71.0046 71.4611C72.1516 70.8713 73.17 70.0626 74.0017 69.0811C74.8334 68.0997 75.4618 66.9649 75.8511 65.7418C76.6478 63.2471 77.09 60.6542 77.1649 58.0381C77.634 50.9222 77.503 43.086 73.0382 37.5353Z" fill="white"/>
<path d="M70.7727 72.1885C69.5247 72.6616 68.163 72.7536 66.8619 72.453C65.5609 72.1524 64.3799 71.4727 63.4704 70.5012C62.1014 68.7249 61.4979 66.4818 61.7922 64.2642C61.9372 62.8684 62.1961 61.4866 62.5664 60.1324C62.7219 59.4984 62.8846 58.849 63.0131 58.2119C63.4999 55.861 63.6663 53.4559 63.5082 51.061C63.4623 50.3714 63.3926 49.6519 63.3197 48.9592C63.0449 46.2338 62.7596 43.4094 63.9089 40.9011C64.7047 39.222 66.0943 37.892 67.8132 37.1641C69.5321 36.4362 71.4605 36.3612 73.2315 36.9535C73.3372 36.986 73.4294 37.0519 73.4941 37.141C78.1022 42.871 78.2354 50.9247 77.7476 58.0602C77.6749 60.7305 77.2264 63.3777 76.4151 65.9247C75.9998 67.2223 75.3295 68.4253 74.4432 69.4642C73.5568 70.5031 72.4719 71.3572 71.2511 71.9771L70.7727 72.1885ZM68.6411 38.1505C67.0411 38.7142 65.7314 39.8849 64.9989 41.4059C63.9917 43.6317 64.2115 46.3128 64.5164 48.8733C64.5893 49.566 64.6632 50.2968 64.7018 51.0019C64.8711 53.5014 64.6997 56.0122 64.1923 58.4662C64.0607 59.13 63.8907 59.795 63.7352 60.429C63.3802 61.7219 63.1286 63.0408 62.9828 64.3731C62.7407 66.2682 63.239 68.1833 64.3752 69.7247C65.177 70.5667 66.2261 71.1358 67.3728 71.3507C68.5195 71.5657 69.7052 71.4155 70.7609 70.9217C71.8305 70.3653 72.7785 69.6039 73.55 68.6815C74.3215 67.7591 74.9012 66.694 75.2556 65.5477C76.0445 63.1088 76.4768 60.57 76.5394 58.009C76.993 51.1684 76.8807 43.4538 72.6506 38.0494C71.3391 37.6452 69.9302 37.6808 68.6411 38.1505V38.1505Z" fill="black"/>
<path d="M75.6454 40.5202C76.4979 40.4176 77.3625 40.5489 78.1452 40.8997C78.9279 41.2506 79.5988 41.8076 80.0853 42.5104C80.8872 43.8767 81.3485 45.4137 81.4307 46.9931C81.9818 50.9839 82.0039 55.0292 81.4966 59.0258C81.2689 61.4778 80.3832 63.8243 78.9318 65.8206C77.4522 67.6394 74.4032 69.1268 72.6622 67.8686C71.5805 67.1041 71.5344 65.7084 71.5392 64.3456C71.6506 57.312 72.0761 50.2418 72.8158 43.1352C72.8341 42.4656 73.0441 41.8152 73.4214 41.26C73.852 40.7063 74.7072 40.6411 75.6454 40.5202Z" fill="white"/>
<path d="M76.0563 68.5934C75.4598 68.8603 74.8065 68.9782 74.1535 68.9367C73.5006 68.8952 72.8678 68.6956 72.3104 68.3553C71.0085 67.4135 70.9177 65.7901 70.9432 64.3428C71.0532 57.3054 71.4829 50.1524 72.2032 43.087C72.2333 42.3107 72.4815 41.5583 72.9198 40.9148C73.5528 40.3017 74.4039 39.9617 75.2881 39.9689L75.505 39.8905C76.4678 39.7679 77.4459 39.9129 78.3307 40.3093C79.2155 40.7058 79.9722 41.3382 80.5168 42.1362C81.373 43.579 81.8709 45.2036 81.9692 46.8754C82.536 50.9178 82.5557 55.0173 82.0278 59.0648C81.7884 61.6206 80.8629 64.0657 79.3479 66.1453C78.4897 67.2378 77.3534 68.083 76.0563 68.5934V68.5934ZM74.3118 41.3618C74.1489 41.4086 74.0033 41.5014 73.8925 41.6289C73.5942 42.0976 73.4347 42.6403 73.4322 43.1948C72.6807 50.2458 72.2386 57.3648 72.139 64.3599C72.1144 65.5629 72.1749 66.7865 73.0179 67.3934C74.3862 68.3754 77.1436 67.186 78.452 65.4291C79.831 63.5112 80.676 61.2659 80.9016 58.9198C81.4048 54.9753 81.3802 50.982 80.8285 47.0438C80.7537 45.5582 80.3254 44.1113 79.5787 42.8219C79.1557 42.2114 78.573 41.727 77.8936 41.4206C77.2141 41.1142 76.4635 40.9975 75.7223 41.083L75.4617 41.113C75.071 41.1573 74.6857 41.2406 74.3118 41.3618V41.3618Z" fill="black"/>
<path d="M73.0689 41.7724C73.034 41.7866 72.9956 41.7903 72.9586 41.7832C72.9215 41.7761 72.8874 41.7584 72.8603 41.7323C72.1279 41.0894 71.3085 40.5515 70.4259 40.1342C70.3799 40.1105 70.3446 40.0706 70.3269 40.0223C70.3092 39.974 70.3104 39.9209 70.3303 39.8734C70.3394 39.8486 70.3538 39.826 70.3726 39.8073C70.3915 39.7885 70.4142 39.7742 70.4393 39.7651C70.4643 39.7561 70.491 39.7526 70.5176 39.7549C70.5441 39.7572 70.5698 39.7653 70.5928 39.7785C71.5108 40.2085 72.3632 40.7649 73.1248 41.4312C73.1445 41.4484 73.1604 41.4694 73.1717 41.4929C73.1829 41.5164 73.1892 41.5419 73.1903 41.5679C73.1914 41.5939 73.1872 41.6199 73.1779 41.6442C73.1686 41.6685 73.1545 41.6907 73.1364 41.7095L73.0689 41.7724Z" fill="black"/>
<path d="M72.5048 45.1859C72.4712 45.1987 72.4346 45.2013 72.3995 45.1934C72.3644 45.1856 72.3324 45.1675 72.3076 45.1417C71.7577 44.6574 71.1095 44.2962 70.4068 44.0825C70.3623 44.0604 70.3281 44.0223 70.3111 43.9759C70.2941 43.9295 70.2956 43.8784 70.3154 43.8331C70.326 43.8094 70.3413 43.7882 70.3604 43.7705C70.3795 43.7529 70.4019 43.7392 70.4264 43.7304C70.4509 43.7215 70.4769 43.7176 70.503 43.719C70.529 43.7203 70.5545 43.7268 70.5779 43.7382C71.3392 43.9623 72.0398 44.3543 72.6272 44.8849C72.6468 44.9021 72.6628 44.9231 72.674 44.9466C72.6853 44.9701 72.6916 44.9956 72.6927 45.0216C72.6938 45.0476 72.6895 45.0736 72.6802 45.0979C72.671 45.1222 72.6568 45.1444 72.6387 45.1632L72.5048 45.1859Z" fill="black"/>
<path d="M71.9673 54.0756L71.8874 54.1045L69.6195 53.9485C69.5937 53.9482 69.5682 53.9424 69.5448 53.9317C69.5214 53.9209 69.5005 53.9053 69.4837 53.8859C69.4668 53.8665 69.4542 53.8438 69.4468 53.8192C69.4395 53.7946 69.4375 53.7688 69.4409 53.7434C69.4415 53.7177 69.4471 53.6924 69.4577 53.669C69.4682 53.6455 69.4834 53.6244 69.5022 53.6068C69.521 53.5892 69.5432 53.5756 69.5674 53.5666C69.5916 53.5577 69.6174 53.5536 69.6432 53.5547L71.9226 53.7066C71.9702 53.7061 72.0163 53.723 72.0522 53.7541C72.0881 53.7852 72.1113 53.8282 72.1173 53.8752C72.1234 53.9221 72.1118 53.9695 72.0849 54.0086C72.0581 54.0476 72.0177 54.0755 71.9715 54.0869L71.9673 54.0756Z" fill="black"/>
<path d="M72.1105 49.6691C72.0841 49.6798 72.0555 49.6836 72.0272 49.6804C71.9989 49.6772 71.9718 49.6669 71.9486 49.6506C71.2837 49.3255 70.5847 49.0744 69.8642 48.9018C69.8378 48.897 69.8126 48.8868 69.7904 48.8719C69.7681 48.8569 69.7492 48.8376 69.7349 48.815C69.7205 48.7924 69.711 48.7672 69.707 48.7408C69.703 48.7144 69.7045 48.6875 69.7115 48.6617C69.7338 48.6176 69.7722 48.5835 69.8189 48.5666C69.8657 48.5497 69.9171 48.5513 69.9627 48.5709C70.719 48.7446 71.4523 49.0052 72.1478 49.3475C72.1812 49.3664 72.2087 49.3941 72.2272 49.4277C72.2456 49.4612 72.2542 49.4992 72.2521 49.5374C72.2499 49.5755 72.2371 49.6123 72.215 49.6436C72.1929 49.6749 72.1625 49.6995 72.1271 49.7145L72.1105 49.6691Z" fill="black"/>
<path d="M69.4492 60.2749C69.408 60.2891 69.3633 60.29 69.3215 60.2774C69.2797 60.2648 69.243 60.2394 69.2167 60.2048C69.2012 60.1834 69.1902 60.1592 69.1845 60.1334C69.1787 60.1077 69.1784 60.081 69.1835 60.0551C69.1885 60.0292 69.1989 60.0047 69.2139 59.9829C69.2289 59.9611 69.2481 59.9426 69.2706 59.9286L71.3253 58.4796C71.3698 58.4517 71.4234 58.4416 71.4751 58.4516C71.5268 58.4615 71.5727 58.4907 71.6035 58.5332C71.619 58.5546 71.6299 58.5789 71.6356 58.6046C71.6414 58.6304 71.6418 58.657 71.6367 58.6829C71.6317 58.7088 71.6213 58.7334 71.6063 58.7551C71.5913 58.7769 71.572 58.7954 71.5496 58.8094L69.4907 60.247L69.4492 60.2749Z" fill="black"/>
<path d="M68.8816 65.4848L68.6762 65.5591C68.6517 65.5682 68.6255 65.5719 68.5995 65.5701C68.5734 65.5683 68.5481 65.5609 68.5251 65.5485C68.5022 65.5361 68.4822 65.5189 68.4665 65.4982C68.4508 65.4774 68.4398 65.4536 68.4343 65.4282C68.4251 65.4034 68.4212 65.377 68.4227 65.3507C68.4243 65.3243 68.4312 65.2986 68.4432 65.275C68.4552 65.2514 68.4719 65.2305 68.4923 65.2136C68.5127 65.1967 68.5364 65.1841 68.5619 65.1766C69.1519 64.9975 69.6947 64.6912 70.1517 64.2797C70.6088 63.8681 70.9687 63.3614 71.2058 62.7957C71.2164 62.7721 71.2317 62.7508 71.2508 62.7332C71.2699 62.7155 71.2923 62.7018 71.3168 62.693C71.3413 62.6841 71.3673 62.6803 71.3934 62.6816C71.4194 62.683 71.4449 62.6895 71.4684 62.7008C71.5179 62.7239 71.5562 62.7654 71.5749 62.8164C71.5936 62.8674 71.5911 62.9237 71.5681 62.9729C71.3128 63.5491 70.9435 64.0685 70.4819 64.5C70.0204 64.9315 69.4762 65.2664 68.8816 65.4848Z" fill="black"/>
<path d="M70.0478 69.4966C70.005 69.5129 69.9577 69.5137 69.9144 69.4988C69.8711 69.4839 69.8345 69.4543 69.8111 69.4152C69.7829 69.371 69.7728 69.3178 69.7828 69.2665C69.7928 69.2151 69.8222 69.1695 69.8649 69.139C70.2769 68.8905 70.6307 68.5576 70.9028 68.1625C71.175 67.7675 71.3591 67.3193 71.443 66.848C71.4559 66.7968 71.4871 66.752 71.5309 66.7221C71.5746 66.6921 71.6279 66.6789 71.6807 66.6851C71.7306 66.6962 71.7746 66.7253 71.8041 66.7668C71.8337 66.8084 71.8467 66.8593 71.8406 66.9097C71.7501 67.4379 71.5458 67.9404 71.2415 68.3828C70.9373 68.8252 70.5403 69.1971 70.0778 69.4729L70.0478 69.4966Z" fill="black"/>
<path d="M52.1732 91.2224C51.6366 91.4163 51.1114 91.6062 50.6091 91.7878C47.9169 92.7198 45.1001 93.249 42.2511 93.3581C39.3282 93.502 36.4554 92.5641 34.1887 90.7256C32.7242 89.2808 31.54 87.5805 30.6956 85.7097C30.0337 84.3388 29.2249 83.0426 28.2834 81.8438C28.2311 81.7861 28.1911 81.7186 28.1657 81.6452C28.1403 81.5718 28.13 81.4941 28.1354 81.4167C28.1408 81.3393 28.1617 81.2638 28.1971 81.1946C28.2325 81.1254 28.2815 81.064 28.3412 81.014C28.4009 80.9617 28.4705 80.9218 28.546 80.8967C28.6214 80.8716 28.7012 80.8617 28.7805 80.8678C28.8599 80.8738 28.9372 80.8956 29.0079 80.9318C29.0786 80.968 29.1414 81.018 29.1923 81.0787C30.1975 82.3393 31.0552 83.7092 31.749 85.162C32.5295 86.9023 33.6228 88.4868 34.9752 89.8379C37.0391 91.4831 39.6452 92.3075 42.2871 92.151C45.0184 92.0169 47.7138 91.4754 50.2829 90.5447C52.3326 89.9678 54.2781 89.0739 56.0477 87.8959C56.1773 87.8052 56.3375 87.7684 56.494 87.7934C56.6505 87.8184 56.791 87.9032 56.8855 88.0296C56.9321 88.092 56.966 88.1629 56.985 88.2383C57.0041 88.3136 57.0081 88.392 56.9966 88.4689C56.9852 88.5458 56.9586 88.6196 56.9184 88.6863C56.8781 88.753 56.825 88.8111 56.7622 88.8574C55.3542 89.8596 53.8088 90.656 52.1732 91.2224Z" fill="black"/>
<path d="M61.3863 82.9612C58.7542 83.2578 55.9676 83.9441 54.1206 85.8187C53.7321 86.1607 53.4257 86.5849 53.224 87.06C53.0222 87.5351 52.9302 88.0491 52.9548 88.5641C53.0997 89.187 53.4394 89.7484 53.9252 90.1678C54.4111 90.5873 55.018 90.8432 55.6593 90.8991C56.9839 91.0017 58.3131 90.7687 59.5223 90.2218C60.7847 89.8124 61.9442 89.1393 62.923 88.2478C63.4002 87.8103 63.759 87.2607 63.9665 86.6495C64.1739 86.0383 64.2234 85.3851 64.1104 84.7499C63.9824 84.157 63.6254 83.6376 63.1161 83.3032C62.6068 82.9687 61.9858 82.846 61.3863 82.9612V82.9612Z" fill="white"/>
<path d="M59.444 90.8914C58.2364 91.3918 56.9231 91.5886 55.6205 91.4646C54.85 91.3909 54.1232 91.0755 53.5453 90.5642C52.9674 90.0528 52.5685 89.3721 52.4062 88.6205C52.3776 88.008 52.4876 87.3969 52.7281 86.8323C52.9687 86.2676 53.3336 85.7636 53.796 85.3575C55.9273 83.2004 59.1084 82.6026 61.3534 82.3432C61.6536 82.2536 61.9687 82.2244 62.2805 82.2572C62.5922 82.29 62.8942 82.3843 63.1688 82.5344C63.5549 82.7446 63.8957 83.0282 64.1714 83.3691C64.4472 83.7101 64.6526 84.1016 64.7761 84.5214C64.9154 85.2552 64.8652 86.0121 64.63 86.7214C64.3948 87.4306 63.9823 88.0691 63.4311 88.577C62.3893 89.5297 61.1555 90.2514 59.8114 90.6943L59.444 90.8914ZM57.5966 84.3689C56.4695 84.7478 55.4444 85.3774 54.5997 86.2098C54.2734 86.4871 54.0134 86.8332 53.8386 87.2229C53.6639 87.6125 53.5787 88.036 53.5893 88.4624C53.7115 88.9611 53.9906 89.4081 54.386 89.7385C54.7815 90.0689 55.2727 90.2655 55.7883 90.2997C57.0119 90.3814 58.2368 90.1593 59.3524 89.6533C60.5401 89.2709 61.6314 88.64 62.5528 87.8031C62.9579 87.4373 63.2643 86.9767 63.4442 86.4631C63.6241 85.9495 63.6716 85.3995 63.5825 84.863C63.5105 84.5938 63.3827 84.3424 63.2073 84.125C63.0319 83.9077 62.8128 83.729 62.5639 83.6005C62.4292 83.5183 62.2785 83.4651 62.1217 83.4443C61.9649 83.4236 61.8054 83.4358 61.6537 83.4801L61.5167 83.5297C60.165 83.6558 58.8335 83.9431 57.551 84.3854L57.5966 84.3689Z" fill="black"/>
<g opacity="0.13">
<path opacity="0.13" d="M45.8507 72.6682C45.5603 72.1939 45.4334 71.5319 44.9337 71.2618C44.7147 71.129 44.4558 71.0777 44.2029 71.117C43.95 71.1564 43.7197 71.2838 43.5529 71.4767C43.397 71.6953 43.3188 71.9596 43.3308 72.2279C43.3428 72.4962 43.4443 72.7532 43.6192 72.9583C43.7236 73.2424 44.0839 73.8716 44.1507 74.0534C44.3842 74.7586 44.4942 75.4981 44.4757 76.2396C44.3626 76.8272 44.1274 77.3845 43.7852 77.8757C43.4429 78.367 43.001 78.7815 42.4879 79.0925L42.3625 79.1378L41.929 79.2941C40.9049 79.6066 39.8627 79.8579 38.8081 80.0466C38.6102 80.0545 38.4146 80.0903 38.2272 80.1531C38.3754 79.4708 38.3757 78.7645 38.2282 78.081C38.1297 77.6018 38.0165 77.0121 37.4993 76.7997C37.2454 76.6969 36.9625 76.6913 36.7054 76.784C36.4484 76.8767 36.2353 77.0612 36.1076 77.3017C36.0003 77.6164 35.9901 77.9561 36.0784 78.2773C36.1042 78.4786 36.1139 78.6816 36.1077 78.8844C36.0908 78.9938 36.0658 79.1018 36.0326 79.2075L35.9386 79.4086C35.746 79.6638 35.4915 79.8663 35.1988 79.9971V79.9971C34.1137 80.5678 32.8894 80.8267 31.6627 80.7449L31.2237 80.7102C30.7349 80.6806 30.1949 80.4765 29.7628 80.8124C29.5987 80.9248 29.4718 81.0833 29.3985 81.2677C29.3252 81.4522 29.3086 81.6544 29.3509 81.8486C29.3932 82.0428 29.4924 82.2203 29.636 82.3587C29.7797 82.4971 29.9612 82.5901 30.1577 82.6259C31.8384 82.9463 35.4752 83.2817 37.2982 81.6334C37.3428 81.9756 37.5216 82.2868 37.7956 82.499C38.0696 82.7112 38.4165 82.8072 38.7606 82.7659C40.6654 82.5331 42.5135 81.971 44.2219 81.1051C44.9495 80.6 45.5597 79.9456 46.0114 79.1857C46.463 78.4257 46.7457 77.5779 46.8406 76.6992C46.8811 76.0649 46.8131 75.4281 46.6396 74.8157C46.4699 74.0696 46.2047 73.3479 45.8507 72.6682V72.6682Z" fill="black"/>
</g>
<g opacity="0.13">
<path opacity="0.13" d="M64.4077 84.8227C64.2243 84.6329 63.9789 84.5145 63.7159 84.489C63.4529 84.4634 63.1897 84.5323 62.9739 84.6834C62.283 85.3704 62.5529 85.4018 62.121 85.8795C61.6404 86.4328 61.0451 86.876 60.3757 87.1787C59.556 87.523 58.7016 87.7794 57.8269 87.9438C56.8581 88.1551 55.8622 88.2191 54.8731 88.1339C54.7064 88.0681 54.5273 88.0399 54.3486 88.051C54.17 88.0622 53.9961 88.1125 53.8395 88.1985C53.6828 88.2844 53.5474 88.4037 53.4428 88.548C53.3382 88.6923 53.2669 88.858 53.2342 89.0331C53.2016 89.2082 53.2082 89.3885 53.2537 89.561C53.2992 89.7336 53.3824 89.8941 53.4974 90.0311C53.6124 90.1681 53.7563 90.2782 53.9189 90.3536C54.0814 90.429 54.2586 90.4677 54.4376 90.467C56.0225 90.7359 57.6471 90.635 59.1836 90.1723C60.72 89.7096 62.1263 88.8977 63.2916 87.8005C63.7327 87.3646 64.1174 86.8755 64.4367 86.3445C64.6218 86.1328 64.7212 85.8601 64.7159 85.5791C64.7105 85.298 64.6007 85.0286 64.4077 84.8227V84.8227Z" fill="black"/>
</g>
<g opacity="0.13">
<path opacity="0.13" d="M78.6832 63.809C78.204 63.9819 77.9995 64.4805 77.6047 64.7774L77.7394 64.6516C77.3703 64.9686 76.9719 65.2502 76.5495 65.4928L75.979 65.6986L75.6938 65.8015C75.336 65.9117 74.9527 65.9108 74.5946 65.7989C74.463 65.7579 74.3353 65.7048 74.2134 65.6403L74.0252 65.5151L73.7612 65.2885C73.7384 65.2411 73.7202 65.1916 73.7069 65.1408C73.6177 64.9854 73.4951 64.8516 73.3479 64.7489C73.2007 64.6462 73.0326 64.5771 72.8557 64.5467C72.6291 64.5151 72.3983 64.5479 72.19 64.6411C71.9817 64.7343 71.8042 64.8843 71.6781 65.0737C71.5519 65.2631 71.4821 65.4843 71.4768 65.7118C71.4715 65.9393 71.5309 66.164 71.648 66.3598C72.0032 66.8741 72.4734 67.2995 73.0216 67.6023C72.9032 67.5828 72.7834 67.5743 72.6635 67.577C71.8821 67.6658 71.3832 68.3478 70.6967 68.6598L70.6282 68.6845C69.95 69.0873 69.1917 69.3389 68.4054 69.422C67.834 69.4011 67.2702 69.2822 66.7388 69.0706C66.1848 68.8249 65.6487 68.5407 65.1345 68.2203L64.9932 68.1169C64.696 67.9409 64.4795 67.6328 64.1388 67.5496C63.9292 67.4943 63.7074 67.5083 63.5071 67.5897C63.3067 67.6711 63.1387 67.8155 63.0285 68.0008C62.9183 68.1861 62.8719 68.4023 62.8964 68.6167C62.921 68.831 63.0151 69.0318 63.1644 69.1885C64.7971 70.7495 66.8263 72.3347 69.3436 71.9416C70.664 71.8064 71.9295 71.3499 73.0287 70.6122C73.8073 70.1639 74.5614 69.4027 74.2077 68.4746C74.1213 68.2473 73.9762 68.0465 73.7871 67.8926C74.1697 68.0277 74.5715 68.1001 74.977 68.107C75.7537 68.0651 76.5073 67.833 77.1709 67.4314C77.9744 66.9724 78.7094 66.4039 79.3545 65.7425C79.6673 65.3979 80.0827 65.0164 80.0454 64.5277C80.0222 64.3806 79.9649 64.2408 79.878 64.1194C79.791 63.998 79.6768 63.8984 79.5445 63.8286C79.4121 63.7588 79.2654 63.7207 79.1158 63.7173C78.9663 63.7139 78.8181 63.7453 78.6832 63.809V63.809Z" fill="black"/>
</g>
<path d="M43.009 38.5546C42.4481 38.6961 41.9293 38.9682 41.4953 39.3483C41.0613 39.7284 40.7248 40.2057 40.5134 40.7407C40.3198 41.6903 40.4708 42.6773 40.9398 43.5269L44.57 52.2682C44.6811 52.7193 44.8966 53.1386 45.1992 53.4928C45.5017 53.8469 45.8832 54.1263 46.3133 54.3087C46.791 54.3924 47.2815 54.3686 47.7487 54.2392C48.8146 54.0079 50.0943 53.5839 50.3742 52.5839C50.4826 52.0258 50.4281 51.4486 50.217 50.9203C49.3671 48.1074 48.5245 45.2791 47.6746 42.4663C47.4505 41.5404 47.0784 40.6562 46.5726 39.8473C46.2262 39.2503 45.6792 38.7935 45.0275 38.5572C44.3759 38.3208 43.6612 38.3199 43.009 38.5546V38.5546Z" fill="#ACD4F7"/>
<path d="M49.0062 54.5314C48.6229 54.6665 48.2303 54.774 47.8314 54.8533C47.4252 54.9969 46.992 55.0488 46.5631 55.0053C46.1342 54.9619 45.7205 54.8241 45.3519 54.602C44.9833 54.3799 44.6691 54.0791 44.4322 53.7214C44.1952 53.3638 44.0415 52.9582 43.982 52.5341L40.3519 43.7928C39.827 42.8098 39.6718 41.6733 39.914 40.587C40.1547 39.9517 40.5465 39.3837 41.056 38.9312C41.5655 38.4788 42.1777 38.1554 42.8402 37.9885C43.614 37.7217 44.457 37.73 45.2253 38.012C45.9936 38.2939 46.6394 38.8321 47.0525 39.5346C47.5917 40.3991 47.99 41.3428 48.2325 42.3308L50.7748 50.7848C51.0278 51.4247 51.0819 52.1252 50.9301 52.7959C50.7672 53.2137 50.5085 53.5881 50.1746 53.8893C49.8406 54.1906 49.4406 54.4104 49.0062 54.5314V54.5314ZM42.908 39.1967C42.4955 39.3392 42.1193 39.5694 41.8057 39.8713C41.492 40.1732 41.2485 40.5394 41.0922 40.9444C40.9375 41.7738 41.0908 42.6307 41.5236 43.3564L45.1423 52.1018C45.4789 53.0202 45.888 53.6427 46.488 53.7982C46.8758 53.8534 47.2709 53.8244 47.6463 53.7133C48.9302 53.4418 49.6327 52.9953 49.7799 52.4798C49.8615 52.0348 49.8102 51.5757 49.6322 51.1594L47.0898 42.7054C46.8772 41.8402 46.5344 41.0118 46.073 40.2482C45.7854 39.7492 45.3279 39.3686 44.7829 39.1748C44.2379 38.9811 43.6411 38.9869 43.1 39.1914L42.8488 39.2822L42.908 39.1967Z" fill="black"/>
<path d="M38.4933 28.4268C37.8611 28.6779 37.3196 29.1123 36.9395 29.6734C36.5594 30.2344 36.3583 30.8962 36.3624 31.5724C36.4037 32.2234 36.6151 32.8525 36.9758 33.3976C37.3365 33.9427 37.8341 34.385 38.4194 34.6808C38.6875 34.8267 38.9808 34.921 39.2841 34.9589C39.5173 34.9856 39.7533 34.9741 39.9826 34.9247C40.603 34.8093 41.1859 34.5457 41.6807 34.1565C42.1755 33.7673 42.5675 33.2644 42.8228 32.6911C43.0543 32.1272 43.1347 31.5133 43.0561 30.9094C42.9775 30.3055 42.7427 29.7321 42.3744 29.2452C41.9075 28.7048 41.2745 28.332 40.5732 28.1841C39.8719 28.0363 39.1411 28.1215 38.4933 28.4268Z" fill="#ACD4F7"/>
<path d="M40.8133 35.3702C40.5832 35.4513 40.3472 35.5152 40.1075 35.5611C39.8211 35.6113 39.5291 35.6218 39.2398 35.5923C38.8643 35.5453 38.5012 35.4282 38.1696 35.2472C37.477 34.9043 36.8897 34.383 36.4691 33.7379C36.0485 33.0927 35.8099 32.3472 35.7781 31.5793C35.7721 30.7807 36.0095 29.9991 36.4591 29.337C36.9087 28.6749 37.5494 28.1634 38.2972 27.8697V27.8697C39.0687 27.5283 39.9317 27.4474 40.754 27.6395C41.5762 27.8316 42.3124 28.286 42.8498 28.9332C43.2883 29.4989 43.5687 30.1697 43.6624 30.8776C43.7561 31.5855 43.6599 32.3054 43.3835 32.9645C43.1426 33.5182 42.7904 34.0172 42.3485 34.4309C41.9065 34.8445 41.3841 35.1642 40.8133 35.3702ZM38.6929 28.9849C38.1827 29.1976 37.7471 29.5554 37.4411 30.0133C37.135 30.4712 36.9721 31.0087 36.9728 31.5583C37.002 32.1129 37.1788 32.6498 37.4853 33.1142C37.7918 33.5787 38.217 33.954 38.7173 34.2018C38.9213 34.3137 39.1451 34.3854 39.3764 34.413C39.5505 34.4341 39.7269 34.4267 39.8986 34.3912C40.4207 34.2954 40.9114 34.0742 41.3277 33.7469C41.7441 33.4196 42.0735 32.9961 42.2873 32.5133C42.4824 32.0463 42.5515 31.5369 42.4879 31.0353C42.4242 30.5337 42.2299 30.0572 41.9242 29.653C41.5361 29.2019 41.0083 28.8916 40.4235 28.7707C39.8387 28.6498 39.23 28.7251 38.6929 28.9849Z" fill="black"/>
</svg>
