<svg width="90" height="70" viewBox="0 0 90 70" fill="none" xmlns="http://www.w3.org/2000/svg">
<path d="M28.2498 0C38.3529 0 48.466 0 58.5295 0.992485C65.3079 1.61775 72.294 2.59038 78.1223 6.13355C81.658 8.3336 84.5937 11.3796 86.6662 14.9982C88.7387 18.6169 89.8831 22.6949 89.9968 26.8666C90.1155 34.2904 86.949 41.2973 84.5741 48.3241C82.1992 55.3509 80.616 63.2908 83.7726 70C79.0921 67.628 77.0239 62.0601 73.3033 58.3879C67.2968 52.433 57.9655 51.8772 49.5545 51.4405C40.4243 50.9443 31.3206 50.1139 22.2433 48.9494C17.0581 48.2745 11.6256 47.3912 7.49922 44.1755C-0.417061 38.0023 -0.417062 26.2215 0.285508 16.1974C0.473519 12.6542 3.61034 0 28.2498 0Z" fill="white"/>
<path d="M30.3885 15.5825C26.1401 15.5825 21.9115 15.5594 17.7026 15.5131C17.574 15.508 17.4521 15.4538 17.3619 15.3616C17.2718 15.2693 17.2202 15.146 17.2178 15.0168C17.2204 14.8869 17.2736 14.7632 17.3661 14.6723C17.4586 14.5814 17.583 14.5305 17.7125 14.5305C34.8513 14.7389 52.2176 14.5305 69.3366 13.9052C69.4006 13.9012 69.4647 13.9102 69.5252 13.9317C69.5856 13.9532 69.6411 13.9868 69.6882 14.0304C69.7354 14.074 69.7732 14.1267 69.7995 14.1853C69.8258 14.244 69.84 14.3074 69.8412 14.3717C69.8439 14.4356 69.834 14.4993 69.812 14.5594C69.7901 14.6194 69.7565 14.6745 69.7133 14.7215C69.6701 14.7685 69.6181 14.8065 69.5603 14.8334C69.5024 14.8602 69.4398 14.8753 69.3762 14.8779C56.4726 15.3443 43.4009 15.5825 30.3885 15.5825Z" fill="black"/>
<path d="M71.1467 25.9738L55.0073 25.9043C54.8787 25.9043 54.7554 25.853 54.6645 25.7618C54.5736 25.6706 54.5225 25.5469 54.5225 25.418C54.5275 25.2889 54.5815 25.1666 54.6735 25.0762C54.7655 24.9858 54.8885 24.9341 55.0172 24.9316V24.9316L71.1565 25.0011C71.2878 25.0011 71.4136 25.0534 71.5064 25.1465C71.5992 25.2395 71.6513 25.3657 71.6513 25.4974C71.6513 25.629 71.5992 25.7552 71.5064 25.8483C71.4136 25.9413 71.2878 25.9936 71.1565 25.9936L71.1467 25.9738Z" fill="black"/>
<path d="M46.2894 25.7947L18.0778 25.3382C17.9466 25.3382 17.8207 25.2859 17.7279 25.1928C17.6351 25.0998 17.583 24.9736 17.583 24.8419C17.583 24.7103 17.6351 24.5841 17.7279 24.491C17.8207 24.398 17.9466 24.3457 18.0778 24.3457L46.2795 24.7923C46.4107 24.7923 46.5366 24.8446 46.6294 24.9377C46.7222 25.0307 46.7743 25.1569 46.7743 25.2886C46.7743 25.4202 46.7222 25.5464 46.6294 25.6394C46.5366 25.7325 46.4107 25.7848 46.2795 25.7848L46.2894 25.7947Z" fill="black"/>
<path d="M71.0277 36.9507L20.6703 35.7697C20.5417 35.7621 20.4208 35.7054 20.3325 35.6113C20.2442 35.5172 20.1951 35.3928 20.1953 35.2635C20.2029 35.1345 20.2594 35.0133 20.3532 34.9247C20.4471 34.8361 20.5711 34.7869 20.7 34.7871L71.0475 35.9781C71.1116 35.978 71.175 35.991 71.234 36.0162C71.2929 36.0413 71.3462 36.0782 71.3906 36.1246C71.4349 36.1709 71.4695 36.2258 71.4922 36.2859C71.5149 36.346 71.5252 36.4101 71.5225 36.4743C71.5174 36.6025 71.463 36.7237 71.3708 36.8125C71.2785 36.9013 71.1556 36.9508 71.0277 36.9507Z" fill="black"/>
</svg>
