<svg width="92" height="110" viewBox="0 0 92 110" fill="none" xmlns="http://www.w3.org/2000/svg">
<path d="M67.3085 109.003C67.6785 102.455 67.3264 99.9095 65.4606 94.0662C60.7449 79.3184 46.0946 73.072 38.7534 72.295C30.2181 71.3948 21.0355 71.4822 13.0407 76.8739C7.75599 80.4421 3.4657 86.0168 0.600171 91.3163C22.3193 97.2924 44.0269 103.234 67.3085 109.003Z" fill="white"/>
<path d="M26.5922 98.9379C17.7553 96.5533 9.0543 94.2053 0.497561 91.823C0.424157 91.8044 0.356138 91.7687 0.298994 91.7187C0.24185 91.6687 0.197189 91.6059 0.16864 91.5353C0.139329 91.4661 0.126062 91.391 0.129851 91.3158C0.133639 91.2407 0.154381 91.1674 0.190502 91.1015C2.13348 87.511 6.35199 80.8385 12.7872 76.5022C21.1613 70.8569 30.6523 70.9784 38.835 71.8359C46.8547 72.6807 61.3161 79.4415 65.948 93.9573C67.8486 99.9043 68.1838 102.591 67.8222 109.069C67.8181 109.143 67.7977 109.215 67.7625 109.28C67.7273 109.344 67.6781 109.4 67.6187 109.443C67.5609 109.487 67.4946 109.517 67.4241 109.533C67.3537 109.548 67.2808 109.548 67.2104 109.532C53.2593 106.05 39.7553 102.49 26.5922 98.9379ZM1.39249 91.0384C22.3531 96.7784 44.029 102.722 66.9025 108.423C67.3375 103.636 66.6988 98.8121 65.0336 94.3073C60.5305 80.2451 46.5236 73.6907 38.7471 72.8696C30.737 72.0274 21.4654 71.9022 13.3573 77.3681C7.39871 81.3199 3.39437 87.4219 1.39249 91.0384Z" fill="black"/>
<path d="M37.7407 56.7985C36.4865 62.1768 31.9901 72.9415 31.8206 74.0475C31.7366 74.8991 31.8982 75.757 32.286 76.5184C32.9988 77.9157 33.99 79.15 35.1976 80.1443C36.4053 81.1385 37.8035 81.8713 39.305 82.297C40.8064 82.7741 42.3877 82.9423 43.955 82.7914C45.5222 82.6405 47.0433 82.1737 48.4277 81.4187C49.3917 80.8826 50.1872 80.0854 50.7243 79.1172C51.47 77.6432 52.9745 66.3225 53.9126 60.7646C54.0456 59.9524 55.844 59.3278 49.9025 57.5884C45.9322 56.5681 41.8082 56.3003 37.7407 56.7985V56.7985Z" fill="white"/>
<path d="M39.5534 82.8882L39.1751 82.7861C37.6081 82.3399 36.1491 81.5734 34.889 80.5344C33.6289 79.4955 32.5949 78.2063 31.8512 76.7473C31.4068 75.8905 31.227 74.9195 31.335 73.959C31.764 72.4876 32.277 71.0424 32.8713 69.6306C34.5575 65.4009 36.0216 61.0848 37.2577 56.7003C37.2787 56.6014 37.3297 56.5115 37.4038 56.4433C37.4779 56.3751 37.5712 56.3319 37.6709 56.3196C41.8125 55.8284 46.0086 56.1158 50.0461 57.1671C53.5348 58.1609 54.4378 58.792 54.6944 59.4685C54.7626 59.6626 54.7822 59.8707 54.7516 60.0742C54.721 60.2778 54.6411 60.4706 54.519 60.6358C54.4839 60.7201 54.4603 60.8088 54.4488 60.8995C54.1655 62.5506 53.8421 64.704 53.4875 66.9746C52.4853 73.5937 51.7357 78.3648 51.2215 79.3987C50.6421 80.4404 49.7838 81.2971 48.7443 81.8713C45.9321 83.4125 42.6308 83.7778 39.5534 82.8882V82.8882ZM38.14 57.2525C37.2703 60.7557 35.1879 66.277 33.7889 69.9724C33.0523 71.92 32.3612 73.7752 32.3071 74.0957C32.245 74.8623 32.4012 75.6309 32.7573 76.3112C33.4415 77.6445 34.3909 78.8217 35.5464 79.7694C36.7019 80.7171 38.0388 81.415 39.4738 81.8197C40.9112 82.279 42.4257 82.4417 43.9269 82.2981C45.4282 82.1545 46.8852 81.7076 48.211 80.984C49.0942 80.495 49.8243 79.7673 50.3191 78.8829C50.7924 77.9636 51.7417 71.7387 52.5044 66.7617C52.8493 64.4885 53.1728 62.3351 53.4561 60.684C53.5005 60.4805 53.577 60.2855 53.6826 60.1064C53.7242 59.9501 53.8233 59.8512 53.7658 59.7938C53.7082 59.7364 53.1398 59.0595 49.748 58.0919C45.9595 57.1166 42.0281 56.8323 38.14 57.2525V57.2525Z" fill="black"/>
<path d="M58.2352 20.0183C52.743 17.4891 45.9722 19.023 41.2642 22.7679C36.5563 26.5127 33.6715 32.2363 32.099 38.1465C27.21 56.5218 36.225 63.551 44.5866 65.8074C65.1994 71.3697 71.7836 43.9657 70.9171 36.0467C70.2175 29.8061 66.5606 23.8563 58.2352 20.0183Z" fill="white"/>
<path d="M44.4437 66.3452C40.8546 65.3767 35.9267 63.1883 32.9458 58.3319C29.8144 53.2988 29.3729 46.4787 31.6082 38.0774C33.412 31.2978 36.6373 25.8964 40.9652 22.4469C46.1355 18.2928 53.1678 17.1436 58.4642 19.5885C68.1725 24.051 70.865 31.0074 71.414 36.0557C72.0354 41.7307 68.9891 55.9545 60.944 62.9032C56.2978 66.8846 50.7488 68.0466 44.4437 66.3452ZM56.0666 19.7687C53.5502 19.183 50.934 19.1862 48.419 19.7781C45.9041 20.37 43.5574 21.5349 41.5594 23.1831C36.2862 27.3722 33.7856 33.723 32.5666 38.3046C30.4041 46.4324 30.8109 52.9919 33.7854 57.7942C36.6295 62.3833 41.2917 64.4372 44.7062 65.3586C50.6815 66.971 55.9199 65.8822 60.2799 62.1167C68.0609 55.3795 71.0141 41.6227 70.4164 36.132C69.6664 29.26 65.3724 23.8294 58.0259 20.4544C57.3938 20.1688 56.7383 19.9394 56.0666 19.7687V19.7687Z" fill="black"/>
<path d="M41.4435 58.7093C38.2627 57.7032 35.2041 56.3405 32.3254 54.6468C29.1244 52.6103 26.9398 49.9582 26.1701 47.1852C25.2715 43.9587 26.2449 40.8081 27.1871 37.7746C27.9161 35.7585 28.3748 33.6534 28.5511 31.515C28.5542 31.4471 28.5705 31.3804 28.5991 31.3188C28.6277 31.2573 28.6681 31.202 28.718 31.1561C28.7678 31.1103 28.8262 31.0748 28.8896 31.0516C28.9531 31.0285 29.0205 31.0181 29.088 31.0212C29.1554 31.0243 29.2216 31.0407 29.2827 31.0695C29.3439 31.0984 29.3988 31.139 29.4443 31.1892C29.4899 31.2394 29.5251 31.2982 29.5481 31.3621C29.5711 31.4261 29.5814 31.4939 29.5783 31.5619C29.4029 33.7891 28.9312 35.9826 28.1759 38.0833C27.2336 41.1168 26.3356 43.9841 27.1633 46.9297C27.8712 49.4661 29.9034 51.9096 32.8995 53.8175C35.7123 55.4682 38.6993 56.7975 41.805 57.7807C41.8661 57.8025 41.9224 57.8362 41.9706 57.88C42.0188 57.9238 42.0579 57.9768 42.0856 58.0359C42.1134 58.0949 42.1293 58.159 42.1324 58.2242C42.1355 58.2895 42.1257 58.3548 42.1037 58.4162C42.0829 58.4816 42.0485 58.5418 42.0029 58.5929C41.9573 58.6439 41.9015 58.6846 41.8391 58.7123C41.7767 58.74 41.7091 58.7541 41.641 58.7535C41.5728 58.753 41.5055 58.7379 41.4435 58.7093V58.7093Z" fill="black"/>
<path d="M48.8317 58.9212C47.0991 58.006 45.2102 57.4288 43.2647 57.22C42.8876 57.126 42.4945 57.118 42.1139 57.1964C41.7333 57.2748 41.3749 57.4378 41.0648 57.6734C40.8563 57.9659 40.7563 58.3228 40.7824 58.682C40.8084 59.0411 40.9588 59.3796 41.2073 59.6384C41.7392 60.2032 42.4016 60.6266 43.1355 60.8707C44.7403 61.5923 46.5245 61.8073 48.2529 61.4873C48.4616 61.4564 48.6621 61.3842 48.8428 61.2748C49.0236 61.1655 49.1811 61.0211 49.3062 60.8502C49.6043 60.3547 49.9183 59.6437 48.8317 58.9212Z" fill="white"/>
<path d="M44.4198 61.8257C43.9307 61.6924 43.4494 61.5311 42.9785 61.3425C42.1622 61.0831 41.4271 60.6141 40.8454 59.9817C40.5211 59.63 40.3316 59.1737 40.3106 58.6943C40.2896 58.2149 40.4385 57.7436 40.7308 57.3646C41.0832 57.0623 41.5013 56.8477 41.9512 56.7381C42.4012 56.6285 42.8704 56.6271 43.321 56.7338C45.3371 56.9507 47.2943 57.5498 49.0891 58.4997C49.3179 58.6116 49.5196 58.7724 49.6803 58.9709C49.841 59.1695 49.9567 59.4009 50.0193 59.6491C50.082 59.8973 50.0901 60.1563 50.0431 60.408C49.9961 60.6597 49.8951 60.8981 49.7471 61.1064C49.5923 61.3402 49.3909 61.5389 49.1556 61.69C48.9203 61.841 48.6563 61.941 48.3805 61.9836C47.0679 62.2649 45.7063 62.2107 44.4198 61.8257ZM45.5045 58.1397C44.7511 57.9359 43.983 57.7916 43.2073 57.7083C42.3173 57.6147 41.7259 57.7273 41.4506 58.0195C41.1754 58.3117 41.2865 58.949 41.5991 59.337C42.0852 59.8324 42.6808 60.2048 43.3373 60.4237C44.8443 61.1196 46.5281 61.3289 48.1578 61.023C48.6496 60.894 48.8251 60.7424 48.888 60.6233C49.159 60.1519 49.2861 59.8303 48.5732 59.3447C47.5998 58.8155 46.5707 58.3974 45.5052 58.098L45.5045 58.1397Z" fill="black"/>
<path d="M51.4475 9.89481C42.0597 10.0105 32.1028 22.6208 28.9677 32.0985C27.777 35.714 41.272 33.8378 48.967 27.5799C47.2542 31.8293 46.2482 32.9923 46.3588 34.1006C51.2933 33.9977 60.9177 31.8204 64.4477 28.009C62.3243 39.1942 73.9264 47.6753 75.3338 44.0659C77.741 37.9098 78.9433 31.1249 76.8263 24.8578C74.7094 18.5907 68.2343 9.7131 51.4475 9.89481Z" fill="#ACD4F7"/>
<path d="M30.0362 34.1762C29.7054 34.0956 29.39 33.961 29.1025 33.7777C28.8165 33.5812 28.6057 33.2921 28.5054 32.9584C28.405 32.6246 28.4211 32.2664 28.551 31.9431C31.5731 22.8118 41.4804 9.52854 51.4917 9.41357C70.106 9.20148 75.7689 20.0377 77.3476 24.6937C79.2272 30.2895 78.7252 36.8655 75.8469 44.2452C75.4472 45.2786 74.3716 45.648 72.9923 45.2443C69.2494 44.1506 62.9901 37.6661 63.8093 29.312C59.677 32.5735 51.2432 34.4962 46.4232 34.5985C46.3003 34.5985 46.1816 34.5541 46.0886 34.4732C45.9956 34.3924 45.9345 34.2806 45.9166 34.1582C45.8373 33.362 46.2004 32.6224 46.8418 31.2668C47.1193 30.6925 47.4579 29.9672 47.8529 29.0686C41.7304 33.2066 33.3439 35.0688 30.0362 34.1762ZM51.497 10.4097C42.2898 10.5113 32.497 23.2077 29.4763 32.2556C29.4151 32.3805 29.4045 32.5245 29.4469 32.6571C29.4892 32.7897 29.5811 32.9005 29.7032 32.966C29.9046 33.1016 30.128 33.2008 30.3633 33.2593C33.4188 34.0838 42.6056 32.1444 48.6954 27.1915C48.7812 27.1227 48.8869 27.0841 48.9964 27.0815C49.106 27.079 49.2134 27.1126 49.3022 27.1772C49.3887 27.2447 49.4514 27.3383 49.4812 27.4444C49.511 27.5504 49.5063 27.6632 49.4678 27.7663C48.756 29.5427 48.1556 30.7837 47.7262 31.6939C47.4028 32.2935 47.1377 32.9233 46.9348 33.5744C52.2007 33.3201 60.9784 31.0819 64.105 27.6537C64.1771 27.5702 64.275 27.5135 64.3829 27.4925C64.4909 27.4716 64.6027 27.4876 64.7005 27.5381C64.7983 27.5886 64.8766 27.6706 64.9227 27.7711C64.9688 27.8716 64.9802 27.9847 64.9551 28.0925C63.3205 36.6977 70.028 43.3346 73.2399 44.2746C73.8607 44.4421 74.6485 44.5291 74.9081 43.8662C77.6949 36.7131 78.1883 30.3651 76.3827 24.9988C74.8763 20.5402 69.4366 10.1935 51.4802 10.3947L51.497 10.4097Z" fill="black"/>
<path d="M31.4283 24.1023C32.678 20.5775 34.7873 17.4255 37.5624 14.9361C40.3375 12.4466 43.6894 10.6996 47.3101 9.85553C54.5206 8.38136 62.018 9.73419 68.2718 13.6379C77.5289 19.4445 78.7728 27.6643 79.2786 34.2819C79.4021 35.9276 78.9777 38.148 77.3539 38.2333C75.7301 38.3187 74.9441 36.2324 74.8224 34.6185C74.1643 25.604 71.0149 18.294 59.1322 15.0874C48.6075 12.2474 40.5897 15.811 36.6266 23.6727C36.2046 24.6996 35.6407 25.6613 34.9516 26.5294C34.5994 26.9585 34.1253 27.269 33.5929 27.4191C33.0606 27.5693 32.4953 27.5519 31.973 27.3694C30.9412 26.8711 31.0225 25.3539 31.4283 24.1023Z" fill="white"/>
<path d="M32.1627 27.9448L31.765 27.8375C30.4525 27.2215 30.5 25.402 30.95 23.9843C32.2246 20.368 34.3812 17.1323 37.2218 14.5746C40.0623 12.0168 43.4956 10.2191 47.2061 9.34647C54.5432 7.86928 62.1635 9.24478 68.5345 13.1963C78.6545 19.5499 79.389 29.0981 79.7807 34.2296C79.9484 35.5475 79.6269 36.8813 78.8778 37.9751C78.6903 38.195 78.4599 38.3738 78.2009 38.5002C77.9419 38.6267 77.6598 38.6981 77.3723 38.7101C75.4975 38.801 74.4857 36.6643 74.3005 34.6249C73.7493 27.0841 71.4936 18.9159 58.9707 15.5366C49.0475 12.8588 41.0354 15.9319 37.0082 23.8392C36.951 24.0541 36.8065 24.2454 36.7106 24.4499C36.3465 25.3056 35.8579 26.1018 35.2607 26.8123C34.8841 27.2529 34.4014 27.5884 33.8588 27.7868C33.3163 27.9851 32.7322 28.0395 32.1627 27.9448V27.9448ZM60.404 10.8139C56.1609 9.64659 51.7045 9.50219 47.3957 10.3923C43.8613 11.2183 40.5893 12.9243 37.8794 15.354C35.1695 17.7837 33.1084 20.8595 31.885 24.2995V24.2995C31.5506 25.361 31.4928 26.6332 32.2156 26.9644C32.644 27.0967 33.1018 27.0978 33.5308 26.9674C33.9597 26.8371 34.3406 26.5812 34.6248 26.2324C35.138 25.582 35.5486 24.8558 35.8422 24.0795C35.8994 23.8645 36.0465 23.6634 36.1425 23.459C40.3973 15.0477 48.8016 11.8292 59.2196 14.6405C72.3439 18.182 74.7175 26.7276 75.2799 34.617C75.3735 35.8673 75.9935 37.8355 77.2906 37.7667C77.4433 37.7592 77.593 37.7206 77.7306 37.6534C77.8682 37.5862 77.9909 37.4916 78.0912 37.3754C78.6393 36.4907 78.8668 35.4424 78.7352 34.4081C78.2116 27.5449 76.9044 19.7583 67.9511 14.1383C65.6092 12.6667 63.0668 11.5467 60.404 10.8139V10.8139Z" fill="black"/>
<path d="M30.2162 23.106C27.4777 24.0393 25.1454 25.9003 23.6169 28.3717C22.061 30.8983 21.2066 33.799 21.143 36.7714C21.147 38.8665 22.6675 45.1088 27.0999 45.1741C30.7236 45.2306 31.0466 40.1873 31.6308 38.4603C32.4098 36.1576 33.1921 33.8558 33.9775 31.5549C34.2359 30.8184 36.0775 21.6303 30.2162 23.106Z" fill="white"/>
<path d="M25.878 45.4718C21.9979 44.4248 20.659 38.8283 20.6745 36.7384C20.7291 33.6721 21.6084 30.6781 23.2186 28.075C24.8092 25.5087 27.2299 23.5734 30.0724 22.5953V22.5953C30.6928 22.3669 31.365 22.3212 32.0102 22.4638C32.6554 22.6064 33.2469 22.9313 33.7153 23.4003C35.928 25.8297 34.4449 31.6384 34.4319 31.6872L32.0853 38.5926C32.0047 38.8954 31.8929 39.3155 31.763 39.804C31.2609 42.0034 30.4072 45.7203 27.0881 45.6518C26.6792 45.6388 26.2731 45.5784 25.878 45.4718V45.4718ZM30.3585 23.552C27.748 24.4652 25.5246 26.2473 24.0551 28.6043C22.5414 31.0532 21.7133 33.8686 21.6584 36.7527C21.6539 38.3325 22.7473 43.6009 26.1424 44.5171C26.4695 44.6069 26.8071 44.6523 27.1462 44.6519C29.4963 44.6892 30.2528 42.2758 30.8653 39.5827C31.0005 39.0747 31.1252 38.6058 31.211 38.2834L33.5577 31.378C33.6877 30.8896 34.7208 25.9123 33.0463 24.0783C32.6925 23.7425 32.2497 23.5169 31.7714 23.4287C31.2931 23.3405 30.7997 23.3935 30.3507 23.5813L30.3585 23.552Z" fill="black"/>
<path d="M77.8349 35.9556C79.7431 38.1428 80.839 40.9289 80.9357 43.8389C81.0288 46.8105 80.3286 49.7528 78.908 52.359C77.8643 54.1714 73.4484 58.8117 69.5774 56.6363C66.4111 54.8605 68.6353 50.3303 68.9867 48.5405C69.4553 46.1541 69.9142 43.765 70.3828 41.3786C70.5247 40.6107 73.4915 31.7262 77.8349 35.9556Z" fill="white"/>
<path d="M70.4888 57.5104C70.0872 57.4003 69.6998 57.243 69.3346 57.0419C66.4049 55.3928 67.5128 51.7759 68.1894 49.6236C68.3194 49.1351 68.4311 48.7151 68.5117 48.4122L69.9078 41.2503C69.9078 41.2503 71.5255 35.4047 74.6427 34.4345C75.2812 34.2642 75.9547 34.2807 76.5843 34.4821C77.2139 34.6835 77.7734 35.0615 78.1972 35.5717C80.1734 37.8501 81.3088 40.7451 81.4122 43.7684C81.5093 46.8331 80.7846 49.8674 79.3143 52.5523C78.3069 54.385 74.3882 58.5627 70.4888 57.5104ZM76.0305 35.3534C75.6695 35.2521 75.2867 35.2619 74.9314 35.3814C72.5706 36.1265 70.9652 40.9493 70.8643 41.4456L69.4682 48.6075C69.3747 48.9592 69.2577 49.3988 69.1225 49.9068C68.316 52.5475 67.7632 55.0159 69.8267 56.1696C73.4468 58.1935 77.6286 53.5737 78.4816 52.0868C79.8659 49.5615 80.5466 46.7063 80.4515 43.8233C80.3491 41.0421 79.3083 38.3792 77.501 36.2738C77.0887 35.8585 76.5809 35.5524 76.0227 35.3827L76.0305 35.3534Z" fill="black"/>
<path d="M26.5901 42.7539C26.5717 42.7429 26.5557 42.7284 26.543 42.7111C26.5303 42.6938 26.5211 42.6742 26.516 42.6533C26.5109 42.6325 26.51 42.6108 26.5133 42.5896C26.5166 42.5683 26.5241 42.548 26.5353 42.5297C29.596 37.1736 31.1591 31.0826 31.0586 24.9037C31.0583 24.8816 31.0625 24.8597 31.0709 24.8393C31.0793 24.8189 31.0918 24.8004 31.1076 24.7851C31.1233 24.7697 31.1421 24.7578 31.1626 24.75C31.1831 24.7422 31.205 24.7387 31.227 24.7398C31.2483 24.7392 31.2695 24.7428 31.2895 24.7505C31.3094 24.7582 31.3275 24.7699 31.3429 24.7848C31.3583 24.7996 31.3707 24.8174 31.3792 24.8372C31.3876 24.8569 31.3921 24.8781 31.3924 24.8996C31.4606 31.1368 29.8522 37.2765 26.7376 42.6681C26.7227 42.6941 26.7011 42.7158 26.6752 42.7308C26.6493 42.7459 26.62 42.7538 26.5901 42.7539V42.7539Z" fill="black"/>
<path d="M71.5848 55.0321C71.5501 55.0222 71.5194 55.0015 71.4971 54.9729C71.4748 54.9443 71.4621 54.9094 71.4608 54.873C71.4203 48.6951 73.6366 42.5922 75.6154 37.1476C75.6316 37.1066 75.6628 37.0735 75.7025 37.0549C75.7423 37.0364 75.7876 37.034 75.829 37.0482C75.8488 37.0561 75.8669 37.0679 75.8821 37.083C75.8973 37.098 75.9094 37.1159 75.9177 37.1357C75.926 37.1555 75.9303 37.1767 75.9304 37.1981C75.9304 37.2196 75.9262 37.2409 75.9181 37.2607C73.9697 42.6297 71.7611 48.7033 71.8076 54.82C71.8079 54.8421 71.8037 54.8641 71.7953 54.8845C71.7869 54.9049 71.7744 54.9233 71.7586 54.9387C71.7428 54.9541 71.7241 54.966 71.7035 54.9738C71.683 54.9816 71.6611 54.9851 71.6392 54.984L71.5848 55.0321Z" fill="black"/>
<g opacity="0.13">
<path opacity="0.13" d="M50.3422 65.9135C50.25 65.9407 50.1549 65.957 50.0588 65.9621L50.0006 65.9463C48.5802 66.0583 47.1506 65.9017 45.786 65.4845C43.9998 65.0375 42.2831 64.3446 40.6846 63.4256C40.0168 62.9631 39.5359 62.071 38.6322 62.0666C38.3547 62.0758 38.0859 62.1651 37.858 62.3238C37.6301 62.4825 37.4527 62.7039 37.347 62.9616C37.2413 63.2192 37.2119 63.5022 37.2621 63.7767C37.3124 64.0512 37.4402 64.3056 37.6303 64.5095C38.6672 65.6156 39.9428 66.468 41.3585 67.0006C43.553 67.8625 45.8499 68.4314 48.1902 68.6925C50.0054 68.8287 51.712 68.9042 52.0854 67.5752C52.1326 67.3391 52.1192 67.0946 52.0465 66.8648C51.9739 66.635 51.8443 66.4273 51.6701 66.2612C51.4958 66.0951 51.2826 65.976 51.0503 65.9152C50.818 65.8544 50.5744 65.8538 50.3422 65.9135Z" fill="black"/>
</g>
<g opacity="0.13">
<path opacity="0.13" d="M76.8232 52.6957C75.8008 53.4625 74.6476 54.0354 73.4199 54.3865C72.5821 54.4823 71.7331 54.3673 70.9491 54.0519C70.7721 53.9725 70.6023 53.8776 70.4417 53.7682L70.3931 53.7551C70.0734 53.47 70.2235 53.3748 69.4972 52.7393C69.2364 52.5777 68.9262 52.5172 68.6248 52.5691C68.3234 52.621 68.0516 52.7817 67.8604 53.0212C67.6691 53.2606 67.5717 53.5622 67.5862 53.8694C67.6008 54.1766 67.7265 54.4682 67.9396 54.6895C68.4107 55.3375 69.0299 55.8623 69.7448 56.2196C70.4596 56.5768 71.249 56.7559 72.0462 56.7417C73.4241 56.8491 74.7995 56.5199 75.9791 55.8004C76.6209 55.4203 77.286 55.1093 77.9 54.6381C78.048 54.5611 78.1789 54.4547 78.2847 54.3253C78.3906 54.196 78.4692 54.0463 78.5158 53.8854C78.569 53.6676 78.5553 53.4385 78.4764 53.2283C78.3975 53.0181 78.2573 52.8366 78.074 52.7078C77.8908 52.579 77.6732 52.5089 77.4499 52.5068C77.2266 52.5046 77.0081 52.5705 76.8232 52.6957V52.6957Z" fill="black"/>
</g>
<g opacity="0.13">
<path opacity="0.13" d="M30.1829 42.8594C30.1469 42.5644 30.0044 42.2926 29.7823 42.0958C29.5602 41.899 29.2742 41.7908 28.9785 41.7919C28.0993 41.9299 28.5438 42.0189 27.6911 42.1745C27.3464 42.204 26.9995 42.1976 26.6559 42.1554L26.5395 42.1239C26.1819 42.0484 25.8287 41.9528 25.4816 41.8376C24.7543 41.6463 24.0943 41.2542 23.5765 40.7057C23.1899 40.3016 22.7636 39.9377 22.3042 39.6198C22.0743 39.5322 21.822 39.5248 21.5879 39.5987C21.3537 39.6725 21.1514 39.8235 21.0133 40.0271C20.8752 40.2308 20.8095 40.4754 20.8266 40.7217C20.8438 40.9679 20.9428 41.2015 21.1078 41.3848C22.8365 43.2208 25.1687 44.7816 27.767 44.5553C28.7303 44.4923 30.3774 44.1653 30.1829 42.8594Z" fill="black"/>
</g>
<g opacity="0.13">
<path opacity="0.13" d="M48.4059 60.1748C48.1248 60.0447 47.8132 59.9965 47.5067 60.0359C46.8837 60.0792 46.2578 60.0055 45.661 59.8183C44.6323 59.54 43.6424 59.1155 42.6519 58.7327C42.3414 58.6487 42.0353 58.4301 41.6815 58.4701C41.4339 58.4803 41.1991 58.582 41.0222 58.7558C40.8453 58.9296 40.7388 59.1632 40.7232 59.4116C40.7077 59.66 40.7841 59.9056 40.9378 60.1014C41.0916 60.2971 41.3117 60.429 41.556 60.4718C43.5927 61.263 45.6391 62.2134 47.8728 62.0662C48.1002 62.0788 48.3248 62.0135 48.5099 61.8809C48.695 61.7483 48.8295 61.5564 48.8915 61.3365C48.9535 61.1167 48.9392 60.882 48.8509 60.6709C48.7627 60.4598 48.6058 60.2849 48.4059 60.1748Z" fill="black"/>
</g>
<path d="M38.3458 86.3728C35.619 85.5957 33.1433 84.1096 31.1673 82.0639C29.1914 80.0181 27.7848 77.4846 27.089 74.7181C27.0818 74.6974 27.0792 74.6754 27.0813 74.6536C27.0834 74.6317 27.0901 74.6106 27.1011 74.5917C27.1121 74.5728 27.127 74.5565 27.1448 74.5439C27.1626 74.5313 27.1829 74.5228 27.2044 74.5189C27.2482 74.5111 27.2934 74.5199 27.3312 74.5436C27.3691 74.5674 27.3969 74.6044 27.4093 74.6475C28.0549 77.3839 29.4262 79.8925 31.3768 81.9055C33.3274 83.9185 35.784 85.3604 38.4846 86.0774C41.1853 86.7943 44.0285 86.7594 46.7109 85.9763C49.3933 85.1932 51.8144 83.6913 53.7156 81.631C53.7449 81.5986 53.7857 81.5794 53.8291 81.5773C53.8726 81.5753 53.915 81.5907 53.9472 81.6202C53.9793 81.6497 53.9985 81.6909 54.0005 81.7346C54.0025 81.7783 53.9872 81.8211 53.9579 81.8535C51.9918 83.9224 49.5179 85.4314 46.7866 86.2278C44.0552 87.0242 41.1634 87.0796 38.404 86.3885L38.3458 86.3728Z" fill="black"/>
</svg>
