<svg width="397" height="348" viewBox="0 0 397 348" fill="none" xmlns="http://www.w3.org/2000/svg">
<g clip-path="url(#clip0_2308_26240)">
<path d="M311.564 221.512C316.557 230.545 314.201 236.667 308.759 239.728C303.317 242.789 296.876 241.625 291.853 232.592C286.831 223.56 290.555 207.01 290.555 207.01C290.555 207.01 306.532 212.48 311.564 221.512Z" fill="#75BAB3"/>
<path d="M374.793 210.081C370.669 219.967 364.169 221.914 358.217 219.405C352.266 216.896 349.081 210.864 353.225 200.978C357.369 191.092 373.195 183.585 373.195 183.585C373.195 183.585 378.927 200.185 374.793 210.081Z" fill="#75BAB3"/>
<path d="M368.742 246.643C361.752 251.932 356.4 250.657 353.214 246.392C350.029 242.126 350.219 236.596 357.208 231.337C364.198 226.078 378.407 227.323 378.407 227.323C378.407 227.323 375.701 241.364 368.742 246.643Z" fill="#75BAB3"/>
<path d="M339.194 203.397C342.469 211.516 339.823 216.444 334.93 218.391C330.037 220.338 324.745 218.732 321.47 210.613C318.195 202.493 323.068 188.984 323.068 188.984C323.068 188.984 335.919 195.267 339.194 203.397Z" fill="#75BAB3"/>
<path d="M338.924 266.374C338.885 266.384 338.844 266.384 338.804 266.374C338.726 266.341 338.664 266.278 338.63 266.2C338.597 266.121 338.595 266.033 338.625 265.953C346.613 246.071 373.494 230.133 373.763 229.972C373.8 229.951 373.84 229.937 373.882 229.931C373.924 229.926 373.967 229.929 374.008 229.94C374.049 229.951 374.087 229.971 374.12 229.997C374.154 230.023 374.182 230.056 374.203 230.093C374.224 230.129 374.239 230.169 374.245 230.211C374.251 230.253 374.249 230.295 374.239 230.336C374.229 230.377 374.21 230.416 374.185 230.45C374.16 230.484 374.129 230.513 374.093 230.534C373.823 230.685 347.132 246.522 339.224 266.193C339.198 266.25 339.155 266.298 339.102 266.33C339.048 266.363 338.986 266.378 338.924 266.374Z" fill="#2F383C"/>
<path d="M340.214 266.375C340.171 266.369 340.131 266.354 340.094 266.332C340.058 266.31 340.026 266.281 340.001 266.246C339.976 266.212 339.958 266.172 339.948 266.131C339.938 266.089 339.937 266.046 339.944 266.004C343.139 245.76 370.998 189.336 371.248 188.955C371.296 188.883 371.37 188.833 371.454 188.816C371.538 188.799 371.626 188.816 371.697 188.864C371.769 188.912 371.819 188.987 371.835 189.071C371.852 189.156 371.835 189.244 371.787 189.316C371.488 189.818 343.828 245.519 340.583 266.104C340.568 266.188 340.522 266.264 340.453 266.314C340.384 266.365 340.298 266.387 340.214 266.375Z" fill="#2F383C"/>
<path d="M339.145 269.064H339.085C339.002 269.05 338.928 269.002 338.879 268.933C338.831 268.863 338.811 268.777 338.826 268.693C345.576 227.544 325.595 196.291 325.386 195.98C325.34 195.909 325.324 195.823 325.34 195.74C325.357 195.658 325.406 195.585 325.475 195.538C325.547 195.492 325.634 195.475 325.718 195.492C325.802 195.509 325.876 195.558 325.925 195.628C326.124 195.939 346.255 227.413 339.455 268.803C339.443 268.877 339.405 268.944 339.348 268.991C339.292 269.039 339.22 269.065 339.145 269.064Z" fill="#2F383C"/>
<path d="M333.383 233.726C337.507 239.998 336.099 244.565 332.325 247.074C328.55 249.583 323.807 249.081 319.683 242.819C315.559 236.556 317.407 224.342 317.407 224.342C317.407 224.342 329.239 227.443 333.383 233.726Z" fill="#75BAB3"/>
<path d="M336.039 270.901C335.997 270.898 335.956 270.887 335.919 270.869C335.881 270.85 335.847 270.824 335.819 270.793C335.791 270.761 335.77 270.724 335.756 270.684C335.743 270.644 335.737 270.602 335.74 270.56C336.399 255.987 332.115 245.7 328.421 239.628C326.243 235.908 323.439 232.597 320.133 229.842C320.066 229.79 320.021 229.715 320.008 229.63C319.995 229.546 320.015 229.46 320.063 229.391C320.088 229.357 320.12 229.329 320.157 229.307C320.193 229.286 320.233 229.272 320.275 229.266C320.317 229.261 320.359 229.264 320.4 229.275C320.441 229.286 320.479 229.305 320.512 229.33C323.881 232.117 326.737 235.476 328.95 239.256C332.704 245.409 337.048 255.836 336.379 270.59C336.374 270.676 336.335 270.756 336.272 270.815C336.209 270.873 336.125 270.904 336.039 270.901Z" fill="#2F383C"/>
<path d="M324.475 266.375C324.408 266.375 324.343 266.354 324.289 266.315C324.235 266.275 324.195 266.218 324.176 266.154C318.793 250.246 293.321 213.363 293.071 212.961C293.046 212.927 293.029 212.887 293.02 212.846C293.01 212.804 293.009 212.761 293.017 212.719C293.024 212.677 293.04 212.636 293.063 212.601C293.086 212.565 293.116 212.534 293.151 212.51C293.184 212.484 293.223 212.465 293.264 212.455C293.304 212.445 293.347 212.444 293.389 212.451C293.43 212.459 293.469 212.475 293.504 212.499C293.539 212.523 293.568 212.554 293.59 212.59C293.85 212.961 319.373 249.925 324.785 265.923C324.808 266.004 324.801 266.091 324.764 266.168C324.727 266.244 324.663 266.303 324.585 266.335L324.475 266.375Z" fill="#2F383C"/>
<path d="M365.336 201.67C365.262 201.668 365.19 201.641 365.132 201.594C365.075 201.546 365.034 201.482 365.016 201.409C364.607 199.241 363.648 194.173 363.648 193.922C363.648 193.837 363.682 193.755 363.742 193.695C363.802 193.634 363.883 193.601 363.968 193.601C364.052 193.6 364.133 193.633 364.194 193.69C364.255 193.748 364.292 193.827 364.297 193.912C364.297 194.223 365.126 198.488 365.656 201.288C365.668 201.373 365.648 201.459 365.6 201.53C365.552 201.601 365.479 201.651 365.396 201.67H365.336Z" fill="#2F383C"/>
<path d="M363.568 205.624C363.495 205.623 363.424 205.597 363.367 205.549C363.311 205.502 363.273 205.436 363.259 205.363C362.839 203.196 361.881 198.127 361.881 197.876C361.894 197.8 361.934 197.73 361.994 197.68C362.053 197.63 362.128 197.603 362.205 197.603C362.283 197.603 362.358 197.63 362.417 197.68C362.477 197.73 362.516 197.8 362.53 197.876C362.53 198.187 363.359 202.453 363.888 205.253C363.902 205.337 363.883 205.423 363.835 205.493C363.786 205.562 363.712 205.61 363.628 205.624H363.568Z" fill="#2F383C"/>
<path d="M361.402 210.431C361.328 210.429 361.258 210.401 361.202 210.351C361.146 210.302 361.11 210.235 361.098 210.162C361.086 210.088 361.1 210.013 361.137 209.948C361.175 209.884 361.233 209.835 361.303 209.809L371.328 206.256C371.367 206.242 371.409 206.236 371.451 206.239C371.492 206.241 371.533 206.252 371.57 206.271C371.607 206.29 371.641 206.316 371.668 206.348C371.695 206.38 371.715 206.417 371.727 206.457C371.741 206.497 371.747 206.54 371.745 206.582C371.743 206.625 371.732 206.667 371.713 206.705C371.695 206.743 371.669 206.777 371.637 206.805C371.605 206.834 371.568 206.855 371.528 206.869L361.472 210.421L361.402 210.431Z" fill="#2F383C"/>
<path d="M329.777 203.938H329.727L323.946 202.934C323.904 202.928 323.863 202.914 323.827 202.892C323.79 202.87 323.758 202.84 323.733 202.806C323.708 202.771 323.69 202.732 323.68 202.69C323.671 202.649 323.669 202.605 323.676 202.563C323.693 202.481 323.741 202.408 323.81 202.359C323.878 202.311 323.963 202.29 324.046 202.302L329.827 203.306C329.912 203.312 329.991 203.353 330.046 203.418C330.101 203.483 330.128 203.567 330.122 203.652C330.115 203.737 330.075 203.816 330.011 203.872C329.946 203.927 329.862 203.955 329.777 203.948V203.938Z" fill="#2F383C"/>
<path d="M330.957 206.669H330.897L325.126 205.665C325.084 205.66 325.043 205.647 325.007 205.626C324.971 205.605 324.939 205.577 324.913 205.543C324.888 205.509 324.87 205.47 324.86 205.429C324.85 205.388 324.849 205.345 324.856 205.304C324.862 205.261 324.876 205.221 324.898 205.184C324.92 205.147 324.949 205.115 324.984 205.09C325.018 205.065 325.057 205.047 325.099 205.037C325.14 205.027 325.183 205.026 325.225 205.033L331.007 206.036C331.049 206.042 331.089 206.057 331.125 206.079C331.161 206.101 331.192 206.131 331.217 206.166C331.241 206.2 331.258 206.24 331.267 206.282C331.275 206.323 331.275 206.366 331.267 206.408C331.255 206.481 331.217 206.548 331.16 206.596C331.103 206.644 331.031 206.67 330.957 206.669Z" fill="#2F383C"/>
<path d="M332.884 210.543C332.849 210.553 332.811 210.553 332.775 210.543C332.734 210.529 332.697 210.508 332.665 210.48C332.634 210.452 332.608 210.417 332.589 210.379C332.57 210.341 332.56 210.299 332.557 210.257C332.555 210.214 332.561 210.171 332.575 210.131L334.572 204.481C334.585 204.44 334.607 204.403 334.635 204.372C334.663 204.34 334.697 204.314 334.736 204.296C334.774 204.279 334.816 204.269 334.858 204.268C334.9 204.267 334.942 204.274 334.981 204.29C335.022 204.305 335.059 204.327 335.091 204.356C335.122 204.386 335.148 204.421 335.165 204.46C335.183 204.5 335.193 204.542 335.194 204.585C335.195 204.629 335.187 204.671 335.171 204.712L333.174 210.352C333.149 210.408 333.109 210.456 333.057 210.49C333.006 210.524 332.946 210.542 332.884 210.543Z" fill="#2F383C"/>
<path d="M334.062 213.824C334.026 213.834 333.988 213.834 333.952 213.824C333.912 213.811 333.875 213.789 333.844 213.761C333.812 213.733 333.787 213.698 333.769 213.659C333.751 213.621 333.741 213.579 333.74 213.537C333.739 213.494 333.747 213.452 333.763 213.412L335.76 207.762C335.773 207.722 335.794 207.685 335.823 207.653C335.851 207.621 335.885 207.596 335.923 207.578C335.962 207.56 336.003 207.55 336.046 207.549C336.088 207.548 336.13 207.555 336.169 207.571C336.209 207.585 336.246 207.606 336.278 207.635C336.309 207.663 336.335 207.697 336.353 207.736C336.37 207.774 336.38 207.816 336.381 207.859C336.382 207.901 336.375 207.943 336.359 207.983L334.362 213.633C334.336 213.691 334.294 213.74 334.241 213.774C334.187 213.808 334.125 213.825 334.062 213.824Z" fill="#2F383C"/>
<path d="M299.323 222.375L292.473 221.512C292.389 221.499 292.313 221.455 292.261 221.387C292.209 221.32 292.184 221.235 292.193 221.15C292.198 221.108 292.211 221.068 292.232 221.031C292.253 220.995 292.281 220.963 292.315 220.937C292.349 220.912 292.387 220.894 292.428 220.884C292.469 220.874 292.511 220.872 292.553 220.879L299.403 221.732C299.486 221.745 299.562 221.79 299.614 221.857C299.667 221.924 299.691 222.009 299.682 222.094C299.677 222.136 299.664 222.177 299.643 222.214C299.622 222.251 299.594 222.284 299.561 222.31C299.528 222.336 299.489 222.355 299.448 222.366C299.407 222.378 299.365 222.38 299.323 222.375Z" fill="#2F383C"/>
<path d="M306.713 233.787L296.438 232.592C296.393 232.592 296.348 232.583 296.307 232.564C296.265 232.545 296.229 232.518 296.199 232.483C296.169 232.449 296.146 232.409 296.133 232.365C296.12 232.322 296.116 232.276 296.122 232.231C296.127 232.186 296.143 232.142 296.166 232.103C296.19 232.065 296.222 232.031 296.259 232.006C296.297 231.98 296.339 231.963 296.384 231.955C296.428 231.947 296.474 231.949 296.518 231.96L306.793 233.134C306.869 233.148 306.938 233.188 306.988 233.248C307.038 233.307 307.065 233.383 307.065 233.461C307.065 233.539 307.038 233.614 306.988 233.674C306.938 233.733 306.869 233.773 306.793 233.787H306.713Z" fill="#2F383C"/>
<path d="M302.539 226.47C302.455 226.457 302.379 226.413 302.327 226.346C302.275 226.278 302.251 226.193 302.26 226.109L303.258 218.461C303.263 218.419 303.276 218.378 303.297 218.342C303.318 218.305 303.346 218.273 303.38 218.248C303.413 218.222 303.452 218.204 303.493 218.194C303.534 218.184 303.576 218.183 303.618 218.19C303.659 218.194 303.7 218.206 303.737 218.226C303.773 218.246 303.806 218.273 303.832 218.306C303.858 218.338 303.877 218.376 303.889 218.417C303.9 218.457 303.903 218.5 303.897 218.541L302.899 226.189C302.894 226.231 302.88 226.272 302.86 226.309C302.839 226.346 302.811 226.379 302.777 226.405C302.744 226.431 302.706 226.45 302.665 226.462C302.624 226.473 302.581 226.476 302.539 226.47Z" fill="#2F383C"/>
<path d="M304.425 229.772C304.383 229.767 304.342 229.753 304.305 229.733C304.268 229.712 304.236 229.684 304.21 229.65C304.184 229.616 304.165 229.578 304.154 229.537C304.143 229.496 304.14 229.453 304.145 229.41L305.144 221.773C305.149 221.731 305.163 221.69 305.184 221.653C305.204 221.616 305.232 221.584 305.266 221.557C305.299 221.531 305.337 221.512 305.378 221.501C305.419 221.49 305.461 221.486 305.503 221.492C305.545 221.497 305.586 221.511 305.623 221.532C305.659 221.553 305.692 221.581 305.718 221.614C305.744 221.648 305.763 221.686 305.774 221.727C305.785 221.768 305.788 221.811 305.783 221.853L304.784 229.491C304.779 229.533 304.766 229.574 304.745 229.611C304.725 229.648 304.697 229.681 304.663 229.707C304.63 229.733 304.591 229.752 304.551 229.763C304.51 229.775 304.467 229.777 304.425 229.772Z" fill="#2F383C"/>
<path d="M325.715 235.714L320.872 235.634C320.788 235.634 320.706 235.6 320.646 235.539C320.586 235.479 320.553 235.398 320.553 235.312C320.555 235.228 320.59 235.148 320.649 235.088C320.709 235.028 320.788 234.994 320.872 234.991L325.715 235.071C325.758 235.071 325.8 235.08 325.84 235.097C325.879 235.114 325.915 235.138 325.945 235.169C325.975 235.2 325.998 235.237 326.013 235.277C326.029 235.317 326.036 235.36 326.035 235.403C326.032 235.486 325.997 235.565 325.938 235.623C325.878 235.681 325.798 235.714 325.715 235.714Z" fill="#2F383C"/>
<path d="M329.22 240.32C329.134 240.315 329.054 240.276 328.996 240.213C328.938 240.149 328.908 240.065 328.91 239.979L329.24 233.686C329.245 233.604 329.28 233.526 329.34 233.468C329.399 233.411 329.477 233.377 329.559 233.375C329.602 233.376 329.644 233.386 329.683 233.404C329.722 233.422 329.757 233.448 329.786 233.48C329.815 233.511 329.837 233.549 329.851 233.589C329.866 233.63 329.872 233.673 329.869 233.716L329.549 240.009C329.544 240.093 329.507 240.173 329.446 240.23C329.385 240.288 329.304 240.32 329.22 240.32Z" fill="#2F383C"/>
<path d="M366.625 235.473H366.555C366.512 235.46 366.473 235.439 366.439 235.411C366.405 235.383 366.376 235.348 366.356 235.309C366.335 235.27 366.323 235.227 366.319 235.182C366.316 235.138 366.321 235.094 366.335 235.051L367.334 229.802C367.351 229.719 367.4 229.645 367.472 229.598C367.543 229.551 367.63 229.534 367.713 229.552C367.796 229.569 367.87 229.619 367.916 229.69C367.963 229.762 367.98 229.849 367.963 229.933L366.964 235.172C366.963 235.215 366.953 235.257 366.935 235.295C366.917 235.334 366.891 235.368 366.859 235.397C366.828 235.425 366.79 235.446 366.75 235.459C366.709 235.473 366.667 235.477 366.625 235.473Z" fill="#2F383C"/>
<path d="M364.047 237.169H363.987C363.905 237.15 363.833 237.099 363.787 237.028C363.74 236.957 363.723 236.871 363.738 236.787L364.736 231.538C364.755 231.456 364.805 231.383 364.876 231.337C364.947 231.29 365.032 231.272 365.116 231.287C365.158 231.295 365.198 231.31 365.235 231.334C365.271 231.357 365.302 231.387 365.326 231.423C365.35 231.458 365.367 231.499 365.376 231.541C365.384 231.583 365.384 231.627 365.375 231.669L364.337 236.908C364.325 236.978 364.291 237.042 364.238 237.09C364.185 237.137 364.118 237.165 364.047 237.169Z" fill="#2F383C"/>
<path d="M366.863 243.381H366.773L359.064 241.203C359.024 241.192 358.986 241.172 358.953 241.145C358.92 241.119 358.892 241.086 358.872 241.048C358.852 241.011 358.839 240.97 358.834 240.928C358.829 240.886 358.833 240.843 358.845 240.802C358.857 240.761 358.876 240.723 358.903 240.69C358.929 240.657 358.962 240.629 358.999 240.608C359.036 240.588 359.077 240.575 359.119 240.57C359.161 240.566 359.204 240.569 359.244 240.581L366.953 242.759C367.029 242.779 367.096 242.826 367.14 242.892C367.184 242.958 367.202 243.037 367.191 243.116C367.18 243.194 367.14 243.266 367.079 243.317C367.019 243.368 366.942 243.394 366.863 243.391V243.381Z" fill="#2F383C"/>
<path d="M356.03 257.934H314.631V298.059H356.03V257.934Z" fill="#995F5F"/>
<path d="M356.051 288.424H314.611V293.181H356.051V288.424Z" fill="#351F1E"/>
<path d="M360.343 301.09H310.316L308.1 291.927H362.56L360.343 301.09Z" fill="#995F5F"/>
<path d="M139.447 261.427C126.282 249.329 114.554 235.739 104.498 220.93C102.002 217.257 99.5058 213.132 99.9452 208.706C100.345 206.218 101.224 203.831 102.531 201.681C112.115 183.525 123.353 166.303 136.102 150.234C140.985 158.073 145.389 165.018 149.353 173.318C150.411 175.556 149.183 170.839 149.353 173.318C149.752 179.249 128.383 203.748 125.468 208.947C120.086 218.632 140.236 226.119 141.235 237.169C142.233 248.219 142.842 250.869 139.447 261.427Z" fill="#F5BA9C"/>
<path d="M227.657 261.427C240.82 249.326 252.547 235.737 262.606 220.93C265.102 217.257 267.599 213.132 267.159 208.706C266.755 206.219 265.877 203.833 264.573 201.681C254.99 183.525 243.752 166.303 231.002 150.234C226.11 158.073 221.716 165.018 217.752 173.318C216.683 175.556 217.912 170.839 217.752 173.318C217.352 179.249 238.721 203.748 241.637 208.947C247.019 218.632 226.868 226.119 225.87 237.169C224.871 248.219 224.262 250.869 227.657 261.427Z" fill="#F5BA9C"/>
<path d="M135.673 121.851C135.942 120.727 135.902 118.539 136.671 117.656C136.871 118.971 137.34 120.667 137.54 121.951C140.645 123.165 143.9 123.945 147.216 124.27C147.286 123.688 147.356 123.116 147.406 122.554C147.406 123.106 147.336 123.688 147.316 124.28C150.152 124.571 154.655 125.193 157.391 124.902C157.359 123.396 157.533 121.894 157.91 120.436C158.281 122.027 158.827 123.572 159.538 125.043C165.759 125.605 172.049 126.337 178.31 126.97C197.462 108.844 190.183 72.9641 184.831 46.8194C182.235 44.0494 177.841 43.9691 174.186 44.8121C165.529 46.8796 158.21 53.1523 153.726 60.8703C149.243 68.5882 147.416 77.6611 147.276 86.6034C142.283 87.025 140.186 90.8789 139.887 94.221C139.747 95.7566 140.765 98.7273 142.053 99.5704C138.858 98.6571 135.383 101.156 133.067 103.585C129.089 107.972 126.654 113.55 126.137 119.462C129.215 120.619 132.414 121.42 135.673 121.851Z" fill="#2F383C"/>
<path d="M232.611 121.851C232.351 120.727 232.391 118.539 231.672 117.656C231.463 118.971 231.003 120.667 230.794 121.951C227.693 123.166 224.44 123.946 221.128 124.27C221.048 123.688 220.978 123.116 220.938 122.554C220.938 123.106 221.008 123.688 221.028 124.28C218.182 124.571 213.689 125.193 210.943 124.902C210.984 123.397 210.813 121.893 210.433 120.436C210.053 122.025 209.507 123.569 208.806 125.043C202.575 125.605 196.284 126.337 190.033 126.97C170.871 108.844 178.161 72.9641 183.513 46.8194C186.099 44.0494 190.503 43.9691 194.157 44.8121C202.805 46.8796 210.134 53.1523 214.617 60.8703C219.101 68.5882 220.928 77.6611 221.068 86.6034C226.061 87.025 228.148 90.8789 228.457 94.221C228.597 95.7566 227.568 98.7273 226.29 99.5704C229.476 98.6571 232.961 101.156 235.227 103.585C239.212 107.968 241.651 113.548 242.167 119.462C239.082 120.621 235.876 121.422 232.611 121.851Z" fill="#2F383C"/>
<path d="M209.565 134.105L183.303 145.798L157.052 135.099C157.052 135.099 130.581 142.125 118.039 163.612L136.752 179.67C136.752 179.67 132.648 190.921 139.508 212.208C146.158 232.843 132.098 284.099 132.098 284.099C139.737 286.359 147.521 288.093 155.394 289.287C163.491 290.628 171.683 291.3 179.888 291.295H186.728C194.934 291.3 203.126 290.628 211.223 289.287C219.099 288.106 226.886 286.386 234.528 284.139C234.528 284.139 219.55 233.214 226.041 211.435C233.101 187.72 229.875 179.711 229.875 179.711L247.509 167.436C235.966 144.724 209.565 134.105 209.565 134.105Z" fill="#75BAB3"/>
<path d="M137.43 179.68C142.879 167.963 145.172 155.012 144.08 142.124C144.08 141.522 143.081 141.512 143.131 142.124C144.234 154.863 141.985 167.669 136.611 179.259C136.351 179.801 137.17 180.262 137.43 179.731V179.68Z" fill="#2F383C"/>
<path d="M230.624 178.707C224.336 166.972 221.136 153.816 221.328 140.488C221.328 140.363 221.278 140.243 221.19 140.155C221.102 140.066 220.983 140.017 220.859 140.017C220.734 140.017 220.615 140.066 220.527 140.155C220.439 140.243 220.389 140.363 220.389 140.488C220.193 153.984 223.434 167.307 229.806 179.188C230.095 179.73 230.914 179.249 230.624 178.707Z" fill="#2F383C"/>
<path d="M164.63 223.137C174.334 226.806 184.664 228.511 195.026 228.156C195.635 228.156 195.635 227.152 195.026 227.152C184.75 227.513 174.505 225.828 164.88 222.194C164.311 221.973 164.071 222.897 164.63 223.107V223.137Z" fill="#2F383C"/>
<path d="M172.029 230.394L192 232.241C192.609 232.301 192.609 231.348 192 231.298L172.029 229.451C171.42 229.391 171.43 230.344 172.029 230.394Z" fill="#2F383C"/>
<path d="M174.396 126.658L157.021 135.119C157.021 135.119 160.786 157.199 183.842 157.932C206.898 158.664 209.565 134.105 209.565 134.105C209.565 134.105 197.991 129.378 193.318 126.638C187.477 123.226 174.396 126.658 174.396 126.658Z" fill="#F5BA9C"/>
<path d="M216.846 87.0561C218.695 83.0117 217.403 78.4441 213.961 76.8541C210.518 75.2641 206.228 77.2537 204.379 81.2981C202.53 85.3425 203.822 89.9101 207.265 91.5001C210.707 93.0901 214.997 91.1005 216.846 87.0561Z" fill="#F5BA9C"/>
<path d="M149.713 87.0653C151.56 91.0798 155.844 93.0871 159.289 91.5114C162.734 89.9357 164.022 85.3491 162.175 81.3044C160.327 77.2598 156.034 75.2826 152.599 76.8684C149.164 78.4541 147.856 83.0206 149.713 87.0653Z" fill="#F5BA9C"/>
<path d="M181.954 142.717C179.45 142.715 177.048 141.713 175.277 139.933C173.507 138.153 172.51 135.74 172.508 133.223V104.579H191.4V133.163C191.408 134.414 191.17 135.656 190.698 136.814C190.227 137.973 189.533 139.027 188.655 139.915C187.777 140.803 186.733 141.508 185.583 141.989C184.433 142.47 183.2 142.717 181.954 142.717Z" fill="#F5BA9C"/>
<path d="M172.508 110.139C172.508 110.139 179.637 116.672 191.4 113.15V121.851C191.4 121.851 179.557 120.988 172.508 113.069V110.139Z" fill="#2F383C"/>
<path d="M160.376 62.526C159.049 66.4614 158.401 70.5955 158.459 74.7503C158.459 93.4078 167.575 115.689 183.162 115.689C199.958 115.689 207.866 93.4078 207.866 74.7503C207.919 70.5959 207.271 66.4626 205.949 62.526L185.599 49.2881L160.376 62.526Z" fill="#F5BA9C"/>
<path d="M180.827 84.2756C180.82 84.4998 180.859 84.723 180.942 84.9312C181.026 85.1393 181.151 85.3277 181.311 85.4844C181.47 85.6412 181.661 85.7627 181.87 85.8415C182.079 85.9202 182.302 85.9543 182.525 85.9416C183.027 85.8288 183.538 85.755 184.052 85.7208C184.462 85.7695 184.849 85.9329 185.171 86.1925C185.497 86.4324 185.736 86.774 185.85 87.1641C185.963 87.5543 185.946 87.9712 185.8 88.3503C185.641 88.7277 185.372 89.0473 185.027 89.2661C184.683 89.485 184.28 89.5927 183.873 89.5748C183.343 89.5748 182.874 89.2837 182.385 89.5748C182.162 89.6992 181.979 89.8856 181.859 90.1117C181.738 90.3377 181.685 90.5938 181.706 90.8494C181.766 91.3612 182.574 91.3713 182.515 90.8494C182.498 90.7557 182.506 90.6594 182.538 90.5697C182.569 90.48 182.623 90.4001 182.694 90.3375C182.781 90.2779 182.882 90.2412 182.986 90.2307C183.091 90.2202 183.197 90.2362 183.293 90.2773C183.72 90.3828 184.165 90.3828 184.592 90.2773C185.005 90.1722 185.391 89.9764 185.721 89.704C186.05 89.4316 186.316 89.0893 186.499 88.7016C186.656 88.2989 186.72 87.8649 186.683 87.4337C186.646 87.0024 186.511 86.5854 186.288 86.2153C186.065 85.8452 185.759 85.5319 185.396 85.2999C185.032 85.0679 184.62 84.9234 184.192 84.8778C183.65 84.874 183.109 84.9414 182.584 85.0785C182.463 85.1021 182.339 85.0973 182.22 85.0644C182.101 85.0314 181.991 84.9713 181.899 84.8887C181.808 84.8061 181.736 84.7032 181.69 84.5881C181.644 84.473 181.626 84.3489 181.636 84.2254C181.636 83.7035 180.857 83.7035 180.827 84.2254V84.2756Z" fill="#EC766E"/>
<path d="M188.375 99.7909C188.219 99.4469 187.961 99.1597 187.636 98.9679C187.332 98.7983 186.986 98.7184 186.638 98.737C186.275 98.773 185.933 98.9234 185.66 99.1668C185.388 99.4101 185.199 99.734 185.12 100.092C185.033 100.503 185.089 100.932 185.28 101.306C185.307 101.351 185.344 101.39 185.386 101.421C185.429 101.451 185.478 101.473 185.529 101.484C185.58 101.496 185.633 101.496 185.685 101.486C185.736 101.476 185.786 101.456 185.829 101.427C185.917 101.369 185.98 101.279 186.002 101.176C186.024 101.072 186.005 100.964 185.949 100.875C185.949 100.805 185.949 100.945 185.949 100.875V100.794V100.694C185.949 100.754 185.949 100.694 185.949 100.694C185.944 100.634 185.944 100.574 185.949 100.513C185.949 100.453 185.949 100.584 185.949 100.513C185.949 100.443 185.949 100.443 185.949 100.413C185.949 100.383 185.949 100.293 185.949 100.232C185.949 100.172 185.949 100.232 185.949 100.232C185.945 100.202 185.945 100.172 185.949 100.142C185.973 100.085 186.003 100.032 186.039 99.9815C186.039 99.9113 185.979 100.042 186.039 99.9815L186.099 99.9113C186.117 99.883 186.141 99.8591 186.169 99.841C186.169 99.841 186.249 99.7808 186.169 99.841C186.089 99.9012 186.169 99.841 186.169 99.841L186.249 99.7909H186.328H186.418C186.468 99.7909 186.418 99.7909 186.418 99.7909C186.418 99.7909 186.558 99.7909 186.598 99.7909C186.628 99.7858 186.658 99.7858 186.688 99.7909C186.688 99.7909 186.608 99.7909 186.688 99.7909H186.748H186.918C186.918 99.7909 187.027 99.7909 186.977 99.7909C187.047 99.8182 187.114 99.8518 187.177 99.8912L187.267 99.9715L187.337 100.042V100.122C187.337 100.122 187.417 100.273 187.337 100.122C187.375 100.22 187.445 100.302 187.537 100.353C187.636 100.393 187.747 100.393 187.846 100.353C187.946 100.316 188.028 100.243 188.076 100.148C188.124 100.053 188.135 99.9435 188.106 99.841L188.375 99.7909Z" fill="#EC766E"/>
<path d="M176.502 90.7789C176.502 91.9005 176.171 92.9968 175.551 93.9293C174.932 94.8618 174.05 95.5886 173.019 96.0178C171.989 96.447 170.854 96.5593 169.76 96.3405C168.665 96.1217 167.66 95.5816 166.871 94.7886C166.082 93.9956 165.545 92.9852 165.327 91.8852C165.109 90.7852 165.221 89.6451 165.648 88.6089C166.075 87.5728 166.798 86.6871 167.726 86.0641C168.654 85.441 169.745 85.1084 170.86 85.1084C172.357 85.1084 173.792 85.7058 174.85 86.7693C175.908 87.8327 176.502 89.275 176.502 90.7789Z" fill="#EF9780"/>
<path d="M201.715 91.3102C201.715 92.4317 201.384 93.528 200.764 94.4606C200.144 95.3931 199.263 96.1199 198.232 96.5491C197.201 96.9783 196.067 97.0906 194.973 96.8718C193.878 96.653 192.873 96.1129 192.084 95.3199C191.295 94.5268 190.758 93.5164 190.54 92.4165C190.322 91.3165 190.434 90.1763 190.861 89.1402C191.288 88.104 192.011 87.2184 192.939 86.5953C193.867 85.9722 194.958 85.6396 196.073 85.6396C197.57 85.6396 199.005 86.2371 200.063 87.3005C201.121 88.3639 201.715 89.8063 201.715 91.3102Z" fill="#EF9780"/>
<path d="M176.423 72.3214C176.423 72.3214 173.128 63.3891 164.041 75.9947L176.423 72.3214Z" fill="#2F383C"/>
<path d="M190.043 72.3214C190.043 72.3214 193.338 63.3891 202.425 75.9947L190.043 72.3214Z" fill="#2F383C"/>
<path d="M174.186 81.3349C174.157 81.7843 173.997 82.2153 173.728 82.5748C173.458 82.9343 173.089 83.2065 172.667 83.3581C172.245 83.5096 171.788 83.5338 171.353 83.4276C170.917 83.3215 170.522 83.0896 170.216 82.7606C169.91 82.4316 169.707 82.0198 169.631 81.576C169.555 81.1322 169.61 80.6757 169.789 80.2628C169.968 79.8499 170.263 79.4986 170.638 79.2522C171.013 79.0057 171.451 78.875 171.899 78.876C172.526 78.8995 173.118 79.1713 173.547 79.6319C173.975 80.0925 174.205 80.7047 174.186 81.3349Z" fill="#2F383C"/>
<path d="M175.794 84.1345C175.284 83.5624 173.796 83.1309 172.009 83.1309C170.222 83.1309 168.734 83.5423 168.225 84.1345H175.794Z" fill="#2F383C"/>
<path d="M197.004 81.5549C196.973 82.0037 196.812 82.4336 196.541 82.7917C196.27 83.1498 195.901 83.4205 195.479 83.5705C195.057 83.7205 194.6 83.7434 194.165 83.6362C193.731 83.529 193.337 83.2964 193.032 82.9671C192.727 82.6378 192.524 82.2261 192.449 81.7826C192.373 81.3392 192.429 80.8832 192.608 80.4709C192.787 80.0586 193.082 79.7078 193.457 79.4618C193.831 79.2157 194.269 79.0851 194.717 79.0859C195.029 79.0963 195.335 79.1685 195.619 79.2983C195.903 79.4282 196.159 79.6131 196.371 79.8426C196.584 80.072 196.749 80.3414 196.857 80.6353C196.966 80.9291 197.016 81.2416 197.004 81.5549Z" fill="#2F383C"/>
<path d="M198.761 84.1345C198.251 83.5624 196.763 83.1309 194.976 83.1309C193.189 83.1309 191.691 83.5423 191.182 84.1345H198.761Z" fill="#2F383C"/>
<path d="M189.874 93.5389C189.874 93.5389 182.634 101.207 177.682 94.5425C177.682 94.5425 182.045 93.1274 189.874 93.5389Z" fill="white"/>
<path d="M152.278 80.7025C152.727 80.6688 153.178 80.7289 153.602 80.8792C154.027 81.0295 154.416 81.2667 154.745 81.5757C155.424 82.0892 156.006 82.7216 156.462 83.4424C157.439 85.0591 157.873 86.9485 157.7 88.8319C157.7 89.2936 158.389 89.2936 158.419 88.8319C158.599 86.7048 158.049 84.5799 156.861 82.8101C156.326 82.0221 155.648 81.3414 154.864 80.8029C154.479 80.4819 154.031 80.2456 153.55 80.109C153.068 79.9725 152.564 79.9387 152.069 80.01C151.986 80.0429 151.919 80.1051 151.879 80.1847C151.84 80.2644 151.831 80.3559 151.855 80.4417C151.878 80.5275 151.932 80.6015 152.007 80.6497C152.081 80.6978 152.171 80.7166 152.258 80.7025H152.278Z" fill="#2F383C"/>
<path d="M156.703 83.6629C155.997 84.1455 155.433 84.8102 155.071 85.5872C154.71 86.3643 154.562 87.225 154.646 88.0789C154.648 88.1739 154.687 88.2643 154.754 88.3315C154.821 88.3988 154.911 88.4376 155.005 88.4402C155.052 88.4402 155.099 88.4308 155.143 88.4127C155.186 88.3945 155.226 88.3679 155.259 88.3344C155.293 88.3008 155.319 88.261 155.337 88.2171C155.355 88.1733 155.365 88.1263 155.365 88.0789C155.282 87.3501 155.396 86.6122 155.694 85.9429C155.993 85.2736 156.465 84.6975 157.062 84.2751C157.442 84.0242 157.062 83.3919 156.703 83.6629Z" fill="#2F383C"/>
<path d="M215.475 80.4918C214.99 80.4235 214.496 80.456 214.024 80.5872C213.551 80.7184 213.111 80.9455 212.729 81.2546C211.952 81.8012 211.276 82.4806 210.732 83.2618C209.537 85.0509 208.987 87.1972 209.174 89.3438C209.174 89.7955 209.923 89.8055 209.893 89.3438C209.72 87.4603 210.154 85.5707 211.132 83.9543C211.574 83.2497 212.139 82.631 212.799 82.1277C213.132 81.8063 213.527 81.5582 213.96 81.3992C214.394 81.2402 214.855 81.1739 215.315 81.2044C215.403 81.2185 215.492 81.1996 215.567 81.1515C215.641 81.1034 215.696 81.0293 215.719 80.9435C215.743 80.8578 215.734 80.7663 215.694 80.6866C215.655 80.607 215.587 80.5447 215.505 80.5119L215.475 80.4918Z" fill="#2F383C"/>
<path d="M210.503 84.7464C211.101 85.1673 211.575 85.7432 211.874 86.4129C212.173 87.0826 212.286 87.8212 212.2 88.5502C212.2 88.646 212.238 88.7379 212.306 88.8057C212.373 88.8734 212.465 88.9115 212.56 88.9115C212.654 88.909 212.744 88.8701 212.811 88.8029C212.878 88.7356 212.917 88.6452 212.919 88.5502C213.001 87.6961 212.855 86.8354 212.495 86.0573C212.135 85.2792 211.575 84.6118 210.872 84.1242C210.483 83.8632 210.123 84.4855 210.503 84.7464Z" fill="#2F383C"/>
<path d="M193.588 91.7025L195.315 88.812C195.353 88.7303 195.359 88.6374 195.332 88.5515C195.305 88.4656 195.247 88.3929 195.17 88.3477C195.092 88.3025 195.001 88.288 194.913 88.307C194.826 88.3261 194.748 88.3773 194.696 88.4507L192.969 91.3412C192.931 91.4229 192.925 91.5158 192.952 91.6017C192.979 91.6876 193.037 91.7603 193.115 91.8055C193.192 91.8507 193.284 91.8652 193.371 91.8462C193.459 91.8271 193.536 91.7759 193.588 91.7025Z" fill="#2F383C"/>
<path d="M195.775 91.9233L196.974 90.0966C196.997 90.0564 197.013 90.012 197.019 89.9657C197.026 89.9195 197.023 89.8725 197.012 89.8273C197 89.7821 196.98 89.7396 196.952 89.7023C196.924 89.665 196.889 89.6336 196.849 89.6099C196.809 89.5862 196.765 89.5706 196.719 89.564C196.673 89.5575 196.626 89.5601 196.581 89.5718C196.536 89.5834 196.494 89.6039 196.457 89.6319C196.419 89.66 196.388 89.6951 196.365 89.7353C195.955 90.3375 195.556 90.9497 195.156 91.5519C195.107 91.6344 195.093 91.7331 195.116 91.8263C195.14 91.9195 195.199 91.9995 195.281 92.0487C195.363 92.098 195.462 92.1124 195.554 92.0889C195.647 92.0653 195.727 92.0058 195.775 91.9233Z" fill="#2F383C"/>
<path d="M197.633 92.7561L197.692 92.6056C197.692 92.5454 197.692 92.6056 197.692 92.6056V92.5253C197.692 92.435 197.782 92.3447 197.832 92.2543C197.926 92.0613 198.037 91.8767 198.162 91.7023C198.264 91.5403 198.377 91.386 198.501 91.2407C198.651 91.0801 198.801 90.9295 198.961 90.789C199.024 90.7189 199.059 90.6277 199.059 90.5331C199.059 90.4385 199.024 90.3473 198.961 90.2772C198.927 90.2435 198.888 90.2168 198.844 90.1985C198.8 90.1803 198.753 90.1709 198.706 90.1709C198.659 90.1709 198.612 90.1803 198.568 90.1985C198.524 90.2168 198.485 90.2435 198.451 90.2772C197.764 90.9117 197.234 91.6987 196.904 92.5755C196.89 92.6216 196.886 92.67 196.891 92.7179C196.896 92.7657 196.911 92.812 196.934 92.8541C196.957 92.8962 196.989 92.9331 197.026 92.9629C197.064 92.9926 197.107 93.0144 197.153 93.0271C197.244 93.0468 197.34 93.0321 197.421 92.9859C197.502 92.9396 197.563 92.865 197.593 92.7762L197.633 92.7561Z" fill="#2F383C"/>
<path d="M169.322 92.8363L170.541 90.0662C170.585 89.9831 170.597 89.8859 170.573 89.7945C170.549 89.7031 170.491 89.6244 170.411 89.5745C170.329 89.527 170.231 89.514 170.139 89.5384C170.048 89.5629 169.969 89.6227 169.921 89.7049C169.512 90.6283 169.113 91.5516 168.703 92.4649C168.654 92.5474 168.64 92.6461 168.663 92.7393C168.687 92.8325 168.746 92.9125 168.828 92.9617C168.91 93.011 169.008 93.0254 169.101 93.0019C169.194 92.9784 169.273 92.9188 169.322 92.8363Z" fill="#2F383C"/>
<path d="M171.171 92.194L171.81 90.9595C171.858 90.8781 171.872 90.781 171.85 90.689C171.828 90.597 171.77 90.5176 171.69 90.4677C171.606 90.4197 171.507 90.4065 171.414 90.4309C171.321 90.4553 171.241 90.5153 171.191 90.5982L170.552 91.8327C170.504 91.9153 170.492 92.0133 170.516 92.1054C170.54 92.1975 170.6 92.2763 170.682 92.3245C170.764 92.372 170.861 92.3849 170.953 92.3605C171.045 92.336 171.123 92.2762 171.171 92.194Z" fill="#2F383C"/>
<path d="M172.619 93.0969L173.618 91.2C173.663 91.1168 173.674 91.0197 173.65 90.9283C173.626 90.8369 173.568 90.7582 173.488 90.7082C173.406 90.6607 173.308 90.6478 173.217 90.6722C173.125 90.6967 173.047 90.7565 172.999 90.8387C172.679 91.471 172.36 92.1033 172 92.7356C171.977 92.7758 171.961 92.8203 171.955 92.8665C171.948 92.9127 171.951 92.9597 171.962 93.0049C171.974 93.0501 171.994 93.0926 172.022 93.1299C172.05 93.1672 172.085 93.1986 172.125 93.2223C172.165 93.2461 172.209 93.2616 172.255 93.2682C172.301 93.2747 172.348 93.2721 172.393 93.2604C172.438 93.2488 172.48 93.2283 172.517 93.2003C172.555 93.1722 172.586 93.1371 172.609 93.0969H172.619Z" fill="#2F383C"/>
<path d="M208.566 76.4069C208.736 76.698 207.737 77.0493 207.917 77.3503C202.684 71.2282 197.542 64.9755 192.31 58.8534C189.773 55.8425 187.207 52.8316 185.629 49.2887C178.06 60.3287 166.747 66.8624 157.98 76.9188C155.314 69.3313 158.03 61.1617 163.821 55.6016C169.613 50.0415 177.801 49.7203 185.699 48.3554C188.635 47.8435 199.679 49.4192 201.916 51.3663C204.911 54.056 207.707 57.1873 209.025 61.0012C210.733 66.0996 209.564 71.1579 208.566 76.4069Z" fill="#2F383C"/>
<path d="M192.938 47.9837C202.484 53.6743 208.565 63.4296 213.048 73.3455C213.308 73.8975 214.117 73.4158 213.867 72.8638C209.294 62.8274 203.103 52.9316 193.407 47.1708C193.301 47.1206 193.18 47.1122 193.068 47.1474C192.956 47.1827 192.861 47.2588 192.802 47.3609C192.743 47.463 192.724 47.5837 192.749 47.699C192.774 47.8142 192.842 47.9158 192.938 47.9837Z" fill="#9299AD"/>
<path d="M195.406 52.5206C202.186 58.4967 207.977 65.5197 212.56 73.3259C212.632 73.4165 212.734 73.478 212.848 73.4992C212.961 73.5205 213.078 73.4999 213.177 73.4414C213.277 73.3829 213.352 73.2903 213.389 73.1806C213.426 73.0709 213.423 72.9515 213.379 72.8441C208.745 64.966 202.894 57.8788 196.045 51.8481C195.595 51.4467 194.916 52.1091 195.376 52.5206H195.406Z" fill="#9299AD"/>
<path d="M219.071 89.9352C220.804 90.8352 222.142 92.3507 222.825 94.1871C223.508 96.0235 223.487 98.0495 222.766 99.8712C222.735 99.9922 222.752 100.121 222.814 100.229C222.875 100.338 222.976 100.418 223.095 100.453C229.995 102.551 232.891 109.717 233.79 116.311C233.87 116.913 234.788 116.652 234.698 116.06C233.75 109.115 230.564 101.728 223.345 99.54L223.675 100.122C224.468 98.0951 224.486 95.8445 223.724 93.8053C222.962 91.7661 221.475 90.0832 219.551 89.0821C219.001 88.8011 218.552 89.6241 219.071 89.895V89.9352Z" fill="#9299AD"/>
<path d="M214.337 93.3981C215.339 94.3155 216.1 95.4668 216.554 96.7502C216.748 97.3124 216.879 97.8949 216.943 98.4865C217.023 99.2292 216.794 100.022 216.884 100.735C216.973 101.447 217.882 102.11 218.292 102.742C219.025 103.713 219.661 104.755 220.189 105.853C222.376 110.386 222.734 115.594 221.187 120.386C220.998 120.968 221.906 121.219 222.096 120.637C223.682 115.674 223.325 110.29 221.097 105.582C220.544 104.401 219.875 103.278 219.1 102.23C218.791 101.819 218.102 101.317 217.972 100.855C217.887 100.33 217.887 99.7945 217.972 99.2694C217.944 98.0448 217.673 96.8381 217.176 95.7198C216.679 94.6014 215.965 93.5938 215.076 92.7558C214.637 92.3343 213.968 93.0067 214.407 93.4282L214.337 93.3981Z" fill="#9299AD"/>
<path d="M181.706 46.5886C171.354 52.1347 163.052 60.8829 158.031 71.5389C157.771 72.0809 158.59 72.5425 158.849 72.0106C163.796 61.4931 171.977 52.8543 182.185 47.3714C182.715 47.0904 182.245 46.2674 181.706 46.5585V46.5886Z" fill="#9299AD"/>
<path d="M171.14 47.4415C164.49 54.2562 161.295 63.4395 158.309 72.3015C158.119 72.8836 159.028 73.1245 159.218 72.5524C162.153 63.8409 165.269 54.8082 171.809 48.1039C171.897 48.0148 171.945 47.8943 171.944 47.7692C171.943 47.644 171.893 47.5244 171.804 47.4365C171.716 47.3487 171.596 47.2999 171.471 47.3008C171.347 47.3017 171.228 47.3524 171.14 47.4415Z" fill="#9299AD"/>
<path d="M150.451 90.5281C149.211 91.5052 148.258 92.8032 147.695 94.283C147.132 95.7628 146.98 97.3687 147.256 98.9285L147.585 98.3464C143.591 99.8318 141.674 103.766 140.715 107.72C139.647 112.076 138.928 116.873 140.995 121.049C141.265 121.591 142.073 121.119 141.804 120.567C139.937 116.783 140.596 112.427 141.504 108.523C142.363 104.78 143.961 100.735 147.835 99.3099C147.954 99.2748 148.055 99.1944 148.117 99.0858C148.178 98.9772 148.195 98.8488 148.165 98.7278C147.942 97.3256 148.104 95.889 148.631 94.5719C149.159 93.2548 150.033 92.1068 151.16 91.2507C151.639 90.8794 150.97 90.2471 150.491 90.5783L150.451 90.5281Z" fill="#9299AD"/>
<path d="M157.75 94.2007C156.897 94.9404 156.206 95.8508 155.723 96.8739C155.24 97.897 154.975 99.0102 154.944 100.142C154.944 100.594 155.124 101.146 154.944 101.567C154.764 101.989 153.876 102.661 153.546 103.053C152.748 104.016 152.077 105.079 151.549 106.214C149.142 111.453 149.991 117.355 152.208 122.493C152.448 123.055 153.266 122.573 153.027 122.011C150.86 116.993 150.081 111.132 152.647 106.114C153.18 105.07 153.852 104.104 154.644 103.243C155.124 102.722 155.923 102.32 156.002 101.608C156.082 100.895 155.853 100.353 155.903 99.7408C155.952 99.1174 156.083 98.5033 156.292 97.9141C156.729 96.7447 157.458 95.7079 158.409 94.9032C158.868 94.5018 158.199 93.8294 157.74 94.2308L157.75 94.2007Z" fill="#9299AD"/>
<path d="M202.715 77.8322C194.903 69.9593 189.168 60.2522 186.029 49.5899C186.008 49.5154 185.958 49.4523 185.891 49.4147C185.824 49.3771 185.744 49.3679 185.67 49.3892C185.596 49.4105 185.533 49.4605 185.496 49.5283C185.458 49.596 185.449 49.676 185.47 49.7505C188.641 60.5058 194.427 70.2982 202.306 78.2436C202.565 78.5046 202.975 78.0931 202.715 77.8322Z" fill="#2F383C"/>
<path d="M196.064 74.7909C189.958 67.2981 186.248 58.1253 185.42 48.4756C185.42 48.1043 184.811 48.0943 184.841 48.4756C185.672 58.2792 189.443 67.5986 195.655 75.2024C195.885 75.4834 196.294 75.0719 196.064 74.7909Z" fill="#2F383C"/>
<path d="M176.343 67.4446C180.218 61.9244 183.209 55.8289 185.21 49.3792C185.319 49.0179 184.76 48.8673 184.65 49.2286C182.664 55.6511 179.693 61.7226 175.843 67.2238C175.634 67.5249 176.133 67.8159 176.343 67.5148V67.4446Z" fill="#2F383C"/>
<path d="M162.712 50.6234C154.744 57.3157 148.948 66.2489 146.067 76.2763C145.398 78.6122 144.897 80.9937 144.569 83.4021C144.409 84.5362 144.569 86.2423 143.7 86.9248C142.981 87.4868 141.943 87.7277 141.174 88.3098C139.369 89.7132 138.116 91.7134 137.637 93.9563C137.158 96.1991 137.484 98.5399 138.558 100.564L139.087 99.8617C134.684 98.858 130.51 103.696 127.844 106.576C124.648 110.018 122.252 114.204 122.262 119.021C122.262 119.146 122.311 119.266 122.399 119.355C122.487 119.443 122.607 119.493 122.731 119.493C122.856 119.493 122.975 119.443 123.063 119.355C123.151 119.266 123.2 119.146 123.2 119.021C123.2 114.715 125.197 110.922 128.043 107.77C129.294 106.389 130.628 105.085 132.037 103.866C133.915 102.2 136.141 100.143 138.847 100.785C138.938 100.806 139.032 100.801 139.12 100.769C139.207 100.738 139.284 100.681 139.34 100.607C139.396 100.533 139.429 100.443 139.436 100.35C139.442 100.257 139.422 100.164 139.377 100.082C138.782 98.9237 138.451 97.6461 138.409 96.3428C138.368 95.0395 138.615 93.7432 139.135 92.5482C139.654 91.3533 140.432 90.2898 141.412 89.435C142.392 88.5803 143.549 87.9559 144.799 87.6073C144.899 87.5789 144.987 87.5185 145.05 87.4352C145.113 87.3519 145.148 87.2503 145.148 87.1456C145.639 80.2494 147.507 73.5233 150.642 67.369C153.776 61.2147 158.112 55.7584 163.391 51.3259C163.861 50.9345 163.192 50.2621 162.722 50.6535L162.712 50.6234Z" fill="#2F383C"/>
<path d="M211.472 60.1276C215.842 65.8764 219.5 72.1382 222.366 78.7751C223.694 81.8663 224.363 84.7367 226.959 86.9447C229.885 89.4136 231.263 92.8461 230.154 96.6298C230.137 96.6897 230.133 96.7524 230.14 96.8142C230.148 96.876 230.168 96.9357 230.198 96.9898C230.229 97.0439 230.27 97.0914 230.319 97.1295C230.368 97.1676 230.424 97.1956 230.484 97.2119C234.38 98.6047 237.729 101.218 240.037 104.667C242.345 108.116 243.491 112.219 243.305 116.371C243.305 116.983 244.224 116.983 244.253 116.371C244.436 112.011 243.22 107.708 240.786 104.094C238.353 100.481 234.828 97.7479 230.733 96.2986L231.063 96.8807C231.476 95.5482 231.6 94.1424 231.428 92.7575C231.256 91.3727 230.791 90.041 230.064 88.8516C229.187 87.6307 228.134 86.5482 226.939 85.64C225.201 84.1044 224.642 81.7358 223.783 79.6182C220.833 72.4577 216.973 65.7109 212.3 59.5455C211.941 59.0638 211.112 59.5455 211.481 60.0172L211.472 60.1276Z" fill="#2F383C"/>
<path d="M170.191 94.6127C163.781 94.6127 158.578 88.4002 158.578 80.7525C158.578 73.1048 163.781 66.9023 170.191 66.9023C176.602 66.9023 181.804 73.1148 181.804 80.7525C181.804 88.3901 176.612 94.6127 170.191 94.6127ZM170.191 67.7655C164.26 67.7655 159.437 73.5865 159.437 80.7525C159.437 87.9184 164.26 93.7495 170.191 93.7495C176.122 93.7495 180.945 87.9184 180.945 80.7525C180.945 73.5865 176.112 67.7655 170.191 67.7655Z" fill="white"/>
<path d="M197.293 94.6127C190.882 94.6127 185.68 88.4002 185.68 80.7525C185.68 73.1048 190.882 66.9023 197.293 66.9023C203.703 66.9023 208.896 73.1148 208.896 80.7525C208.896 88.3901 203.693 94.6127 197.293 94.6127ZM197.293 67.7655C191.361 67.7655 186.538 73.5865 186.538 80.7525C186.538 87.9184 191.361 93.7495 197.293 93.7495C203.224 93.7495 208.037 87.9184 208.037 80.7525C208.037 73.5865 203.214 67.7655 197.293 67.7655Z" fill="white"/>
<path d="M270.215 189.104H95.0021C90.3421 189.104 86.5645 192.901 86.5645 197.585V283.406C86.5645 288.09 90.3421 291.887 95.0021 291.887H270.215C274.875 291.887 278.653 288.09 278.653 283.406V197.585C278.653 192.901 274.875 189.104 270.215 189.104Z" fill="#98DCE9"/>
<path d="M279.762 301.09H85.4466C84.231 301.09 83.0652 300.605 82.2057 299.741C81.3462 298.877 80.8633 297.705 80.8633 296.483C80.8659 295.263 81.35 294.094 82.2092 293.232C83.0685 292.371 84.2327 291.887 85.4466 291.887H279.762C280.975 291.887 282.138 292.371 282.996 293.233C283.853 294.095 284.335 295.264 284.335 296.483C284.337 297.088 284.219 297.687 283.99 298.245C283.761 298.804 283.424 299.312 282.999 299.74C282.575 300.168 282.07 300.508 281.514 300.739C280.959 300.971 280.363 301.09 279.762 301.09Z" fill="white"/>
<path d="M279.762 301.683H85.4465C84.7488 301.714 84.0521 301.602 83.3984 301.355C82.7448 301.108 82.1476 300.73 81.6431 300.245C81.1385 299.76 80.737 299.177 80.4626 298.531C80.1883 297.885 80.0469 297.191 80.0469 296.489C80.0469 295.787 80.1883 295.092 80.4626 294.447C80.737 293.801 81.1385 293.218 81.6431 292.733C82.1476 292.248 82.7448 291.87 83.3984 291.623C84.0521 291.376 84.7488 291.264 85.4465 291.295H279.762C281.093 291.354 282.35 291.927 283.272 292.894C284.193 293.862 284.707 295.15 284.707 296.489C284.707 297.828 284.193 299.116 283.272 300.083C282.35 301.051 281.093 301.624 279.762 301.683ZM85.4465 292.479C84.3872 292.479 83.3713 292.902 82.6222 293.655C81.8732 294.408 81.4524 295.429 81.4524 296.494C81.4524 297.559 81.8732 298.58 82.6222 299.333C83.3713 300.085 84.3872 300.508 85.4465 300.508H279.762C280.821 300.508 281.837 300.085 282.586 299.333C283.335 298.58 283.756 297.559 283.756 296.494C283.756 295.429 283.335 294.408 282.586 293.655C281.837 292.902 280.821 292.479 279.762 292.479H85.4465Z" fill="#2F383C"/>
<path d="M187.597 241.655C187.597 242.647 187.304 243.618 186.755 244.443C186.207 245.268 185.427 245.911 184.515 246.291C183.602 246.671 182.598 246.77 181.63 246.577C180.662 246.383 179.772 245.905 179.074 245.203C178.375 244.501 177.9 243.607 177.707 242.634C177.515 241.66 177.613 240.651 177.991 239.735C178.369 238.818 179.009 238.034 179.83 237.482C180.651 236.931 181.617 236.637 182.604 236.637C183.928 236.637 185.198 237.165 186.134 238.107C187.071 239.048 187.597 240.324 187.597 241.655Z" fill="white"/>
<path d="M182.603 247.266C181.499 247.266 180.42 246.936 179.502 246.32C178.584 245.704 177.869 244.827 177.446 243.802C177.024 242.777 176.913 241.649 177.129 240.561C177.344 239.472 177.876 238.473 178.656 237.688C179.437 236.904 180.432 236.369 181.514 236.153C182.597 235.936 183.719 236.047 184.739 236.472C185.759 236.897 186.631 237.616 187.244 238.538C187.858 239.461 188.185 240.546 188.185 241.655C188.182 243.142 187.594 244.568 186.547 245.619C185.501 246.671 184.083 247.263 182.603 247.266ZM182.603 237.229C181.732 237.227 180.88 237.485 180.154 237.97C179.429 238.455 178.863 239.146 178.528 239.955C178.193 240.763 178.104 241.653 178.273 242.513C178.442 243.372 178.861 244.161 179.476 244.781C180.091 245.401 180.876 245.824 181.731 245.995C182.585 246.167 183.471 246.08 184.276 245.745C185.081 245.411 185.77 244.843 186.254 244.115C186.738 243.387 186.997 242.531 186.997 241.655C186.994 240.484 186.531 239.361 185.708 238.532C184.885 237.703 183.769 237.235 182.603 237.229Z" fill="#2F383C"/>
<path d="M395.293 301.883H9.12869C8.91947 301.883 8.71883 301.799 8.57089 301.65C8.42295 301.502 8.33984 301.3 8.33984 301.09C8.33984 300.879 8.42295 300.678 8.57089 300.529C8.71883 300.38 8.91947 300.297 9.12869 300.297H395.293C395.502 300.297 395.703 300.38 395.851 300.529C395.999 300.678 396.082 300.879 396.082 301.09C396.082 301.3 395.999 301.502 395.851 301.65C395.703 301.799 395.502 301.883 395.293 301.883Z" fill="#2F383C"/>
<path d="M221.397 78.3233L218.401 77.5204C219.716 72.4442 219.857 67.1327 218.812 61.9936C217.767 56.8544 215.564 52.0242 212.373 47.8738C209.181 43.7234 205.086 40.3631 200.402 38.0508C195.718 35.7385 190.569 34.5357 185.35 34.5348H182.055C177.115 34.5337 172.235 35.6098 167.75 37.6888C163.265 39.7678 159.282 42.8003 156.076 46.5769C152.87 50.3534 150.517 54.7842 149.181 59.5634C147.844 64.3425 147.555 69.3563 148.334 74.2586L148.564 75.744L145.448 76.2458L145.219 74.7604C144.368 69.4091 144.683 63.9362 146.14 58.7188C147.597 53.5013 150.162 48.6634 153.658 44.5385C157.155 40.4135 161.5 37.0996 166.393 34.8251C171.287 32.5505 176.613 31.3695 182.005 31.3633H185.3C191.001 31.3653 196.625 32.6801 201.741 35.2067C206.858 37.7333 211.33 41.4045 214.816 45.9386C218.301 50.4727 220.706 55.7491 221.847 61.3629C222.988 66.9767 222.834 72.7786 221.397 78.3233Z" fill="#2F383C"/>
<path d="M148.624 73.97L143.302 74.4417C142.55 74.5084 141.993 75.1757 142.06 75.9322L143.821 96.0072C143.887 96.7637 144.551 97.3228 145.304 97.2561L150.626 96.7844C151.378 96.7177 151.934 96.0504 151.868 95.2939L150.107 75.2189C150.04 74.4624 149.376 73.9033 148.624 73.97Z" fill="#FFB966"/>
<path d="M154.609 66.5492L152.303 66.7578C149.363 67.0237 147.195 69.6342 147.459 72.5886L149.792 98.643C150.057 101.597 152.654 103.777 155.594 103.511L157.9 103.302C160.84 103.036 163.008 100.426 162.743 97.4714L160.411 71.4171C160.146 68.4627 157.549 66.2833 154.609 66.5492Z" fill="#75BAB3"/>
<path d="M216.318 96.7874L221.639 97.2591C222.392 97.3258 223.056 96.7667 223.122 96.0102L224.884 75.9352C224.95 75.1787 224.394 74.5114 223.641 74.4447L218.32 73.973C217.567 73.9063 216.903 74.4654 216.837 75.2219L215.075 95.2969C215.009 96.0534 215.565 96.7207 216.318 96.7874Z" fill="#FFB966"/>
<path d="M210.002 103.171L212.3 103.375C215.228 103.634 217.811 101.459 218.069 98.516L220.346 72.5624C220.605 69.6195 218.44 67.0234 215.512 66.7638L213.215 66.5601C210.287 66.3006 207.704 68.4759 207.445 71.4189L205.168 97.3725C204.91 100.315 207.074 102.912 210.002 103.171Z" fill="#75BAB3"/>
</g>
<defs>
<clipPath id="clip0_2308_26240">
<rect width="396" height="348" fill="white" transform="translate(0.03125)"/>
</clipPath>
</defs>
</svg>
