<svg width="218" height="100" viewBox="0 0 218 100" fill="none" xmlns="http://www.w3.org/2000/svg">
<path fill-rule="evenodd" clip-rule="evenodd" d="M14.2936 38.7022C1.05489 49.8105 -5.8041 66.11 10.2966 78.2458C24.1915 88.7222 48.1009 92.0678 67.5343 93.826C87.0437 95.5931 106.658 95.1665 125.96 93.5566C158.604 90.838 218.908 82.5846 216.474 53.5161C215.079 36.8562 194.112 20.3832 172.98 12.4098C147.518 2.80229 117.567 3.9835 90.8021 8.20084C63.6298 12.4806 37.8469 20.917 21.0726 35.9906C7.49921 48.1883 -3.00704 68.1141 14.4852 81.6559C29.9391 93.6207 58.8007 94.4431 79.8245 93.0772C105.295 91.4211 130.677 88.8264 154.837 83.4474C177.001 78.5105 200.418 70.5467 211.167 56.0398C218.802 45.7302 217.779 34.3795 203.6 26.4852C189.07 18.3939 168.017 15.9115 150.124 14.3522C130.452 12.6383 111.247 12.7087 91.8163 14.4022C87.1739 14.8082 82.5272 15.2097 77.8812 15.5909C75.8085 15.7622 76.6259 17.889 78.679 17.7183C91.618 16.6532 104.421 15.177 117.535 15.1632C126.745 15.1554 135.981 15.5036 145.179 16.1412C164.279 17.4673 186.189 19.9516 201.899 28.2931C220.774 38.3186 211.75 54.9458 198.287 64.4133C179.909 77.3408 151.049 82.8006 125.447 86.4398C101.16 89.8923 74.0643 93.0988 48.9766 90.4805C36.8207 89.2114 24.3211 86.0117 16.0021 79.5703C6.39233 72.1312 7.65189 61.8668 11.4819 53.3882C20.8784 32.607 48.0929 19.4883 77.7631 12.923C106.309 6.61011 139.607 3.87365 168.292 13.1732C182.585 17.8051 193.999 25.5103 202.474 34.4014C209.218 41.4818 214.297 49.6063 213.096 57.9617C211.045 72.2413 188.666 80.0468 170.881 84.4466C150.102 89.5835 127.304 91.854 105.024 92.6352C84.2362 93.3631 62.7411 92.197 42.5121 88.1006C31.2274 85.8127 19.8879 82.2631 11.8705 76.2206C2.89002 69.4491 2.49159 60.2612 6.49926 52.3146C11.8566 41.6955 24.8068 33.1488 37.8833 26.6478C50.8271 20.2113 66.9449 14.94 83.5597 14.4723C85.6311 14.4143 85.7178 12.2447 83.6268 12.3033C56.3626 13.0697 30.5504 25.0598 14.2936 38.7022Z" fill="#FF4D93" fill-opacity="0.98"/>
</svg>
