<svg width="644" height="444" viewBox="0 0 644 444" fill="none" xmlns="http://www.w3.org/2000/svg">
<path d="M325.369 440.299C322.416 442.732 317.728 442.596 315.006 439.625C312.814 437.232 312.354 433.735 311.089 430.746L307.621 422.551C301.359 407.755 286.851 398.142 270.784 398.142H62.2826C28.9894 398.142 2 368.826 2 332.664V67.478C2 31.3155 28.9894 2 62.2826 2H581.717C615.011 2 642 31.3155 642 67.478V332.664C642 368.826 615.011 398.142 581.717 398.142H370.202C354.135 398.142 339.627 407.755 333.365 422.552L330.268 429.869C328.759 433.435 328.357 437.837 325.369 440.299Z" fill="#FFEDED" stroke="#141313" stroke-width="4"/>
<path d="M621.502 50.834C584.307 26.7578 528.86 23.2982 471.185 22.6281C422.182 22.0583 373.33 22.2999 324.383 20.8869C324.007 20.8724 323.655 20.789 323.399 20.6534C323.142 20.5178 323 20.3399 323 20.1553C323 19.9707 323.142 19.7928 323.399 19.6572C323.655 19.5217 324.007 19.4383 324.383 19.4237C380.138 16.2923 436.611 16.7663 492.626 17.7007C542.058 18.5212 604.481 24.8343 622.947 50.5195C623.274 50.9844 621.996 51.1576 621.502 50.834Z" fill="#FF9C9F"/>
<path d="M20.4826 264.486C23.6846 273.93 23 286.5 23 297C23 325.5 27.3046 328.319 30.5 338.5C40.5 360.5 45.5 362.5 59.5 370.5C67.5 377.5 72.3086 374.662 83.0718 383.405C83.4573 383.726 82.6864 384.158 82.1386 383.942C65.6757 382.836 53.4345 377.297 44.3456 369C26.7667 355.159 19.369 332 17.5 308C16.2478 291.921 18.5452 276.622 18.7886 264.62C18.7785 264.071 20.2899 263.931 20.4826 264.486Z" fill="#FF9C9F"/>
<path d="M18.7568 243.434C20.6741 245.955 20.6841 248.487 20.9174 251.195C21.1 253.412 22.1144 256.65 19.132 258.36C19.1028 258.377 19.0681 258.39 19.0297 258.399C18.9914 258.408 18.9504 258.413 18.9089 258.413C18.8674 258.413 18.8263 258.408 18.788 258.399C18.7497 258.39 18.715 258.377 18.6858 258.36C15.9671 256.854 16.4235 254.234 16.0279 252.216C15.4699 249.298 14.9426 246.317 16.941 243.568C17.225 243.177 18.3714 242.915 18.7568 243.434Z" fill="#FF9C9F"/>
<path d="M464.317 380.368C497.185 378.915 531.386 378.137 562.159 373.423C603.626 367.075 617.475 351.153 620.904 336.115C620.904 336.087 620.931 336.06 620.982 336.039C621.033 336.018 621.103 336.005 621.179 336.001C621.255 335.997 621.332 336.004 621.396 336.02C621.46 336.035 621.506 336.059 621.525 336.086C632.993 348.217 614.778 365.593 585.909 372.748C550.293 381.6 506.15 383.075 464.276 381.39C463.923 381.377 463.596 381.317 463.36 381.221C463.123 381.125 462.995 381.001 463 380.872C463.005 380.744 463.143 380.621 463.387 380.527C463.631 380.434 463.963 380.377 464.317 380.368Z" fill="#FF9C9F"/>
</svg>
