<svg width="275" height="340" viewBox="0 0 275 340" fill="none" xmlns="http://www.w3.org/2000/svg">
<path d="M-25.1545 307.119C-24.745 306.95 -24.3465 306.754 -23.9616 306.535C-20.8315 304.533 -17.7259 302.492 -14.5842 300.507C-11.1731 298.35 -7.71608 296.266 -4.30813 294.102C-0.243966 291.516 3.77045 288.897 7.80555 286.289C8.55732 285.801 9.32079 285.327 10.0478 284.804C10.3661 284.519 10.6574 284.206 10.9181 283.868C10.5316 283.764 10.2704 283.601 10.1021 283.668C9.63054 283.86 9.17948 284.099 8.75558 284.381C4.61397 287.061 0.501838 289.788 -3.66607 292.428C-6.14116 294.006 -8.68839 295.482 -11.3078 296.855C-10.975 296.517 -10.622 296.199 -10.2505 295.903C-3.42775 291.126 3.40822 286.368 10.2312 281.588C16.3169 277.323 22.3945 273.045 28.4638 268.755C32.9061 265.602 37.3352 262.431 41.7284 259.197C44.8231 256.917 47.8267 254.512 50.8936 252.186C55.0267 249.049 59.1931 245.952 63.3122 242.81C66.3176 240.52 69.2981 238.196 72.2538 235.839C73.0538 235.203 73.7337 234.422 74.4771 233.715C74.887 233.326 75.317 232.959 75.8391 232.489C77.4041 234.029 78.278 235.945 79.4878 237.774C78.0195 239.208 76.3318 240.248 74.8034 241.503C73.3176 242.723 71.7601 243.852 70.2208 245.008C68.6333 246.205 67.0328 247.379 65.4403 248.57C63.9075 249.725 62.371 250.884 60.8308 252.046C59.2469 253.242 57.676 254.461 56.082 255.647C54.5522 256.791 52.9458 257.836 51.4109 259.427C51.9489 259.412 52.2708 259.497 52.4737 259.378C53.1911 258.954 53.8867 258.495 54.5579 258.001C57.0419 256.19 59.5227 254.371 61.9886 252.532C66.1477 249.428 70.2984 246.315 74.4407 243.193C76.0263 241.998 77.5838 240.764 79.1612 239.556C79.4528 239.331 79.7811 239.15 80.1936 238.883C81.1183 239.977 82.0096 240.96 82.5067 242.199C82.37 242.862 81.8573 243.182 81.429 243.551C79.7214 245.018 78.0389 246.512 76.2844 247.89C71.4227 251.716 66.532 255.506 61.6431 259.295C61.4169 259.471 61.1907 259.646 60.9646 259.821C59.2406 261.158 57.4885 262.452 55.7563 263.775C55.4611 264 55.1988 264.277 54.7436 264.687C55.1918 264.763 55.458 264.897 55.6058 264.815C56.3484 264.439 57.0619 264.009 57.7404 263.527C57.8773 263.425 58.0141 263.322 58.1509 263.219C61.9626 260.361 65.7727 257.503 69.5428 254.588C72.7375 252.119 75.8824 249.585 79.0306 247.057C80.1769 246.133 81.2516 245.118 82.3695 244.159C82.6427 243.913 82.9778 243.739 83.3397 243.491C83.999 244.294 84.6258 245.005 84.9223 246.041C84.5324 246.699 83.9097 247.158 83.3338 247.64C80.2407 250.236 77.126 252.804 74.0295 255.397C73.0944 256.178 72.1641 256.968 71.2912 257.815C70.8172 258.279 70.2323 258.728 70.1941 259.478C70.3076 259.547 70.3627 259.613 70.4195 259.612C70.5349 259.609 70.6817 259.616 70.7613 259.551C75.6331 255.495 80.5017 251.435 85.3668 247.372C85.4077 247.335 85.4905 247.345 85.6303 247.317C86.1851 247.63 86.4481 248.176 86.6185 248.937C86.1967 249.351 85.767 249.815 85.2921 250.229C81.2709 253.712 77.2713 257.222 73.21 260.656C68.0705 265 62.8439 269.244 57.7128 273.597C52.7296 277.831 47.8285 282.16 42.8855 286.438C42.4438 286.81 42.0234 287.207 41.6265 287.626C41.4857 287.78 41.4856 288.06 41.3827 288.409C42.5609 288.077 43.3033 287.355 44.0725 286.699C46.1753 284.924 48.2478 283.115 50.3615 281.333C57.6192 275.224 64.9055 269.146 72.1414 263.012C76.8349 259.035 81.4617 254.977 86.1234 250.962C86.4951 250.628 86.9187 250.351 87.3172 250.046C88.0177 251.085 88.0377 251.145 87.4212 251.727C86.583 252.519 85.7161 253.283 84.8494 254.043C80.446 257.964 76.0524 261.899 71.6288 265.798C63.7925 272.708 55.9461 279.607 48.0896 286.497C44.7191 289.458 41.3265 292.397 37.9745 295.379C31.3599 301.253 24.7576 307.142 18.1676 313.044C17.508 313.638 16.8953 314.284 16.0648 315.099C16.5442 315.154 16.8165 315.273 16.9416 315.184C17.5561 314.745 18.1679 314.255 18.7451 313.749C26.7873 306.683 34.8228 299.61 42.8667 292.546C49.3268 286.884 55.8507 281.294 62.2763 275.613C68.1339 270.433 73.8994 265.147 79.7337 259.938C82.4021 257.535 85.1122 255.183 87.8091 252.812C88.1324 252.521 88.4593 252.125 88.9623 252.448C89.3504 252.696 89.2692 253.245 88.756 253.748C88.2428 254.25 87.7264 254.712 87.2058 255.187C78.9999 262.647 70.7705 270.08 62.5946 277.577C57.5862 282.167 52.6802 286.868 47.6969 291.487C47.2242 291.925 46.7514 292.363 46.2787 292.801C38.4766 300.03 30.6745 307.259 22.8215 314.435C16.8581 319.882 10.8156 325.245 4.79016 330.623C3.16982 332.082 1.50602 333.489 -0.139494 334.92L1.66762 336.927C2.35749 336.262 3.02555 335.573 3.73724 334.932C14.3606 325.367 25.0089 315.833 35.5903 306.221C41.513 300.841 47.3261 295.316 53.1943 289.861C60.1491 283.41 67.1106 276.967 74.0787 270.533C81.2536 263.928 88.4471 257.373 95.6296 250.791C96.4862 250.02 97.2629 249.149 98.6053 249.141C98.8465 247.783 99.7953 247.013 100.718 246.226C104.106 243.385 107.455 240.498 110.902 237.731C112.503 236.452 114.106 235.184 115.654 233.838C116.993 232.64 118.112 231.217 118.96 229.633C120.398 227.059 121.846 224.493 123.328 221.947C124.738 219.56 126.763 217.597 129.192 216.262C131.16 215.183 133.245 214.333 135.408 213.73C137.739 213.034 140.074 212.335 142.392 211.591C144.04 211.063 145.662 210.462 147.293 209.878C147.72 209.743 148.131 209.559 148.516 209.33C148.735 209.195 148.922 209.014 149.067 208.801C149.211 208.587 149.308 208.346 149.352 208.092C149.396 207.838 149.385 207.577 149.321 207.327C149.258 207.077 149.141 206.843 148.981 206.641C148.616 206.102 148.07 205.711 147.443 205.538C146.638 205.332 145.821 205.153 145.01 205.03C144.321 204.915 143.621 204.884 142.476 204.771C143.093 204.515 143.294 204.402 143.51 204.346C145.931 203.721 148.359 203.128 150.771 202.471C151.454 202.292 152.103 202.002 152.691 201.613C154.017 200.706 154.054 199.069 152.817 198.017C152.166 197.488 151.402 197.116 150.584 196.93C149.149 196.569 147.667 196.436 146.191 196.536C144.527 196.627 142.864 196.775 141.201 196.883C140.684 196.931 140.163 196.863 139.675 196.683C140.185 196.457 140.69 196.222 141.204 196.009C144.34 194.707 147.485 193.424 150.614 192.109C151.331 191.831 152.013 191.472 152.648 191.039C154.396 189.759 154.234 187.662 152.289 186.723C151.471 186.355 150.602 186.113 149.712 186.007C147.776 185.725 145.872 185.942 143.969 186.295C139.904 187.05 136.06 188.456 132.349 190.205C130.15 191.247 128.003 192.397 125.83 193.493C125.272 193.777 124.703 194.042 124.082 194.342C123.97 194.081 123.873 193.814 123.789 193.543C123.682 193.106 123.621 192.658 123.509 192.222C122.708 189.188 120.924 187.987 117.803 188.445C116.919 188.592 116.048 188.811 115.201 189.101C113.008 189.831 110.929 190.864 109.025 192.171C107.683 193.073 106.586 194.293 105.83 195.723C104.068 196.306 102.385 197.102 100.818 198.093C97.1702 200.436 95.4918 203.867 95.2341 208.088C95.1288 209.806 95.6695 211.408 96.5697 212.841C97.5894 214.47 98.7535 216.014 99.8924 217.566C100.419 218.29 101.011 218.969 101.619 219.723C101.122 221.385 100.182 222.88 98.9007 224.047C97.5156 225.375 96.058 226.626 94.5345 227.793C92.8027 229.109 90.9609 230.285 89.161 231.511C88.91 231.652 88.6489 231.774 88.38 231.877C88.0058 231.323 87.6567 230.797 87.2856 230.287C87.0371 229.913 86.7691 229.552 86.4827 229.205C85.8883 228.519 85.2073 228.383 84.4227 228.819C84.0421 229.056 83.6796 229.32 83.3381 229.61C82.2683 230.425 81.205 231.251 80.1302 232.06C79.8475 232.249 79.5552 232.424 79.2543 232.582C78.7042 231.792 78.2136 231.053 77.6878 230.342C76.5702 228.79 75.8505 228.753 74.5053 230.17C71.9292 232.852 69.134 235.313 66.1485 237.53C61.5218 240.973 56.9089 244.434 52.31 247.911C49.2451 250.232 46.2517 252.647 43.175 254.955C39.331 257.838 35.4598 260.684 31.5617 263.492C27.5085 266.42 23.4275 269.301 19.3413 272.181C15.4667 274.91 11.567 277.608 7.67721 280.321C3.84582 283.002 0.0374006 285.719 -3.81544 288.368C-9.84015 292.514 -15.8797 296.602 -21.9135 300.719C-23.7625 301.979 -25.6111 303.243 -27.4593 304.511L-25.1545 307.119ZM106.902 199.776C106.476 201.546 106.043 203.224 105.661 204.908C105.416 205.834 105.254 206.78 105.179 207.735C105.095 209.835 106.447 211.098 108.547 211.012C109.645 210.945 110.697 210.553 111.572 209.888C114.185 208.017 116.409 205.655 118.121 202.935C118.519 202.278 118.794 201.554 118.932 200.798C119.13 199.766 118.753 198.853 117.766 198.382C117.082 198.037 116.345 197.808 115.586 197.706C114.113 197.564 112.642 197.56 111.166 197.512C110.59 197.494 110.012 197.539 109.434 197.506C108.856 197.473 108.498 197.147 108.372 196.498C108.743 195.621 109.497 195.013 110.255 194.438C112.416 192.82 114.888 191.664 117.516 191.042C117.89 190.947 118.272 190.888 118.656 190.865C119.976 190.787 120.592 191.147 120.975 192.402C121.413 193.75 121.602 195.166 121.531 196.581C121.5 197.088 121.404 197.593 121.392 198.1C121.404 198.423 121.524 198.732 121.733 198.979C121.941 199.227 122.226 199.397 122.542 199.463C122.831 199.513 123.128 199.459 123.381 199.312C123.634 199.165 123.827 198.934 123.927 198.658C124.077 198.173 124.202 197.68 124.3 197.182C128.13 195.15 131.879 193.058 135.852 191.41C138.619 190.227 141.503 189.341 144.458 188.767C146.107 188.46 147.764 188.283 149.438 188.497C150.02 188.608 150.595 188.748 151.163 188.918C150.734 189.218 150.287 189.492 149.825 189.738C147.412 190.777 145.008 191.862 142.565 192.8C137.844 194.624 133.096 196.375 128.657 198.84C128.259 199.044 127.885 199.29 127.54 199.573C127.372 199.726 127.257 199.928 127.212 200.15C127.167 200.373 127.194 200.604 127.289 200.811C127.344 200.998 127.456 201.164 127.609 201.285C127.762 201.407 127.948 201.478 128.142 201.49C128.582 201.492 129.021 201.438 129.447 201.328C131.705 200.847 133.935 200.199 136.214 199.898C139.391 199.48 142.598 199.272 145.799 199.075C147.071 198.993 148.354 199.177 149.631 199.276C149.918 199.34 150.194 199.443 150.452 199.583C150.3 200.162 149.854 200.155 149.507 200.241C146.707 200.927 143.923 201.707 141.092 202.241C137.331 202.948 133.863 204.414 130.414 205.96C130.172 206.054 129.969 206.226 129.838 206.449C129.706 206.672 129.653 206.934 129.688 207.191C129.715 207.448 129.823 207.691 129.997 207.883C130.17 208.076 130.4 208.209 130.653 208.262C131.296 208.446 131.907 208.291 132.544 208.169C136.467 207.428 140.419 207.068 144.417 207.484C144.682 207.512 145.091 207.38 145.165 207.941C144.772 208.095 144.375 208.281 143.96 208.415C141.339 209.263 138.717 210.099 136.089 210.943C134.266 211.535 132.404 212.061 130.628 212.783C126.338 214.527 122.95 217.334 120.704 221.462C119.485 223.714 118.109 225.884 116.941 228.164C115.608 230.761 113.549 232.618 111.296 234.357C110.635 234.864 109.933 235.317 109.296 235.85C105.609 238.934 101.937 242.038 98.25 245.122C97.9586 245.341 97.6553 245.545 97.3414 245.731C96.6121 245.324 96.3139 244.672 95.9526 244.072C94.1259 241.047 92.3004 238.023 90.4759 235C90.293 234.693 90.1668 234.351 90.0258 234.056C92.4091 232.342 94.6965 230.701 96.9791 229.05C99.7644 227.032 102.155 224.657 103.694 221.523C103.779 221.352 103.886 221.191 103.983 221.026C104.765 219.701 104.685 218.707 103.6 217.775C101.728 216.156 100.311 214.179 99.0011 212.13C98.3032 211.041 97.713 209.854 97.741 208.54C97.785 205.973 98.4453 203.594 100.364 201.738C101.729 200.374 103.375 199.326 105.189 198.666C105.351 198.638 105.515 198.629 105.68 198.639L106.902 199.776ZM95.3423 247.767C93.8992 248.914 92.877 250.324 91.2118 251.169C89.8796 249.409 88.9758 247.49 87.841 245.717C86.6636 243.879 85.5209 242.02 84.3343 240.186C83.1992 238.421 81.7673 236.845 80.7744 234.865C82.0409 233.842 83.2283 232.878 84.417 231.922C84.5948 231.825 84.7867 231.755 84.9859 231.717C85.3055 232.027 85.6037 232.358 85.8786 232.708C87.1111 234.511 88.3655 236.3 89.5247 238.148C90.8545 240.268 92.0853 242.449 93.3729 244.597C93.9637 245.597 94.59 246.561 95.3423 247.767ZM107.943 208.455C107.403 207.392 107.866 206.5 108.072 205.586C108.278 204.671 108.521 203.727 108.784 202.808C109.047 201.89 109.012 200.916 109.54 200.086C111.638 199.976 113.673 199.931 115.699 200.253C115.945 200.329 116.18 200.437 116.397 200.576C116.334 200.844 116.243 201.106 116.127 201.356C114.683 203.764 112.788 205.87 110.545 207.559C110.14 207.87 109.692 208.12 109.215 208.302C108.818 208.447 108.365 208.415 107.943 208.455ZM-12.7182 297.673L-12.6209 297.781C-12.7937 297.937 -12.9816 298.075 -13.1593 298.222L-13.2348 298.138L-12.7182 297.673Z" fill="#0F143A" fill-opacity="0.8"/>
<path d="M48.6424 181.025C48.6314 181.034 48.6203 181.044 48.6092 181.054C47.2506 182.233 45.5554 182.849 44.0371 183.758C43.6145 184.013 43.228 184.327 42.6153 184.764C43.0746 184.901 43.3271 185.062 43.4903 184.989C44.2752 184.716 45.0405 184.39 45.7811 184.013C47.8133 182.925 49.8205 181.773 51.8406 180.679C52.7321 180.197 53.5889 179.631 54.7119 179.444L55.1182 180.377C52.8821 181.742 50.6814 183.039 48.5333 184.416C46.4492 185.756 44.2142 186.891 42.3975 188.551C42.5858 189.134 42.9273 189.042 43.1886 188.891C44.4132 188.194 45.6274 187.479 46.8312 186.749C49.294 185.25 51.7435 183.733 54.2045 182.232C54.5814 182.004 54.9924 181.837 55.3652 181.653C56.181 182.431 56.1861 182.455 56.4336 183.626C56.4395 183.654 56.4455 183.682 56.4516 183.711C54.984 184.645 53.5045 185.67 51.969 186.543C47.4061 189.14 42.8033 191.685 38.2312 194.253C33.4857 196.919 28.7456 199.596 24.0109 202.282C23.5088 202.608 23.024 202.96 22.5584 203.337C22.8657 203.499 23.0498 203.677 23.167 203.639C23.6548 203.49 24.1276 203.295 24.5795 203.059C33.4347 198.163 42.2841 193.257 51.1274 188.34C52.7478 187.438 54.2772 186.371 55.8586 185.399C56.2706 185.175 56.6945 184.974 57.1286 184.796C57.754 186.135 58.2277 187.411 58.3624 188.798C58.364 188.815 58.3656 188.831 58.3671 188.848C58.3674 188.851 58.3678 188.855 58.3681 188.859L58.3671 188.848L58.3669 188.779C58.7481 189.995 59.0022 191.271 59.5469 192.411C60.069 193.506 60.6607 194.559 61.0007 195.68C60.6929 196.396 60.0602 196.635 59.5475 196.989C55.0901 200.01 50.6309 203.02 46.1699 206.018C42.1856 208.705 38.1944 211.38 34.1961 214.042C30.0907 216.777 25.9709 219.481 21.8602 222.214C21.5463 222.422 21.2323 222.63 20.9184 222.838C16.375 225.853 11.8314 228.867 7.30511 231.908C3.90165 234.193 0.534543 236.529 -2.85921 238.833C-6.25297 241.136 -9.6365 243.447 -13.0515 245.715C-17.0509 248.376 -21.0675 251.015 -25.1013 253.633C-31.2192 257.623 -37.4862 261.373 -43.8085 265.027C-47.7994 267.336 -51.7888 269.649 -55.7766 271.967C-55.9867 272.105 -56.1886 272.255 -56.381 272.416L-54.5739 274.423C-54.1474 274.047 -53.6961 273.699 -53.2231 273.383C-47.6917 270.15 -42.108 267.005 -36.6225 263.699C-31.1924 260.425 -25.8158 257.064 -20.4927 253.617C-14.8409 249.969 -9.2629 246.205 -3.67857 242.455C0.516031 239.64 4.67434 236.736 8.86314 233.896C12.1521 231.667 15.4589 229.469 18.7676 227.269C23.519 224.116 28.2692 220.963 33.0181 217.812C36.1779 215.716 39.3324 213.655 42.4699 211.546C45.4441 209.543 48.384 207.483 51.3601 205.478C54.8117 203.153 58.2992 200.853 61.7548 198.555C61.863 198.484 61.9741 198.425 62.0808 198.349C63.8578 197.086 64.2346 196.72 63.4354 194.73C63.393 194.623 63.4482 194.479 63.4646 194.262C64.355 193.838 65.3562 193.672 66.3598 193.531C67.4385 193.376 68.5199 193.273 69.6039 193.12C71.1457 192.89 71.423 192.562 71.6578 190.876C71.6976 190.731 71.7524 190.59 71.8211 190.456C74.1991 189.125 76.7222 188.84 79.3626 189.77C80.27 190.09 81.1625 190.457 82.0656 190.791C83.5749 191.398 85.2553 191.415 86.7737 190.841C89.2745 189.881 91.7955 188.91 94.2658 187.854C95.7623 187.239 97.0596 186.223 98.0162 184.919C99.2671 183.195 99.2911 182.377 98.0553 180.605C97.9919 180.477 97.944 180.343 97.9126 180.204C98.2378 179.773 98.5714 179.314 98.9207 178.861C100.192 177.22 100.179 175.366 98.5609 174.096C98.4724 173.992 98.4001 173.875 98.3463 173.75C98.6067 173.336 98.8958 172.917 99.147 172.475C100.099 170.798 99.8955 169.652 98.4201 168.406C98.1788 168.201 97.9053 168.036 97.5648 167.796C97.9679 167.261 98.3685 166.775 98.7142 166.255C100.573 163.461 99.4091 161.421 97.0942 160.472C96.3404 160.166 95.5341 159.984 94.7225 159.733C94.6618 159.15 95.1942 158.896 95.5203 158.552C96.6659 157.339 97.6178 155.956 98.3425 154.452C99.4071 152.245 99.3999 150.021 98.5736 147.728C97.9926 146.119 96.5716 145.441 94.85 146.104C93.7591 146.507 92.8282 147.251 92.1958 148.227C91.6742 149.034 91.1219 149.818 90.5696 150.602C89.5259 152.089 87.9443 153.11 86.1587 153.45C83.9556 153.926 81.7938 154.563 79.8632 155.745C78.4439 156.613 77.0781 157.565 75.773 158.597C75.0611 159.145 74.4696 159.834 74.0352 160.621C72.9428 162.715 71.5036 164.655 70.8873 166.971C70.168 169.674 68.4232 171.383 65.8422 172.489C64.7276 171.573 63.6034 171.994 62.5192 172.674C61.0556 173.597 59.6103 174.544 58.158 175.487C57.7327 175.762 57.3191 176.05 56.9005 176.332C56.3197 176.11 55.8018 175.766 55.2728 175.743C54.6572 175.717 54.02 175.94 53.4069 176.107C50.6846 176.861 48.0776 177.979 45.6565 179.431C41.2352 182.032 36.6589 184.337 32.0436 186.57C23.1554 190.861 14.5581 195.703 5.82343 200.285C0.26622 203.201 -5.33577 206.034 -10.9826 208.783C-19.114 212.731 -27.0555 217.02 -34.957 221.394C-42.8038 225.74 -50.7687 229.865 -59.0627 233.314C-61.3105 234.248 -63.5886 235.115 -65.8722 235.953C-71.6485 238.076 -77.3786 240.303 -82.9736 242.871L-81.1665 244.878C-77.4115 243.07 -73.5618 241.489 -69.6502 240.053C-62.3691 237.381 -55.1278 234.62 -48.1863 231.13C-41.4254 227.741 -34.7442 224.2 -28.1427 220.506C-23.6104 217.987 -18.9676 215.666 -14.3704 213.264C-13.9169 213.028 -13.4449 212.828 -12.9589 212.668C-12.8455 212.63 -12.6513 212.845 -12.4933 212.943L-12.4924 212.943L-11.7672 212.037L-11.6265 212.164L-12.4906 212.942L-12.4933 212.943C-12.8384 213.085 -13.198 213.204 -13.5286 213.377C-17.3831 215.397 -21.2393 217.418 -25.0811 219.467C-25.553 219.716 -26.1868 219.838 -26.3818 220.638C-26.1194 220.671 -25.8663 220.784 -25.6749 220.717C-25.0056 220.489 -24.3531 220.214 -23.7219 219.896C-19.5785 217.738 -15.4461 215.552 -11.3057 213.383C-9.77567 212.583 -8.24039 211.784 -6.70002 211.025C-0.965153 208.182 4.76367 205.319 10.5292 202.537C12.6014 201.535 14.771 200.742 16.8985 199.839C17.348 199.621 17.7668 199.344 18.1442 199.017C18.2222 198.947 18.1622 198.664 18.1106 198.494C18.0827 198.415 17.9019 198.345 17.7953 198.349C17.6085 198.369 17.4262 198.419 17.2558 198.498C14.0889 199.876 10.9213 201.256 7.75302 202.637C7.40739 202.803 7.04873 202.941 6.68065 203.049C6.53705 203.084 6.34456 202.93 6.17436 202.861C6.1353 202.884 6.10055 202.912 6.06837 202.945C5.84177 203.172 5.74473 203.589 5.19957 203.631C5.19524 203.631 5.19091 203.632 5.18653 203.632C5.59298 203.31 5.87921 203.086 6.16932 202.855C8.1518 201.839 10.1436 200.849 12.1099 199.804C15.9456 197.768 19.7637 195.696 23.5931 193.645C24.098 193.376 24.622 193.147 25.1183 192.906C25.3901 193.208 25.0768 193.929 25.8073 193.754C26.1766 193.654 26.5343 193.515 26.8744 193.34C30.5982 191.496 34.3179 189.648 38.0338 187.796C38.1634 187.703 38.2824 187.596 38.3887 187.477L38.106 186.415C39.4378 185.712 40.7909 185.01 42.1344 184.286C44.093 183.218 46.0351 182.124 47.9826 181.066C48.1494 180.976 48.4 181.042 48.6092 181.054C48.6217 181.054 48.634 181.055 48.6462 181.055C49.2204 180.329 49.3251 180.292 49.969 180.562C50.123 180.36 50.2918 180.144 50.453 179.938L50.5617 180.032L49.9763 180.559L48.6424 181.025ZM-2.19081 207.741L-1.59989 207.208L-1.56298 207.249L-2.1787 207.746C-2.29681 207.747 -2.41485 207.74 -2.53229 207.727C-2.59038 207.709 -2.64432 207.68 -2.69099 207.641C-2.63351 207.626 -2.57123 207.587 -2.52412 207.602C-2.40997 207.64 -2.29864 207.687 -2.19081 207.741ZM97.2158 176.38C97.2484 177.097 96.8848 177.552 96.4402 177.926C95.7084 178.544 94.9416 179.12 94.1847 179.707C93.8637 179.914 93.5586 180.145 93.272 180.397C93.1212 180.565 93.0186 180.77 92.9752 180.992C92.9318 181.213 92.949 181.442 93.0252 181.655C93.0837 181.877 93.2125 182.074 93.3923 182.216C93.5721 182.359 93.7931 182.439 94.0221 182.445C94.5248 182.495 95.0426 182.423 95.5462 182.422C95.635 182.41 95.7256 182.417 95.8116 182.443C95.8977 182.468 95.9774 182.512 96.0455 182.571C96.1136 182.629 96.1685 182.702 96.2065 182.783C96.2446 182.864 96.265 182.953 96.2663 183.043C95.5589 184.152 94.5327 185.022 93.3219 185.539C90.9017 186.55 88.4628 187.511 86.0238 188.476C84.9953 188.876 83.8505 188.86 82.8312 188.431C82.0491 188.123 81.267 187.815 80.496 187.534C77.8367 186.489 74.8841 186.482 72.2263 187.516C71.8248 187.672 71.4026 187.779 70.8677 187.943L69.4133 183.712C68.9185 182.255 68.3914 180.806 67.9435 179.333C67.5214 177.945 66.8206 176.633 66.68 175.112C67.4294 174.637 68.1095 174.163 68.8268 173.76C70.9478 172.565 72.2769 170.768 72.9952 168.468C73.2601 167.619 73.5153 166.751 74.3383 166.223C74.5216 166.105 74.5995 165.795 74.6945 165.564C75.0431 164.674 75.3969 163.785 75.7107 162.881C76.1196 161.799 76.8345 160.86 77.7685 160.178C80.4197 158.078 83.3558 156.582 86.7035 155.946C89.3798 155.439 91.3291 153.856 92.9017 151.735C93.3568 151.12 93.7454 150.452 94.1835 149.822C94.6217 149.191 95.1156 148.615 96.0266 148.55C96.1794 148.758 96.3066 148.983 96.4055 149.221C96.8324 150.652 96.6969 152.19 96.0267 153.521C95.062 155.439 93.6937 157.032 92.131 158.473C91.3691 159.159 90.6072 159.844 89.8707 160.555C89.4376 160.982 89.2377 161.53 89.5261 162.134C89.8144 162.738 90.3309 162.934 90.9554 162.892C91.53 162.854 92.103 162.776 92.6768 162.718C93.3124 162.655 93.9496 162.594 94.5885 162.536C95.2331 162.495 95.8757 162.649 96.4329 162.977C97.0438 163.305 97.2063 163.803 96.891 164.424C96.4159 165.361 95.6611 166.048 94.8568 166.698C94.4909 166.953 94.1473 167.239 93.8293 167.552C93.6715 167.714 93.5589 167.915 93.5028 168.134C93.4468 168.354 93.4492 168.584 93.5097 168.802C93.5703 169.021 93.687 169.22 93.8482 169.379C94.0093 169.539 94.2094 169.654 94.4283 169.712C95.0329 169.92 95.6854 169.987 96.2841 170.208C96.6027 170.322 96.8569 170.623 97.169 170.865C97.0281 171.121 96.8674 171.364 96.6885 171.595C96.4265 171.874 96.1412 172.131 95.8356 172.363C95.4371 172.667 94.9889 172.939 94.573 173.24C93.7335 173.847 93.5151 174.307 93.7415 174.977C94.0012 175.725 94.6462 175.802 95.3017 175.847C95.9572 175.891 96.6027 175.782 97.2158 176.38ZM63.2255 175.2C63.5427 176.176 64.377 176.505 64.6518 177.374C65.8944 181.273 67.2217 185.146 68.5039 189.033C68.6606 189.506 68.7398 190.005 68.8693 190.559C67.7123 190.997 66.5437 190.966 65.4282 191.147C64.3127 191.328 63.2638 191.838 62.0349 191.807C61.5777 190.309 61.1708 188.9 60.7189 187.505C60.2437 186.046 59.7437 184.596 59.2191 183.156C58.7209 181.8 57.7959 180.608 57.5292 179.127C58.0559 178.707 58.4835 178.319 58.9518 178.002C60.2718 177.113 61.6134 176.253 63.2204 175.194L63.2255 175.2ZM1.12989 205.932L1.28701 205.632C1.31561 205.656 1.34097 205.684 1.3625 205.715C1.28868 205.791 1.21105 205.863 1.12989 205.932ZM-0.242032 206.586C-0.2488 206.545 -0.273833 206.48 -0.259152 206.47C-0.184822 206.403 -0.0836276 206.366 0.00580354 206.316C0.0108866 206.355 0.0340274 206.422 0.0193465 206.432C-0.0633765 206.49 -0.154275 206.534 -0.242032 206.586ZM-3.86704 208.244L-3.89422 208.36L-3.97521 208.315L-3.86704 208.244ZM-10.3796 211.561L-10.337 211.421L-10.2461 211.481L-10.3796 211.561ZM2.51223 205.142L2.54292 205.027L2.61856 205.074L2.51223 205.142ZM4.01476 204.36L3.87026 204.412L3.94448 204.278L4.01476 204.36Z" fill="#0F143A" fill-opacity="0.8"/>
<path d="M-60.003 268.416C-59.838 268.227 -59.6508 268.059 -59.4455 267.915C-54.5743 265.216 -49.7224 262.48 -44.8172 259.845C-42.5077 258.606 -40.0932 257.566 -37.7399 256.405C-37.1814 256.111 -36.6491 255.769 -36.149 255.384C-36.0802 255.322 -36.1309 255.03 -36.1935 254.867C-36.2346 254.821 -36.2867 254.786 -36.3448 254.766C-36.4029 254.745 -36.4652 254.739 -36.5261 254.749C-36.9498 254.887 -37.3675 255.047 -37.7791 255.225C-43.0296 257.47 -47.9974 260.255 -52.9381 263.098C-55.5445 264.598 -58.1639 266.076 -60.7768 267.564L-60.003 268.416Z" fill="#0F143A" fill-opacity="0.8"/>
<path d="M-64.1323 263.83C-61.0544 261.994 -57.9752 260.159 -54.8949 258.323C-52.0867 256.655 -49.2669 255.004 -46.4602 253.33C-46.0272 253.064 -45.6204 252.758 -45.2452 252.415C-45.1523 252.332 -45.1492 252.028 -45.2261 251.902C-45.2833 251.834 -45.3566 251.782 -45.4392 251.749C-45.5217 251.717 -45.611 251.706 -45.6989 251.717C-45.9955 251.821 -46.2779 251.962 -46.5394 252.136C-52.3738 255.621 -58.2027 259.103 -64.0261 262.58C-64.3095 262.729 -64.6009 262.862 -64.8992 262.978L-64.1323 263.83Z" fill="#0F143A" fill-opacity="0.8"/>
<path d="M-2.17875 332.637C-1.0033 331.663 0.163772 330.679 1.34742 329.718C4.16803 327.425 6.99627 325.155 9.81575 322.849C10.2563 322.483 10.6544 322.069 11.0027 321.615C11.1031 321.487 11.0038 321.142 10.9002 320.948C10.8565 320.866 10.5347 320.849 10.3949 320.914C10.1808 321.046 9.98254 321.202 9.80385 321.378C5.55316 324.841 1.30304 328.305 -2.94652 331.769L-2.17875 332.637Z" fill="#0F143A" fill-opacity="0.8"/>
<path d="M-78.0724 248.348C-78.067 248.346 -78.0616 248.344 -78.0562 248.342C-77.5862 248.17 -77.1043 248.029 -76.6502 247.82C-74.2209 246.699 -71.7958 245.567 -69.3748 244.424C-68.8188 244.16 -68.1639 243.972 -68.0034 243.189C-68.1393 243.075 -68.2954 242.986 -68.4635 242.929C-68.6583 242.918 -68.8521 242.961 -69.0231 243.055C-72.0167 244.463 -75.0097 245.885 -78.0023 247.32C-78.2079 247.448 -78.3977 247.6 -78.5679 247.773C-78.5741 247.779 -78.5804 247.786 -78.5866 247.792L-78.0724 248.348Z" fill="#0F143A" fill-opacity="0.8"/>
<path d="M214.843 178.354C214.786 178.581 214.588 178.952 214.625 179.296C214.708 179.735 214.856 180.161 215.064 180.557C215.445 181.439 215.872 182.303 216.236 183.193C216.968 184.981 216.872 186.626 214.942 188.384C213.905 189.318 212.661 190.026 211.514 190.837C211.187 191.03 210.886 191.262 210.615 191.528C210.465 191.698 210.372 191.911 210.351 192.138C210.33 192.364 210.381 192.592 210.498 192.787C210.728 193.215 211.094 193.502 211.581 193.445C212.023 193.385 212.455 193.265 212.864 193.087C214.229 192.532 215.569 191.929 216.923 191.355C217.632 191.054 218.335 190.759 219.056 190.484C221.608 189.465 223.821 190.084 225.779 191.911C226.058 192.173 226.297 192.487 226.607 192.715C226.859 192.909 227.145 193.055 227.45 193.147C227.635 193.199 227.831 193.205 228.019 193.164C228.207 193.124 228.383 193.038 228.53 192.915C228.678 192.791 228.793 192.634 228.865 192.456C228.938 192.277 228.967 192.084 228.948 191.892C228.855 191.39 228.692 190.902 228.465 190.444C228.043 189.512 227.552 188.608 227.128 187.673C226.409 186.084 226.132 184.332 226.326 182.601C226.512 180.794 227.168 179.258 228.889 178.347C229.226 178.164 229.528 177.924 229.783 177.636C229.988 177.388 230.104 177.077 230.111 176.754C230.118 176.431 230.017 176.115 229.822 175.857C229.616 175.652 229.347 175.522 229.059 175.487C228.77 175.453 228.479 175.516 228.231 175.666C226.946 176.388 225.699 177.17 224.408 177.874C223.352 178.474 222.259 179.008 221.135 179.471C219.521 180.104 217.987 180.058 216.821 178.499C216.701 178.349 216.556 178.221 216.392 178.12C216.143 177.986 215.857 177.936 215.578 177.978C215.299 178.021 215.041 178.152 214.843 178.354ZM223.846 181.315C223.829 181.853 223.804 182.409 223.797 182.962C223.79 183.515 223.779 183.991 223.821 184.483C223.866 185.053 223.97 185.62 224.051 186.188C224.132 186.757 224.392 187.232 224.305 187.931C222.422 187.335 220.609 187.399 218.732 187.84C218.893 186.82 219.125 185.957 219.139 185.091C219.153 184.224 218.941 183.376 218.853 182.602L223.846 181.315Z" fill="#0F143A" fill-opacity="0.8"/>
<path d="M35.1123 147.646C34.2554 148.563 33.4951 149.356 32.761 150.158C31.524 151.505 30.0306 151.726 28.3686 151.151C27.642 150.901 26.9483 150.564 26.2284 150.287C25.878 150.133 25.508 150.029 25.129 149.978C24.9043 149.944 24.6747 149.982 24.4736 150.087C24.2725 150.193 24.1103 150.359 24.0106 150.563C23.7951 151 23.7664 151.458 24.1076 151.826C24.501 152.245 24.9312 152.627 25.3931 152.969C26.3793 153.691 27.4041 154.351 28.3509 155.114C30.8115 157.1 31.0311 158.252 29.5814 161.093C29.3308 161.537 29.1061 161.997 28.9085 162.468C28.8144 162.709 28.8027 162.976 28.8753 163.225C28.9478 163.475 29.1006 163.693 29.3098 163.848C29.5114 164.009 29.7587 164.101 30.0161 164.112C30.2734 164.123 30.5274 164.052 30.741 163.909C31.163 163.63 31.5327 163.263 31.9352 162.948C33.1911 161.962 34.4322 160.953 35.718 160.004C37.4332 158.737 39.2253 158.533 41.0634 159.794C41.3777 160.016 41.7123 160.207 42.0626 160.365C42.6837 160.633 43.3262 160.48 43.6251 160.042C43.8047 159.772 43.8744 159.443 43.8199 159.123C43.7654 158.803 43.5908 158.515 43.3318 158.318C42.6178 157.787 41.8354 157.344 41.1083 156.828C40.1158 156.126 39.1216 155.421 38.1765 154.659C36.994 153.72 36.7185 152.446 37.0378 151.018C37.1413 150.587 37.268 150.153 37.3687 149.708C37.4698 149.338 37.5494 148.962 37.6069 148.582C37.6717 148.041 37.5273 147.537 37.0277 147.251C36.7771 147.101 36.4861 147.034 36.1956 147.057C35.9051 147.081 35.6295 147.195 35.4076 147.384C35.3026 147.464 35.2039 147.552 35.1123 147.646ZM31.0229 154.17C32.2135 153.526 33.1909 152.994 34.4253 152.324C34.409 154.175 35.4658 155.318 36.4332 156.617C35.8329 156.985 35.3152 157.334 34.7667 157.625C34.2182 157.916 33.7971 158.387 33.0389 158.445C32.9994 156.716 32.2361 155.412 31.0229 154.17Z" fill="#0F143A" fill-opacity="0.8"/>
<path d="M136.016 148.453C135.932 148.681 135.821 148.842 135.862 148.909C135.962 149.062 136.102 149.184 136.265 149.265C136.389 149.299 136.521 149.292 136.641 149.244C138.422 148.73 140.21 148.23 141.971 147.69C142.585 147.498 142.817 147.03 142.567 146.715C142.252 146.324 141.917 146.494 141.545 146.623C140.085 147.094 138.61 147.518 137.148 147.984C136.762 148.12 136.384 148.276 136.016 148.453Z" fill="#0F143A" fill-opacity="0.8"/>
<path d="M135.731 158.495C136.362 158.71 136.727 158.428 136.631 158.022C136.324 156.665 135.91 155.331 135.503 153.997C135.468 153.883 135.171 153.766 135.02 153.793C134.936 153.821 134.861 153.871 134.803 153.937C134.744 154.003 134.704 154.084 134.687 154.171C134.697 154.552 134.753 154.93 134.851 155.299C135.126 156.34 135.421 157.377 135.731 158.495Z" fill="#0F143A" fill-opacity="0.8"/>
<path d="M134.325 147.394C134.514 147.413 134.658 147.476 134.746 147.427C134.916 147.347 135.058 147.218 135.156 147.057C135.799 145.824 136.437 144.585 137.027 143.328C137.045 143.215 137.033 143.098 136.992 142.991C136.951 142.883 136.883 142.788 136.794 142.715C136.641 142.63 136.222 142.71 136.155 142.841C135.464 144.186 134.815 145.55 134.181 146.923C134.134 147.047 134.272 147.263 134.325 147.394Z" fill="#0F143A" fill-opacity="0.8"/>
<path d="M131.583 153.903C131.468 153.976 131.367 154.068 131.282 154.174C130.713 155.307 130.145 156.439 129.62 157.59C129.59 157.702 129.589 157.821 129.616 157.934C129.644 158.047 129.699 158.152 129.777 158.239C129.883 158.274 129.996 158.281 130.106 158.26C130.216 158.239 130.318 158.189 130.403 158.116C131.035 156.949 131.632 155.764 132.194 154.56C132.258 154.425 132.046 154.134 131.915 153.947C131.866 153.877 131.687 153.914 131.583 153.903Z" fill="#0F143A" fill-opacity="0.8"/>
<path d="M125.286 153.876C126.679 153.752 127.944 153.154 129.202 152.564C129.491 152.428 129.715 152.102 129.459 151.779C129.375 151.695 129.273 151.632 129.161 151.595C129.048 151.558 128.929 151.548 128.812 151.565C127.733 151.967 126.668 152.406 125.614 152.872C125.244 153.033 125.002 153.339 125.286 153.876Z" fill="#0F143A" fill-opacity="0.8"/>
<path d="M131.916 147.924C131.985 147.774 132.04 147.714 132.036 147.657C131.944 146.218 131.181 145.053 130.45 143.875C130.384 143.816 130.303 143.773 130.216 143.753C130.129 143.732 130.039 143.733 129.953 143.756C129.823 143.802 129.641 144.071 129.679 144.162C130.19 145.388 130.717 146.601 131.277 147.783C131.34 147.909 131.712 147.885 131.916 147.924Z" fill="#0F143A" fill-opacity="0.8"/>
<path d="M136.773 151.652C136.806 151.774 136.799 151.939 136.878 152.007C137.902 152.924 139.186 153.333 140.437 153.8C140.541 153.841 140.803 153.672 140.874 153.538C140.944 153.403 140.934 153.089 140.841 153.024C139.69 152.208 138.469 151.539 137.024 151.4C136.951 151.397 136.861 151.566 136.773 151.652Z" fill="#0F143A" fill-opacity="0.8"/>
<path d="M125.88 147.767C125.913 147.984 125.876 148.219 125.974 148.313C126.798 149.117 127.816 149.694 128.928 149.986C129.017 149.982 129.103 149.956 129.179 149.91C129.255 149.865 129.32 149.802 129.367 149.726C129.426 149.598 129.376 149.289 129.277 149.23C128.35 148.682 127.406 148.16 126.447 147.665C126.334 147.595 126.116 147.716 125.88 147.767Z" fill="#0F143A" fill-opacity="0.8"/>
<path d="M-19.0741 238.414C-18.4569 238.651 -18.0405 238.344 -17.6063 238.104C-14.9981 236.603 -12.3848 235.107 -9.78139 233.596C-3.24676 229.8 3.28692 226 9.81955 222.197C10.5906 221.749 11.3603 221.292 12.1118 220.808C12.2219 220.736 12.2698 220.456 12.2353 220.298C12.2216 220.235 12.1924 220.176 12.1503 220.126C12.1083 220.077 12.0546 220.039 11.9943 220.015C11.9339 219.991 11.8685 219.982 11.8041 219.99C11.7398 219.998 11.6783 220.021 11.6252 220.058C10.3677 220.694 9.10386 221.316 7.88368 222.02C-0.462963 226.908 -8.80198 231.808 -17.1333 236.72C-17.7367 237.083 -18.3213 237.477 -18.8848 237.899C-19.0036 237.969 -19.0047 238.199 -19.0741 238.414Z" fill="#0F143A" fill-opacity="0.8"/>
<path d="M26.98 211.162C27.9571 211.47 28.4275 211.077 28.918 210.811C31.2229 209.555 33.4973 208.24 35.8198 207.023C41.3936 204.106 46.5823 200.571 51.9028 197.232C53.2068 196.415 54.5236 195.624 55.8044 194.775C56.6336 194.227 56.9167 193.682 56.6008 193.481C56.0306 193.12 55.6431 193.591 55.2421 193.84C50.5838 196.779 45.9713 199.792 41.2689 202.656C37.9901 204.653 34.5869 206.446 31.2476 208.342C30.0774 209.004 28.9201 209.692 27.7728 210.391C27.4838 210.621 27.2182 210.88 26.98 211.162Z" fill="#0F143A" fill-opacity="0.8"/>
<path d="M30.4242 213.541C31.2455 213.601 31.7106 213.243 32.1907 212.936C32.2405 212.904 32.2903 212.872 32.3401 212.84C34.878 211.217 37.4139 209.595 39.9386 207.957C43.1565 205.87 46.3762 203.78 49.5762 201.662C49.7056 201.576 49.835 201.49 49.9643 201.405C52.4456 199.76 54.9269 198.114 57.5506 196.692C57.828 196.536 58.0746 196.331 58.2782 196.087C58.3259 196.011 58.3547 195.925 58.3621 195.836C58.3694 195.746 58.3551 195.656 58.3203 195.574C58.2668 195.504 58.1972 195.449 58.1175 195.412C58.0377 195.376 57.9503 195.359 57.8629 195.365C57.5628 195.457 57.2749 195.585 57.0049 195.746C53.8424 197.443 50.903 199.492 47.9029 201.448C44.6362 203.577 41.3705 205.71 38.1058 207.846C35.9122 209.281 33.7196 210.72 31.5281 212.163C31.0804 212.458 30.5406 212.718 30.4242 213.541Z" fill="#0F143A" fill-opacity="0.8"/>
<path d="M-30.8692 252.081C-30.3388 252.11 -30.0027 252.229 -29.7823 252.115C-28.908 251.722 -28.0654 251.262 -27.2621 250.74C-19.9343 245.691 -12.2009 241.309 -4.53278 236.817C-4.04471 236.521 -3.58171 236.185 -3.14839 235.814C-3.04991 235.725 -3.00881 235.371 -3.07718 235.321C-3.27284 235.196 -3.49596 235.12 -3.72722 235.1C-3.83108 235.085 -3.95893 235.194 -4.06863 235.259C-9.56425 238.52 -15.1045 241.716 -20.5592 245.045C-23.6715 246.94 -26.6658 249.025 -29.7028 251.041C-30.113 251.363 -30.5026 251.71 -30.8692 252.081Z" fill="#0F143A" fill-opacity="0.8"/>
<path d="M1.43827 231.67C1.94764 232.146 2.25093 232.004 2.52293 231.851C3.52506 231.286 4.56784 230.759 5.51178 230.118C12.4933 225.357 19.7555 221.038 26.8915 216.516C27.4704 216.123 28.0261 215.697 28.5557 215.24C28.5896 215.191 28.61 215.133 28.6149 215.073C28.6199 215.013 28.6091 214.953 28.5838 214.898C28.468 214.769 28.2522 214.586 28.1423 214.62C27.7174 214.759 27.3099 214.946 26.9278 215.177C21.2839 218.704 15.6352 222.221 10.0159 225.786C7.58287 227.328 5.21232 228.967 2.82382 230.574C2.36636 230.888 1.94638 231.266 1.43827 231.67Z" fill="#0F143A" fill-opacity="0.8"/>
<path d="M-61.9801 256.841C-61.1774 257.198 -60.6713 256.833 -60.1839 256.594C-58.3996 255.72 -56.6288 254.822 -54.8715 253.899C-48.5265 250.555 -42.1863 247.2 -35.851 243.835C-35.2331 243.505 -34.6575 243.098 -34.0637 242.719C-33.7902 242.537 -33.8396 242.287 -34.2462 241.743C-43.3613 246.518 -52.4614 251.348 -61.4965 256.294C-61.6817 256.454 -61.8444 256.638 -61.9801 256.841Z" fill="#0F143A" fill-opacity="0.8"/>
<path d="M-58.1594 238.17C-57.6633 238.28 -57.41 238.423 -57.2296 238.362C-56.4992 238.128 -55.7862 237.843 -55.0959 237.51C-51.1025 235.477 -47.1255 233.417 -43.1362 231.361C-41.0297 230.277 -38.9168 229.208 -36.8217 228.105C-36.0918 227.719 -35.3956 227.271 -34.7013 226.823C-34.6971 226.821 -34.693 226.818 -34.6888 226.815C-34.423 226.643 -34.3578 226.062 -34.579 225.984C-34.8043 225.895 -35.0546 225.893 -35.2808 225.978C-37.6116 227.183 -39.9227 228.42 -42.2469 229.635C-47.1238 232.191 -52.0019 234.746 -56.8811 237.299C-57.3221 237.566 -57.7488 237.857 -58.1594 238.17Z" fill="#0F143A" fill-opacity="0.8"/>
<path d="M-72.7584 249.205C-71.5983 249.264 -70.8522 248.886 -70.0983 248.565C-64.6907 246.242 -59.2834 243.914 -53.8765 241.581C-52.9373 241.174 -52.0063 240.751 -51.075 240.324C-50.7771 240.211 -50.4978 240.054 -50.2464 239.858C-50.0787 239.687 -49.9796 239.461 -49.9675 239.222C-49.9546 238.967 -50.412 238.829 -50.7676 238.988C-52.1714 239.607 -53.5642 240.254 -54.968 240.873C-60.3581 243.246 -65.7509 245.605 -71.1261 247.999C-71.6661 248.228 -72.3633 248.306 -72.7584 249.205Z" fill="#0F143A" fill-opacity="0.8"/>
<path d="M7.11069 207.279C5.18053 207.964 -9.93164 216.378 -13.276 218.616C-13.6261 218.895 -13.9587 219.194 -14.272 219.513C-13.8327 219.59 -13.5703 219.728 -13.4033 219.652C-12.4772 219.223 -11.5538 218.776 -10.6612 218.273C-5.97708 215.628 -1.3097 212.964 3.36772 210.311C4.53791 209.649 5.72916 209.025 6.896 208.359C7.2416 208.153 7.43672 207.839 7.11069 207.279Z" fill="#0F143A" fill-opacity="0.8"/>
<path d="M14.8488 202.521C15.4887 203.116 15.911 202.796 16.2851 202.621C17.6811 201.982 19.0594 201.304 20.4332 200.614C25.411 198.121 30.3879 195.621 35.3639 193.116C35.9898 192.802 36.6527 192.563 37.0091 191.726C36.7187 191.65 36.4643 191.494 36.276 191.535C35.9094 191.644 35.5563 191.793 35.2232 191.981C30.4713 194.356 25.7209 196.736 20.9721 199.12C19.3709 199.924 17.7892 200.764 16.209 201.61C15.7659 201.851 15.3721 202.168 14.8488 202.521Z" fill="#0F143A" fill-opacity="0.8"/>
<path d="M-9.06599 220.677C-8.57412 220.801 -8.32988 220.948 -8.15673 220.89C-7.55196 220.688 -6.96016 220.45 -6.38461 220.175C-1.8606 218.077 2.49939 215.626 6.85058 213.18C7.0647 213.06 7.27879 212.939 7.49289 212.819C8.3855 212.316 9.29993 211.837 10.1741 211.313C10.5423 211.067 10.8851 210.786 11.1973 210.472C11.2318 210.423 11.2524 210.364 11.2571 210.304C11.2617 210.243 11.2502 210.183 11.2238 210.128C11.1205 209.981 10.9652 209.88 10.7897 209.844C10.5367 209.872 10.2929 209.954 10.0753 210.086C4.16164 213.514 -1.86385 216.736 -7.93188 219.888C-8.32314 220.131 -8.70168 220.395 -9.06599 220.677Z" fill="#0F143A" fill-opacity="0.8"/>
<path d="M-42.1227 235.543C-41.2596 235.725 -40.7759 235.417 -40.2888 235.147C-37.9389 233.845 -35.594 232.537 -33.2426 231.239C-30.3877 229.664 -27.5179 228.109 -24.6714 226.525C-24.048 226.202 -23.4482 225.835 -22.8763 225.428C-22.5315 225.168 -22.4865 224.774 -23.0606 224.454C-29.3997 227.637 -35.5642 231.258 -41.701 234.924C-41.842 235.011 -41.9095 235.223 -42.1227 235.543Z" fill="#0F143A" fill-opacity="0.8"/>
<path d="M-9.19049 228.819C-8.42373 229.185 -8.00166 228.835 -7.57645 228.597C-7.44165 228.522 -7.30684 228.448 -7.17204 228.373C-4.9641 227.145 -2.75745 225.918 -0.570881 224.652C2.53397 222.868 5.6036 221.046 8.68497 219.236C9.02447 219.064 9.33862 218.846 9.61865 218.588C9.75166 218.448 9.70724 218.137 9.74222 217.903C9.50824 217.867 9.21918 217.73 9.04812 217.816C7.97359 218.375 6.91512 218.967 5.86972 219.581C1.46369 222.162 -2.94234 224.742 -7.32151 227.352C-7.95639 227.738 -8.71078 227.999 -9.19049 228.819Z" fill="#0F143A" fill-opacity="0.8"/>
<path d="M14.6387 215.442C15.4772 215.513 16.0472 215.044 16.6472 214.683C19.3351 213.079 22.0066 211.45 24.6766 209.815C26.9092 208.449 29.142 207.08 31.3535 205.676C31.9215 205.277 32.4589 204.835 32.9614 204.356C33.0153 204.308 32.9933 204.111 32.9497 204.029C32.906 203.947 32.7422 203.821 32.6615 203.84C32.3515 203.885 32.0512 203.98 31.773 204.124C27.2121 206.948 22.6566 209.782 18.1065 212.626C17.0757 213.268 16.0482 213.913 15.0272 214.569C15.0166 214.575 15.0059 214.582 14.9952 214.588C14.7296 214.752 14.4522 214.922 14.6387 215.442Z" fill="#0F143A" fill-opacity="0.8"/>
<path d="M58.3675 188.873C58.3543 188.862 58.3409 188.851 58.3273 188.841C58.138 188.692 57.9098 188.601 57.6699 188.579C57.4128 188.555 57.1548 188.611 56.9312 188.739C56.1986 189.129 55.4561 189.504 54.7267 189.901C50.5742 192.169 46.4525 194.493 42.5121 197.12C41.8221 197.579 41.1614 198.09 40.5094 198.602C40.3498 198.766 40.2144 198.952 40.1072 199.154C40.4324 199.556 40.7171 199.431 41.0008 199.257C42.7391 198.198 44.4728 197.089 46.2429 196.065C49.7809 194.016 53.3359 191.992 56.9079 189.995C57.4502 189.704 57.9318 189.312 58.3273 188.841C58.3391 188.827 58.3508 188.812 58.3624 188.798L58.3662 188.794L58.3671 188.848L58.3675 188.873Z" fill="#0F143A" fill-opacity="0.8"/>
<path d="M-33.5348 234.708C-32.9946 234.788 -32.7367 234.91 -32.5502 234.833C-32.0078 234.646 -31.4801 234.419 -30.9713 234.154C-26.877 232.042 -22.7892 229.92 -18.7081 227.789C-18.4234 227.645 -18.1472 227.485 -17.8805 227.31C-17.4619 227.028 -17.29 226.576 -17.5186 226.367C-17.793 226.115 -18.0904 226.177 -18.3914 226.343C-19.0664 226.715 -19.7463 227.081 -20.4168 227.435C-24.3114 229.51 -28.2108 231.577 -32.0987 233.664C-32.5965 233.985 -33.0759 234.333 -33.5348 234.708Z" fill="#0F143A" fill-opacity="0.8"/>
<path d="M-57.9894 247.633C-57.1346 247.349 -56.6428 247.231 -56.1853 247.021C-52.1155 245.181 -48.0481 243.332 -43.9832 241.474C-43.5156 241.259 -43.064 241.012 -42.6318 240.733C-42.628 240.73 -42.6242 240.728 -42.6204 240.725C-42.3115 240.528 -41.9617 240.304 -42.1369 239.825C-42.2519 239.506 -42.5999 239.482 -43.1205 239.749C-44.0316 240.232 -44.926 240.7 -45.8505 241.134C-49.2001 242.709 -52.5593 244.266 -55.9089 245.841C-56.4849 246.115 -57.0456 246.421 -57.5884 246.756C-57.7241 246.844 -57.7479 247.068 -57.9894 247.633Z" fill="#0F143A" fill-opacity="0.8"/>
<path d="M-37.1493 248.126C-36.3633 248.245 -35.7975 247.956 -35.2551 247.679C-35.2354 247.669 -35.2157 247.659 -35.1961 247.649C-32.4912 246.276 -29.7953 244.884 -27.1005 243.492C-26.7817 243.327 -26.4629 243.163 -26.1441 242.998C-25.9664 242.923 -25.81 242.805 -25.6888 242.655C-25.5523 242.46 -25.4736 242.23 -25.4617 241.992C-25.4626 241.733 -25.9076 241.628 -26.2702 241.819C-27.4073 242.425 -28.5226 243.054 -29.6483 243.643C-31.8033 244.773 -33.9743 245.871 -36.1194 247.016C-36.5223 247.234 -37.1326 247.311 -37.1493 248.126Z" fill="#0F143A" fill-opacity="0.8"/>
<path d="M-24.8236 236.883C-24.5241 237.025 -24.3463 237.188 -24.203 237.161C-23.8273 237.091 -23.4624 236.972 -23.1178 236.808C-20.7103 235.628 -18.3085 234.433 -15.9126 233.225C-15.5269 233.003 -15.1749 232.727 -14.8674 232.406C-14.7652 232.314 -14.7263 231.968 -14.793 231.92C-14.9672 231.79 -15.2716 231.639 -15.4241 231.709C-16.0595 232.001 -16.6499 232.384 -17.2759 232.702C-19.4817 233.854 -21.6956 234.994 -23.8982 236.154C-24.2264 236.371 -24.536 236.614 -24.8236 236.883Z" fill="#0F143A" fill-opacity="0.8"/>
<path d="M-68.7037 253.174C-68.2881 253.195 -67.9656 253.302 -67.7216 253.211C-65.6349 252.398 -63.6562 251.333 -61.8298 250.038C-61.477 249.795 -61.4278 249.386 -62.0488 249.048C-64.0791 250.201 -66.1957 251.378 -68.2938 252.575C-68.4381 252.658 -68.5019 252.867 -68.7037 253.174Z" fill="#0F143A" fill-opacity="0.8"/>
<path d="M19.0146 205.698C19.466 205.735 19.9198 205.671 20.3428 205.511C20.7657 205.35 21.1471 205.097 21.459 204.769C21.5519 204.685 21.551 204.389 21.474 204.266C21.4195 204.198 21.3487 204.145 21.2682 204.112C21.1878 204.079 21.1002 204.067 21.0138 204.077C20.2539 204.342 19.516 204.663 19.0146 205.698Z" fill="#0F143A" fill-opacity="0.8"/>
<path d="M22.8252 213.543L22.7836 213.871C22.8942 213.859 23.0401 213.883 23.1053 213.821C23.1705 213.759 23.1424 213.615 23.1569 213.505L22.8252 213.543Z" fill="#0F143A" fill-opacity="0.8"/>
<path d="M1.14634 314.431C2.15091 313.993 2.86112 313.346 3.61272 312.757C9.71524 307.978 15.8094 303.188 21.8952 298.388C27.5775 293.899 33.1178 289.241 38.6449 284.561C43.1418 280.755 47.7759 277.109 52.4332 273.496C55.7658 270.897 59.2263 268.466 62.6122 265.934C63.4217 265.308 64.1951 264.638 64.929 263.925C65.0349 263.83 64.9489 263.465 64.8633 263.266C64.8316 263.193 64.5161 263.19 64.3593 263.24C64.187 263.323 64.0289 263.432 63.8907 263.564C60.8044 265.854 57.6863 268.105 54.6416 270.448C50.3787 273.733 46.1225 277.026 41.9547 280.427C36.6919 284.721 31.5595 289.17 26.3051 293.472C22.4326 296.645 18.465 299.668 14.5482 302.773C11.8361 304.92 9.13401 307.08 6.44193 309.252C4.84562 310.54 3.26445 311.845 1.69847 313.165C1.36597 313.427 0.92085 313.673 1.14634 314.431Z" fill="#0F143A" fill-opacity="0.8"/>
<path d="M-9.93184 302.277C-9.61856 302.67 -9.31986 302.583 -9.03634 302.413C-7.84096 301.674 -6.63829 300.965 -5.45021 300.196C-0.173376 296.821 5.09782 293.442 10.3633 290.057C11.1166 289.575 11.8603 289.07 12.5738 288.532C12.8017 288.321 12.9832 288.064 13.1069 287.779C13.1479 287.705 13.0739 287.522 12.9965 287.44C12.9541 287.395 12.9023 287.361 12.8447 287.339C12.7872 287.317 12.7255 287.308 12.6643 287.314C12.4246 287.39 12.1965 287.499 11.9865 287.637C6.94128 290.898 1.89996 294.163 -3.13748 297.432C-4.85183 298.544 -6.56151 299.668 -8.25122 300.818C-8.86148 301.243 -9.53355 301.629 -9.93184 302.277Z" fill="#0F143A" fill-opacity="0.8"/>
<path d="M19.2504 290.69C20.2213 290.979 20.7668 290.505 21.314 290.1C24.9661 287.389 28.6016 284.655 32.2422 281.927C34.0358 280.582 35.8462 279.256 37.6165 277.881C38.6386 277.085 39.614 276.231 40.5896 275.377C40.6731 275.304 40.7566 275.231 40.8402 275.158C40.9238 275.082 40.9047 274.762 40.8267 274.657C40.7665 274.594 40.6916 274.547 40.6087 274.52C40.5259 274.493 40.4378 274.488 40.3523 274.504C40.0074 274.664 39.6816 274.862 39.3807 275.095C34.5855 278.738 29.7902 282.381 24.9949 286.023C23.4114 287.224 21.8428 288.443 20.2894 289.68C19.9248 289.997 19.578 290.334 19.2504 290.69Z" fill="#0F143A" fill-opacity="0.8"/>
<path d="M-10.8431 312.326C-9.93824 312.382 -9.44468 311.951 -8.93681 311.622C-7.37844 310.614 -5.84316 309.572 -4.30343 308.547C-0.843989 306.242 2.6203 303.946 6.06817 301.624C6.69086 301.182 7.2814 300.697 7.83537 300.172C7.91527 300.1 7.85338 299.818 7.78855 299.664C7.74873 299.617 7.69759 299.581 7.64001 299.56C7.58242 299.538 7.52031 299.532 7.4597 299.541C7.15666 299.627 6.86688 299.754 6.59834 299.919C1.2532 303.544 -4.08712 307.178 -9.42255 310.821C-9.92202 311.16 -10.5195 311.438 -10.8431 312.326Z" fill="#0F143A" fill-opacity="0.8"/>
<path d="M25.0841 278.121C25.5014 278.503 25.7781 278.319 26.0217 278.157C26.0322 278.15 26.0427 278.143 26.0531 278.136C27.3852 277.254 28.7125 276.362 30.035 275.459C33.4204 273.157 36.8031 270.851 40.1831 268.538C40.7087 268.18 41.2035 267.778 41.6627 267.338C41.7248 267.286 41.7723 267.22 41.8006 267.144C41.829 267.069 41.837 266.987 41.8241 266.907C41.8111 266.827 41.7776 266.752 41.7268 266.69C41.676 266.627 41.6097 266.578 41.5345 266.549C38.9162 267.759 26.6996 276.34 25.0841 278.121Z" fill="#0F143A" fill-opacity="0.8"/>
<path d="M36.5241 292.288C36.2754 292.195 36.0382 292.014 35.8689 292.065C35.5726 292.171 35.3004 292.335 35.0678 292.547C31.0228 295.869 26.9807 299.195 22.9413 302.524C22.5408 302.841 22.161 303.183 21.8041 303.548C21.6828 303.749 21.5978 303.969 21.5529 304.199C22.2525 304.352 22.6266 303.968 23.0213 303.667C23.9345 302.969 24.8409 302.265 25.7341 301.541C28.9075 298.97 32.0801 296.39 35.252 293.801C35.7254 293.419 36.2619 293.051 36.5241 292.288Z" fill="#0F143A" fill-opacity="0.8"/>
<path d="M31.379 268.988C32.4755 269.04 32.9244 268.511 33.4209 268.162C37.3089 265.451 41.1719 262.705 45.0399 259.968C45.3011 259.783 45.5509 259.578 45.8003 259.381C46.5095 258.823 46.7509 258.4 46.4638 258.223C45.9084 257.886 45.4825 258.277 45.0834 258.558C43.0437 260 41.0289 261.477 38.9959 262.926C37.537 263.966 36.0447 264.966 34.5939 266.019C33.7157 266.658 32.8736 267.352 32.044 268.045C31.8258 268.221 31.7029 268.511 31.379 268.988Z" fill="#0F143A" fill-opacity="0.8"/>
<path d="M0.832892 321.378C1.16765 321.22 1.49182 321.041 1.80342 320.841C3.75419 319.393 5.6953 317.937 7.62679 316.472C9.20534 315.277 10.7723 314.065 12.3426 312.857C12.6988 312.583 13.0464 312.301 13.3841 312.007C13.7892 311.642 13.9204 311.224 13.6952 311.052C13.3794 310.813 13.09 310.959 12.8337 311.153C12.2631 311.565 11.7025 311.989 11.142 312.413C10.2753 313.068 9.39856 313.713 8.54511 314.386C6.28941 316.171 4.02796 317.964 1.80988 319.776C1.8022 319.782 1.79451 319.787 1.78683 319.792C1.30938 320.132 0.797553 320.496 0.832892 321.378Z" fill="#0F143A" fill-opacity="0.8"/>
<path d="M106.902 199.776L105.694 198.636C105.53 198.626 105.365 198.635 105.203 198.663C103.39 199.323 101.743 200.372 100.379 201.735C98.4522 203.598 97.7994 205.971 97.7554 208.538C97.7291 209.854 98.323 211.037 99.0156 212.127C100.334 214.186 101.751 216.163 103.614 217.772C104.708 218.714 104.78 219.699 103.998 221.024C103.901 221.189 103.793 221.35 103.708 221.521C102.162 224.661 99.7788 227.029 96.9935 229.048C94.7109 230.698 92.4236 232.339 90.0403 234.053C90.1796 234.346 90.3057 234.688 90.4903 234.998C92.3097 238.027 94.1352 241.051 95.967 244.07C96.3283 244.669 96.6266 245.322 97.3558 245.728C97.6697 245.542 97.973 245.339 98.2644 245.119C101.946 242.03 105.619 238.926 109.311 235.848C109.948 235.315 110.65 234.861 111.31 234.354C113.554 232.624 115.623 230.758 116.956 228.161C118.123 225.882 119.5 223.711 120.719 221.459C122.956 217.329 126.352 214.524 130.643 212.78C132.419 212.058 134.275 211.534 136.103 210.941C138.724 210.089 141.348 209.255 143.974 208.412C144.389 208.279 144.787 208.093 145.179 207.938C145.113 207.371 144.703 207.503 144.431 207.481C140.433 207.066 136.481 207.426 132.559 208.167C131.921 208.288 131.311 208.443 130.668 208.26C130.414 208.206 130.185 208.073 130.011 207.881C129.838 207.688 129.73 207.446 129.703 207.188C129.668 206.931 129.72 206.67 129.852 206.447C129.984 206.223 130.187 206.051 130.429 205.958C133.878 204.411 137.346 202.945 141.107 202.238C143.942 201.71 146.721 200.925 149.522 200.239C149.868 200.153 150.311 200.163 150.467 199.58C150.208 199.441 149.932 199.338 149.646 199.274C148.369 199.175 147.082 198.994 145.814 199.073C142.613 199.255 139.405 199.478 136.228 199.896C133.949 200.197 131.708 200.854 129.461 201.326C129.035 201.435 128.597 201.49 128.157 201.488C127.962 201.476 127.776 201.404 127.623 201.283C127.471 201.161 127.359 200.996 127.303 200.809C127.208 200.602 127.181 200.371 127.227 200.148C127.272 199.925 127.386 199.723 127.554 199.57C127.899 199.287 128.274 199.042 128.671 198.838C133.11 196.373 137.856 194.618 142.579 192.797C145.03 191.853 147.427 190.774 149.839 189.736C150.301 189.49 150.748 189.216 151.177 188.916C150.61 188.746 150.034 188.605 149.452 188.495C147.779 188.281 146.121 188.457 144.473 188.764C141.512 189.341 138.622 190.232 135.852 191.421C131.883 193.074 128.123 195.168 124.3 197.193C124.201 197.691 124.077 198.184 123.927 198.669C123.827 198.945 123.634 199.176 123.381 199.323C123.128 199.47 122.831 199.524 122.542 199.474C122.226 199.408 121.941 199.237 121.732 198.99C121.524 198.743 121.404 198.434 121.392 198.111C121.403 197.604 121.494 197.104 121.531 196.592C121.601 195.177 121.413 193.761 120.975 192.413C120.583 191.166 119.975 190.798 118.656 190.876C118.271 190.899 117.889 190.958 117.516 191.052C114.887 191.675 112.416 192.831 110.255 194.449C109.497 195.024 108.742 195.632 108.371 196.509C108.498 197.158 108.855 197.487 109.433 197.517C110.012 197.546 110.582 197.495 111.165 197.523C112.641 197.571 114.117 197.565 115.586 197.717C116.345 197.819 117.081 198.048 117.766 198.393C118.753 198.854 119.135 199.771 118.931 200.808C118.794 201.565 118.519 202.289 118.12 202.946C116.408 205.666 114.184 208.027 111.571 209.899C110.697 210.564 109.644 210.955 108.546 211.023C106.446 211.109 105.094 209.846 105.178 207.746C105.254 206.791 105.416 205.845 105.661 204.919C106.043 203.225 106.469 201.552 106.902 199.776Z" fill="white"/>
<path d="M95.3423 247.767C94.5919 246.56 93.9637 245.597 93.3738 244.613C92.0863 242.465 90.8554 240.284 89.5257 238.164C88.3664 236.316 87.112 234.527 85.8795 232.725C85.6047 232.374 85.3064 232.043 84.9869 231.733C84.7876 231.772 84.5957 231.841 84.4179 231.938C83.2209 232.885 82.0335 233.849 80.7753 234.881C81.7682 236.862 83.1985 238.435 84.3353 240.202C85.5181 242.039 86.6571 243.902 87.842 245.734C88.9767 247.506 89.8806 249.425 91.2127 251.185C92.8787 250.326 93.901 248.913 95.3423 247.767Z" fill="white"/>
<path d="M107.943 208.455C108.369 208.409 108.823 208.442 109.215 208.302C109.692 208.12 110.14 207.87 110.545 207.559C112.788 205.87 114.683 203.764 116.127 201.356C116.243 201.106 116.334 200.844 116.397 200.576C116.18 200.437 115.945 200.329 115.699 200.253C113.673 199.931 111.638 199.976 109.54 200.086C109.02 200.925 109.043 201.911 108.784 202.808C108.526 203.706 108.277 204.652 108.072 205.586C107.866 206.52 107.398 207.397 107.943 208.455Z" fill="white"/>
<path d="M-12.7237 297.678L-13.2403 298.143L-13.1648 298.227C-12.9939 298.073 -12.8059 297.934 -12.6264 297.786L-12.7237 297.678Z" fill="white"/>
<path d="M97.2158 176.38C96.6027 175.782 95.9384 175.877 95.3093 175.836C94.6803 175.795 94.0089 175.715 93.7492 174.967C93.5172 174.302 93.7412 173.837 94.5806 173.23C94.9892 172.936 95.4374 172.664 95.8433 172.352C96.1489 172.121 96.4342 171.864 96.6962 171.584C96.8751 171.354 97.0357 171.11 97.1766 170.855C96.8645 170.613 96.6104 170.312 96.2918 170.197C95.6931 169.977 95.0313 169.919 94.436 169.702C94.217 169.644 94.017 169.529 93.8558 169.369C93.6947 169.21 93.578 169.011 93.5174 168.792C93.4568 168.574 93.4544 168.343 93.5105 168.124C93.5665 167.905 93.6791 167.704 93.837 167.542C94.1549 167.229 94.4986 166.943 94.8645 166.688C95.6651 166.041 96.4236 165.351 96.8987 164.414C97.214 163.793 97.0515 163.295 96.4405 162.967C95.8834 162.639 95.2408 162.485 94.5962 162.526C93.9586 162.582 93.3214 162.643 92.6846 162.708C92.1107 162.766 91.5377 162.843 90.9631 162.882C90.333 162.929 89.8116 162.724 89.5337 162.124C89.2559 161.524 89.4453 160.972 89.8784 160.545C90.6082 159.827 91.3852 159.158 92.1387 158.462C93.7014 157.022 95.0678 155.43 96.0344 153.51C96.7046 152.18 96.8401 150.642 96.4132 149.211C96.3143 148.973 96.1871 148.748 96.0343 148.54C95.1177 148.61 94.6275 149.183 94.1912 149.812C93.7549 150.441 93.3645 151.109 92.9094 151.725C91.3368 153.846 89.3875 155.429 86.7111 155.936C83.3634 156.571 80.4274 158.068 77.7762 160.168C76.8422 160.85 76.1272 161.789 75.7183 162.871C75.4046 163.775 75.0508 164.663 74.7022 165.554C74.6105 165.789 74.5252 166.105 74.346 166.213C73.5137 166.749 73.2566 167.619 73.0029 168.458C72.2846 170.758 70.9648 172.547 68.8345 173.75C68.1153 174.154 67.4352 174.628 66.6877 175.102C66.8249 176.619 67.529 177.935 67.9511 179.323C68.3991 180.796 68.9262 182.245 69.421 183.702L70.8754 187.933C71.4048 187.774 71.8324 187.662 72.234 187.506C74.8918 186.472 77.8444 186.479 80.5036 187.524C81.2849 187.813 82.0544 188.125 82.8389 188.421C83.8582 188.85 85.003 188.866 86.0314 188.465C88.4705 187.501 90.9094 186.54 93.3296 185.528C94.5404 185.012 95.5665 184.142 96.2739 183.032C96.2726 182.943 96.2523 182.854 96.2142 182.773C96.1761 182.691 96.1213 182.619 96.0532 182.56C95.9851 182.502 95.9054 182.458 95.8193 182.433C95.7332 182.407 95.6427 182.4 95.5538 182.412C95.0436 182.406 94.5258 182.477 94.0298 182.435C93.8008 182.429 93.5798 182.348 93.4 182.206C93.2202 182.064 93.0913 181.867 93.0329 181.645C92.9567 181.432 92.9394 181.203 92.9829 180.982C93.0263 180.76 93.1289 180.555 93.2796 180.387C93.5663 180.135 93.8714 179.904 94.1924 179.697C94.9492 179.11 95.7161 178.534 96.4479 177.916C96.8848 177.553 97.2484 177.097 97.2158 176.38Z" fill="white"/>
<path d="M63.2204 175.194C61.6084 176.247 60.2667 177.108 58.9467 177.996C58.4766 178.315 58.0509 178.702 57.5242 179.122C57.7909 180.603 58.7159 181.794 59.214 183.151C59.7398 184.592 60.2398 186.042 60.7138 187.5C61.1657 188.895 61.5633 190.312 62.0299 191.801C63.2587 191.832 64.3136 191.311 65.4231 191.142C66.5327 190.973 67.7073 190.992 68.8642 190.554C68.7331 189.997 68.6556 189.5 68.4988 189.027C67.2166 185.14 65.8808 181.262 64.6467 177.369C64.3783 176.514 63.5427 176.176 63.2204 175.194Z" fill="white"/>
<path d="M6.14672 202.882C6.12065 202.903 6.09456 202.924 6.06837 202.945C5.817 203.144 5.55553 203.349 5.19957 203.631C5.1878 203.64 5.17591 203.65 5.16393 203.659C5.799 203.617 5.83366 203.077 6.15176 202.888L6.14672 202.882Z" fill="white"/>
<path d="M-11.6342 212.208L-11.7749 212.081L-12.5001 212.987L-11.6342 212.208Z" fill="white"/>
<path d="M48.6424 181.025L49.9737 180.575C49.3335 180.301 49.2288 180.338 48.6546 181.064L48.6424 181.025Z" fill="white"/>
<path d="M-2.19081 207.741C-2.29456 207.687 -2.40164 207.64 -2.51156 207.601C-2.55868 207.586 -2.62091 207.625 -2.67839 207.64C-2.63172 207.679 -2.57778 207.708 -2.5197 207.727C-2.40225 207.74 -2.28421 207.746 -2.1661 207.746L-2.19081 207.741Z" fill="white"/>
<path d="M1.12989 205.932C1.21077 205.866 1.28835 205.796 1.36223 205.723C1.3407 205.692 1.31534 205.663 1.28674 205.639L1.12989 205.932Z" fill="white"/>
<path d="M-0.242032 206.586C-0.154275 206.534 -0.0633765 206.49 0.0193465 206.432C0.0323529 206.42 0.0108866 206.355 0.00580354 206.316C-0.0836276 206.366 -0.176429 206.413 -0.259152 206.47C-0.273833 206.48 -0.2488 206.545 -0.242032 206.586Z" fill="white"/>
<path d="M-2.17188 207.754L-1.55617 207.257L-1.59308 207.216L-2.184 207.748L-2.17188 207.754Z" fill="white"/>
<path d="M49.9737 180.575L50.5591 180.048L50.4505 179.954C50.2949 180.154 50.1298 180.367 49.9666 180.578C49.9628 180.582 49.9737 180.575 49.9737 180.575Z" fill="white"/>
<path d="M-3.86704 208.244L-3.97334 208.313L-3.89422 208.36L-3.86704 208.244Z" fill="white"/>
<path d="M-10.3796 211.561L-10.2461 211.481L-10.337 211.421L-10.3796 211.561Z" fill="white"/>
<path d="M2.51223 205.142L2.61856 205.074L2.54292 205.027L2.51223 205.142Z" fill="white"/>
<path d="M4.01476 204.36L3.94448 204.278L3.87026 204.412L4.01476 204.36Z" fill="white"/>
<path d="M223.846 181.315L218.844 182.61C218.941 183.376 219.146 184.238 219.13 185.099C219.115 185.96 218.884 186.829 218.722 187.848C220.599 187.407 222.405 187.35 224.295 187.939C224.382 187.24 224.119 186.728 224.042 186.197C223.964 185.666 223.857 185.061 223.811 184.491C223.772 183.984 223.789 183.472 223.788 182.97C223.787 182.468 223.827 181.852 223.846 181.315Z" fill="white"/>
<path d="M31.0229 154.17C32.2361 155.412 32.9994 156.716 33.0389 158.445C33.7971 158.387 34.2364 157.907 34.7667 157.625C35.297 157.343 35.8329 156.985 36.4332 156.617C35.4658 155.318 34.4108 154.173 34.4253 152.324C33.1859 152.988 32.2135 153.526 31.0229 154.17Z" fill="white"/>
<path fill-rule="evenodd" clip-rule="evenodd" d="M48.6092 181.054C47.2506 182.233 45.5554 182.849 44.0371 183.758C43.6145 184.013 43.228 184.327 42.6153 184.764C43.0746 184.901 43.3271 185.062 43.4903 184.989C44.2752 184.716 45.0405 184.39 45.7811 184.013C47.8133 182.925 49.8205 181.773 51.8406 180.679C52.7321 180.197 53.5889 179.631 54.7119 179.444L55.1182 180.377C52.8821 181.742 50.6814 183.039 48.5333 184.416C46.4492 185.756 44.2142 186.891 42.3975 188.551C42.5858 189.134 42.9273 189.042 43.1886 188.891C44.4132 188.194 45.6274 187.479 46.8312 186.749C49.294 185.25 51.7435 183.733 54.2045 182.232C54.5814 182.004 54.9924 181.837 55.3652 181.653C56.181 182.431 56.1861 182.455 56.4336 183.626L56.4516 183.711C54.984 184.645 53.5045 185.67 51.969 186.543C47.4061 189.14 42.8033 191.685 38.2312 194.253C33.4857 196.919 28.7456 199.596 24.0109 202.282C23.5088 202.608 23.024 202.96 22.5584 203.337C22.8657 203.499 23.0498 203.677 23.167 203.639C23.6548 203.49 24.1276 203.295 24.5795 203.059C33.4347 198.163 42.2841 193.257 51.1274 188.34C52.7478 187.438 54.2772 186.371 55.8586 185.399C56.2706 185.175 56.6945 184.974 57.1286 184.796C57.754 186.135 58.2277 187.411 58.3624 188.798C58.3508 188.812 58.3391 188.827 58.3273 188.841C58.138 188.692 57.9098 188.601 57.6699 188.579C57.4128 188.555 57.1548 188.611 56.9312 188.739C56.1986 189.129 55.4561 189.504 54.7267 189.901C50.5742 192.169 46.4525 194.493 42.5121 197.12C41.8221 197.579 41.1614 198.09 40.5094 198.602C40.3498 198.766 40.2144 198.952 40.1072 199.154C40.4324 199.556 40.7171 199.431 41.0008 199.257C42.7391 198.198 44.4728 197.089 46.2429 196.065C49.7809 194.016 53.3359 191.992 56.9079 189.995C57.4502 189.704 57.9318 189.312 58.3273 188.841C58.3409 188.851 58.3543 188.862 58.3675 188.873L58.3671 188.848C58.3674 188.851 58.3678 188.855 58.3681 188.859L58.3669 188.779C58.7481 189.995 59.0022 191.271 59.5469 192.411C60.069 193.506 60.6607 194.559 61.0007 195.68C60.6929 196.396 60.0602 196.635 59.5475 196.989C55.0901 200.01 50.6309 203.02 46.1699 206.018C42.1856 208.705 38.1944 211.38 34.1961 214.042C30.0907 216.777 25.9709 219.481 21.8602 222.214L20.9184 222.838C16.375 225.853 11.8314 228.867 7.30511 231.908C3.90165 234.193 0.534543 236.529 -2.85921 238.833C-6.25297 241.136 -9.6365 243.447 -13.0515 245.715C-17.0509 248.376 -21.0675 251.015 -25.1013 253.633C-31.2192 257.623 -37.4862 261.373 -43.8085 265.027C-47.7994 267.336 -51.7888 269.649 -55.7766 271.967C-55.9867 272.105 -56.1886 272.255 -56.381 272.416L-54.5739 274.423L-58.2399 270.389L-78.0562 248.342C-77.5862 248.17 -77.1043 248.029 -76.6502 247.82C-74.2209 246.699 -71.7958 245.567 -69.3748 244.424C-68.8188 244.16 -68.1639 243.972 -68.0034 243.189C-68.1393 243.075 -68.2954 242.986 -68.4635 242.929C-68.6583 242.918 -68.8521 242.961 -69.0231 243.055C-72.0167 244.463 -75.0097 245.885 -78.0023 247.32C-78.2079 247.448 -78.3977 247.6 -78.5679 247.773L-82.9736 242.871L-81.1665 244.878C-77.4115 243.07 -73.5618 241.489 -69.6502 240.053C-62.3691 237.381 -55.1278 234.62 -48.1863 231.13C-41.4254 227.741 -34.7442 224.2 -28.1427 220.506C-23.6104 217.987 -18.9676 215.666 -14.3704 213.264C-13.9169 213.028 -13.4449 212.828 -12.9589 212.668C-12.8455 212.63 -12.6513 212.845 -12.4933 212.943C-12.8384 213.085 -13.198 213.204 -13.5286 213.377C-17.3831 215.397 -21.2393 217.418 -25.0811 219.467C-25.553 219.716 -26.1868 219.838 -26.3818 220.638C-26.1194 220.671 -25.8663 220.784 -25.6749 220.717C-25.0056 220.489 -24.3531 220.214 -23.7219 219.896C-19.5785 217.738 -15.4461 215.552 -11.3057 213.383C-9.77567 212.583 -8.24039 211.784 -6.70002 211.025C-0.965153 208.182 4.76367 205.319 10.5292 202.537C12.6014 201.535 14.771 200.742 16.8985 199.839C17.348 199.621 17.7668 199.344 18.1442 199.017C18.2222 198.947 18.1622 198.664 18.1106 198.494C18.0827 198.415 17.9019 198.345 17.7953 198.349C17.6085 198.369 17.4262 198.419 17.2558 198.498C14.0889 199.876 10.9213 201.256 7.75302 202.637C7.40739 202.803 7.04873 202.941 6.68065 203.049C6.53705 203.084 6.34456 202.93 6.17436 202.861C6.1353 202.884 6.10055 202.912 6.06837 202.945C5.817 203.144 5.55553 203.349 5.19957 203.631C5.19524 203.631 5.19091 203.632 5.18653 203.632C5.59298 203.31 5.87921 203.086 6.16932 202.855C8.1518 201.839 10.1436 200.849 12.1099 199.804C15.9456 197.768 19.7637 195.696 23.5931 193.645C24.098 193.376 24.622 193.147 25.1183 192.906C25.3901 193.208 25.0768 193.929 25.8073 193.754C26.1766 193.654 26.5343 193.515 26.8744 193.34C30.5982 191.496 34.3179 189.648 38.0338 187.796C38.1634 187.703 38.2824 187.596 38.3887 187.477L38.106 186.415C39.4378 185.712 40.7909 185.01 42.1344 184.286C44.093 183.218 46.0351 182.124 47.9826 181.066C48.1494 180.976 48.4 181.042 48.6092 181.054ZM-59.4455 267.915C-59.6508 268.059 -59.838 268.227 -60.003 268.416L-60.7768 267.564C-58.1639 266.076 -55.5445 264.598 -52.9381 263.098C-47.9974 260.255 -43.0296 257.47 -37.7791 255.225C-37.3675 255.047 -36.9498 254.887 -36.5261 254.749C-36.4652 254.739 -36.4029 254.745 -36.3448 254.766C-36.2867 254.786 -36.2346 254.821 -36.1935 254.867C-36.1309 255.03 -36.0802 255.322 -36.149 255.384C-36.6491 255.769 -37.1814 256.111 -37.7399 256.405C-40.0932 257.566 -42.5077 258.606 -44.8172 259.845C-49.7224 262.48 -54.5743 265.216 -59.4455 267.915ZM-54.8949 258.323C-57.9752 260.159 -61.0544 261.994 -64.1323 263.83L-64.8992 262.978C-64.6009 262.862 -64.3095 262.729 -64.0261 262.58C-58.2027 259.103 -52.3738 255.621 -46.5394 252.136C-46.2779 251.962 -45.9955 251.821 -45.6989 251.717C-45.611 251.706 -45.5217 251.717 -45.4392 251.749C-45.3566 251.782 -45.2833 251.834 -45.2261 251.902C-45.1492 252.028 -45.1523 252.332 -45.2452 252.415C-45.6204 252.758 -46.0272 253.064 -46.4602 253.33C-49.2669 255.004 -52.0867 256.655 -54.8949 258.323ZM-17.6063 238.104C-18.0405 238.344 -18.4569 238.651 -19.0741 238.414C-19.0047 238.199 -19.0036 237.969 -18.8848 237.899C-18.3213 237.477 -17.7367 237.083 -17.1333 236.72C-8.80198 231.808 -0.462963 226.908 7.88368 222.02C9.10386 221.316 10.3677 220.694 11.6252 220.058C11.6783 220.021 11.7398 219.998 11.8041 219.99C11.8685 219.982 11.9339 219.991 11.9943 220.015C12.0546 220.039 12.1083 220.077 12.1503 220.126C12.1924 220.176 12.2216 220.235 12.2353 220.298C12.2698 220.456 12.2219 220.736 12.1118 220.808C11.3603 221.292 10.5906 221.749 9.81955 222.197C3.28692 226 -3.24676 229.8 -9.78139 233.596C-12.3848 235.107 -14.9981 236.603 -17.6063 238.104ZM28.918 210.811C28.4275 211.077 27.9571 211.47 26.98 211.162C27.2182 210.88 27.4838 210.621 27.7728 210.391C28.9201 209.692 30.0774 209.004 31.2476 208.342C34.5869 206.446 37.9901 204.653 41.2689 202.656C45.9713 199.792 50.5838 196.779 55.2421 193.84C55.6431 193.591 56.0306 193.12 56.6008 193.481C56.9167 193.682 56.6336 194.227 55.8044 194.775C54.5236 195.624 53.2068 196.415 51.9028 197.232C46.5823 200.571 41.3936 204.106 35.8198 207.023C33.4973 208.24 31.2229 209.555 28.918 210.811ZM32.1907 212.936C31.7106 213.243 31.2455 213.601 30.4242 213.541C30.5406 212.718 31.0804 212.458 31.5281 212.163C33.7196 210.72 35.9122 209.281 38.1058 207.846C41.3705 205.71 44.6362 203.577 47.9029 201.448C50.903 199.492 53.8424 197.443 57.0049 195.746C57.2749 195.585 57.5628 195.457 57.8629 195.365C57.9503 195.359 58.0377 195.376 58.1175 195.412C58.1972 195.449 58.2668 195.504 58.3203 195.574C58.3551 195.656 58.3694 195.746 58.3621 195.836C58.3547 195.925 58.3259 196.011 58.2782 196.087C58.0746 196.331 57.828 196.536 57.5506 196.692C54.9269 198.114 52.4456 199.76 49.9643 201.405L49.5762 201.662C46.3762 203.78 43.1565 205.87 39.9386 207.957C37.4139 209.595 34.878 211.217 32.3401 212.84L32.1907 212.936ZM-29.7823 252.115C-30.0027 252.229 -30.3388 252.11 -30.8692 252.081C-30.5026 251.71 -30.113 251.363 -29.7028 251.041C-26.6658 249.025 -23.6715 246.94 -20.5592 245.045C-15.1045 241.716 -9.56425 238.52 -4.06863 235.259C-3.95893 235.194 -3.83108 235.085 -3.72722 235.1C-3.49596 235.12 -3.27284 235.196 -3.07718 235.321C-3.00881 235.371 -3.04991 235.725 -3.14839 235.814C-3.58171 236.185 -4.04471 236.521 -4.53278 236.817C-12.2009 241.309 -19.9343 245.691 -27.2621 250.74C-28.0654 251.262 -28.908 251.722 -29.7823 252.115ZM2.52293 231.851C2.25093 232.004 1.94764 232.146 1.43827 231.67C1.94638 231.266 2.36636 230.888 2.82382 230.574C5.21232 228.967 7.58287 227.328 10.0159 225.786C15.6352 222.221 21.2839 218.704 26.9278 215.177C27.3099 214.946 27.7174 214.759 28.1423 214.62C28.2522 214.586 28.468 214.769 28.5838 214.898C28.6091 214.953 28.6199 215.013 28.6149 215.073C28.61 215.133 28.5896 215.191 28.5557 215.24C28.0261 215.697 27.4704 216.123 26.8915 216.516C19.7555 221.038 12.4933 225.357 5.51178 230.118C4.56784 230.759 3.52506 231.286 2.52293 231.851ZM-60.1839 256.594C-60.6713 256.833 -61.1774 257.198 -61.9801 256.841C-61.8444 256.638 -61.6817 256.454 -61.4965 256.294C-52.4614 251.348 -43.3613 246.518 -34.2462 241.743C-33.8396 242.287 -33.7902 242.537 -34.0637 242.719C-34.6575 243.098 -35.2331 243.505 -35.851 243.835C-42.1863 247.2 -48.5265 250.555 -54.8715 253.899C-56.6288 254.822 -58.3996 255.72 -60.1839 256.594ZM-57.2296 238.362C-57.41 238.423 -57.6633 238.28 -58.1594 238.17C-57.7488 237.857 -57.3221 237.566 -56.8811 237.299C-52.0019 234.746 -47.1238 232.191 -42.2469 229.635C-39.9227 228.42 -37.6116 227.183 -35.2808 225.978C-35.0546 225.893 -34.8043 225.895 -34.579 225.984C-34.3578 226.062 -34.423 226.643 -34.6888 226.815L-34.7013 226.823C-35.3956 227.271 -36.0918 227.719 -36.8217 228.105C-38.9168 229.208 -41.0297 230.277 -43.1362 231.361C-47.1255 233.417 -51.1025 235.477 -55.0959 237.51C-55.7862 237.843 -56.4992 238.128 -57.2296 238.362ZM-70.0983 248.565C-70.8522 248.886 -71.5983 249.264 -72.7584 249.205C-72.3633 248.306 -71.6661 248.228 -71.1261 247.999C-65.7509 245.605 -60.3581 243.246 -54.968 240.873C-53.5642 240.254 -52.1714 239.607 -50.7676 238.988C-50.412 238.829 -49.9546 238.967 -49.9675 239.222C-49.9796 239.461 -50.0787 239.687 -50.2464 239.858C-50.4978 240.054 -50.7771 240.211 -51.075 240.324C-52.0063 240.751 -52.9373 241.174 -53.8765 241.581C-59.2834 243.914 -64.6907 246.242 -70.0983 248.565ZM-13.276 218.616C-9.93164 216.378 5.18053 207.964 7.11069 207.279C7.43672 207.839 7.2416 208.153 6.896 208.359C5.72916 209.025 4.53791 209.649 3.36772 210.311C-1.3097 212.964 -5.97708 215.628 -10.6612 218.273C-11.5538 218.776 -12.4772 219.223 -13.4033 219.652C-13.5703 219.728 -13.8327 219.59 -14.272 219.513C-13.9587 219.194 -13.6261 218.895 -13.276 218.616ZM16.2851 202.621C15.911 202.796 15.4887 203.116 14.8488 202.521C15.3721 202.168 15.7659 201.851 16.209 201.61C17.7892 200.764 19.3709 199.924 20.9721 199.12C25.7209 196.736 30.4713 194.356 35.2232 191.981C35.5563 191.793 35.9094 191.644 36.276 191.535C36.4643 191.494 36.7187 191.65 37.0091 191.726C36.6527 192.563 35.9898 192.802 35.3639 193.116C30.3879 195.621 25.411 198.121 20.4332 200.614C19.0594 201.304 17.6811 201.982 16.2851 202.621ZM-8.15673 220.89C-8.32988 220.948 -8.57412 220.801 -9.06599 220.677C-8.70168 220.395 -8.32314 220.131 -7.93188 219.888C-1.86385 216.736 4.16164 213.514 10.0753 210.086C10.2929 209.954 10.5367 209.872 10.7897 209.844C10.9652 209.88 11.1205 209.981 11.2238 210.128C11.2502 210.183 11.2617 210.243 11.2571 210.304C11.2524 210.364 11.2318 210.423 11.1973 210.472C10.8851 210.786 10.5423 211.067 10.1741 211.313C9.29993 211.837 8.3855 212.316 7.49289 212.819L6.85058 213.18C2.49939 215.626 -1.8606 218.077 -6.38461 220.175C-6.96016 220.45 -7.55196 220.688 -8.15673 220.89ZM-40.2888 235.147C-40.7759 235.417 -41.2596 235.725 -42.1227 235.543C-41.9095 235.223 -41.842 235.011 -41.701 234.924C-35.5642 231.258 -29.3997 227.637 -23.0606 224.454C-22.4865 224.774 -22.5315 225.168 -22.8763 225.428C-23.4482 225.835 -24.048 226.202 -24.6714 226.525C-27.5179 228.109 -30.3877 229.664 -33.2426 231.239C-35.594 232.537 -37.9389 233.845 -40.2888 235.147ZM-7.57645 228.597C-8.00166 228.835 -8.42373 229.185 -9.19049 228.819C-8.71078 227.999 -7.95639 227.738 -7.32151 227.352C-2.94234 224.742 1.46369 222.162 5.86972 219.581C6.91512 218.967 7.97359 218.375 9.04812 217.816C9.21918 217.73 9.50824 217.867 9.74222 217.903C9.70724 218.137 9.75166 218.448 9.61865 218.588C9.33862 218.846 9.02447 219.064 8.68497 219.236C5.6036 221.046 2.53397 222.868 -0.570881 224.652C-2.75745 225.918 -4.9641 227.145 -7.17204 228.373L-7.57645 228.597ZM16.6472 214.683C16.0472 215.044 15.4772 215.513 14.6387 215.442C14.4522 214.922 14.7296 214.752 14.9952 214.588L15.0272 214.569C16.0482 213.913 17.0757 213.268 18.1065 212.626C22.6566 209.782 27.2121 206.948 31.773 204.124C32.0512 203.98 32.3515 203.885 32.6615 203.84C32.7422 203.821 32.906 203.947 32.9497 204.029C32.9933 204.111 33.0153 204.308 32.9614 204.356C32.4589 204.835 31.9215 205.277 31.3535 205.676C29.142 207.08 26.9092 208.449 24.6766 209.815C22.0066 211.45 19.3351 213.079 16.6472 214.683ZM-32.5502 234.833C-32.7367 234.91 -32.9946 234.788 -33.5348 234.708C-33.0759 234.333 -32.5965 233.985 -32.0987 233.664C-28.2108 231.577 -24.3114 229.51 -20.4168 227.435C-19.7463 227.081 -19.0664 226.715 -18.3914 226.343C-18.0904 226.177 -17.793 226.115 -17.5186 226.367C-17.29 226.576 -17.4619 227.028 -17.8805 227.31C-18.1472 227.485 -18.4234 227.645 -18.7081 227.789C-22.7892 229.92 -26.877 232.042 -30.9713 234.154C-31.4801 234.419 -32.0078 234.646 -32.5502 234.833ZM-56.1853 247.021C-56.6428 247.231 -57.1346 247.349 -57.9894 247.633C-57.7479 247.068 -57.7241 246.844 -57.5884 246.756C-57.0456 246.421 -56.4849 246.115 -55.9089 245.841C-52.5593 244.266 -49.2001 242.709 -45.8505 241.134C-44.926 240.7 -44.0316 240.232 -43.1205 239.749C-42.5999 239.482 -42.2519 239.506 -42.1369 239.825C-41.9617 240.304 -42.3115 240.528 -42.6204 240.725L-42.6318 240.733C-43.064 241.012 -43.5156 241.259 -43.9832 241.474C-48.0481 243.332 -52.1155 245.181 -56.1853 247.021ZM-35.2551 247.679C-35.7975 247.956 -36.3633 248.245 -37.1493 248.126C-37.1326 247.311 -36.5223 247.234 -36.1194 247.016C-33.9743 245.871 -31.8033 244.773 -29.6483 243.643C-28.5226 243.054 -27.4073 242.425 -26.2702 241.819C-25.9076 241.628 -25.4626 241.733 -25.4617 241.992C-25.4736 242.23 -25.5523 242.46 -25.6888 242.655C-25.81 242.805 -25.9664 242.923 -26.1441 242.998L-27.1005 243.492C-29.7953 244.884 -32.4912 246.276 -35.1961 247.649L-35.2551 247.679ZM-24.203 237.161C-24.3463 237.188 -24.5241 237.025 -24.8236 236.883C-24.536 236.614 -24.2264 236.371 -23.8982 236.154C-21.6956 234.994 -19.4817 233.854 -17.2759 232.702C-16.6499 232.384 -16.0595 232.001 -15.4241 231.709C-15.2716 231.639 -14.9672 231.79 -14.793 231.92C-14.7263 231.968 -14.7652 232.314 -14.8674 232.406C-15.1749 232.727 -15.5269 233.003 -15.9126 233.225C-18.3085 234.433 -20.7103 235.628 -23.1178 236.808C-23.4624 236.972 -23.8273 237.091 -24.203 237.161ZM-67.7216 253.211C-67.9656 253.302 -68.2881 253.195 -68.7037 253.174C-68.5019 252.867 -68.4381 252.658 -68.2938 252.575C-66.1957 251.378 -64.0791 250.201 -62.0488 249.048C-61.4278 249.386 -61.477 249.795 -61.8298 250.038C-63.6562 251.333 -65.6349 252.398 -67.7216 253.211ZM20.3428 205.511C19.9198 205.671 19.466 205.735 19.0146 205.698C19.516 204.663 20.2539 204.342 21.0138 204.077C21.1002 204.067 21.1878 204.079 21.2682 204.112C21.3487 204.145 21.4195 204.198 21.474 204.266C21.551 204.389 21.5519 204.685 21.459 204.769C21.1471 205.097 20.7657 205.35 20.3428 205.511ZM22.7836 213.871L22.8252 213.543L23.1569 213.505C23.1424 213.615 23.1705 213.759 23.1053 213.821C23.0401 213.883 22.8942 213.859 22.7836 213.871Z" fill="white"/>
<path fill-rule="evenodd" clip-rule="evenodd" d="M-25.1545 307.119C-24.745 306.95 -24.3465 306.754 -23.9616 306.535C-20.8315 304.533 -17.7259 302.492 -14.5842 300.507C-11.1731 298.35 -7.71608 296.266 -4.30813 294.102C-0.243966 291.516 3.77045 288.897 7.80555 286.289C8.55732 285.801 9.32079 285.327 10.0478 284.804C10.3661 284.519 10.6574 284.206 10.9181 283.868C10.5316 283.764 10.2704 283.601 10.1021 283.668C9.63054 283.86 9.17948 284.099 8.75558 284.381C4.61397 287.061 0.501838 289.788 -3.66607 292.428C-6.14116 294.006 -8.68839 295.482 -11.3078 296.855C-10.975 296.517 -10.622 296.199 -10.2505 295.903C-3.42775 291.126 3.40822 286.368 10.2312 281.588C16.3169 277.323 22.3945 273.045 28.4638 268.755C32.9061 265.602 37.3352 262.431 41.7284 259.197C44.8231 256.917 47.8267 254.512 50.8936 252.186C55.0267 249.049 59.1931 245.952 63.3122 242.81C66.3176 240.52 69.2981 238.196 72.2538 235.839C73.0538 235.203 73.7337 234.422 74.4771 233.715C74.887 233.326 75.317 232.959 75.8391 232.489C77.4041 234.029 78.278 235.945 79.4878 237.774C78.0195 239.208 76.3318 240.248 74.8034 241.503C73.3176 242.723 71.7601 243.852 70.2208 245.008C68.6333 246.205 67.0328 247.379 65.4403 248.57C63.9075 249.725 62.371 250.884 60.8308 252.046C59.2469 253.242 57.676 254.461 56.082 255.647C54.5522 256.791 52.9458 257.836 51.4109 259.427C51.9489 259.412 52.2708 259.497 52.4737 259.378C53.1911 258.954 53.8867 258.495 54.5579 258.001C57.0419 256.19 59.5227 254.371 61.9886 252.532C66.1477 249.428 70.2984 246.315 74.4407 243.193C76.0263 241.998 77.5838 240.764 79.1612 239.556C79.4528 239.331 79.7811 239.15 80.1936 238.883C81.1183 239.977 82.0096 240.96 82.5067 242.199C82.37 242.862 81.8573 243.182 81.429 243.551C79.7214 245.018 78.0389 246.512 76.2844 247.89C71.4227 251.716 66.532 255.506 61.6431 259.295L60.9646 259.821C59.2406 261.158 57.4885 262.452 55.7563 263.775C55.4611 264 55.1988 264.277 54.7436 264.687C55.1918 264.763 55.458 264.897 55.6058 264.815C56.3484 264.439 57.0619 264.009 57.7404 263.527L58.1509 263.219C61.9626 260.361 65.7727 257.503 69.5428 254.588C72.7375 252.119 75.8824 249.585 79.0306 247.057C80.1769 246.133 81.2516 245.118 82.3695 244.159C82.6427 243.913 82.9778 243.739 83.3397 243.491C83.999 244.294 84.6258 245.005 84.9223 246.041C84.5324 246.699 83.9097 247.158 83.3338 247.64C80.2407 250.236 77.126 252.804 74.0295 255.397C73.0944 256.178 72.1641 256.968 71.2912 257.815C70.8172 258.279 70.2323 258.728 70.1941 259.478C70.3076 259.547 70.3627 259.613 70.4195 259.612C70.5349 259.609 70.6817 259.616 70.7613 259.551C75.6331 255.495 80.5017 251.435 85.3668 247.372C85.4077 247.335 85.4905 247.345 85.6303 247.317C86.1851 247.63 86.4481 248.176 86.6185 248.937C86.1967 249.351 85.767 249.815 85.2921 250.229C81.2709 253.712 77.2713 257.222 73.21 260.656C68.0705 265 62.8439 269.244 57.7128 273.597C52.7296 277.831 47.8285 282.16 42.8855 286.438C42.4438 286.81 42.0234 287.207 41.6265 287.626C41.4857 287.78 41.4856 288.06 41.3827 288.409C42.5609 288.077 43.3033 287.355 44.0725 286.699C46.1753 284.924 48.2478 283.115 50.3615 281.333C57.6192 275.224 64.9055 269.146 72.1414 263.012C76.8349 259.035 81.4617 254.977 86.1234 250.962C86.4951 250.628 86.9187 250.351 87.3172 250.046C88.0177 251.085 88.0377 251.145 87.4212 251.727C86.583 252.519 85.7161 253.283 84.8494 254.043C80.446 257.964 76.0524 261.899 71.6288 265.798C63.7925 272.708 55.9461 279.607 48.0896 286.497C44.7191 289.458 41.3265 292.397 37.9745 295.379C31.3599 301.253 24.7576 307.142 18.1676 313.044C17.508 313.638 16.8953 314.284 16.0648 315.099C16.5442 315.154 16.8165 315.273 16.9416 315.184C17.5561 314.745 18.1679 314.255 18.7451 313.749C26.7873 306.683 34.8228 299.61 42.8667 292.546C49.3268 286.884 55.8507 281.294 62.2763 275.613C68.1339 270.433 73.8994 265.147 79.7337 259.938C82.4021 257.535 85.1122 255.183 87.8091 252.812C88.1324 252.521 88.4593 252.125 88.9623 252.448C89.3504 252.696 89.2692 253.245 88.756 253.748C88.2428 254.25 87.7264 254.712 87.2058 255.187C78.9999 262.647 70.7705 270.08 62.5946 277.577C57.5862 282.167 52.6802 286.868 47.6969 291.487L46.2787 292.801C38.4766 300.03 30.6745 307.259 22.8215 314.435C16.8581 319.882 10.8156 325.245 4.79016 330.623C3.16982 332.082 1.50602 333.489 -0.139494 334.92L-25.1545 307.119ZM1.34742 329.718C0.163772 330.679 -1.0033 331.663 -2.17875 332.637L-2.94652 331.769C1.30304 328.305 5.55316 324.841 9.80385 321.378C9.98254 321.202 10.1808 321.046 10.3949 320.914C10.5347 320.849 10.8565 320.866 10.9002 320.948C11.0038 321.142 11.1031 321.487 11.0027 321.615C10.6544 322.069 10.2563 322.483 9.81575 322.849C6.99627 325.155 4.16803 327.425 1.34742 329.718ZM3.61272 312.757C2.86112 313.346 2.15091 313.993 1.14634 314.431C0.92085 313.673 1.36597 313.427 1.69847 313.165C3.26445 311.845 4.84562 310.54 6.44193 309.252C9.13401 307.08 11.8361 304.92 14.5482 302.773C18.465 299.668 22.4326 296.645 26.3051 293.472C31.5595 289.17 36.6919 284.721 41.9547 280.427C46.1225 277.026 50.3787 273.733 54.6416 270.448C57.6863 268.105 60.8044 265.854 63.8907 263.564C64.0289 263.432 64.187 263.323 64.3593 263.24C64.5161 263.19 64.8316 263.193 64.8633 263.266C64.9489 263.465 65.0349 263.83 64.929 263.925C64.1951 264.638 63.4217 265.308 62.6122 265.934C59.2263 268.466 55.7658 270.897 52.4332 273.496C47.7759 277.109 43.1418 280.755 38.6449 284.561C33.1178 289.241 27.5775 293.899 21.8952 298.388C15.8094 303.188 9.71524 307.978 3.61272 312.757ZM-9.03634 302.413C-9.31986 302.583 -9.61856 302.67 -9.93184 302.277C-9.53355 301.629 -8.86148 301.243 -8.25122 300.818C-6.56151 299.668 -4.85183 298.544 -3.13748 297.432C1.89996 294.163 6.94128 290.898 11.9865 287.637C12.1965 287.499 12.4246 287.39 12.6643 287.314C12.7255 287.308 12.7872 287.317 12.8447 287.339C12.9023 287.361 12.9541 287.395 12.9965 287.44C13.0739 287.522 13.1479 287.705 13.1069 287.779C12.9832 288.064 12.8017 288.321 12.5738 288.532C11.8603 289.07 11.1166 289.575 10.3633 290.057C5.09782 293.442 -0.173376 296.821 -5.45021 300.196C-6.63829 300.965 -7.84096 301.674 -9.03634 302.413ZM21.314 290.1C20.7668 290.505 20.2213 290.979 19.2504 290.69C19.578 290.334 19.9248 289.997 20.2894 289.68C21.8428 288.443 23.4114 287.224 24.9949 286.023L39.3807 275.095C39.6816 274.862 40.0074 274.664 40.3523 274.504C40.4378 274.488 40.5259 274.493 40.6087 274.52C40.6916 274.547 40.7665 274.594 40.8267 274.657C40.9047 274.762 40.9238 275.082 40.8402 275.158L40.5896 275.377C39.614 276.231 38.6386 277.085 37.6165 277.881C35.8462 279.256 34.0358 280.582 32.2422 281.927C28.6016 284.655 24.9661 287.389 21.314 290.1ZM-8.93681 311.622C-9.44468 311.951 -9.93824 312.382 -10.8431 312.326C-10.5195 311.438 -9.92202 311.16 -9.42255 310.821C-4.08712 307.178 1.2532 303.544 6.59834 299.919C6.86688 299.754 7.15666 299.627 7.4597 299.541C7.52031 299.532 7.58242 299.538 7.64001 299.56C7.69759 299.581 7.74873 299.617 7.78855 299.664C7.85338 299.818 7.91527 300.1 7.83537 300.172C7.2814 300.697 6.69086 301.182 6.06817 301.624C2.6203 303.946 -0.843989 306.242 -4.30343 308.547C-5.84316 309.572 -7.37844 310.614 -8.93681 311.622ZM26.0217 278.157C25.7781 278.319 25.5014 278.503 25.0841 278.121C26.6996 276.34 38.9162 267.759 41.5345 266.549C41.6097 266.578 41.676 266.627 41.7268 266.69C41.7776 266.752 41.8111 266.827 41.8241 266.907C41.837 266.987 41.829 267.069 41.8006 267.144C41.7723 267.22 41.7248 267.286 41.6627 267.338C41.2035 267.778 40.7087 268.18 40.1831 268.538C36.8031 270.851 33.4204 273.157 30.035 275.459C28.7125 276.362 27.3852 277.254 26.0531 278.136L26.0217 278.157ZM35.8689 292.065C36.0382 292.014 36.2754 292.195 36.5241 292.288C36.2619 293.051 35.7254 293.419 35.252 293.801C32.0801 296.39 28.9075 298.97 25.7341 301.541C24.8409 302.265 23.9345 302.969 23.0213 303.667C22.6266 303.968 22.2525 304.352 21.5529 304.199C21.5978 303.969 21.6828 303.749 21.8041 303.548C22.161 303.183 22.5408 302.841 22.9413 302.524C26.9807 299.195 31.0228 295.869 35.0678 292.547C35.3004 292.335 35.5726 292.171 35.8689 292.065ZM33.4209 268.162C32.9244 268.511 32.4755 269.04 31.379 268.988C31.7029 268.511 31.8258 268.221 32.044 268.045C32.8736 267.352 33.7157 266.658 34.5939 266.019C36.0447 264.966 37.537 263.966 38.9959 262.926C41.0289 261.477 43.0437 260 45.0834 258.558C45.4825 258.277 45.9084 257.886 46.4638 258.223C46.7509 258.4 46.5095 258.823 45.8003 259.381C45.5509 259.578 45.3011 259.783 45.0399 259.968C41.1719 262.705 37.3089 265.451 33.4209 268.162ZM1.80342 320.841C1.49182 321.041 1.16765 321.22 0.832892 321.378C0.797553 320.496 1.30938 320.132 1.78683 319.792L1.80988 319.776C4.02796 317.964 6.28941 316.171 8.54511 314.386C9.39856 313.713 10.2753 313.068 11.142 312.413C11.7025 311.989 12.2631 311.565 12.8337 311.153C13.09 310.959 13.3794 310.813 13.6952 311.052C13.9204 311.224 13.7892 311.642 13.3841 312.007C13.0464 312.301 12.6988 312.583 12.3426 312.857C10.7723 314.065 9.20534 315.277 7.62679 316.472C5.6953 317.937 3.75419 319.393 1.80342 320.841Z" fill="white"/>
</svg>
