<svg width="24" height="30" viewBox="0 0 24 30" fill="none" xmlns="http://www.w3.org/2000/svg">
<path d="M22.0485 22.6163C24.9376 19.3999 24.6284 14.7938 21.0569 12.1697C19.3654 10.9289 17.2626 9.99833 15.1989 9.56782C15.3389 9.16429 15.522 8.78719 15.8043 8.47861C16.6285 7.57821 18.4764 7.56149 19.6401 7.38886C19.7952 7.36512 19.9317 7.21838 19.9691 7.08459C19.9772 7.05654 19.9848 7.03064 19.9924 6.99989C20.0606 6.75713 19.9084 6.54403 19.664 6.46365C19.2166 6.31691 18.7745 6.17934 18.3423 6.0175C19.1618 5.7839 19.9959 5.59562 20.7962 5.30268C21.1788 5.16188 21.2727 4.60136 20.7962 4.49346C20.3103 4.38826 19.8291 4.3068 19.3624 4.18596C20.8166 3.86227 22.2719 3.36864 23.3318 2.41053C23.6118 2.15805 23.407 1.68708 23.0115 1.69517C21.0085 1.73671 18.8077 1.66604 16.8362 2.00214C15.5984 2.21362 15.235 3.43878 15.0087 4.4147C14.6494 5.96517 14.4412 7.71363 14.0399 9.37792C13.9874 9.37145 13.9349 9.3639 13.8824 9.3585C11.1835 9.08229 8.46298 9.33207 6.10238 10.0447C6.07466 9.89751 6.05654 9.74888 6.04814 9.59965C5.98456 8.38798 7.76827 7.28852 8.62105 6.56939C8.6804 6.51508 8.72292 6.44704 8.74415 6.37236C8.76539 6.29768 8.76458 6.2191 8.7418 6.14482L8.71205 6.06227C8.6767 5.95206 8.59656 5.8588 8.48845 5.80207C8.38034 5.74533 8.25268 5.72954 8.13225 5.75801C7.65978 5.8659 7.20248 5.9738 6.73701 6.05634C7.30106 5.42245 7.91293 4.82524 8.42857 4.15197C8.65255 3.85849 8.28041 3.41558 7.9176 3.5375C7.43988 3.69935 6.98433 3.87737 6.51419 4.0144C7.53496 3.01259 8.46065 1.86889 8.78438 0.541226C8.86545 0.208906 8.46765 -0.153626 8.11884 0.0681005C7.1529 0.680411 6.23071 1.34667 5.28227 1.98272C4.53798 2.48174 3.71787 2.89498 3.06574 3.50406C2.21122 4.30572 2.62244 5.47963 3.001 6.38866C3.55105 7.70985 4.15767 9.01108 4.70714 10.3333C4.73105 10.3911 4.75672 10.4504 4.78122 10.5087C2.55594 11.4042 0.24901 13.5109 0.0221081 16.8891C-0.140048 19.3022 0.577405 21.9182 2.58569 23.412C4.1666 24.5809 6.02467 25.3865 8.00743 25.7625C14.1629 26.8954 18.5557 25.6622 21.1613 23.4708C21.9144 23.8781 21.7446 25.0855 21.4658 25.6913C20.8452 27.0351 18.9991 27.4646 17.5816 27.4716C15.7734 27.4797 13.9139 27.8195 14.2994 29.8707C14.3403 30.0864 14.6547 30.0055 14.678 29.8232C14.9352 27.8244 17.5041 28.6174 19.062 28.4092C20.62 28.201 22.0369 27.2952 22.6919 25.9767C23.2122 24.9328 23.1154 23.3591 22.0485 22.6163ZM7.85694 20.8084C7.22406 21.7984 6.24821 22.1992 5.2776 22.1469C3.76103 22.0649 2.54253 21.1052 2.05781 19.6405C1.32344 17.4194 2.58278 13.4208 5.13236 13.3242C6.05047 13.2892 7.01291 13.82 7.81144 15.0506C8.92203 16.7564 8.94537 19.1058 7.85694 20.8084ZM18.5522 21.1553C16.5329 23.2906 14.1355 23.583 12.3594 22.8277C10.1429 21.8869 9.30701 19.5029 10.5459 16.6636C12.0042 13.3188 16.53 11.5423 18.9331 13.601C21.2774 15.6116 20.3675 19.2332 18.5522 21.1553Z" fill="#FF7478"/>
</svg>
