<svg width="266" height="132" viewBox="0 0 266 132" fill="none" xmlns="http://www.w3.org/2000/svg">
<path d="M276.113 0.580977C274.922 0.877892 273.719 1.22856 272.505 1.46868C265.143 2.94598 257.877 4.86468 250.745 7.21438C241.939 10.1046 233.194 13.1619 224.585 16.5744C222.036 17.5844 219.56 18.7747 217.053 19.8866C216.106 20.3042 215.168 20.7412 214.22 21.1487C213.893 21.3043 213.553 21.4318 213.205 21.5296C212.061 21.8103 212.058 21.7983 211.898 22.8266L211.817 23.3367C199.561 27.6059 187.284 31.818 174.817 35.6371C174.504 35.3155 174.24 35.004 173.936 34.7364C173.082 33.9856 172.261 33.1831 171.332 32.5301C170.694 32.0948 169.978 31.7862 169.224 31.6212C167.582 31.2718 166.148 31.732 165.037 33.0422C163.735 34.5761 163.407 36.3452 163.837 38.3747C163.533 38.4966 163.224 38.6961 162.891 38.7434C158.992 39.2975 155.095 39.8738 151.137 39.6622C148.708 39.534 146.278 39.418 143.85 39.2551C141.78 39.1297 139.733 38.7509 137.755 38.127C135.901 37.5305 133.984 37.4975 132.071 37.4559C131.5 37.4592 130.932 37.5355 130.381 37.6829C128.124 38.2211 127.031 40.4101 128.006 42.5055C128.285 43.1163 128.688 43.6621 129.191 44.1078C129.894 44.7055 130.717 45.1629 131.512 45.6451C131.916 45.8622 132.331 46.0561 132.757 46.2259C132.664 46.6397 132.347 46.5457 132.134 46.5461C129.496 46.5315 126.857 46.5128 124.217 46.474C121.733 46.4358 119.249 46.3346 116.764 46.337C115.516 46.3071 114.274 46.5261 113.111 46.9812C112.534 47.2049 111.996 47.5183 111.516 47.9098C110.687 48.6294 110.748 49.6139 111.612 50.3051C111.945 50.5546 112.304 50.7674 112.682 50.9397C114.226 51.6847 115.904 52.1118 117.616 52.1958C120.352 52.3621 123.091 52.5282 125.825 52.7535C126.728 52.8266 127.658 52.8366 128.669 53.2654C128.494 53.3403 128.312 53.399 128.127 53.4406C125.801 53.5934 123.478 53.7703 121.15 53.8785C118.771 53.9894 116.388 54.0193 114.008 54.1099C112.597 54.1331 111.197 54.3573 109.849 54.776C109.164 55.0028 108.504 55.3026 107.883 55.6702C107.49 55.9215 107.156 56.2528 106.901 56.6425C106.372 57.417 106.592 58.3025 107.405 58.7669C107.771 58.9598 108.154 59.1178 108.55 59.2387C110.889 60.0484 113.315 60.2418 115.754 60.1318C118.34 60.0091 120.915 59.7189 123.496 59.4991C124.318 59.4104 125.144 59.3747 125.97 59.3922C125.215 59.7039 124.432 59.9461 123.633 60.1159C121.461 60.6062 119.285 61.0785 117.134 61.6461C115.271 62.1112 113.495 62.8763 111.878 63.9113C111.305 64.2646 110.783 64.6938 110.326 65.1871C109.405 66.2495 109.829 67.4619 111.218 67.7359C111.83 67.8403 112.45 67.8953 113.07 67.9004C116.327 68.0212 119.449 67.3829 122.51 66.3098C125.098 65.4039 127.711 64.5688 130.315 63.71C130.603 63.6139 130.911 63.5686 131.19 63.5037C131.425 63.8706 131.157 64.0157 130.994 64.1639C129.989 65.0794 128.803 65.7147 127.601 66.3269C126.494 66.8903 125.394 67.4693 124.305 68.0758C123.812 68.3612 123.341 68.6838 122.897 69.0408C122.612 69.2629 122.362 69.5253 122.154 69.8199C121.524 70.7208 121.917 71.7514 123.013 71.9436C123.578 72.0145 124.15 72.023 124.717 71.9689C127.531 71.8343 130.24 71.153 132.937 70.3978C137.928 69.0124 142.797 67.2207 147.495 65.0408C147.815 64.8911 148.154 64.7803 148.451 64.6772C148.549 64.7721 148.61 64.8032 148.616 64.8413C148.887 66.6432 150.044 67.7875 151.515 68.6447C152.405 69.1753 153.359 69.5807 154.291 70.0246C155.362 70.5394 156.446 71.0369 157.515 71.5681C157.816 71.75 158.105 71.9518 158.379 72.1721C158.162 72.34 157.928 72.4855 157.681 72.6064C155.633 73.3537 153.47 73.7393 151.289 73.7457C146.681 73.723 142.068 73.6722 137.478 74.2157C135.627 74.4345 133.782 74.6993 131.937 74.9662C131.58 75.0153 131.234 75.1266 130.915 75.295C129.994 75.7996 129.768 76.8822 130.471 77.6585C130.846 78.0854 131.316 78.4193 131.842 78.6339C132.753 79.0036 133.705 79.2609 134.678 79.4001C137.092 79.6777 139.518 79.93 141.945 80.0138C144.425 80.0991 146.913 79.9727 149.397 79.942C149.669 79.9206 149.942 79.9808 150.179 80.1149C149.921 80.1821 149.666 80.2715 149.403 80.3127C144.957 81.0263 140.503 81.71 136.061 82.4617C134.842 82.6904 133.64 83.007 132.467 83.4091C131.672 83.6669 130.958 84.1256 130.392 84.7407C129.377 85.8438 129.588 87.1438 130.913 87.817C131.425 88.0643 131.973 88.2293 132.536 88.3059C133.304 88.4184 134.081 88.4678 134.857 88.4537C138.483 88.3671 142.102 88.0985 145.7 87.6491C147.188 87.4683 148.686 87.3879 150.288 87.2477C149.806 87.653 149.278 87.7417 148.761 87.8763C146.905 88.3429 145.039 88.7841 143.206 89.3095C142.019 89.6507 140.841 90.0966 139.696 90.5498C138.531 90.9922 137.449 91.6301 136.498 92.4361C136.066 92.8029 135.701 93.2426 135.421 93.7353C134.948 94.6104 135.245 95.5053 136.123 95.9843C136.488 96.1766 136.882 96.306 137.29 96.367C138.165 96.4919 139.054 96.4697 139.921 96.3011C142.942 95.7731 145.85 94.8371 148.771 93.9467C150.794 93.3295 152.811 92.6905 154.973 92.0186C154.707 92.6606 154.199 92.8125 153.816 93.0692C152.07 94.1988 150.564 95.6616 149.385 97.3738C149.087 97.7962 148.829 98.246 148.616 98.717C148.188 99.7343 148.699 100.621 149.806 100.733C150.269 100.782 150.738 100.736 151.182 100.598C152.322 100.256 153.438 99.8376 154.521 99.3445C156.194 98.5267 157.816 97.5916 159.443 96.6946C163.255 94.6025 167.051 92.4792 170.876 90.4082C174.207 88.6035 177.658 87.0784 181.335 86.1035C183.238 85.5982 185.154 85.1609 187.124 85.0291C187.894 84.9739 188.655 84.7714 189.428 84.7261C192.58 84.5396 195.735 84.3569 198.89 84.2289C202.46 84.085 206.032 84.0098 209.611 83.8833C214.217 83.7116 218.822 83.5055 223.426 83.3217C223.99 83.2987 224.559 83.324 225.135 83.3264C225.705 84.0879 225.841 84.9706 226.097 85.792C226.685 87.6879 226.83 87.9328 229.075 87.9981C232.024 88.0829 234.97 88.1436 237.926 88.0777C243.674 87.9481 249.42 87.7334 255.148 87.2141C262.119 86.5947 268.989 85.134 275.61 82.8639C277.666 82.1566 279.719 81.4415 281.781 80.756C282.223 80.6365 282.674 80.5469 283.128 80.488L282.938 78.3139C282.635 78.3695 282.334 78.4405 282.038 78.5265C279.932 79.2402 277.824 79.952 275.736 80.6905C270.572 82.5514 265.227 83.8661 259.788 84.6132C255.687 85.1525 251.545 85.4521 247.419 85.7076C243.598 85.9465 239.767 86.0018 235.94 86.1033C234.601 86.1414 233.261 86.0902 231.914 86.0803C231.685 85.7789 231.486 85.4568 231.318 85.1181C231.052 84.3949 230.829 83.6498 230.598 82.9113C230.474 82.5164 230.382 82.1188 230.234 81.726C230.193 81.6181 229.936 81.4722 229.894 81.5042C229.755 81.6056 229.561 81.7911 229.574 81.9237C229.623 82.4891 229.725 83.0486 229.879 83.5949C230.113 84.3676 230.418 85.1178 230.731 85.9424C229.879 86.1056 228.998 86.0311 228.185 85.727C227.701 84.0898 227.165 82.4692 226.741 80.8206C226.022 78.1146 225.73 75.3127 225.877 72.5166C226.095 69.0491 226.847 65.6606 227.386 62.2421C227.449 62.0359 227.542 61.84 227.661 61.6602C228.629 61.5025 229.498 60.9721 230.545 61.0488C230.681 61.6942 230.271 62.1784 230.217 62.7206C230.163 63.2629 229.683 63.8789 230.388 64.4948C230.56 64.1389 230.702 63.8811 230.804 63.6085C231.093 62.8326 231.38 62.057 231.64 61.2715C231.84 60.6657 232.252 60.4066 232.857 60.2279C239.192 58.4404 245.612 57.0734 252.044 55.7296C254.833 55.1489 257.63 54.6587 260.392 53.9546C266.911 52.293 273.364 50.4058 279.68 48.0783C279.876 48.0241 280.077 47.9855 280.279 47.963L280.089 45.795C277.84 46.5698 275.6 47.3723 273.341 48.1157C265.76 50.6083 258.022 52.5945 250.178 54.0612C247.384 54.5835 244.599 55.2166 241.834 55.8805C238.361 56.7138 234.907 57.6225 231.452 58.5211C229.948 58.9103 228.465 59.3707 226.965 59.7697C226.184 59.978 225.704 60.4338 225.517 61.2169C225.422 61.6107 225.297 61.9968 225.193 62.3609C224.9 62.4413 224.705 62.5091 224.506 62.5509C220.35 63.4175 216.198 64.3021 212.036 65.1369C207.772 65.9927 203.492 66.7586 199.232 67.6344C195.738 68.3877 192.195 68.8855 188.629 69.1239C187.807 69.1468 186.985 69.1041 186.17 68.9963C185.365 68.9125 184.531 69.1883 183.714 69.1645C182.057 69.1066 180.4 69.0385 178.755 68.8559C173.178 68.2383 167.723 67.0826 162.492 64.9945C161.626 64.6484 160.757 64.312 159.884 63.9853C158.043 63.2924 156.189 62.6432 154.235 62.3212C154.171 62.3105 154.126 62.1807 154.07 62.1064C156.048 60.6189 167.849 55.7831 170.403 55.4379C170.677 55.8196 170.964 56.2428 171.275 56.6477C172.175 57.8658 173.429 58.7775 174.865 59.2587C177.095 59.9906 179.12 59.2029 180.315 57.1732C181.015 55.956 181.42 54.5925 181.501 53.1911C181.534 52.7358 181.447 52.2485 181.79 51.8594C185.235 50.7121 220.01 41.4159 222.142 41.562C222.471 41.9389 222.836 42.3796 223.205 42.8079C224.108 43.8774 225.153 44.8192 226.31 45.6073C226.602 45.8192 226.943 45.9552 227.301 46.0031C227.66 46.0511 228.024 46.0095 228.362 45.8821C231.759 44.7391 235.281 44.1105 238.803 43.5203C243.091 42.8003 247.388 42.1384 251.689 41.4963C258.4 40.5035 265.103 39.4749 271.887 39.0639C274.159 38.926 276.44 38.9151 278.718 38.8619C278.975 38.879 279.23 38.9199 279.479 38.9839L279.289 36.8158C277.425 36.8653 275.557 36.8401 273.701 36.9782C269.872 37.2645 266.06 37.5838 262.249 37.9922C259.213 38.3207 256.19 38.7719 253.168 39.2249C249.584 39.7636 246.016 40.4145 242.428 40.9252C238.736 41.4511 235.066 42.1028 231.425 42.9122C230.573 43.1024 229.729 43.3304 228.942 43.5352C228.223 42.8983 227.878 42.1556 227.587 41.3778C226.946 39.6816 226.158 38.0448 225.232 36.4862C222.594 32.0048 219.62 27.782 215.731 24.2702C215.497 24.0636 215.275 23.8447 215.065 23.6145C214.963 23.4613 214.876 23.2983 214.807 23.1279L217.839 21.7936C218.254 22.2806 218.611 22.7139 218.986 23.1314C219.283 23.4888 219.611 23.8185 219.967 24.1167C220.11 24.2258 220.407 24.139 220.716 24.1424C220.454 23.3539 219.901 22.9276 219.514 22.3935C219.283 22.073 218.89 21.8254 218.994 21.2727C219.23 21.1425 219.489 20.9717 219.768 20.8499C221.616 20.0391 223.446 19.1792 225.325 18.4509C229.187 16.9555 233.064 15.5006 236.956 14.0863C244.016 11.5396 251.129 9.14437 258.323 7.00171C262.494 5.75843 266.731 4.77919 270.982 3.86568C272.752 3.48364 274.53 3.12725 276.304 2.76114L276.113 0.580977ZM165.741 35.5933C165.965 35.2472 166.166 34.8847 166.416 34.5586C167.145 33.6165 168.028 33.3059 169.16 33.6998C169.739 33.9197 170.284 34.2226 170.776 34.5991C172.044 35.5227 173.044 36.7111 173.976 37.9704C175.875 40.5245 177.285 43.3323 178.415 46.3045C179.121 48.2003 179.495 50.2035 179.522 52.2262C179.576 53.5272 179.285 54.8193 178.679 55.9715C177.908 57.4062 176.66 57.8419 175.148 57.2075C174.132 56.7945 173.274 56.0689 172.699 55.1356C172.623 55.0124 172.671 54.8155 172.633 54.3787C173.042 54.7932 173.255 55.0058 173.463 55.2229C173.783 55.5601 174.073 55.9343 174.422 56.2385C175.845 57.4811 177.595 57.0785 178.344 55.3416C178.642 54.6755 178.763 53.9439 178.695 53.2174C178.621 52.2367 178.495 51.2605 178.32 50.2927C177.581 46.7629 176.181 43.4836 174.317 40.4112C173.59 39.2188 172.768 38.0866 171.859 37.0258C171.211 36.2874 170.465 35.6421 169.64 35.1082C168.4 34.2917 167.592 34.4132 166.419 35.39C166.219 35.5576 166.046 35.7594 165.756 35.5961L165.846 36.138L165.795 36.1424L165.741 35.5933ZM136.804 47.8252C137.431 48.4033 138.015 48.908 138.557 49.4529C139.326 50.2233 140.023 51.0671 140.825 51.7982C143.975 54.6647 147.586 55.9269 151.844 54.8546C152.459 54.6994 152.81 54.3116 152.766 53.8023C152.717 53.2467 152.223 52.8639 151.53 52.9145C151.013 52.958 150.5 53.0287 149.991 53.1262C148.756 53.3339 147.488 53.2198 146.31 52.795C144.676 52.2665 143.193 51.3527 141.986 50.1306C141.194 49.3114 140.422 48.4824 139.623 47.6597C138.331 46.2985 136.705 45.2994 134.907 44.7618C134.157 44.559 133.424 44.2997 132.713 43.9862C131.976 43.6164 131.267 43.1923 130.592 42.7173C130.165 42.4125 129.86 41.9651 129.733 41.4557C129.521 40.7217 129.789 40.0735 130.498 39.8066C130.972 39.5973 131.482 39.4837 132 39.4723C133.908 39.5549 135.827 39.5737 137.673 40.2073C139.099 40.6852 140.579 40.9863 142.078 41.1039C144.141 41.2825 146.203 41.4814 148.272 41.5945C151.27 41.7582 154.272 41.8688 157.273 41.5373C161.448 41.0767 165.591 40.4566 169.646 39.3289C170.084 39.2055 170.531 39.0021 170.995 39.2109C173.617 42.4462 176.192 48.3246 176.224 51.1962C175.964 51.3021 175.687 51.4338 175.399 51.526C172.987 52.3111 170.564 53.0627 168.16 53.8734C162.411 55.8106 156.87 58.2569 151.432 60.9355C145.105 64.0551 138.638 66.8198 131.79 68.6015C130.086 69.0447 128.363 69.4064 126.643 69.78C126.398 69.8319 126.065 69.9929 125.816 69.5948C126.381 69.1031 127.073 68.8539 127.697 68.5134C128.786 67.915 129.893 67.3496 130.96 66.7167C131.944 66.1332 132.801 65.3565 133.478 64.4334C133.821 63.9805 134.093 63.4778 134.285 62.9428C134.644 61.8809 134.028 61.0524 132.907 61.1079C132.132 61.1495 131.365 61.2896 130.625 61.5246C127.565 62.4915 124.516 63.4898 121.477 64.5198C119.056 65.3402 116.593 65.8904 114.025 65.898C113.733 65.8992 113.394 66.008 113.146 65.5834C113.371 65.3987 113.609 65.2301 113.858 65.0788C115.282 64.3334 116.791 63.7647 118.353 63.3853C120.565 62.8429 122.793 62.364 125.015 61.8552C126.428 61.5287 127.857 61.2333 129.161 60.5513C129.713 60.2746 130.21 59.8998 130.628 59.4452C131.236 58.7449 130.969 57.7581 130.111 57.3869C129.679 57.2192 129.221 57.1255 128.758 57.1097C126.992 56.9985 125.241 57.2044 123.497 57.4625C120.323 57.9669 117.109 58.1801 113.897 58.0995C112.603 58.0545 111.309 57.9425 110.063 57.5485C109.845 57.4378 109.641 57.2995 109.457 57.1369C110.476 56.4981 111.52 56.3926 112.546 56.317C114.509 56.1696 116.478 56.121 118.442 56.004C122.06 55.7909 125.681 55.5877 129.294 55.3101C130.157 55.2448 131.011 54.9429 131.843 54.6673C132.511 54.4445 133.014 53.9826 133.064 53.2115C133.104 52.5995 132.596 51.9887 131.699 51.7081C130.905 51.4752 130.096 51.2966 129.277 51.1735C125.745 50.6292 122.181 50.3149 118.608 50.2326C117.103 50.1878 115.607 50.0327 114.211 49.4003C114.018 49.2727 113.841 49.1235 113.683 48.9555C114.889 48.5055 116.17 48.2902 117.457 48.3211C121.132 48.4053 124.807 48.5381 128.483 48.5857C131.207 48.6334 133.967 48.7834 136.804 47.8272L136.804 47.8252ZM137.627 94.3253C137.972 93.7675 138.487 93.3361 139.097 93.0952C140.318 92.538 141.536 91.9386 142.816 91.5527C145.142 90.8482 147.519 90.3116 149.857 89.6506C151.15 89.286 152.424 88.8459 153.681 88.3749C154.161 88.1841 154.6 87.9011 154.971 87.5419C155.654 86.8878 155.495 85.922 154.669 85.4506C154.077 85.1181 153.402 84.9657 152.725 85.0121C151.536 85.0756 150.347 85.139 149.162 85.2508C145.657 85.5798 142.156 85.9713 138.648 86.262C137.003 86.4059 135.34 86.3708 133.686 86.3999C133.177 86.4079 132.659 86.3944 132.143 85.9953C132.361 85.818 132.527 85.6027 132.743 85.5209C133.562 85.214 134.38 84.8483 135.232 84.6946C137.981 84.1883 140.745 83.7619 143.503 83.3097C146.261 82.8575 149.022 82.4212 151.776 81.9449C152.541 81.8115 153.296 81.6288 154.038 81.3981C154.535 81.257 155.007 81.0406 155.438 80.7563C156.182 80.2389 156.162 79.3136 155.416 78.8129C155.064 78.599 154.684 78.4324 154.288 78.3173C152.696 77.831 151.021 77.6812 149.369 77.8774C145.693 78.2437 142.025 78.0817 138.358 77.8002C136.916 77.689 135.486 77.4428 134.05 77.2541C133.808 77.2205 133.531 77.1656 133.478 76.7686C134.351 76.6578 135.216 76.5334 136.086 76.435C139.635 76.0135 143.205 75.7912 146.779 75.7693C149.158 75.764 151.541 75.874 153.916 75.6012C155.561 75.3924 157.173 74.9787 158.716 74.3699C159.151 74.2049 159.563 73.9841 159.942 73.7129C161.022 72.9308 161.105 71.8606 160.108 70.9721C159.57 70.487 158.972 70.0724 158.329 69.7383C157.136 69.1184 155.887 68.609 154.682 68.0105C153.753 67.5596 152.848 67.0613 151.969 66.5176C151.413 66.1606 150.91 65.7015 150.757 64.9724C151.249 64.3371 151.938 64.3316 152.6 64.3062C153.898 64.269 155.191 64.4815 156.409 64.9323C158.408 65.6378 160.408 66.3534 162.387 67.1153C167.845 69.21 173.493 70.3772 179.292 70.9287C179.793 70.9761 180.292 71.0724 180.793 71.1462L181.278 73.183C181.407 73.6325 181.363 74.114 181.155 74.5326C180.149 76.5314 180.388 78.4295 181.674 80.2319C181.837 80.4313 181.949 80.6671 182.001 80.9193C182.12 81.8319 182.309 82.7443 182.193 83.6916C181.948 83.811 181.695 83.9132 181.435 83.9973C177.327 84.9856 173.501 86.6814 169.806 88.6843C165.985 90.757 162.191 92.8781 158.388 94.9695C156.754 95.867 155.123 96.7663 153.467 97.6191C152.842 97.9416 152.212 98.3233 151.326 98.3197C151.413 98.1204 151.515 97.9277 151.63 97.7434C152.68 96.3614 154.041 95.3417 155.478 94.3985C156.516 93.7194 157.543 93.0149 158.51 92.2406C159.027 91.8126 159.468 91.3001 159.814 90.7249C160.288 89.9531 159.825 89.1336 158.923 89.0259C158.667 88.9957 158.407 89.0081 158.155 89.0626C157.397 89.2304 156.635 89.3985 155.893 89.6175C153.617 90.3116 151.354 91.0654 149.077 91.7413C146.4 92.5354 143.712 93.302 141.012 94.023C140.17 94.2468 139.277 94.2945 138.409 94.405C138.149 94.4059 137.889 94.3824 137.634 94.3348L137.627 94.3253ZM176.121 37.442C176.658 37.2367 176.985 37.0946 177.322 36.9859C182.883 35.185 188.456 33.4276 194 31.5814C200.085 29.5561 206.142 27.448 212.213 25.3813C212.646 25.2338 213.094 25.1358 213.473 25.0337C213.689 25.1913 213.828 25.2704 213.943 25.372C218.023 28.9847 221.109 33.3721 223.794 38.0685C223.908 38.2613 223.923 38.5277 224.015 38.8727C223.531 38.9415 223.043 38.9794 222.554 38.9863C222.144 38.9451 221.732 39.033 221.375 39.2376C220.978 39.472 220.548 39.6463 220.1 39.7548C215.83 40.8018 211.537 41.7637 207.285 42.874C198.977 45.0431 190.691 47.2915 182.393 49.5023C182.109 49.5778 181.811 49.5998 181.429 49.6637C180.518 45.232 178.665 41.2763 176.127 37.4435L176.121 37.442ZM224.877 64.6382C224.686 65.8192 224.54 66.7894 224.371 67.7536C223.913 70.3617 223.628 72.9852 223.873 75.6311C224.009 77.1772 224.272 78.7079 224.48 80.2436C224.517 80.5324 224.53 80.8234 224.553 81.081C224.378 81.1653 224.289 81.2441 224.196 81.2481C212.317 81.9405 200.407 81.9298 188.532 82.7354C188.481 82.7297 188.433 82.7116 188.391 82.6828C188.321 82.6389 188.253 82.5906 188.188 82.5383L187.991 80.2837C189.972 77.6762 189.665 75.3784 187.589 73.3713L187.54 71.4018C188.143 71.1239 188.721 71.1687 189.272 71.1367C191.855 70.9657 194.424 70.6332 196.966 70.1411C200.324 69.5207 203.669 68.8325 207.018 68.1601C212.394 67.0813 217.77 65.997 223.146 64.9073C223.636 64.8076 224.145 64.7529 224.883 64.6396L224.877 64.6382ZM184.885 79.5128C184.093 79.5943 183.596 79.3923 183.208 78.8928C182.776 78.3018 182.556 77.583 182.583 76.852C182.581 75.5356 183.346 74.704 184.661 74.6173C185.13 74.5727 185.602 74.667 186.019 74.8885C186.435 75.1099 186.776 75.4488 187.002 75.8629C187.476 76.6491 187.358 77.4849 186.906 78.2264C186.43 79.0246 185.601 79.3548 184.891 79.5143L184.885 79.5128ZM183.375 72.6182C183.031 72.2426 182.985 71.7861 183.183 71.1664L185.349 71.2811L185.45 72.4366L183.375 72.6182ZM184.426 83.2631C184.275 82.6251 184.097 82.1538 184.423 81.6587C184.935 81.5997 185.426 81.3864 185.987 81.6315C186.027 82.0945 186.268 82.5238 185.894 83.0251C185.502 83.0898 185.052 83.1636 184.438 83.264L184.426 83.2631ZM176.553 53.2771C176.648 53.997 176.637 54.4706 176.139 54.8793C175.894 54.7987 175.672 54.659 175.494 54.4726C175.316 54.2862 175.186 54.0588 175.116 53.8105C175.545 53.6553 175.964 53.501 176.559 53.2786L176.553 53.2771ZM167.969 37.5973C167.947 36.8548 168.013 36.6766 168.227 36.6944C168.411 36.6968 168.587 36.7694 168.719 36.8975C168.851 37.0255 168.929 37.1992 168.937 37.3828C168.665 37.4593 168.382 37.5125 167.976 37.6028L167.969 37.5973Z" fill="#0F143A" fill-opacity="0.8"/>
<path d="M276.303 2.74936C274.529 3.10742 272.751 3.46583 270.981 3.8539C266.731 4.77144 262.494 5.75068 258.322 6.98993C251.126 9.13277 244.015 11.5278 236.955 14.0745C233.06 15.4809 229.183 16.9358 225.324 18.4391C223.445 19.1675 221.609 20.0279 219.767 20.8381C219.486 20.9601 219.227 21.1309 218.993 21.2609C218.889 21.8136 219.282 22.0612 219.513 22.3818C219.9 22.9158 220.452 23.3381 220.715 24.1307C220.406 24.1272 220.113 24.2137 219.966 24.1049C219.61 23.8067 219.282 23.477 218.985 23.1197C218.61 22.7022 218.253 22.2688 217.838 21.7819L214.806 23.1161C214.875 23.2865 214.962 23.4495 215.064 23.6027C215.274 23.8329 215.496 24.0518 215.73 24.2585C219.619 27.7723 222.593 31.993 225.231 36.4744C226.157 38.033 226.945 39.6698 227.586 41.366C227.878 42.1519 228.222 42.8865 228.941 43.5234C229.735 43.3261 230.573 43.0986 231.424 42.9005C235.065 42.091 238.736 41.4494 242.427 40.9134C246.015 40.3967 249.583 39.7518 253.167 39.2131C256.189 38.7601 259.212 38.309 262.248 37.9804C266.067 37.5713 269.879 37.252 273.7 36.9664C275.556 36.8284 277.424 36.8535 279.288 36.8041L276.303 2.74936ZM227.5 37.7892C227.592 37.6447 227.701 37.5119 227.824 37.3936C227.868 37.3716 227.917 37.3606 227.965 37.3616C228.014 37.3627 228.062 37.3757 228.105 37.3995C228.277 37.5022 228.424 37.6435 228.533 37.8124C228.879 38.5529 229.199 39.3059 229.501 40.0666C229.503 40.134 229.488 40.201 229.458 40.2614C229.428 40.3218 229.383 40.3737 229.328 40.4123C229.258 40.4273 229.186 40.4248 229.118 40.4049C229.05 40.385 228.987 40.3485 228.937 40.2985C228.438 39.4698 227.973 38.6281 227.5 37.7892ZM226.541 33.2075C226.312 33.2763 226.133 33.3913 226.05 33.3438C225.157 32.8236 224.749 31.9647 224.525 31.0045C224.506 30.921 224.667 30.7304 224.776 30.6985C224.846 30.6845 224.919 30.6876 224.987 30.7078C225.056 30.728 225.118 30.7645 225.17 30.8142C225.685 31.5769 226.144 32.3769 226.541 33.2075ZM223.479 27.4874C223.219 27.5101 222.95 27.6067 222.875 27.5402C222.39 26.9558 221.935 26.3445 221.499 25.7234C221.441 25.6412 221.516 25.3405 221.58 25.3228C221.748 25.2776 222.02 25.2599 222.114 25.3592C222.679 25.9467 223.192 26.5773 223.479 27.4934L223.479 27.4874Z" fill="white"/>
<path d="M280.259 47.965C280.057 47.9875 279.856 48.026 279.66 48.0802C273.344 50.4077 266.891 52.2949 260.372 53.9565C257.618 54.6599 254.809 55.1512 252.024 55.7315C245.592 57.0753 239.166 58.4428 232.837 60.2298C232.231 60.4005 231.82 60.6677 231.62 61.2735C231.36 62.0589 231.073 62.8346 230.784 63.6104C230.682 63.883 230.536 64.1412 230.368 64.4967C229.663 63.8808 230.143 63.2729 230.197 62.7226C230.25 62.1722 230.661 61.6961 230.525 61.0508C229.478 60.974 228.609 61.5044 227.641 61.6621C227.522 61.8419 227.429 62.0379 227.366 62.244C226.827 65.6645 226.075 69.051 225.857 72.5185C225.71 75.3147 226.002 78.1166 226.721 80.8225C227.137 82.4718 227.673 84.0924 228.165 85.7289C228.978 86.033 229.859 86.1076 230.711 85.9443C230.408 85.1189 230.093 84.3756 229.859 83.5969C229.705 83.0505 229.603 82.491 229.554 81.9256C229.543 81.7928 229.729 81.6081 229.874 81.5061C229.916 81.4741 230.172 81.62 230.214 81.7279C230.362 82.1207 230.454 82.5184 230.578 82.9132C230.809 83.6517 231.024 84.3976 231.298 85.1201C231.466 85.4587 231.665 85.7809 231.894 86.0822C233.241 86.0921 234.581 86.1433 235.92 86.1052C239.747 85.9997 243.578 85.9444 247.399 85.7095C251.529 85.4536 255.667 85.1545 259.768 84.6151C265.2 83.8673 270.539 82.5531 275.698 80.694C277.796 79.9547 279.904 79.2428 282 78.53C282.296 78.444 282.597 78.373 282.9 78.3174L280.259 47.965ZM229.124 69.7802C228.82 68.5411 229.019 67.2318 229.678 66.1393C229.729 66.0476 230.008 65.9684 230.073 66.0175C230.203 66.1319 230.362 66.3492 230.331 66.4858C230.124 67.431 229.888 68.3705 229.62 69.3027C229.571 69.4551 229.364 69.5543 229.124 69.7802ZM228.592 76.9792C228.269 75.9464 228.213 74.8485 228.43 73.7883C228.436 73.7371 228.461 73.6899 228.5 73.6565C228.621 73.5809 228.761 73.4612 228.878 73.4773C228.944 73.4976 229.003 73.5344 229.051 73.5842C229.099 73.634 229.133 73.6951 229.15 73.7619C229.124 74.7297 229.073 75.6963 228.998 76.6617C228.998 76.753 228.792 76.8258 228.592 76.9792Z" fill="white"/>
<path d="M64.5459 90.8407C64.5954 91.4063 64.8897 91.7559 65.3551 91.8125C65.8637 91.8755 66.3843 91.8442 66.9007 91.8578C67.8807 91.8836 68.8653 91.8685 69.8421 91.9514C71.2848 92.0727 72.3736 92.8091 73.0902 94.0669C73.498 94.7859 73.8652 95.5286 74.2537 96.2594C74.5309 96.7848 74.8629 97.2406 75.5621 97.1409C76.1431 97.0576 76.4466 96.6314 76.4992 95.7262C76.5414 95.0024 76.5144 94.2765 76.5403 93.5521C76.5527 93.1892 76.595 92.8279 76.6669 92.472C76.8868 91.3919 77.4127 90.5405 78.5212 90.1799C79.7518 89.7781 80.9835 89.3884 82.2173 89.0005C82.8096 88.8148 83.4208 88.6822 83.9953 88.4555C84.1926 88.3813 84.3594 88.2434 84.4694 88.0636C84.5793 87.8839 84.6261 87.6725 84.6022 87.4632C84.5875 87.2549 84.5051 87.0571 84.3676 86.8999C84.2301 86.7428 84.045 86.6349 83.8404 86.5926C83.5893 86.5333 83.3321 86.5034 83.074 86.5035C82.7127 86.5006 82.3495 86.5466 81.9867 86.55C80.7961 86.5581 79.6061 86.5588 78.4168 86.5519C78.107 86.5403 77.7983 86.5104 77.4921 86.4624C76.0168 86.271 74.9917 85.5432 74.5931 84.0486C74.4809 83.6466 74.3435 83.2521 74.1815 82.8675C73.8833 82.1492 73.4854 81.8675 72.9199 81.9413C72.4004 82.0091 72.1234 82.297 71.9815 83.0174C71.8819 83.5251 71.8683 84.0416 71.7835 84.5561C71.703 85.224 71.5863 85.887 71.4339 86.5421C71.0987 87.7886 70.2856 88.6041 69.002 88.8868C68.192 89.0652 67.382 89.2436 66.5636 89.372C65.9465 89.4683 65.3702 89.7406 64.9039 90.1562C64.6995 90.3465 64.6253 90.6816 64.5459 90.8407ZM76.8222 88.5211C76.2552 89.2036 75.7276 89.7123 75.3566 90.3168C74.9855 90.9213 74.7929 91.5953 74.4735 92.3495C73.6343 91.3963 72.599 90.6358 71.4386 90.12C71.9045 89.5802 72.3678 89.1482 72.6985 88.6385C73.0433 88.0582 73.3559 87.4593 73.6349 86.8445C74.1515 87.1847 74.5952 87.5273 75.0861 87.7825C75.6117 88.0631 76.1908 88.2599 76.8222 88.5211Z" fill="#0F143A" fill-opacity="0.8"/>
<path d="M120.881 99.2289C118.465 99.4402 116.499 100.154 114.793 101.526C114.314 101.917 113.889 102.369 113.53 102.872C113.309 103.218 113.18 103.614 113.154 104.023C113.13 104.178 113.14 104.336 113.182 104.487C113.225 104.638 113.3 104.778 113.402 104.897C113.504 105.017 113.631 105.112 113.773 105.178C113.915 105.245 114.07 105.279 114.227 105.28C114.843 105.292 115.458 105.211 116.05 105.039C116.79 104.81 117.511 104.523 118.206 104.181C120.582 103.047 123.054 102.127 125.593 101.431C125.989 101.32 126.373 101.17 126.74 100.982C127.074 100.813 127.037 100.27 126.694 100.087C126.513 99.9896 126.322 99.9111 126.124 99.8533C124.327 99.3249 122.498 99.0569 120.881 99.2289ZM124.656 100.647C122.68 101.429 120.766 102.166 118.861 102.929C118.048 103.254 117.268 103.657 116.449 103.964C115.87 104.179 115.273 104.339 114.665 104.442C114.196 104.526 113.918 104.061 114.13 103.615C114.211 103.426 114.317 103.249 114.445 103.088C114.674 102.811 114.929 102.555 115.206 102.326C117.998 100.155 121.118 99.5773 124.522 100.438C124.559 100.447 124.575 100.512 124.656 100.647Z" fill="#0F143A" fill-opacity="0.8"/>
<path d="M123.13 90.6444C123.119 90.0368 123.206 89.7331 123.093 89.6009C122.83 89.2868 122.507 89.0282 122.142 88.8403C120.933 88.2699 119.711 87.7243 118.476 87.2036C117.009 86.5585 115.44 86.1754 113.841 86.0715C112.211 85.995 110.929 86.6346 110.062 88.0249C109.877 88.3328 109.754 88.6736 109.698 89.0284C109.641 89.2855 109.683 89.5547 109.815 89.7822C109.948 90.0097 110.162 90.1789 110.414 90.2559C110.9 90.4188 111.41 90.497 111.923 90.4869C113.004 90.4451 114.08 90.3144 115.158 90.2039C116.802 90.05 118.445 89.9163 120.083 89.7223C121.084 89.6124 122.03 89.6392 123.13 90.6444ZM119.55 88.702C119.332 88.7891 119.109 88.8615 118.881 88.9187C117.042 89.1303 115.202 89.346 113.361 89.5335C112.747 89.5977 112.13 89.6165 111.514 89.5896C111.235 89.5775 110.866 89.4698 110.715 89.2701C110.465 88.943 110.724 88.5877 110.934 88.2955C111.697 87.2368 112.763 86.8271 114.03 86.9576C115.968 87.1649 117.845 87.7579 119.55 88.702Z" fill="#0F143A" fill-opacity="0.8"/>
<path d="M123.914 30.8815C124.418 30.5433 124.458 30.1523 124.323 29.7382C123.382 27.0273 122.088 24.5238 119.977 22.5197C119.308 21.8657 118.47 21.412 117.556 21.2101C117.256 21.1403 116.948 21.1046 116.64 21.1036C115.982 21.1126 115.395 21.3384 115.113 21.9695C114.832 22.6007 115.102 23.1876 115.563 23.6524C115.954 24.064 116.38 24.4414 116.836 24.7804C119.075 26.3547 121.143 28.1598 123.005 30.1659C123.288 30.4289 123.592 30.6683 123.914 30.8815ZM122.687 28.3133C122.601 28.3006 122.484 28.3188 122.438 28.2702C120.787 26.6356 118.928 25.2505 117.092 23.8533C116.726 23.5703 116.393 23.2486 116.097 22.8936C115.776 22.516 115.999 22.0786 116.505 22.0222C117.498 21.909 118.31 22.3349 119.061 22.9021C120.456 23.9546 122.086 26.4043 122.687 28.3133Z" fill="#0F143A" fill-opacity="0.8"/>
<path d="M129.13 24.0027C129.256 23.6448 129.439 23.3671 129.444 23.0806C129.499 20.5321 129.288 18.0231 128.054 15.7192C127.746 15.125 127.363 14.5734 126.912 14.0786C126.548 13.7184 126.108 13.4431 125.625 13.2724C125.467 13.2122 125.297 13.1899 125.128 13.2074C124.96 13.2248 124.798 13.2815 124.656 13.3729C124.514 13.4643 124.395 13.5878 124.309 13.7335C124.223 13.8792 124.172 14.043 124.161 14.2118C124.13 14.6732 124.192 15.1362 124.343 15.5732C124.591 16.2508 124.893 16.9075 125.245 17.537C126.166 19.207 127.083 20.8774 127.79 22.6553C128.014 23.2139 128.207 23.8421 129.13 24.0027ZM128.303 21.2818C128.205 21.1717 128.116 21.054 128.037 20.9298C127.389 19.7018 126.74 18.4739 126.092 17.2459C125.807 16.6968 125.527 16.1451 125.279 15.5806C125.092 15.1568 124.957 14.7081 125.181 14.1571C125.407 14.2124 125.709 14.194 125.856 14.3394C126.313 14.7479 126.716 15.213 127.056 15.7233C128.038 17.3454 128.451 19.143 128.496 21.0276C128.49 21.0951 128.384 21.1672 128.303 21.2818Z" fill="#0F143A" fill-opacity="0.8"/>
<path d="M135.484 24.2077C135.543 24.8781 135.58 25.5504 135.661 26.2208C135.718 26.4696 135.821 26.7055 135.965 26.9163C136.079 27.1092 136.518 27.0708 136.617 26.8593C136.687 26.7193 136.742 26.5724 136.781 26.4209C137.066 25.041 137.683 23.7821 138.312 22.5323C138.831 21.5092 139.235 20.4555 139.343 19.2979C139.422 18.6254 139.303 17.9446 139.003 17.3377C138.48 16.3145 137.358 16.159 136.565 16.9871C136.1 17.4848 135.812 18.1216 135.746 18.7993C135.592 20.0805 135.498 21.3707 135.428 22.6588C135.434 23.1767 135.475 23.6937 135.551 24.2059L135.484 24.2077ZM136.679 23.7381C136.535 23.6756 136.469 23.6631 136.467 23.639C136.145 21.8841 136.345 20.1526 136.763 18.4425C136.856 18.148 137.007 17.875 137.206 17.639C137.27 17.5578 137.353 17.4942 137.448 17.4543C137.543 17.4143 137.647 17.3993 137.75 17.4106C137.852 17.422 137.95 17.4593 138.034 17.5191C138.118 17.5788 138.186 17.6591 138.23 17.7522C138.545 18.3333 138.549 18.9414 138.443 19.5592C138.165 21.0887 137.427 22.417 136.679 23.7381Z" fill="#0F143A" fill-opacity="0.8"/>
<path d="M74.2827 39.67C74.3767 39.8159 74.4262 39.9881 74.5354 40.0536C75.7855 40.7556 77.0396 41.4573 78.3036 42.1317C78.5334 42.2323 78.7798 42.2898 79.0304 42.3014C79.1043 42.3112 79.2254 42.2113 79.2672 42.1326C79.3019 42.0409 79.2995 41.9393 79.2606 41.8492C79.221 41.7553 79.1531 41.6762 79.0664 41.6228C77.784 40.8769 76.5017 40.1311 75.1971 39.4095C75.0126 39.3281 74.8065 39.3091 74.6102 39.3553C74.4943 39.3756 74.4057 39.5456 74.2827 39.67Z" fill="#0F143A" fill-opacity="0.8"/>
<path d="M49.5299 107.822C48.5678 107.12 45.6888 105.653 44.9306 105.519C44.8374 105.514 44.7445 105.533 44.6605 105.574C44.5765 105.614 44.5041 105.676 44.4499 105.752C44.4282 105.843 44.4304 105.938 44.4564 106.028C44.4825 106.118 44.5314 106.2 44.5984 106.266C45.8963 106.889 47.2083 107.486 48.525 108.069C48.8416 108.209 49.2063 108.344 49.5299 107.822Z" fill="#0F143A" fill-opacity="0.8"/>
<path d="M75.7726 45.3613C76.8937 44.9589 77.9603 44.5836 79.0164 44.1809C79.0691 44.1352 79.1091 44.0767 79.1325 44.0111C79.1559 43.9454 79.1619 43.8748 79.1499 43.8061C79.1162 43.7425 79.0685 43.6874 79.0103 43.645C78.9521 43.6027 78.885 43.5741 78.8141 43.5616C78.6103 43.549 78.4061 43.5758 78.2125 43.6406C77.3693 43.8807 76.5296 44.1368 75.6896 44.3888C75.4248 44.4687 75.1697 44.6371 75.2343 44.9114C75.2734 45.0804 75.5597 45.1994 75.7726 45.3613Z" fill="#0F143A" fill-opacity="0.8"/>
<path d="M49.5577 109.716C49.4139 109.625 49.2684 109.47 49.1064 109.45C48.9002 109.441 48.695 109.483 48.5084 109.571C47.5967 109.93 46.6874 110.296 45.7885 110.687C45.6869 110.73 45.5688 111.004 45.6181 111.057C45.7279 111.2 45.9506 111.403 46.0716 111.372C47.2603 111.047 48.4442 110.668 49.4576 109.94C49.4857 109.913 49.4943 109.85 49.5577 109.716Z" fill="#0F143A" fill-opacity="0.8"/>
<path d="M54.5596 102.386C54.1631 102.352 53.8958 102.241 53.8207 102.333C52.9913 103.217 52.5248 104.284 52.2513 105.448C52.2367 105.512 52.3405 105.633 52.4174 105.677C52.4589 105.702 52.5056 105.717 52.5538 105.72C52.602 105.724 52.6504 105.716 52.6951 105.697C52.8535 105.57 52.9877 105.414 53.0911 105.239C53.549 104.375 53.9879 103.503 54.5596 102.386Z" fill="#0F143A" fill-opacity="0.8"/>
<path d="M86.7216 40.3689C86.0963 40.594 85.1726 40.9101 84.261 41.2718C84.1727 41.3059 84.0961 41.5439 84.1265 41.6589C84.1568 41.7739 84.3232 41.8445 84.4406 41.9336C84.4874 41.9575 84.5416 41.9622 84.5918 41.9468C85.5273 41.6499 86.4678 41.3628 87.3924 41.0344C87.5282 40.986 87.5889 40.7291 87.6866 40.5705C87.5202 40.4775 87.3577 40.3822 87.1882 40.2997C87.1504 40.2847 87.0883 40.3165 86.7216 40.3689Z" fill="#0F143A" fill-opacity="0.8"/>
<path d="M87.4935 45.7581C87.5464 45.6421 87.5687 45.5144 87.5584 45.3873C87.5418 45.3393 87.5158 45.295 87.4818 45.2572C87.4479 45.2195 87.4066 45.1889 87.3606 45.1673C86.5331 44.7508 85.7035 44.3345 84.8659 43.9413C84.7965 43.9114 84.721 43.8983 84.6457 43.9031C84.5703 43.908 84.4971 43.9306 84.4322 43.9691C84.3207 44.1075 84.2567 44.2781 84.2496 44.4556C85.235 45.0774 86.2035 45.7594 87.4935 45.7581Z" fill="#0F143A" fill-opacity="0.8"/>
<path d="M54.2823 107.285C55.0607 107.58 55.6595 107.028 56.3072 106.803C56.8212 106.626 57.4298 106.535 57.7405 105.982C57.7788 105.91 57.7229 105.781 57.7105 105.64C56.7215 105.465 55.9443 106.064 55.1006 106.367C54.7877 106.518 54.5017 106.719 54.2541 106.962C54.2145 106.996 54.2707 107.152 54.2823 107.285Z" fill="#0F143A" fill-opacity="0.8"/>
<path d="M57.9626 110.539C57.0851 110.052 56.1544 109.668 55.1889 109.394C54.8576 109.293 54.5813 109.405 54.4816 109.888C54.6107 110.009 54.7562 110.111 54.9138 110.191C55.7829 110.503 56.6538 110.812 57.5367 111.073C57.8222 111.16 58.0144 110.969 57.9626 110.539Z" fill="#0F143A" fill-opacity="0.8"/>
<path d="M82.4886 40.1651C82.651 40.0738 82.828 40.034 82.8998 39.9263C83.4614 39.0657 84.0071 38.1924 84.5368 37.3063C84.5606 37.2399 84.5678 37.1686 84.5578 37.0988C84.5478 37.029 84.5209 36.9626 84.4794 36.9056C84.321 36.8343 84.02 36.7794 83.9444 36.8652C83.1691 37.6906 82.5989 38.687 82.2799 39.7736C82.2596 39.8666 82.4062 40.012 82.4886 40.1651Z" fill="#0F143A" fill-opacity="0.8"/>
<path d="M81.1131 45.3099C80.9605 45.165 80.8696 45.0067 80.752 44.9845C80.6813 44.9766 80.6096 44.986 80.5434 45.0119C80.4771 45.0379 80.4181 45.0796 80.3715 45.1334C80.163 45.4821 79.9833 45.8472 79.8341 46.2251C79.6269 46.7426 79.451 47.2721 79.3075 47.8108C79.2763 47.9413 79.4408 48.1521 79.5668 48.2709C79.6068 48.31 79.8816 48.2048 79.9337 48.1049C80.1725 47.658 80.3813 47.1935 80.5778 46.726C80.7742 46.2585 80.9357 45.7859 81.1131 45.3099Z" fill="#0F143A" fill-opacity="0.8"/>
<path d="M51.4198 110.967C51.3466 110.897 51.2871 110.796 51.1998 110.772C51.1018 110.75 50.9993 110.765 50.9113 110.813C50.8191 110.855 50.7449 110.928 50.7022 111.02C50.4237 111.894 50.1434 112.771 49.9187 113.657C49.8879 113.769 50.0948 113.978 50.2359 114.083C50.2814 114.116 50.5436 113.983 50.5813 113.881C50.887 113.016 51.1673 112.14 51.4458 111.265C51.4554 111.165 51.4466 111.064 51.4198 110.967Z" fill="#0F143A" fill-opacity="0.8"/>
<path d="M50.5158 105.549C50.1209 104.653 49.7548 103.806 49.3635 102.974C49.3187 102.879 49.0541 102.776 48.989 102.821C48.8456 102.92 48.6351 103.158 48.6719 103.254C49.0011 104.111 49.362 104.958 49.7544 105.796C49.81 105.871 49.8834 105.93 49.968 105.968C50.0526 106.007 50.1456 106.023 50.2381 106.016C50.3607 105.979 50.423 105.718 50.5158 105.549Z" fill="#0F143A" fill-opacity="0.8"/>
<path d="M80.3621 40.134C80.383 40.0023 80.4641 39.8391 80.4244 39.7107C80.1451 38.8365 79.866 37.9643 79.5553 37.103C79.518 37.0008 79.2606 36.8651 79.2069 36.9002C79.0562 37.0157 78.9351 37.1654 78.8536 37.3368C78.8267 37.4354 78.8359 37.5404 78.8795 37.6328C79.1235 38.3579 79.3576 39.0859 79.6349 39.798C79.7465 40.0763 79.9494 40.3324 80.3621 40.134Z" fill="#0F143A" fill-opacity="0.8"/>
<path d="M54.6083 113.887C54.6864 113.643 54.7948 113.492 54.7665 113.376C54.5661 112.639 54.3536 111.903 54.0959 111.184C54.0437 111.105 53.9724 111.041 53.8888 110.998C53.8052 110.954 53.712 110.933 53.6178 110.935C53.539 110.977 53.4725 111.039 53.4247 111.114C53.3768 111.189 53.3494 111.276 53.345 111.365C53.5692 112.096 53.8311 112.817 54.1205 113.528C54.1756 113.672 54.403 113.743 54.6083 113.887Z" fill="#0F143A" fill-opacity="0.8"/>
<path d="M84.1759 47.3465C84.0436 46.924 83.8469 46.2292 83.5952 45.5554C83.553 45.4435 83.2636 45.3816 83.0892 45.3826C83.0188 45.3888 82.8698 45.6331 82.8932 45.7386C83.0606 46.4927 83.2459 47.2433 83.4747 47.9799C83.5167 48.1121 83.7779 48.1765 83.9386 48.274C84.0297 48.1098 84.127 47.9471 84.2097 47.7797C84.2285 47.7395 84.2058 47.6887 84.1759 47.3465Z" fill="#0F143A" fill-opacity="0.8"/>
<path d="M136.804 47.8272C133.967 48.7834 131.207 48.6336 128.468 48.5995C124.792 48.5519 121.118 48.4311 117.442 48.3348C116.155 48.3039 114.874 48.5193 113.668 48.9693C113.826 49.1372 114.003 49.2865 114.196 49.414C115.592 50.0485 117.088 50.2036 118.593 50.2464C122.166 50.3287 125.73 50.643 129.262 51.1873C130.081 51.3104 130.89 51.489 131.684 51.7219C132.581 51.9964 133.088 52.5971 133.049 53.2252C132.999 53.9964 132.496 54.4583 131.828 54.6811C130.996 54.9567 130.142 55.2586 129.279 55.3239C125.667 55.6014 122.045 55.8047 118.427 56.0178C116.463 56.1328 114.494 56.1814 112.531 56.3308C111.505 56.4063 110.462 56.5118 109.442 57.1507C109.626 57.3133 109.83 57.4516 110.048 57.5622C111.3 57.9558 112.588 58.0683 113.882 58.1133C117.094 58.1938 120.308 57.9806 123.482 57.4762C125.226 57.2182 126.977 57.0122 128.743 57.1234C129.206 57.1393 129.664 57.233 130.096 57.4006C130.954 57.7718 131.229 58.758 130.613 59.459C130.195 59.9136 129.698 60.2884 129.146 60.565C127.852 61.2462 126.424 61.5456 125 61.869C122.779 62.3777 120.551 62.8566 118.338 63.3991C116.777 63.7785 115.267 64.3472 113.843 65.0926C113.594 65.2439 113.356 65.4125 113.131 65.5972C113.371 66.0224 113.718 65.9129 114.01 65.9117C116.578 65.9041 119.033 65.3526 121.462 64.5336C124.501 63.505 127.551 62.5066 130.61 61.5384C131.35 61.3033 132.117 61.1633 132.892 61.1217C134.023 61.0653 134.639 61.8938 134.27 62.9566C134.078 63.4916 133.806 63.9942 133.463 64.4471C132.786 65.3703 131.93 66.147 130.945 66.7304C129.878 67.3633 128.772 67.9348 127.682 68.5271C127.058 68.8677 126.374 69.1162 125.801 69.6086C126.059 70.0059 126.391 69.8449 126.628 69.7938C128.348 69.4202 130.071 69.0585 131.775 68.6153C138.623 66.8335 145.09 64.0689 151.417 60.9493C156.863 58.2699 162.396 55.8243 168.145 53.8872C170.548 53.0684 172.972 52.3248 175.384 51.5397C175.672 51.4476 175.949 51.3159 176.21 51.2099C176.177 48.3384 173.602 42.46 170.98 39.2247C170.516 39.0199 170.069 39.2233 169.631 39.3427C165.576 40.4704 161.433 41.0904 157.258 41.551C154.257 41.8826 151.255 41.772 148.257 41.6083C146.188 41.4952 144.126 41.2963 142.063 41.1177C140.564 41.0001 139.084 40.699 137.658 40.2211C135.812 39.5874 133.893 39.5687 131.985 39.4861C131.467 39.4974 130.957 39.611 130.483 39.8204C129.774 40.0853 129.506 40.7355 129.718 41.4695C129.845 41.9789 130.15 42.4262 130.577 42.7311C131.252 43.2061 131.961 43.6302 132.699 43.9999C133.409 44.3135 134.143 44.5728 134.892 44.7756C136.69 45.3132 138.316 46.3123 139.608 47.6735C140.399 48.4969 141.173 49.3257 141.971 50.1444C143.178 51.3665 144.661 52.2803 146.295 52.8088C147.473 53.2335 148.741 53.3476 149.976 53.14C150.485 53.0424 150.998 52.9718 151.515 52.9282C152.208 52.8777 152.706 53.2601 152.751 53.8161C152.795 54.3254 152.44 54.7135 151.829 54.8684C147.575 55.9403 143.964 54.6781 140.81 51.8119C140.008 51.0809 139.311 50.2371 138.542 49.4666C138.023 48.9096 137.431 48.4053 136.804 47.8272Z" fill="white"/>
<path d="M137.634 94.3351C137.885 94.3837 138.139 94.4089 138.395 94.4105C139.268 94.2997 140.16 94.2561 140.999 94.0286C143.698 93.3076 146.386 92.543 149.063 91.7469C151.345 91.0706 153.603 90.3172 155.88 89.6231C156.621 89.398 157.383 89.2359 158.141 89.0682C158.394 89.0136 158.653 89.0012 158.909 89.0315C159.811 89.1392 160.274 89.9587 159.8 90.7305C159.454 91.3057 159.014 91.8182 158.497 92.2462C157.53 93.0205 156.502 93.725 155.464 94.4041C154.027 95.3412 152.666 96.367 151.617 97.7489C151.501 97.9333 151.399 98.126 151.312 98.3253C152.199 98.3289 152.829 97.9471 153.454 97.6247C155.109 96.7719 156.749 95.8719 158.374 94.9751C162.185 92.8829 165.98 90.7619 169.792 88.6899C173.488 86.687 177.313 84.9892 181.421 84.0029C181.681 83.9188 181.934 83.8166 182.18 83.6972C182.3 82.7496 182.106 81.8374 181.988 80.9248C181.939 80.6734 181.831 80.4373 181.672 80.2364C180.387 78.434 180.147 76.536 181.153 74.5371C181.362 74.1185 181.406 73.637 181.276 73.1876L180.792 71.1507C180.291 71.077 179.791 70.9807 179.29 70.9332C173.491 70.3817 167.835 69.2152 162.386 67.1199C160.406 66.3579 158.402 65.6427 156.408 64.9369C155.19 64.4861 153.896 64.2735 152.598 64.3107C151.937 64.3361 151.248 64.3416 150.756 64.977C150.909 65.706 151.412 66.1711 151.968 66.5221C152.846 67.0658 153.752 67.5641 154.681 68.0151C155.885 68.6136 157.135 69.1229 158.327 69.7428C158.97 70.0769 159.568 70.4915 160.106 70.9766C161.095 71.8658 161.012 72.936 159.941 73.7174C159.562 73.9886 159.15 74.2095 158.714 74.3745C157.172 74.9833 155.56 75.3969 153.915 75.6057C151.539 75.8785 149.156 75.7725 146.777 75.7738C143.203 75.7957 139.633 76.018 136.084 76.4395C135.215 76.5379 134.349 76.6623 133.476 76.7731C133.53 77.1742 133.806 77.225 134.048 77.2586C135.486 77.4554 136.914 77.6935 138.356 77.8047C142.032 78.0916 145.697 78.2477 149.367 77.882C151.02 77.6857 152.695 77.8355 154.286 78.3218C154.683 78.4369 155.062 78.6035 155.415 78.8174C156.161 79.3181 156.181 80.2434 155.437 80.7608C155.006 81.0451 154.533 81.2615 154.037 81.4026C153.295 81.6333 152.539 81.816 151.774 81.9495C149.02 82.4217 146.259 82.86 143.502 83.3142C140.744 83.7685 137.98 84.1929 135.231 84.6991C134.378 84.8568 133.561 85.2225 132.741 85.5255C132.525 85.6072 132.361 85.8224 132.142 85.9998C132.657 86.399 133.176 86.4124 133.684 86.4045C135.339 86.3753 137.001 86.4024 138.646 86.2665C142.154 85.9758 145.656 85.5843 149.16 85.2553C150.346 85.1516 151.535 85.0801 152.724 85.0166C153.4 84.9702 154.076 85.1226 154.667 85.4552C155.493 85.9265 155.653 86.8923 154.97 87.5464C154.598 87.9057 154.16 88.1886 153.679 88.3794C152.422 88.8505 151.148 89.2905 149.856 89.6552C147.518 90.3161 145.141 90.8527 142.815 91.5572C141.536 91.9449 140.319 92.5444 139.096 93.0997C138.488 93.3435 137.976 93.7768 137.634 94.3351Z" fill="white"/>
<path d="M176.127 37.4435C178.665 41.2784 180.518 45.2321 181.436 49.6693C181.818 49.6055 182.116 49.5834 182.4 49.5079C190.697 47.2971 198.984 45.0487 207.291 42.8796C211.543 41.7693 215.833 40.8078 220.106 39.7604C220.555 39.6519 220.984 39.4776 221.382 39.2432C221.739 39.0386 222.151 38.9507 222.561 38.9919C223.049 38.985 223.537 38.9471 224.021 38.8783C223.93 38.5334 223.916 38.279 223.801 38.0741C221.116 33.3777 218.03 28.9903 213.949 25.3776C213.835 25.276 213.7 25.1965 213.479 25.0393C213.101 25.1414 212.653 25.2394 212.22 25.3869C206.149 27.4536 200.092 29.5617 194.007 31.587C188.462 33.4332 182.89 35.1966 177.329 36.9915C176.991 37.0961 176.665 37.2382 176.127 37.4435Z" fill="white"/>
<path d="M224.883 64.6396C224.145 64.7529 223.636 64.8078 223.138 64.9082C217.761 65.9885 212.385 67.0728 207.01 68.1611C203.661 68.8334 200.316 69.5217 196.958 70.142C194.417 70.6341 191.847 70.9666 189.264 71.1377C188.713 71.1697 188.135 71.1249 187.532 71.4028L187.581 73.3722C189.665 75.3786 189.971 77.6704 187.983 80.2846L188.181 82.5453C188.245 82.5976 188.313 82.6459 188.384 82.6898C188.426 82.7186 188.474 82.7367 188.524 82.7424C200.4 81.9367 212.31 81.9475 224.189 81.2551C224.282 81.247 224.37 81.1723 224.546 81.088C224.523 80.8303 224.498 80.5404 224.472 80.2506C224.273 78.7101 224.017 77.1787 223.866 75.6381C223.62 72.9921 223.905 70.3606 224.363 67.7606C224.546 66.7912 224.699 65.8242 224.883 64.6396Z" fill="white"/>
<path d="M165.751 35.5866C166.045 35.7515 166.212 35.5462 166.413 35.3826C167.583 34.404 168.391 34.2825 169.634 35.1008C170.458 35.6348 171.204 36.2801 171.852 37.0184C172.761 38.0793 173.583 39.2114 174.311 40.4039C176.174 43.4763 177.574 46.7555 178.313 50.2854C178.489 51.2532 178.614 52.2294 178.689 53.21C178.756 53.9366 178.635 54.6682 178.337 55.3342C177.588 57.0712 175.839 57.4738 174.415 56.2311C174.066 55.9269 173.776 55.5527 173.456 55.2156C173.249 54.9984 173.035 54.7858 172.626 54.3713C172.664 54.8082 172.624 55.0044 172.692 55.1283C173.268 56.0615 174.125 56.7872 175.141 57.2001C176.653 57.8346 177.901 57.3988 178.672 55.9642C179.279 54.812 179.569 53.5198 179.515 52.2189C179.488 50.1961 179.114 48.193 178.409 46.2971C177.279 43.3289 175.875 40.5206 173.969 37.963C173.048 36.7109 172.038 35.5234 170.77 34.5917C170.277 34.2152 169.733 33.9123 169.153 33.6925C168.021 33.2986 167.132 33.6097 166.409 34.5513C166.159 34.8774 165.958 35.2399 165.735 35.586L165.751 35.5866Z" fill="white"/>
<path d="M184.891 79.5143C185.601 79.3548 186.43 79.0247 186.918 78.2275C187.371 77.486 187.49 76.65 187.014 75.864C186.789 75.4499 186.447 75.111 186.031 74.8896C185.615 74.6681 185.143 74.5738 184.673 74.6184C183.358 74.7051 182.593 75.5367 182.595 76.8531C182.569 77.5841 182.789 78.3028 183.22 78.8938C183.602 79.3939 184.099 79.5958 184.891 79.5143Z" fill="white"/>
<path d="M183.381 72.6198L185.456 72.4382L185.355 71.2827L183.189 71.1679C182.992 71.7877 183.038 72.2522 183.381 72.6198Z" fill="white"/>
<path d="M184.438 83.264C185.058 83.1631 185.508 83.0894 185.906 83.0262C186.268 82.5259 186.028 82.0966 185.999 81.6326C185.438 81.3875 184.948 81.6008 184.436 81.6598C184.104 82.1554 184.281 82.6266 184.438 83.264Z" fill="white"/>
<path d="M176.559 53.2786C175.97 53.5005 175.545 53.6556 175.122 53.8103C175.192 54.0586 175.322 54.286 175.5 54.4724C175.679 54.6588 175.9 54.7985 176.145 54.8791C176.645 54.4722 176.655 54.0025 176.559 53.2786Z" fill="white"/>
<path d="M167.976 37.6028C168.374 37.5132 168.669 37.4489 168.943 37.3884C168.935 37.2047 168.857 37.0311 168.726 36.903C168.594 36.775 168.418 36.7023 168.234 36.6999C168.019 36.6822 167.954 36.8603 167.976 37.6028Z" fill="white"/>
<path d="M165.742 35.5954L165.789 36.1369L165.839 36.1325L165.751 35.5905L165.742 35.5954Z" fill="white"/>
<path d="M227.5 37.7892C227.979 38.6296 228.438 39.4716 228.937 40.3002C228.987 40.3502 229.05 40.3868 229.118 40.4067C229.186 40.4265 229.259 40.4291 229.328 40.4141C229.383 40.3754 229.428 40.3236 229.458 40.2632C229.489 40.2028 229.503 40.1358 229.501 40.0683C229.199 39.3077 228.879 38.5547 228.533 37.8142C228.424 37.6453 228.278 37.5039 228.105 37.4013C228.062 37.3774 228.014 37.3644 227.966 37.3634C227.917 37.3624 227.868 37.3734 227.825 37.3954C227.701 37.513 227.592 37.6454 227.5 37.7892Z" fill="#0F143A" fill-opacity="0.8"/>
<path d="M226.541 33.2075C226.144 32.3769 225.685 31.5769 225.17 30.8142C225.118 30.7645 225.056 30.728 224.987 30.7078C224.919 30.6876 224.846 30.6845 224.776 30.6985C224.667 30.7304 224.506 30.925 224.525 31.0045C224.749 31.9647 225.157 32.8236 226.05 33.3438C226.134 33.3973 226.315 33.2821 226.541 33.2075Z" fill="#0F143A" fill-opacity="0.8"/>
<path d="M223.479 27.4934C223.196 26.5769 222.678 25.9407 222.124 25.3543C222.03 25.255 221.758 25.2728 221.589 25.3179C221.526 25.3357 221.451 25.6364 221.509 25.7185C221.944 26.3397 222.4 26.951 222.885 27.5353C222.95 27.6128 223.22 27.5161 223.479 27.4934Z" fill="#0F143A" fill-opacity="0.8"/>
<path d="M229.124 69.7802C229.365 69.5563 229.57 69.4512 229.612 69.3035C229.875 68.3717 230.116 67.4338 230.323 66.4866C230.354 66.35 230.195 66.1327 230.065 66.0183C230.008 65.9685 229.729 66.0477 229.67 66.1401C229.014 67.2335 228.818 68.5424 229.124 69.7802Z" fill="#0F143A" fill-opacity="0.8"/>
<path d="M228.592 76.9792C228.782 76.8327 228.998 76.753 229.004 76.6612C229.075 75.6975 229.126 74.7309 229.156 73.7613C229.139 73.6946 229.105 73.6335 229.057 73.5837C229.009 73.5339 228.95 73.4971 228.884 73.4768C228.767 73.4607 228.627 73.5804 228.506 73.6559C228.467 73.6894 228.442 73.7366 228.436 73.7878C228.217 74.8476 228.271 75.9457 228.592 76.9792Z" fill="#0F143A" fill-opacity="0.8"/>
<path d="M76.8222 88.5211C76.1908 88.2599 75.6118 88.0631 75.0761 87.7834C74.5852 87.5281 74.1414 87.1856 73.6248 86.8454C73.3459 87.4601 73.0333 88.059 72.6884 88.6393C72.3497 89.1497 71.8945 89.5811 71.4285 90.1208C72.5947 90.6362 73.6352 91.3985 74.4781 92.3552C74.7975 91.601 74.9991 90.914 75.3612 90.3224C75.7232 89.7309 76.2552 89.2036 76.8222 88.5211Z" fill="white"/>
<path d="M124.656 100.647C124.575 100.512 124.56 100.453 124.526 100.437C121.123 99.5831 118.01 100.154 115.21 102.326C114.933 102.555 114.678 102.81 114.449 103.088C114.321 103.248 114.215 103.425 114.134 103.615C113.922 104.061 114.2 104.526 114.669 104.442C115.277 104.339 115.875 104.179 116.453 103.963C117.272 103.656 118.052 103.253 118.865 102.929C120.774 102.165 122.679 101.425 124.656 100.647Z" fill="white"/>
<path d="M119.55 88.702C117.845 87.7565 115.968 87.1617 114.03 86.9533C112.762 86.8228 111.697 87.2325 110.933 88.2912C110.724 88.5834 110.465 88.9407 110.714 89.2657C110.866 89.4655 111.234 89.5732 111.513 89.5853C112.129 89.6122 112.747 89.5934 113.36 89.5292C115.202 89.3417 117.041 89.126 118.881 88.9144C119.108 88.8586 119.332 88.7878 119.55 88.702Z" fill="white"/>
<path d="M122.687 28.3133C122.086 26.4043 120.456 23.9546 119.061 22.9021C118.31 22.3349 117.498 21.909 116.505 22.0222C115.999 22.0786 115.776 22.5181 116.097 22.8936C116.393 23.2486 116.726 23.5703 117.092 23.8533C118.936 25.2498 120.783 26.6359 122.438 28.2702C122.486 28.3146 122.601 28.3046 122.687 28.3133Z" fill="white"/>
<path d="M128.303 21.2818C128.393 21.1665 128.49 21.0951 128.484 21.0267C128.438 19.1421 128.026 17.3445 127.044 15.7224C126.704 15.212 126.301 14.747 125.844 14.3385C125.697 14.1931 125.394 14.2115 125.168 14.1562C124.945 14.7072 125.079 15.1559 125.267 15.5797C125.519 16.1439 125.794 16.6959 126.08 17.2449C126.728 18.477 127.377 19.7049 128.025 20.9289C128.108 21.0539 128.201 21.1719 128.303 21.2818Z" fill="white"/>
<path d="M136.679 23.7381C137.427 22.417 138.165 21.0886 138.428 19.5503C138.534 18.9325 138.524 18.3249 138.215 17.7433C138.171 17.6502 138.103 17.5699 138.019 17.5102C137.935 17.4504 137.837 17.4131 137.735 17.4017C137.632 17.3904 137.528 17.4054 137.433 17.4454C137.338 17.4853 137.255 17.5489 137.191 17.6301C136.992 17.8661 136.841 18.1391 136.748 18.4336C136.33 20.1437 136.13 21.8752 136.452 23.6301C136.461 23.6638 136.535 23.6756 136.679 23.7381Z" fill="white"/>
</svg>
