<svg width="70" height="60" viewBox="0 0 70 60" fill="none" xmlns="http://www.w3.org/2000/svg">
<circle r="20" transform="matrix(-1 0 0 1 50 30)" fill="#FFD4DF"/>
<path fill-rule="evenodd" clip-rule="evenodd" d="M48.8557 38.0606C48.2524 33.2419 47.7173 28.4183 47.1607 23.5965C47.003 22.2253 46.8449 20.8545 46.6861 19.4841L47.2763 19.6253C45.0774 24.3344 42.8781 29.0436 40.6786 33.7528L38.8072 37.7399C38.6549 38.066 38.2067 37.8663 38.124 37.5761C36.9589 33.5321 35.9401 29.4547 35.0678 25.3439C34.8196 24.1746 34.5836 23.0038 34.36 21.8315L35.1405 21.9137C33.4714 26.2718 31.7936 30.6257 30.1069 34.9755C29.6308 36.2102 29.154 37.445 28.6767 38.6798C28.6205 38.8411 28.4772 38.9484 28.3095 38.9545C28.1419 38.9605 27.9808 38.8643 27.897 38.708C26.4842 34.9887 25.2504 31.2077 24.2003 27.3797C23.9042 26.3013 23.6217 25.2206 23.3592 24.1354L24.213 24.2238C22.892 28.0673 21.5713 31.9104 20.2508 35.7532C20.1844 35.9432 20.0038 36.0588 19.8057 36.0381C19.6076 36.0175 19.4385 35.8654 19.3891 35.6633C18.5756 33.0078 17.5559 30.4143 16.3405 27.9095L17.1691 27.8797C16.7247 30.0863 16.0098 32.21 15.0415 34.2C14.9652 34.318 14.839 34.39 14.699 34.3953C14.5591 34.4006 14.4209 34.3387 14.3242 34.2273C13.2215 32.9091 12.1214 31.5894 11.0117 30.2784L11.3213 30.4455C7.95757 30.2143 4.59541 30.2188 1.2577 30.4589L1.57447 29.7617C1.99739 30.6526 2.68818 31.3869 3.53634 31.8472C3.78393 31.9523 3.92065 32.2352 3.84831 32.4928C3.76597 32.7488 3.49707 32.8772 3.24441 32.781C2.16255 32.2186 1.27671 31.3006 0.732474 30.178C0.664295 30.0375 0.660651 29.8758 0.722597 29.7398C0.784545 29.6037 0.905153 29.5085 1.04945 29.4818C3.04863 29.3409 5.05606 29.2832 7.07173 29.3086C8.05748 29.3222 9.04337 29.3587 10.0294 29.418L10.7452 29.4637C11.0278 29.4361 11.3164 29.4808 11.5862 29.594C11.7689 29.7592 11.9321 29.9466 12.0718 30.1516L12.6348 30.8231C13.4195 31.7567 14.2047 32.6899 14.9905 33.6226L14.2732 33.6499C15.197 31.7246 15.881 29.6742 16.3094 27.5455C16.3676 27.3729 16.5202 27.2576 16.699 27.2512C16.8777 27.2448 17.0493 27.3485 17.1371 27.516C18.3817 30.1004 19.4265 32.7745 20.2609 35.5116L19.3994 35.4226C20.7235 31.5805 22.0469 27.7382 23.3697 23.8957C23.4348 23.7066 23.6141 23.5912 23.8109 23.6118C24.0077 23.6324 24.1755 23.784 24.2237 23.985C25.1321 27.7683 26.2268 31.5109 27.5033 35.1977C27.8688 36.2501 28.2498 37.2967 28.6464 38.3377L27.8676 38.3657C29.5525 34.0148 31.2378 29.6636 32.9238 25.3119L34.3694 21.6129C34.4289 21.4403 34.5926 21.335 34.7723 21.3537C34.952 21.3724 35.1053 21.5107 35.1496 21.6941C35.9147 25.8176 36.8335 29.9151 37.9059 33.9865C38.2111 35.1429 38.5281 36.2969 38.8569 37.4485L38.1728 37.2849C40.3908 32.5894 42.6087 27.8935 44.8265 23.1974C45.453 21.8719 46.1008 20.5576 46.7294 19.2337C46.801 19.1254 46.9299 19.0751 47.0578 19.1055C47.1858 19.1359 47.2885 19.2413 47.3194 19.3739C47.847 24.2018 48.3751 29.0295 48.9039 33.8572C49.0535 35.2308 49.1906 36.6036 49.3282 37.9783C49.3597 38.2954 48.8957 38.3861 48.8557 38.0606Z" fill="#343434"/>
<path fill-rule="evenodd" clip-rule="evenodd" d="M1.42733 28.9451C1.27188 29.1084 1.21623 29.3444 1.28053 29.5676L0.880702 29.4809C1.17877 29.1839 1.5082 28.92 1.86369 28.6933L2.89796 27.9643C3.24289 27.7205 3.5907 27.4812 3.93717 27.2402L4.41722 26.9065C4.57999 26.7516 4.78546 26.6481 5.00956 26.608C5.12054 26.5907 5.23482 26.6333 5.31045 26.7203C5.38609 26.8073 5.41192 26.9258 5.37848 27.0323C5.28459 27.2306 5.12707 27.3901 4.92994 27.4865C4.76482 27.5905 4.60585 27.7051 4.44474 27.8142C4.07976 28.0595 3.71725 28.3072 3.35093 28.5508L2.2936 29.2536C1.94489 29.5109 1.56888 29.7302 1.17162 29.908C1.04687 29.9634 0.896645 29.9077 0.832636 29.7824C0.768627 29.6571 0.814063 29.5076 0.935162 29.4451C1.13579 29.3171 1.28279 29.1216 1.35099 28.892C1.3769 28.8406 1.45438 28.8945 1.42733 28.9451Z" fill="black"/>
<path fill-rule="evenodd" clip-rule="evenodd" d="M1.42733 28.9451C1.27188 29.1084 1.21623 29.3444 1.28053 29.5676L0.880702 29.4809C1.17877 29.1839 1.5082 28.92 1.86369 28.6933L2.89796 27.9643C3.24289 27.7205 3.5907 27.4812 3.93717 27.2402L4.41722 26.9065C4.57999 26.7516 4.78546 26.6481 5.00956 26.608C5.12054 26.5907 5.23482 26.6333 5.31045 26.7203C5.38609 26.8073 5.41192 26.9258 5.37848 27.0323C5.28459 27.2306 5.12707 27.3901 4.92994 27.4865C4.76482 27.5905 4.60585 27.7051 4.44474 27.8142C4.07976 28.0595 3.71725 28.3072 3.35093 28.5508L2.2936 29.2536C1.94489 29.5109 1.56888 29.7302 1.17162 29.908C1.04687 29.9634 0.896645 29.9077 0.832636 29.7824C0.768627 29.6571 0.814063 29.5076 0.935162 29.4451C1.13579 29.3171 1.28279 29.1216 1.35099 28.892C1.3769 28.8406 1.45438 28.8945 1.42733 28.9451Z" fill="black" fill-opacity="0.2"/>
</svg>
