<svg width="12" height="12" viewBox="0 0 12 12" fill="none" xmlns="http://www.w3.org/2000/svg">
<path d="M11.5657 1.56569C11.8781 1.25327 11.8781 0.746734 11.5657 0.434315C11.2533 0.121895 10.7467 0.121895 10.4343 0.434315L11.5657 1.56569ZM0.434315 10.4343C0.121895 10.7467 0.121895 11.2533 0.434315 11.5657C0.746734 11.8781 1.25327 11.8781 1.56569 11.5657L0.434315 10.4343ZM1.56569 0.434315C1.25327 0.121895 0.746734 0.121895 0.434315 0.434315C0.121895 0.746734 0.121895 1.25327 0.434315 1.56569L1.56569 0.434315ZM10.4343 11.5657C10.7467 11.8781 11.2533 11.8781 11.5657 11.5657C11.8781 11.2533 11.8781 10.7467 11.5657 10.4343L10.4343 11.5657ZM10.4343 0.434315L0.434315 10.4343L1.56569 11.5657L11.5657 1.56569L10.4343 0.434315ZM0.434315 1.56569L10.4343 11.5657L11.5657 10.4343L1.56569 0.434315L0.434315 1.56569Z" fill="#0F143A" fill-opacity="0.8"/>
</svg>
