<svg width="60" height="36" viewBox="0 0 60 36" fill="none" xmlns="http://www.w3.org/2000/svg">
<path d="M4.8774 0.423155C2.48909 3.29494 1.39403 6.76172 0.109131 10.3644C-0.203793 11.249 0.166401 12.2119 1.08954 12.553C4.06847 13.6554 7.0569 14.7246 10.0358 15.827C11.7426 16.4594 12.2233 13.6386 10.5335 13.0005C8.59121 12.2831 6.64698 11.572 4.70082 10.8672C4.793 10.8322 4.88047 10.7863 4.9617 10.7302C9.98063 7.3274 17.6941 4.83901 23.0692 10.5902C23.3882 10.9337 23.6883 11.297 23.9677 11.6778C22.6845 13.3036 21.7225 15.2089 21.132 17.2943C20.512 19.4451 20.5097 22.517 22.9122 23.744C24.8372 24.7254 26.7843 23.4667 27.7577 21.8601C28.8082 20.1057 28.9695 17.7468 28.5521 15.597C28.3264 14.4772 27.9544 13.382 27.4475 12.3454C29.2545 10.8119 31.5472 9.99313 34.061 10.3608C36.2183 10.664 38.2911 11.8764 39.6177 13.6768C38.3681 14.5827 37.2673 15.696 36.3503 16.9812C35.1041 18.6381 33.6204 20.7928 34.1854 23.2093C34.7505 25.6259 37.1314 26.7431 39.1501 26.1889C41.2105 25.624 42.7002 23.7589 43.3745 21.6569C44.0169 19.6646 44.0036 17.4284 43.3368 15.2989C43.6435 15.2302 43.9562 15.1837 44.2728 15.1596C47.9947 14.908 51.8551 17.2996 54.0902 20.7237C56.794 24.8682 57.4524 29.9054 57.2522 34.5781C57.1677 36.4484 59.888 36.482 59.9684 34.6293C60.2157 28.889 59.0445 22.6781 55.3166 17.9027C52.159 13.8582 47.002 11.479 42.476 12.4204C42.3316 12.451 42.1916 12.4845 42.0524 12.5234C41.0891 11.0085 39.7972 9.75515 38.3072 8.89012C34.0685 6.42812 29.3031 6.99945 25.8697 9.74409C24.1161 7.43351 21.7752 5.72076 19.1938 4.85963C13.8166 3.12951 8.44896 4.89023 4.08455 7.68184C4.81429 5.82668 5.67532 4.06854 6.95816 2.52893C8.05413 1.22996 5.99 -0.913902 4.8774 0.423155ZM40.1344 21.8724C39.5696 22.7039 36.491 24.7133 36.8181 22.1489C37.0426 20.3934 38.6169 18.7284 39.6627 17.5795C40.0404 17.1626 40.4549 16.7866 40.9015 16.4556C41.1287 17.406 41.1778 18.3765 41.0459 19.3079C40.914 20.2393 40.6038 21.1119 40.1344 21.8724ZM25.9079 18.7537C25.7494 19.4792 24.4369 22.2939 23.5566 20.7103C22.7198 19.2066 24.6126 15.953 25.2888 14.8672C25.3596 14.7535 25.4361 14.6448 25.5113 14.534C26.0417 15.9076 26.1802 17.3817 25.9079 18.7537ZM3.25542 10.3348L3.13583 10.2921C3.14487 10.2622 3.15522 10.2343 3.16558 10.2064C3.18795 10.2534 3.21878 10.2976 3.25007 10.3385L3.25542 10.3348Z" fill="#2A32FF"/>
</svg>
