<svg width="2400" height="802" viewBox="0 0 2400 802" fill="none" xmlns="http://www.w3.org/2000/svg">
<g opacity="0.3" clip-path="url(#clip0_2598_81778)">
<path d="M7.26562 0V2952.73" stroke="#DDD5D5"/>
<path d="M30.7097 0V2952.73" stroke="#DDD5D5"/>
<path d="M54.1504 0V2952.73" stroke="#DDD5D5"/>
<path d="M77.5977 0V2952.73" stroke="#DDD5D5"/>
<path d="M101.042 0V2952.73" stroke="#DDD5D5"/>
<path d="M124.486 0V2952.73" stroke="#DDD5D5"/>
<path d="M147.933 0V2952.73" stroke="#DDD5D5"/>
<path d="M171.373 0V2952.73" stroke="#DDD5D5"/>
<path d="M194.818 0V2952.73" stroke="#DDD5D5"/>
<path d="M218.265 0V2952.73" stroke="#DDD5D5"/>
<path d="M241.709 0V2952.73" stroke="#DDD5D5"/>
<path d="M265.153 0V2952.73" stroke="#DDD5D5"/>
<path d="M288.597 0V2952.73" stroke="#DDD5D5"/>
<path d="M312.041 0V2952.73" stroke="#DDD5D5"/>
<path d="M335.485 0V2952.73" stroke="#DDD5D5"/>
<path d="M358.932 0V2952.73" stroke="#DDD5D5"/>
<path d="M382.376 0V2952.73" stroke="#DDD5D5"/>
<path d="M405.817 0V2952.73" stroke="#DDD5D5"/>
<path d="M429.264 0V2952.73" stroke="#DDD5D5"/>
<path d="M452.708 0V2952.73" stroke="#DDD5D5"/>
<path d="M476.152 0V2952.73" stroke="#DDD5D5"/>
<path d="M499.6 0V2952.73" stroke="#DDD5D5"/>
<path d="M523.04 0V2952.73" stroke="#DDD5D5"/>
<path d="M546.484 0V2952.73" stroke="#DDD5D5"/>
<path d="M569.932 0V2952.73" stroke="#DDD5D5"/>
<path d="M593.376 0V2952.73" stroke="#DDD5D5"/>
<path d="M616.82 0V2952.73" stroke="#DDD5D5"/>
<path d="M640.26 0V2952.73" stroke="#DDD5D5"/>
<path d="M663.708 0V2952.73" stroke="#DDD5D5"/>
<path d="M687.152 0V2952.73" stroke="#DDD5D5"/>
<path d="M710.599 0V2952.73" stroke="#DDD5D5"/>
<path d="M734.043 0V2952.73" stroke="#DDD5D5"/>
<path d="M757.484 0V2952.73" stroke="#DDD5D5"/>
<path d="M780.931 0V2952.73" stroke="#DDD5D5"/>
<path d="M804.375 0V2952.73" stroke="#DDD5D5"/>
<path d="M827.819 0V2952.73" stroke="#DDD5D5"/>
<path d="M851.266 0V2952.73" stroke="#DDD5D5"/>
<path d="M874.711 0V2952.73" stroke="#DDD5D5"/>
<path d="M898.151 0V2952.73" stroke="#DDD5D5"/>
<path d="M921.598 0V2952.73" stroke="#DDD5D5"/>
<path d="M945.042 0V2952.73" stroke="#DDD5D5"/>
<path d="M968.486 0V2952.73" stroke="#DDD5D5"/>
<path d="M991.927 0V2952.73" stroke="#DDD5D5"/>
<path d="M1015.37 0V2952.73" stroke="#DDD5D5"/>
<path d="M1038.82 0V2952.73" stroke="#DDD5D5"/>
<path d="M1062.27 0V2952.73" stroke="#DDD5D5"/>
<path d="M1085.71 0V2952.73" stroke="#DDD5D5"/>
<path d="M1109.15 0V2952.73" stroke="#DDD5D5"/>
<path d="M1132.59 0V2952.73" stroke="#DDD5D5"/>
<path d="M1156.04 0V2952.73" stroke="#DDD5D5"/>
<path d="M1179.49 0V2952.73" stroke="#DDD5D5"/>
<path d="M1202.93 0V2952.73" stroke="#DDD5D5"/>
<path d="M1226.38 0V2952.73" stroke="#DDD5D5"/>
<path d="M1249.82 0V2952.73" stroke="#DDD5D5"/>
<path d="M1273.26 0V2952.73" stroke="#DDD5D5"/>
<path d="M1296.71 0V2952.73" stroke="#DDD5D5"/>
<path d="M1320.15 0V2952.73" stroke="#DDD5D5"/>
<path d="M1343.6 0V2952.73" stroke="#DDD5D5"/>
<path d="M1367.04 0V2952.73" stroke="#DDD5D5"/>
<path d="M1390.49 0V2952.73" stroke="#DDD5D5"/>
<path d="M1413.93 0V2952.73" stroke="#DDD5D5"/>
<path d="M1437.38 0V2952.73" stroke="#DDD5D5"/>
<path d="M1460.82 0V2952.73" stroke="#DDD5D5"/>
<path d="M1484.26 0V2952.73" stroke="#DDD5D5"/>
<path d="M1507.71 0V2952.73" stroke="#DDD5D5"/>
<path d="M1531.15 0V2952.73" stroke="#DDD5D5"/>
<path d="M1554.6 0V2952.73" stroke="#DDD5D5"/>
<path d="M1578.04 0V2952.73" stroke="#DDD5D5"/>
<path d="M1601.48 0V2952.73" stroke="#DDD5D5"/>
<path d="M1624.93 0V2952.73" stroke="#DDD5D5"/>
<path d="M1648.38 0V2952.73" stroke="#DDD5D5"/>
<path d="M1671.82 0V2952.73" stroke="#DDD5D5"/>
<path d="M1695.27 0V2952.73" stroke="#DDD5D5"/>
<path d="M1718.71 0V2952.73" stroke="#DDD5D5"/>
<path d="M1742.15 0V2952.73" stroke="#DDD5D5"/>
<path d="M1765.6 0V2952.73" stroke="#DDD5D5"/>
<path d="M1789.04 0V2952.73" stroke="#DDD5D5"/>
<path d="M1812.49 0V2952.73" stroke="#DDD5D5"/>
<path d="M1835.93 0V2952.73" stroke="#DDD5D5"/>
<path d="M1859.38 0V2952.73" stroke="#DDD5D5"/>
<path d="M1882.82 0V2952.73" stroke="#DDD5D5"/>
<path d="M1906.26 0V2952.73" stroke="#DDD5D5"/>
<path d="M1929.71 0V2952.73" stroke="#DDD5D5"/>
<path d="M1953.15 0V2952.73" stroke="#DDD5D5"/>
<path d="M1976.6 0V2952.73" stroke="#DDD5D5"/>
<path d="M2000.04 0V2952.73" stroke="#DDD5D5"/>
<path d="M2023.49 0V2952.73" stroke="#DDD5D5"/>
<path d="M2046.93 0V2952.73" stroke="#DDD5D5"/>
<path d="M2070.37 0V2952.73" stroke="#DDD5D5"/>
<path d="M2093.82 0V2952.73" stroke="#DDD5D5"/>
<path d="M2117.26 0V2952.73" stroke="#DDD5D5"/>
<path d="M2140.71 0V2952.73" stroke="#DDD5D5"/>
<path d="M2164.15 0V2952.73" stroke="#DDD5D5"/>
<path d="M2187.59 0V2952.73" stroke="#DDD5D5"/>
<path d="M2211.04 0V2952.73" stroke="#DDD5D5"/>
<path d="M2234.49 0V2952.73" stroke="#DDD5D5"/>
<path d="M2257.93 0V2952.73" stroke="#DDD5D5"/>
<path d="M2281.38 0V2952.73" stroke="#DDD5D5"/>
<path d="M2304.82 0V2952.73" stroke="#DDD5D5"/>
<path d="M2328.26 0V2952.73" stroke="#DDD5D5"/>
<path d="M2351.71 0V2952.73" stroke="#DDD5D5"/>
<path d="M2375.15 0V2952.73" stroke="#DDD5D5"/>
<path d="M2398.6 0V2952.73" stroke="#DDD5D5"/>
<path d="M-558.333 784.938H2958.33" stroke="#DDD5D5"/>
<path d="M-558.333 765.252H2958.33" stroke="#DDD5D5"/>
<path d="M-558.333 745.561H2958.33" stroke="#DDD5D5"/>
<path d="M-558.333 725.877H2958.33" stroke="#DDD5D5"/>
<path d="M-558.333 706.184H2958.33" stroke="#DDD5D5"/>
<path d="M-558.333 686.514H2958.33" stroke="#DDD5D5"/>
<path d="M-558.333 666.83H2958.33" stroke="#DDD5D5"/>
<path d="M-558.333 647.137H2958.33" stroke="#DDD5D5"/>
<path d="M-558.333 627.453H2958.33" stroke="#DDD5D5"/>
<path d="M-558.333 607.775H2958.33" stroke="#DDD5D5"/>
<path d="M-558.333 588.084H2958.33" stroke="#DDD5D5"/>
<path d="M-558.333 568.398H2958.33" stroke="#DDD5D5"/>
<path d="M-558.333 548.715H2958.33" stroke="#DDD5D5"/>
<path d="M-558.333 529.029H2958.33" stroke="#DDD5D5"/>
<path d="M-558.333 509.346H2958.33" stroke="#DDD5D5"/>
<path d="M-558.333 489.668H2958.33" stroke="#DDD5D5"/>
<path d="M-558.333 469.977H2958.33" stroke="#DDD5D5"/>
<path d="M-558.333 450.291H2958.33" stroke="#DDD5D5"/>
<path d="M-558.333 430.615H2958.33" stroke="#DDD5D5"/>
<path d="M-558.333 410.922H2958.33" stroke="#DDD5D5"/>
<path d="M-558.333 391.238H2958.33" stroke="#DDD5D5"/>
<path d="M-558.333 371.545H2958.33" stroke="#DDD5D5"/>
<path d="M-558.333 351.869H2958.33" stroke="#DDD5D5"/>
<path d="M-558.333 332.184H2958.33" stroke="#DDD5D5"/>
<path d="M-558.333 312.492H2958.33" stroke="#DDD5D5"/>
<path d="M-558.333 292.814H2958.33" stroke="#DDD5D5"/>
<path d="M-558.333 273.123H2958.33" stroke="#DDD5D5"/>
<path d="M-558.333 253.445H2958.33" stroke="#DDD5D5"/>
<path d="M-558.333 233.762H2958.33" stroke="#DDD5D5"/>
<path d="M-558.333 214.068H2958.33" stroke="#DDD5D5"/>
<path d="M-558.333 194.385H2958.33" stroke="#DDD5D5"/>
<path d="M-558.333 174.707H2958.33" stroke="#DDD5D5"/>
<path d="M-558.333 155.016H2958.33" stroke="#DDD5D5"/>
<path d="M-558.333 135.33H2958.33" stroke="#DDD5D5"/>
<path d="M-558.333 115.639H2958.33" stroke="#DDD5D5"/>
<path d="M-558.333 95.9688H2958.33" stroke="#DDD5D5"/>
<path d="M-558.333 76.2852H2958.33" stroke="#DDD5D5"/>
<path d="M-558.333 56.5918H2958.33" stroke="#DDD5D5"/>
<path d="M-558.333 36.9082H2958.33" stroke="#DDD5D5"/>
<path d="M-558.333 17.2227H2958.33" stroke="#DDD5D5"/>
</g>
<defs>
<clipPath id="clip0_2598_81778">
<rect width="2400" height="1643" fill="white"/>
</clipPath>
</defs>
</svg>
