<svg width="60" height="36" viewBox="0 0 60 36" fill="none" xmlns="http://www.w3.org/2000/svg">
<path d="M55.1226 0.423155C57.5109 3.29494 58.606 6.76172 59.8909 10.3644C60.2038 11.249 59.8336 12.2119 58.9105 12.553C55.9315 13.6554 52.9431 14.7246 49.9642 15.827C48.2574 16.4594 47.7767 13.6386 49.4665 13.0005C51.4088 12.2831 53.353 11.572 55.2992 10.8672C55.207 10.8322 55.1195 10.7863 55.0383 10.7302C50.0194 7.3274 42.3059 4.83901 36.9308 10.5902C36.6118 10.9337 36.3117 11.297 36.0323 11.6778C37.3155 13.3036 38.2775 15.2089 38.868 17.2943C39.488 19.4451 39.4903 22.517 37.0878 23.744C35.1628 24.7254 33.2157 23.4667 32.2423 21.8601C31.1918 20.1057 31.0305 17.7468 31.4479 15.597C31.6736 14.4772 32.0456 13.382 32.5525 12.3454C30.7455 10.8119 28.4528 9.99313 25.939 10.3608C23.7817 10.664 21.7089 11.8764 20.3823 13.6768C21.6319 14.5827 22.7327 15.696 23.6497 16.9812C24.8959 18.6381 26.3796 20.7928 25.8146 23.2093C25.2495 25.6259 22.8686 26.7431 20.8499 26.1889C18.7895 25.624 17.2998 23.7589 16.6255 21.6569C15.9831 19.6646 15.9964 17.4284 16.6632 15.2989C16.3565 15.2302 16.0438 15.1837 15.7272 15.1596C12.0053 14.908 8.1449 17.2996 5.90983 20.7237C3.20602 24.8682 2.54759 29.9054 2.74781 34.5781C2.83225 36.4484 0.111989 36.482 0.0316371 34.6293C-0.215749 28.889 0.955531 22.6781 4.68342 17.9027C7.84097 13.8582 12.998 11.479 17.524 12.4204C17.6684 12.451 17.8084 12.4845 17.9476 12.5234C18.9109 11.0085 20.2028 9.75515 21.6928 8.89012C25.9315 6.42812 30.6969 6.99945 34.1303 9.74409C35.8839 7.43351 38.2248 5.72076 40.8062 4.85963C46.1834 3.12951 51.551 4.89023 55.9155 7.68184C55.1857 5.82668 54.3247 4.06854 53.0418 2.52893C51.9459 1.22996 54.01 -0.913902 55.1226 0.423155ZM19.8656 21.8724C20.4304 22.7039 23.509 24.7133 23.1819 22.1489C22.9574 20.3934 21.3831 18.7284 20.3373 17.5795C19.9596 17.1626 19.5451 16.7866 19.0985 16.4556C18.8713 17.406 18.8222 18.3765 18.9541 19.3079C19.086 20.2393 19.3962 21.1119 19.8656 21.8724ZM34.0921 18.7537C34.2506 19.4792 35.5631 22.2939 36.4434 20.7103C37.2802 19.2066 35.3874 15.953 34.7112 14.8672C34.6404 14.7535 34.5639 14.6448 34.4887 14.534C33.9583 15.9076 33.8198 17.3817 34.0921 18.7537ZM56.7446 10.3348L56.8642 10.2921C56.8551 10.2622 56.8448 10.2343 56.8344 10.2064C56.812 10.2534 56.7812 10.2976 56.7499 10.3385L56.7446 10.3348Z" fill="#1000F0" fill-opacity="0.72"/>
</svg>
