<svg width="240" height="48" viewBox="0 0 240 48" fill="none" xmlns="http://www.w3.org/2000/svg">
<path d="M8.61714 48H0L10.5502 0H19.17L8.61714 48Z" fill="black"/>
<path d="M8.61714 48H0L10.5502 0H19.17L8.61714 48Z" fill="black" fill-opacity="0.2"/>
<path d="M27.3423 42.0519V8.40991H34.7927V20.9243H34.9297C36.7293 18.4789 39.046 17.2553 41.8798 17.2535C44.4045 17.2535 46.392 18.0931 47.8422 19.7721C49.2925 21.4512 50.0167 23.6544 50.015 26.3818V42.0519H42.5619V27.9352C42.5619 26.6177 42.2502 25.5748 41.6269 24.8066C41.0036 24.0385 40.0968 23.6544 38.9064 23.6544C38.3391 23.6386 37.7758 23.7578 37.2605 24.0028C36.7452 24.2478 36.2919 24.612 35.9357 25.0669C35.1737 26.0068 34.7927 27.2295 34.7927 28.735V42.0519H27.3423Z" fill="black"/>
<path d="M27.3423 42.0519V8.40991H34.7927V20.9243H34.9297C36.7293 18.4789 39.046 17.2553 41.8798 17.2535C44.4045 17.2535 46.392 18.0931 47.8422 19.7721C49.2925 21.4512 50.0167 23.6544 50.015 26.3818V42.0519H42.5619V27.9352C42.5619 26.6177 42.2502 25.5748 41.6269 24.8066C41.0036 24.0385 40.0968 23.6544 38.9064 23.6544C38.3391 23.6386 37.7758 23.7578 37.2605 24.0028C36.7452 24.2478 36.2919 24.612 35.9357 25.0669C35.1737 26.0068 34.7927 27.2295 34.7927 28.735V42.0519H27.3423Z" fill="black" fill-opacity="0.2"/>
<path d="M61.1654 42.7566C58.5142 42.7566 56.4802 41.9487 55.0633 40.3329C53.6464 38.7171 52.938 36.5292 52.938 33.7693V17.9609H60.341V32.1698C60.341 34.8972 61.5147 36.2617 63.8622 36.2636C65.1421 36.2636 66.1481 35.8171 66.8803 34.9243C67.6124 34.0314 67.9776 32.8647 67.9759 31.4242V17.9609H75.4263V42.0517H68.2972V39.0858H68.1576C66.3931 41.5348 64.0623 42.7584 61.1654 42.7566Z" fill="black"/>
<path d="M61.1654 42.7566C58.5142 42.7566 56.4802 41.9487 55.0633 40.3329C53.6464 38.7171 52.938 36.5292 52.938 33.7693V17.9609H60.341V32.1698C60.341 34.8972 61.5147 36.2617 63.8622 36.2636C65.1421 36.2636 66.1481 35.8171 66.8803 34.9243C67.6124 34.0314 67.9776 32.8647 67.9759 31.4242V17.9609H75.4263V42.0517H68.2972V39.0858H68.1576C66.3931 41.5348 64.0623 42.7584 61.1654 42.7566Z" fill="black" fill-opacity="0.2"/>
<path d="M88.6786 42.8109C85.2655 42.8109 82.5441 42.05 80.5145 40.5282C78.4848 39.0064 77.413 36.9098 77.2988 34.2385H84.3358C84.6115 36.6242 86.0442 37.8171 88.6339 37.8171C89.7593 37.8171 90.6503 37.6047 91.307 37.18C91.6106 37.0055 91.8626 36.7494 92.0361 36.439C92.2095 36.1287 92.298 35.7758 92.2919 35.4178C92.2962 35.1943 92.2642 34.9716 92.1971 34.759C92.1319 34.5622 92.0228 34.3839 91.8785 34.2385C91.7257 34.0839 91.5835 33.9429 91.4439 33.8155C91.2585 33.6643 91.0504 33.5452 90.8277 33.4631C90.5643 33.3546 90.3167 33.2679 90.1192 33.192C89.9217 33.1161 89.632 33.0591 89.2501 32.9805L88.36 32.7934C88.1466 32.7446 87.8095 32.6823 87.3539 32.6037C86.8983 32.525 86.5638 32.4708 86.3479 32.4383C85.3735 32.2847 84.5509 32.1202 83.8802 31.9449C83.1195 31.7435 82.3781 31.4713 81.6653 31.1315C80.9442 30.8163 80.2792 30.3792 79.698 29.8383C79.1473 29.2792 78.719 28.6053 78.4418 27.8619C78.0885 26.9426 77.9149 25.9605 77.9309 24.9719C77.9309 22.5229 78.8904 20.6251 80.8094 19.2786C82.7284 17.9321 85.1356 17.257 88.0308 17.2534C91.2912 17.2534 93.8203 17.9366 95.6182 19.303C97.4161 20.6694 98.4063 22.559 98.5889 24.9719H91.7415C91.4957 23.0904 90.2465 22.1488 87.9939 22.147C87.1733 22.1086 86.3584 22.3047 85.6395 22.7136C85.3586 22.8775 85.1269 23.1177 84.9695 23.4079C84.8121 23.698 84.735 24.0271 84.7467 24.3592C84.7445 24.5366 84.7767 24.7126 84.8415 24.877C84.905 25.0406 85.0062 25.1857 85.1364 25.3C85.2659 25.4209 85.4041 25.5314 85.5499 25.6307C85.7301 25.7426 85.9217 25.8335 86.1214 25.9018C86.3637 25.9967 86.5823 26.0753 86.7824 26.1377C87.0525 26.2169 87.3268 26.2793 87.6041 26.3248C87.9544 26.3898 88.2467 26.444 88.4732 26.4901L89.4108 26.6772C89.8058 26.7558 90.1271 26.8128 90.3694 26.8426C91.4044 27.0296 92.2603 27.2032 92.9293 27.3604C93.7353 27.5614 94.523 27.8335 95.2837 28.1737C96.0663 28.4888 96.7865 28.9482 97.409 29.5293C97.9859 30.1398 98.4437 30.8586 98.7574 31.6466C99.1569 32.6374 99.3515 33.7028 99.3289 34.7753C99.3289 37.3472 98.3457 39.3236 96.3793 40.7044C94.4129 42.0853 91.846 42.7875 88.6786 42.8109Z" fill="black"/>
<path d="M88.6786 42.8109C85.2655 42.8109 82.5441 42.05 80.5145 40.5282C78.4848 39.0064 77.413 36.9098 77.2988 34.2385H84.3358C84.6115 36.6242 86.0442 37.8171 88.6339 37.8171C89.7593 37.8171 90.6503 37.6047 91.307 37.18C91.6106 37.0055 91.8626 36.7494 92.0361 36.439C92.2095 36.1287 92.298 35.7758 92.2919 35.4178C92.2962 35.1943 92.2642 34.9716 92.1971 34.759C92.1319 34.5622 92.0228 34.3839 91.8785 34.2385C91.7257 34.0839 91.5835 33.9429 91.4439 33.8155C91.2585 33.6643 91.0504 33.5452 90.8277 33.4631C90.5643 33.3546 90.3167 33.2679 90.1192 33.192C89.9217 33.1161 89.632 33.0591 89.2501 32.9805L88.36 32.7934C88.1466 32.7446 87.8095 32.6823 87.3539 32.6037C86.8983 32.525 86.5638 32.4708 86.3479 32.4383C85.3735 32.2847 84.5509 32.1202 83.8802 31.9449C83.1195 31.7435 82.3781 31.4713 81.6653 31.1315C80.9442 30.8163 80.2792 30.3792 79.698 29.8383C79.1473 29.2792 78.719 28.6053 78.4418 27.8619C78.0885 26.9426 77.9149 25.9605 77.9309 24.9719C77.9309 22.5229 78.8904 20.6251 80.8094 19.2786C82.7284 17.9321 85.1356 17.257 88.0308 17.2534C91.2912 17.2534 93.8203 17.9366 95.6182 19.303C97.4161 20.6694 98.4063 22.559 98.5889 24.9719H91.7415C91.4957 23.0904 90.2465 22.1488 87.9939 22.147C87.1733 22.1086 86.3584 22.3047 85.6395 22.7136C85.3586 22.8775 85.1269 23.1177 84.9695 23.4079C84.8121 23.698 84.735 24.0271 84.7467 24.3592C84.7445 24.5366 84.7767 24.7126 84.8415 24.877C84.905 25.0406 85.0062 25.1857 85.1364 25.3C85.2659 25.4209 85.4041 25.5314 85.5499 25.6307C85.7301 25.7426 85.9217 25.8335 86.1214 25.9018C86.3637 25.9967 86.5823 26.0753 86.7824 26.1377C87.0525 26.2169 87.3268 26.2793 87.6041 26.3248C87.9544 26.3898 88.2467 26.444 88.4732 26.4901L89.4108 26.6772C89.8058 26.7558 90.1271 26.8128 90.3694 26.8426C91.4044 27.0296 92.2603 27.2032 92.9293 27.3604C93.7353 27.5614 94.523 27.8335 95.2837 28.1737C96.0663 28.4888 96.7865 28.9482 97.409 29.5293C97.9859 30.1398 98.4437 30.8586 98.7574 31.6466C99.1569 32.6374 99.3515 33.7028 99.3289 34.7753C99.3289 37.3472 98.3457 39.3236 96.3793 40.7044C94.4129 42.0853 91.846 42.7875 88.6786 42.8109Z" fill="black" fill-opacity="0.2"/>
<path d="M110.061 42.3311C107.684 42.3311 105.848 41.8376 104.554 40.8508C103.26 39.8639 102.613 38.1469 102.613 35.6997V22.7488H99.5107V17.9501H102.621V10.3401H109.887V17.961H114.138V22.7488H109.887V34.0405C109.887 34.9189 110.107 35.5307 110.548 35.8759C110.991 36.2229 111.638 36.3937 112.492 36.3937C112.734 36.3937 113.055 36.3937 113.45 36.3721L114.138 36.3449V41.9461C113.284 42.209 111.928 42.3311 110.061 42.3311Z" fill="black"/>
<path d="M110.061 42.3311C107.684 42.3311 105.848 41.8376 104.554 40.8508C103.26 39.8639 102.613 38.1469 102.613 35.6997V22.7488H99.5107V17.9501H102.621V10.3401H109.887V17.961H114.138V22.7488H109.887V34.0405C109.887 34.9189 110.107 35.5307 110.548 35.8759C110.991 36.2229 111.638 36.3937 112.492 36.3937C112.734 36.3937 113.055 36.3937 113.45 36.3721L114.138 36.3449V41.9461C113.284 42.209 111.928 42.3311 110.061 42.3311Z" fill="black" fill-opacity="0.2"/>
<path d="M116.603 42.0519V8.40991H124.145V42.0519H116.603Z" fill="black"/>
<path d="M116.603 42.0519V8.40991H124.145V42.0519H116.603Z" fill="black" fill-opacity="0.2"/>
<path d="M138.907 42.7567C135.13 42.7567 132.107 41.5575 129.836 39.1591C127.566 36.7607 126.431 33.6935 126.431 29.9576C126.431 26.3229 127.551 23.2965 129.792 20.8782C132.032 18.4599 134.918 17.2516 138.451 17.2534C141.652 17.2534 144.318 18.2574 146.449 20.2654C149.258 22.9043 150.63 26.81 150.563 31.9828H133.742C133.988 33.6438 134.552 34.937 135.435 35.8624C136.319 36.7878 137.507 37.2505 139.001 37.2505C140.919 37.2505 142.213 36.4507 142.886 34.8512H150.152C149.602 37.1755 148.293 39.0732 146.223 40.5445C144.153 42.0157 141.714 42.7531 138.907 42.7567ZM133.789 27.4173H143.007C142.886 25.9714 142.422 24.8273 141.614 23.9851C141.22 23.568 140.747 23.2396 140.224 23.0207C139.701 22.8019 139.139 22.6973 138.575 22.7136C135.934 22.7136 134.339 24.2815 133.789 27.4173Z" fill="black"/>
<path d="M138.907 42.7567C135.13 42.7567 132.107 41.5575 129.836 39.1591C127.566 36.7607 126.431 33.6935 126.431 29.9576C126.431 26.3229 127.551 23.2965 129.792 20.8782C132.032 18.4599 134.918 17.2516 138.451 17.2534C141.652 17.2534 144.318 18.2574 146.449 20.2654C149.258 22.9043 150.63 26.81 150.563 31.9828H133.742C133.988 33.6438 134.552 34.937 135.435 35.8624C136.319 36.7878 137.507 37.2505 139.001 37.2505C140.919 37.2505 142.213 36.4507 142.886 34.8512H150.152C149.602 37.1755 148.293 39.0732 146.223 40.5445C144.153 42.0157 141.714 42.7531 138.907 42.7567ZM133.789 27.4173H143.007C142.886 25.9714 142.422 24.8273 141.614 23.9851C141.22 23.568 140.747 23.2396 140.224 23.0207C139.701 22.8019 139.139 22.6973 138.575 22.7136C135.934 22.7136 134.339 24.2815 133.789 27.4173Z" fill="black" fill-opacity="0.2"/>
<path d="M152.801 42.0519V17.961H159.93V21.3933H160.07C161.685 18.6334 164.047 17.2525 167.154 17.2507C170.23 17.2507 172.425 18.6623 173.738 21.4855H173.828C175.596 18.6659 178.054 17.2543 181.202 17.2507C183.79 17.2507 185.763 18.0749 187.12 19.7233C188.477 21.3716 189.155 23.5902 189.153 26.379V42.0491H181.695V27.7481C181.695 25.0189 180.598 23.6543 178.405 23.6543C177.88 23.6318 177.358 23.7422 176.884 23.9757C176.41 24.2092 175.999 24.5587 175.687 24.9936C175.029 25.8973 174.701 27.0821 174.702 28.5479V42.0519H167.244V27.7481C167.244 25.0189 166.147 23.6543 163.955 23.6543C163.429 23.6321 162.907 23.7425 162.433 23.976C161.958 24.2094 161.547 24.5588 161.234 24.9936C160.579 25.8973 160.252 27.0821 160.252 28.5479V42.0519H152.801Z" fill="black"/>
<path d="M152.801 42.0519V17.961H159.93V21.3933H160.07C161.685 18.6334 164.047 17.2525 167.154 17.2507C170.23 17.2507 172.425 18.6623 173.738 21.4855H173.828C175.596 18.6659 178.054 17.2543 181.202 17.2507C183.79 17.2507 185.763 18.0749 187.12 19.7233C188.477 21.3716 189.155 23.5902 189.153 26.379V42.0491H181.695V27.7481C181.695 25.0189 180.598 23.6543 178.405 23.6543C177.88 23.6318 177.358 23.7422 176.884 23.9757C176.41 24.2092 175.999 24.5587 175.687 24.9936C175.029 25.8973 174.701 27.0821 174.702 28.5479V42.0519H167.244V27.7481C167.244 25.0189 166.147 23.6543 163.955 23.6543C163.429 23.6321 162.907 23.7425 162.433 23.976C161.958 24.2094 161.547 24.5588 161.234 24.9936C160.579 25.8973 160.252 27.0821 160.252 28.5479V42.0519H152.801Z" fill="black" fill-opacity="0.2"/>
<path d="M199.147 42.662C196.74 42.662 194.809 42.0194 193.353 40.7344C191.898 39.4493 191.167 37.6419 191.16 35.3122C191.16 32.8668 191.95 31.0865 193.53 29.9713C195.11 28.8562 197.305 28.1115 200.114 27.7374C202.396 27.4518 203.958 27.1301 204.799 26.7722C205.64 26.4144 206.058 25.8423 206.053 25.0561C206.053 23.3282 204.987 22.4652 202.855 22.467C200.573 22.467 199.308 23.5017 199.06 25.5712H192.213C192.241 24.4287 192.512 23.3064 193.005 22.2827C193.499 21.2591 194.204 20.3587 195.071 19.6447C196.882 18.0777 199.465 17.2933 202.819 17.2915C206.172 17.2897 208.699 17.9521 210.401 19.2787C212.381 20.7536 213.372 23.0436 213.374 26.1487V38.2863C213.374 40.2003 213.637 41.3444 214.196 41.7212V42.052H206.977C206.672 41.6128 206.408 40.7181 206.187 39.368H206.097C204.603 41.564 202.287 42.662 199.147 42.662ZM201.518 37.782C202.921 37.782 204.054 37.3807 204.923 36.581C205.351 36.1905 205.689 35.7076 205.914 35.1667C206.14 34.6259 206.246 34.0405 206.226 33.4524V30.5705C205.498 30.9482 204.218 31.372 202.387 31.842C200.893 32.1872 199.839 32.5948 199.226 33.0647C198.925 33.2988 198.683 33.6058 198.524 33.9584C198.365 34.3111 198.292 34.6988 198.313 35.0872C198.321 36.8765 199.391 37.7711 201.523 37.7711L201.518 37.782Z" fill="black"/>
<path d="M199.147 42.662C196.74 42.662 194.809 42.0194 193.353 40.7344C191.898 39.4493 191.167 37.6419 191.16 35.3122C191.16 32.8668 191.95 31.0865 193.53 29.9713C195.11 28.8562 197.305 28.1115 200.114 27.7374C202.396 27.4518 203.958 27.1301 204.799 26.7722C205.64 26.4144 206.058 25.8423 206.053 25.0561C206.053 23.3282 204.987 22.4652 202.855 22.467C200.573 22.467 199.308 23.5017 199.06 25.5712H192.213C192.241 24.4287 192.512 23.3064 193.005 22.2827C193.499 21.2591 194.204 20.3587 195.071 19.6447C196.882 18.0777 199.465 17.2933 202.819 17.2915C206.172 17.2897 208.699 17.9521 210.401 19.2787C212.381 20.7536 213.372 23.0436 213.374 26.1487V38.2863C213.374 40.2003 213.637 41.3444 214.196 41.7212V42.052H206.977C206.672 41.6128 206.408 40.7181 206.187 39.368H206.097C204.603 41.564 202.287 42.662 199.147 42.662ZM201.518 37.782C202.921 37.782 204.054 37.3807 204.923 36.581C205.351 36.1905 205.689 35.7076 205.914 35.1667C206.14 34.6259 206.246 34.0405 206.226 33.4524V30.5705C205.498 30.9482 204.218 31.372 202.387 31.842C200.893 32.1872 199.839 32.5948 199.226 33.0647C198.925 33.2988 198.683 33.6058 198.524 33.9584C198.365 34.3111 198.292 34.6988 198.313 35.0872C198.321 36.8765 199.391 37.7711 201.523 37.7711L201.518 37.782Z" fill="black" fill-opacity="0.2"/>
<path d="M225.881 42.8111C222.837 42.8111 220.369 41.6661 218.478 39.3761C216.587 37.0861 215.643 33.9657 215.645 30.0147C215.645 26.2481 216.597 23.1818 218.502 20.8159C220.407 18.45 222.865 17.2653 225.876 17.2617C228.685 17.2617 230.865 18.4066 232.415 20.6966H232.55V8.40991H240V42.052H232.871V38.7986H232.787C231.263 41.4736 228.961 42.8111 225.881 42.8111ZM227.801 36.7436C228.506 36.7675 229.206 36.6099 229.837 36.2852C230.468 35.9604 231.01 35.4788 231.415 34.8838C232.292 33.6457 232.731 32.0191 232.731 30.0038C232.731 27.9036 232.32 26.2173 231.496 24.9449C230.674 23.6761 229.468 23.0471 227.888 23.0471C227.206 23.0284 226.531 23.1907 225.928 23.5183C225.325 23.8459 224.813 24.3279 224.443 24.9178C223.603 26.1758 223.187 27.8349 223.187 29.9062C223.187 31.9775 223.598 33.6692 224.42 34.8919C224.782 35.4726 225.283 35.9474 225.876 36.2703C226.468 36.5932 227.131 36.7535 227.801 36.7355V36.7436Z" fill="black"/>
<path d="M225.881 42.8111C222.837 42.8111 220.369 41.6661 218.478 39.3761C216.587 37.0861 215.643 33.9657 215.645 30.0147C215.645 26.2481 216.597 23.1818 218.502 20.8159C220.407 18.45 222.865 17.2653 225.876 17.2617C228.685 17.2617 230.865 18.4066 232.415 20.6966H232.55V8.40991H240V42.052H232.871V38.7986H232.787C231.263 41.4736 228.961 42.8111 225.881 42.8111ZM227.801 36.7436C228.506 36.7675 229.206 36.6099 229.837 36.2852C230.468 35.9604 231.01 35.4788 231.415 34.8838C232.292 33.6457 232.731 32.0191 232.731 30.0038C232.731 27.9036 232.32 26.2173 231.496 24.9449C230.674 23.6761 229.468 23.0471 227.888 23.0471C227.206 23.0284 226.531 23.1907 225.928 23.5183C225.325 23.8459 224.813 24.3279 224.443 24.9178C223.603 26.1758 223.187 27.8349 223.187 29.9062C223.187 31.9775 223.598 33.6692 224.42 34.8919C224.782 35.4726 225.283 35.9474 225.876 36.2703C226.468 36.5932 227.131 36.7535 227.801 36.7355V36.7436Z" fill="black" fill-opacity="0.2"/>
</svg>
