<svg width="262" height="92" viewBox="0 0 262 92" fill="none" xmlns="http://www.w3.org/2000/svg">
<path d="M218.537 90.4885C216.624 90.4885 214.702 90.4443 212.775 90.3963C211.651 90.3705 210.528 90.341 209.401 90.3225C200.176 90.175 190.797 90.1344 181.728 90.1012L155.068 90.0127C134.544 89.95 113.321 89.8836 92.4488 89.6954C90.3674 89.6733 88.2831 89.6696 86.193 89.6696C83.0811 89.6696 79.9615 89.6794 76.8341 89.6991C73.7066 89.7187 70.5705 89.7298 67.4257 89.7323C55.5237 89.7323 42.7858 89.522 30.1784 87.9873C16.2734 86.2977 7.79401 80.2806 4.25826 69.5931C-1.93656 50.867 1.2102 31.6539 12.2761 20.6454C12.3769 20.5404 12.4641 20.4159 12.5345 20.2765C14.5232 16.4158 17.1994 13.2044 20.3462 10.9023C29.8649 3.92246 41.3982 3.61994 52.5686 3.3248C54.3103 3.27684 56.0521 3.23259 57.7677 3.15881C84.2046 2.05206 110.148 1.495 134.875 1.495C169.269 1.495 202.731 2.5796 234.335 4.71562C244.414 5.73014 257.009 10.4855 259.59 27.3929C260.551 33.6645 262.333 49.4799 258.226 61.477C256.26 67.2173 253.465 71.5964 249.685 74.865C249.572 74.9655 249.474 75.0904 249.395 75.2339C246.605 80.2364 243.392 83.8112 239.847 85.855C232.773 89.9278 225.426 90.4885 218.537 90.4885Z" fill="white"/>
<path d="M260.748 27.107C258.202 10.5058 246.439 4.43344 234.389 3.2234C175.75 -0.742445 116.395 -0.786749 57.7208 1.66654C45.0554 2.19409 31.0692 1.31977 19.7681 9.60562C16.4543 12.0283 13.6391 15.4139 11.5528 19.4852C-0.688746 31.6594 -2.71208 52.3851 3.17794 70.189C7.72391 83.9274 19.3588 88.1884 30.0676 89.4907C50.6783 91.9956 71.7738 91.018 92.4426 91.2061C121.492 91.4718 150.544 91.4902 179.594 91.6045C189.525 91.6451 199.456 91.671 209.389 91.8333C219.985 92.0067 230.38 92.9658 240.326 87.2329C244.454 84.8534 247.76 80.7547 250.347 76.1175C254.045 72.919 257.139 68.4182 259.305 62.0987C262.852 51.7174 262.414 37.9716 260.748 27.107ZM258.341 47.7073C257.929 72.491 240.17 83.0128 223.211 81.9946C204.107 82.5738 184.581 82.6328 165.306 82.5738C136.036 82.4852 106.763 82.4262 77.4926 81.9946C66.8157 81.8396 52.9002 82.4926 42.2291 81.9946C25.6391 81.2203 21.6173 77.2951 16.2149 66.7212C6.43791 54.2223 8.34803 29.3242 17.2832 17.3861C25.5304 6.36657 38.8954 6.90518 49.9439 6.26326C71.6838 5.00157 93.4876 4.90196 115.233 4.87614C154.905 4.82449 194.773 4.75806 234.389 7.44008C244.123 8.41402 253.258 12.2803 256.817 24.7791C258.861 31.9619 258.463 40.1998 258.341 47.7073Z" fill="black"/>
</svg>
