<svg width="204" height="92" viewBox="0 0 204 92" fill="none" xmlns="http://www.w3.org/2000/svg">
<g clip-path="url(#clip0_481_5568)">
<path d="M110.933 19.9923V15.0042H103.351V49.0802H111.313V32.5695C111.313 29.1657 112.184 26.56 113.924 24.7524C115.664 22.9448 118.091 22.0386 121.203 22.0339C121.824 22.041 122.443 22.1054 123.053 22.2263V14.6336C117.265 14.6336 113.226 16.4199 110.933 19.9923ZM60.8669 11.4412H75.6434V49.0909H83.9225V11.4412H98.7026V4.42224H60.8669V11.4412ZM144.501 40.2227L133.8 15.0149H125.517L140.358 49.2191L139.785 50.5588C139.022 52.2619 138.184 53.4743 137.271 54.1966C136.271 54.9416 135.045 55.3189 133.8 55.2654C132.717 55.2612 131.645 55.0442 130.645 54.6277C129.644 54.2261 128.727 53.6414 127.939 52.9032L124.738 58.7749C125.925 59.8231 127.32 60.6063 128.832 61.073C130.452 61.6231 132.15 61.9046 133.86 61.9068C136.876 61.9068 139.446 61.1514 141.57 59.6407C143.695 58.13 145.499 55.5245 146.983 51.8236L162.908 15.0006H155.266L144.501 40.2227ZM201.758 22.9282C200.327 20.3468 198.196 18.2236 195.612 16.8035C192.884 15.3276 189.822 14.5804 186.721 14.6336C184.638 14.609 182.572 14.999 180.64 15.7809C178.805 16.536 177.162 17.691 175.828 19.1621V1.74292H167.876V49.0909H175.455V44.6835C176.751 46.2836 178.426 47.5331 180.327 48.3177C182.359 49.1464 184.535 49.5597 186.729 49.5327C189.829 49.5858 192.891 48.8386 195.619 47.3628C198.21 45.9362 200.342 43.7992 201.765 41.2025C203.288 38.3956 204.057 35.2401 203.994 32.0457C203.992 28.5944 203.248 25.5552 201.761 22.9282H201.758ZM193.062 39.7738C191.166 41.7334 188.756 42.7121 185.832 42.7096C184.029 42.7371 182.249 42.286 180.676 41.402C179.136 40.5256 177.875 39.2311 177.038 37.6681C176.158 35.9272 175.7 34.0037 175.7 32.0528C175.7 30.102 176.158 28.1784 177.038 26.4376C177.874 24.876 179.132 23.582 180.669 22.7037C182.243 21.8214 184.021 21.3704 185.825 21.3961C188.756 21.3961 191.166 22.3747 193.055 24.332C194.945 26.2892 195.893 28.8628 195.9 32.0528C195.891 35.2476 194.946 37.8213 193.066 39.7738H193.062Z" fill="black"/>
<path d="M53.3127 21.0107L48.7144 16.4038L41.8365 23.3052L31.3098 12.7589L39.3364 4.71377L34.7381 0.106895L26.7115 8.15201L18.5746 0L13.9763 4.60688L22.1096 12.7589L11.5829 23.3052L4.59832 16.304L0 20.9145L6.9846 27.9121L0 34.9097L4.59832 39.5165L11.5829 32.519L22.1096 43.0652L13.9763 51.2029L18.5746 55.8134L26.7115 47.6613L34.7381 55.7029L39.3364 51.096L31.3098 43.0545L41.8365 32.5083L48.7144 39.3989L53.3127 34.7921L46.4348 27.9014L53.3127 21.0107ZM26.7115 38.4476L16.1848 27.9014L26.7115 17.3551L37.2382 27.9014L26.7115 38.4476Z" fill="black"/>
<path d="M41.1585 79.6205C41.8633 80.0128 42.4427 80.5971 42.8299 81.3058C43.2268 82.0707 43.4342 82.9202 43.4342 83.782C43.4342 84.6443 43.2268 85.4937 42.8299 86.2583C42.4416 86.968 41.8626 87.5545 41.1585 87.9507C40.4308 88.3583 39.609 88.5671 38.7757 88.5564C38.0435 88.5678 37.3198 88.3964 36.6704 88.0576C36.0484 87.7291 35.528 87.2363 35.1659 86.6324V88.4851H33.9568V75.2666H35.2193V80.896C35.5896 80.3099 36.1089 79.8329 36.7237 79.5136C37.36 79.1937 38.0638 79.0326 38.7757 79.0433C39.6061 79.0273 40.4269 79.2261 41.1585 79.6205ZM40.4472 86.978C40.9785 86.6766 41.4131 86.2291 41.699 85.6882C41.9981 85.0975 42.1542 84.4444 42.1542 83.782C42.1542 83.1197 41.9981 82.4666 41.699 81.8759C41.4135 81.3339 40.9792 80.885 40.4472 80.5825C39.901 80.2871 39.2896 80.1321 38.669 80.1321C38.0481 80.1321 37.4371 80.2871 36.8909 80.5825C36.3614 80.8861 35.9296 81.3346 35.6462 81.8759C35.3468 82.4666 35.1908 83.1197 35.1908 83.782C35.1908 84.4444 35.3468 85.0975 35.6462 85.6882C35.93 86.228 36.3617 86.6755 36.8909 86.978C37.4361 87.2762 38.0474 87.4323 38.669 87.4323C39.2903 87.4323 39.9017 87.2762 40.4472 86.978Z" fill="black"/>
<path d="M53.606 79.0981L48.9294 89.5767C48.6581 90.3032 48.205 90.947 47.6136 91.4473C47.0912 91.8228 46.4603 92.017 45.8177 91.9995C45.3874 92.0031 44.9602 91.9308 44.5552 91.7857C44.1739 91.6496 43.8279 91.4309 43.5416 91.1444L44.1284 90.2002C44.3493 90.4297 44.6146 90.611 44.9083 90.7336C45.2017 90.8562 45.5172 90.9171 45.8354 90.9128C46.2295 90.9239 46.6153 90.7981 46.9272 90.5565C47.2989 90.2237 47.5887 89.809 47.7736 89.3451L48.1826 88.4366L44.0039 79.0839H45.3198L48.8405 87.047L52.3613 79.0839L53.606 79.0981Z" fill="black"/>
<path d="M65.017 88.469V71.6234H68.8578V77.8906H68.9289C69.3279 77.3124 69.8624 76.8413 70.4859 76.5182C71.1089 76.195 71.8017 76.0301 72.503 76.0379C73.0756 76.0101 73.6474 76.1084 74.1777 76.3265C74.7079 76.5442 75.1841 76.8763 75.5721 77.2992C76.3453 78.223 76.7439 79.4045 76.6888 80.6091V88.4476H72.8409V81.4001C72.8718 80.8365 72.7004 80.2803 72.3572 79.8324C72.1829 79.6368 71.9667 79.4836 71.7245 79.3842C71.4823 79.2848 71.221 79.2417 70.9596 79.2588C70.6672 79.2513 70.377 79.3119 70.1117 79.4355C69.8464 79.5592 69.6135 79.7426 69.4304 79.9714C69.0217 80.4941 68.8133 81.1464 68.8436 81.8099V88.4761L65.017 88.469Z" fill="black"/>
<path d="M82.4422 88.8206C81.0812 88.8206 80.0357 88.4169 79.3055 87.6092C78.5754 86.8019 78.2102 85.7055 78.2102 84.3206V76.3931H82.019V83.519C82.019 84.8871 82.6236 85.5712 83.8327 85.5712C84.1254 85.5855 84.4174 85.532 84.6859 85.4152C84.9548 85.2983 85.1934 85.1216 85.3833 84.8978C85.777 84.4011 85.9775 83.7787 85.9487 83.1448V76.3931H89.7824V88.4572H86.0945V86.9714H86.0234C85.6248 87.5515 85.0892 88.0236 84.4643 88.3464C83.8395 88.6688 83.1449 88.832 82.4422 88.8206Z" fill="black"/>
<path d="M96.581 88.8636C94.8242 88.8636 93.4255 88.4824 92.3845 87.7199C91.8803 87.3636 91.4674 86.8929 91.1793 86.346C90.8912 85.7991 90.7362 85.192 90.7273 84.5738H94.3476C94.4899 85.7614 95.226 86.3553 96.5561 86.3553C97.0358 86.3806 97.5131 86.2694 97.9324 86.0346C98.0889 85.9477 98.2187 85.8198 98.3079 85.6648C98.3976 85.5102 98.4434 85.3334 98.4409 85.1546C98.4431 85.042 98.426 84.9301 98.3911 84.8232C98.3581 84.7249 98.3019 84.6355 98.2276 84.5631C98.1493 84.4848 98.0746 84.4135 98.0035 84.3529C97.9089 84.276 97.8019 84.2158 97.687 84.1748C97.5447 84.1213 97.4238 84.0786 97.3314 84.0465C97.1852 84.003 97.0369 83.9674 96.8868 83.9396L96.4281 83.847C96.3178 83.8221 96.1436 83.79 95.9088 83.7508L95.3932 83.6688C94.8917 83.5905 94.4685 83.5085 94.1236 83.4194C93.7317 83.3175 93.3494 83.1807 92.982 83.0097C92.6121 82.8504 92.2707 82.6317 91.972 82.3612C91.6914 82.0841 91.473 81.7498 91.3319 81.3814C91.1501 80.9215 91.0619 80.4294 91.0723 79.9349C91.0527 79.3719 91.1789 78.8133 91.4389 78.3138C91.6989 77.8142 92.0833 77.3906 92.5552 77.0845C93.6524 76.3677 94.9412 76.0025 96.2502 76.037C97.9288 76.037 99.2329 76.3791 100.162 77.0632C100.616 77.3913 100.989 77.8185 101.254 78.3123C101.519 78.8058 101.668 79.3534 101.691 79.9135H98.1635C98.038 78.9633 97.3954 78.4883 96.236 78.4883C95.8135 78.4684 95.3939 78.5657 95.0233 78.7698C94.8789 78.8525 94.7594 78.9732 94.6787 79.119C94.598 79.2647 94.5585 79.4297 94.5646 79.5964C94.5642 79.6844 94.5813 79.7713 94.6143 79.8529C94.6471 79.9349 94.6983 80.0079 94.7637 80.0667C94.8306 80.1269 94.9017 80.1818 94.9771 80.2306C95.0699 80.2894 95.1688 80.3371 95.2723 80.3731L95.6279 80.4907C95.7666 80.532 95.9081 80.563 96.0511 80.5833L96.4956 80.6689L96.9793 80.7615C97.182 80.8007 97.3349 80.8292 97.4736 80.8434C98.0035 80.9361 98.4445 81.0251 98.7895 81.1035C99.2034 81.2058 99.6078 81.343 99.9986 81.5133C100.401 81.6747 100.772 81.9063 101.094 82.1974C101.392 82.5052 101.628 82.8683 101.787 83.2662C101.993 83.7625 102.094 84.2966 102.083 84.8339C102.104 85.419 101.974 85.9994 101.704 86.5185C101.434 87.0376 101.034 87.4773 100.543 87.7947C99.5327 88.5073 98.2123 88.8636 96.581 88.8636Z" fill="black"/>
<path d="M107.588 88.6107C106.365 88.6107 105.416 88.3623 104.743 87.866C104.074 87.3708 103.744 86.5121 103.744 85.2865V78.809H102.143V76.3934H103.744V72.5881H107.481V76.3934H109.668V78.7983H107.481V84.4527C107.464 84.623 107.488 84.7951 107.55 84.9547C107.611 85.1144 107.71 85.2576 107.837 85.372C108.134 85.5622 108.484 85.652 108.836 85.6285H109.331H109.686V88.4325C109 88.5832 108.297 88.6467 107.595 88.6214" fill="black"/>
<path d="M114.829 71.6234H110.949V88.469H114.829V71.6234Z" fill="black"/>
<path d="M122.427 88.8209C120.483 88.8209 118.926 88.2199 117.757 87.0181C116.635 85.7604 116.012 84.1328 116.008 82.4454C116.004 80.758 116.619 79.128 117.736 77.8649C118.873 76.7604 120.379 76.1176 121.962 76.0613C123.546 76.0047 125.093 76.5381 126.307 77.5585C127.751 78.8814 128.456 80.8375 128.423 83.4267H119.784C119.86 84.1506 120.166 84.8312 120.656 85.3685C120.896 85.605 121.183 85.7889 121.499 85.9086C121.814 86.0283 122.15 86.081 122.487 86.0632C123.476 86.0632 124.142 85.6631 124.486 84.8625H128.213C127.923 86.0354 127.2 87.0541 126.189 87.7129C125.083 88.47 123.766 88.8576 122.427 88.8209ZM119.784 81.1392H124.536C124.509 80.5004 124.257 79.8919 123.824 79.4219C123.621 79.2131 123.378 79.0489 123.108 78.9391C122.839 78.8294 122.55 78.7767 122.26 78.7841C120.894 78.7841 120.064 79.5691 119.77 81.1392" fill="black"/>
<path d="M129.577 88.469V76.3942H133.247V78.1151H133.318C133.674 77.4649 134.204 76.9262 134.848 76.5595C135.491 76.1929 136.224 76.0123 136.964 76.0379C137.679 76.0026 138.387 76.1886 138.993 76.5713C139.599 76.954 140.072 77.514 140.349 78.1757H140.413C140.795 77.5119 141.349 76.9632 142.015 76.5873C142.681 76.2111 143.436 76.0215 144.201 76.0379C145.531 76.0379 146.545 76.4498 147.245 77.2743C147.944 78.0984 148.293 79.21 148.29 80.6092V88.4476H144.439V81.2861C144.439 79.918 143.877 79.2374 142.746 79.2374C142.476 79.2257 142.207 79.2809 141.964 79.3978C141.72 79.5143 141.509 79.6892 141.349 79.9073C140.988 80.4285 140.81 81.0553 140.844 81.6887V88.4583H137.01V81.2968C137.01 79.9286 136.444 79.2481 135.317 79.2481C135.046 79.2364 134.777 79.2912 134.533 79.4077C134.289 79.5246 134.077 79.6999 133.916 79.918C133.555 80.4392 133.378 81.0659 133.411 81.6994V88.469H129.577Z" fill="black"/>
<path d="M153.417 88.7757C152.337 88.8288 151.275 88.4853 150.43 87.8102C150.051 87.4724 149.752 87.053 149.557 86.5834C149.361 86.1142 149.275 85.6065 149.303 85.0988C149.303 83.8767 149.712 82.9824 150.526 82.4266C151.553 81.7956 152.712 81.4125 153.912 81.3078C154.732 81.2422 155.541 81.0798 156.323 80.8232C156.509 80.7687 156.672 80.6558 156.788 80.5011C156.905 80.3465 156.969 80.1584 156.97 79.9646C156.97 79.0998 156.421 78.6677 155.324 78.6677C154.146 78.6677 153.496 79.1878 153.371 80.2211H149.843C149.858 79.6485 149.997 79.0863 150.251 78.5736C150.505 78.0605 150.869 77.6102 151.316 77.2532C152.247 76.4693 153.575 76.0774 155.299 76.0774C157.022 76.0774 158.326 76.4063 159.211 77.0643C160.231 77.8054 160.74 78.9491 160.74 80.5061V86.5845C160.74 87.5344 160.881 88.108 161.163 88.3054V88.4693H157.44C157.22 88.0521 157.085 87.5957 157.041 87.1261H156.992C156.223 88.2281 155.038 88.7778 153.435 88.7757H153.417ZM154.659 86.3244C155.297 86.3533 155.924 86.1395 156.412 85.7258C156.631 85.5295 156.804 85.2872 156.92 85.0165C157.035 84.7453 157.09 84.4524 157.08 84.1581V82.733C156.445 83.0091 155.784 83.2229 155.107 83.3707C154.531 83.4662 153.98 83.6746 153.485 83.9836C153.329 84.1001 153.204 84.2533 153.122 84.43C153.039 84.6064 153.001 84.8005 153.012 84.9954C153.012 85.8933 153.56 86.3387 154.659 86.3387" fill="black"/>
<path d="M167.176 88.8645C166.452 88.8866 165.733 88.743 165.073 88.4448C164.413 88.1466 163.83 87.7015 163.367 87.1436C162.398 85.9963 161.911 84.4333 161.909 82.4548C161.909 80.5685 162.399 79.0329 163.378 77.8479C163.831 77.2774 164.409 76.82 165.068 76.5107C165.727 76.2018 166.449 76.0497 167.176 76.0664C167.837 76.0411 168.493 76.1861 169.082 76.4875C169.671 76.789 170.173 77.2361 170.54 77.7873H170.611V71.6234H174.445V88.469H170.775V86.8443H170.729C170.382 87.4774 169.864 88.0005 169.236 88.3543C168.608 88.7081 167.893 88.8787 167.172 88.8467L167.176 88.8645ZM168.161 85.8075C168.524 85.82 168.884 85.7409 169.208 85.5777C169.532 85.4145 169.811 85.1726 170.017 84.874C170.501 84.1564 170.741 83.3017 170.7 82.4369C170.744 81.5483 170.523 80.6669 170.067 79.9037C169.867 79.5959 169.591 79.3457 169.264 79.1783C168.938 79.0108 168.573 78.9317 168.207 78.9488C167.855 78.9392 167.506 79.0212 167.194 79.1865C166.883 79.3518 166.619 79.5951 166.429 79.893C166.009 80.6569 165.789 81.5149 165.789 82.3871C165.789 83.2593 166.009 84.1172 166.429 84.8811C166.616 85.1708 166.874 85.4077 167.179 85.5688C167.483 85.7298 167.824 85.8096 168.168 85.8004" fill="black"/>
</g>
<defs>
<clipPath id="clip0_481_5568">
<rect width="204" height="92" fill="white"/>
</clipPath>
</defs>
</svg>
