<svg width="20" height="20" viewBox="0 0 20 20" fill="none" xmlns="http://www.w3.org/2000/svg">
<rect width="20" height="20" rx="2" fill="#FF89B4"/>
<path d="M19 1H1V19H19V1Z" fill="#FF89B4"/>
<path d="M11.6299 8.71191H8.36946C7.961 8.71191 7.62988 9.04303 7.62988 9.45149V12.4947C7.62988 12.9031 7.961 13.2342 8.36946 13.2342H11.6299C12.0384 13.2342 12.3695 12.9031 12.3695 12.4947V9.45149C12.3695 9.04303 12.0384 8.71191 11.6299 8.71191Z" fill="white"/>
<path d="M11.6301 8.71208C11.8262 8.71208 12.0143 8.79 12.153 8.92869C12.2917 9.06738 12.3696 9.25548 12.3696 9.45161V12.4948C12.3696 12.5919 12.3505 12.6881 12.3133 12.7778C12.2762 12.8676 12.2217 12.9491 12.153 13.0178C12.0844 13.0864 12.0028 13.1409 11.9131 13.1781C11.8234 13.2152 11.7272 13.2344 11.6301 13.2344H8.36958C8.27247 13.2344 8.1763 13.2152 8.08658 13.1781C7.99685 13.1409 7.91533 13.0864 7.84666 13.0178C7.77798 12.9491 7.72351 12.8676 7.68635 12.7778C7.64918 12.6881 7.63005 12.5919 7.63005 12.4948V9.45161C7.63005 9.25548 7.70797 9.06738 7.84666 8.92869C7.98534 8.79 8.17345 8.71208 8.36958 8.71208H11.6301ZM11.6301 8.55566H8.36958C7.87557 8.55566 7.47363 8.9576 7.47363 9.45161V12.4948C7.47363 12.9888 7.87557 13.3908 8.36958 13.3908H11.6301C12.1241 13.3908 12.5261 12.9888 12.5261 12.4948V9.45161C12.5261 8.9576 12.1241 8.55566 11.6301 8.55566Z" fill="#371A45"/>
<path d="M9.29241 15.7591C9.27772 15.7591 9.26334 15.755 9.25092 15.7471C8.85177 15.4964 8.26596 15.6073 8.26011 15.6084C8.23991 15.6121 8.21907 15.6077 8.20211 15.5961C8.18515 15.5845 8.17341 15.5667 8.16944 15.5466C8.16547 15.5265 8.16959 15.5056 8.18089 15.4884C8.1922 15.4713 8.20979 15.4593 8.22987 15.455C8.25624 15.4498 8.88174 15.3306 9.33408 15.6147C9.34846 15.6237 9.35951 15.6372 9.36557 15.653C9.37162 15.6689 9.37235 15.6863 9.36765 15.7026C9.36294 15.7189 9.35305 15.7333 9.33948 15.7435C9.32591 15.7537 9.30939 15.7592 9.29241 15.7591Z" fill="#371A45"/>
<path d="M12.3051 16.1822C12.304 16.1941 12.3317 16.6581 11.0934 16.6117C10.5685 16.592 10.2114 16.4915 10.0836 16.2153C9.96927 15.9678 9.98565 14.9998 9.98565 14.9998V13.4428H9.98389V14.9998C9.98389 14.9998 9.98997 15.3576 9.96904 15.6937C9.95554 15.9105 9.93075 16.1183 9.88597 16.2153C9.75808 16.4915 9.45955 16.592 8.93463 16.6117C7.69632 16.6581 7.66563 16.1941 7.66441 16.1822C7.6582 16.1222 7.6646 16.0615 7.68322 16.0041C7.78762 15.6827 8.24487 15.5322 8.24487 15.5322C8.24487 15.5322 7.95358 14.4246 7.85309 13.4811C7.82159 13.1849 7.80598 12.8852 7.80283 12.5871C7.78996 11.3601 7.99035 10.155 8.17998 9.29709C8.23803 9.03532 8.29495 8.80578 8.34441 8.61813C8.43706 8.26713 8.50411 8.06152 8.50411 8.06152H11.4654C11.4654 8.06152 11.536 8.27815 11.6326 8.64607C11.6811 8.83057 11.7358 9.05332 11.7918 9.30573C11.9808 10.1634 12.1798 11.3657 12.1669 12.5894C12.1638 12.8868 12.1479 13.1855 12.1165 13.4811C12.0162 14.4246 11.7247 15.5322 11.7247 15.5322C11.7247 15.5322 12.3499 15.7382 12.3051 16.1822Z" fill="white"/>
<g opacity="0.3">
<path opacity="0.3" d="M12.3049 16.182C12.3038 16.1939 12.2731 16.6578 11.0347 16.6115C10.5098 16.5918 10.2112 16.4913 10.0834 16.215C10.0387 16.1181 10.0138 15.9102 10.0003 15.6934L9.9888 14.9943L9.96904 15.6934C9.95554 15.9102 9.93074 16.1181 9.88597 16.215C9.75808 16.4913 9.45955 16.5918 8.93463 16.6115C7.69632 16.6578 7.66563 16.1939 7.66441 16.182C7.6582 16.122 7.6646 16.0613 7.68322 16.0039C7.72795 16.0776 7.86169 16.1839 8.25427 16.2379C8.89143 16.3253 9.57569 16.2475 9.69184 15.8239C9.77927 15.5047 9.92327 13.9238 9.43885 13.7168C8.69005 13.3967 8.41519 13.1395 8.62341 13.098C8.72916 13.0769 9.00798 13.1647 9.9847 13.1647C10.9614 13.1647 11.2402 13.0769 11.346 13.098C11.5542 13.1395 11.2793 13.3967 10.5305 13.7168C10.0463 13.9238 10.1902 15.5047 10.2776 15.8235C10.3937 16.2472 11.078 16.325 11.7151 16.2375C12.1077 16.1835 12.2416 16.0774 12.2862 16.0035C12.3048 16.0611 12.3112 16.1219 12.3049 16.182Z" fill="#371A45"/>
</g>
<path d="M11.2631 16.6929C11.2076 16.6929 11.1501 16.6918 11.0906 16.6896C10.6766 16.6741 10.1803 16.6099 10.0129 16.2479C10.0014 16.2221 9.99211 16.1955 9.98497 16.1682C9.97787 16.1955 9.96854 16.2221 9.95707 16.2479C9.82207 16.5395 9.52687 16.6675 8.93773 16.6896C7.69695 16.7363 7.59466 16.2807 7.58674 16.1889C7.54543 15.7792 7.97905 15.556 8.15212 15.4837C8.08759 15.2272 7.86115 14.2941 7.77552 13.4891C7.64952 12.3026 7.75545 10.9441 8.10001 9.33625C8.10217 9.3262 8.10628 9.31668 8.11211 9.30822C8.11795 9.29977 8.12539 9.29254 8.13402 9.28696C8.14264 9.28138 8.15229 9.27755 8.16239 9.2757C8.1725 9.27384 8.18287 9.274 8.19292 9.27615C8.20296 9.27831 8.21249 9.28242 8.22094 9.28825C8.2294 9.29409 8.23662 9.30153 8.2422 9.31016C8.24779 9.31878 8.25161 9.32843 8.25347 9.33853C8.25532 9.34864 8.25517 9.35901 8.25301 9.36906C7.91196 10.9605 7.80666 12.3027 7.93113 13.4726C8.02972 14.3991 8.31813 15.501 8.32087 15.512L8.33959 15.5831L8.26971 15.6062C8.26413 15.608 7.70464 15.7983 7.74253 16.174C7.74303 16.1795 7.79077 16.5761 8.93193 16.5333C9.45303 16.5137 9.70894 16.412 9.81523 16.1823C9.88561 16.0301 9.90442 15.5314 9.90676 15.2038C9.90649 15.1518 9.90676 15.1067 9.90676 15.0715C9.90676 15.0454 9.90631 15.0217 9.906 15.0009V13.3642H10.0624L10.064 13.4425V14.9995C10.0637 15.0207 10.0634 15.0449 10.0632 15.0715C10.0635 15.1066 10.0636 15.1516 10.0632 15.2035C10.0656 15.532 10.0844 16.0301 10.1548 16.1822C10.2576 16.4044 10.548 16.5127 11.0964 16.5332C11.7621 16.5581 12.0369 16.4349 12.1506 16.3271C12.2206 16.2606 12.2268 16.1997 12.2271 16.1826L12.2274 16.1746C12.2654 15.7982 11.7059 15.6079 11.7002 15.6061L11.6305 15.5829L11.6492 15.5119C11.652 15.5009 11.9403 14.399 12.0389 13.4725C12.161 12.3243 12.0614 11.0074 11.7335 9.44664C11.731 9.43645 11.7306 9.42587 11.7323 9.41552C11.734 9.40517 11.7377 9.39527 11.7433 9.3864C11.7489 9.37752 11.7562 9.36987 11.7648 9.36388C11.7734 9.35789 11.7831 9.3537 11.7934 9.35154C11.8037 9.34939 11.8142 9.34932 11.8245 9.35134C11.8348 9.35336 11.8446 9.35742 11.8533 9.3633C11.862 9.36917 11.8694 9.37673 11.8751 9.38553C11.8808 9.39433 11.8847 9.40418 11.8865 9.41451C12.2176 10.9915 12.3183 12.3243 12.1943 13.489C12.1088 14.294 11.8823 15.2273 11.8177 15.4837C11.9904 15.5557 12.4223 15.7781 12.3833 16.1866C12.3823 16.2304 12.3675 16.3368 12.2582 16.4405C12.0817 16.6083 11.7474 16.6929 11.2631 16.6929Z" fill="#371A45"/>
<path d="M11.7101 15.6086C11.6718 15.5985 11.6274 15.5893 11.585 15.5822C11.5425 15.5751 11.4987 15.569 11.4551 15.5642C11.3676 15.5552 11.2796 15.5522 11.1917 15.5552C11.1033 15.5586 11.0154 15.57 10.9291 15.5893C10.842 15.6098 10.7576 15.6406 10.6777 15.6811C10.7522 15.6287 10.8327 15.5853 10.9175 15.552C11.0036 15.5192 11.0924 15.4943 11.183 15.4775C11.2741 15.4611 11.3662 15.4509 11.4587 15.4472C11.505 15.4453 11.5515 15.4447 11.5982 15.446C11.6449 15.4472 11.6903 15.4494 11.7406 15.455C11.7609 15.4577 11.7793 15.4684 11.7919 15.4845C11.8045 15.5007 11.8103 15.5212 11.808 15.5416C11.8057 15.5619 11.7955 15.5806 11.7796 15.5936C11.7637 15.6065 11.7434 15.6128 11.7229 15.6109C11.7193 15.6105 11.7157 15.6098 11.7121 15.6089L11.7101 15.6086Z" fill="#371A45"/>
<path d="M8.23929 15.4558C8.28956 15.4501 8.33451 15.4477 8.38167 15.4468C8.42883 15.4459 8.47478 15.4461 8.52117 15.448C8.61365 15.4518 8.70576 15.4619 8.79684 15.4783C8.8874 15.4951 8.97627 15.52 9.06234 15.5528C9.1471 15.5861 9.22758 15.6295 9.30206 15.6819C9.22224 15.6414 9.13787 15.6106 9.05073 15.5901C8.96438 15.5708 8.87647 15.5594 8.78807 15.556C8.70018 15.553 8.6122 15.556 8.52473 15.565C8.48117 15.5695 8.43774 15.5754 8.39481 15.583C8.35188 15.5906 8.30801 15.5993 8.26971 15.6094L8.26832 15.6098C8.25827 15.6127 8.24774 15.6136 8.23735 15.6124C8.22696 15.6112 8.21691 15.6079 8.2078 15.6027C8.1987 15.5976 8.19071 15.5907 8.18432 15.5824C8.17793 15.5741 8.17326 15.5646 8.17058 15.5545C8.1679 15.5444 8.16728 15.5338 8.16874 15.5235C8.1702 15.5131 8.17371 15.5031 8.17908 15.4942C8.18444 15.4852 8.19155 15.4774 8.19998 15.4712C8.20842 15.465 8.218 15.4605 8.22818 15.4581C8.23182 15.4571 8.23554 15.4563 8.23929 15.4558Z" fill="#371A45"/>
<path d="M8.92892 12.2488C8.65199 12.3652 8.22336 12.3408 7.93113 12.3041C7.7559 12.2821 7.63287 12.1142 7.6587 11.9328C7.68224 11.7673 7.8225 11.6469 7.98342 11.6548C8.25675 11.6683 8.6667 11.6743 8.92635 11.6143" fill="white"/>
<g opacity="0.35">
<path opacity="0.35" d="M8.92907 12.2486C8.65214 12.3651 8.22334 12.3409 7.9312 12.304C7.75601 12.2821 7.63294 12.1141 7.65868 11.9326C7.6639 11.8951 7.67556 11.8587 7.69315 11.8252C7.73981 11.9149 7.82617 11.9804 7.9312 11.9936C8.22293 12.0303 8.65093 12.0547 8.92786 11.9387L8.92907 12.2486Z" fill="#371A45"/>
</g>
<path d="M8.37818 12.4126C8.21767 12.4126 8.05805 12.3988 7.92143 12.3817C7.87016 12.3752 7.82072 12.3585 7.77602 12.3326C7.73132 12.3066 7.69228 12.272 7.6612 12.2307C7.62817 12.187 7.6041 12.1372 7.59039 12.0842C7.57667 12.0312 7.57357 11.976 7.58128 11.9218C7.61071 11.7152 7.78526 11.5668 7.98727 11.5766C8.38925 11.5962 8.71627 11.5825 8.90878 11.5383C8.94784 11.5293 9.04481 11.5279 9.10313 11.7085C9.16888 11.9122 9.15547 12.2383 8.95913 12.3208C8.79587 12.3895 8.58622 12.4126 8.37818 12.4126ZM7.96868 11.7326C7.85254 11.7326 7.75367 11.8215 7.73626 11.9438C7.73125 11.9775 7.73305 12.0118 7.74156 12.0448C7.75006 12.0778 7.76509 12.1087 7.78576 12.1358C7.80428 12.1606 7.82759 12.1813 7.85428 12.1969C7.88098 12.2125 7.91053 12.2225 7.94119 12.2265C8.3578 12.2789 8.69795 12.2611 8.89888 12.1766C8.93798 12.1602 8.96638 12.1033 8.97749 12.0206C8.99693 11.8729 8.95499 11.7326 8.92664 11.6946C8.66258 11.7513 8.26771 11.7468 7.97993 11.7328C7.97593 11.7327 7.97224 11.7326 7.96855 11.7326H7.96868Z" fill="#371A45"/>
<g opacity="0.3">
<path opacity="0.3" d="M12.2378 12.5547C11.9575 12.5894 11.5648 12.6136 11.2692 12.533V12.6824C11.2692 12.8885 11.107 13.0569 10.9085 13.0569H8.93978C8.74119 13.0569 8.5791 12.8885 8.5791 12.6824V11.5716C8.5791 11.3659 8.7411 11.1973 8.93978 11.1973H10.9085C11.0671 11.1973 11.2026 11.3047 11.2508 11.4531C11.263 11.4914 11.2692 11.5314 11.2692 11.5716V11.822C11.5489 11.8641 11.9241 11.8573 12.1852 11.8445C12.1886 11.8445 12.1917 11.8445 12.1949 11.8445C12.2164 12.0781 12.2315 12.3161 12.2378 12.5547Z" fill="#371A45"/>
</g>
<path d="M11.0479 12.2488C11.3248 12.3652 11.7535 12.3408 12.0456 12.3041C12.2209 12.2821 12.3439 12.1142 12.3181 11.9328C12.2945 11.7673 12.1543 11.6469 11.9933 11.6548C11.72 11.6683 11.3101 11.6743 11.0505 11.6143" fill="white"/>
<g opacity="0.35">
<path opacity="0.35" d="M12.0458 12.3047C11.7533 12.3416 11.3248 12.3658 11.0479 12.2494L11.0491 11.9401C11.326 12.0561 11.7538 12.0316 12.0458 11.995C12.1508 11.9817 12.2373 11.9159 12.284 11.8262C12.3013 11.8597 12.3129 11.8959 12.3182 11.9333C12.344 12.1148 12.2209 12.2828 12.0458 12.3047Z" fill="#371A45"/>
</g>
<path d="M11.5984 12.4126C11.3904 12.4126 11.1807 12.3895 11.0174 12.3208C10.8212 12.2383 10.8077 11.9122 10.8734 11.7085C10.9319 11.5279 11.0287 11.5293 11.0677 11.5383C11.2599 11.5825 11.5872 11.5962 11.9892 11.5766C12.1912 11.5668 12.3658 11.7151 12.3952 11.9218C12.4029 11.976 12.3998 12.0312 12.3861 12.0842C12.3724 12.1372 12.3483 12.187 12.3153 12.2307C12.2842 12.272 12.2452 12.3066 12.2005 12.3326C12.1558 12.3585 12.1063 12.3752 12.055 12.3817C11.9186 12.3988 11.7589 12.4126 11.5984 12.4126ZM11.0502 11.6946C11.0221 11.7324 10.9799 11.8729 10.9994 12.0206C11.0102 12.1033 11.0389 12.1601 11.078 12.1766C11.2789 12.2611 11.619 12.2789 12.0357 12.2265C12.0663 12.2226 12.0959 12.2125 12.1226 12.1969C12.1493 12.1813 12.1726 12.1606 12.1911 12.1358C12.2118 12.1087 12.2268 12.0778 12.2353 12.0448C12.2438 12.0118 12.2456 11.9775 12.2406 11.9438C12.2226 11.8178 12.118 11.7268 11.9971 11.7328C11.7091 11.7468 11.3143 11.7513 11.0502 11.6946Z" fill="#371A45"/>
<path d="M11.1551 11.4053V12.4218C11.1551 12.6105 11.0066 12.7648 10.825 12.7648H9.02246C8.84079 12.7648 8.69238 12.6105 8.69238 12.4218V11.4053C8.69238 11.2168 8.84088 11.0625 9.02246 11.0625H10.825C10.97 11.0625 11.094 11.161 11.138 11.2969C11.1493 11.3319 11.155 11.3685 11.1551 11.4053Z" fill="white"/>
<g opacity="0.3">
<path opacity="0.3" d="M11.1551 11.4051V12.4217C11.1551 12.6103 11.0066 12.7647 10.825 12.7647H9.02246C8.84079 12.7647 8.69238 12.6103 8.69238 12.4217V12.0797C9.00338 12.2584 9.61938 12.5269 10.2379 12.3054C10.5399 12.1971 10.8863 11.826 10.8863 11.826C10.8863 11.826 10.8998 12.2154 10.9553 12.2092C11.1099 12.1921 11.1088 11.4043 11.138 11.2969C11.1493 11.3319 11.155 11.3684 11.1551 11.4051Z" fill="#371A45"/>
</g>
<path d="M10.8179 12.843H9.02787C8.91796 12.8428 8.81258 12.7991 8.73486 12.7214C8.65713 12.6437 8.61341 12.5383 8.61328 12.4284V11.399C8.61341 11.289 8.65713 11.1837 8.73485 11.1059C8.81258 11.0282 8.91795 10.9845 9.02787 10.9844H10.8179C10.9278 10.9845 11.0332 11.0282 11.1109 11.106C11.1886 11.1837 11.2323 11.2891 11.2324 11.399V12.4284C11.2323 12.5383 11.1886 12.6437 11.1109 12.7214C11.0332 12.7991 10.9278 12.8428 10.8179 12.843ZM9.02787 11.1408C8.95942 11.1409 8.89379 11.1681 8.84539 11.2165C8.797 11.2649 8.76977 11.3305 8.7697 11.399V12.4284C8.76977 12.4969 8.797 12.5625 8.84539 12.6109C8.89379 12.6593 8.95942 12.6865 9.02787 12.6866H10.8179C10.8863 12.6865 10.9519 12.6593 11.0003 12.6109C11.0487 12.5625 11.076 12.4969 11.076 12.4284V11.399C11.076 11.3305 11.0487 11.2649 11.0003 11.2165C10.9519 11.1681 10.8863 11.1409 10.8179 11.1408H9.02787Z" fill="#371A45"/>
<path d="M10.562 12.2094C10.7192 12.2094 10.8467 12.077 10.8467 11.9138C10.8467 11.7505 10.7192 11.6182 10.562 11.6182C10.4048 11.6182 10.2773 11.7505 10.2773 11.9138C10.2773 12.077 10.4048 12.2094 10.562 12.2094Z" fill="#22A7F0"/>
<path d="M10.8465 11.9139C10.8465 11.9335 10.8447 11.9531 10.8409 11.9724C10.8146 11.837 10.6995 11.7352 10.5619 11.7352C10.4243 11.7352 10.309 11.837 10.2829 11.9724C10.2792 11.9531 10.2773 11.9335 10.2773 11.9139C10.2773 11.7506 10.4047 11.6182 10.5619 11.6182C10.7192 11.6182 10.8465 11.7506 10.8465 11.9139Z" fill="white"/>
<g opacity="0.35">
<path opacity="0.35" d="M10.8466 11.9131C10.8466 12.0765 10.7191 12.2087 10.562 12.2087C10.4049 12.2087 10.2773 12.0765 10.2773 11.9131C10.2773 11.8864 10.2808 11.8598 10.2877 11.834C10.3211 11.9586 10.4314 12.0502 10.5622 12.0502C10.693 12.0502 10.803 11.9586 10.8367 11.834C10.8434 11.8598 10.8468 11.8864 10.8466 11.9131Z" fill="#371A45"/>
</g>
<path d="M10.5621 12.2681C10.3727 12.2681 10.2188 12.1092 10.2188 11.9138C10.2188 11.7185 10.3727 11.5596 10.5621 11.5596C10.7514 11.5596 10.9054 11.7185 10.9054 11.9138C10.9054 12.1092 10.7513 12.2681 10.5621 12.2681ZM10.5621 11.6768C10.4375 11.6768 10.3361 11.7832 10.3361 11.9138C10.3361 12.0444 10.4375 12.1508 10.5621 12.1508C10.6867 12.1508 10.788 12.0445 10.788 11.9138C10.788 11.7831 10.6867 11.6768 10.5621 11.6768Z" fill="#371A45"/>
<path d="M9.75511 12.8422C9.73438 12.8422 9.71449 12.834 9.69982 12.8193C9.68516 12.8047 9.67691 12.7848 9.6769 12.764V12.2438C9.6769 12.1395 9.62929 12.0401 9.5496 11.9778L9.50379 11.9418C9.38647 11.85 9.31641 11.7045 9.31641 11.5526V11.0616C9.31641 11.0409 9.32465 11.021 9.33931 11.0063C9.35398 10.9916 9.37387 10.9834 9.39462 10.9834C9.41536 10.9834 9.43525 10.9916 9.44992 11.0063C9.46459 11.021 9.47283 11.0409 9.47283 11.0616V11.5526C9.47283 11.6568 9.52039 11.7562 9.60013 11.8186L9.6459 11.8543C9.76326 11.946 9.83332 12.0916 9.83332 12.2435V12.7638C9.83334 12.7741 9.83134 12.7843 9.82742 12.7938C9.8235 12.8033 9.81774 12.812 9.81048 12.8192C9.80321 12.8265 9.79458 12.8323 9.78508 12.8362C9.77558 12.8402 9.7654 12.8422 9.75511 12.8422Z" fill="#371A45"/>
<path d="M8.93885 14.3232C8.60643 14.3232 8.23887 14.2655 7.90241 14.085C7.88998 14.0776 7.88089 14.0657 7.87703 14.0517C7.87318 14.0378 7.87485 14.0228 7.8817 14.0101C7.88855 13.9973 7.90005 13.9877 7.91382 13.9832C7.92758 13.9788 7.94255 13.9797 7.9556 13.986C8.82306 14.4514 9.95472 14.0415 9.96606 14.0373C9.98001 14.0322 9.99539 14.0329 10.0088 14.0392C10.0223 14.0454 10.0327 14.0567 10.0379 14.0706C10.043 14.0845 10.0425 14.0999 10.0364 14.1134C10.0302 14.1269 10.019 14.1375 10.0052 14.1427C9.97479 14.1539 9.50832 14.3232 8.93885 14.3232Z" fill="#371A45"/>
<path d="M11.0319 14.3233C10.4623 14.3233 9.99595 14.154 9.96539 14.1427C9.9514 14.1376 9.94005 14.127 9.93383 14.1135C9.92761 14.0999 9.92703 14.0844 9.93223 14.0704C9.93742 14.0564 9.94795 14.0451 9.96151 14.0389C9.97508 14.0327 9.99055 14.0321 10.0045 14.0373C10.0158 14.0415 11.1475 14.4513 12.015 13.986C12.0281 13.9797 12.043 13.9788 12.0568 13.9832C12.0705 13.9877 12.0821 13.9973 12.0889 14.0101C12.0958 14.0228 12.0974 14.0378 12.0936 14.0517C12.0897 14.0657 12.0806 14.0776 12.0682 14.085C11.7319 14.2658 11.3643 14.3233 11.0319 14.3233Z" fill="#371A45"/>
<path d="M9.19141 13.4031C9.19141 13.4031 9.51311 13.5469 9.98467 13.5469C10.4562 13.5469 10.7796 13.4031 10.7796 13.4031C10.7796 13.4031 10.5659 13.2344 9.98467 13.2344C9.4034 13.2344 9.19141 13.4031 9.19141 13.4031Z" fill="white"/>
<g opacity="0.3">
<path opacity="0.3" d="M9.19141 13.4031C9.19141 13.4031 9.51311 13.5469 9.98467 13.5469C10.4562 13.5469 10.7796 13.4031 10.7796 13.4031C10.7796 13.4031 10.5659 13.2344 9.98467 13.2344C9.4034 13.2344 9.19141 13.4031 9.19141 13.4031Z" fill="#371A45"/>
</g>
<path d="M9.08355 13.3675C9.23436 13.4029 9.38694 13.4303 9.54066 13.4495C9.69311 13.4687 9.84651 13.4793 10.0002 13.4814C10.154 13.4818 10.3078 13.4728 10.4605 13.4544C10.6144 13.4356 10.7669 13.4065 10.9169 13.3675L10.9183 13.3671C10.9245 13.3655 10.931 13.3661 10.9366 13.369C10.9423 13.3718 10.9467 13.3766 10.9492 13.3825C10.9516 13.3883 10.9518 13.3949 10.9497 13.4008C10.9477 13.4068 10.9435 13.4119 10.938 13.4151C10.8663 13.4562 10.7922 13.4866 10.7159 13.5141C10.678 13.5283 10.6394 13.5395 10.6004 13.551L10.5419 13.5673L10.4828 13.5812C10.3244 13.6168 10.1626 13.6355 10.0002 13.6369C9.83762 13.6382 9.67541 13.6213 9.51658 13.5866C9.43743 13.5689 9.35951 13.5461 9.2833 13.5183C9.20716 13.4899 9.13309 13.4586 9.06231 13.4151C9.05699 13.4118 9.05302 13.4067 9.05109 13.4008C9.04916 13.3949 9.04941 13.3885 9.05178 13.3827C9.05416 13.3769 9.05851 13.3722 9.06406 13.3693C9.06961 13.3665 9.07599 13.3657 9.08206 13.3671L9.08355 13.3675Z" fill="#371A45"/>
<path d="M12.8376 12.2659C12.6313 12.5351 12.3947 12.6219 12.1674 12.5897C11.6882 12.5214 11.2502 11.9226 11.2244 11.3832C10.9871 11.434 10.6098 11.4295 10.4459 11.252C10.2207 11.0078 10.4166 10.6749 10.4166 10.6749C10.4166 10.6749 9.97754 10.7025 9.97754 10.3879C9.97754 10.2151 10.6426 9.97325 11.2526 10.0182C11.3955 10.0286 11.6486 10.0823 11.8401 10.2082C11.8106 9.94683 11.7443 9.69443 11.6841 9.4823C11.6841 9.4823 11.6282 9.4868 11.5386 9.49211C11.1741 9.51299 10.2528 9.54098 10.2931 9.28758C10.3433 8.97204 11.6109 8.61816 11.6109 8.61816C11.6182 8.62757 11.6256 8.63693 11.6329 8.64633C11.7511 8.79843 11.8688 8.96264 11.983 9.13472C12.7163 10.2393 13.2976 11.6659 12.8376 12.2659Z" fill="white"/>
<path d="M11.6313 8.60184C11.8338 8.78634 11.9963 9.00554 12.145 9.23184C12.2946 9.45833 12.4231 9.69782 12.5459 9.93978C12.6066 10.0612 12.6646 10.184 12.72 10.3082C12.774 10.4329 12.8257 10.5589 12.8718 10.6874C12.9178 10.8158 12.9587 10.9464 12.9933 11.0794C13.0266 11.2126 13.0532 11.3483 13.0677 11.4867C13.0822 11.6252 13.0844 11.7668 13.0619 11.9089C13.0394 12.0501 12.9899 12.1939 12.8983 12.3144C12.8117 12.4269 12.703 12.5296 12.5691 12.5979C12.4332 12.6668 12.2784 12.689 12.1286 12.6611C12.0556 12.6479 11.9848 12.6248 11.9182 12.5924L11.8932 12.5809L11.8693 12.5677C11.8535 12.5587 11.8375 12.5501 11.8219 12.5407C11.792 12.5206 11.7608 12.5019 11.7329 12.4794C11.6177 12.3933 11.5203 12.2882 11.4376 12.1739C11.3547 12.0594 11.2872 11.9344 11.2369 11.8023C11.1854 11.6691 11.1548 11.5287 11.1462 11.3861L11.2407 11.4588C11.1162 11.4845 10.9889 11.4936 10.8621 11.4858C10.7976 11.4818 10.7335 11.4721 10.6707 11.4569C10.6071 11.4412 10.543 11.4179 10.4828 11.3806C10.452 11.3618 10.4234 11.3394 10.3977 11.3139C10.391 11.3079 10.3849 11.3012 10.3795 11.294L10.3628 11.2733L10.3463 11.2525C10.341 11.2454 10.3369 11.2373 10.3321 11.2298C10.3234 11.2141 10.3129 11.1994 10.306 11.1828L10.2854 11.133L10.2714 11.0813C10.2672 11.064 10.2658 11.0464 10.263 11.0289C10.2562 10.9604 10.2609 10.8912 10.277 10.8243C10.2846 10.7918 10.2943 10.7598 10.306 10.7285C10.3121 10.7131 10.3181 10.6976 10.3252 10.6824C10.3324 10.6672 10.339 10.653 10.3491 10.635L10.4214 10.7527C10.4034 10.7536 10.3899 10.7535 10.3743 10.7533C10.3588 10.7531 10.3445 10.7523 10.3296 10.7512C10.2997 10.7491 10.2698 10.7453 10.2403 10.7397C10.1809 10.7284 10.1202 10.7102 10.0623 10.6758C10.0324 10.6582 10.0052 10.6362 9.98163 10.6106C9.9571 10.5837 9.93747 10.5527 9.92362 10.5191C9.91079 10.4862 9.90299 10.4516 9.90049 10.4164L9.89941 10.3911V10.3879L9.89973 10.3829L9.90067 10.3723C9.90136 10.3654 9.90244 10.3586 9.90391 10.3518C9.90713 10.34 9.91137 10.3285 9.9166 10.3174C9.92133 10.3077 9.92677 10.2984 9.93289 10.2896C9.95607 10.2563 9.9814 10.2344 10.0066 10.2149C10.0309 10.1962 10.0565 10.1792 10.0831 10.1641C10.1337 10.1357 10.1861 10.1109 10.2402 10.0899C10.346 10.0481 10.4541 10.0179 10.5633 9.99342C10.7817 9.94613 11.0056 9.92529 11.2305 9.93825C11.346 9.94437 11.4582 9.96741 11.5673 9.99995C11.6764 10.0332 11.7844 10.0755 11.8855 10.1388L11.7576 10.2173C11.7497 10.1577 11.7405 10.0981 11.731 10.0385L11.7016 9.85874C11.6917 9.79857 11.6821 9.73805 11.6746 9.67658C11.666 9.61447 11.6607 9.55195 11.6587 9.48929C11.6586 9.48336 11.6605 9.47757 11.664 9.47281C11.6676 9.46806 11.6726 9.4646 11.6783 9.46298C11.684 9.46135 11.6901 9.46165 11.6956 9.46383C11.7011 9.46601 11.7058 9.46994 11.7088 9.47502C11.7405 9.52989 11.768 9.58705 11.7911 9.64602C11.8147 9.70447 11.8351 9.76421 11.8521 9.82494C11.8688 9.88578 11.8836 9.94734 11.8954 10.0097C11.9072 10.072 11.9161 10.135 11.9221 10.1987L11.9224 10.2016C11.9239 10.2172 11.9209 10.2328 11.9138 10.2467C11.9067 10.2606 11.8958 10.2722 11.8823 10.2802C11.8689 10.2881 11.8535 10.292 11.8379 10.2915C11.8222 10.291 11.8071 10.286 11.7942 10.2772C11.7136 10.2219 11.6198 10.1794 11.5218 10.1496C11.4239 10.1197 11.3219 10.0995 11.2209 10.0944C11.0131 10.0823 10.8014 10.1017 10.5966 10.1462C10.4944 10.169 10.3932 10.1974 10.2975 10.2353C10.2505 10.2536 10.2048 10.2751 10.1608 10.2996C10.1405 10.3112 10.1209 10.3242 10.1023 10.3384C10.0847 10.3519 10.0692 10.3666 10.0618 10.3781C10.059 10.3812 10.0593 10.383 10.0573 10.3853C10.0553 10.3876 10.057 10.3878 10.0557 10.3888C10.0557 10.3888 10.0563 10.3885 10.0561 10.3883C10.0562 10.3882 10.0562 10.388 10.0561 10.3879C10.0561 10.3879 10.0561 10.3876 10.0561 10.3879V10.3898L10.0569 10.405C10.0582 10.424 10.0622 10.4426 10.0689 10.4603C10.0826 10.4933 10.1072 10.5204 10.1429 10.5416C10.2135 10.5841 10.3205 10.5994 10.4119 10.5966C10.433 10.5959 10.4535 10.6036 10.4689 10.6181C10.4843 10.6325 10.4933 10.6525 10.494 10.6736C10.4943 10.6877 10.491 10.7016 10.4842 10.7141C10.4797 10.7222 10.473 10.7353 10.4679 10.7469C10.4629 10.7585 10.4576 10.7713 10.4527 10.7836C10.4434 10.8084 10.4357 10.8338 10.4297 10.8596C10.4176 10.9092 10.414 10.9606 10.4188 11.0114C10.421 11.0234 10.4216 11.0359 10.4246 11.0474L10.4339 11.0824L10.4478 11.1155C10.4523 11.1267 10.4598 11.1363 10.4654 11.147C10.4682 11.1523 10.4714 11.1575 10.4747 11.1624L10.4863 11.1767L10.4977 11.191L10.5034 11.1982L10.5097 11.2041C10.5265 11.2208 10.5451 11.2355 10.5652 11.2479C10.6069 11.2739 10.6566 11.2929 10.7092 11.3054C10.7629 11.3183 10.8175 11.3265 10.8725 11.3301C10.985 11.3368 11.0978 11.3288 11.2082 11.3063C11.2286 11.302 11.2499 11.3061 11.2673 11.3175C11.2848 11.3289 11.2969 11.3467 11.3012 11.3671C11.302 11.3708 11.3025 11.3745 11.3027 11.3783V11.379C11.317 11.6285 11.4162 11.8764 11.5647 12.0827C11.6393 12.1859 11.7267 12.2799 11.8272 12.3547C11.8516 12.3746 11.8783 12.3902 11.904 12.4077L11.9443 12.4304L11.9645 12.4417L11.9853 12.4513C12.0396 12.4777 12.0972 12.4966 12.1567 12.5074C12.2732 12.5295 12.3937 12.5122 12.4993 12.4583C12.6053 12.4041 12.698 12.3191 12.7746 12.2191C12.8461 12.1246 12.8882 12.0076 12.9078 11.8842C12.9273 11.7608 12.9258 11.6314 12.9123 11.5028C12.8988 11.3742 12.8736 11.2454 12.8418 11.118C12.8089 10.9908 12.769 10.8648 12.7248 10.7402C12.6342 10.4907 12.5273 10.2473 12.4049 10.0117C12.3437 9.89366 12.2792 9.77732 12.2114 9.66272C12.1445 9.5477 12.0746 9.43448 12.0051 9.32099C11.9357 9.2075 11.8627 9.09599 11.7936 8.98182C11.7237 8.86811 11.6538 8.75421 11.5904 8.63384V8.63352C11.5875 8.62802 11.5866 8.62166 11.5879 8.61558C11.5892 8.60949 11.5927 8.60406 11.5976 8.60025C11.6025 8.59644 11.6086 8.59449 11.6149 8.59475C11.6211 8.59501 11.627 8.59746 11.6316 8.60166L11.6313 8.60184Z" fill="#371A45"/>
<path d="M12.4148 10.9372C12.3763 10.87 12.3345 10.8047 12.2894 10.7417C12.2444 10.6787 12.1964 10.6175 12.1458 10.5597C12.0954 10.5027 12.0413 10.4492 11.9838 10.3993C11.9276 10.352 11.8666 10.3108 11.8018 10.2762L11.8001 10.2753C11.7908 10.2706 11.7825 10.2641 11.7757 10.2562C11.7689 10.2484 11.7638 10.2392 11.7606 10.2293C11.7574 10.2194 11.7562 10.209 11.7571 10.1986C11.758 10.1882 11.7609 10.1782 11.7658 10.169C11.7706 10.1597 11.7772 10.1516 11.7852 10.1449C11.7932 10.1383 11.8025 10.1333 11.8124 10.1303C11.8224 10.1273 11.8328 10.1263 11.8431 10.1274C11.8535 10.1284 11.8635 10.1315 11.8726 10.1365C11.8745 10.1375 11.8764 10.1386 11.8781 10.1397C11.9497 10.1855 12.0162 10.2388 12.0766 10.2987C12.1342 10.3575 12.1878 10.42 12.2371 10.4859C12.2856 10.5514 12.3303 10.6189 12.3715 10.6884C12.413 10.7578 12.4509 10.8293 12.4851 10.9026C12.4895 10.9118 12.4901 10.9223 12.4869 10.932C12.4837 10.9416 12.4768 10.9496 12.4677 10.9543C12.4587 10.9589 12.4482 10.9599 12.4385 10.9569C12.4288 10.9539 12.4206 10.9473 12.4157 10.9384L12.4148 10.9372Z" fill="#371A45"/>
<path d="M9.53875 10.6748C9.53875 10.6748 9.73463 11.0078 9.50941 11.252C9.34579 11.4295 8.96846 11.434 8.73091 11.3831C8.70548 11.9167 8.27641 12.5087 7.80301 12.5873C7.57117 12.6258 7.32875 12.5411 7.11779 12.2659C6.65542 11.6629 7.24505 10.2246 7.98346 9.11766C8.10118 8.94113 8.22259 8.77319 8.34418 8.61816L8.34458 8.61839L9.35924 9.18728L8.3831 9.45201L8.27105 9.4823C8.21066 9.69443 8.14438 9.94683 8.11504 10.2082C8.30647 10.0822 8.55964 10.0286 8.70256 10.0182C9.31253 9.9732 9.97745 10.2151 9.97745 10.3879C9.97768 10.7024 9.53875 10.6748 9.53875 10.6748Z" fill="white"/>
<g opacity="0.3">
<path opacity="0.3" d="M9.53871 10.675C9.53871 10.675 9.73459 11.008 9.50937 11.2521C9.34575 11.4297 8.96842 11.4342 8.73087 11.3833C8.70544 11.9169 8.27637 12.5088 7.80297 12.5875C7.57113 12.626 7.32871 12.5413 7.11775 12.266C6.97209 12.076 6.93082 11.8029 6.96583 11.4836C6.98635 11.6377 7.03522 11.7716 7.11775 11.8791C7.32871 12.1544 7.57113 12.2391 7.80297 12.2006C8.27632 12.1219 8.53593 11.5656 8.56135 11.032C8.79868 11.0828 9.16723 11.213 9.33085 11.0355C9.55585 10.7913 9.20319 10.4834 9.20319 10.4834C9.20319 10.4834 9.71052 10.5783 9.95919 10.4895C9.87594 10.6961 9.53871 10.675 9.53871 10.675Z" fill="#371A45"/>
</g>
<g opacity="0.3">
<path opacity="0.3" d="M10.4069 10.675C10.4069 10.675 10.2109 11.008 10.4361 11.2521C10.5998 11.4297 10.9771 11.4342 11.2146 11.3833C11.2401 11.9169 11.6691 12.5088 12.1425 12.5875C12.3744 12.626 12.6168 12.5413 12.8278 12.266C12.9734 12.076 13.0146 11.8029 12.9797 11.4836C12.9592 11.6377 12.9102 11.7716 12.8278 11.8791C12.6168 12.1544 12.3744 12.2391 12.1425 12.2006C11.6692 12.1219 11.4096 11.5656 11.3842 11.032C11.1468 11.0828 10.7783 11.213 10.6147 11.0355C10.3897 10.7913 10.7423 10.4834 10.7423 10.4834C10.7423 10.4834 10.235 10.5783 9.98633 10.4895C10.0696 10.6961 10.4069 10.675 10.4069 10.675Z" fill="#371A45"/>
</g>
<path d="M8.36507 8.63424C8.30167 8.75462 8.23183 8.86851 8.16185 8.98223C8.09287 9.09657 8.01934 9.20723 7.95035 9.32139C7.88137 9.43556 7.81085 9.5481 7.74407 9.66312C7.67609 9.77751 7.61159 9.89385 7.55057 10.0121C7.42817 10.2477 7.32133 10.4911 7.23071 10.7406C7.18652 10.8653 7.14661 10.9912 7.11371 11.1184C7.08185 11.2458 7.0567 11.3744 7.04324 11.5032C7.02979 11.632 7.0283 11.7611 7.04774 11.8846C7.06718 12.0081 7.10935 12.125 7.18085 12.2195C7.25735 12.3195 7.35023 12.4045 7.45616 12.4587C7.56178 12.5126 7.68232 12.5299 7.79884 12.5078C7.85826 12.4971 7.91591 12.4782 7.9702 12.4517L7.99103 12.4421L8.01119 12.4308L8.05169 12.4081C8.07739 12.3906 8.10416 12.375 8.12855 12.3551C8.22881 12.2803 8.31643 12.1863 8.39104 12.0831C8.53954 11.8768 8.63854 11.6289 8.65298 11.3794V11.3791C8.65357 11.3688 8.65618 11.3587 8.66066 11.3494C8.66515 11.3401 8.67142 11.3318 8.67913 11.325C8.68683 11.3181 8.69581 11.3128 8.70555 11.3094C8.7153 11.306 8.72561 11.3046 8.73592 11.3052C8.7398 11.3054 8.74367 11.3059 8.74748 11.3067C8.85786 11.3292 8.97072 11.3372 9.08318 11.3305C9.13822 11.3269 9.19285 11.3187 9.24649 11.3058C9.29896 11.2931 9.34868 11.2743 9.39049 11.2483C9.41061 11.2359 9.42924 11.2212 9.44602 11.2045L9.45236 11.1986L9.45799 11.1914L9.46937 11.1771L9.48098 11.1628C9.48467 11.158 9.4871 11.1525 9.49034 11.1474C9.49592 11.1368 9.50362 11.1273 9.50789 11.1159L9.5218 11.0828L9.53111 11.0478C9.53408 11.0361 9.53476 11.0237 9.53687 11.0118C9.54176 10.961 9.53809 10.9096 9.52603 10.86C9.52002 10.8342 9.51234 10.8088 9.50303 10.784C9.49813 10.7717 9.49336 10.7592 9.48773 10.7473C9.48211 10.7354 9.4759 10.7226 9.47149 10.7145C9.46646 10.7053 9.46328 10.6952 9.46215 10.6849C9.46101 10.6745 9.46193 10.664 9.46485 10.6539C9.46778 10.6439 9.47265 10.6345 9.4792 10.6264C9.48574 10.6183 9.49382 10.6115 9.50299 10.6065C9.51548 10.5997 9.52955 10.5963 9.54376 10.5967C9.63515 10.5995 9.74216 10.5842 9.81277 10.5417C9.84841 10.5204 9.87307 10.4933 9.88675 10.4605C9.89345 10.4427 9.89751 10.4241 9.89881 10.4052L9.89953 10.3899V10.388C9.89953 10.3878 9.8993 10.388 9.8993 10.388C9.89926 10.3882 9.89926 10.3883 9.8993 10.3884C9.8993 10.3884 9.8998 10.3892 9.89971 10.3889C9.89845 10.3879 9.89971 10.3877 9.89813 10.3854C9.89656 10.3832 9.8966 10.3814 9.89363 10.3782C9.88612 10.3667 9.87064 10.3518 9.85313 10.3385C9.83453 10.3243 9.81498 10.3114 9.79463 10.2998C9.75061 10.2752 9.70493 10.2537 9.65792 10.2355C9.5623 10.1975 9.46109 10.1691 9.3589 10.1463C9.15401 10.1018 8.94233 10.0824 8.73452 10.0945C8.6335 10.0996 8.53202 10.1204 8.43361 10.1497C8.33519 10.179 8.24186 10.2221 8.16122 10.2773C8.14834 10.2862 8.13322 10.2911 8.11761 10.2917C8.10201 10.2922 8.08657 10.2883 8.07312 10.2804C8.05966 10.2724 8.04874 10.2609 8.04164 10.247C8.03454 10.233 8.03155 10.2174 8.03302 10.2019L8.03329 10.1988C8.03929 10.1353 8.04829 10.0723 8.06029 10.0098C8.07208 9.94748 8.08684 9.88592 8.10362 9.82508C8.12058 9.76434 8.14093 9.70461 8.1646 9.64616C8.18771 9.58719 8.21519 9.53003 8.24681 9.47516C8.24986 9.47005 8.25451 9.4661 8.26003 9.46391C8.26556 9.46171 8.27165 9.46141 8.27737 9.46303C8.28309 9.46466 8.28811 9.46813 8.29166 9.4729C8.2952 9.47767 8.29708 9.48348 8.29699 9.48942C8.29495 9.55208 8.28964 9.6146 8.2811 9.67671C8.27372 9.73818 8.26409 9.79871 8.2541 9.85887L8.22463 10.0386C8.21513 10.0983 8.206 10.1579 8.19812 10.2174L8.06987 10.1389C8.1709 10.0756 8.27894 10.0334 8.38798 10.0001C8.49715 9.96755 8.60938 9.94451 8.72489 9.93839C8.94989 9.92543 9.17368 9.94626 9.39211 9.99356C9.50123 10.0179 9.60932 10.0482 9.71521 10.0901C9.76923 10.1111 9.8217 10.1358 9.87226 10.1642C9.89889 10.1794 9.92445 10.1963 9.94876 10.215C9.97391 10.2346 9.99929 10.2564 10.0225 10.2897C10.0286 10.2986 10.034 10.3079 10.0388 10.3175C10.044 10.3286 10.0482 10.3401 10.0514 10.3519C10.0529 10.3587 10.054 10.3656 10.0546 10.3725L10.0556 10.383L10.0559 10.3881V10.3913L10.0549 10.4166C10.0524 10.4518 10.0446 10.4864 10.0317 10.5192C10.0179 10.5529 9.99826 10.5838 9.97373 10.6107C9.95017 10.6363 9.92297 10.6583 9.893 10.676C9.83518 10.7104 9.77447 10.7285 9.71503 10.7399C9.68551 10.7454 9.6557 10.7492 9.62575 10.7513C9.61085 10.7524 9.596 10.7531 9.58102 10.7534C9.56603 10.7538 9.55213 10.7537 9.53395 10.7528L9.60626 10.6351C9.61639 10.6531 9.62305 10.6666 9.63011 10.6826C9.63718 10.6985 9.64325 10.7132 9.64933 10.7287C9.66106 10.7599 9.67075 10.7919 9.67835 10.8244C9.69446 10.8914 9.69919 10.9605 9.69235 11.0291C9.6896 11.0465 9.68812 11.0641 9.68393 11.0814L9.66994 11.1331L9.64928 11.1829C9.64244 11.1995 9.63196 11.2144 9.62323 11.2299C9.61873 11.2374 9.61423 11.2455 9.60905 11.2526L9.59254 11.2734L9.57589 11.2941C9.57045 11.3014 9.56433 11.308 9.55762 11.3141C9.53203 11.3397 9.50354 11.3623 9.4727 11.3813C9.41249 11.4186 9.34846 11.4418 9.28483 11.4575C9.22201 11.4727 9.15799 11.4824 9.09349 11.4865C8.96664 11.4943 8.83932 11.4852 8.71486 11.4595L8.80936 11.3868C8.80077 11.5294 8.77016 11.6698 8.71864 11.803C8.66828 11.9351 8.60082 12.06 8.51798 12.1746C8.43523 12.2889 8.33798 12.3939 8.22265 12.4801C8.1947 12.5026 8.16356 12.5213 8.13359 12.5414C8.11802 12.5506 8.10209 12.5594 8.08621 12.5684L8.06231 12.5816L8.03738 12.5931C7.9707 12.6255 7.8999 12.6486 7.82696 12.6618C7.67715 12.6897 7.52231 12.6675 7.38641 12.5986C7.25258 12.5301 7.14386 12.4276 7.05724 12.3151C6.96575 12.1946 6.91603 12.0507 6.89366 11.9096C6.87116 11.7675 6.87364 11.6258 6.88781 11.4874C6.90199 11.3491 6.92894 11.2133 6.96229 11.08C6.99662 10.9471 7.03802 10.8167 7.08379 10.688C7.12955 10.5594 7.18148 10.4336 7.23557 10.3088C7.29107 10.1847 7.34911 10.0619 7.40968 9.94046C7.53239 9.69849 7.66096 9.45896 7.81049 9.23252C7.95899 9.00599 8.12158 8.78657 8.32421 8.60252C8.32881 8.59836 8.33473 8.59596 8.34092 8.59572C8.34711 8.59549 8.3532 8.59743 8.3581 8.60122C8.36301 8.605 8.36643 8.61039 8.36777 8.61645C8.36911 8.6225 8.36828 8.62883 8.36543 8.63433L8.36507 8.63424Z" fill="#371A45"/>
<path d="M7.46942 10.9028C7.50362 10.8295 7.54156 10.7579 7.58309 10.6885C7.62437 10.6192 7.66914 10.5517 7.71741 10.486C7.76676 10.4202 7.82039 10.3576 7.87797 10.2988C7.93831 10.239 8.00484 10.1857 8.07642 10.1398C8.08512 10.1341 8.09487 10.1302 8.1051 10.1283C8.11533 10.1264 8.12584 10.1265 8.13602 10.1287C8.14619 10.1309 8.15582 10.1351 8.16435 10.1411C8.17287 10.1471 8.18013 10.1547 8.18568 10.1635C8.19123 10.1723 8.19497 10.1821 8.19668 10.1924C8.19839 10.2026 8.19804 10.2132 8.19565 10.2233C8.19325 10.2334 8.18886 10.243 8.18273 10.2514C8.1766 10.2598 8.16885 10.2669 8.15994 10.2723C8.15823 10.2734 8.15643 10.2744 8.15463 10.2754L8.15279 10.2763C8.088 10.3109 8.02698 10.3522 7.97072 10.3994C7.91328 10.4493 7.85917 10.5029 7.80872 10.5598C7.75814 10.6177 7.71026 10.6786 7.66517 10.7418C7.62008 10.8049 7.57822 10.8701 7.53975 10.9374L7.53912 10.9385C7.5342 10.9474 7.52602 10.954 7.51631 10.9569C7.50661 10.9599 7.49613 10.959 7.4871 10.9543C7.47806 10.9497 7.47118 10.9417 7.46791 10.9321C7.46464 10.9225 7.46523 10.912 7.46955 10.9029L7.46942 10.9028Z" fill="#371A45"/>
<path d="M12.853 7.3322C12.8451 7.33253 12.8373 7.33129 12.8299 7.32856C12.8224 7.32582 12.8157 7.32165 12.8099 7.31628C12.8041 7.3109 12.7995 7.30443 12.7962 7.29725C12.7929 7.29006 12.7911 7.2823 12.7909 7.27442L12.7013 5.5101C12.7002 5.49413 12.7055 5.47837 12.716 5.46626C12.7264 5.45414 12.7412 5.44665 12.7572 5.44539C13.0992 5.42523 13.3908 5.69663 13.4088 6.05154L13.4394 6.65315C13.4573 7.00806 13.1947 7.31208 12.853 7.3322Z" fill="white"/>
<path d="M12.8499 7.34674C12.8323 7.34674 12.8153 7.34018 12.8022 7.32833C12.7947 7.32163 12.7886 7.31351 12.7844 7.30444C12.7801 7.29537 12.7776 7.28553 12.7772 7.2755L12.6876 5.51119C12.6864 5.49152 12.693 5.47216 12.7059 5.45729C12.7188 5.44241 12.7371 5.43323 12.7567 5.43172C12.8383 5.42693 12.92 5.43845 12.9971 5.4656C13.0741 5.49276 13.145 5.53499 13.2056 5.58985C13.3368 5.70743 13.4141 5.87128 13.4232 6.05119L13.4538 6.65279C13.4722 7.01482 13.2032 7.32604 12.8541 7.3466C12.8528 7.34669 12.8513 7.34674 12.8499 7.34674ZM12.7932 5.45876C12.7817 5.45876 12.77 5.45908 12.7584 5.4598C12.7461 5.46084 12.7348 5.46667 12.7268 5.47602C12.7188 5.48537 12.7148 5.49748 12.7157 5.50975L12.8053 7.27411C12.8055 7.28042 12.8071 7.28662 12.8097 7.29234C12.8124 7.29806 12.8162 7.30318 12.8209 7.30741C12.8252 7.3113 12.8301 7.31429 12.8355 7.31621C12.841 7.31813 12.8467 7.31893 12.8524 7.31857C13.1861 7.2989 13.4432 7.00091 13.4256 6.65423L13.3951 6.05258C13.3861 5.88023 13.3123 5.72332 13.1867 5.61077C13.0789 5.5131 12.9387 5.45893 12.7932 5.45876Z" fill="#371A45"/>
<g opacity="0.35">
<path opacity="0.35" d="M13.4248 6.37109L13.4392 6.65329C13.4572 7.00802 13.1946 7.31213 12.8527 7.33238C12.8202 7.33436 12.7923 7.30831 12.7906 7.27447L12.7666 6.80548C12.7716 6.81585 12.7795 6.82453 12.7894 6.83043C12.7992 6.83633 12.8106 6.83919 12.8221 6.83864L12.8626 6.83617C13.1326 6.82033 13.3534 6.62696 13.4248 6.37109Z" fill="#371A45"/>
</g>
<path d="M12.8495 7.41061C12.8161 7.41061 12.7839 7.39822 12.759 7.37583C12.7453 7.36349 12.7341 7.34853 12.7261 7.33182C12.7182 7.3151 12.7136 7.29698 12.7128 7.27849L12.6232 5.51413C12.6193 5.43763 12.6772 5.37184 12.7526 5.36739C12.8426 5.36208 12.9328 5.37477 13.0179 5.40471C13.103 5.43465 13.1812 5.48124 13.2481 5.54176C13.3921 5.67087 13.477 5.85051 13.487 6.04761L13.5175 6.64926C13.5377 7.04629 13.2417 7.38775 12.8576 7.41034C12.8549 7.41052 12.8522 7.41061 12.8495 7.41061ZM12.7802 5.52264L12.8681 7.25257C13.1571 7.22463 13.3766 6.96178 13.3613 6.65704L13.3308 6.05544C13.3229 5.90028 13.2564 5.75916 13.1437 5.65813C13.0444 5.56805 12.9143 5.51954 12.7802 5.52264Z" fill="#371A45"/>
<path d="M7.14683 5.77544C7.15472 5.77511 7.16259 5.77635 7.16999 5.77908C7.17739 5.78181 7.18418 5.78599 7.18995 5.79136C7.19573 5.79674 7.20038 5.80321 7.20364 5.81039C7.2069 5.81758 7.2087 5.82534 7.20894 5.83322L7.29853 7.59754C7.29961 7.61352 7.29434 7.62928 7.28387 7.64139C7.27339 7.65351 7.25856 7.661 7.2426 7.66225C6.9006 7.68241 6.60899 7.41101 6.59095 7.05614L6.56044 6.45449C6.54248 6.09958 6.80483 5.79556 7.14683 5.77544Z" fill="white"/>
<path d="M7.20725 7.67779C7.05486 7.67765 6.90794 7.62092 6.79501 7.51858C6.66374 7.401 6.58648 7.23715 6.57734 7.05724L6.54679 6.45564C6.52838 6.09361 6.79739 5.78239 7.14637 5.76183C7.15582 5.76131 7.16528 5.76266 7.1742 5.7658C7.18313 5.76895 7.19135 5.77382 7.19839 5.78014C7.20585 5.78684 7.21191 5.79495 7.2162 5.80402C7.22048 5.81308 7.22292 5.82291 7.22336 5.83293L7.31291 7.59724C7.31503 7.63869 7.28402 7.67437 7.24384 7.67671C7.2316 7.67743 7.2194 7.67779 7.20725 7.67779ZM7.14803 5.78991C6.81436 5.80953 6.55723 6.10752 6.57482 6.4542L6.60538 7.05585C6.61438 7.2282 6.68813 7.38511 6.81373 7.49766C6.93275 7.60431 7.08481 7.65799 7.24217 7.64863C7.25443 7.64759 7.26578 7.64176 7.27377 7.63241C7.28176 7.62306 7.28575 7.61095 7.28488 7.59868L7.19528 5.83437C7.19503 5.82805 7.19351 5.82185 7.19082 5.81613C7.18813 5.81041 7.18432 5.80529 7.17962 5.80107C7.17538 5.79721 7.1704 5.79424 7.165 5.79232C7.15959 5.7904 7.15385 5.78958 7.14812 5.78991H7.14803Z" fill="#371A45"/>
<g opacity="0.35">
<path opacity="0.35" d="M7.27373 7.1081L7.29853 7.59757C7.29956 7.61356 7.29426 7.62931 7.28378 7.64142C7.2733 7.65354 7.25847 7.66105 7.24251 7.66232C7.06309 7.67281 6.89726 7.6031 6.77774 7.483C6.66489 7.36872 6.59837 7.2167 6.59099 7.05626L6.57812 6.80273C6.68644 7.01945 6.91054 7.16165 7.16119 7.14694L7.2232 7.14329C7.23401 7.14252 7.24442 7.13885 7.25331 7.13265C7.26221 7.12646 7.26926 7.11798 7.27373 7.1081Z" fill="#371A45"/>
</g>
<path d="M7.20687 7.74159C7.0387 7.74152 6.87654 7.67897 6.75188 7.56609C6.60788 7.43698 6.52296 7.25734 6.51297 7.06024L6.48242 6.45859C6.46226 6.06156 6.75831 5.7201 7.1423 5.69751C7.1602 5.69643 7.17814 5.69893 7.19507 5.70487C7.212 5.7108 7.22758 5.72005 7.24089 5.73207C7.25469 5.7444 7.26588 5.75936 7.27382 5.77607C7.28176 5.79279 7.28627 5.81092 7.28711 5.8294L7.3767 7.59372C7.38057 7.67022 7.3227 7.73605 7.24728 7.74046C7.23378 7.74123 7.22028 7.74159 7.20687 7.74159ZM7.13186 5.85532C6.84287 5.88322 6.62313 6.14607 6.63861 6.45076L6.66917 7.05241C6.67704 7.20757 6.74351 7.3487 6.85628 7.44972C6.95557 7.53977 7.08564 7.58827 7.21965 7.58521L7.13186 5.85532Z" fill="#371A45"/>
<g opacity="0.3">
<path opacity="0.3" d="M11.9829 9.13419C11.9217 9.19419 11.858 9.25128 11.7919 9.30546C11.7108 9.37203 11.6263 9.43416 11.5385 9.49158C11.0779 9.79308 10.531 9.9643 9.94706 9.95571C9.3676 9.94671 8.83075 9.76221 8.38304 9.45171C8.31325 9.4032 8.24539 9.35158 8.18009 9.29704C8.11187 9.24004 8.04631 9.18016 7.9834 9.1174C8.10112 8.94087 8.22253 8.77293 8.34412 8.6179L8.34452 8.61813C8.43718 8.26713 8.50423 8.06152 8.50423 8.06152H11.4655C11.4655 8.06152 11.5361 8.27815 11.6327 8.64607C11.751 8.7979 11.8687 8.96211 11.9829 9.13419Z" fill="#371A45"/>
</g>
<path d="M12.8963 6.70838C12.9848 5.04741 11.76 3.63185 10.1607 3.54663C8.56135 3.46141 7.19308 4.73881 7.10458 6.39978C7.01608 8.06075 8.24086 9.47631 9.84021 9.56153C11.4396 9.64674 12.8078 8.36935 12.8963 6.70838Z" fill="white"/>
<path d="M9.9893 9.5792C9.97513 9.5792 9.96113 9.5792 9.94691 9.57888C9.18916 9.56763 8.47667 9.2565 7.94068 8.70278C7.37516 8.11859 7.07182 7.33995 7.08644 6.51038C7.11587 4.84236 8.44634 3.50496 10.0537 3.52863C10.8115 3.53988 11.5239 3.85101 12.0599 4.40473C12.6254 4.98897 12.9288 5.76756 12.9141 6.59713L12.9001 6.59687L12.9141 6.59713C12.885 8.25039 11.5769 9.5792 9.9893 9.5792ZM10.0113 3.55639C8.43892 3.55639 7.14346 4.87283 7.11457 6.51092C7.10003 7.33293 7.40059 8.10446 7.96088 8.68325C8.49161 9.23153 9.19708 9.53964 9.94736 9.5508C9.96131 9.5508 9.97535 9.55112 9.9893 9.55112C11.5617 9.55112 12.8571 8.23473 12.886 6.59664C12.9006 5.77458 12.6 5.0031 12.0397 4.42426C11.5087 3.87598 10.8035 3.56787 10.0532 3.55671C10.0393 3.55653 10.0253 3.55639 10.0113 3.55639Z" fill="#371A45"/>
<g opacity="0.35">
<path opacity="0.35" d="M12.8794 6.17969C12.8956 6.31816 12.9024 6.45758 12.8998 6.59697C12.8703 8.2599 11.5483 9.58866 9.9468 9.56499C8.34534 9.54132 7.0709 8.17364 7.1001 6.51071C7.10091 6.46287 7.1028 6.41504 7.10586 6.36797C7.27547 7.83663 8.46675 8.98314 9.93209 9.00497C11.4875 9.02792 12.7791 7.77534 12.8794 6.17969Z" fill="#371A45"/>
</g>
<path d="M9.98899 9.64393C9.9745 9.64393 9.96019 9.64393 9.94565 9.64361C9.17071 9.63209 8.4422 9.31399 7.89428 8.74811C7.31684 8.15155 7.00702 7.35671 7.022 6.50995C7.05179 4.82173 8.38856 3.46484 10.011 3.46484C10.0255 3.46484 10.0398 3.46484 10.0543 3.46516C10.8292 3.47668 11.5578 3.79478 12.1057 4.36066C12.6831 4.95722 12.9929 5.75206 12.978 6.59882C12.9481 8.28704 11.6114 9.64393 9.98899 9.64393ZM10.011 3.62113C8.47343 3.62113 7.20668 4.90948 7.17838 6.5126C7.16416 7.31747 7.45832 8.07271 8.00665 8.63917C8.52545 9.17516 9.2149 9.47617 9.94799 9.48724C9.96149 9.48724 9.97535 9.48751 9.98894 9.48751C11.5265 9.48751 12.7933 8.19916 12.8216 6.59603C12.8358 5.79116 12.5417 5.03593 11.9933 4.46947C11.4745 3.93352 10.7851 3.63247 10.052 3.6214C10.0383 3.62122 10.0246 3.62113 10.011 3.62113Z" fill="#371A45"/>
<path d="M12.8894 6.67422C12.8875 7.26372 12.7016 7.81074 12.3851 8.26366C12.1479 8.60319 11.175 9.19791 9.97591 9.2101C8.86409 9.22149 7.85443 8.6067 7.61939 8.26749C7.29526 7.80139 7.12263 7.24672 7.12502 6.67899C7.12988 5.11956 8.42224 4.47201 10.014 4.47071C11.6058 4.4694 12.8943 5.11479 12.8894 6.67422Z" fill="#371A45"/>
<g opacity="0.5">
<path opacity="0.5" d="M12.3202 6.54739C12.369 6.25729 12.2443 5.99447 12.0417 5.96038C11.8391 5.92629 11.6352 6.13383 11.5864 6.42394C11.5376 6.71404 11.6623 6.97686 11.865 7.01095C12.0676 7.04504 12.2714 6.8375 12.3202 6.54739Z" fill="white"/>
</g>
<g opacity="0.5">
<path opacity="0.5" d="M11.6175 7.6161C11.6525 7.48667 11.5939 7.35816 11.4865 7.32907C11.3791 7.29998 11.2636 7.38132 11.2285 7.51076C11.1935 7.64019 11.2521 7.7687 11.3595 7.79779C11.4669 7.82688 11.5824 7.74554 11.6175 7.6161Z" fill="white"/>
</g>
<g opacity="0.35">
<path opacity="0.35" d="M12.333 5.21973C12.6842 5.56852 12.891 6.04773 12.889 6.67399C12.8872 7.26349 12.7011 7.8106 12.385 8.26353C12.1477 8.60305 11.1745 9.19777 9.9756 9.21006C9.55224 9.21456 9.14378 9.12798 8.78711 9.00031C10.2609 8.95257 11.446 8.22267 11.7402 7.80151C12.1419 7.22668 12.3779 6.53206 12.3801 5.7843C12.3813 5.59507 12.3656 5.40613 12.333 5.21973Z" fill="#111A28"/>
</g>
<path d="M7.34661 5.44936C7.3323 5.44935 7.31827 5.4454 7.30605 5.43796C7.29382 5.43052 7.28388 5.41986 7.2773 5.40715C7.27072 5.39445 7.26776 5.38017 7.26874 5.3659C7.26972 5.35162 7.2746 5.33788 7.28285 5.32619C7.79472 4.54891 8.78463 4.10255 9.99918 4.10156H10.0032C11.2073 4.10156 12.1926 4.53127 12.7077 5.28119C12.7197 5.29657 12.7255 5.31589 12.724 5.33534C12.7225 5.3548 12.7138 5.37298 12.6996 5.38634C12.6853 5.39969 12.6666 5.40724 12.6471 5.40751C12.6276 5.40778 12.6087 5.40075 12.5941 5.3878L12.5869 5.38145L12.5811 5.37317C12.0963 4.66433 11.1569 4.25794 10.0032 4.25794H9.99932C8.83737 4.25893 7.89444 4.68026 7.41231 5.41399L7.40835 5.41948C7.401 5.42881 7.39162 5.43634 7.38092 5.44152C7.37023 5.4467 7.3585 5.44938 7.34661 5.44936Z" fill="#371A45"/>
<g opacity="0.5">
<path opacity="0.5" d="M7.76944 7.62843C7.76944 7.62843 7.30909 6.09046 8.10946 5.47675C8.90983 4.86304 10.0586 4.86475 10.0315 4.94125C10.0315 4.94125 8.75876 5.26197 8.25791 6.30633C7.87154 7.11165 7.76944 7.62843 7.76944 7.62843Z" fill="white"/>
</g>
<path d="M12.8509 10.9251C12.8412 10.9251 12.8316 10.9226 12.8231 10.9178C12.8147 10.9131 12.8076 10.9062 12.8026 10.8978C12.6649 10.6689 12.2723 10.6526 12.2683 10.6524C12.261 10.6522 12.2537 10.6505 12.247 10.6475C12.2402 10.6444 12.2341 10.6401 12.2291 10.6347C12.224 10.6293 12.2201 10.623 12.2175 10.616C12.2149 10.6091 12.2137 10.6018 12.2139 10.5944C12.2141 10.587 12.2157 10.5797 12.2187 10.5729C12.2217 10.5661 12.2261 10.5601 12.2315 10.555C12.2369 10.5499 12.2433 10.546 12.2502 10.5435C12.2572 10.5409 12.2645 10.5398 12.2719 10.5401C12.2905 10.5407 12.7295 10.5584 12.8988 10.84C12.9065 10.8528 12.9088 10.8681 12.9052 10.8826C12.9016 10.897 12.8924 10.9095 12.8796 10.9172C12.8709 10.9224 12.861 10.9251 12.8509 10.9251Z" fill="#371A45"/>
<path d="M7.09721 10.9252C7.08725 10.9252 7.07748 10.9225 7.06889 10.9175C7.06029 10.9125 7.05319 10.9053 7.04829 10.8966C7.04339 10.8879 7.04089 10.8781 7.04102 10.8682C7.04116 10.8582 7.04393 10.8485 7.04906 10.84C7.21835 10.5583 7.65732 10.5407 7.67591 10.5401C7.69082 10.5396 7.70533 10.545 7.71623 10.5552C7.72713 10.5654 7.73353 10.5795 7.73402 10.5945C7.73452 10.6094 7.72907 10.6239 7.71887 10.6348C7.70867 10.6457 7.69456 10.6521 7.67964 10.6526C7.67334 10.6526 7.2827 10.6698 7.14545 10.898C7.14044 10.9063 7.13336 10.9132 7.12491 10.9179C7.11645 10.9227 7.10691 10.9252 7.09721 10.9252Z" fill="#371A45"/>
</svg>
