<svg width="20" height="20" viewBox="0 0 20 20" fill="none" xmlns="http://www.w3.org/2000/svg">
<g clip-path="url(#clip0_2268_24550)">
<rect width="20" height="20" rx="2" fill="#CCEEFF"/>
<path d="M20 1H0V21H20V1Z" fill="#CCEEFF"/>
<path d="M12.1104 9.6837C12.1104 9.6837 13.4304 9.58255 13.8184 9.8513C14.5179 10.3355 14.714 12.9563 14.1708 13.8853C13.772 14.5671 11.3281 14.2153 11.3281 14.2153" fill="white"/>
<g opacity="0.35">
<path opacity="0.35" d="M14.1708 13.8854C13.7721 14.5672 11.3281 14.2154 11.3281 14.2154L11.5423 12.9746C12.0739 13.0374 13.8998 13.2072 14.2397 12.6261C14.3457 12.445 14.4236 12.1994 14.4747 11.918C14.5129 12.6835 14.419 13.4611 14.1708 13.8854Z" fill="#371A45"/>
</g>
<path d="M12.632 14.3826H12.5997C11.9412 14.3799 11.3236 14.292 11.3174 14.2911C11.2974 14.2882 11.2793 14.2775 11.2672 14.2613C11.255 14.2451 11.2498 14.2247 11.2527 14.2047C11.2556 14.1847 11.2663 14.1666 11.2825 14.1545C11.2987 14.1423 11.3191 14.1371 11.3391 14.14C12.0048 14.2358 13.7991 14.37 14.105 13.8471C14.6383 12.9353 14.4224 10.3625 13.775 9.91438C13.475 9.70668 12.476 9.73263 12.1164 9.76013C12.0962 9.76168 12.0762 9.75514 12.0609 9.74196C12.0455 9.72878 12.036 9.71004 12.0345 9.68986C12.0329 9.66967 12.0394 9.6497 12.0526 9.63434C12.0658 9.61898 12.0845 9.60948 12.1047 9.60793C12.1597 9.60378 13.4561 9.50793 13.8619 9.78883C14.2057 10.0269 14.458 10.7397 14.5369 11.6956C14.5969 12.4225 14.5494 13.3897 14.2369 13.9241C14.0588 14.2283 13.5189 14.3826 12.632 14.3826Z" fill="#371A45"/>
<path d="M14.4113 12.0092L13.7336 12.0616C13.7042 12.0638 13.6763 12.0758 13.6544 12.0956C13.6326 12.1153 13.6178 12.1418 13.6126 12.1708C13.5736 12.3896 13.5095 12.8995 13.7226 13.0674C13.8995 13.2067 14.1861 13.1897 14.3538 13.0471C14.5413 12.8877 14.5588 12.3876 14.5549 12.1401C14.5547 12.1219 14.5507 12.104 14.5432 12.0874C14.5357 12.0707 14.5249 12.0558 14.5115 12.0436C14.498 12.0313 14.4822 12.0219 14.4649 12.016C14.4477 12.0101 14.4294 12.0078 14.4113 12.0092Z" fill="white"/>
<g opacity="0.35">
<path opacity="0.35" d="M13.6127 12.1714C13.5735 12.3901 13.5096 12.9001 13.7227 13.0679C13.8996 13.2073 14.1861 13.1902 14.3539 13.0479C14.4689 12.9497 14.52 12.7229 14.5413 12.5051C14.511 12.6139 14.4632 12.7023 14.4037 12.7601C14.0628 13.0929 13.8069 12.7021 13.8069 12.7021C13.8069 12.7021 13.7629 12.7971 13.7276 12.8027C13.5802 12.8255 13.6096 12.3636 13.6304 12.125C13.6216 12.1392 13.6155 12.1549 13.6127 12.1714Z" fill="#371A45"/>
</g>
<path d="M14.0197 13.2401C13.8943 13.2401 13.7704 13.2028 13.6747 13.1275C13.4374 12.9406 13.4864 12.4396 13.5368 12.1575C13.5449 12.1119 13.568 12.0703 13.6024 12.0392C13.6368 12.0081 13.6805 11.9892 13.7268 11.9856L14.4045 11.9332C14.4331 11.931 14.4618 11.9347 14.4888 11.944C14.5159 11.9533 14.5408 11.9681 14.562 11.9874C14.5831 12.0067 14.6001 12.0301 14.6119 12.0562C14.6236 12.0823 14.6299 12.1106 14.6303 12.1392C14.6353 12.4872 14.5999 12.9374 14.4023 13.1054C14.2977 13.1951 14.1579 13.2401 14.0197 13.2401ZM14.4166 12.0855L13.7389 12.1379C13.7263 12.1388 13.7144 12.1439 13.705 12.1523C13.6957 12.1608 13.6894 12.1721 13.6871 12.1844C13.6128 12.6008 13.6435 12.9086 13.7693 13.0076C13.9135 13.1213 14.1583 13.1126 14.3037 12.9892C14.4191 12.8911 14.4843 12.5742 14.478 12.1414C14.4779 12.1337 14.4762 12.126 14.473 12.1189C14.4698 12.1118 14.4652 12.1054 14.4594 12.1002C14.4536 12.0949 14.4469 12.0909 14.4395 12.0884C14.4321 12.0859 14.4243 12.0849 14.4166 12.0855Z" fill="#371A45"/>
<path d="M14.0286 13.2228C14.0173 13.2163 14.0064 13.209 13.9961 13.201C13.987 13.1939 13.9781 13.1866 13.9699 13.179C13.9535 13.1642 13.9381 13.1483 13.9238 13.1314C13.8958 13.0986 13.8716 13.0628 13.8517 13.0246C13.8129 12.9507 13.7871 12.8707 13.7755 12.788C13.7698 12.7479 13.7664 12.7074 13.7655 12.6669C13.7635 12.6264 13.7655 12.5877 13.767 12.548C13.7684 12.5083 13.772 12.469 13.7773 12.4296C13.7827 12.3901 13.7888 12.352 13.8035 12.3103C13.805 12.3052 13.8085 12.3009 13.8131 12.2984C13.8178 12.2958 13.8233 12.2952 13.8284 12.2967C13.8335 12.2982 13.8378 12.3017 13.8404 12.3063C13.8429 12.311 13.8435 12.3165 13.842 12.3216L13.8414 12.3243C13.8335 12.3569 13.8306 12.3969 13.8293 12.434C13.8281 12.4718 13.8288 12.5099 13.8309 12.5479C13.8352 12.6246 13.8433 12.6994 13.8609 12.7708C13.8779 12.8409 13.907 12.9076 13.9468 12.9679C13.9658 12.9968 13.988 13.0234 14.0131 13.0473C14.0251 13.0589 14.0379 13.0697 14.0514 13.0795C14.0579 13.0845 14.0646 13.0888 14.0714 13.093C14.0767 13.0964 14.0823 13.0994 14.0881 13.102C14.0972 13.1048 14.1057 13.1095 14.1129 13.1158C14.1201 13.1221 14.1259 13.1298 14.1299 13.1385C14.1339 13.1471 14.1361 13.1565 14.1362 13.1661C14.1363 13.1757 14.1345 13.1851 14.1307 13.1939C14.127 13.2027 14.1214 13.2106 14.1144 13.2171C14.1074 13.2236 14.0991 13.2285 14.09 13.2316C14.081 13.2347 14.0714 13.2358 14.0619 13.2349C14.0524 13.234 14.0431 13.2312 14.0348 13.2265L14.0286 13.2228Z" fill="#371A45"/>
<path d="M12.9055 10.1581C12.8881 10.1582 12.8712 10.1522 12.8576 10.1413C12.844 10.1304 12.8346 10.1152 12.8309 10.0981C12.8271 10.0811 12.8294 10.0633 12.8372 10.0477C12.8449 10.0321 12.8578 10.0197 12.8737 10.0124C13.4925 9.72899 13.8716 9.81369 13.8874 9.81744C13.8972 9.81971 13.9064 9.82389 13.9146 9.82973C13.9227 9.83557 13.9296 9.84296 13.9349 9.85147C13.9402 9.85999 13.9438 9.86946 13.9454 9.87935C13.947 9.88924 13.9467 9.89935 13.9444 9.90911C13.9421 9.91887 13.938 9.92809 13.9321 9.93623C13.9263 9.94438 13.9189 9.95129 13.9104 9.95658C13.9019 9.96187 13.8924 9.96544 13.8825 9.96707C13.8726 9.9687 13.8625 9.96836 13.8527 9.96609C13.8477 9.96504 13.5025 9.89229 12.9373 10.1511C12.9273 10.1557 12.9165 10.1581 12.9055 10.1581Z" fill="#371A45"/>
<path d="M9.41105 10.166C9.41105 10.166 8.80485 11.9856 7.1416 12.573V13.6892H9.41105V10.166Z" fill="white"/>
<path d="M9.411 10.166V13.6892H7.1416V12.573C8.8048 11.9857 9.411 10.166 9.411 10.166Z" fill="white"/>
<g opacity="0.35">
<path opacity="0.35" d="M9.41105 10.8779V13.6894H7.4082C8.87015 12.9634 9.41105 10.8779 9.41105 10.8779Z" fill="#371A45"/>
</g>
<path d="M9.48748 13.7659H7.06543V12.5194L7.11633 12.5014C8.72388 11.9337 9.33278 10.1601 9.33878 10.1423L9.48748 9.69727V13.7659ZM7.21803 13.6133H9.33498V10.5457C9.22766 10.7704 9.10347 10.9866 8.96348 11.1926C8.63558 11.6745 8.06848 12.3098 7.21818 12.6269L7.21803 13.6133Z" fill="#371A45"/>
<path d="M13.6643 13.6893H8.71875C8.71875 13.6893 8.99105 12.3205 9.2383 10.8429C9.27665 10.614 9.31445 10.3824 9.3505 10.1529C9.6512 8.23669 12.5173 9.48624 12.5173 9.48624C12.5173 9.48624 12.6292 9.63949 12.7832 9.94169C13.102 10.5665 13.6014 11.8288 13.6643 13.6893Z" fill="white"/>
<path d="M13.7435 13.7659H8.62598L8.64408 13.6747C8.64773 13.6565 9.01008 11.8305 9.27523 10.1411C9.34438 9.70069 9.55023 9.38364 9.88683 9.19884C10.8331 8.67944 12.4785 9.38599 12.548 9.41634L12.567 9.42459L12.5792 9.44129C12.5902 9.45629 12.8516 9.81829 13.1271 10.5253C13.3802 11.1748 13.6921 12.2506 13.7408 13.687L13.7435 13.7659ZM8.81178 13.6133H13.5852C13.4829 11.1177 12.5809 9.71509 12.4674 9.54804C12.2794 9.47009 10.7881 8.87804 9.95998 9.33274C9.66698 9.49359 9.48733 9.77354 9.42588 10.1648C9.19423 11.6416 8.88838 13.2223 8.81178 13.6133Z" fill="#371A45"/>
<g opacity="0.35">
<path opacity="0.35" d="M11.0608 13.8965C11.053 13.9379 11.0457 13.9786 11.0391 14.0186C11.0456 13.9785 11.0528 13.9378 11.0608 13.8965Z" fill="#371A45"/>
</g>
<g opacity="0.35">
<path opacity="0.35" d="M9.17576 12.0771C9.12941 12.494 9.10246 12.8554 9.09696 13.1571C9.08931 12.876 9.11661 12.5137 9.17576 12.0771Z" fill="#371A45"/>
</g>
<path d="M9.19893 12.9403C9.33749 12.8018 9.33749 12.5771 9.19893 12.4386C9.06038 12.3 8.83573 12.3 8.69717 12.4386C8.55861 12.5771 8.55861 12.8018 8.69717 12.9403C8.83573 13.0789 9.06038 13.0789 9.19893 12.9403Z" fill="white"/>
<g opacity="0.35">
<path opacity="0.35" d="M8.59389 12.6985C8.59373 12.746 8.6031 12.7931 8.62145 12.8369C8.6398 12.8807 8.66676 12.9204 8.70072 12.9536C8.73469 12.9868 8.77497 13.0129 8.81919 13.0302C8.86341 13.0476 8.91066 13.0559 8.95814 13.0546C9.00562 13.0534 9.05238 13.0426 9.09563 13.023C9.13888 13.0034 9.17775 12.9753 9.20994 12.9403C9.24213 12.9054 9.26699 12.8644 9.28303 12.8197C9.29907 12.7749 9.30598 12.7275 9.30334 12.68C9.30208 12.6276 9.28908 12.5761 9.26529 12.5293C9.23808 12.5907 9.19401 12.6431 9.13819 12.6805C9.08238 12.7178 9.01711 12.7386 8.94997 12.7404C8.88283 12.7421 8.81657 12.7248 8.75888 12.6904C8.7012 12.656 8.65446 12.6059 8.62409 12.546C8.60274 12.5939 8.59242 12.6461 8.59389 12.6985Z" fill="#371A45"/>
</g>
<path d="M8.94839 13.1071C8.83966 13.1069 8.73527 13.0644 8.6574 12.9885C8.57954 12.9126 8.53433 12.8093 8.53139 12.7006C8.52924 12.6181 8.55161 12.5368 8.59566 12.467C8.63971 12.3972 8.70347 12.3421 8.77887 12.3085C8.85427 12.275 8.93793 12.2645 9.01927 12.2785C9.10061 12.2925 9.17598 12.3303 9.23584 12.3871C9.2957 12.4439 9.33736 12.5172 9.35557 12.5977C9.37378 12.6782 9.3677 12.7623 9.33812 12.8393C9.30853 12.9164 9.25677 12.9829 9.18936 13.0306C9.12196 13.0782 9.04195 13.1048 8.95944 13.1069L8.94839 13.1071ZM8.94874 12.3975H8.94094C8.90255 12.3985 8.86474 12.407 8.82966 12.4227C8.79458 12.4383 8.76292 12.4607 8.73649 12.4885C8.71007 12.5164 8.68938 12.5492 8.67563 12.585C8.66188 12.6209 8.65532 12.6591 8.65634 12.6975C8.65872 12.7747 8.69157 12.8478 8.74773 12.9009C8.80388 12.954 8.87876 12.9827 8.956 12.9807C9.03324 12.9787 9.10656 12.9462 9.15991 12.8903C9.21327 12.8345 9.24233 12.7597 9.24074 12.6825C9.23877 12.6063 9.20715 12.5339 9.15261 12.4808C9.09807 12.4276 9.02492 12.3978 8.94874 12.3978V12.3975Z" fill="#371A45"/>
<g opacity="0.35">
<path opacity="0.35" d="M9.11964 13.0349C9.17492 12.6722 9.19345 12.3049 9.17494 11.9385C9.16651 12.1382 9.14727 12.3373 9.11729 12.5349C9.08044 12.7781 9.06909 13.0321 9.09169 13.2815C9.09794 13.1988 9.10754 13.1162 9.11964 13.0349Z" fill="#371A45"/>
</g>
<path d="M9.46193 13.7219L11.3148 13.8169C11.4206 13.8221 11.524 13.7851 11.6026 13.7142C11.6812 13.6433 11.7286 13.5441 11.7343 13.4384L11.7849 12.4524C11.7894 12.3605 11.7621 12.2699 11.7076 12.1957C11.6531 12.1216 11.5748 12.0684 11.4857 12.0451C11.4598 12.0384 11.4332 12.0343 11.4064 12.033L9.55383 11.938C9.44807 11.9328 9.34454 11.9697 9.26593 12.0406C9.18731 12.1115 9.14001 12.2107 9.13438 12.3165L9.09408 13.0974L9.08348 13.3024C9.07833 13.4082 9.11525 13.5117 9.18616 13.5903C9.25708 13.6689 9.35622 13.7162 9.46193 13.7219Z" fill="white"/>
<g opacity="0.35">
<path opacity="0.35" d="M9.46174 13.7217L11.3146 13.8167C11.4204 13.8218 11.5238 13.7849 11.6024 13.714C11.681 13.6431 11.7284 13.5439 11.7341 13.4382L11.7847 12.4522C11.7892 12.3603 11.7619 12.2697 11.7074 12.1955C11.6529 12.1213 11.5746 12.0682 11.4855 12.0449C11.3767 12.1094 11.3076 12.1507 11.3076 12.1507C11.1767 12.9375 10.9311 13.3207 9.94765 13.2861C9.52305 13.2711 9.2586 13.1927 9.0941 13.097L9.0835 13.302C9.07828 13.4077 9.11513 13.5112 9.18601 13.5899C9.25689 13.6685 9.35602 13.7159 9.46174 13.7217Z" fill="#371A45"/>
</g>
<path d="M11.3356 13.8944C11.3274 13.8944 11.3191 13.8944 11.3109 13.8937L9.45816 13.7985C9.33224 13.7917 9.21413 13.7353 9.12966 13.6417C9.04519 13.548 9.00124 13.4248 9.00741 13.2988L9.05811 12.3127C9.06481 12.1867 9.12115 12.0686 9.21479 11.9841C9.30843 11.8996 9.43174 11.8557 9.55771 11.8619L11.4103 11.9572C11.5363 11.9638 11.6545 12.0201 11.739 12.1138C11.8235 12.2075 11.8674 12.3308 11.8611 12.4568L11.8103 13.443C11.8037 13.5646 11.7509 13.6792 11.6625 13.7631C11.5742 13.847 11.4571 13.894 11.3353 13.8944H11.3356ZM11.3187 13.7413C11.4042 13.7456 11.488 13.7157 11.5516 13.6584C11.6153 13.601 11.6535 13.5207 11.658 13.4351L11.7087 12.449C11.713 12.3634 11.6832 12.2796 11.6258 12.216C11.5684 12.1524 11.4881 12.1141 11.4026 12.1096L9.54986 12.0146C9.46434 12.0105 9.38066 12.0404 9.31709 12.0978C9.25351 12.1551 9.2152 12.2353 9.21051 12.3208L9.15976 13.3069C9.15567 13.3924 9.18556 13.4761 9.24291 13.5397C9.30026 13.6032 9.38042 13.6416 9.46591 13.6463L11.3187 13.7413H11.3187Z" fill="#371A45"/>
<path d="M9.3877 13.711C9.41188 13.7174 9.43667 13.7211 9.46164 13.7221L11.3145 13.8171C11.3912 13.8209 11.4672 13.8025 11.5337 13.7643C11.6002 13.726 11.6543 13.6695 11.6895 13.6013C11.7158 13.5509 11.7309 13.4954 11.7337 13.4386L11.7563 13.0006L11.7638 12.8561L11.7846 12.4526C11.7897 12.3469 11.7528 12.2434 11.6819 12.1648C11.6109 12.0863 11.5118 12.0389 11.4061 12.0332L11.0057 12.0127C11.096 12.0348 11.1759 12.0876 11.2315 12.1621C11.2872 12.2366 11.3152 12.3282 11.3107 12.421L11.2835 12.9536L11.2601 13.4073C11.2487 13.6266 11.0601 13.7973 10.8406 13.7858L9.3877 13.711Z" fill="white"/>
<g opacity="0.35">
<path opacity="0.35" d="M9.3877 13.7114C9.41188 13.7177 9.43667 13.7214 9.46164 13.7225L11.3145 13.8175C11.4203 13.8227 11.5237 13.7857 11.6023 13.7148C11.6809 13.6439 11.7281 13.5447 11.7337 13.439L11.7637 12.8564C11.7118 12.957 11.6216 13.079 11.487 13.0854C11.4131 13.089 11.3435 13.0324 11.2834 12.954L11.26 13.4077C11.2487 13.627 11.06 13.7977 10.8406 13.7861L9.3877 13.7114Z" fill="#371A45"/>
</g>
<path d="M11.336 13.8939C11.3277 13.8939 11.3194 13.8937 11.311 13.8933L9.45814 13.7979C9.4281 13.7966 9.39828 13.7921 9.36914 13.7847L9.39194 13.6347L10.8451 13.7097C10.9306 13.7138 11.0143 13.6839 11.0778 13.6265C11.1413 13.5692 11.1796 13.489 11.1843 13.4036L11.2349 12.4174C11.2387 12.3422 11.2162 12.2681 11.1711 12.2078C11.1261 12.1474 11.0614 12.1047 10.9883 12.0869L11.0102 11.9365L11.4102 11.957C11.5362 11.9638 11.6543 12.0202 11.7388 12.1139C11.8233 12.2077 11.8672 12.331 11.8609 12.457L11.8104 13.4425C11.8039 13.5641 11.7511 13.6786 11.6629 13.7625C11.5747 13.8464 11.4577 13.8935 11.3359 13.8939H11.336ZM11.186 13.7339L11.3188 13.7408C11.4043 13.7448 11.4879 13.7149 11.5514 13.6576C11.615 13.6002 11.6533 13.5201 11.6579 13.4346L11.7086 12.4485C11.7127 12.3629 11.6828 12.2792 11.6255 12.2157C11.5681 12.1521 11.4879 12.1138 11.4024 12.1091L11.2831 12.1029C11.3562 12.1938 11.3933 12.3084 11.3873 12.4248L11.3366 13.411C11.3306 13.5342 11.2766 13.6501 11.1861 13.734L11.186 13.7339Z" fill="#371A45"/>
<path d="M10.5547 12.8852C10.5531 12.9216 10.5909 13.2184 10.5909 13.2184L10.7987 13.2279C10.9418 13.2344 11.0646 13.0916 11.0729 12.9088C11.0813 12.7261 10.972 12.5726 10.8289 12.5661L10.6211 12.5566C10.6211 12.5566 10.5574 12.8256 10.5547 12.8852Z" fill="#22A7F0"/>
<g opacity="0.35">
<path opacity="0.35" d="M10.5547 12.8852C10.5531 12.9216 10.5909 13.2184 10.5909 13.2184L10.7987 13.2279C10.9418 13.2344 11.0646 13.0916 11.0729 12.9088C11.0813 12.7261 10.972 12.5726 10.8289 12.5661L10.6211 12.5566C10.6211 12.5566 10.5574 12.8256 10.5547 12.8852Z" fill="#371A45"/>
</g>
<path d="M10.8077 13.2854C10.8037 13.2854 10.7997 13.2854 10.7957 13.2851L10.6514 13.2785C10.6201 13.2771 10.5903 13.2647 10.5673 13.2435C10.5443 13.2222 10.5296 13.1935 10.5258 13.1624C10.4958 12.9168 10.4968 12.8919 10.4972 12.8824C10.4988 12.8474 10.5168 12.7542 10.5507 12.6051C10.5577 12.5748 10.575 12.5479 10.5997 12.529C10.6245 12.5102 10.655 12.5007 10.6861 12.5021L10.8311 12.5087C10.9183 12.5127 10.9974 12.5587 11.0539 12.638C11.1074 12.713 11.1342 12.8101 11.1296 12.9112C11.1201 13.1204 10.9769 13.2854 10.8077 13.2854ZM10.6116 12.8876C10.6116 12.8926 10.6124 12.9287 10.6394 13.1484C10.64 13.1526 10.642 13.1565 10.6451 13.1594C10.6483 13.1623 10.6523 13.164 10.6566 13.1641L10.801 13.1707C10.913 13.1757 11.0085 13.0571 11.0154 12.9062C11.0188 12.8305 10.9994 12.7589 10.9607 12.7046C10.925 12.6546 10.8772 12.6256 10.8257 12.6233L10.6807 12.6166C10.6765 12.6165 10.6723 12.6178 10.6689 12.6203C10.6655 12.6229 10.6631 12.6266 10.6622 12.6307C10.6172 12.8291 10.6121 12.8775 10.6116 12.8877V12.8876Z" fill="#371A45"/>
<path d="M10.8643 12.8978C10.8726 12.715 10.7634 12.5616 10.6203 12.5551C10.4772 12.5486 10.3545 12.6914 10.3461 12.8742C10.3378 13.0569 10.447 13.2104 10.5901 13.2169C10.7332 13.2234 10.856 13.0805 10.8643 12.8978Z" fill="#22A7F0"/>
<path d="M10.8652 12.8985C10.8636 12.9351 10.8571 12.9713 10.8459 13.0061C10.8495 12.8283 10.7419 12.6811 10.6017 12.6745C10.4883 12.6695 10.3878 12.7581 10.3467 12.8861C10.3467 12.8823 10.3467 12.8787 10.3467 12.8749C10.3551 12.6921 10.4778 12.5494 10.6209 12.5559C10.764 12.5624 10.8733 12.7157 10.8652 12.8985Z" fill="white"/>
<g opacity="0.35">
<path opacity="0.35" d="M10.8654 12.8987C10.857 13.0815 10.7343 13.2244 10.5912 13.2179C10.4481 13.2114 10.3387 13.0579 10.3471 12.875C10.3487 12.8407 10.3546 12.8067 10.3645 12.7739C10.4002 12.8897 10.4866 12.9729 10.5912 12.9777C10.7062 12.9827 10.8085 12.8912 10.848 12.7598C10.8618 12.8047 10.8677 12.8517 10.8654 12.8987Z" fill="#371A45"/>
</g>
<path d="M10.6004 13.2758C10.5963 13.2758 10.5923 13.2758 10.5882 13.2755C10.4138 13.2675 10.2799 13.087 10.2896 12.873C10.2996 12.659 10.4485 12.491 10.6236 12.4993C10.7107 12.5033 10.7899 12.5493 10.8464 12.6286C10.8999 12.7036 10.9267 12.8007 10.9221 12.9019C10.9175 13.003 10.8821 13.0971 10.8218 13.1669C10.7615 13.2366 10.6831 13.2758 10.6004 13.2758ZM10.404 12.8782C10.3971 13.0291 10.4821 13.1561 10.5934 13.1611C10.6443 13.1634 10.6949 13.1391 10.735 13.0925C10.7785 13.0418 10.8043 12.9725 10.8078 12.8966C10.8112 12.8208 10.7918 12.7494 10.7531 12.695C10.7175 12.645 10.6696 12.616 10.6181 12.6137C10.506 12.6087 10.4106 12.7273 10.4037 12.8782H10.404Z" fill="#371A45"/>
<path d="M10.0382 13.8015H10.0366C10.0214 13.8011 10.007 13.7947 9.99655 13.7837C9.98612 13.7726 9.98049 13.7579 9.98091 13.7427L9.99906 13.0888L9.69141 12.8725L9.73571 11.948C9.7366 11.9329 9.74338 11.9188 9.7546 11.9086C9.76581 11.8984 9.78057 11.893 9.79571 11.8936C9.80322 11.894 9.8106 11.8958 9.8174 11.899C9.82421 11.9022 9.83031 11.9067 9.83537 11.9123C9.84043 11.9179 9.84434 11.9244 9.84687 11.9315C9.84941 11.9386 9.85053 11.9461 9.85016 11.9536L9.80886 12.8152L10.1153 13.0306L10.0953 13.746C10.0949 13.7609 10.0886 13.775 10.078 13.7854C10.0673 13.7957 10.053 13.8015 10.0382 13.8015Z" fill="#371A45"/>
<path d="M13.3934 12.4365C13.3934 12.4365 13.5648 12.573 13.5724 12.7835C13.5811 13.0269 13.4288 13.1256 13.4288 13.1256C13.4288 13.1256 12.7624 13.4668 11.6933 13.2401C11.6933 13.2401 11.3786 12.8424 11.7291 12.6179C11.7291 12.6179 12.8575 12.7729 13.3934 12.4365Z" fill="white"/>
<g opacity="0.35">
<path opacity="0.35" d="M13.572 12.7835C13.5807 13.0267 13.4285 13.1253 13.4285 13.1253C13.4285 13.1253 12.7622 13.4667 11.6928 13.2399C11.6928 13.2399 11.5894 13.1088 11.5674 12.9549C11.5724 12.9624 11.5757 12.9664 11.5757 12.9664C12.3572 13.1322 12.9234 12.9944 13.1715 12.9083C13.3438 12.8483 13.459 12.692 13.455 12.5173C13.455 12.5149 13.455 12.5123 13.455 12.51C13.455 12.506 13.4547 12.502 13.4541 12.498C13.5039 12.5579 13.5675 12.6574 13.572 12.7835Z" fill="#371A45"/>
</g>
<path d="M12.4176 13.3943C12.1996 13.3943 11.9517 13.3724 11.6776 13.3143L11.6507 13.3085L11.6336 13.287C11.6263 13.2777 11.4548 13.0578 11.4928 12.8306C11.5118 12.7173 11.5775 12.6239 11.6878 12.5531L11.7115 12.5381L11.7394 12.5419C11.7503 12.5434 12.8468 12.6891 13.3527 12.3715L13.3985 12.3428L13.4408 12.3764C13.4489 12.3829 13.6398 12.5376 13.6485 12.7804C13.6585 13.0638 13.4779 13.1843 13.4702 13.1893L13.4635 13.1932C13.4426 13.2038 13.0608 13.3943 12.4176 13.3943ZM11.7382 13.1709C12.7049 13.3678 13.3324 13.0865 13.39 13.0592C13.4073 13.046 13.5026 12.965 13.4962 12.7857C13.492 12.6697 13.4252 12.5783 13.382 12.531C12.8596 12.8142 11.9294 12.7187 11.7483 12.6968C11.6883 12.7409 11.6538 12.7932 11.6433 12.8558C11.6222 12.982 11.7034 13.1192 11.7382 13.1709Z" fill="#371A45"/>
<g opacity="0.35">
<path opacity="0.35" d="M12.7832 9.94179C12.3293 10.56 11.6485 10.9651 10.9059 11.0818C10.8513 11.0902 10.7966 11.0972 10.7416 11.1028C10.3068 11.1448 9.868 11.0876 9.45848 10.9353C9.41018 10.9172 9.36248 10.8981 9.31593 10.8779C9.28978 10.8667 9.26383 10.855 9.23828 10.8429C9.27663 10.614 9.31443 10.3824 9.35048 10.1529C9.65118 8.23669 12.5172 9.48624 12.5172 9.48624C12.5172 9.48624 12.6292 9.63959 12.7832 9.94179Z" fill="#371A45"/>
</g>
<path d="M7.90522 9.33856C8.15963 9.75925 8.51803 10.1074 8.94592 10.3495C9.0359 10.4004 9.12851 10.4464 9.22337 10.4875C9.26992 10.5075 9.31762 10.5267 9.36597 10.545C9.50966 10.5983 9.65738 10.6401 9.80772 10.67C10.0845 10.7254 10.368 10.7396 10.649 10.7121C10.7041 10.7065 10.7589 10.6995 10.8133 10.6911C11.8098 10.5344 12.6946 9.85881 13.0704 8.84611C13.6245 7.35391 12.8635 5.69546 11.3717 5.14156C11.092 5.03748 10.7979 4.97755 10.4998 4.96391C10.4658 4.96206 10.4317 4.96121 10.3976 4.96111C10.3063 4.96011 10.2156 4.96344 10.1255 4.97111C9.71143 5.00694 9.30995 5.13143 8.94827 5.33611C8.89117 5.36834 8.83517 5.40258 8.78027 5.43881C8.26979 5.77595 7.87995 6.26691 7.66727 6.84051C7.34857 7.69886 7.46507 8.61206 7.90522 9.33856Z" fill="white"/>
<path d="M10.3698 10.7334C10.3098 10.7334 10.2501 10.7315 10.1908 10.7278C9.90808 10.7098 9.62947 10.6506 9.36384 10.552C9.31079 10.532 9.26384 10.5132 9.22084 10.4944C9.12573 10.4532 9.03287 10.407 8.94264 10.356C8.51388 10.1129 8.15461 9.76392 7.89914 9.34241C7.43874 8.58241 7.35179 7.66946 7.66054 6.83771C7.8739 6.26264 8.26477 5.77042 8.77654 5.43231C8.83039 5.39676 8.88704 5.36231 8.94499 5.32931C9.30763 5.12406 9.71019 4.99923 10.1253 4.96331C10.2153 4.95566 10.3071 4.95226 10.3981 4.95331C10.4347 4.95331 10.4681 4.95436 10.5007 4.95616C10.7995 4.96981 11.0944 5.02988 11.3748 5.13421C12.8684 5.68876 13.6325 7.35496 13.078 8.84851C12.7149 9.82736 11.8478 10.5363 10.815 10.6985C10.7606 10.7069 10.7052 10.714 10.6502 10.7196C10.5567 10.7289 10.4629 10.7334 10.3698 10.7334ZM7.91229 9.33446C8.16627 9.75368 8.52347 10.1008 8.94979 10.3427C9.03955 10.3934 9.13193 10.4393 9.22654 10.4803C9.26949 10.499 9.31604 10.5178 9.36879 10.5376C9.63298 10.6358 9.91012 10.6947 10.1914 10.7126C10.3437 10.7222 10.4964 10.7195 10.6483 10.7046C10.703 10.6991 10.7583 10.692 10.8122 10.6837C11.8395 10.5222 12.7022 9.81696 13.0632 8.84331C13.6148 7.35756 12.8548 5.70021 11.3692 5.14861C11.0904 5.04481 10.797 4.98504 10.4998 4.97146C10.4675 4.96971 10.4342 4.96876 10.3979 4.96861C10.3072 4.96776 10.216 4.97101 10.1265 4.97861C9.71357 5.01437 9.31313 5.13855 8.95239 5.34271C8.89479 5.37531 8.83829 5.40991 8.78479 5.44516C8.27566 5.78136 7.88687 6.27099 7.67479 6.84306C7.36754 7.67041 7.45404 8.57846 7.91204 9.33446H7.91229Z" fill="#371A45"/>
<g opacity="0.35">
<path opacity="0.35" d="M13.0709 8.84557C12.6952 9.85867 11.8102 10.5343 10.8138 10.6906C10.7593 10.6991 10.7046 10.7061 10.6495 10.7116C10.2147 10.7537 9.77602 10.6967 9.36645 10.5447C9.3182 10.5263 9.2705 10.5074 9.2239 10.4872C9.12906 10.4461 9.03645 10.4 8.94645 10.3491C8.5185 10.1071 8.16009 9.7589 7.9057 9.33817C7.76834 9.11156 7.66273 8.86718 7.5918 8.61187C7.90081 9.09612 8.34776 9.47676 8.87505 9.70472C8.9215 9.72472 8.9692 9.74387 9.0176 9.76217C9.42696 9.91475 9.86574 9.97195 10.3005 9.92942C10.3557 9.92385 10.4105 9.91682 10.4649 9.90832C11.4614 9.75182 12.3462 9.07622 12.722 8.06307C12.9338 7.4952 12.9603 6.87484 12.7976 6.29102C13.2667 7.02622 13.3979 7.96472 13.0709 8.84557Z" fill="#371A45"/>
</g>
<path d="M10.3696 10.7846C10.3086 10.7846 10.2478 10.7827 10.1874 10.7789C10.0561 10.7707 9.92544 10.7536 9.79641 10.7277C9.64305 10.6971 9.49236 10.6545 9.34576 10.6C9.29161 10.5796 9.24411 10.5604 9.20011 10.5412C9.10336 10.4994 9.00891 10.4525 8.91716 10.4006C8.48068 10.1531 8.11493 9.79789 7.85486 9.3688C7.38626 8.59525 7.29776 7.6661 7.61206 6.81955C7.79312 6.33066 8.10117 5.89885 8.50451 5.56855C8.58247 5.50456 8.66372 5.44468 8.74791 5.38915C8.80291 5.3529 8.86041 5.3176 8.91941 5.28415C9.28851 5.07526 9.69823 4.94822 10.1208 4.91165C10.2124 4.9039 10.3058 4.9003 10.3985 4.90165C10.4355 4.90165 10.47 4.90275 10.5035 4.90455C10.8075 4.91846 11.1075 4.97961 11.3927 5.0858C12.913 5.6502 13.6906 7.34615 13.1264 8.86625C12.7568 9.86255 11.8742 10.5841 10.823 10.7494C10.7677 10.7579 10.7113 10.7651 10.6554 10.7708C10.5602 10.78 10.4649 10.7846 10.3696 10.7846ZM7.95616 9.3075C8.20569 9.71921 8.55661 10.0601 8.97541 10.2975C9.06356 10.3473 9.15428 10.3923 9.24721 10.4325C9.28951 10.4509 9.33526 10.4694 9.38721 10.489C9.64661 10.5853 9.91871 10.6432 10.1949 10.6608C10.3444 10.6702 10.4944 10.6676 10.6436 10.6529C10.6972 10.6475 10.7515 10.6406 10.8046 10.6324C11.8134 10.4737 12.6606 9.7812 13.0153 8.825C13.5569 7.366 12.8103 5.73835 11.3514 5.1966C11.0775 5.09465 10.7894 5.03594 10.4975 5.0226C10.4656 5.0209 10.4331 5.02 10.3975 5.01985C10.3083 5.01905 10.2185 5.0222 10.1307 5.02985C9.72511 5.06497 9.33185 5.18691 8.97756 5.3874C8.92091 5.41945 8.86556 5.4533 8.81301 5.48805C8.31305 5.81826 7.93127 6.29914 7.72301 6.86095C7.42141 7.67325 7.50636 8.56505 7.95616 9.3075Z" fill="#371A45"/>
<path d="M10.3701 10.8024C10.3087 10.8024 10.2476 10.8004 10.1868 10.7966C9.89737 10.7782 9.61217 10.7175 9.34027 10.6166C9.28582 10.5961 9.23802 10.5766 9.19377 10.5575C9.09649 10.5154 9.00151 10.4682 8.90922 10.4161C8.47022 10.1671 8.10237 9.80979 7.84077 9.37821C7.36942 8.60016 7.28042 7.66556 7.59652 6.81411C7.81492 6.22535 8.21505 5.72139 8.73897 5.37521C8.79397 5.33876 8.85222 5.30331 8.91152 5.26971C9.28278 5.05965 9.69489 4.93193 10.1199 4.89521C10.212 4.88736 10.3062 4.88401 10.3992 4.88491C10.4365 4.88491 10.4711 4.88606 10.5047 4.88786C10.8105 4.9019 11.1122 4.96342 11.399 5.07021C12.9282 5.63786 13.7104 7.34371 13.1428 8.87271C12.7711 9.87481 11.8833 10.6006 10.826 10.7668C10.7704 10.7754 10.7137 10.7827 10.6575 10.7884C10.5619 10.7977 10.4657 10.8024 10.3701 10.8024ZM7.97132 9.29916C8.21932 9.70839 8.56811 10.0472 8.98437 10.2832C9.07193 10.3327 9.16206 10.3775 9.25437 10.4175C9.29647 10.4359 9.34192 10.4542 9.39362 10.4737C9.53339 10.5256 9.67706 10.5663 9.82327 10.5954C10.0928 10.6494 10.3687 10.6632 10.6423 10.6365C10.6955 10.6311 10.7495 10.6242 10.8023 10.616C11.8049 10.4584 12.6469 9.77001 12.9995 8.81961C13.5378 7.36961 12.7959 5.75171 11.3458 5.21326C11.0736 5.11189 10.7873 5.05351 10.4972 5.04021C10.4655 5.03851 10.4333 5.03761 10.3981 5.03746C10.3089 5.03651 10.2201 5.03976 10.1328 5.04721C9.72971 5.08208 9.33883 5.20329 8.98672 5.40261C8.93042 5.43446 8.87542 5.46811 8.82317 5.50261C8.32623 5.83083 7.94673 6.30877 7.73967 6.86716C7.43967 7.67471 7.52427 8.56111 7.97132 9.29906V9.29916Z" fill="#371A45"/>
<path d="M8.36586 9.91628C10.1091 11.0131 12.3624 10.0621 12.3851 8.02233C12.4006 6.63458 11.0538 5.54798 9.72011 5.61848C8.74936 5.66978 7.82406 6.14453 7.49181 7.67293C7.49181 7.67293 7.44921 8.37228 7.66016 8.82628C7.87111 9.28028 8.15286 9.68628 8.15286 9.68628L8.36586 9.91628Z" fill="#371A45"/>
<path d="M12.3856 8.02198C12.3629 10.0617 10.1096 11.0127 8.36639 9.91598L8.32324 9.86933C10.1947 10.1108 11.9899 8.91053 12.0513 6.84863C12.2655 7.19418 12.3903 7.59373 12.3856 8.02198Z" fill="#220F2D"/>
<path d="M9.92632 10.7485C9.88632 10.7485 9.8461 10.7478 9.80567 10.7462L9.79372 10.7448C9.63941 10.7141 9.48778 10.6711 9.34027 10.6163C9.28582 10.5958 9.23802 10.5763 9.19377 10.5572C9.09649 10.5151 9.00151 10.4679 8.90922 10.4158C8.47022 10.1668 8.10237 9.80952 7.84077 9.37794C7.36942 8.59989 7.28042 7.66529 7.59652 6.81384C7.77867 6.3221 8.08853 5.88776 8.49422 5.55549L8.50032 5.55049L8.50737 5.54684C8.84562 5.37149 9.24332 5.27059 9.68937 5.24684C10.4844 5.20484 11.3177 5.52454 11.9197 6.10184C12.473 6.63254 12.7733 7.31579 12.7653 8.02574C12.7566 8.79729 12.4739 9.46984 11.9476 9.97074C11.4248 10.4686 10.6938 10.7485 9.92632 10.7485ZM9.81752 10.5939C10.5853 10.6218 11.3233 10.3546 11.8425 9.86054C12.3383 9.38874 12.6046 8.75379 12.6129 8.02444C12.6203 7.35714 12.3367 6.71359 11.8142 6.21239C11.2421 5.66354 10.4508 5.35949 9.69757 5.39949C9.27647 5.42174 8.90217 5.51569 8.58482 5.67869C8.20311 5.99316 7.91155 6.40316 7.73982 6.86694C7.43982 7.67449 7.52442 8.56089 7.97147 9.29884C8.21943 9.70806 8.56816 10.0469 8.98437 10.2829C9.07193 10.3324 9.16206 10.3772 9.25437 10.4172C9.29647 10.4355 9.34192 10.4539 9.39362 10.4734C9.53156 10.5246 9.6733 10.5649 9.81752 10.5939Z" fill="#371A45"/>
<path d="M9.93338 10.4537C9.38468 10.4537 8.82493 10.2948 8.32578 9.98074L8.31728 9.97544L8.09058 9.72969C8.07893 9.71289 7.80263 9.31309 7.59133 8.85834C7.37478 8.39219 7.41423 7.69754 7.41603 7.66834L7.41763 7.65679C7.70848 6.31899 8.48193 5.60754 9.71653 5.54229C10.4258 5.50514 11.1698 5.79014 11.707 6.30544C12.201 6.77919 12.4691 7.38924 12.462 8.02324C12.452 8.93859 11.9989 9.70724 11.2193 10.1321C10.8245 10.3471 10.3826 10.4537 9.93338 10.4537ZM8.41553 9.85689C9.27503 10.3937 10.3205 10.448 11.1463 9.99789C11.8759 9.60029 12.2998 8.87984 12.3094 8.02139C12.316 7.43004 12.0644 6.85969 11.6014 6.41544C11.094 5.92879 10.3926 5.65934 9.72458 5.69459C8.56898 5.75569 7.84348 6.42459 7.56808 7.68309C7.56483 7.74934 7.53928 8.38404 7.72978 8.79404C7.92393 9.21194 8.18253 9.59404 8.21303 9.63839L8.41553 9.85689Z" fill="#371A45"/>
<path d="M12.9736 8.9789C13.3865 8.9553 13.6949 8.47554 13.6624 7.90731C13.63 7.33908 13.2689 6.89756 12.856 6.92115C12.4431 6.94474 12.1347 7.42451 12.1672 7.99274C12.1996 8.56097 12.5607 9.00249 12.9736 8.9789Z" fill="white"/>
<g opacity="0.35">
<path opacity="0.35" d="M13.0265 8.97356C12.6445 9.03356 12.2862 8.68446 12.1895 8.17856C12.266 8.20016 12.3463 8.20499 12.4249 8.19271C12.8344 8.12821 13.3135 7.64356 13.2515 7.07861C13.2473 7.04061 13.0443 6.97786 13.0372 6.94141C13.3488 7.02821 13.6056 7.37946 13.6556 7.83361C13.7176 8.39886 13.436 8.90906 13.0265 8.97356Z" fill="#371A45"/>
</g>
<path d="M12.9399 9.0563C12.7943 9.0563 12.6516 9.00545 12.5223 8.9066C12.2905 8.7294 12.1354 8.4263 12.0968 8.07505C12.0304 7.47095 12.3413 6.9221 12.7898 6.8515C12.9689 6.8233 13.1475 6.8724 13.3059 6.9935C13.5377 7.17065 13.6928 7.4735 13.7314 7.825C13.7978 8.4291 13.4869 8.97795 13.0384 9.04855C13.0058 9.05368 12.9729 9.05627 12.9399 9.0563ZM12.8873 6.9963C12.8626 6.99629 12.8379 6.99823 12.8135 7.0021C12.4444 7.0602 12.1909 7.53395 12.2485 8.05815C12.2821 8.3636 12.4191 8.63535 12.615 8.7851C12.7395 8.8801 12.8777 8.91915 13.0147 8.89755C13.3839 8.83945 13.6373 8.3657 13.5797 7.8415C13.5461 7.53605 13.4091 7.2643 13.2132 7.11455C13.1112 7.0367 12.9999 6.9965 12.8874 6.9965L12.8873 6.9963Z" fill="#371A45"/>
<path d="M13.1825 8.8265C13.5194 8.8188 13.7842 8.44646 13.7738 7.99487C13.7635 7.54327 13.482 7.18343 13.1451 7.19113C12.8083 7.19883 12.5435 7.57117 12.5539 8.02276C12.5642 8.47436 12.8457 8.83421 13.1825 8.8265Z" fill="white"/>
<path d="M13.1724 8.83523C13.112 8.83498 13.0522 8.82336 12.9962 8.80098C12.6686 8.67243 12.4762 8.21293 12.5677 7.77663C12.6188 7.53233 12.7491 7.33768 12.9251 7.24258C13.0547 7.17258 13.1948 7.16368 13.3304 7.21688C13.658 7.34543 13.8502 7.80498 13.7589 8.24123C13.7078 8.48553 13.5775 8.68018 13.4015 8.77528C13.3313 8.81412 13.2525 8.83473 13.1724 8.83523ZM13.1543 7.19863C13.0767 7.19911 13.0006 7.21905 12.9327 7.25663C12.7609 7.34948 12.6335 7.54023 12.5833 7.77993C12.4936 8.20888 12.6814 8.66028 13.002 8.78613C13.1331 8.83753 13.2685 8.82893 13.3939 8.76113C13.5658 8.66828 13.6931 8.47758 13.7433 8.23788C13.8333 7.80888 13.6452 7.35748 13.3246 7.23163C13.2704 7.21005 13.2126 7.19886 13.1543 7.19863Z" fill="#371A45"/>
<g opacity="0.35">
<path opacity="0.35" d="M12.6283 8.4162C12.5744 8.2712 12.56 8.11035 12.5797 7.9562C12.7306 8.27705 13.0488 8.37975 13.3163 8.18215C13.4891 8.05455 13.6009 7.8308 13.6313 7.5918C13.6409 7.6118 13.6497 7.63335 13.658 7.65535C13.7952 8.02535 13.6761 8.4956 13.3917 8.70575C13.1074 8.9159 12.7656 8.78595 12.6283 8.4162Z" fill="#371A45"/>
</g>
<path d="M13.1893 8.90343C13.0817 8.90343 12.9756 8.86553 12.8788 8.79188C12.6915 8.64928 12.5608 8.38613 12.5292 8.08798C12.4754 7.57988 12.7101 7.13603 13.0635 7.07753C13.1968 7.05553 13.3304 7.09193 13.4499 7.18283C13.6372 7.32543 13.7679 7.58858 13.7995 7.88678C13.8533 8.39483 13.6186 8.83868 13.2652 8.89718C13.2401 8.90135 13.2147 8.90344 13.1893 8.90343ZM13.1383 7.22403C13.1216 7.22402 13.1048 7.22539 13.0883 7.22813C12.8237 7.27193 12.6371 7.65813 12.6809 8.07188C12.7082 8.32903 12.8167 8.55278 12.9712 8.67038C13.0562 8.73538 13.1494 8.76163 13.2403 8.74658C13.5049 8.70278 13.6914 8.31658 13.6476 7.90283C13.6204 7.64563 13.5119 7.42193 13.3576 7.30433C13.2878 7.25133 13.2129 7.22403 13.1383 7.22403Z" fill="#371A45"/>
<g opacity="0.7">
<path opacity="0.7" d="M10.4321 6.08777C10.4321 6.08777 9.13182 6.23997 8.45387 7.02896L8.45177 7.03147C8.30941 7.19793 8.21397 7.39932 8.17527 7.61492C8.12372 7.89992 8.12992 8.10372 8.14232 8.28302C8.18022 8.82802 8.30002 9.07667 8.30002 9.07667C7.97002 8.81012 7.77232 8.49521 7.73622 8.04141C7.73282 7.99667 7.73092 7.95037 7.73047 7.90282C7.73047 7.89187 7.73047 7.88101 7.73047 7.87006C7.73047 7.87006 7.73047 7.86971 7.73047 7.86941C7.73794 7.74725 7.75275 7.62565 7.77482 7.50526C7.85297 7.07891 8.05282 6.51592 8.56062 6.22582C9.51052 5.68332 10.4731 6.02772 10.4321 6.08777Z" fill="white"/>
</g>
<g opacity="0.7">
<path opacity="0.7" d="M11.6413 7.78634C11.8425 7.71722 11.9403 7.47113 11.8598 7.23669C11.7792 7.00225 11.5509 6.86822 11.3497 6.93735C11.1485 7.00647 11.0506 7.25255 11.1312 7.487C11.2117 7.72144 11.4401 7.85546 11.6413 7.78634Z" fill="white"/>
</g>
<g opacity="0.7">
<path opacity="0.7" d="M11.8352 8.30331C11.9155 8.26786 11.9472 8.1632 11.9059 8.06954C11.8646 7.97588 11.7659 7.92869 11.6856 7.96414C11.6052 7.99958 11.5735 8.10425 11.6148 8.19791C11.6561 8.29157 11.7548 8.33876 11.8352 8.30331Z" fill="white"/>
</g>
<path d="M17.3173 13.3857C16.34 15.5044 13.4667 17.0392 10.0742 17.0392C6.6816 17.0392 3.80835 15.5044 2.83105 13.3857H17.3173Z" fill="#371A45"/>
<path d="M14.1759 15.2195H10.7441L10.9179 14.787L11.1763 14.1445L13.3894 14.1678L13.8981 14.848L14.1759 15.2195Z" fill="white"/>
<path d="M14.328 15.2965H10.6309L11.1248 14.0684L13.4278 14.0927L14.328 15.2965ZM10.8568 15.1438H14.0233L13.3507 14.2445L11.2274 14.2221L10.8568 15.1438Z" fill="#371A45"/>
<path d="M13.706 14.9735C13.6001 14.9738 13.4943 14.9718 13.3884 14.971L13.0709 14.9645C12.9651 14.9629 12.8591 14.9583 12.7538 14.9558C12.6484 14.9532 12.5424 14.9526 12.4367 14.9526C12.2252 14.9495 12.0136 14.9501 11.802 14.9483L11.4845 14.9455C11.3787 14.9435 11.2728 14.9428 11.167 14.94C11.2727 14.9343 11.3785 14.9313 11.4843 14.9272L11.8018 14.9195C12.0135 14.9153 12.2252 14.9149 12.4368 14.9151C12.5427 14.9163 12.6486 14.9185 12.7545 14.9217C12.8607 14.926 12.9662 14.9297 13.0719 14.9358L13.3889 14.9527C13.4947 14.9597 13.6003 14.9654 13.706 14.9735Z" fill="#371A45"/>
<path d="M13.5639 14.7399C13.4666 14.7409 13.3693 14.7395 13.272 14.7393L12.98 14.7348C12.7854 14.7316 12.5912 14.7234 12.3967 14.7178L11.8137 14.698C11.7165 14.6948 11.6196 14.692 11.5224 14.6941C11.4252 14.6938 11.3279 14.6948 11.2305 14.6934C11.4245 14.6812 11.6193 14.6669 11.8142 14.6692C12.0092 14.6692 12.2035 14.6742 12.398 14.6803C12.5925 14.6865 12.7869 14.696 12.9811 14.7061L13.2725 14.7211C13.3696 14.7276 13.4667 14.7326 13.5639 14.7399Z" fill="#371A45"/>
<path d="M13.4178 14.5388C13.3284 14.5383 13.2392 14.5354 13.1499 14.5338L12.8825 14.5249L12.3475 14.5087L11.8125 14.4898C11.7233 14.4864 11.6343 14.4837 11.5451 14.4827C11.4557 14.4795 11.3663 14.4777 11.2773 14.4732C11.456 14.4665 11.634 14.4603 11.813 14.461C11.9917 14.461 12.1702 14.4657 12.3487 14.4712C12.5271 14.4778 12.7055 14.4844 12.8837 14.4962L13.151 14.5156C13.2398 14.5234 13.329 14.5299 13.4178 14.5388Z" fill="#371A45"/>
<path d="M13.2873 14.3454C13.1256 14.3619 12.9628 14.3554 12.8009 14.3531C12.6389 14.3498 12.477 14.3443 12.3151 14.3395L11.8295 14.3218C11.7486 14.3185 11.6676 14.3155 11.5867 14.3139C11.5063 14.3111 11.4236 14.3116 11.3447 14.3062L11.5867 14.2955C11.6678 14.2934 11.7489 14.2932 11.83 14.293C11.9922 14.293 12.1543 14.2971 12.3163 14.302C12.4783 14.3078 12.6402 14.3143 12.802 14.3244C12.8829 14.3294 12.9637 14.3344 13.0446 14.338C13.1255 14.3416 13.2063 14.3474 13.2873 14.3454Z" fill="#371A45"/>
<path d="M15.8918 14.6824H12.46L12.8924 13.6074L13.2232 13.6109L15.1053 13.6309L15.8918 14.6824Z" fill="white"/>
<path d="M10.4459 13.5615L9.21191 14.6753C9.21191 14.6753 10.3119 14.6187 10.8219 14.6203C11.2381 14.6215 12.6303 14.7281 12.6303 14.7281L12.9541 13.6074L10.4459 13.5615Z" fill="white"/>
<g opacity="0.35">
<path opacity="0.35" d="M13.8979 14.848H12.6629L12.6497 14.8938C12.6497 14.8938 11.4057 14.7984 10.918 14.787L11.1761 14.1445L13.3892 14.1678L13.8979 14.848Z" fill="#371A45"/>
</g>
<path d="M15.8918 14.6824H12.46L12.8924 13.6074L13.2232 13.6109L15.1053 13.6309L15.8918 14.6824Z" fill="white"/>
<path d="M16.0439 14.7584H12.3467L12.8406 13.5303L15.1435 13.5545L16.0439 14.7584ZM12.5726 14.6057H15.7391L15.0665 13.7064L12.9433 13.684L12.5726 14.6057Z" fill="#371A45"/>
<path d="M15.4219 14.4364C15.316 14.4367 15.2101 14.4346 15.1043 14.4338L14.7868 14.4274C14.681 14.4258 14.575 14.4212 14.4696 14.4187C14.3642 14.4162 14.2583 14.4155 14.1525 14.4154C13.941 14.4123 13.7294 14.413 13.5178 14.4112L13.2004 14.4084C13.0945 14.4063 12.9887 14.4057 12.8828 14.4029C12.9886 14.3972 13.0944 14.3942 13.2002 14.39L13.5177 14.3824C13.7293 14.3781 13.941 14.3778 14.1527 14.378C14.2585 14.3792 14.3644 14.3814 14.4704 14.3846C14.5766 14.3888 14.6821 14.3926 14.7878 14.3987L15.1048 14.4156C15.2106 14.4226 15.3163 14.4283 15.4219 14.4364Z" fill="#371A45"/>
<path d="M15.2796 14.203C15.1823 14.204 15.085 14.2026 14.9877 14.2024L14.6958 14.198C14.5011 14.1947 14.3069 14.1866 14.1125 14.1809L13.5295 14.1609C13.4323 14.1577 13.3354 14.1548 13.2381 14.157C13.1409 14.1567 13.0437 14.1577 12.9463 14.1563C13.1403 14.1441 13.3351 14.1298 13.5299 14.1321C13.7247 14.1321 13.9192 14.1371 14.1137 14.1432C14.3082 14.1494 14.5027 14.1589 14.6969 14.169L14.9883 14.184C15.0855 14.1903 15.1827 14.1956 15.2796 14.203Z" fill="#371A45"/>
<path d="M15.1337 14.0261C15.0443 14.0256 14.9551 14.0227 14.8658 14.0211L14.5984 14.0122L14.0634 13.996L13.5284 13.9771C13.4392 13.9737 13.3502 13.971 13.261 13.97C13.1715 13.9668 13.0822 13.965 12.9932 13.9605C13.1718 13.9538 13.3499 13.9476 13.5289 13.9483C13.7078 13.9489 13.8861 13.9533 14.0645 13.9585C14.243 13.9651 14.4213 13.9717 14.5995 13.9835L14.8668 14.0028C14.9559 14.0106 15.0448 14.0171 15.1337 14.0261Z" fill="#371A45"/>
<path d="M15.0031 13.858C14.8413 13.8746 14.6786 13.868 14.5166 13.8657C14.3547 13.8634 14.1927 13.857 14.0308 13.8521L13.5452 13.8345C13.4643 13.8312 13.3834 13.8282 13.3025 13.8266C13.2221 13.8238 13.1394 13.8242 13.0605 13.8189L13.3024 13.8082C13.3836 13.8061 13.4647 13.8058 13.5458 13.8057C13.708 13.8057 13.87 13.8098 14.0321 13.8147C14.194 13.8205 14.356 13.827 14.5178 13.8371C14.5987 13.8421 14.6795 13.8471 14.7603 13.8507C14.8412 13.8543 14.9221 13.8599 15.0031 13.858Z" fill="#371A45"/>
<path d="M2.47668 13.3182L2.94668 13.3097L3.41668 13.3032L4.35703 13.2906L6.23773 13.2748C6.86463 13.2685 7.49158 13.268 8.11848 13.2648L9.99918 13.2617L11.8799 13.2647C12.5068 13.2681 13.1337 13.2684 13.7606 13.2747L15.6413 13.2905L16.5817 13.3032L17.0517 13.3096L17.5217 13.3181C17.5396 13.3181 17.5568 13.3252 17.5694 13.3379C17.5821 13.3505 17.5892 13.3677 17.5892 13.3856C17.5892 13.4035 17.5821 13.4207 17.5694 13.4333C17.5568 13.446 17.5396 13.4531 17.5217 13.4531L17.0517 13.4617L16.5817 13.4681L15.6413 13.4808L13.7606 13.4966C13.1337 13.5029 12.5068 13.5033 11.8799 13.5066L9.99918 13.5096L8.11848 13.5065C7.49158 13.5032 6.86463 13.5028 6.23773 13.4965L4.35703 13.4807L3.41668 13.4681L2.94668 13.4616L2.47668 13.4531C2.45878 13.4531 2.44161 13.446 2.42895 13.4333C2.41629 13.4207 2.40918 13.4035 2.40918 13.3856C2.40918 13.3677 2.41629 13.3505 2.42895 13.3379C2.44161 13.3252 2.45878 13.3181 2.47668 13.3181V13.3182Z" fill="#371A45"/>
<path d="M8.83497 14.5127L9.91457 13.5091C9.9167 13.5071 9.9184 13.5047 9.91956 13.502C9.92072 13.4993 9.92132 13.4964 9.92132 13.4935V13.3132C9.92133 13.3103 9.92074 13.3075 9.9196 13.3048C9.91845 13.3021 9.91677 13.2997 9.91466 13.2978C9.91255 13.2958 9.91006 13.2942 9.90734 13.2933C9.90461 13.2923 9.90172 13.2919 9.89882 13.292L6.44547 13.5028L4.84277 14.5128L8.83497 14.5127Z" fill="#3E8DFF"/>
<g opacity="0.3">
<path opacity="0.3" d="M9.92117 13.4092V13.4929C9.92118 13.4959 9.92056 13.4988 9.91938 13.5015C9.91819 13.5042 9.91645 13.5066 9.91427 13.5086L8.83487 14.5122H4.84277L5.13487 14.3281H8.76187L9.92117 13.4092Z" fill="#6B184E"/>
</g>
<path d="M8.86457 14.5891H4.57812L6.42092 13.4279L9.89367 13.216C9.90696 13.2152 9.92027 13.2171 9.93279 13.2216C9.94531 13.2262 9.95677 13.2332 9.96646 13.2423C9.97616 13.2515 9.98388 13.2625 9.98916 13.2747C9.99445 13.2869 9.99717 13.3001 9.99718 13.3134V13.4937C9.99715 13.5071 9.99438 13.5203 9.98905 13.5326C9.98372 13.5448 9.97593 13.5559 9.96617 13.565L8.86457 14.5891ZM5.10672 14.4365H8.80457L9.84457 13.4697V13.3719L6.46927 13.5779L5.10672 14.4365Z" fill="#371A45"/>
<path d="M8.83487 14.0878L9.92122 13.29H6.44547L4.84277 14.0878H8.83487Z" fill="#3E8DFF"/>
<path d="M8.55491 13.9878L9.26161 13.4688H7.00056L5.95801 13.9878H8.55491Z" fill="white"/>
<path d="M8.85118 14.138H4.62988L6.43348 13.2402H9.85628C9.87129 13.2402 9.88592 13.245 9.89807 13.2538C9.91023 13.2626 9.91929 13.275 9.92396 13.2893C9.92864 13.3035 9.92869 13.3189 9.9241 13.3332C9.91952 13.3475 9.91053 13.36 9.89843 13.3688L8.85118 14.138ZM5.05533 14.038H8.81843L9.76843 13.3402H6.45713L5.05533 14.038Z" fill="#371A45"/>
<path d="M8.73241 14.5596H4.19116C4.16748 14.5595 4.1445 14.5516 4.12586 14.5369C4.10723 14.5223 4.09401 14.5019 4.08831 14.4789L3.32451 11.3789C3.31682 11.3477 3.31633 11.3151 3.32309 11.2837C3.32985 11.2522 3.34367 11.2227 3.3635 11.1974C3.38334 11.1721 3.40868 11.1517 3.4376 11.1376C3.46651 11.1235 3.49825 11.1162 3.53041 11.1162H7.77001C7.83772 11.1162 7.90365 11.1378 7.95822 11.1779C8.01279 11.218 8.05314 11.2745 8.07341 11.3391C8.07551 11.3454 8.07741 11.3519 8.07891 11.3583L8.83526 14.4283C8.8391 14.4439 8.83933 14.4602 8.83596 14.4759C8.83258 14.4916 8.82568 14.5063 8.81577 14.519C8.80586 14.5316 8.79321 14.5419 8.77877 14.5489C8.76433 14.5559 8.74848 14.5596 8.73241 14.5596Z" fill="#3E8DFF"/>
<g opacity="0.3">
<path opacity="0.3" d="M8.73223 14.5597H4.19098C4.17685 14.5597 4.16286 14.5569 4.14984 14.5514C4.13682 14.5459 4.12505 14.5378 4.11523 14.5276C4.67198 14.5545 6.60708 14.5698 7.53113 13.5726C8.12283 12.9342 8.13238 11.934 8.07323 11.3389C8.07533 11.3452 8.07723 11.3517 8.07873 11.3581L8.83508 14.4281C8.83896 14.4437 8.83924 14.46 8.83588 14.4758C8.83252 14.4915 8.82563 14.5063 8.81572 14.519C8.8058 14.5316 8.79314 14.5419 8.77867 14.5489C8.76421 14.556 8.74833 14.5597 8.73223 14.5597Z" fill="#6B184E"/>
</g>
<g opacity="0.35">
<path opacity="0.35" d="M3.55671 11.4723L4.31746 14.5596H4.19116C4.16746 14.5596 4.14444 14.5517 4.1258 14.537C4.10715 14.5224 4.09395 14.5019 4.08831 14.4789L3.32451 11.3789C3.31682 11.3477 3.31633 11.3151 3.32309 11.2837C3.32985 11.2522 3.34367 11.2227 3.3635 11.1974C3.38334 11.1721 3.40868 11.1517 3.4376 11.1376C3.46651 11.1235 3.49825 11.1162 3.53041 11.1162H7.77001C7.8393 11.1162 7.90668 11.1388 7.96193 11.1807C8.01717 11.2225 8.05725 11.2812 8.07606 11.3479C8.06265 11.3461 8.04914 11.3452 8.03561 11.3452H3.65631C3.64075 11.3451 3.62539 11.3487 3.61139 11.3555C3.5974 11.3623 3.58514 11.3722 3.57554 11.3844C3.56594 11.3967 3.55925 11.411 3.55599 11.4262C3.55273 11.4414 3.55298 11.4572 3.55671 11.4723Z" fill="white"/>
</g>
<path d="M8.73148 14.6359H4.19028C4.14949 14.636 4.10986 14.6223 4.07775 14.5972C4.04564 14.572 4.02292 14.5368 4.01323 14.4971L3.24953 11.3973C3.23911 11.3549 3.23847 11.3106 3.24767 11.2678C3.25687 11.2251 3.27566 11.185 3.30263 11.1506C3.3296 11.1162 3.36404 11.0883 3.40335 11.0692C3.44266 11.05 3.48581 11.0401 3.52953 11.04H7.76918C7.85741 11.0399 7.94312 11.0694 8.01257 11.1238C8.08202 11.1782 8.13119 11.2544 8.15218 11.34L8.90858 14.41C8.91521 14.4369 8.91563 14.4649 8.90982 14.492C8.90402 14.519 8.89213 14.5444 8.87507 14.5662C8.858 14.5879 8.83621 14.6055 8.81133 14.6177C8.78645 14.6298 8.75915 14.636 8.73148 14.636V14.6359ZM3.52953 11.1925C3.50894 11.1925 3.48862 11.1972 3.4701 11.2062C3.45158 11.2153 3.43536 11.2284 3.42265 11.2446C3.40995 11.2608 3.40109 11.2797 3.39676 11.2998C3.39242 11.3199 3.39272 11.3408 3.39763 11.3608L4.16143 14.4608C4.16302 14.4672 4.16673 14.473 4.17196 14.4771C4.17719 14.4812 4.18364 14.4834 4.19028 14.4834H8.73148C8.736 14.4834 8.74045 14.4824 8.74451 14.4804C8.74856 14.4784 8.75212 14.4755 8.7549 14.472C8.75769 14.4684 8.75963 14.4643 8.76058 14.4599C8.76153 14.4555 8.76146 14.4509 8.76038 14.4465L8.00398 11.3765C7.99111 11.324 7.96095 11.2772 7.91833 11.2439C7.87571 11.2105 7.82311 11.1924 7.76898 11.1925H3.52953Z" fill="#371A45"/>
<g opacity="0.35">
<path opacity="0.35" d="M13.2232 13.6109L12.9137 14.6824H12.46L12.8924 13.6074L13.2232 13.6109Z" fill="#371A45"/>
</g>
<path d="M10.4459 13.5615L9.21191 14.6753C9.21191 14.6753 10.3119 14.6187 10.8219 14.6203C11.2381 14.6215 12.6303 14.7281 12.6303 14.7281L12.9541 13.6074L10.4459 13.5615Z" fill="white"/>
<path d="M12.6863 14.8094L12.6244 14.8047C12.6105 14.8036 11.2302 14.6983 10.8216 14.6971C10.3198 14.6961 9.22658 14.7516 9.21553 14.7521L9.00098 14.7632L10.4168 13.4854L13.0549 13.5335L12.6863 14.8094ZM10.8025 14.5444H10.822C11.191 14.5455 12.2965 14.6269 12.5741 14.6478L12.853 13.6824L10.4743 13.639L9.42148 14.5893C9.76238 14.5733 10.4287 14.5445 10.8025 14.5445V14.5444Z" fill="#371A45"/>
<path d="M11.1085 13.577C11.1089 13.7466 11.0758 13.9134 11.0123 14.0604L10.9859 14.1213C10.9559 14.1913 10.88 14.1913 10.8498 14.1213L10.8226 14.0582C10.7597 13.9127 10.7266 13.7475 10.7266 13.5794V11.8453C10.7266 11.7857 10.8109 11.7373 10.9151 11.7373C11.0192 11.7373 11.1034 11.7857 11.1034 11.8453C11.1034 11.8482 11.1032 11.851 11.1027 11.8539L11.1085 13.577Z" fill="#371A45"/>
<path d="M12.4288 14.4097C12.3241 14.408 12.2196 14.404 12.115 14.4011L11.8017 14.3886C11.5929 14.3783 11.3839 14.3718 11.1749 14.3657C10.966 14.3571 10.757 14.3507 10.5481 14.3442C10.4435 14.3403 10.3395 14.3396 10.2347 14.3377C10.13 14.3346 10.0254 14.3327 9.9209 14.3285C10.1301 14.3217 10.3389 14.3152 10.5486 14.3154C10.7583 14.3156 10.967 14.3226 11.1762 14.3282L11.4897 14.3415C11.5942 14.3458 11.6987 14.3515 11.803 14.3599L12.1161 14.3829C12.2204 14.3917 12.3246 14.3994 12.4288 14.4097Z" fill="#371A45"/>
<path d="M12.54 14.225C12.408 14.2235 12.2764 14.2196 12.145 14.2134C12.0792 14.2107 12.0135 14.2067 11.9478 14.2034C11.882 14.2 11.8164 14.1949 11.7508 14.1923L11.3566 14.173C11.2251 14.1673 11.0937 14.1597 10.9619 14.1561C11.0934 14.1451 11.2255 14.1429 11.3573 14.1437C11.4891 14.1446 11.6209 14.1487 11.7527 14.1549C11.8845 14.162 12.0156 14.1729 12.1469 14.1842C12.2782 14.1955 12.4092 14.2091 12.54 14.225Z" fill="#371A45"/>
<path d="M12.8749 10.166C12.8749 10.166 13.2245 10.9351 13.2835 11.808C13.3435 12.697 13.2565 13.9608 11.1863 13.7895C10.4606 13.7295 10.4959 13.421 10.4689 13.0572C10.4355 12.6065 10.487 12.0889 11.0139 12.0695C11.9657 12.0345 12.2499 11.8271 12.3852 11.2435" fill="white"/>
<g opacity="0.35">
<path opacity="0.35" d="M13.2914 12.3047C13.2514 13.0994 12.8911 13.9311 11.1864 13.7901C10.4605 13.7301 10.4958 13.4216 10.4689 13.0578C10.4506 12.811 10.4579 12.5443 10.5544 12.3503C10.5554 12.4039 10.558 12.4575 10.5621 12.5103C10.589 12.8739 10.5537 13.1824 11.2793 13.2424C12.5875 13.3505 13.1038 12.8858 13.2914 12.3047Z" fill="#371A45"/>
</g>
<path d="M12.1565 11.6388C12.1722 11.6059 12.1908 11.5756 12.2089 11.5438C12.2271 11.5121 12.2466 11.4809 12.265 11.4479C12.3022 11.382 12.3363 11.312 12.3765 11.2411C12.3777 11.2389 12.3797 11.2374 12.3821 11.2367C12.3845 11.236 12.387 11.2363 12.3892 11.2375C12.3905 11.2383 12.3916 11.2394 12.3925 11.2407C12.3933 11.242 12.3938 11.2436 12.3939 11.2451C12.3981 11.3271 12.39 11.4092 12.37 11.4888C12.3604 11.5295 12.3466 11.5692 12.3288 11.6071C12.3104 11.6449 12.2878 11.6817 12.2575 11.7121C12.2469 11.7226 12.233 11.7291 12.2182 11.7304C12.2033 11.7317 12.1885 11.7277 12.1763 11.7191C12.1641 11.7105 12.1553 11.6979 12.1515 11.6835C12.1477 11.6691 12.1491 11.6538 12.1555 11.6403L12.1565 11.6388Z" fill="#371A45"/>
<path d="M11.5449 13.8816C11.4287 13.8816 11.307 13.8763 11.1799 13.8658C10.4395 13.8045 10.4183 13.4658 10.3977 13.1382C10.3962 13.1135 10.3946 13.0885 10.3927 13.0632C10.3616 12.6423 10.4219 12.3532 10.5772 12.1798C10.6818 12.063 10.8277 12.0003 11.0108 11.9936C11.6163 11.9713 11.9358 11.8781 12.113 11.6716C12.1195 11.664 12.1274 11.6578 12.1364 11.6533C12.1453 11.6487 12.1551 11.646 12.1651 11.6453C12.1751 11.6445 12.1851 11.6457 12.1946 11.6489C12.2041 11.652 12.213 11.657 12.2206 11.6635C12.2282 11.67 12.2344 11.678 12.2389 11.6869C12.2434 11.6959 12.2462 11.7056 12.2469 11.7156C12.2477 11.7256 12.2465 11.7356 12.2433 11.7451C12.2402 11.7547 12.2352 11.7635 12.2287 11.7711C12.0205 12.0135 11.6693 12.1221 11.0164 12.1461C10.8743 12.1511 10.7679 12.1956 10.6909 12.2816C10.5648 12.4225 10.517 12.6745 10.545 13.0518C10.5469 13.0777 10.5485 13.1033 10.55 13.1286C10.57 13.4505 10.5835 13.6632 11.1924 13.7136C11.9524 13.7764 12.5029 13.6455 12.8289 13.3244C13.228 12.9313 13.2407 12.3104 13.2071 11.8133C13.1498 10.964 12.8087 10.2053 12.8053 10.1977C12.8011 10.1886 12.7988 10.1788 12.7985 10.1687C12.7981 10.1587 12.7998 10.1487 12.8033 10.1394C12.8068 10.13 12.8121 10.1214 12.819 10.1141C12.8258 10.1067 12.834 10.1008 12.8432 10.0967C12.8523 10.0925 12.8621 10.0902 12.8721 10.0899C12.8822 10.0895 12.8921 10.0912 12.9015 10.0947C12.9109 10.0982 12.9195 10.1036 12.9268 10.1104C12.9342 10.1172 12.9401 10.1255 12.9442 10.1346C12.9587 10.1665 13.3002 10.9264 13.3592 11.803C13.395 12.3326 13.3792 12.9965 12.9358 13.433C12.6338 13.7314 12.1667 13.8816 11.5449 13.8816Z" fill="#371A45"/>
<path d="M13.0002 13.3207H12.9969C12.9869 13.3202 12.9771 13.3178 12.968 13.3136C12.9589 13.3094 12.9507 13.3034 12.9439 13.296C12.9372 13.2886 12.9319 13.28 12.9285 13.2705C12.9251 13.2611 12.9235 13.2511 12.9239 13.2411C12.9782 11.9861 12.2039 11.7825 12.171 11.7744C12.1515 11.7695 12.1348 11.7571 12.1244 11.74C12.1139 11.7228 12.1107 11.7023 12.1154 11.6827C12.12 11.6632 12.1321 11.6463 12.1492 11.6356C12.1662 11.625 12.1867 11.6215 12.2063 11.6259C12.2163 11.6282 12.4481 11.685 12.6713 11.9172C12.8733 12.1272 13.1076 12.5289 13.0763 13.2477C13.0754 13.2673 13.0671 13.2858 13.0529 13.2994C13.0387 13.313 13.0199 13.3206 13.0002 13.3207Z" fill="#371A45"/>
<path d="M6.70541 12.1878C6.70351 12.1352 6.70246 12.0819 6.68441 12.0309C6.67901 12.0259 6.67401 12.0209 6.66861 12.0156C6.65281 12.0125 6.63721 12.0076 6.62106 12.0061C6.508 11.9935 6.39363 12.0005 6.28291 12.0265C6.13791 12.0615 6.00936 12.1272 5.90731 12.2383C5.87036 12.2783 5.83771 12.3223 5.80401 12.3652C5.79501 12.3768 5.78756 12.3822 5.77176 12.3777C5.7346 12.3677 5.6959 12.365 5.65771 12.3695C5.55496 12.3803 5.46886 12.427 5.39196 12.4931C5.30866 12.565 5.24616 12.6537 5.18956 12.747C5.16546 12.7866 5.18281 12.8241 5.22881 12.8323L5.31576 12.8467C5.38522 12.8581 5.45454 12.8695 5.52371 12.8809C5.5241 12.8823 5.52422 12.8837 5.52404 12.8852C5.52386 12.8867 5.52339 12.8881 5.52266 12.8894C5.50046 12.9289 5.51206 12.9607 5.54576 12.9871C5.54935 12.9902 5.55277 12.9935 5.55601 12.9971C5.57421 13.0148 5.59281 13.0327 5.61206 13.0511C5.59261 13.0714 5.57316 13.0891 5.55671 13.1094C5.54794 13.1202 5.54218 13.1331 5.54001 13.1469C5.53691 13.1682 5.55061 13.1875 5.57041 13.1955C5.57976 13.1999 5.59028 13.2013 5.60046 13.1994C5.61065 13.1975 5.61999 13.1925 5.62716 13.1851C5.64746 13.1655 5.66656 13.1446 5.68716 13.1234C5.71336 13.149 5.73816 13.1731 5.76301 13.1969C5.79146 13.2239 5.80866 13.2269 5.84406 13.2109C5.85046 13.2078 5.85691 13.2054 5.86456 13.2023C5.86626 13.2101 5.86786 13.2163 5.86906 13.2223C5.88816 13.3173 5.90691 13.412 5.92651 13.5064C5.93571 13.5514 5.97456 13.5672 6.01241 13.5414C6.04661 13.5185 6.08066 13.4946 6.11381 13.4696C6.19016 13.4118 6.25751 13.345 6.30681 13.2622C6.36841 13.158 6.39461 13.0481 6.35681 12.9287C6.35626 12.9257 6.35643 12.9227 6.3573 12.9198C6.35817 12.9169 6.35972 12.9142 6.36181 12.9121C6.39531 12.8826 6.43001 12.8544 6.46351 12.8248C6.53814 12.758 6.597 12.6756 6.63586 12.5833C6.69011 12.4572 6.71041 12.3246 6.70541 12.1878ZM5.56466 12.7823L5.31596 12.7408C5.38661 12.6387 5.46381 12.5473 5.57871 12.4962C5.62836 12.4742 5.68841 12.4662 5.72591 12.4754C5.67281 12.5771 5.61931 12.6788 5.56481 12.7823H5.56466ZM6.26676 13.0782C6.25676 13.1432 6.22721 13.1992 6.18831 13.2511C6.13991 13.315 6.08001 13.3661 6.01421 13.4146C5.99671 13.3275 5.97941 13.2422 5.96231 13.1588C6.06406 13.1004 6.16351 13.0438 6.26346 12.9862C6.27216 13.0149 6.27181 13.0466 6.26691 13.0782H6.26676ZM6.57726 12.4302C6.55491 12.5175 6.52051 12.5991 6.46481 12.6707C6.42176 12.7257 6.37056 12.7725 6.31571 12.8153C6.16696 12.9316 6.00221 13.0212 5.83211 13.1016C5.82381 13.1054 5.81841 13.1057 5.81146 13.0986C5.79646 13.0828 5.77986 13.0679 5.76411 13.0524C5.76276 13.0508 5.76165 13.049 5.76081 13.0471C5.76476 13.0427 5.76911 13.0384 5.77346 13.0339C5.86346 12.9405 5.95381 12.8473 6.04371 12.7539C6.06976 12.7271 6.06526 12.6886 6.03471 12.6705C6.01336 12.6579 5.98836 12.6619 5.96891 12.6817C5.91474 12.7375 5.86071 12.7935 5.80681 12.8495C5.76651 12.8912 5.72681 12.9326 5.68476 12.976C5.66531 12.9573 5.64676 12.9403 5.62976 12.9221C5.62681 12.9188 5.62786 12.9092 5.63046 12.9042C5.67246 12.8151 5.71396 12.7257 5.75841 12.6377C5.80241 12.5505 5.85464 12.4678 5.91441 12.3906C5.97031 12.3175 6.03281 12.251 6.11351 12.2048C6.16488 12.175 6.21998 12.1522 6.27736 12.137C6.28236 12.1354 6.29111 12.1396 6.29561 12.1439C6.36676 12.212 6.43721 12.2802 6.50786 12.3486C6.52906 12.3689 6.55006 12.3897 6.57176 12.4097C6.57467 12.4121 6.57677 12.4154 6.57775 12.419C6.57874 12.4227 6.57856 12.4266 6.57726 12.4302ZM6.59636 12.3172C6.52591 12.249 6.45716 12.1827 6.38826 12.116C6.38826 12.1143 6.38826 12.1122 6.38826 12.1103C6.45646 12.1082 6.52486 12.1063 6.59396 12.1042C6.6029 12.1749 6.60371 12.2464 6.59636 12.3173V12.3172Z" fill="#371A45"/>
<path d="M6.57074 12.4097C6.54904 12.3897 6.52803 12.3689 6.50683 12.3486C6.43618 12.2802 6.36574 12.212 6.29459 12.144C6.29009 12.1396 6.28154 12.1355 6.27634 12.1371C6.21896 12.1523 6.16386 12.1751 6.11248 12.2049C6.03178 12.2511 5.96929 12.3176 5.91339 12.3907C5.85362 12.4679 5.80138 12.5506 5.75739 12.6378C5.71294 12.7258 5.67144 12.8152 5.62944 12.9043C5.62684 12.9093 5.62578 12.9189 5.62873 12.9222C5.64593 12.9404 5.66448 12.9571 5.68373 12.9761C5.72558 12.9327 5.76549 12.8911 5.80579 12.8496C5.85972 12.7935 5.91375 12.7376 5.96789 12.6818C5.98734 12.6618 6.01233 12.658 6.03368 12.6706C6.06423 12.6887 6.06869 12.7272 6.04269 12.7539C5.95269 12.8475 5.86233 12.9407 5.77243 13.0339C5.76808 13.0384 5.76374 13.0428 5.75979 13.0472C5.76063 13.0491 5.76174 13.0509 5.76308 13.0525C5.77883 13.0679 5.79534 13.0829 5.81044 13.0987C5.81739 13.1058 5.82279 13.1054 5.83109 13.1016C6.00109 13.0213 6.16609 12.9316 6.31469 12.8154C6.36969 12.7725 6.42074 12.7259 6.46378 12.6708C6.51948 12.5992 6.55378 12.5175 6.57623 12.4302C6.57754 12.4267 6.57771 12.4228 6.57673 12.4191C6.57574 12.4155 6.57365 12.4122 6.57074 12.4097ZM6.40998 12.5543C6.39388 12.5713 6.37458 12.5849 6.35318 12.5944C6.33179 12.6038 6.30873 12.609 6.28534 12.6095C6.26195 12.61 6.23868 12.6059 6.21689 12.5974C6.1951 12.5888 6.17522 12.5761 6.15838 12.5598C6.14154 12.5436 6.12809 12.5242 6.1188 12.5027C6.10951 12.4812 6.10457 12.4581 6.10425 12.4347C6.10394 12.4113 6.10826 12.3881 6.11696 12.3664C6.12567 12.3447 6.13859 12.3249 6.15498 12.3082C6.22178 12.2386 6.33409 12.237 6.40459 12.3047C6.47509 12.3724 6.47698 12.4858 6.40998 12.5543Z" fill="white"/>
<path d="M6.5958 12.3174C6.5253 12.2493 6.45655 12.1829 6.3877 12.1163C6.3877 12.1145 6.3877 12.1125 6.3877 12.1106C6.45595 12.1086 6.52435 12.1066 6.5935 12.1045C6.6024 12.1752 6.60317 12.2466 6.5958 12.3174Z" fill="#DB2C2C"/>
<path d="M5.72548 12.4754C5.67208 12.577 5.61863 12.6788 5.56423 12.7823C5.48388 12.7688 5.40078 12.755 5.31543 12.7408C5.38613 12.6386 5.46333 12.5471 5.57823 12.4962C5.62783 12.4741 5.68783 12.4663 5.72548 12.4754Z" fill="#DB2C2C"/>
<path d="M6.18786 13.2513C6.13941 13.3152 6.07966 13.3663 6.01376 13.4147C5.9962 13.3277 5.97891 13.2424 5.96191 13.1589L6.26316 12.9863C6.27166 13.015 6.27121 13.0467 6.26646 13.0784C6.25636 13.1434 6.22686 13.1994 6.18786 13.2513Z" fill="#DB2C2C"/>
<path d="M6.40484 12.3047C6.33434 12.237 6.22204 12.2385 6.15524 12.3081C6.13885 12.3248 6.12593 12.3446 6.11722 12.3663C6.10851 12.388 6.10419 12.4112 6.10451 12.4346C6.10482 12.458 6.10977 12.4811 6.11906 12.5026C6.12835 12.5241 6.1418 12.5435 6.15864 12.5598C6.17547 12.576 6.19536 12.5888 6.21715 12.5973C6.23894 12.6058 6.2622 12.6099 6.2856 12.6094C6.30899 12.6089 6.33205 12.6037 6.35344 12.5943C6.37483 12.5848 6.39414 12.5712 6.41024 12.5542C6.47724 12.4857 6.47484 12.372 6.40484 12.3047ZM6.34809 12.4975C6.33506 12.5104 6.3185 12.5192 6.30048 12.5228C6.28247 12.5263 6.2638 12.5245 6.24683 12.5175C6.22986 12.5105 6.21534 12.4986 6.20509 12.4833C6.19484 12.4681 6.18932 12.4502 6.18922 12.4318C6.18912 12.4135 6.19445 12.3955 6.20454 12.3801C6.21463 12.3648 6.22903 12.3528 6.24593 12.3456C6.26282 12.3384 6.28147 12.3363 6.29952 12.3397C6.31757 12.3431 6.33423 12.3517 6.34739 12.3645C6.35619 12.3732 6.36319 12.3835 6.36799 12.3949C6.37279 12.4063 6.3753 12.4185 6.37537 12.4308C6.37544 12.4432 6.37307 12.4554 6.3684 12.4669C6.36373 12.4783 6.35684 12.4887 6.34814 12.4975H6.34809Z" fill="#371A45"/>
<path d="M6.34835 12.4972C6.33533 12.5101 6.31877 12.519 6.30075 12.5225C6.28274 12.5261 6.26407 12.5242 6.2471 12.5172C6.23012 12.5102 6.21559 12.4984 6.20534 12.4831C6.19508 12.4679 6.18956 12.45 6.18945 12.4316C6.18935 12.4133 6.19467 12.3953 6.20476 12.3799C6.21484 12.3646 6.22923 12.3525 6.24613 12.3453C6.26302 12.3381 6.28167 12.3361 6.29972 12.3395C6.31777 12.3428 6.33443 12.3515 6.3476 12.3642C6.3564 12.3729 6.3634 12.3832 6.3682 12.3946C6.373 12.406 6.37551 12.4182 6.37558 12.4306C6.37565 12.4429 6.37328 12.4552 6.36861 12.4666C6.36393 12.478 6.35705 12.4884 6.34835 12.4972Z" fill="#22A7F0"/>
</g>
<defs>
<clipPath id="clip0_2268_24550">
<rect width="20" height="20" rx="2" fill="white"/>
</clipPath>
</defs>
</svg>
