<svg width="20" height="20" viewBox="0 0 20 20" fill="none" xmlns="http://www.w3.org/2000/svg">
<path d="M19.1667 14.92V17.92C19.1677 18.1985 19.1154 18.4741 19.0131 18.7293C18.9109 18.9845 18.7609 19.2136 18.5727 19.4018C18.3846 19.5901 18.1625 19.7335 17.9207 19.8227C17.6789 19.9119 17.4226 19.945 17.1683 19.92C14.3476 19.5856 11.6381 18.5341 9.2575 16.85C7.04268 15.3146 5.1649 13.2661 3.7575 10.85C2.20832 8.24118 1.24423 5.27097 0.943338 2.17998C0.920431 1.90344 0.950557 1.62474 1.0318 1.3616C1.11304 1.09846 1.24361 0.856664 1.41521 0.651596C1.5868 0.446528 1.79566 0.282684 2.02848 0.170497C2.2613 0.0583095 2.51298 0.000236361 2.76751 -2.5118e-05H5.51751C5.96237 -0.00480156 6.39365 0.167053 6.73095 0.483508C7.06826 0.799962 7.28858 1.23942 7.35084 1.71998C7.46691 2.68004 7.68217 3.6227 7.99251 4.52998C8.11584 4.8879 8.14253 5.27689 8.06942 5.65086C7.99631 6.02482 7.82646 6.36809 7.58 6.63998L6.41584 7.90998C7.72076 10.4135 9.62092 12.4864 11.9158 13.91L13.08 12.64C13.3292 12.3711 13.6439 12.1858 13.9867 12.1061C14.3295 12.0263 14.6861 12.0554 15.0142 12.19C15.8458 12.5285 16.7099 12.7634 17.59 12.89C18.0353 12.9585 18.442 13.2032 18.7327 13.5775C19.0234 13.9518 19.1778 14.4296 19.1667 14.92Z" fill="#001636" fill-opacity="0.8"/>
</svg>
