<svg width="20" height="20" viewBox="0 0 20 20" fill="none" xmlns="http://www.w3.org/2000/svg">
<rect width="20" height="20" rx="2" fill="#C5C5FF"/>
<path d="M20 0H0V20H20V0Z" fill="#9ED0FF"/>
<path d="M11.2077 15.3968C10.8624 15.5103 10.1884 15.3361 10.1225 14.7055C10.0704 14.2085 10.3079 13.6594 10.3079 13.6594C10.3079 13.6594 10.1768 13.3703 10.2004 12.9317C10.224 12.4913 10.4035 11.9 11.0279 11.2988L12.9119 11.8158C12.3741 12.5883 11.9859 13.4284 11.9008 14.0592C11.886 14.169 11.8696 14.2746 11.8506 14.3748C11.7526 14.8924 11.5861 15.2725 11.2077 15.3968Z" fill="white"/>
<g opacity="0.35">
<path opacity="0.35" d="M10.2277 13.3511C10.2277 13.3511 10.2265 13.3538 10.2242 13.3589C10.2226 13.3501 10.2211 13.3412 10.2197 13.332C10.2249 13.3447 10.2277 13.3511 10.2277 13.3511Z" fill="#371A45"/>
</g>
<g opacity="0.35">
<path opacity="0.35" d="M11.2079 15.3959C10.8626 15.5093 10.1886 15.3351 10.1227 14.7046C10.1216 14.693 10.1206 14.6814 10.1195 14.6699C10.3202 15.0766 10.839 15.183 11.128 15.0881C11.3348 15.0201 11.4785 14.8756 11.5821 14.6739C11.7548 14.338 11.6216 13.9233 11.286 13.75L11.277 13.7455C10.745 13.4752 10.4102 13.1824 10.2004 12.9308C10.224 12.4904 10.4035 11.899 11.0279 11.2978L12.6705 11.7486L12.9117 11.8147C12.3738 12.5872 11.9857 13.4273 11.9006 14.0581C11.8858 14.1679 11.8694 14.2735 11.8504 14.3738C11.7529 14.8914 11.5863 15.2716 11.2079 15.3959Z" fill="#371A45"/>
</g>
<path d="M10.556 15.4215C10.5106 15.401 10.4668 15.3771 10.425 15.3501C10.2689 15.2489 10.0749 15.0564 10.039 14.7143C9.99211 14.2663 10.1659 13.7884 10.2173 13.6591C10.1821 13.5663 10.0963 13.2968 10.1168 12.9246C10.1397 12.5079 10.3062 11.8772 10.9697 11.2383C10.9858 11.2228 11.0074 11.2144 11.0297 11.2148C11.052 11.2152 11.0732 11.2245 11.0886 11.2406C11.1041 11.2566 11.1125 11.2782 11.1121 11.3005C11.1117 11.3228 11.1024 11.344 11.0864 11.3595C10.5951 11.8324 10.3181 12.3736 10.2851 12.9247C10.2602 13.3415 10.3834 13.6221 10.3847 13.6249C10.3896 13.6355 10.3921 13.6471 10.3923 13.6588C10.3924 13.6705 10.3901 13.6821 10.3855 13.6928C10.3832 13.6981 10.1575 14.2285 10.2065 14.697C10.2354 14.973 10.3912 15.1278 10.5166 15.2093C10.7466 15.3582 11.0226 15.3697 11.1818 15.3174C11.5853 15.185 11.7279 14.7143 11.8178 14.0485C11.9025 13.421 12.2859 12.5686 12.8434 11.7682C12.8496 11.7589 12.8576 11.7508 12.8669 11.7446C12.8762 11.7384 12.8867 11.7341 12.8977 11.732C12.9087 11.7299 12.92 11.73 12.931 11.7324C12.942 11.7347 12.9523 11.7392 12.9615 11.7456C12.9707 11.752 12.9786 11.7602 12.9846 11.7696C12.9906 11.7791 12.9946 11.7897 12.9964 11.8008C12.9983 11.8118 12.9979 11.8231 12.9953 11.834C12.9927 11.8449 12.988 11.8552 12.9813 11.8643C12.4384 12.6438 12.0657 13.4687 11.9844 14.071C11.886 14.7995 11.7208 15.3174 11.2342 15.4772C11.0626 15.5331 10.8007 15.5322 10.556 15.4215Z" fill="#371A45"/>
<path d="M14.2942 10.9154L14.6156 10.3813C14.8119 9.97276 15.1327 9.38542 14.4284 8.77056C13.6158 8.06104 12.3573 7.60711 11.9524 7.62291C11.2827 7.64894 10.2375 9.05536 10.2375 9.05536L14.2942 10.9154Z" fill="white"/>
<path d="M14.6156 10.3813L14.5337 10.5173L14.2942 10.9155L10.3416 9.10304L10.2375 9.05536C10.2375 9.05536 10.2425 9.04848 10.2522 9.03594C10.2782 9.00151 10.3382 8.92395 10.4225 8.82173C10.7525 8.42063 11.4557 7.64218 11.9524 7.62296C12.3572 7.60713 13.6157 8.06098 14.4284 8.77045C15.1326 9.38544 14.8119 9.9728 14.6156 10.3813Z" fill="white"/>
<g opacity="0.35">
<path opacity="0.35" d="M14.5342 10.517L14.2946 10.9152L10.342 9.10274L10.2525 9.03561C10.2786 9.00119 10.3386 8.92363 10.4228 8.82141L11.1723 8.63642L11.7165 8.01855C11.7165 8.01855 11.7843 8.5486 12.1211 8.77763C12.9453 9.33816 13.6072 9.24518 14.1011 9.67649C14.4354 9.96826 14.5388 10.2538 14.5342 10.517Z" fill="#371A45"/>
</g>
<path d="M14.3266 11.0233L10.1072 9.08855L10.1691 9.0053C10.2128 8.94653 11.2464 7.56625 11.9483 7.53904C12.4095 7.52109 13.6771 8.00373 14.4828 8.70729C15.2107 9.34278 14.9104 9.96332 14.7117 10.374L14.6868 10.4248L14.3266 11.0233ZM10.367 9.02278L14.26 10.8078L14.5407 10.3414L14.5603 10.3008C14.7574 9.89266 15.0032 9.38485 14.3722 8.83392C13.5549 8.12024 12.3251 7.69255 11.9547 7.707C11.4726 7.72572 10.6984 8.59668 10.367 9.02278Z" fill="#371A45"/>
<path d="M12.6084 10.2034C12.6001 10.1996 12.5928 10.1937 12.5872 10.1864C12.5817 10.1791 12.5781 10.1705 12.5767 10.1614C12.5754 10.1523 12.5763 10.143 12.5795 10.1344C12.5826 10.1258 12.5879 10.1181 12.5948 10.112C13.1503 9.6239 13.5767 8.42848 13.4427 8.15582C13.4237 8.11701 13.3964 8.10486 13.3492 8.1141C13.3349 8.11688 13.3201 8.11385 13.308 8.10569C13.2959 8.09754 13.2876 8.08492 13.2848 8.07061C13.2821 8.0563 13.2851 8.04148 13.2932 8.0294C13.3014 8.01733 13.314 8.00899 13.3283 8.00621C13.4245 7.9876 13.5002 8.02353 13.5414 8.10743C13.7092 8.44939 13.2399 9.69156 12.6671 10.1945C12.6592 10.2014 12.6495 10.206 12.6391 10.2075C12.6287 10.2091 12.618 10.2076 12.6084 10.2034Z" fill="#371A45"/>
<path d="M12.9138 10.3404C12.9054 10.3366 12.8981 10.3307 12.8926 10.3234C12.887 10.3161 12.8834 10.3075 12.8821 10.2984C12.8807 10.2893 12.8817 10.28 12.8848 10.2714C12.888 10.2628 12.8933 10.2551 12.9002 10.249C13.4547 9.76191 13.8541 8.5917 13.717 8.30773C13.6981 8.26853 13.6722 8.25594 13.6279 8.26382C13.6135 8.26633 13.5988 8.26308 13.5869 8.25476C13.575 8.24645 13.5669 8.23375 13.5643 8.21945C13.5617 8.20515 13.5649 8.19041 13.5732 8.17846C13.5814 8.16651 13.5941 8.15833 13.6084 8.15569C13.7017 8.13886 13.7754 8.17592 13.816 8.25997C13.9833 8.60677 13.5314 9.84067 12.9726 10.3317C12.9647 10.3387 12.9549 10.3432 12.9445 10.3447C12.934 10.3462 12.9234 10.3447 12.9138 10.3404Z" fill="#371A45"/>
<path d="M13.1562 10.4508C13.1478 10.447 13.1406 10.4412 13.135 10.4339C13.1295 10.4265 13.1259 10.4179 13.1245 10.4088C13.1232 10.3998 13.1241 10.3905 13.1273 10.3819C13.1305 10.3732 13.1357 10.3655 13.1426 10.3595C13.6958 9.87337 14.0993 8.72365 13.9648 8.44928C13.9447 8.40835 13.9162 8.39578 13.8667 8.40494C13.8595 8.40677 13.8519 8.4071 13.8445 8.40591C13.8371 8.40472 13.8301 8.40203 13.8238 8.39801C13.8175 8.39399 13.812 8.38873 13.8078 8.38254C13.8036 8.37635 13.8007 8.36937 13.7993 8.36203C13.7979 8.35468 13.798 8.34712 13.7996 8.33982C13.8013 8.33251 13.8043 8.32562 13.8087 8.31955C13.8131 8.31348 13.8187 8.30837 13.8251 8.30453C13.8315 8.30069 13.8386 8.2982 13.8461 8.29722C13.9443 8.27816 14.0217 8.3149 14.0641 8.40084C14.2328 8.74485 13.7862 9.94072 13.2158 10.442C13.2078 10.4491 13.1979 10.4537 13.1873 10.4553C13.1767 10.4568 13.1659 10.4553 13.1562 10.4508Z" fill="#371A45"/>
<path d="M12.3709 10.0959C12.3625 10.0921 12.3552 10.0863 12.3497 10.079C12.3441 10.0716 12.3405 10.063 12.3392 10.0539C12.3378 10.0448 12.3388 10.0356 12.342 10.0269C12.3451 10.0183 12.3504 10.0106 12.3573 10.0046C12.9128 9.51647 13.3392 8.32105 13.2052 8.04839C13.1862 8.00958 13.1589 7.99743 13.1117 8.00667C13.0977 8.00863 13.0836 8.00515 13.0721 7.99695C13.0606 7.98875 13.0528 7.97645 13.0501 7.96261C13.0475 7.94876 13.0502 7.93443 13.0579 7.92257C13.0655 7.91071 13.0774 7.90224 13.0911 7.8989C13.1873 7.88028 13.263 7.91621 13.3039 7.99999C13.4717 8.34198 13.0024 9.58416 12.4296 10.0871C12.4217 10.094 12.4119 10.0985 12.4015 10.1001C12.3911 10.1017 12.3805 10.1002 12.3709 10.0959Z" fill="#371A45"/>
<path d="M8.42414 10.9801C8.42414 10.9801 8.34035 11.0538 8.18763 11.1471C8.10502 11.1975 8.01967 11.2432 7.93198 11.2841C7.83272 11.3306 7.7306 11.3708 7.62622 11.4044C7.31537 11.5059 6.98757 11.5452 6.66153 11.5201C5.82537 11.4548 5.26009 10.9097 5.01021 10.6318C4.52775 10.095 4.44468 9.94396 4.52737 9.68199C4.5908 9.48145 4.73526 9.42821 4.73526 9.42821C4.73526 9.42821 4.70881 9.27751 4.82216 9.20895C5.16151 9.00237 5.67857 9.37596 5.67857 9.37596C5.67857 9.37596 5.63816 8.90996 5.89977 8.98631C6.07988 9.03874 6.18174 9.53884 6.18174 9.53884C6.18174 9.53884 6.33471 9.69175 6.5696 9.76289C6.64988 9.78787 6.73361 9.79997 6.81768 9.79875C7.01083 9.79541 7.26739 9.70735 7.51947 9.59418C7.71681 9.50557 7.91117 9.40206 8.0702 9.31159C8.28721 9.18811 8.43764 9.08958 8.43764 9.08958L8.43271 9.76911L8.43073 10.0664L8.42414 10.9801Z" fill="white"/>
<path d="M5.90406 11.4086C5.56102 11.2535 5.23797 11.0111 4.94758 10.6882C4.459 10.1448 4.34913 9.96673 4.44705 9.65686C4.49585 9.50235 4.58791 9.41993 4.64814 9.38045C4.65029 9.30095 4.67967 9.19732 4.77847 9.13725C5.05128 8.9714 5.4056 9.12013 5.59507 9.22535C5.60381 9.12569 5.63194 9.0063 5.71153 8.94101C5.75141 8.90859 5.82046 8.87568 5.92305 8.90555C6.12414 8.9643 6.2286 9.36228 6.25805 9.49491C6.31925 9.54825 6.53774 9.71943 6.81593 9.71462C7.33632 9.70555 8.38092 9.02593 8.39161 9.01916C8.40433 9.01083 8.41908 9.00611 8.43428 9.0055C8.44948 9.00489 8.46456 9.00842 8.47791 9.01571C8.49126 9.02299 8.50239 9.03377 8.5101 9.04687C8.51781 9.05998 8.52182 9.07494 8.5217 9.09015L8.50827 10.9811C8.50825 10.993 8.50571 11.0047 8.50082 11.0156C8.49592 11.0264 8.48878 11.036 8.47986 11.0439C8.44995 11.0703 7.73427 11.6887 6.65546 11.6045C6.3955 11.5835 6.14122 11.5172 5.90406 11.4086ZM5.40273 9.31672C5.24115 9.24366 5.02527 9.18389 4.86583 9.28086C4.80381 9.31859 4.81791 9.41376 4.81795 9.41466C4.82099 9.43394 4.81729 9.45368 4.80748 9.47055C4.79767 9.48742 4.78234 9.50039 4.76409 9.50729C4.76077 9.50862 4.65626 9.55231 4.60721 9.70752C4.54179 9.91454 4.57894 10.0269 5.07228 10.5757C5.53807 11.0937 6.08973 11.3913 6.66788 11.4363C7.55879 11.5058 8.20058 11.0492 8.33995 10.9401L8.35252 9.24257C8.04523 9.43154 7.27627 9.8749 6.81908 9.88284C6.41863 9.88982 6.1342 9.61025 6.12232 9.59832C6.11065 9.58668 6.10268 9.57187 6.09939 9.55573C6.05492 9.33817 5.95449 9.09028 5.87633 9.06704C5.83695 9.05554 5.82381 9.06632 5.81821 9.07091C5.76645 9.11328 5.75424 9.27374 5.7623 9.36888C5.76365 9.38491 5.76038 9.40099 5.75287 9.41522C5.74536 9.42945 5.73393 9.44122 5.71993 9.44915C5.70593 9.45707 5.68996 9.46082 5.67389 9.45995C5.65783 9.45907 5.64236 9.45361 5.6293 9.4442C5.55766 9.39514 5.48185 9.35249 5.40273 9.31672Z" fill="#371A45"/>
<path d="M5.74967 9.36696C5.75101 9.41126 5.73778 9.44123 5.72697 9.46724C5.71615 9.49325 5.70334 9.51419 5.69209 9.53572C5.66942 9.57609 5.65115 9.61878 5.63761 9.66306C5.62506 9.70803 5.61944 9.75465 5.62094 9.80132C5.62096 9.84925 5.63126 9.89705 5.64257 9.94511C5.62017 9.90149 5.59785 9.85615 5.58535 9.80667C5.57139 9.75653 5.56512 9.70455 5.56676 9.65253C5.56941 9.60017 5.57769 9.54824 5.59144 9.49765C5.59744 9.47337 5.60403 9.44917 5.6076 9.42846C5.61116 9.40775 5.61109 9.38962 5.6073 9.38475C5.5995 9.37491 5.59415 9.36334 5.59168 9.35102C5.58922 9.3387 5.58972 9.32597 5.59313 9.31388C5.59655 9.30179 5.60279 9.29068 5.61134 9.28148C5.61989 9.27227 5.6305 9.26522 5.64231 9.26092C5.65411 9.25661 5.66677 9.25517 5.67924 9.25671C5.69171 9.25826 5.70363 9.26274 5.71403 9.26979C5.72443 9.27684 5.73301 9.28626 5.73906 9.29728C5.7451 9.30829 5.74845 9.32059 5.74881 9.33315L5.74967 9.36696Z" fill="#371A45"/>
<path d="M6.63202 11.5852C6.62034 11.5799 6.61029 11.5715 6.60292 11.561C6.59554 11.5506 6.59111 11.5383 6.59008 11.5255C6.58905 11.5127 6.59146 11.4999 6.59706 11.4884C6.60267 11.4768 6.61126 11.467 6.62194 11.4599C6.99389 11.2131 6.89786 10.1817 6.82944 9.80516C6.82604 9.78642 6.83021 9.76709 6.84106 9.75142C6.8519 9.73576 6.86852 9.72505 6.88726 9.72164C6.90601 9.71823 6.92533 9.72241 6.941 9.73325C6.95666 9.74409 6.96738 9.76071 6.97078 9.77946C6.98153 9.83854 7.22794 11.2302 6.7014 11.5796C6.69126 11.5863 6.67957 11.5904 6.66743 11.5913C6.6553 11.5923 6.64311 11.5902 6.63202 11.5852Z" fill="#371A45"/>
<path d="M13.8304 13.7532C13.1153 14.1406 11.9899 13.4251 10.6776 12.7748C10.623 12.7478 10.5681 12.7209 10.5128 12.694C9.96333 12.428 9.47622 12.1661 9.07242 11.8993L9.04652 11.8821C8.68791 11.6431 8.39664 11.4 8.18754 11.1469C7.96237 10.8742 7.83287 10.5898 7.81741 10.2858L8.43042 10.066L11.2392 9.05862C11.2392 9.05862 11.4741 9.07514 11.8224 9.15205C12.6517 9.33511 14.1234 9.86126 14.5965 11.3263C15.0041 12.5874 14.4771 13.4027 13.8304 13.7532Z" fill="white"/>
<path d="M12.1442 13.6023C11.8541 13.4711 11.5476 13.3136 11.228 13.1491C10.9849 13.0241 10.7336 12.8948 10.4759 12.7701C9.08225 12.0952 7.78547 11.3277 7.73328 10.2903C7.73237 10.2723 7.73728 10.2544 7.7473 10.2394C7.75731 10.2244 7.7719 10.213 7.78889 10.2069L11.2107 8.97939C11.2216 8.97546 11.2333 8.97386 11.2449 8.97469C11.2729 8.9766 11.9384 9.02598 12.6975 9.33432C13.7096 9.74574 14.3939 10.4254 14.6766 11.3003C15.1001 12.6117 14.5377 13.4655 13.8702 13.8273C13.4179 14.0725 12.8271 13.9111 12.1442 13.6023ZM7.90606 10.3435C8.00615 11.2674 9.29442 12.0112 10.5491 12.6188C10.8086 12.7444 11.0609 12.8742 11.3049 12.9996C12.3345 13.5292 13.2235 13.9864 13.79 13.6797C14.3982 13.3501 14.9084 12.5656 14.5165 11.3522C14.2462 10.5156 13.6145 9.88989 12.6384 9.49208C11.9693 9.21942 11.3587 9.15386 11.2501 9.14403L7.90606 10.3435Z" fill="#371A45"/>
<path d="M10.9514 12.0727C11.2888 12.2395 12.0429 12.607 12.4458 12.762C12.5532 12.8034 12.607 12.9243 12.5663 13.0343C12.501 13.2109 12.3842 13.4432 12.2092 13.4986C11.8916 13.5991 10.9226 13.2282 10.62 12.932C10.4166 12.7329 10.5569 12.3781 10.6723 12.1647C10.727 12.0634 10.85 12.0225 10.9514 12.0727Z" fill="white"/>
<g opacity="0.35">
<path opacity="0.35" d="M11.3048 12.4146L12.1291 12.8721C12.1291 12.8721 11.9989 13.0817 12.1159 13.1286C12.2752 13.1925 12.5906 12.969 12.5665 13.0339C12.5012 13.2106 12.3845 13.4429 12.2095 13.4983C11.8919 13.5988 10.9229 13.2279 10.6202 12.9317C10.4168 12.7325 10.5571 12.3777 10.6725 12.1644C10.7163 12.0833 10.6889 12.4139 10.9584 12.5388C11.1983 12.6502 11.3048 12.4146 11.3048 12.4146Z" fill="#371A45"/>
</g>
<path d="M11.1195 13.3357C10.8856 13.23 10.6779 13.1063 10.5612 12.992C10.3791 12.8138 10.3922 12.5058 10.5983 12.1246C10.6751 11.9828 10.8463 11.9263 10.9887 11.9973C11.3012 12.1518 12.0719 12.5281 12.476 12.6836C12.6256 12.741 12.7013 12.9116 12.6452 13.0634C12.5715 13.2625 12.4405 13.5136 12.2346 13.5787C12.0122 13.6491 11.5263 13.5197 11.1195 13.3357ZM10.9103 12.1461C10.8503 12.119 10.7788 12.1441 10.7463 12.2044C10.6494 12.3835 10.5121 12.7083 10.6789 12.8717C10.974 13.1606 11.9165 13.5028 12.184 13.4182C12.2943 13.3835 12.4019 13.2366 12.4876 13.0049C12.5125 12.9376 12.4808 12.8654 12.4158 12.84C12.0053 12.682 11.2289 12.3033 10.9144 12.1475L10.9104 12.1457L10.9103 12.1461Z" fill="#371A45"/>
<path d="M8.8457 10.6123C8.86929 10.6233 8.89135 10.6373 8.91131 10.654L8.8457 10.6123Z" fill="white"/>
<path d="M9.99071 13.8758C9.60141 14.3217 9.40871 14.7611 8.89561 14.6241C8.00223 14.3853 8.0447 13.4334 8.46955 12.7491C8.55318 12.6146 8.65734 12.4904 8.74825 12.3617C8.85857 12.2055 8.96127 12.0503 9.03894 11.8989C9.0413 11.8937 9.04416 11.8883 9.04699 11.8832C9.11141 11.7547 9.15737 11.6289 9.17423 11.5074C9.22089 11.173 9.08703 10.798 8.91211 10.6543L10.4032 11.5986L10.9082 11.9182C10.871 12.2194 10.7893 12.5077 10.6781 12.7759C10.5028 13.1987 10.2544 13.5737 9.99071 13.8758Z" fill="white"/>
<g opacity="0.35">
<path opacity="0.35" d="M9.99021 13.8749C9.60091 14.3208 9.40821 14.7602 8.89511 14.6232C8.1614 14.4271 8.05895 13.7498 8.28119 13.1349C8.23995 13.6056 8.43138 14.0385 8.99382 14.1886C9.50705 14.3256 9.69973 13.8862 10.0889 13.4402C10.3527 13.1379 10.601 12.7631 10.7761 12.3402C10.8214 12.2311 10.861 12.1197 10.8949 12.0065C10.8535 12.2703 10.7804 12.5282 10.6774 12.7746C10.5023 13.1978 10.2539 13.5728 9.99021 13.8749Z" fill="#371A45"/>
</g>
<path d="M8.85652 10.5867C8.90478 10.5983 8.94982 10.6206 8.98827 10.652C9.00729 10.6671 9.02533 10.6833 9.04227 10.7007C9.05753 10.7187 9.07478 10.7362 9.08857 10.7555C9.14611 10.8316 9.1855 10.9177 9.21494 11.006C9.27512 11.1851 9.28769 11.3768 9.25141 11.5622C9.23283 11.656 9.20089 11.7437 9.16411 11.8272C9.12748 11.9097 9.08603 11.9899 9.03996 12.0675C8.9947 12.1444 8.94637 12.2187 8.89722 12.2917L8.82224 12.4001C8.79688 12.4363 8.77031 12.4724 8.74413 12.5074C8.69155 12.5775 8.63909 12.6454 8.59138 12.7144C8.54417 12.783 8.50131 12.8545 8.46305 12.9285C8.3861 13.076 8.32901 13.233 8.29329 13.3954C8.25878 13.5564 8.24947 13.723 8.277 13.8808C8.30453 14.0386 8.37233 14.186 8.48041 14.2985C8.58849 14.4109 8.73193 14.4899 8.88844 14.534C8.96584 14.558 9.04131 14.5691 9.11484 14.5632C9.18836 14.5574 9.25682 14.5323 9.32115 14.4926C9.45008 14.4104 9.55752 14.2766 9.66458 14.1429C9.71822 14.0754 9.77166 14.0064 9.8274 13.9382C9.85542 13.9041 9.88346 13.87 9.9126 13.8365L9.99572 13.7386C10.2132 13.4765 10.396 13.1876 10.5397 12.8788C10.5584 12.8407 10.5741 12.8013 10.591 12.7624C10.6079 12.7235 10.6231 12.6839 10.6381 12.6442L10.66 12.5847L10.6789 12.5239L10.6975 12.4629C10.7035 12.4426 10.7081 12.422 10.7139 12.4017C10.7609 12.2386 10.7982 12.077 10.8795 11.9144L10.8796 11.9143C10.8831 11.9072 10.8893 11.9019 10.8967 11.8994C10.9041 11.8969 10.9123 11.8975 10.9193 11.901C10.9233 11.903 10.9268 11.9059 10.9296 11.9095C10.9324 11.913 10.9343 11.9172 10.9352 11.9216C10.9728 12.1035 10.9374 12.2827 10.8861 12.4526C10.8736 12.4955 10.8581 12.5373 10.8425 12.579C10.8269 12.6207 10.8122 12.6626 10.7957 12.7039C10.7791 12.7451 10.7643 12.7871 10.746 12.8275C10.7277 12.868 10.7119 12.9095 10.6923 12.9494C10.5426 13.2713 10.3521 13.5726 10.1254 13.8458L10.0399 13.9464C10.0121 13.9784 9.98489 14.0114 9.95777 14.0444C9.9036 14.1107 9.85069 14.1789 9.79632 14.2474C9.74195 14.3159 9.6863 14.385 9.62414 14.4516C9.56199 14.5182 9.49306 14.5825 9.4105 14.635C9.32794 14.6875 9.2294 14.7234 9.12884 14.731C9.02828 14.7386 8.92979 14.723 8.84139 14.6956C8.66441 14.6458 8.49152 14.5535 8.35891 14.4147C8.2263 14.2759 8.14294 14.0943 8.11161 13.9104C8.0795 13.7256 8.09101 13.5386 8.12902 13.3608C8.16784 13.1837 8.23 13.0124 8.31385 12.8516C8.35548 12.7714 8.4021 12.6938 8.45343 12.6194C8.50453 12.5455 8.55829 12.476 8.60984 12.4072C8.63573 12.3727 8.66063 12.3388 8.68509 12.3039L8.75812 12.1982C8.80612 12.1273 8.85239 12.0558 8.89512 11.9831C8.98023 11.8382 9.05387 11.6857 9.08064 11.5309C9.10495 11.3763 9.08834 11.2122 9.04769 11.0571C9.0268 10.9799 8.99935 10.9046 8.96564 10.832C8.9324 10.7591 8.89138 10.6937 8.83319 10.6385L8.83044 10.6359C8.8261 10.6316 8.82327 10.6259 8.82237 10.6198C8.82147 10.6138 8.82254 10.6075 8.82543 10.6021C8.82832 10.5967 8.83288 10.5923 8.83843 10.5897C8.84398 10.5871 8.85023 10.5863 8.85627 10.5874L8.85652 10.5867Z" fill="#371A45"/>
<g opacity="0.35">
<path opacity="0.35" d="M11.5647 10.3909C11.3416 10.8581 10.9868 11.2499 10.5439 11.518C10.101 11.7861 9.5893 11.9188 9.07191 11.8997L9.03795 11.8982C9.04032 11.893 9.04317 11.8877 9.04601 11.8825C8.6874 11.6436 8.39613 11.4004 8.18703 11.1473C8.1341 11.1797 8.07246 11.2145 8.0032 11.2494C7.99155 11.2552 7.97997 11.261 7.96788 11.2668C7.95579 11.2727 7.94367 11.2785 7.93137 11.2843C7.90819 11.2952 7.88418 11.306 7.85955 11.3166C7.84905 11.3212 7.83823 11.3258 7.82709 11.3302C7.80147 11.3411 7.77504 11.3516 7.74782 11.3617C7.73558 11.3664 7.72334 11.371 7.71094 11.3755C7.71011 11.3758 7.70906 11.3761 7.70792 11.3765C7.69471 11.3813 7.68106 11.386 7.6674 11.3907C7.65375 11.3953 7.63964 11.4 7.62564 11.4045C7.31478 11.506 6.98699 11.5453 6.66095 11.5202C5.82479 11.4549 5.25951 10.9098 5.00963 10.6319C4.60202 10.1788 4.47956 10.0002 4.50118 9.7983C4.56108 9.90863 4.65761 10.0282 4.78256 10.1802C4.84295 10.2536 4.96048 10.4349 5.35649 10.697C5.43214 10.747 5.54832 10.8121 5.69596 10.8733C6.24001 11.0989 6.81042 10.5926 6.63668 10.0298C6.60959 9.94209 6.58706 9.85299 6.56919 9.76291C6.64947 9.78789 6.7332 9.79999 6.81727 9.79877C7.01042 9.79543 7.26698 9.70736 7.51906 9.5942C7.7164 9.50559 7.91077 9.40208 8.06979 9.3116C8.2868 9.18813 8.43723 9.0896 8.43723 9.0896L8.4323 9.76912L8.43032 10.0664L11.2391 9.05897C11.2391 9.05897 11.4739 9.0755 11.8223 9.1524C11.8379 9.57999 11.7495 10.005 11.5647 10.3909Z" fill="#371A45"/>
</g>
<path d="M12.6031 12.0526C12.2995 12.6231 11.9544 13.0491 11.6866 13.0012C11.4538 12.9596 11.3758 12.7732 11.3497 12.642C11.3425 12.6051 11.3428 12.5672 11.3507 12.5305C11.3587 12.4938 11.374 12.4591 11.3958 12.4285C11.4967 12.2875 11.7151 11.9583 11.9539 11.4503C12.1757 10.9782 12.4151 10.3517 12.5937 9.57817C12.6184 9.47105 12.7031 9.38892 12.8094 9.37245C12.9484 9.35067 13.137 9.36674 13.2629 9.55743C13.4669 9.86666 13.0874 11.1431 12.6031 12.0526Z" fill="white"/>
<g opacity="0.35">
<path opacity="0.35" d="M12.6034 12.0526C12.2998 12.6231 11.9547 13.0491 11.6869 13.0012C11.4541 12.9596 11.3761 12.7732 11.35 12.642C11.3428 12.6051 11.3431 12.5672 11.351 12.5305C11.359 12.4938 11.3743 12.4591 11.3961 12.4285C11.497 12.2875 11.7154 11.9583 11.9542 11.4503C11.9377 11.5844 11.9013 11.7841 11.8225 11.9583C11.6892 12.253 12.0815 12.1282 12.3557 11.6727C12.63 11.2171 12.1696 12.2866 12.2751 12.359C12.327 12.3944 12.4705 12.2296 12.6034 12.0526Z" fill="#371A45"/>
</g>
<path d="M11.5487 13.046C11.4021 12.9797 11.3036 12.8456 11.2664 12.6577C11.257 12.6097 11.2574 12.5602 11.2678 12.5123C11.2781 12.4644 11.2981 12.4191 11.3266 12.3792C11.5113 12.1208 12.1427 11.154 12.5111 9.55886C12.5439 9.4166 12.6556 9.31068 12.7958 9.28886C13.024 9.25333 13.2146 9.33223 13.3324 9.51073C13.5984 9.91395 13.0409 11.5801 12.446 12.4834C12.1571 12.9219 11.8963 13.124 11.671 13.0835C11.6288 13.0761 11.5877 13.0635 11.5487 13.046ZM13.0502 9.47851C12.9856 9.4493 12.9094 9.44143 12.8216 9.45504C12.7497 9.46617 12.6922 9.52181 12.6748 9.59675C12.2993 11.2221 11.6526 12.2123 11.4633 12.4771C11.4482 12.4983 11.4376 12.5223 11.4321 12.5478C11.4266 12.5733 11.4263 12.5996 11.4313 12.6252C11.4646 12.7935 11.5552 12.892 11.7005 12.918C11.8471 12.9442 12.0676 12.7522 12.3056 12.3907C12.5773 11.9781 12.8606 11.3585 13.0451 10.7739C13.2646 10.078 13.2615 9.70828 13.1921 9.60305C13.1539 9.54563 13.1065 9.50396 13.0502 9.47851Z" fill="#371A45"/>
<path d="M14.6653 12.717C14.5894 13.2095 13.881 14.2852 13.7958 14.916C13.7046 15.5919 13.5545 16.1052 13.1027 16.2537C12.7575 16.367 12.0834 16.1929 12.0176 15.5622C11.9656 15.0653 12.2031 14.516 12.2031 14.516C12.2031 14.516 11.8403 13.2952 12.8405 12.0911" fill="white"/>
<g opacity="0.35">
<path opacity="0.35" d="M13.102 16.2529C12.7567 16.3663 12.0827 16.1921 12.0168 15.5616C12.0154 15.5488 12.0143 15.536 12.0135 15.5234C12.2034 15.9533 12.7394 16.0668 13.0351 15.9699C13.4868 15.8215 13.5797 15.4557 13.6824 14.7817C13.7921 14.0619 14.2848 13.5027 14.5938 12.9698C14.3929 13.5172 13.8679 14.3779 13.7953 14.9154C13.7038 15.5912 13.554 16.1046 13.102 16.2529Z" fill="#371A45"/>
</g>
<path d="M12.3639 12.6919C12.3863 12.6311 12.4149 12.5726 12.4491 12.5175C12.4831 12.4624 12.5205 12.4095 12.5612 12.3592C12.642 12.2583 12.7313 12.1644 12.8325 12.0839C12.8344 12.0823 12.8367 12.0815 12.8392 12.0815C12.8417 12.0815 12.844 12.0824 12.8459 12.084C12.8477 12.0856 12.849 12.0878 12.8494 12.0902C12.8498 12.0926 12.8493 12.0951 12.8481 12.0972C12.7882 12.211 12.7268 12.3199 12.6695 12.4303C12.6406 12.4853 12.6136 12.5408 12.5844 12.5949C12.5552 12.649 12.5266 12.7032 12.4929 12.7554L12.4927 12.7558C12.4831 12.7709 12.4684 12.7819 12.4512 12.7867C12.434 12.7915 12.4157 12.7898 12.3997 12.7819C12.3837 12.7741 12.3712 12.7605 12.3646 12.744C12.3579 12.7275 12.3577 12.709 12.3638 12.6923L12.3639 12.6919Z" fill="#371A45"/>
<path d="M12.451 16.2777C12.4056 16.2572 12.3618 16.2334 12.32 16.2063C12.1637 16.1051 11.9698 15.9127 11.934 15.5706C11.8864 15.116 12.066 14.6306 12.1145 14.5099C12.0747 14.3518 11.9226 13.6051 12.331 12.7326C12.3404 12.7125 12.3575 12.6968 12.3785 12.6892C12.3994 12.6816 12.4226 12.6827 12.4428 12.6921C12.4629 12.7016 12.4786 12.7187 12.4862 12.7396C12.4938 12.7606 12.4927 12.7837 12.4833 12.8039C12.0594 13.7095 12.2813 14.484 12.2835 14.4919C12.2891 14.5108 12.2879 14.5311 12.2801 14.5491C12.2778 14.5544 12.0521 15.0848 12.1011 15.5533C12.13 15.8293 12.2857 15.9841 12.4112 16.0656C12.6412 16.2145 12.9172 16.2261 13.0764 16.1737C13.4799 16.0413 13.6225 15.5707 13.7124 14.9048C13.76 14.5522 13.9853 14.086 14.2031 13.6351C14.381 13.267 14.549 12.9193 14.5822 12.7042C14.5861 12.6826 14.5983 12.6634 14.6161 12.6507C14.634 12.638 14.6561 12.6327 14.6778 12.6361C14.6994 12.6394 14.7189 12.6511 14.7321 12.6686C14.7453 12.6861 14.7511 12.7081 14.7483 12.7298C14.7113 12.9698 14.538 13.3284 14.3545 13.7082C14.1522 14.1268 13.9231 14.6012 13.879 14.9273C13.7806 15.6558 13.6153 16.1737 13.1288 16.3335C12.9574 16.3893 12.6956 16.3883 12.451 16.2777Z" fill="#371A45"/>
<path d="M13.9463 8.79154C13.8222 9.00895 13.7228 9.36291 13.7228 9.36291C13.7047 9.41219 13.7021 9.46582 13.7153 9.51663C13.7285 9.56744 13.7569 9.61299 13.7967 9.64721C13.9542 9.78232 14.2124 9.98433 14.3602 9.99425C14.5999 10.0103 14.7614 9.67113 14.7792 9.40375C14.7957 9.15468 14.3718 8.71617 14.1793 8.69624C14.1017 8.68821 14.0026 8.6929 13.9463 8.79154Z" fill="white"/>
<path d="M14.2073 10.0358C14.085 9.98046 13.9292 9.87181 13.7419 9.71101C13.6897 9.66589 13.6523 9.60609 13.6346 9.53942C13.6169 9.47274 13.6197 9.40228 13.6426 9.33721C13.6534 9.29955 13.7502 8.96542 13.8732 8.74992C13.9339 8.64356 14.0398 8.5974 14.1878 8.61269C14.4369 8.6384 14.8822 9.11895 14.8629 9.40932C14.8527 9.56235 14.8009 9.7268 14.7241 9.84979C14.6263 10.0065 14.495 10.0876 14.3545 10.0782C14.3126 10.0753 14.2635 10.0612 14.2073 10.0358ZM14.0192 8.83323C13.9016 9.03928 13.8046 9.38225 13.8036 9.3857L13.8016 9.39188C13.7895 9.42509 13.7878 9.4612 13.7967 9.49541C13.8056 9.52962 13.8247 9.56033 13.8514 9.58345C14.0827 9.78214 14.275 9.9044 14.3656 9.91056C14.4627 9.91711 14.5365 9.83276 14.5814 9.7609C14.6442 9.66034 14.6867 9.52475 14.6949 9.39824C14.7086 9.19161 14.3176 8.79522 14.1703 8.77994C14.0699 8.76956 14.0381 8.79947 14.0189 8.83332L14.0192 8.83323Z" fill="#371A45"/>
<path d="M10.4424 13.2613C10.4253 13.2535 10.4119 13.2394 10.4051 13.2218C10.1374 12.5332 8.88719 12.2221 8.87457 12.2191C8.8654 12.2168 8.85677 12.2128 8.84915 12.2073C8.84154 12.2017 8.8351 12.1947 8.8302 12.1866C8.82529 12.1786 8.82202 12.1696 8.82058 12.1603C8.81913 12.151 8.81954 12.1415 8.82177 12.1323C8.824 12.1231 8.82801 12.1145 8.83358 12.1069C8.83915 12.0993 8.84616 12.0928 8.85422 12.0879C8.86228 12.083 8.87122 12.0798 8.88054 12.0783C8.88987 12.0769 8.89938 12.0773 8.90854 12.0795C8.96288 12.0927 10.2443 12.4123 10.5389 13.1698C10.5441 13.1831 10.5452 13.1977 10.5421 13.2116C10.539 13.2255 10.5318 13.2382 10.5214 13.248C10.5111 13.2578 10.498 13.2643 10.4839 13.2667C10.4699 13.2691 10.4554 13.2672 10.4424 13.2613L10.4424 13.2613Z" fill="#371A45"/>
<path d="M12.7156 13.9868C12.3238 13.8097 12.1517 13.5638 12.1395 13.5455C12.1269 13.5271 12.1222 13.5044 12.1264 13.4825C12.1305 13.4606 12.1432 13.4412 12.1617 13.4286C12.1801 13.416 12.2028 13.4113 12.2247 13.4155C12.2466 13.4196 12.266 13.4323 12.2786 13.4508C12.299 13.4804 12.7886 14.1669 14.088 13.9611C14.11 13.9576 14.1325 13.963 14.1506 13.9761C14.1686 13.9892 14.1807 14.009 14.1842 14.031C14.1877 14.053 14.1823 14.0755 14.1692 14.0936C14.1561 14.1116 14.1363 14.1237 14.1143 14.1272C13.4858 14.227 13.03 14.129 12.7156 13.9868Z" fill="#371A45"/>
<path d="M12.2505 14.4836C12.2708 14.5096 12.2954 14.5392 12.3198 14.5658C12.3442 14.5924 12.3701 14.6193 12.3967 14.6447C12.4498 14.6956 12.5073 14.7416 12.5685 14.7824C12.6292 14.8242 12.6956 14.8562 12.7643 14.8847C12.8331 14.9153 12.9065 14.9308 12.9835 14.9509C12.9642 14.9542 12.9447 14.957 12.9249 14.9593L12.895 14.9626C12.885 14.9632 12.8752 14.9624 12.8652 14.9624C12.8452 14.9622 12.8251 14.9615 12.8049 14.9604C12.785 14.958 12.7651 14.955 12.7452 14.9513C12.6654 14.9362 12.5885 14.9087 12.5172 14.8699C12.4454 14.8318 12.3783 14.7854 12.3174 14.7316C12.2871 14.7046 12.2583 14.676 12.2312 14.6458C12.2032 14.6151 12.1778 14.5823 12.1551 14.5475C12.1472 14.5351 12.1443 14.5201 12.1471 14.5056C12.1498 14.4912 12.158 14.4783 12.17 14.4698C12.182 14.4612 12.1968 14.4575 12.2114 14.4595C12.226 14.4616 12.2392 14.4691 12.2484 14.4806L12.2505 14.4836Z" fill="#371A45"/>
<path d="M10.3526 13.6237C10.4064 13.684 10.4637 13.7411 10.5243 13.7946C10.585 13.8489 10.6494 13.8989 10.717 13.9443C10.7847 13.9898 10.8572 14.0261 10.932 14.0594C11.0075 14.0921 11.0869 14.1127 11.1713 14.1322C11.0851 14.1469 10.9967 14.1446 10.9113 14.1254C10.8254 14.1053 10.7427 14.0737 10.6652 14.0315C10.5881 13.9894 10.5152 13.9399 10.4475 13.8839C10.4137 13.8559 10.3814 13.8262 10.3508 13.7949C10.3192 13.7635 10.2896 13.7301 10.2623 13.6949C10.2533 13.683 10.2492 13.6682 10.2509 13.6534C10.2526 13.6386 10.26 13.6251 10.2715 13.6156C10.283 13.6062 10.2977 13.6016 10.3125 13.6027C10.3273 13.6039 10.3411 13.6108 10.351 13.6219L10.3526 13.6237Z" fill="#371A45"/>
<path d="M14.1295 9.13352C14.1253 9.21435 14.1152 9.29218 14.1055 9.3692C14.1011 9.40779 14.0949 9.44565 14.091 9.48351C14.0861 9.52114 14.0823 9.55858 14.081 9.59479C14.0796 9.631 14.0797 9.66736 14.0866 9.69003C14.0878 9.69279 14.0875 9.6938 14.0893 9.69805L14.0937 9.70963C14.0963 9.71739 14.0994 9.72498 14.1029 9.73236C14.1065 9.73961 14.1097 9.74704 14.1135 9.7541C14.1172 9.76115 14.1217 9.76766 14.1255 9.77464C14.1417 9.80088 14.1619 9.82445 14.1853 9.84452C14.1968 9.85417 14.209 9.86304 14.2217 9.87107C14.2281 9.87478 14.2345 9.87837 14.2408 9.88167L14.2502 9.88591C14.2527 9.88702 14.2574 9.88879 14.2562 9.8886C14.2744 9.89346 14.2899 9.90528 14.2995 9.92151C14.3091 9.93773 14.3119 9.95707 14.3074 9.97536C14.3028 9.99364 14.2913 10.0094 14.2752 10.0193C14.2591 10.0291 14.2398 10.0322 14.2215 10.028C14.2107 10.0253 14.2064 10.0237 14.1996 10.0216C14.1928 10.0194 14.1875 10.0172 14.1817 10.0149C14.1704 10.0102 14.1594 10.0049 14.1487 9.99904C14.1276 9.98744 14.1077 9.97381 14.0893 9.95833C14.0529 9.92785 14.0223 9.89117 13.9987 9.85C13.9874 9.82985 13.9776 9.8089 13.9694 9.78731C13.9647 9.77674 13.9619 9.76585 13.9584 9.75508L13.9531 9.73878C13.9512 9.73213 13.9496 9.72538 13.9484 9.71857C13.9405 9.66407 13.9466 9.62251 13.9528 9.58027C13.9672 9.50034 13.9897 9.42206 14.0198 9.34662C14.0497 9.27272 14.0842 9.20073 14.1295 9.13352Z" fill="#371A45"/>
<path d="M12.0453 10.0868C12.03 10.0828 12.0169 10.0728 12.0089 10.0591C12.0009 10.0454 11.9987 10.0291 12.0027 10.0137L12.4393 8.34282C12.4434 8.32749 12.4534 8.3144 12.4671 8.30641C12.4808 8.29842 12.4971 8.29618 12.5124 8.30018C12.6738 8.34237 12.8119 8.44694 12.8962 8.59089C12.9805 8.73484 13.0042 8.90639 12.962 9.06779L12.8132 9.63741C12.7923 9.71735 12.7558 9.79238 12.7059 9.85822C12.656 9.92407 12.5936 9.97944 12.5223 10.0212C12.451 10.0629 12.3722 10.0902 12.2903 10.1014C12.2085 10.1127 12.1252 10.1077 12.0453 10.0868Z" fill="white"/>
<path d="M12.0295 10.0988C12.0131 10.0913 11.9998 10.0782 11.992 10.0619C11.9842 10.0456 11.9824 10.027 11.987 10.0095L12.4236 8.33854C12.4288 8.31886 12.4415 8.30203 12.4591 8.29175C12.4766 8.28147 12.4976 8.27858 12.5173 8.2837C12.683 8.32701 12.8247 8.43437 12.9112 8.58217C12.9978 8.72996 13.0221 8.90608 12.9788 9.07178L12.8299 9.6414C12.7866 9.80711 12.6793 9.94882 12.5315 10.0354C12.3837 10.1219 12.2076 10.1462 12.0419 10.1029C12.0376 10.1019 12.0335 10.1005 12.0295 10.0988ZM12.6065 8.35068C12.5749 8.33641 12.5422 8.32483 12.5087 8.31608C12.4976 8.31321 12.4858 8.31485 12.4759 8.32064C12.466 8.32643 12.4588 8.33589 12.4559 8.34697L12.0193 10.0179C12.0164 10.029 12.018 10.0408 12.0238 10.0507C12.0296 10.0606 12.0391 10.0677 12.0501 10.0706C12.1279 10.091 12.209 10.0958 12.2887 10.0848C12.3683 10.0738 12.4451 10.0472 12.5145 10.0066C12.5838 9.96591 12.6446 9.91198 12.6931 9.84786C12.7416 9.78375 12.7771 9.71069 12.7974 9.63287L12.9462 9.06325C12.9826 8.92349 12.9684 8.7754 12.9063 8.64505C12.8441 8.5147 12.738 8.41046 12.6065 8.35068Z" fill="#371A45"/>
<g opacity="0.35">
<path opacity="0.35" d="M12.884 9.3703L12.8143 9.63755C12.772 9.79895 12.6674 9.93698 12.5235 10.0213C12.3795 10.1056 12.208 10.1293 12.0465 10.0871C12.0311 10.0831 12.018 10.0731 12.0099 10.0593C12.0019 10.0456 11.9997 10.0292 12.0037 10.0138L12.1197 9.56961C12.1215 9.58101 12.1267 9.59163 12.1344 9.60018C12.1422 9.60874 12.1523 9.61487 12.1634 9.61784L12.203 9.62802C12.3292 9.66108 12.4626 9.65402 12.5846 9.60784C12.7067 9.56166 12.8113 9.47864 12.884 9.3703Z" fill="#371A45"/>
</g>
<path d="M11.9979 10.1689C11.965 10.154 11.9385 10.1279 11.923 10.0953C11.9074 10.0626 11.904 10.0256 11.9131 9.99065L12.3498 8.31972C12.3548 8.30025 12.3637 8.28197 12.3759 8.26592C12.388 8.24988 12.4032 8.23639 12.4206 8.22622C12.4379 8.21605 12.4571 8.2094 12.4771 8.20666C12.497 8.20391 12.5173 8.20513 12.5368 8.21022C12.722 8.25884 12.8804 8.37895 12.9771 8.54419C13.0739 8.70944 13.1012 8.90632 13.053 9.09165L12.9041 9.66127C12.8802 9.75305 12.8383 9.83921 12.7811 9.91483C12.7238 9.99044 12.6522 10.054 12.5703 10.102C12.4885 10.1499 12.398 10.1812 12.304 10.1942C12.21 10.2072 12.1144 10.2015 12.0227 10.1775C12.0142 10.1753 12.0059 10.1725 11.9979 10.1689ZM12.5214 8.4003L12.1022 10.0048C12.236 10.031 12.3747 10.0052 12.4901 9.93272C12.6056 9.86021 12.689 9.74642 12.7235 9.61453L12.8723 9.0449C12.9067 8.91301 12.8896 8.77296 12.8244 8.65326C12.7591 8.53357 12.6508 8.44322 12.5213 8.40062L12.5214 8.4003Z" fill="#371A45"/>
<path d="M6.99709 6.85897C7.01242 6.86303 7.02551 6.873 7.0335 6.88669C7.04149 6.90039 7.04373 6.91669 7.03973 6.93203L6.6031 8.60299C6.59902 8.61832 6.58904 8.6314 6.57534 8.63939C6.56163 8.64737 6.54533 8.64961 6.52998 8.6456C6.36859 8.60342 6.23056 8.49885 6.14626 8.3549C6.06196 8.21095 6.03829 8.03941 6.08046 7.87802L6.22929 7.30839C6.25018 7.22846 6.28662 7.15343 6.33651 7.08758C6.38641 7.02173 6.44879 6.96636 6.52009 6.92462C6.59139 6.88288 6.67021 6.85561 6.75206 6.84434C6.8339 6.83307 6.91717 6.83804 6.99709 6.85897Z" fill="white"/>
<path d="M6.42321 8.62516C6.28452 8.56214 6.17253 8.45219 6.10696 8.31469C6.04139 8.17719 6.02645 8.02097 6.06478 7.87353L6.21361 7.30391C6.25693 7.13821 6.36428 6.9965 6.51208 6.90995C6.65987 6.8234 6.83599 6.7991 7.00169 6.8424C7.02137 6.84757 7.0382 6.86033 7.04847 6.87789C7.05875 6.89545 7.06165 6.91637 7.05652 6.93606L6.62004 8.60657C6.61487 8.62625 6.60211 8.64307 6.58455 8.65335C6.56699 8.66363 6.54607 8.66653 6.52638 8.6614C6.49104 8.65223 6.45652 8.64011 6.42321 8.62516ZM7.00027 6.87707C6.99802 6.87607 6.99569 6.87525 6.99331 6.87462C6.9155 6.85428 6.83444 6.84948 6.75477 6.86048C6.6751 6.87147 6.59838 6.89806 6.52899 6.93871C6.45959 6.97936 6.39889 7.03329 6.35034 7.09741C6.30179 7.16152 6.26635 7.23458 6.24604 7.31239L6.0972 7.88202C6.05633 8.03915 6.07946 8.20609 6.16154 8.34619C6.24361 8.48629 6.37792 8.5881 6.53498 8.62928C6.54607 8.63217 6.55785 8.63054 6.56774 8.62475C6.57763 8.61896 6.58482 8.60948 6.58773 8.59839L7.0244 6.92746C7.02696 6.9176 7.02597 6.90716 7.02159 6.89796C7.01722 6.88876 7.00974 6.8814 7.00048 6.87717L7.00027 6.87707Z" fill="#371A45"/>
<g opacity="0.35">
<path opacity="0.35" d="M6.7248 8.13919L6.60351 8.60271C6.5994 8.61803 6.5894 8.6311 6.57569 8.63908C6.56199 8.64706 6.54568 8.64929 6.53034 8.6453C6.45041 8.62444 6.37538 8.58804 6.30953 8.53818C6.24368 8.48831 6.1883 8.42596 6.14656 8.35468C6.10482 8.28341 6.07753 8.2046 6.06625 8.12277C6.05497 8.04095 6.05993 7.9577 6.08084 7.87779L6.14355 7.6377C6.16403 7.75687 6.2184 7.86762 6.30016 7.95671C6.38193 8.04579 6.48762 8.10944 6.60461 8.14003L6.66556 8.15598C6.67604 8.15872 6.68706 8.1586 6.69747 8.15565C6.70789 8.1527 6.71732 8.14702 6.7248 8.13919Z" fill="#371A45"/>
</g>
<path d="M6.39158 8.69453C6.07691 8.55226 5.90052 8.19901 5.99074 7.85386L6.13957 7.28424C6.18819 7.09902 6.3083 6.94064 6.47354 6.84386C6.63878 6.74708 6.83567 6.71981 7.021 6.76802C7.04048 6.77309 7.05876 6.78196 7.0748 6.79411C7.09084 6.80626 7.10434 6.82145 7.11451 6.83881C7.12468 6.85618 7.13132 6.87538 7.13407 6.89531C7.13681 6.91525 7.1356 6.93553 7.1305 6.955L6.69387 8.62595C6.68359 8.66527 6.6581 8.69889 6.62303 8.71942C6.58795 8.73995 6.54616 8.74571 6.50684 8.73543C6.46733 8.72508 6.42877 8.7114 6.39158 8.69453ZM6.94165 6.941C6.80788 6.91483 6.66916 6.94063 6.55374 7.01315C6.43832 7.08566 6.35488 7.19944 6.3204 7.33132L6.17156 7.90094C6.13713 8.03283 6.15426 8.17288 6.21947 8.29257C6.28468 8.41227 6.39306 8.50261 6.52254 8.5452L6.94165 6.941Z" fill="#371A45"/>
<path d="M8.31034 11.155C9.7914 11.8247 11.5349 11.1669 12.2046 9.68584C12.8742 8.20478 12.2164 6.46129 10.7354 5.79163C9.25434 5.12197 7.51084 5.77973 6.84119 7.26079C6.17153 8.74184 6.82929 10.4853 8.31034 11.155Z" fill="white"/>
<path d="M8.29999 11.1694C6.93058 10.5502 6.22611 8.97623 6.71817 7.52368C7.24174 5.97786 8.9253 5.14629 10.4711 5.66986C12.0169 6.19343 12.8484 7.87703 12.3249 9.42279C12.0713 10.1716 11.5412 10.7768 10.8324 11.1269C10.1236 11.477 9.32075 11.5302 8.57193 11.2766C8.47869 11.245 8.38784 11.2091 8.29999 11.1694ZM10.7292 5.80761C10.6422 5.76829 10.5526 5.73297 10.4604 5.70163C8.93205 5.18396 7.26755 6.00612 6.7498 7.53433C6.23205 9.06253 7.05401 10.7271 8.58255 11.2449C9.3229 11.4956 10.1165 11.4432 10.8173 11.097C11.5181 10.7508 12.0422 10.1524 12.293 9.41203C12.7796 7.97607 12.0829 6.41971 10.7292 5.80761Z" fill="#371A45"/>
<g opacity="0.35">
<path opacity="0.35" d="M12.4142 9.02254C12.3888 9.15645 12.354 9.28842 12.3102 9.41749C11.7886 10.9569 10.1179 11.7821 8.57843 11.2608C7.03898 10.7395 6.21381 9.06853 6.73511 7.529C6.75007 7.48475 6.7661 7.44079 6.78299 7.39786C6.51129 8.81843 7.32172 10.2575 8.73028 10.7347C10.2255 11.241 11.8442 10.4771 12.4142 9.02254Z" fill="#371A45"/>
</g>
<path d="M8.26858 11.2388C6.86378 10.6036 6.14111 8.98893 6.64582 7.49878C7.18302 5.9129 8.91007 5.05993 10.4958 5.59707C12.0815 6.1342 12.9346 7.86137 12.3974 9.44724C12.1372 10.2154 11.5935 10.8363 10.8663 11.1954C10.1391 11.5546 9.31561 11.6091 8.54743 11.349C8.45193 11.3164 8.35874 11.2795 8.26858 11.2388ZM10.6978 5.87695C10.6131 5.83865 10.5258 5.80425 10.4359 5.77376C8.94762 5.26963 7.32655 6.0705 6.82267 7.55869C6.31879 9.04688 7.11945 10.668 8.60765 11.172C9.32865 11.416 10.1015 11.365 10.784 11.0279C11.4665 10.6908 11.9768 10.1081 12.221 9.38711C12.6945 7.98873 12.0161 6.47305 10.6978 5.87695Z" fill="#371A45"/>
<path d="M12.2766 9.48603C12.1 10.0342 11.7582 10.4859 11.3183 10.809C10.9884 11.0512 9.87263 11.3017 8.71111 10.9392C7.6341 10.6031 6.84143 9.7162 6.7148 9.3268C6.54595 8.80764 6.53198 8.24146 6.70853 7.69326C7.17532 6.24247 8.61531 6.04237 10.1532 6.53752C11.6911 7.03267 12.7436 8.03531 12.2766 9.48603Z" fill="#371A45"/>
<path d="M8.29204 10.8783C7.3781 10.4651 6.74387 9.71704 6.62612 9.355C6.44508 8.79809 6.44291 8.21336 6.61969 7.66407C6.85072 6.94671 7.3166 6.4862 8.00448 6.29526C8.60291 6.12933 9.35554 6.18207 10.1819 6.44811C11.0082 6.71415 11.6505 7.11058 12.0394 7.59436C12.4867 8.1508 12.5963 8.79663 12.3655 9.5138C12.1886 10.0631 11.8456 10.5367 11.3736 10.8833C11.0459 11.124 9.9203 11.4135 8.68341 11.0274C8.55004 10.9857 8.41935 10.9359 8.29204 10.8783ZM10.6869 6.84195C10.5037 6.75938 10.316 6.68715 10.1247 6.6256C9.31434 6.36467 7.36786 5.94914 6.79733 7.72112C6.63251 8.23306 6.63482 8.77788 6.8036 9.2972C6.92336 9.66552 7.69341 10.5231 8.73898 10.8494C9.8979 11.2111 10.9712 10.9474 11.2631 10.7331C11.7033 10.4098 12.0231 9.96841 12.1878 9.45675C12.6474 8.02931 11.5533 7.2337 10.6869 6.84195Z" fill="#371A45"/>
<g opacity="0.5">
<path opacity="0.5" d="M11.7696 9.17668C11.9052 8.92299 11.866 8.6377 11.6822 8.53946C11.4984 8.44122 11.2394 8.56724 11.1039 8.82093C10.9683 9.07462 11.0074 9.35991 11.1913 9.45815C11.3751 9.55639 11.634 9.43037 11.7696 9.17668Z" fill="white"/>
</g>
<g opacity="0.5">
<path opacity="0.5" d="M10.8454 9.95939C10.9231 9.85267 10.9119 9.7121 10.8203 9.64541C10.7287 9.57872 10.5915 9.61118 10.5138 9.7179C10.436 9.82462 10.4473 9.96519 10.5389 10.0319C10.6305 10.0986 10.7677 10.0661 10.8454 9.95939Z" fill="white"/>
</g>
<g opacity="0.35">
<path opacity="0.35" d="M12.1718 7.95849C12.4075 8.39298 12.4651 8.90344 12.2776 9.48615C12.101 10.0344 11.7591 10.486 11.3194 10.8092C10.9895 11.0514 9.8736 11.3019 8.71203 10.9395C8.30187 10.8116 7.93308 10.6037 7.62651 10.3737C9.06383 10.7886 10.4247 10.4785 10.8338 10.1779C11.3921 9.76781 11.826 9.1945 12.0498 8.49887C12.1072 8.32293 12.148 8.14202 12.1718 7.95849Z" fill="#111A28"/>
</g>
<path d="M7.3668 6.60189L7.31467 6.51929L7.26867 6.44319L7.31467 6.51929L7.26001 6.44924C7.98875 5.88075 9.08231 5.77233 10.2605 6.15143C11.4287 6.52772 12.2571 7.23889 12.534 8.10257C12.5422 8.12411 12.5421 8.14792 12.5338 8.16941C12.5255 8.19089 12.5095 8.20854 12.489 8.21896C12.4684 8.22937 12.4447 8.23181 12.4225 8.22581C12.4002 8.2198 12.381 8.20578 12.3685 8.18644L12.3618 8.17634L12.3577 8.16379C12.1009 7.35595 11.3156 6.6871 10.2033 6.32918C9.0849 5.96912 8.05397 6.0665 7.37472 6.59638L7.3668 6.60189Z" fill="#371A45"/>
<g opacity="0.5">
<path opacity="0.5" d="M7.05575 8.75774C7.05575 8.75774 7.06724 7.18199 8.02216 6.85999C8.97708 6.53799 10.0861 6.89774 10.0371 6.96045C10.0371 6.96045 8.713 6.86235 7.91949 7.6787C7.30772 8.30828 7.05575 8.75774 7.05575 8.75774Z" fill="white"/>
</g>
</svg>
