<svg width="20" height="20" viewBox="0 0 20 20" fill="none" xmlns="http://www.w3.org/2000/svg">
<rect width="20" height="20" rx="2" fill="#A8FFD0"/>
<path d="M18 2H2V18H18V2Z" fill="#A8FFD0"/>
<path d="M5.27571 4.23633C5.26221 4.25775 5.24174 4.27385 5.21775 4.28193C5.19376 4.29 5.16772 4.28955 5.14403 4.28065L5.00211 4.22577C4.93855 4.20237 4.90971 4.12625 4.94211 4.06693C5.09011 3.80653 5.35971 3.71869 5.62451 3.75029C5.99523 3.79457 6.25187 4.10629 6.21575 4.40865C6.16219 4.85725 5.75323 4.86865 5.65075 5.19745C5.63195 5.24893 5.58351 5.28421 5.53075 5.27789L5.37499 5.25929C5.35874 5.2573 5.34314 5.25177 5.32926 5.2431C5.31539 5.23443 5.30358 5.22282 5.29467 5.20909C5.28576 5.19537 5.27997 5.17985 5.27771 5.16365C5.27544 5.14744 5.27675 5.13094 5.28155 5.11529C5.39755 4.75313 5.77815 4.68801 5.81051 4.41697C5.82911 4.26121 5.74651 4.13129 5.55351 4.10821C5.41623 4.09209 5.32667 4.15393 5.27571 4.23633ZM5.60615 5.80833C5.5986 5.86846 5.56765 5.9232 5.52003 5.96067C5.4724 5.99814 5.41192 6.01534 5.35171 6.00853C5.22399 5.99329 5.13347 5.87821 5.14835 5.75357C5.15189 5.72327 5.16139 5.69397 5.1763 5.66736C5.1912 5.64074 5.21121 5.61732 5.23519 5.59846C5.25917 5.5796 5.28663 5.56566 5.31601 5.55744C5.34539 5.54922 5.3761 5.54689 5.40639 5.55057C5.53091 5.56549 5.62143 5.68057 5.60619 5.80829L5.60615 5.80833Z" fill="#371A45"/>
<g opacity="0.2">
<path opacity="0.2" d="M10.0797 16.6605C11.8016 16.6605 13.1975 16.4352 13.1975 16.1574C13.1975 15.8795 11.8016 15.6543 10.0797 15.6543C8.3578 15.6543 6.96191 15.8795 6.96191 16.1574C6.96191 16.4352 8.3578 16.6605 10.0797 16.6605Z" fill="#371A45"/>
</g>
<path d="M13.0499 12.7433C13.0427 12.7761 13.0327 12.8083 13.0203 12.8395C12.9827 12.934 12.923 13.018 12.846 13.0844C12.769 13.1508 12.6772 13.1976 12.5782 13.2208C12.0125 13.3539 10.8152 13.5153 9.40966 13.0011C9.40966 13.0011 9.10874 10.228 9.69186 8.83757C9.69186 8.83757 10.9927 8.56765 12.7437 9.11081C12.8684 9.14971 12.978 9.22642 13.0572 9.33034C13.1364 9.43425 13.1814 9.56022 13.1859 9.69081C13.2113 10.4269 13.2346 11.9175 13.0499 12.7433Z" fill="white"/>
<path d="M11.3834 13.4439C10.8126 13.4439 10.125 13.3579 9.37912 13.085C9.36349 13.0793 9.34977 13.0693 9.3395 13.0562C9.32924 13.043 9.32285 13.0273 9.32104 13.0108C9.30864 12.8966 9.02432 10.1988 9.60976 8.80301C9.61537 8.78965 9.62414 8.77785 9.63533 8.76863C9.64651 8.75942 9.65977 8.75307 9.67396 8.75013C9.728 8.73889 11.0174 8.48189 12.7704 9.02549C12.9128 9.06991 13.0379 9.15753 13.1284 9.2762C13.2189 9.39488 13.2702 9.53875 13.2753 9.68789C13.3028 10.4827 13.3214 11.939 13.1373 12.7629C13.0773 13.0313 12.866 13.2453 12.5988 13.3081C12.3173 13.374 11.8978 13.4439 11.3834 13.4439ZM9.49308 12.9362C10.8451 13.4162 11.991 13.2671 12.558 13.134C12.7589 13.0868 12.918 12.9258 12.963 12.7238C13.1428 11.9193 13.124 10.4801 13.0968 9.69385C13.093 9.58179 13.0544 9.4737 12.9865 9.38452C12.9185 9.29534 12.8245 9.22949 12.7175 9.19609C11.1921 8.72305 10.0006 8.87709 9.75616 8.91689C9.25636 10.1754 9.4558 12.5447 9.49308 12.9362Z" fill="#371A45"/>
<path d="M13.0317 9.41749C13.0317 9.41721 13.0294 9.41629 13.0277 9.41553C13.0259 9.41477 13.0237 9.41401 13.0215 9.41321C13.0173 9.41165 13.0129 9.41009 13.0081 9.40873C12.9991 9.40565 12.9893 9.40329 12.9797 9.40073C12.9602 9.39605 12.9403 9.39193 12.9199 9.38905C12.8366 9.37694 12.7518 9.38072 12.6699 9.40021C12.6279 9.40933 12.5873 9.42465 12.5468 9.44145L12.5449 9.44221C12.5375 9.44525 12.5292 9.44543 12.5216 9.44274C12.5141 9.44004 12.5078 9.43464 12.5039 9.42758C12.5001 9.42053 12.499 9.4123 12.5009 9.40449C12.5027 9.39668 12.5074 9.38983 12.514 9.38525C12.5532 9.35833 12.594 9.33221 12.6385 9.31221C12.6829 9.2911 12.7292 9.2744 12.7768 9.26237C12.8252 9.24979 12.8747 9.24193 12.9245 9.23889C12.9497 9.23721 12.9751 9.23697 13.0008 9.23769C13.0137 9.23841 13.0266 9.23885 13.0398 9.24029C13.0463 9.24081 13.053 9.24161 13.0598 9.24253L13.0703 9.24409C13.074 9.24473 13.0771 9.24513 13.0827 9.24645C13.1052 9.25341 13.124 9.26896 13.1351 9.28972C13.1462 9.31049 13.1486 9.33478 13.1419 9.35733C13.1352 9.37988 13.1198 9.39886 13.0992 9.41015C13.0785 9.42143 13.0542 9.42411 13.0316 9.41761L13.0317 9.41749Z" fill="#371A45"/>
<g opacity="0.2">
<path opacity="0.2" d="M12.8111 12.9321C12.8707 12.9026 12.9227 12.8622 12.9705 12.8161C12.9329 12.9105 12.8732 12.9946 12.7962 13.0609C12.7192 13.1273 12.6274 13.1741 12.5284 13.1974C11.9627 13.3304 10.7654 13.4918 9.35985 12.9777C9.35985 12.9777 9.05893 10.2045 9.64205 8.81412C9.64205 8.81412 10.9429 8.54424 12.6941 9.0874C12.8401 9.13255 12.9646 9.22958 13.0441 9.3602C12.9655 9.36712 12.8876 9.39748 12.8313 9.45084C12.6775 9.5964 12.6441 9.8252 12.6197 10.0355C12.5677 10.4814 12.5157 10.9271 12.4637 11.3728C12.4206 11.7416 12.3776 12.1103 12.3347 12.479C12.3187 12.6174 12.3074 12.7734 12.3979 12.8795C12.4947 12.9935 12.6769 12.9986 12.8111 12.9321Z" fill="#371A45"/>
</g>
<path d="M14.6527 10.4326C14.5882 10.5833 14.1361 10.4326 14.1361 10.4326C14.1361 10.4326 14.2437 10.734 14.4375 10.9277C14.4808 10.9711 14.5171 11.021 14.5449 11.0757C14.6489 11.28 14.6281 11.5553 14.2223 11.7245C13.7055 11.9397 13.361 11.5307 13.1674 11.2508C13.1674 11.2508 12.952 11.9096 12.2847 11.7848C12.2847 11.7848 12.4354 12.3701 12.2633 12.8008C12.0911 13.2314 12.1125 14.5658 12.1125 14.5658C12.1125 14.5658 12.2415 15.6852 12.1125 15.9651C11.9834 16.2451 10.6627 16.4386 10.0744 16.1158C10.0744 16.1158 8.94795 16.331 8.25899 16.1803C7.83235 16.087 7.79375 15.7954 7.91339 15.5717C7.98663 15.4342 8.11967 15.3224 8.25899 15.2978C8.25899 15.2978 7.98171 12.6284 8.06655 11.4229C8.06655 11.4229 7.39791 11.5949 7.01055 11.3582C6.62319 11.1214 6.25711 10.3033 6.25711 10.3033C6.25711 10.3033 5.89119 10.5833 5.58983 10.2819C5.28847 9.98044 6.19247 9.7222 6.19247 9.7222C6.19247 9.7222 5.99867 9.5954 6.08487 9.41368C6.17107 9.23196 6.28579 9.40408 6.56307 9.34672C6.84035 9.28936 7.22343 9.36568 7.68263 9.84408C7.68263 9.84408 7.84563 9.51168 8.32159 9.22928C8.69219 9.00872 9.25295 8.81848 10.0745 8.83948C10.9905 8.86292 11.8576 9.069 12.3575 9.44872C12.5825 9.61972 12.7332 9.826 12.7798 10.0667C12.7798 10.0667 13.3826 9.88876 13.8777 9.9238C14.3729 9.95884 14.7172 10.2819 14.6527 10.4326Z" fill="white"/>
<g opacity="0.2">
<path opacity="0.2" d="M14.5445 11.0755C14.3139 11.2483 13.9951 11.3015 13.7227 11.2052C13.4551 11.1108 13.2432 10.876 13.1685 10.6031C13.165 10.5899 13.1582 10.5776 13.149 10.5675C13.1397 10.5574 13.1281 10.5496 13.1152 10.5449C13.1023 10.5402 13.0885 10.5386 13.0749 10.5403C13.0613 10.542 13.0482 10.547 13.0369 10.5548C12.9523 10.6127 12.8645 10.6656 12.7683 10.7002C12.6308 10.75 12.4719 10.7588 12.3596 10.6505C12.4836 10.469 12.6076 10.2872 12.7431 10.0914C12.7487 10.0805 12.7543 10.0694 12.7362 10.0437C12.6362 10.2037 12.4239 10.2834 12.2433 10.229C12.1515 10.2014 12.0721 10.1405 12.0163 10.0617C11.9342 9.94596 11.9618 9.784 12.0763 9.70032C12.1781 9.62609 12.2721 9.5418 12.357 9.44872C11.857 9.069 10.9901 8.86292 10.0741 8.83948C9.25249 8.81848 8.69173 9.00872 8.32113 9.22928C9.53581 10.1153 10.4556 10.1453 10.9226 10.1093C11.1247 10.0936 11.2939 10.2653 11.2712 10.4668C11.2559 10.6021 11.206 10.7323 11.116 10.8382C10.9396 11.0462 10.6795 11.1634 10.42 11.2465C9.69825 11.4769 8.92601 11.4883 8.16877 11.4608C8.14912 11.7035 8.12947 11.9464 8.10981 12.1895C9.02981 12.4799 10.0118 12.571 10.9992 12.4935C11.1303 12.4832 11.1856 12.6575 11.0717 12.7233C10.7096 12.9322 10.2928 13.0469 9.87461 13.0471C9.29749 13.0471 8.72309 12.8292 8.29109 12.4463C8.29869 12.9983 8.72509 13.5166 9.26849 13.6349C9.21708 14.0163 9.22382 14.4032 9.28849 14.7826C9.31173 15.0965 9.33493 15.4102 9.33293 15.6872C8.90521 15.9669 8.29125 15.9129 7.91329 15.5718C7.79365 15.7955 7.83225 16.087 8.25889 16.1804C8.94785 16.331 10.0743 16.1158 10.0743 16.1158C10.6626 16.4386 11.9831 16.2451 12.1124 15.9652C12.2417 15.6852 12.1124 14.5658 12.1124 14.5658C12.1124 14.5658 12.0907 13.2312 12.2631 12.8006C12.4354 12.37 12.2845 11.7846 12.2845 11.7846C12.9518 11.9094 13.1672 11.2506 13.1672 11.2506C13.3608 11.5306 13.7053 11.9395 14.2221 11.7243C14.6278 11.5551 14.6483 11.2798 14.5445 11.0755ZM11.2331 15.6423C11.1364 15.8352 10.9207 15.9488 10.706 15.9678C10.4912 15.9868 10.2767 15.9238 10.08 15.83C10.0896 15.528 10.2894 15.3172 10.2389 15.2998C10.4381 14.6504 10.2961 13.9065 9.94401 13.3812C10.2655 13.346 10.5825 13.2777 10.8901 13.1775C11.0224 13.1344 11.1599 13.2284 11.1695 13.3673C11.21 13.9483 11.2503 14.5294 11.2907 15.1105C11.3032 15.2907 11.3139 15.4809 11.2331 15.6423Z" fill="#371A45"/>
</g>
<path d="M10.9243 16.3723C10.6094 16.3723 10.2923 16.3263 10.06 16.2087C9.86928 16.243 8.8824 16.4077 8.23972 16.267C7.815 16.1742 7.76508 15.9084 7.76504 15.7891C7.76504 15.7861 7.76504 15.7832 7.76504 15.7804C7.76976 15.5487 7.94736 15.3119 8.16224 15.2316C8.12388 14.8491 7.96068 13.1516 7.96064 11.9756C7.96064 11.8174 7.96356 11.6686 7.9702 11.5338C7.7516 11.5734 7.28008 11.6272 6.96348 11.4338C6.63312 11.2321 6.3292 10.6581 6.21864 10.4316C6.0442 10.5223 5.76028 10.5785 5.52616 10.3445C5.45816 10.2765 5.43844 10.2101 5.43848 10.1556C5.43851 10.1361 5.44103 10.1166 5.44596 10.0976C5.49796 9.89726 5.82692 9.75198 6.02848 9.6805C5.99648 9.63182 5.97288 9.5725 5.97288 9.50614C5.97322 9.46061 5.98378 9.41573 6.0038 9.37482C6.08256 9.20806 6.20952 9.23322 6.30224 9.25166C6.36836 9.26474 6.44332 9.27966 6.54456 9.25866C6.79656 9.20642 7.19076 9.2447 7.6656 9.7005C7.73932 9.5941 7.8826 9.4205 8.12332 9.25038C8.46604 9.00798 9.08308 8.72434 10.0764 8.74962C10.7687 8.76734 11.4174 8.88898 11.903 9.09218C12.4129 9.30562 12.736 9.6029 12.8439 9.95618C13.0335 9.90758 13.4873 9.80626 13.8837 9.83426C14.2738 9.8619 14.5908 10.0614 14.7023 10.2442C14.7376 10.3021 14.7495 10.3517 14.7495 10.392C14.7496 10.4179 14.7445 10.4435 14.7344 10.4673C14.6728 10.611 14.4664 10.6033 14.294 10.5676C14.342 10.6607 14.4118 10.7756 14.5002 10.8641C14.5959 10.9598 14.6867 11.1137 14.6867 11.2833C14.6867 11.3134 14.6838 11.3435 14.6779 11.3731C14.6526 11.5011 14.559 11.68 14.2562 11.8063C13.7338 12.0237 13.37 11.6656 13.1855 11.4278C13.0615 11.6514 12.805 11.9094 12.3971 11.8876C12.4216 12.0248 12.4342 12.1639 12.4349 12.3033C12.4349 12.4749 12.4134 12.664 12.3458 12.8333C12.2138 13.1631 12.2006 14.0778 12.2006 14.4265V14.4271C12.2006 14.4981 12.2012 14.5455 12.2014 14.5596C12.2112 14.646 12.2588 15.0824 12.2588 15.4656C12.2588 15.6893 12.2428 15.8949 12.1932 16.002C12.1492 16.0972 12.026 16.1787 11.8267 16.2443C11.6003 16.319 11.2634 16.3723 10.9243 16.3723ZM10.0742 16.026C10.0893 16.026 10.104 16.0298 10.1172 16.037C10.508 16.2515 11.3024 16.229 11.771 16.0747C11.9382 16.0195 12.0157 15.9608 12.0312 15.9271C12.0672 15.8492 12.0807 15.6801 12.0807 15.4774C12.0807 15.1894 12.0533 14.8337 12.0236 14.5755C12.0232 14.5726 12.023 14.5697 12.023 14.5667C12.0228 14.5562 12.022 14.5002 12.022 14.4134C12.022 14.0454 12.0369 13.1247 12.18 12.7669C12.2378 12.6226 12.256 12.4577 12.2562 12.3057C12.2562 12.0377 12.1988 11.8099 12.1979 11.8063C12.1942 11.7918 12.1942 11.7765 12.1979 11.762C12.2016 11.7474 12.2089 11.7341 12.2192 11.7231C12.2294 11.7121 12.2423 11.7039 12.2566 11.6992C12.2709 11.6946 12.2861 11.6935 12.3008 11.6963C12.8813 11.8048 13.0744 11.2459 13.0823 11.2221C13.0875 11.2063 13.0971 11.1924 13.1098 11.1817C13.1225 11.1711 13.138 11.1642 13.1544 11.1618C13.1708 11.1594 13.1876 11.1617 13.2028 11.1683C13.218 11.1749 13.2311 11.1857 13.2406 11.1993C13.4496 11.5017 13.7462 11.8252 14.1876 11.6413C14.3697 11.5653 14.4787 11.4607 14.5028 11.3384C14.5065 11.3199 14.5083 11.301 14.5083 11.2821C14.5083 11.1673 14.4426 11.059 14.374 10.9904C14.1684 10.7848 14.0564 10.4752 14.0517 10.4621C14.046 10.4463 14.045 10.4293 14.0485 10.4129C14.0521 10.3966 14.0602 10.3816 14.072 10.3696C14.0837 10.3576 14.0985 10.3492 14.1148 10.3453C14.1311 10.3413 14.1482 10.3421 14.164 10.3474C14.3514 10.4096 14.5382 10.4246 14.5706 10.396C14.5708 10.3948 14.5709 10.3936 14.5709 10.3923C14.5709 10.3841 14.5674 10.3658 14.55 10.3372C14.4644 10.197 14.1974 10.0355 13.8712 10.0124C13.3977 9.97886 12.8107 10.1501 12.8048 10.1518C12.7929 10.1553 12.7804 10.1563 12.768 10.1547C12.7557 10.1531 12.7438 10.149 12.7332 10.1425C12.7226 10.136 12.7134 10.1274 12.7063 10.1172C12.6992 10.107 12.6943 10.0954 12.6919 10.0832C12.545 9.32786 11.2702 8.95886 10.0719 8.92826C9.13472 8.90402 8.55644 9.16582 8.2364 9.38934C7.89112 9.6305 7.7636 9.8807 7.76236 9.88322C7.75597 9.89604 7.7466 9.90714 7.73503 9.91558C7.72347 9.92403 7.71004 9.92957 7.69589 9.93174C7.68173 9.93392 7.66726 9.93266 7.6537 9.92808C7.64013 9.9235 7.62786 9.91573 7.61792 9.90542C7.253 9.52542 6.90404 9.36658 6.58088 9.43342C6.44416 9.46174 6.34208 9.44142 6.26756 9.4267C6.18456 9.41022 6.1846 9.41022 6.16528 9.4511C6.15696 9.46814 6.15257 9.48683 6.15244 9.50578C6.15244 9.5843 6.23076 9.63986 6.24152 9.6471C6.2537 9.65532 6.26368 9.66639 6.27059 9.67935C6.27751 9.69232 6.28115 9.70677 6.2812 9.72146C6.2812 9.7261 6.28083 9.73073 6.28008 9.7353C6.27746 9.75209 6.2701 9.76778 6.25888 9.78053C6.24766 9.79328 6.23303 9.80257 6.21672 9.8073C5.99412 9.87102 5.65016 10.0216 5.61892 10.1423C5.61776 10.1463 5.61717 10.1505 5.61716 10.1547C5.61716 10.1676 5.62296 10.1884 5.65252 10.218C5.89388 10.4593 6.19016 10.2409 6.20264 10.2314C6.21337 10.2233 6.22578 10.2178 6.23895 10.2151C6.25212 10.2125 6.26572 10.2128 6.27874 10.2162C6.29176 10.2195 6.30386 10.2257 6.31415 10.2343C6.32444 10.243 6.33266 10.2538 6.3382 10.2661C6.34172 10.2741 6.6974 11.0618 7.05668 11.2812C7.40704 11.4953 8.03776 11.3372 8.04412 11.3357C8.0573 11.3323 8.07108 11.332 8.0844 11.3347C8.09773 11.3375 8.11025 11.3432 8.12101 11.3516C8.13176 11.3599 8.14047 11.3706 8.14647 11.3828C8.15246 11.395 8.15558 11.4085 8.1556 11.4221C8.1556 11.4241 8.1556 11.4261 8.1556 11.4284C8.14456 11.5851 8.1396 11.7674 8.1396 11.9659C8.1396 13.2674 8.34524 15.2647 8.3476 15.2878C8.35004 15.3103 8.34382 15.3329 8.33021 15.3509C8.31659 15.369 8.2966 15.3812 8.27432 15.385C8.10796 15.4143 7.94728 15.6081 7.94372 15.7838C7.94372 15.7859 7.94372 15.7878 7.94372 15.79C7.94372 15.9792 8.125 16.0589 8.27796 16.0923C8.94084 16.2373 10.0465 16.0294 10.0576 16.0273C10.0631 16.0264 10.0687 16.0259 10.0744 16.026H10.0742ZM10.1702 15.5971C10.1666 15.5971 10.1629 15.5969 10.1592 15.5965C10.1395 15.594 10.1212 15.5851 10.1072 15.5711C10.0931 15.5571 10.0841 15.5388 10.0816 15.5191C10.0808 15.5132 10.0052 14.9271 9.8696 14.6471C9.85939 14.6259 9.85796 14.6016 9.8656 14.5793C9.86708 14.575 10.0136 14.142 10.0051 13.8938C10.0044 13.8734 10.0107 13.8533 10.0231 13.837C10.0354 13.8206 10.053 13.809 10.0728 13.8041C10.0927 13.7992 10.1137 13.8012 10.1322 13.8099C10.1507 13.8186 10.1657 13.8333 10.1747 13.8517C10.1914 13.8862 10.5795 14.7049 10.2534 15.5401C10.2469 15.5569 10.2355 15.5713 10.2206 15.5815C10.2058 15.5917 10.1882 15.5971 10.1702 15.5971H10.1702ZM10.0459 14.6029C10.1054 14.7383 10.1525 14.9182 10.1872 15.0812C10.2272 14.7775 10.1858 14.4939 10.1335 14.2841C10.1021 14.4224 10.0643 14.5452 10.0458 14.6029H10.0459Z" fill="#371A45"/>
<path d="M12.2687 11.8725L12.2578 11.8701L12.25 11.8679L12.2348 11.8635L12.2074 11.8536C12.1894 11.8467 12.173 11.8388 12.156 11.8312L12.108 11.8056C12.0926 11.7964 12.0777 11.7866 12.0626 11.7771C12.0476 11.7677 12.0335 11.7571 12.0194 11.7466C12.0052 11.7361 11.9909 11.7259 11.9776 11.7146L11.9383 11.6803C11.925 11.6693 11.9123 11.6575 11.9003 11.6451L11.8643 11.6083C11.852 11.5963 11.8404 11.5838 11.8294 11.5706C11.8076 11.5445 11.7851 11.5186 11.764 11.4923L11.7046 11.4102C11.6947 11.3966 11.6854 11.3826 11.6769 11.3681L11.6504 11.3254C11.6132 11.2694 11.5849 11.209 11.553 11.1506C11.5373 11.1213 11.525 11.0906 11.5112 11.0604C11.4978 11.0301 11.4836 11.0002 11.4708 10.9697C11.4478 10.9079 11.4234 10.8467 11.4016 10.7846L11.3424 10.5969C11.3381 10.5834 11.3393 10.5687 11.3457 10.5561C11.352 10.5435 11.3631 10.5338 11.3765 10.5293C11.3899 10.5247 11.4045 10.5255 11.4173 10.5316C11.4301 10.5377 11.44 10.5486 11.4448 10.5619L11.4459 10.5647L11.5116 10.7443C11.5354 10.8032 11.5616 10.861 11.5863 10.9193C11.5998 10.9479 11.6146 10.9758 11.6287 11.004C11.6434 11.032 11.6562 11.0609 11.6723 11.088C11.7049 11.1416 11.7341 11.1975 11.771 11.2478L11.7974 11.2863C11.8058 11.2993 11.8149 11.3119 11.8247 11.324L11.8824 11.3965C11.9026 11.4197 11.9239 11.4417 11.9444 11.4645C11.9546 11.4758 11.9655 11.4865 11.9769 11.4965L12.0102 11.5275C12.0211 11.5379 12.0326 11.5476 12.0446 11.5567L12.0796 11.5847C12.0916 11.5937 12.104 11.6014 12.1162 11.6099C12.1281 11.6185 12.1404 11.6264 12.1532 11.6336C12.1658 11.6407 12.1783 11.6483 12.191 11.6551L12.2294 11.6735C12.2422 11.6783 12.2552 11.6839 12.2676 11.688L12.2861 11.6938L12.2941 11.6957L12.2981 11.6967C12.2984 11.6966 12.2987 11.6966 12.299 11.6967L12.3128 11.7007C12.3348 11.7072 12.3534 11.7221 12.3647 11.742C12.376 11.762 12.3791 11.7856 12.3734 11.8078C12.3678 11.83 12.3537 11.8492 12.3342 11.8613C12.3147 11.8734 12.2912 11.8775 12.2688 11.8727L12.2687 11.8725Z" fill="#371A45"/>
<path d="M7.97773 11.4111C8.00221 11.2624 8.03157 11.1186 8.06413 10.9738C8.09669 10.8291 8.13333 10.6861 8.17349 10.5436C8.21365 10.4011 8.25913 10.2601 8.30833 10.1203C8.35817 9.98065 8.41493 9.84329 8.47721 9.70829C8.48272 9.69589 8.49291 9.68617 8.50556 9.68124C8.51821 9.67632 8.53229 9.67659 8.54474 9.68199C8.55719 9.6874 8.56701 9.6975 8.57204 9.71011C8.57708 9.72271 8.57694 9.73679 8.57165 9.74929L8.57117 9.75041C8.51629 9.88425 8.46673 10.0203 8.42389 10.1589C8.38169 10.2977 8.34273 10.4376 8.30969 10.5789C8.27665 10.7203 8.24657 10.8626 8.22061 11.0055C8.19465 11.1485 8.17185 11.2929 8.15477 11.4345L8.15457 11.4361C8.15316 11.4477 8.14948 11.459 8.14372 11.4692C8.13797 11.4794 8.13025 11.4884 8.12103 11.4957C8.1118 11.5029 8.10123 11.5083 8.08994 11.5114C8.07864 11.5146 8.06683 11.5155 8.05519 11.5141C8.04354 11.5127 8.03229 11.509 8.02206 11.5032C8.01184 11.4975 8.00285 11.4898 7.99561 11.4805C7.98837 11.4713 7.98302 11.4607 7.97986 11.4494C7.9767 11.4381 7.9758 11.4263 7.97721 11.4147C7.97733 11.4137 7.97757 11.4123 7.97773 11.4111Z" fill="#371A45"/>
<path d="M8.02072 11.1488C8.06003 11.0029 8.10313 10.8586 8.15004 10.7157C8.15418 10.7035 8.16273 10.6933 8.174 10.6871C8.18528 10.6809 8.19846 10.6791 8.21098 10.6821C8.22349 10.6851 8.23444 10.6927 8.24166 10.7033C8.24889 10.714 8.25187 10.7269 8.25004 10.7397C8.22817 10.8865 8.21025 11.0336 8.19628 11.1808C8.19498 11.1931 8.19118 11.2049 8.18512 11.2156C8.17905 11.2263 8.17085 11.2356 8.16102 11.243C8.15119 11.2504 8.13995 11.2557 8.12799 11.2585C8.11603 11.2614 8.10361 11.2618 8.0915 11.2596C8.07939 11.2575 8.06786 11.2528 8.05762 11.246C8.04737 11.2392 8.03864 11.2304 8.03196 11.2201C8.02528 11.2097 8.02079 11.1982 8.01878 11.186C8.01677 11.1739 8.01728 11.1615 8.02028 11.1496L8.02072 11.1488Z" fill="#39005E"/>
<path d="M6.92041 11.3613C6.91485 11.211 6.91817 11.0595 6.93665 10.9084C6.95513 10.7573 6.98737 10.6066 7.04109 10.4613C7.09481 10.316 7.16909 10.1764 7.26933 10.0539C7.3196 9.9922 7.37625 9.93597 7.43833 9.88615C7.4698 9.86091 7.50285 9.83772 7.53729 9.81671C7.55457 9.80599 7.57257 9.79603 7.59105 9.78647C7.60045 9.78175 7.60973 9.77711 7.61969 9.77271L7.63485 9.76611L7.64285 9.76283L7.65305 9.75883L7.66217 9.75567C7.67871 9.74994 7.69661 9.74944 7.71344 9.75424C7.73027 9.75904 7.74521 9.76891 7.75624 9.7825C7.76726 9.79609 7.77384 9.81275 7.77506 9.83021C7.77629 9.84766 7.77211 9.86507 7.76309 9.88007C7.75909 9.88671 7.75353 9.89807 7.74881 9.90755L7.73445 9.93823C7.72501 9.95891 7.71605 9.98019 7.70725 10.0016C7.68977 10.0445 7.67369 10.0884 7.65849 10.1328C7.64329 10.1772 7.62933 10.2222 7.61617 10.2676C7.60301 10.313 7.59101 10.3588 7.57953 10.4049V10.4054C7.57696 10.4156 7.57065 10.4245 7.56183 10.4303C7.55302 10.4361 7.54236 10.4383 7.53196 10.4366C7.52156 10.4349 7.51218 10.4294 7.50568 10.4211C7.49917 10.4128 7.49603 10.4023 7.49685 10.3918C7.50085 10.3434 7.50513 10.295 7.51089 10.2465C7.51665 10.198 7.52329 10.1495 7.53129 10.101C7.53929 10.0526 7.54853 10.0041 7.55929 9.95559C7.56485 9.93131 7.57061 9.90707 7.57721 9.88267L7.58749 9.84587C7.59149 9.83307 7.59453 9.82211 7.60017 9.80679L7.71017 9.92803L7.70289 9.93099L7.69289 9.93531C7.68613 9.93831 7.67901 9.94187 7.67205 9.94539C7.65801 9.95267 7.64405 9.96039 7.63009 9.96899C7.60201 9.98614 7.57506 10.0051 7.54941 10.0257C7.4972 10.0676 7.44956 10.115 7.40729 10.167C7.32189 10.2714 7.25593 10.3932 7.20853 10.523C7.16113 10.6528 7.13133 10.7902 7.11381 10.9297C7.09629 11.0692 7.09345 11.2118 7.09869 11.3541V11.3546C7.09938 11.3665 7.09769 11.3783 7.09372 11.3895C7.08975 11.4007 7.08359 11.411 7.07559 11.4198C7.0676 11.4286 7.05793 11.4357 7.04715 11.4407C7.03637 11.4457 7.0247 11.4486 7.01282 11.449C7.00095 11.4494 6.9891 11.4475 6.97798 11.4433C6.96686 11.4391 6.95669 11.4327 6.94807 11.4246C6.93944 11.4164 6.93254 11.4066 6.92775 11.3957C6.92297 11.3848 6.92041 11.3731 6.92021 11.3612L6.92041 11.3613Z" fill="#371A45"/>
<path d="M12.5304 11.8843C12.5162 11.8844 12.5023 11.881 12.4897 11.8746C12.4771 11.8682 12.4662 11.8588 12.4579 11.8474C12.0749 11.3175 12.1687 10.8403 12.3149 10.5332C12.4705 10.2063 12.7128 10.0052 12.7229 9.99684C12.7412 9.98181 12.7647 9.97467 12.7883 9.97699C12.8119 9.97931 12.8335 9.9909 12.8486 10.0092C12.8636 10.0275 12.8707 10.051 12.8684 10.0746C12.8661 10.0982 12.8545 10.1199 12.8362 10.1349C12.8331 10.1375 12.6109 10.3233 12.4735 10.6153C12.294 10.9967 12.3375 11.376 12.6025 11.7427C12.6121 11.756 12.6179 11.7718 12.6192 11.7882C12.6204 11.8046 12.6171 11.821 12.6097 11.8356C12.6022 11.8503 12.5908 11.8626 12.5768 11.8712C12.5628 11.8798 12.5467 11.8843 12.5302 11.8843H12.5304Z" fill="#371A45"/>
<path d="M13.0891 11.2937C13.0799 11.2708 13.0737 11.2517 13.0669 11.231C13.06 11.2102 13.054 11.1904 13.0483 11.1701C13.0366 11.1295 13.0262 11.0889 13.017 11.0482C12.9988 10.9673 12.9846 10.8856 12.9747 10.8032C12.9742 10.7983 12.9755 10.7934 12.9784 10.7893C12.9812 10.7852 12.9854 10.7823 12.9902 10.781C12.995 10.7797 13.0001 10.7802 13.0046 10.7823C13.009 10.7844 13.0126 10.788 13.0147 10.7925C13.046 10.8665 13.0811 10.9388 13.1198 11.0092C13.139 11.0441 13.1592 11.0783 13.1801 11.1117C13.1905 11.1284 13.2013 11.1448 13.2121 11.1609C13.2229 11.177 13.2346 11.1937 13.2447 11.2063C13.2528 11.2164 13.2587 11.2282 13.2618 11.2408C13.265 11.2533 13.2655 11.2665 13.2631 11.2792C13.2608 11.292 13.2557 11.3041 13.2483 11.3147C13.2409 11.3254 13.2312 11.3343 13.2201 11.3409C13.2089 11.3475 13.1964 11.3516 13.1835 11.3529C13.1706 11.3543 13.1575 11.3529 13.1452 11.3487C13.1329 11.3446 13.1217 11.3379 13.1122 11.329C13.1027 11.3201 13.0953 11.3093 13.0903 11.2973L13.0891 11.2937Z" fill="#371A45"/>
<path d="M14.2243 10.4275C14.2243 10.4355 14.2239 10.4392 14.2236 10.4445L14.2222 10.4586C14.2211 10.4678 14.2198 10.4767 14.2182 10.4856C14.209 10.5382 14.1916 10.5891 14.1668 10.6364C14.1335 10.6994 14.0838 10.7552 14.0243 10.7924C13.9951 10.8107 13.9638 10.8255 13.9312 10.8366C13.8997 10.8468 13.8673 10.854 13.8345 10.858C13.77 10.8662 13.7068 10.8632 13.6456 10.8548C13.6385 10.8538 13.6321 10.8502 13.6276 10.8447C13.6231 10.8393 13.6208 10.8323 13.6211 10.8252C13.6215 10.8181 13.6245 10.8114 13.6296 10.8064C13.6347 10.8014 13.6414 10.7986 13.6485 10.7983H13.6488C13.7069 10.7965 13.7642 10.789 13.8168 10.7728C13.8426 10.765 13.8676 10.7548 13.8915 10.7424C13.9139 10.7301 13.9348 10.7153 13.9539 10.6984C13.99 10.6652 14.0167 10.6231 14.0313 10.5764C14.0389 10.5531 14.0439 10.529 14.0462 10.5046C14.0475 10.4925 14.0481 10.4803 14.048 10.4681C14.048 10.4621 14.0478 10.4561 14.0475 10.4504L14.0468 10.442C14.0465 10.4399 14.0461 10.436 14.0459 10.4366C14.0447 10.413 14.0529 10.3898 14.0688 10.3722C14.0846 10.3546 14.1069 10.3441 14.1305 10.3429C14.1542 10.3417 14.1773 10.3499 14.1949 10.3658C14.2125 10.3817 14.223 10.4039 14.2242 10.4275H14.2243Z" fill="#371A45"/>
<path d="M9.98945 16.1444C9.94201 16.027 9.91745 15.8918 9.94025 15.7553C9.95169 15.6864 9.97567 15.6202 10.011 15.56C10.0294 15.5295 10.0508 15.5009 10.075 15.4746C10.0888 15.4595 10.104 15.4457 10.1204 15.4334C10.1356 15.4228 10.1495 15.4144 10.1639 15.406C10.2753 15.3425 10.3993 15.3043 10.5271 15.294C10.6511 15.2836 10.7759 15.3004 10.8927 15.3435C10.9004 15.3464 10.9069 15.352 10.9108 15.3593C10.9147 15.3665 10.9158 15.375 10.9139 15.383C10.912 15.3911 10.9073 15.3982 10.9006 15.403C10.8938 15.4078 10.8856 15.41 10.8774 15.4092H10.8769C10.7639 15.3974 10.6525 15.4014 10.547 15.4263C10.4947 15.4386 10.4437 15.4554 10.3944 15.4768C10.3459 15.4986 10.2986 15.5235 10.2569 15.5532C10.2467 15.5605 10.2362 15.5684 10.2281 15.5754C10.2219 15.5815 10.2161 15.588 10.2106 15.5948C10.1963 15.6126 10.1839 15.6318 10.1735 15.6521C10.1519 15.6942 10.1374 15.7395 10.1305 15.7862C10.116 15.8814 10.1303 15.9837 10.1585 16.0862L10.1589 16.0874C10.165 16.1094 10.1624 16.133 10.1517 16.1532C10.141 16.1734 10.1229 16.1887 10.1013 16.196C10.0796 16.2033 10.056 16.202 10.0352 16.1925C10.0145 16.1829 9.99818 16.1657 9.98969 16.1445L9.98945 16.1444Z" fill="#371A45"/>
<path d="M8.23665 15.2113C8.24285 15.2101 8.24705 15.2096 8.25153 15.2089C8.25601 15.2082 8.26049 15.2076 8.26473 15.2072C8.27329 15.2062 8.28189 15.2052 8.29021 15.2046C8.30709 15.2031 8.32369 15.2024 8.34029 15.2017C8.37341 15.2006 8.40629 15.2012 8.43901 15.203C8.50411 15.2066 8.56874 15.2163 8.63205 15.2319C8.66373 15.2386 8.69453 15.2494 8.72529 15.2588C8.75545 15.2708 8.78593 15.2808 8.81469 15.2955C8.87357 15.3213 8.92749 15.3565 8.97909 15.3929C8.98538 15.3976 8.98971 15.4045 8.99125 15.4122C8.99278 15.4199 8.99141 15.428 8.98741 15.4347C8.9834 15.4415 8.97704 15.4466 8.96953 15.449C8.96203 15.4513 8.95391 15.4509 8.94673 15.4476L8.94477 15.4467C8.89177 15.4208 8.83849 15.3968 8.78213 15.3821C8.75465 15.373 8.72581 15.3685 8.69785 15.3621C8.66917 15.3581 8.64105 15.3529 8.61225 15.3514C8.55534 15.3466 8.49811 15.3471 8.44129 15.3529C8.41305 15.3558 8.38505 15.3598 8.35757 15.3649C8.34389 15.3677 8.33021 15.3704 8.31701 15.3738C8.31025 15.3753 8.30385 15.3772 8.29745 15.379C8.29421 15.3798 8.29109 15.3808 8.28821 15.3817C8.28569 15.3824 8.28322 15.3832 8.28081 15.3842C8.26925 15.39 8.25659 15.3933 8.24368 15.3938C8.23077 15.3942 8.2179 15.392 8.20594 15.3871C8.19397 15.3822 8.18319 15.3749 8.1743 15.3655C8.16541 15.3561 8.15863 15.3449 8.15441 15.3327C8.15018 15.3205 8.14861 15.3075 8.1498 15.2947C8.15099 15.2818 8.15491 15.2693 8.1613 15.2581C8.16769 15.2469 8.17641 15.2371 8.18686 15.2296C8.19732 15.222 8.20927 15.2167 8.22193 15.2141L8.23665 15.2113Z" fill="#371A45"/>
<path d="M11.1371 14.8669C10.6675 14.8669 10.2994 14.7921 10.2742 14.7869C10.2512 14.7818 10.2312 14.7679 10.2184 14.7482C10.2057 14.7285 10.2012 14.7045 10.206 14.6815C10.2108 14.6585 10.2244 14.6383 10.244 14.6253C10.2636 14.6123 10.2875 14.6075 10.3106 14.612C10.3205 14.6141 11.3068 14.814 12.0911 14.5524C12.1133 14.5459 12.1372 14.5483 12.1576 14.559C12.1781 14.5697 12.1936 14.588 12.2009 14.6099C12.2083 14.6318 12.2068 14.6557 12.1968 14.6766C12.1869 14.6975 12.1692 14.7137 12.1476 14.7218C11.8138 14.8331 11.4525 14.8669 11.1371 14.8669Z" fill="#371A45"/>
<path d="M9.07725 14.8933C8.59961 14.8933 8.19929 14.7683 8.17253 14.7598C8.16136 14.7563 8.15099 14.7505 8.14203 14.743C8.13308 14.7354 8.12569 14.7261 8.12031 14.7157C8.11493 14.7053 8.11165 14.6939 8.11067 14.6822C8.10968 14.6706 8.11101 14.6588 8.11457 14.6476C8.11813 14.6364 8.12386 14.6261 8.13142 14.6171C8.13899 14.6082 8.14825 14.6008 8.15867 14.5954C8.16908 14.59 8.18046 14.5867 8.19215 14.5858C8.20383 14.5848 8.2156 14.5861 8.22677 14.5897C8.23673 14.5928 9.22949 14.9017 9.90677 14.5305C9.91707 14.5245 9.92845 14.5207 9.94024 14.5192C9.95203 14.5178 9.964 14.5187 9.97544 14.5219C9.98688 14.5251 9.99757 14.5305 10.0069 14.5379C10.0162 14.5453 10.0239 14.5545 10.0296 14.5649C10.0353 14.5753 10.0389 14.5868 10.0401 14.5986C10.0414 14.6104 10.0402 14.6224 10.0368 14.6338C10.0334 14.6451 10.0277 14.6557 10.0201 14.6649C10.0125 14.674 10.0032 14.6816 9.99265 14.6871C9.70569 14.8441 9.37629 14.8933 9.07725 14.8933Z" fill="#371A45"/>
<path d="M10.094 13.98C10.0756 13.98 10.0578 13.9744 10.0427 13.9639C10.0277 13.9534 10.0163 13.9386 10.01 13.9214L9.81796 13.3974C9.81392 13.3864 9.81209 13.3747 9.81258 13.363C9.81306 13.3512 9.81585 13.3397 9.82078 13.3291C9.82571 13.3185 9.83269 13.3089 9.84131 13.3009C9.84994 13.293 9.86005 13.2868 9.87106 13.2828C9.88207 13.2788 9.89377 13.2769 9.90548 13.2774C9.9172 13.2779 9.92871 13.2807 9.93935 13.2856C9.94998 13.2906 9.95955 13.2975 9.96749 13.3062C9.97543 13.3148 9.9816 13.3249 9.98564 13.3359L10.1776 13.8599C10.1826 13.8734 10.1842 13.8879 10.1823 13.9022C10.1804 13.9164 10.1751 13.93 10.1669 13.9418C10.1587 13.9536 10.1477 13.9632 10.1349 13.9698C10.1222 13.9765 10.108 13.9799 10.0936 13.9799L10.094 13.98Z" fill="#371A45"/>
<path d="M8.52274 12.8585C8.56162 12.8842 8.6055 12.9096 8.64822 12.9332C8.69166 12.9564 8.73526 12.9794 8.77982 13.0003C8.86871 13.0424 8.95971 13.0798 9.05246 13.1125C9.07554 13.1208 9.0987 13.1288 9.12218 13.136C9.14566 13.1432 9.16886 13.1509 9.1925 13.1574C9.23934 13.1718 9.28678 13.1839 9.33434 13.1954C9.42948 13.2179 9.52577 13.2353 9.62278 13.2474C9.67118 13.2542 9.71998 13.2568 9.76858 13.2618C9.81734 13.2641 9.8661 13.2682 9.91498 13.2678C9.93942 13.2678 9.96386 13.2687 9.9883 13.2683L10.0617 13.267C10.0861 13.267 10.1105 13.2645 10.135 13.2633C10.1594 13.2621 10.1839 13.2608 10.2083 13.2583C10.4039 13.2419 10.5983 13.2063 10.7925 13.1593H10.7928C10.8033 13.1567 10.8145 13.1581 10.824 13.1633C10.8335 13.1685 10.8407 13.1771 10.8442 13.1874C10.8476 13.1977 10.8471 13.2089 10.8427 13.2188C10.8383 13.2287 10.8304 13.2366 10.8204 13.2409C10.6322 13.3238 10.4307 13.3788 10.225 13.4084C10.122 13.4212 10.018 13.4311 9.91374 13.4299C9.86174 13.4309 9.80974 13.4274 9.75746 13.4254C9.70546 13.4214 9.65346 13.4169 9.6019 13.4094C9.49866 13.3953 9.39586 13.3764 9.29558 13.3481C9.24542 13.3342 9.19558 13.3195 9.1463 13.3026C9.12158 13.2946 9.0973 13.2851 9.07302 13.2758C9.04874 13.2665 9.02458 13.257 9.00066 13.2468C8.90485 13.2069 8.81196 13.1602 8.7227 13.1072C8.67834 13.0804 8.63446 13.0527 8.5923 13.0224C8.54929 12.9923 8.50812 12.9596 8.46902 12.9245C8.4611 12.9173 8.45618 12.9074 8.45524 12.8968C8.4543 12.8861 8.45742 12.8755 8.46396 12.867C8.4705 12.8586 8.47999 12.8529 8.49053 12.8512C8.50107 12.8494 8.51189 12.8517 8.52082 12.8576L8.52274 12.8585Z" fill="#371A45"/>
<path d="M12.1263 11.7165C12.018 11.7252 11.914 11.7287 11.8157 11.7287C11.2951 11.7287 10.9308 11.6258 10.9109 11.62C10.8544 11.6033 10.8068 11.5649 10.7785 11.5132C10.7501 11.4615 10.7434 11.4007 10.7597 11.3441C10.776 11.2874 10.8141 11.2395 10.8656 11.2108C10.9171 11.1821 10.9779 11.175 11.0346 11.1909C11.0415 11.1929 11.3112 11.2675 11.7059 11.2802C11.8611 11.5233 12.0161 11.6506 12.1263 11.7165Z" fill="white"/>
<path d="M11.8159 11.8179C11.2769 11.8179 10.9018 11.7103 10.8861 11.7057C10.8064 11.6827 10.7392 11.629 10.6991 11.5564C10.659 11.4839 10.6494 11.3983 10.6724 11.3187C10.6954 11.239 10.7491 11.1718 10.8217 11.1317C10.8942 11.0916 10.9797 11.082 11.0594 11.105C11.062 11.1058 11.3225 11.1785 11.7089 11.1909C11.7235 11.1914 11.7376 11.1954 11.7502 11.2025C11.7629 11.2097 11.7735 11.2199 11.7814 11.2321C11.9298 11.4647 12.0759 11.5822 12.1722 11.6397C12.1885 11.6495 12.2012 11.6641 12.2086 11.6815C12.216 11.6989 12.2177 11.7182 12.2134 11.7367C12.2091 11.7551 12.199 11.7717 12.1847 11.784C12.1704 11.7964 12.1525 11.8039 12.1336 11.8054C12.0298 11.8137 11.9229 11.8179 11.8159 11.8179ZM10.9731 11.2714C10.9441 11.2714 10.9158 11.2808 10.8926 11.2983C10.8693 11.3157 10.8524 11.3402 10.8443 11.3681C10.8394 11.385 10.8378 11.4027 10.8398 11.4202C10.8417 11.4378 10.8471 11.4547 10.8556 11.4701C10.8641 11.4856 10.8755 11.4992 10.8893 11.5102C10.9031 11.5211 10.9189 11.5293 10.9358 11.5342C10.9395 11.5353 11.3021 11.6393 11.8158 11.6393C11.8377 11.6393 11.8596 11.6392 11.8814 11.6388C11.8104 11.5708 11.7334 11.4823 11.6565 11.3676C11.2727 11.3503 11.0125 11.2774 11.0098 11.2766C10.9978 11.2732 10.9855 11.2714 10.9731 11.2714Z" fill="#371A45"/>
<path d="M8.27588 10.68C8.28411 10.7078 8.2857 10.7372 8.28052 10.7658L8.27832 10.7761L8.27704 10.7809L8.27508 10.7875L8.27108 10.8007C8.2658 10.8184 8.2612 10.8363 8.25636 10.8541L8.22836 10.9611C8.21908 10.9969 8.21064 11.0328 8.20248 11.0688C8.19432 11.1047 8.18612 11.1408 8.1788 11.1768L8.17792 11.1811C8.17615 11.19 8.17265 11.1984 8.16763 11.2059C8.16261 11.2133 8.15617 11.2198 8.14866 11.2248C8.14116 11.2297 8.13274 11.2332 8.1239 11.235C8.11506 11.2367 8.10596 11.2367 8.09712 11.2349L8.09276 11.2339L8.03868 11.2193L8.01168 11.2119L7.9982 11.2083C7.99344 11.2069 7.98728 11.2045 7.98192 11.2026C7.9377 11.1867 7.89799 11.1603 7.86616 11.1257C7.80216 11.0577 7.77564 10.9577 7.79556 10.8674C7.80528 10.8221 7.82569 10.7797 7.85508 10.7438C7.88496 10.7085 7.92249 10.6804 7.96484 10.6617C8.00774 10.6429 8.05402 10.6331 8.10084 10.6328C8.11244 10.6337 8.12484 10.6333 8.13624 10.6347C8.14947 10.6361 8.16262 10.6381 8.17564 10.6407C8.21079 10.6489 8.24456 10.6621 8.27588 10.68ZM8.12388 10.7741C8.1194 10.7825 8.12064 10.789 8.11988 10.7875C8.12156 10.7872 8.1124 10.7835 8.10704 10.7811C8.10127 10.7787 8.09535 10.7768 8.08932 10.7752C8.06465 10.7697 8.03891 10.7717 8.01532 10.7807C7.99169 10.7906 7.97086 10.8061 7.95468 10.826C7.93876 10.8459 7.92779 10.8694 7.92268 10.8944C7.91762 10.9192 7.91875 10.9448 7.92597 10.9691C7.93319 10.9934 7.94628 11.0155 7.96408 11.0335C7.98134 11.0515 8.00298 11.0648 8.02688 11.0719C8.03 11.0728 8.03216 11.0738 8.03604 11.0747L8.0486 11.0775L8.07372 11.0831L8.12388 11.0943L8.03784 11.1516L8.05556 11.0403L8.074 10.9291L8.0932 10.8179L8.1032 10.7623L8.1056 10.7483L8.1068 10.7414L8.10708 10.7397C8.10708 10.7389 8.10708 10.7384 8.10708 10.7394C8.10679 10.7405 8.10659 10.7417 8.10648 10.7428C8.105 10.7526 8.1122 10.7676 8.12388 10.7741Z" fill="#371A45"/>
<path d="M6.12001 9.66991C6.12252 9.66686 6.1252 9.66395 6.12801 9.66119C6.13033 9.65875 6.13261 9.65639 6.13477 9.65439C6.13917 9.65039 6.14357 9.64583 6.14801 9.64215C6.15677 9.63415 6.16577 9.62703 6.17489 9.62007C6.19302 9.60633 6.21202 9.59378 6.23177 9.58251C6.27113 9.56013 6.31369 9.54394 6.35797 9.53451C6.40129 9.52487 6.44596 9.52286 6.48997 9.52855C6.51165 9.53015 6.53241 9.53603 6.55293 9.54103C6.57345 9.54603 6.59257 9.55503 6.61193 9.56191C6.61995 9.56472 6.62666 9.57037 6.6308 9.5778C6.63493 9.58522 6.63621 9.5939 6.63439 9.6022C6.63257 9.6105 6.62778 9.61784 6.62091 9.62285C6.61405 9.62786 6.60559 9.63018 6.59713 9.62939L6.59089 9.62879C6.57321 9.62719 6.55609 9.62371 6.53889 9.62355C6.52169 9.62339 6.50489 9.62279 6.48845 9.62579C6.45627 9.62921 6.42496 9.63839 6.39601 9.65287C6.36769 9.6666 6.34167 9.68463 6.31885 9.70631C6.30764 9.71711 6.29711 9.7286 6.28733 9.74071C6.28253 9.74675 6.27797 9.75271 6.27385 9.75895C6.27161 9.76199 6.26985 9.76495 6.26805 9.76791C6.26705 9.76947 6.26637 9.77079 6.26569 9.77191C6.26501 9.77303 6.26417 9.77471 6.26477 9.77439C6.2508 9.79336 6.2299 9.80605 6.20662 9.80969C6.18334 9.81333 6.15956 9.80762 6.14047 9.7938C6.12138 9.77999 6.10853 9.75919 6.1047 9.73594C6.10088 9.71269 6.10639 9.68887 6.12005 9.66967L6.12001 9.66991Z" fill="#371A45"/>
<g opacity="0.2">
<path opacity="0.2" d="M8.32129 10.2137C8.15568 10.3985 7.94893 10.5419 7.71773 10.6321C7.59985 10.678 7.46909 10.7096 7.34765 10.6744C7.22621 10.6392 7.12277 10.5174 7.13785 10.3899C6.96585 10.3486 6.81229 10.2413 6.70877 10.0984C6.67079 10.046 6.61628 10.008 6.55404 9.99037C6.49179 9.97276 6.42543 9.97662 6.36565 10.0013C6.10378 10.1085 5.81953 10.1494 5.53809 10.1204C5.56248 10.1866 5.60175 10.2464 5.65286 10.2951C5.70397 10.3438 5.76556 10.3801 5.83291 10.4013C5.90026 10.4225 5.97156 10.4279 6.04135 10.4172C6.11113 10.4065 6.17753 10.38 6.23545 10.3396C6.34481 10.7134 6.60345 11.0411 6.94173 11.2342C7.28001 11.4273 7.69373 11.4835 8.06917 11.3695C8.17033 10.9849 8.25209 10.5952 8.32129 10.2137Z" fill="#371A45"/>
</g>
<path d="M10.6169 12.2374L8.35612 11.9268C8.31911 11.9218 8.28346 11.9094 8.25121 11.8906C8.21896 11.8717 8.19075 11.8467 8.16817 11.8169C8.14559 11.7872 8.1291 11.7533 8.11963 11.7171C8.11017 11.681 8.10791 11.6433 8.113 11.6063L8.29404 10.2877C8.29912 10.2507 8.31145 10.2151 8.33031 10.1828C8.34917 10.1506 8.37419 10.1224 8.40395 10.0998C8.43372 10.0772 8.46764 10.0607 8.50377 10.0513C8.53991 10.0418 8.57755 10.0396 8.61456 10.0446L10.8755 10.3552C10.9502 10.3655 11.0178 10.405 11.0634 10.4652C11.109 10.5253 11.1289 10.601 11.1186 10.6758L10.9374 11.9944C10.9272 12.0691 10.8876 12.1367 10.8275 12.1823C10.7674 12.2279 10.6917 12.2477 10.6169 12.2374Z" fill="white"/>
<path d="M10.6554 12.3296C10.6383 12.3297 10.6212 12.3285 10.6043 12.3262L8.34333 12.0156C8.24518 12.002 8.15644 11.95 8.09656 11.871C8.03669 11.7921 8.01057 11.6926 8.02393 11.5944L8.20509 10.276C8.21872 10.1778 8.27071 10.0891 8.34966 10.0292C8.4286 9.96934 8.52806 9.9432 8.62625 9.95653L10.8872 10.2671C10.9853 10.2807 11.074 10.3327 11.1338 10.4116C11.1937 10.4904 11.2199 10.5898 11.2066 10.688L11.0254 12.0066C11.0131 12.096 10.9688 12.1779 10.9008 12.2373C10.8328 12.2967 10.7457 12.3295 10.6554 12.3296ZM8.57541 10.1315C8.52829 10.1316 8.48279 10.1487 8.44729 10.1797C8.41179 10.2107 8.38868 10.2534 8.38221 10.3001L8.20105 11.6187C8.19403 11.67 8.20765 11.722 8.23892 11.7632C8.27018 11.8045 8.31654 11.8316 8.36781 11.8387L10.6288 12.1493C10.6801 12.1564 10.732 12.1428 10.7733 12.1115C10.8146 12.0802 10.8417 12.0339 10.8488 11.9826L11.0296 10.664C11.0367 10.6127 11.023 10.5607 10.9918 10.5195C10.9605 10.4782 10.9141 10.4511 10.8628 10.444L8.60193 10.1334C8.59309 10.1321 8.58417 10.1315 8.57525 10.1315H8.57541Z" fill="#371A45"/>
<path d="M10.2436 12.273C10.2263 12.273 10.2091 12.2719 10.192 12.2695L8.34333 12.0156C8.24518 12.002 8.15644 11.95 8.09656 11.871C8.03669 11.7921 8.01057 11.6926 8.02393 11.5944L8.20505 10.276C8.21868 10.1778 8.27067 10.0891 8.34962 10.0292C8.42856 9.96934 8.52802 9.9432 8.62621 9.95653L10.4748 10.2105C10.573 10.2241 10.6617 10.2761 10.7216 10.355C10.7815 10.434 10.8076 10.5335 10.7942 10.6316L10.613 11.9502C10.6008 12.0396 10.5566 12.1215 10.4887 12.1809C10.4208 12.2402 10.3338 12.273 10.2436 12.2732L10.2436 12.273ZM8.57521 10.1315C8.52809 10.1316 8.48259 10.1487 8.44709 10.1797C8.41159 10.2107 8.38848 10.2534 8.38201 10.3001L8.20085 11.6187C8.19383 11.67 8.20745 11.722 8.23872 11.7632C8.26998 11.8045 8.31634 11.8316 8.36761 11.8387L10.2162 12.0927C10.2416 12.0962 10.2674 12.0947 10.2922 12.0882C10.3171 12.0817 10.3403 12.0704 10.3608 12.0549C10.3812 12.0394 10.3984 12.0201 10.4113 11.9979C10.4243 11.9758 10.4327 11.9513 10.4362 11.9259L10.6174 10.6073C10.6244 10.556 10.6107 10.504 10.5795 10.4628C10.5482 10.4215 10.5018 10.3944 10.4506 10.3873L8.60197 10.1333C8.5931 10.1321 8.58416 10.1315 8.57521 10.1315Z" fill="#371A45"/>
<path d="M10.2139 11.2272C10.3335 11.1077 10.3335 10.9138 10.2139 10.7943C10.0944 10.6747 9.9005 10.6747 9.78094 10.7943C9.66138 10.9138 9.66138 11.1077 9.78094 11.2272C9.9005 11.3468 10.0944 11.3468 10.2139 11.2272Z" fill="#4599F4"/>
<g opacity="0.7">
<path opacity="0.7" d="M10.0267 10.876C10.084 10.8761 10.14 10.8921 10.1886 10.9224C10.2371 10.9527 10.2762 10.996 10.3014 11.0474C10.3029 11.0353 10.3036 11.0231 10.3037 11.0109C10.3038 10.9648 10.2935 10.9192 10.2735 10.8776C10.2535 10.836 10.2244 10.7995 10.1883 10.7708C10.1522 10.742 10.1101 10.7218 10.0651 10.7116C10.0201 10.7015 9.97333 10.7016 9.92838 10.712C9.88343 10.7224 9.84142 10.7429 9.80549 10.7718C9.76956 10.8008 9.74064 10.8375 9.72088 10.8792C9.70113 10.9209 9.69105 10.9665 9.69142 11.0127C9.69178 11.0588 9.70256 11.1043 9.72297 11.1456C9.73187 11.0713 9.7677 11.0029 9.82367 10.9532C9.87964 10.9035 9.95188 10.8761 10.0267 10.876Z" fill="white"/>
</g>
<path d="M9.99806 11.4062C9.91984 11.4062 9.84337 11.383 9.77833 11.3396C9.71328 11.2961 9.66259 11.2343 9.63265 11.1621C9.60271 11.0898 9.59488 11.0103 9.61014 10.9336C9.62539 10.8569 9.66306 10.7864 9.71837 10.7311C9.77368 10.6758 9.84416 10.6381 9.92087 10.6228C9.99759 10.6076 10.0771 10.6154 10.1494 10.6453C10.2216 10.6753 10.2834 10.726 10.3269 10.791C10.3703 10.8561 10.3935 10.9325 10.3935 11.0108C10.3934 11.1156 10.3516 11.2161 10.2775 11.2902C10.2034 11.3643 10.1029 11.406 9.99806 11.4062ZM9.99806 10.7939C9.95516 10.7939 9.91323 10.8066 9.87757 10.8304C9.8419 10.8543 9.8141 10.8881 9.79769 10.9278C9.78127 10.9674 9.77698 11.011 9.78535 11.0531C9.79372 11.0951 9.81437 11.1338 9.8447 11.1641C9.87503 11.1944 9.91368 11.2151 9.95575 11.2235C9.99782 11.2318 10.0414 11.2275 10.0811 11.2111C10.1207 11.1947 10.1546 11.1669 10.1784 11.1312C10.2022 11.0956 10.2149 11.0536 10.2149 11.0108C10.2149 10.9533 10.192 10.8981 10.1513 10.8575C10.1107 10.8168 10.0556 10.7939 9.99806 10.7939Z" fill="#371A45"/>
<path d="M9.18781 12.0795C9.17517 12.0795 9.16267 12.0768 9.15115 12.0717C9.13962 12.0665 9.12932 12.0589 9.12093 12.0495C9.11254 12.04 9.10625 12.0289 9.10248 12.0168C9.09871 12.0048 9.09754 11.992 9.09905 11.9795L9.16857 11.4004C9.17206 11.3715 9.16837 11.3422 9.15782 11.3151C9.14728 11.288 9.13021 11.2639 9.10813 11.245L8.97369 11.1297C8.92966 11.092 8.89553 11.0441 8.87429 10.9902C8.85305 10.9362 8.84535 10.8779 8.85185 10.8203L8.93365 10.091C8.93496 10.0794 8.93856 10.0681 8.94423 10.0578C8.9499 10.0476 8.95754 10.0385 8.96671 10.0312C8.97588 10.0239 8.9864 10.0185 8.99767 10.0152C9.00894 10.012 9.02074 10.011 9.03239 10.0123C9.04404 10.0136 9.05532 10.0172 9.06559 10.0229C9.07585 10.0285 9.0849 10.0362 9.09221 10.0453C9.09952 10.0545 9.10495 10.065 9.1082 10.0763C9.11145 10.0876 9.11244 10.0994 9.11113 10.111L9.02913 10.8401C9.02589 10.8688 9.02972 10.8978 9.04029 10.9246C9.05085 10.9515 9.06783 10.9753 9.08973 10.9941L9.22417 11.1093C9.26858 11.1473 9.30291 11.1957 9.32411 11.2502C9.34531 11.3047 9.35272 11.3635 9.34569 11.4215L9.27617 12.0007C9.2736 12.0223 9.2632 12.0423 9.24692 12.0568C9.23065 12.0713 9.20962 12.0794 9.18781 12.0795Z" fill="#371A45"/>
<g opacity="0.2">
<path opacity="0.2" d="M11.0889 10.4658C11.0348 10.6677 11.0691 10.8815 11.0609 11.0904C11.0526 11.2993 10.9826 11.5304 10.7975 11.6275C10.6698 11.6945 10.5168 11.6823 10.3735 11.6678C9.6435 11.5939 8.91533 11.5043 8.18898 11.399C8.07654 11.5241 8.13662 11.7373 8.26782 11.8426C8.39902 11.9479 8.57486 11.9741 8.74158 11.9966L10.4592 12.2282C10.5592 12.2417 10.6672 12.2536 10.7547 12.2035C10.8537 12.1468 10.8962 12.0281 10.9271 11.9183C11.0601 11.4443 11.1205 10.95 11.0889 10.4658Z" fill="#371A45"/>
</g>
<g opacity="0.2">
<path opacity="0.2" d="M14.1356 10.4451C14.138 10.5888 14.0482 10.7298 13.917 10.7884C13.7858 10.8469 13.621 10.8196 13.5155 10.7219C13.4621 10.6723 13.4227 10.5944 13.4506 10.527C13.4717 10.4762 13.5243 10.4464 13.5754 10.4262C13.7577 10.3539 13.9683 10.3563 14.1356 10.4451Z" fill="#371A45"/>
</g>
<path d="M13.2058 5.99902C13.2058 5.99902 13.8375 6.30702 13.8938 6.43434C13.9978 6.67034 13.854 7.98854 13.4775 8.30118C13.3301 8.42362 12.3262 8.45878 12.3262 8.45878L13.2058 5.99902Z" fill="white"/>
<path d="M12.3262 8.45848C12.3262 8.45848 13.3302 8.42324 13.4775 8.3008C13.6247 8.17836 13.7361 7.9034 13.811 7.59904C13.799 7.60792 13.4209 7.87836 12.778 7.19944C12.7777 7.19908 12.7771 7.19864 12.7768 7.19824L12.3262 8.45848Z" fill="#E2E2E2"/>
<path d="M10.2431 7.11719L10.242 7.12847L10.2354 7.12227L10.2431 7.11719Z" fill="#D8D8D8"/>
<path d="M10.2352 7.12257L10.2275 7.12745L10.2286 7.11621L10.2352 7.12257Z" fill="#D8D8D8"/>
<path d="M7.97001 8.05989C7.97001 8.05989 6.98913 7.84309 6.86645 7.69589C6.74377 7.54869 6.68429 7.25817 6.66581 6.94525C6.63673 6.45685 6.70753 5.91481 6.79609 5.78481C6.87441 5.66981 7.55161 5.48145 7.55161 5.48145L7.75561 6.73901L7.97001 8.05989Z" fill="white"/>
<path d="M7.96924 8.06034C7.96924 8.06034 6.98836 7.84354 6.86568 7.69634C6.743 7.54914 6.68352 7.25862 6.66504 6.9457C6.67508 6.95658 6.99792 7.29118 7.75344 6.74022C7.7538 6.7399 7.7544 6.73958 7.7548 6.73926L7.96924 8.06034Z" fill="#D8D8D8"/>
<path d="M12.3265 8.54751C12.3122 8.54749 12.2981 8.54403 12.2854 8.53744C12.2727 8.53084 12.2618 8.52129 12.2536 8.50959C12.2453 8.4979 12.24 8.48439 12.2381 8.47022C12.2362 8.45605 12.2377 8.44162 12.2425 8.42815L13.1221 5.96843C13.1264 5.9566 13.133 5.9458 13.1417 5.93673C13.1504 5.92765 13.1609 5.92052 13.1725 5.91578C13.1842 5.91104 13.1966 5.90881 13.2092 5.90923C13.2217 5.90965 13.2341 5.91272 13.2453 5.91823C13.4441 6.01515 13.9133 6.25587 13.9759 6.39775C14.0925 6.66203 13.9497 8.02487 13.535 8.36935C13.3765 8.50103 12.5724 8.53895 12.3297 8.54747L12.3265 8.54751ZM13.2563 6.12351L12.4553 8.36351C12.8899 8.34203 13.3513 8.28971 13.4208 8.23207C13.5657 8.11175 13.6993 7.77207 13.7783 7.32315C13.8546 6.88903 13.8471 6.54871 13.8124 6.46999C13.7801 6.41359 13.5145 6.25483 13.2563 6.12331V6.12351Z" fill="#371A45"/>
<path d="M7.97011 8.14868C7.96363 8.14868 7.95717 8.14799 7.95083 8.1466C7.71375 8.0942 6.92991 7.91096 6.79791 7.75272C6.45255 7.33868 6.55947 5.97272 6.72211 5.73388C6.80943 5.60568 7.31447 5.45388 7.52751 5.39484C7.53961 5.39149 7.55227 5.39073 7.56467 5.3926C7.57708 5.39447 7.58896 5.39894 7.59952 5.4057C7.61009 5.41247 7.61911 5.42139 7.626 5.43187C7.63289 5.44236 7.6375 5.45418 7.63951 5.46656L8.05819 8.04508C8.06027 8.05784 8.05954 8.0709 8.05608 8.08335C8.05261 8.0958 8.04648 8.10735 8.03811 8.1172C8.02975 8.12705 8.01934 8.13497 8.00761 8.1404C7.99589 8.14584 7.98312 8.14866 7.97019 8.14868H7.97011ZM7.47943 5.59452C7.20171 5.677 6.91143 5.78504 6.86887 5.83556C6.82123 5.90556 6.75215 6.23884 6.74847 6.67956C6.74447 7.13524 6.81443 7.49364 6.93507 7.63828C6.99287 7.70756 7.43715 7.84276 7.86071 7.94272L7.47943 5.59452Z" fill="#371A45"/>
<path d="M10.303 9.61483C11.9859 9.61483 13.3502 8.25057 13.3502 6.56767C13.3502 4.88477 11.9859 3.52051 10.303 3.52051C8.62012 3.52051 7.25586 4.88477 7.25586 6.56767C7.25586 8.25057 8.62012 9.61483 10.303 9.61483Z" fill="white"/>
<path d="M13.3368 6.84449C13.1835 8.52049 11.7008 9.75469 10.0248 9.60133C8.34883 9.44797 7.11443 7.96533 7.26775 6.28933C7.2836 6.11537 7.31438 5.9431 7.35975 5.77441C7.47523 7.22553 8.62095 8.42617 10.1198 8.56333C11.6186 8.70049 12.9631 7.72761 13.34 6.32157C13.3539 6.49565 13.3529 6.6706 13.3368 6.84449Z" fill="#D8D8D8"/>
<path d="M10.3078 9.68757C10.2116 9.68757 10.115 9.68315 10.018 9.67429C9.18798 9.59829 8.43722 9.20377 7.90402 8.56317C7.37082 7.92257 7.11898 7.11265 7.1949 6.28265C7.27082 5.45265 7.66546 4.70185 8.30606 4.16865C8.94666 3.63545 9.75674 3.38357 10.5867 3.45957C11.4166 3.53557 12.1675 3.93013 12.7007 4.57073C13.2339 5.21133 13.4857 6.02125 13.4097 6.85125C13.3338 7.68125 12.9392 8.43205 12.2986 8.96525C11.7328 9.43617 11.035 9.68757 10.3078 9.68757ZM10.2971 3.59265C9.60398 3.59265 8.93898 3.83229 8.3997 4.28113C7.78918 4.78933 7.41306 5.50489 7.34066 6.29597C7.26826 7.08705 7.50834 7.85897 8.01666 8.46949C8.52498 9.08001 9.24038 9.45617 10.0315 9.52853C10.8225 9.60089 11.5945 9.36089 12.205 8.85253C12.8155 8.34417 13.1918 7.62901 13.2638 6.83793L13.3367 6.84461L13.2638 6.83793C13.3362 6.04685 13.0962 5.27493 12.5878 4.66437C12.0795 4.05381 11.3641 3.67773 10.573 3.60537C10.481 3.59689 10.3887 3.59269 10.2971 3.59269L10.2971 3.59265Z" fill="#371A45"/>
<path d="M10.3078 9.68757C10.2116 9.68757 10.115 9.68315 10.018 9.67429C9.18798 9.59829 8.43722 9.20377 7.90402 8.56317C7.37082 7.92257 7.11898 7.11265 7.1949 6.28265C7.27082 5.45265 7.66546 4.70185 8.30606 4.16865C8.94666 3.63545 9.75674 3.38357 10.5867 3.45957C11.4166 3.53557 12.1675 3.93013 12.7007 4.57073C13.2339 5.21133 13.4857 6.02125 13.4097 6.85125C13.3338 7.68125 12.9392 8.43205 12.2986 8.96525C11.7328 9.43617 11.035 9.68757 10.3078 9.68757ZM10.2971 3.59265C9.60398 3.59265 8.93898 3.83229 8.3997 4.28113C7.78918 4.78933 7.41306 5.50489 7.34066 6.29597C7.26826 7.08705 7.50834 7.85897 8.01666 8.46949C8.52498 9.08001 9.24038 9.45617 10.0315 9.52853C10.8225 9.60089 11.5945 9.36089 12.205 8.85253C12.8155 8.34417 13.1918 7.62901 13.2638 6.83793L13.3367 6.84461L13.2638 6.83793C13.3362 6.04685 13.0962 5.27493 12.5878 4.66437C12.0795 4.05381 11.3641 3.67773 10.573 3.60537C10.481 3.59689 10.3887 3.59269 10.2971 3.59269L10.2971 3.59265Z" fill="#371A45"/>
<path d="M10.3078 9.68757C10.2116 9.68757 10.115 9.68315 10.018 9.67429C9.18798 9.59829 8.43722 9.20377 7.90402 8.56317C7.37082 7.92257 7.11898 7.11265 7.1949 6.28265C7.27082 5.45265 7.66546 4.70185 8.30606 4.16865C8.94666 3.63545 9.75674 3.38357 10.5867 3.45957C11.4166 3.53557 12.1675 3.93013 12.7007 4.57073C13.2339 5.21133 13.4857 6.02125 13.4097 6.85125C13.3338 7.68125 12.9392 8.43205 12.2986 8.96525C11.7328 9.43617 11.035 9.68757 10.3078 9.68757ZM10.2971 3.59265C9.60398 3.59265 8.93898 3.83229 8.3997 4.28113C7.78918 4.78933 7.41306 5.50489 7.34066 6.29597C7.26826 7.08705 7.50834 7.85897 8.01666 8.46949C8.52498 9.08001 9.24038 9.45617 10.0315 9.52853C10.8225 9.60089 11.5945 9.36089 12.205 8.85253C12.8155 8.34417 13.1918 7.62901 13.2638 6.83793L13.3367 6.84461L13.2638 6.83793C13.3362 6.04685 13.0962 5.27493 12.5878 4.66437C12.0795 4.05381 11.3641 3.67773 10.573 3.60537C10.481 3.59689 10.3887 3.59269 10.2971 3.59269L10.2971 3.59265Z" fill="#371A45"/>
<path d="M10.3049 9.70367C10.2094 9.70367 10.1134 9.69928 10.0169 9.69051C8.59393 9.56031 7.43965 8.48695 7.20789 7.07939C7.20745 7.07747 7.20705 7.07539 7.20673 7.07351C7.16414 6.81173 7.15492 6.54561 7.17929 6.28151C7.18993 6.16462 7.20719 6.04843 7.231 5.93351C7.55152 4.36855 8.99501 3.29827 10.5884 3.44391C12.1824 3.58975 13.4077 4.90467 13.4385 6.50255C13.4409 6.61953 13.4367 6.73655 13.426 6.85307C13.402 7.11719 13.3448 7.37722 13.2556 7.62699C13.2549 7.62891 13.2542 7.63099 13.2534 7.63267C12.8026 8.88367 11.6162 9.70367 10.3049 9.70367ZM7.38348 7.04619C7.60044 8.37555 8.68989 9.38975 10.0332 9.51267C11.3765 9.63559 12.6322 8.83587 13.0868 7.56767C13.0876 7.56547 13.0884 7.56331 13.0894 7.56115C13.1724 7.3272 13.2257 7.08377 13.2482 6.83655C13.2582 6.72662 13.2622 6.61623 13.26 6.50587C13.2309 4.99899 12.0754 3.75907 10.572 3.62155C9.06856 3.48403 7.70797 4.49355 7.40577 5.96935C7.38329 6.07775 7.36699 6.18734 7.35696 6.29759C7.33415 6.54479 7.34253 6.79388 7.38193 7.03899C7.38265 7.04135 7.38312 7.04367 7.38348 7.04611V7.04619Z" fill="#371A45"/>
<path d="M13.304 6.11297C13.2885 6.11296 13.2735 6.10807 13.261 6.099C13.2485 6.08993 13.2392 6.07716 13.2345 6.06249C12.8569 4.90577 11.7994 4.08393 10.5402 3.96873C9.28206 3.85349 8.09302 4.46929 7.51146 5.53725C7.50259 5.55348 7.48791 5.56575 7.47036 5.57159C7.45282 5.57744 7.43371 5.57643 7.41688 5.56876C7.40005 5.5611 7.38675 5.54735 7.37964 5.53027C7.37254 5.5132 7.37216 5.49407 7.37858 5.47673C7.86798 4.16137 9.18726 3.33225 10.5868 3.46025C11.9873 3.58825 13.1343 4.64397 13.3762 6.02725C13.3794 6.04548 13.3756 6.06424 13.3655 6.07975C13.3554 6.09526 13.3398 6.10637 13.3218 6.11085C13.316 6.1123 13.31 6.11302 13.304 6.11297ZM10.24 3.80861C10.344 3.80861 10.4486 3.8134 10.5537 3.82297C11.4995 3.90949 12.3367 4.37761 12.8802 5.08337C12.4069 4.26425 11.5556 3.69581 10.5735 3.60597C9.59142 3.51613 8.65166 3.92025 8.0377 4.63977C8.62658 4.11097 9.40946 3.80861 10.24 3.80861Z" fill="#371A45"/>
<path d="M13.3367 6.84544C13.3135 7.10209 13.2578 7.35477 13.1711 7.59744C13.1711 7.59744 13.1711 7.59745 13.171 7.59747C13.171 7.59748 13.171 7.5975 13.1709 7.59753C13.1709 7.59755 13.1709 7.59758 13.1709 7.59762C13.1709 7.59765 13.1709 7.59769 13.1709 7.59772C12.5514 8.56656 11.3533 9.33936 10.0595 9.221C8.76574 9.10264 7.72806 8.12528 7.2947 7.06012C7.29471 7.06009 7.29471 7.06005 7.2947 7.06001C7.29469 7.05998 7.29467 7.05994 7.29465 7.05991C7.29463 7.05988 7.2946 7.05986 7.29457 7.05984C7.29454 7.05982 7.2945 7.05981 7.29446 7.0598C7.25303 6.80545 7.24408 6.54686 7.26782 6.29024C7.27813 6.17672 7.29489 6.06387 7.31802 5.95224C7.83102 4.857 9.1011 4.14676 10.512 4.27584C11.9229 4.40492 13.0434 5.33444 13.3489 6.50484C13.3512 6.61852 13.3471 6.73223 13.3367 6.84544Z" fill="#371A45"/>
<g opacity="0.35">
<path opacity="0.35" d="M13.3374 6.8449C13.3142 7.10155 13.2585 7.35422 13.1719 7.5969C13.1718 7.59689 13.1718 7.59689 13.1718 7.5969C13.1717 7.59691 13.1717 7.59693 13.1717 7.59695C13.1716 7.59698 13.1716 7.597 13.1716 7.59704C13.1716 7.59707 13.1716 7.5971 13.1716 7.59714C12.5521 8.56602 11.3541 9.33874 10.0603 9.22038C8.76646 9.10202 7.72878 8.12474 7.29542 7.05974C7.29543 7.0597 7.29542 7.05966 7.29541 7.05963C7.29541 7.05959 7.29539 7.05956 7.29537 7.05953C7.29534 7.0595 7.29532 7.05947 7.29528 7.05945C7.29525 7.05943 7.29522 7.05942 7.29518 7.05942C7.27075 6.90943 7.2576 6.75782 7.25586 6.60586C7.86626 7.43246 8.80466 8.07906 9.90602 8.17982C11.3091 8.30818 12.6137 7.5175 13.3454 6.48926C13.3469 6.49442 13.3484 6.4993 13.3496 6.50446C13.3519 6.61808 13.3478 6.73173 13.3374 6.8449Z" fill="#111A28"/>
</g>
<path d="M10.3215 9.306C10.2317 9.306 10.1421 9.30192 10.0528 9.29376C9.4302 9.2368 8.82676 8.98028 8.30776 8.55192C7.83776 8.16392 7.45452 7.6454 7.22828 7.0912C7.22532 7.08496 7.22324 7.07834 7.22212 7.07152C7.16101 6.69511 7.16915 6.3107 7.24612 5.9372C7.2473 5.93168 7.24909 5.92631 7.25148 5.9212C7.51316 5.3626 7.95992 4.90244 8.54348 4.5904C9.13708 4.27312 9.81996 4.1392 10.5183 4.203C11.2167 4.2668 11.8642 4.52268 12.3903 4.94268C12.908 5.35548 13.2638 5.88928 13.4198 6.48624C13.4212 6.49178 13.422 6.49748 13.4221 6.5032C13.4244 6.61962 13.4203 6.73608 13.4096 6.85204C13.3858 7.11483 13.3289 7.37355 13.2401 7.62204C13.2378 7.62859 13.2345 7.63477 13.2304 7.6404C12.9074 8.1444 12.4364 8.5848 11.9037 8.88096C11.3998 9.16104 10.8578 9.30596 10.3215 9.306ZM7.3652 7.03924C7.76004 8.00324 8.74692 9.02724 10.0661 9.148C11.3853 9.26876 12.5421 8.4406 13.1051 7.5644C13.188 7.33004 13.2413 7.08625 13.2638 6.83868C13.2736 6.73098 13.2776 6.62282 13.2758 6.51468C12.9655 5.34188 11.8533 4.4718 10.5052 4.34848C9.15712 4.22516 7.90588 4.87876 7.38776 5.9754C7.31659 6.32585 7.30892 6.68624 7.36512 7.0394L7.3652 7.03924Z" fill="#371A45"/>
<g opacity="0.5">
<path opacity="0.5" d="M12.8694 6.82394C12.9426 6.53755 12.8338 6.26237 12.6262 6.20932C12.4187 6.15627 12.1911 6.34543 12.1179 6.63183C12.0447 6.91822 12.1536 7.1934 12.3611 7.24645C12.5686 7.2995 12.7962 7.11034 12.8694 6.82394Z" fill="white"/>
</g>
<g opacity="0.5">
<path opacity="0.5" d="M12.1395 7.83094C12.191 7.70539 12.1453 7.56782 12.0376 7.52368C11.9299 7.47954 11.8008 7.54554 11.7494 7.6711C11.698 7.79665 11.7436 7.93422 11.8513 7.97836C11.959 8.0225 12.0881 7.9565 12.1395 7.83094Z" fill="white"/>
</g>
<g opacity="0.5">
<path opacity="0.5" d="M7.85977 7.25887C7.85977 7.25887 7.48613 5.68599 8.35889 5.13183C9.23165 4.57767 10.4244 4.66495 10.3911 4.73955C10.3911 4.73955 9.04761 4.96539 8.45665 5.97271C8.00089 6.74943 7.85977 7.25887 7.85977 7.25887Z" fill="white"/>
</g>
</svg>
