<svg width="360" height="325" viewBox="0 0 360 325" fill="none" xmlns="http://www.w3.org/2000/svg">
<g opacity="0.88">
<path fill-rule="evenodd" clip-rule="evenodd" d="M225.558 201.275C226.1 199.982 226.482 198.586 227.226 197.414C230.553 192.143 235.105 187.55 236.221 181.066C236.567 179.069 236.674 177.017 237.221 175.085C237.511 174.059 238.504 173.231 239.178 172.31C240.267 173.361 242.299 174.419 242.292 175.464C242.233 184.888 237.275 192.345 231.76 199.401C230.655 200.813 228.329 201.262 226.565 202.159C226.23 201.864 225.892 201.571 225.558 201.275Z" fill="black"/>
<path fill-rule="evenodd" clip-rule="evenodd" d="M154.288 251.555C156.088 250.223 157.778 248.681 159.721 247.605C162.468 246.087 165.453 245.002 168.25 243.563C170.825 242.238 173.179 240.413 175.846 239.363C177.217 238.813 179.819 238.855 180.54 239.728C181.864 241.33 180.198 242.302 178.65 243.448C172.613 248.003 165.743 250.469 158.567 252.275C157.396 252.574 156.186 252.708 154.995 252.917C154.767 252.459 154.53 252.007 154.288 251.555Z" fill="black"/>
<path fill-rule="evenodd" clip-rule="evenodd" d="M114.66 263C116.114 262.123 117.462 260.866 119.04 260.445C123.451 259.28 127.919 258.211 132.432 257.642C133.935 257.459 135.637 258.905 137.247 259.608C135.983 260.659 134.876 262.105 133.427 262.681C130.76 263.725 127.944 264.681 125.126 264.937C121.803 265.238 118.405 264.768 115.04 264.631C114.898 264.1 114.784 263.544 114.66 263Z" fill="black"/>
<path fill-rule="evenodd" clip-rule="evenodd" d="M195.589 229.405C197.759 226.504 199.273 224.052 201.207 221.999C203.679 219.381 206.498 217.081 209.18 214.665C209.988 213.937 210.773 212.86 211.707 212.679C212.918 212.433 214.288 212.835 215.487 213.252C215.687 213.322 215.717 215.3 215.251 215.673C209.472 220.284 205.308 226.958 197.832 229.388C197.523 229.497 197.144 229.406 195.589 229.405Z" fill="black"/>
<path fill-rule="evenodd" clip-rule="evenodd" d="M62.2885 270.243C59.284 270.016 56.2976 270.114 53.4794 269.479C50.6611 268.845 48.0251 267.616 45.4315 266.388C44.7121 266.043 44.4316 264.76 43.9536 263.907C44.8851 263.529 45.8429 262.778 46.7485 262.842C50.8384 263.125 54.952 263.428 58.9771 264.162C60.6415 264.467 62.1868 265.765 63.5729 266.879C63.8045 267.061 62.928 268.624 62.2885 270.243Z" fill="black"/>
<path fill-rule="evenodd" clip-rule="evenodd" d="M15.6972 250.524C15.6887 249.296 15.3552 248.117 15.7446 247.797C16.4821 247.181 17.8956 246.488 18.5599 246.809C23.0683 248.969 27.5046 251.307 31.8347 253.803C32.402 254.13 32.6644 256.373 32.397 256.52C31.0332 257.274 29.0112 258.487 28.0227 257.979C23.766 255.795 19.7882 253.067 15.6972 250.524Z" fill="black"/>
<path fill-rule="evenodd" clip-rule="evenodd" d="M83.997 264.484C88.3066 264.136 92.5338 263.607 96.7637 263.597C97.7562 263.595 98.7612 265.368 99.7491 266.308C98.8027 267.268 97.8914 269.01 96.9031 269.054C92.7623 269.254 88.6005 269.006 84.4596 268.76C83.8218 268.726 82.775 267.895 82.738 267.375C82.684 266.612 83.3736 265.8 83.997 264.484Z" fill="black"/>
<path fill-rule="evenodd" clip-rule="evenodd" d="M-0.583511 228.122C1.01573 227.774 1.96291 227.398 2.91969 227.386C7.67407 227.275 9.15758 231.789 12.1264 234.183C12.315 234.331 11.3453 236.803 10.7531 236.874C9.05176 237.084 6.69262 237.233 5.66083 236.265C3.40498 234.17 1.82233 231.373 -0.583511 228.122Z" fill="black"/>
<path d="M320.066 37.134C320.327 37.6871 320.554 38.2562 320.744 38.8378C321.821 41.8566 322.258 45.0022 322.559 48.1907C323.851 62.1325 322.331 75.7926 318.347 89.2139C316.496 95.4975 314.384 101.698 311.962 107.805C311.738 108.372 311.507 108.942 311.24 109.492C311.032 109.919 310.675 110.044 310.344 109.873C310.202 109.811 310.089 109.697 310.028 109.554C309.967 109.412 309.963 109.252 310.016 109.106C310.167 108.579 310.334 108.053 310.534 107.543C312.943 101.443 315.075 95.251 316.93 88.966C320.904 75.6127 322.421 62.0175 321.121 48.1183C320.783 44.5085 320.199 40.9564 318.787 37.5881C318.705 37.3603 318.656 37.1219 318.64 36.8801C318.608 36.5882 319.046 36.286 319.281 36.4393C319.593 36.6066 319.862 36.8445 320.066 37.134Z" fill="black"/>
<path d="M316.791 124.239C317.141 124.881 317.414 125.562 317.661 126.109C318.702 129.328 319.548 132.453 319.937 135.687C320.531 140.664 319.634 145.442 317.985 150.11C317.202 152.236 316.243 154.292 315.116 156.258C312.327 161.266 308.825 165.732 304.908 169.888C304.49 170.327 304.031 170.726 303.538 171.077C303.433 171.128 303.318 171.152 303.202 171.149C303.086 171.146 302.972 171.116 302.87 171.06C302.808 171.013 302.757 170.955 302.718 170.888C302.68 170.82 302.656 170.746 302.647 170.669C302.639 170.593 302.646 170.515 302.668 170.441C302.69 170.367 302.728 170.299 302.777 170.239C303.024 169.892 303.293 169.56 303.581 169.246C305.301 167.255 307.099 165.328 308.728 163.266C311.671 159.577 314.12 155.52 316.015 151.198C317.109 148.604 317.885 145.887 318.326 143.106C318.926 139.596 318.79 136 317.927 132.546C317.388 130.35 316.677 128.196 316.053 126.023C315.902 125.56 315.796 125.084 315.736 124.601C315.754 124.486 315.801 124.377 315.872 124.285C315.943 124.192 316.035 124.119 316.142 124.071C316.333 124.006 316.712 124.098 316.791 124.239Z" fill="black"/>
<path d="M267.677 15.6115C267.872 15.8413 267.638 16.3026 267.2 16.4554C265.294 17.1231 263.861 18.4742 262.422 19.7878C258.035 23.782 253.976 28.1215 250.283 32.7645C248.805 34.6261 247.554 36.6683 246.249 38.6617C245.21 40.2481 244.252 41.8857 243.231 43.4929C242.929 43.953 242.605 44.3976 242.259 44.8252C242.183 44.9603 242.057 45.0602 241.908 45.1031C241.76 45.146 241.6 45.1284 241.464 45.0543C241.151 44.891 241.057 44.51 241.238 44.0933C241.337 43.8693 241.452 43.653 241.583 43.4461C243.534 40.3403 245.473 37.2269 247.45 34.1351C247.988 33.3185 248.574 32.5335 249.203 31.7842C252.931 27.1703 256.998 22.8404 261.37 18.8306C262.543 17.771 263.845 16.8451 265.107 15.8733C265.396 15.6498 265.726 15.4865 266.073 15.2712C266.36 15.1993 266.657 15.1705 266.953 15.1858C267.233 15.2483 267.486 15.3972 267.677 15.6115V15.6115Z" fill="black"/>
<path d="M281.721 157.727C281.836 157.736 281.946 157.773 282.042 157.834C282.139 157.896 282.218 157.981 282.274 158.081C282.445 158.725 282.523 159.395 282.651 160.053C283.315 163.473 283.99 166.89 284.646 170.311C284.762 170.849 284.817 171.398 284.808 171.948C284.753 172.234 284.59 172.489 284.353 172.659C284.119 172.843 283.732 172.532 283.574 172.096C283.552 172.04 283.53 171.982 283.481 171.854C283.352 171.146 283.214 170.364 283.064 169.578C282.51 166.76 281.952 163.944 281.39 161.131C281.257 160.469 281.1 159.813 281.021 159.14C280.986 158.78 281.033 158.416 281.158 158.077C281.217 157.977 281.299 157.894 281.397 157.833C281.495 157.772 281.606 157.735 281.721 157.727Z" fill="black"/>
<path d="M239.596 50.1687C239.706 50.2759 239.771 50.4205 239.779 50.5737C239.787 50.7268 239.737 50.8774 239.639 50.9956C239.117 51.8874 238.514 52.737 238.061 53.6599C236.983 55.8402 235.976 58.0569 234.932 60.2546C234.695 60.7476 234.44 61.2351 234.16 61.7021C233.981 61.9205 233.779 62.1193 233.559 62.2951C233.33 62.0786 233.027 61.9418 232.973 61.7283C232.92 61.4308 232.965 61.1242 233.1 60.8541C234.615 57.67 236.143 54.4916 237.687 51.3188C237.822 51.0461 237.991 50.7917 238.191 50.5619C238.346 50.3771 238.535 50.2238 238.748 50.1103C238.876 50.0257 239.029 49.9855 239.182 49.996C239.335 50.0066 239.481 50.0672 239.596 50.1687Z" fill="black"/>
<path d="M221.757 84.5127C221.685 84.7689 221.687 84.9811 221.582 85.0974C221.421 85.2776 221.221 85.4188 220.998 85.5106C218.231 86.6092 215.891 88.3843 213.567 90.1903L209.644 93.2189C207.842 94.5961 206.238 96.2132 204.874 98.025C200.012 104.463 196.957 112.082 196.025 120.096C195.782 122.098 195.393 124.084 195.032 126.071C194.878 126.916 194.455 127.368 194.098 127.191C193.552 126.919 193.596 126.4 193.654 125.909C193.713 125.417 193.808 124.936 193.887 124.461C194.165 122.646 194.459 120.834 194.714 119.015C195.814 110.836 199.078 103.099 204.171 96.6049C205.453 94.9616 206.943 93.4917 208.604 92.2323C210.693 90.6358 212.765 89.0148 214.875 87.4408C216.493 86.2316 218.179 85.1158 220.113 84.428C220.452 84.2934 220.809 84.2128 221.173 84.1888C221.352 84.1718 221.551 84.3905 221.757 84.5127Z" fill="black"/>
<path d="M196.153 135.575C196.232 135.614 196.299 135.673 196.348 135.745C196.398 135.818 196.427 135.903 196.434 135.99C196.27 137.678 196.085 139.361 195.878 141.04C195.862 141.18 195.67 141.29 195.514 141.454C195.343 141.373 195.129 141.34 195.049 141.218C194.912 141.019 194.835 140.786 194.827 140.545C194.861 139.214 194.904 137.881 195.01 136.556C195.076 136.206 195.247 135.886 195.5 135.636C195.617 135.519 195.949 135.519 196.153 135.575Z" fill="black"/>
<path d="M312.171 29.0002C313.072 30.9445 313.856 32.9409 314.518 34.9788C317.14 42.5072 318.553 50.4032 318.705 58.3736C318.84 66.5865 317.989 74.7858 316.17 82.7958C314.246 91.0884 311.7 99.2243 308.553 107.134C308.286 107.819 308.063 108.522 307.747 109.183C307.559 109.569 307.464 109.993 307.47 110.423C307.476 110.852 307.583 111.274 307.782 111.654C308.507 113.273 309.205 114.909 309.862 116.557C310.723 118.714 311.6 120.871 312.36 123.065C313.206 125.554 313.977 128.072 314.677 130.608C315.502 133.496 315.915 136.485 315.905 139.489C315.853 144.533 314.5 149.479 311.977 153.848C309.262 158.577 306.084 163.023 302.488 167.122C300.248 169.712 297.835 172.152 295.49 174.651C295.158 175.011 294.792 175.338 294.397 175.628C292.489 177.003 290.118 176.491 289.141 174.375C288.503 172.997 288.105 171.502 287.685 170.034C286.573 166.145 285.927 162.154 285.11 158.201C284.749 156.467 284.235 154.764 283.767 153.052C283.602 152.584 283.411 152.124 283.196 151.676C280.382 154.349 277.03 154.771 273.679 155.086C272.165 155.228 270.624 155.061 269.094 155.043C268.605 155.038 268.115 155.053 267.63 155.084C267.526 155.09 267.428 155.207 267.248 155.325C267.317 155.697 267.373 156.111 267.476 156.514C268.389 160.122 268.557 163.767 268.326 167.455C268.286 168.25 268.162 169.038 267.959 169.807C267.763 170.512 267.468 171.185 267.082 171.806C266.326 173.01 265.184 173.494 263.774 173.329C262.616 173.172 261.51 172.752 260.54 172.1C260.139 171.849 259.74 171.601 259.2 171.266C259.056 171.63 258.934 172.002 258.833 172.381C258.589 173.641 258.454 174.932 258.118 176.167C257.706 177.701 257.203 179.21 256.612 180.685C256.09 181.937 255.254 183.033 254.186 183.867C252.668 185.102 251.195 185.073 249.734 183.749C249.327 183.381 248.993 182.937 248.612 182.541C248.37 182.284 248.103 182.048 247.752 181.711C247.455 182.154 247.204 182.476 247.008 182.828C246.18 184.328 245.403 185.859 244.54 187.339C243.544 189.1 242.305 190.712 240.86 192.128C240.39 192.608 239.861 193.027 239.286 193.375C237.664 194.275 236.232 193.765 235.606 192.047C235.323 191.304 235.171 190.518 235.156 189.723C235.134 188.011 235.211 186.3 235.387 184.597C235.65 182.364 236.069 180.123 236.409 177.883C236.49 177.355 236.519 176.82 236.588 176.121C236.097 176.206 235.76 176.24 235.446 176.318C234.734 176.494 234.042 176.778 233.324 176.868C231.812 177.053 230.87 176.415 230.347 175.014C230.049 174.205 229.964 173.333 230.099 172.481C230.341 170.85 230.577 169.21 230.951 167.608C231.313 166.059 231.85 164.555 232.297 163.029C232.428 162.576 232.524 162.113 232.677 161.497C232.222 161.55 231.939 161.564 231.664 161.618C231.014 161.793 230.355 161.929 229.689 162.026C228.47 162.119 227.586 161.514 227.086 160.394C226.595 159.322 226.519 158.107 226.873 156.983C227.29 155.577 227.811 154.204 228.433 152.876C229.734 150.238 231.287 147.733 233.071 145.394C233.388 144.968 233.674 144.514 234.021 144.006C233.621 143.645 233.33 143.34 232.996 143.097C232.009 142.376 231.002 141.678 230.003 140.972C227.718 139.361 225.93 137.288 224.395 134.972C223.81 134.088 223.343 133.183 223.341 132.091C223.298 131.891 223.224 131.7 223.123 131.523C222.453 131.515 221.998 131.955 221.54 132.316C219.499 133.965 217.411 135.588 215.457 137.343C212.632 139.879 209.7 142.291 206.662 144.578C206.132 144.991 205.566 145.357 204.971 145.671C202.515 146.919 200.455 146.035 199.66 143.425C199.535 143.016 199.444 142.597 199.386 142.172C198.405 134.936 197.941 127.683 198.433 120.387C198.672 116.838 199.072 113.326 200.249 109.926C201.653 105.729 204.014 101.915 207.147 98.788C209.67 96.2694 212.53 94.1758 215.437 92.1341C219.348 89.3841 223.504 87.0398 227.671 84.7185C228.1 84.4966 228.478 84.1865 228.78 83.8084C229.081 83.4302 229.299 82.9926 229.42 82.5243C230.646 78.4205 231.846 74.3025 233.236 70.2517C236.023 62.1289 239.369 54.2485 243.788 46.8571C246.093 42.9548 248.658 39.2121 251.465 35.6544C256.418 29.4908 262.272 24.1093 268.829 19.6916C274.266 16.017 280.281 13.2819 286.623 11.6003C288.394 11.1187 290.174 10.6484 291.977 10.3309C293.355 10.0883 294.775 10.0823 296.177 9.99788C297.103 9.95106 298.012 10.254 298.725 10.8466C300.097 11.875 301.36 13.0399 302.496 14.3234C306.346 18.7737 309.599 23.7077 312.171 29.0002V29.0002ZM312.617 70.0416C312.681 69.5815 312.81 69.078 312.416 68.6142C310.341 68.7621 308.286 68.963 306.215 69.0333C304.144 69.1036 302.051 69.1092 299.976 69.0104C297.844 68.9151 295.71 68.6408 293.578 68.4484C291.537 68.2636 289.548 67.6597 287.276 67.5176C287.754 68.2476 288.353 68.435 288.862 68.7362C291.174 69.9963 293.251 71.647 295.001 73.6152C296.803 75.6384 298.01 78.1211 298.488 80.7882C299.031 83.9299 298.436 86.8805 297.035 89.6962C295.976 91.7732 294.593 93.6682 292.938 95.3101C290.113 98.126 286.815 100.423 283.194 102.096C278.39 104.42 273.258 105.993 267.977 106.762C264.361 107.266 265.061 107.503 262.535 104.992C262.403 104.863 262.276 104.729 262.151 104.594C256.731 98.7878 252.462 92.3014 250.343 84.5514C249.382 81.0253 249.025 77.4442 249.688 73.8398C250.754 67.8911 254.72 63.3171 261.666 62.0457C264.146 61.6311 266.677 61.6189 269.162 62.0096C269.676 62.0801 270.208 62.3083 271.035 61.8996C269.639 61.1261 268.366 60.5792 267.17 59.9057C265.973 59.2321 264.715 58.5244 263.514 57.7916C262.313 57.0589 261.116 56.3061 259.961 55.5011C258.805 54.6962 257.68 53.852 256.561 52.9905C255.441 52.129 254.386 51.2034 253.274 50.3389C252.163 49.4743 251.402 48.2556 250.183 47.5849C249.503 47.9096 249.286 48.5106 248.974 49.0205C246.91 52.4294 245.062 55.9643 243.44 59.6043C238.481 70.5252 235.202 81.998 232.199 93.5628C231.948 94.4965 232.089 95.2372 232.805 95.8882C233.075 96.1316 233.293 96.4378 233.542 96.7047C235.648 98.9291 237.965 100.944 240.459 102.722C247.313 107.69 254.895 111.567 262.936 114.215C271.082 116.93 279.606 118.34 288.193 118.394C290.95 118.453 293.705 118.219 296.412 117.696C298.385 117.283 298.27 117.665 299.154 115.484C300.947 111.056 302.763 106.64 304.464 102.178C307.415 94.4429 309.829 86.5393 311.381 78.3972C311.914 75.6285 312.225 72.8292 312.617 70.0416ZM289.226 24.4574C289.633 23.3601 289.22 22.6659 288.034 22.503C287.248 22.396 286.451 22.4075 285.669 22.537C284.527 22.7349 283.422 23.0948 282.214 23.391C280.867 24.1003 279.373 24.7161 278.078 25.603C275 27.6983 272 29.9125 269.011 32.1289C268.045 32.8883 267.248 33.8404 266.67 34.9246C266.073 35.9701 266.205 36.5438 267.113 37.3221C267.914 38.0043 268.875 38.1683 269.852 38.1128C272.246 38.0373 274.584 37.3702 276.656 36.171C279.925 34.2489 282.951 31.9412 285.669 29.2974C286.578 28.3922 287.42 27.4227 288.189 26.3965C288.63 25.8059 288.98 25.1522 289.226 24.4574V24.4574ZM297.152 86.0732C297.943 83.0159 297.52 79.7711 295.972 77.0185C294.706 74.7719 292.953 72.8372 290.842 71.3563C287.525 68.9509 283.807 67.43 279.834 66.4794C279.063 66.3037 278.31 66.0553 277.585 65.7378C274.465 64.3032 271.136 63.378 267.723 62.9974C266.019 62.8084 264.298 62.8239 262.597 63.0434C255.902 63.9202 251.483 68.3147 250.664 75.0272C250.503 76.4856 250.479 77.9558 250.593 79.4186C250.828 82.356 251.486 85.244 252.547 87.9931C253.297 89.5327 254.006 91.0875 254.803 92.6087C257.24 97.2522 260.453 101.315 264.14 105.031C264.446 105.368 264.834 105.62 265.266 105.763C265.698 105.906 266.159 105.935 266.606 105.847C273.584 104.859 280.226 102.885 286.262 99.1397C289.048 97.4665 291.536 95.3414 293.624 92.8513C295.266 90.8383 296.542 88.6249 297.152 86.0732ZM309.578 133.074C308.42 128.446 306.922 123.91 305.097 119.503C304.892 119.071 304.665 118.65 304.415 118.242C303.595 118.892 303.429 119.641 303.158 120.29C300.337 126.872 297.14 133.285 293.58 139.498C292.102 142.042 292.02 142.302 288.572 143.348C288.337 143.417 288.09 143.442 287.855 143.511C287.518 143.61 287.187 143.731 286.866 143.839C286.825 144.043 286.813 144.253 286.831 144.461C287.007 145.109 287.183 145.76 287.416 146.39C288.93 150.526 290.117 154.774 290.966 159.096C291.483 161.672 292.027 164.241 292.57 166.813C292.694 167.398 292.733 168.032 293.335 168.553C293.681 168.352 294.007 168.118 294.31 167.856C295.394 166.712 296.503 165.556 297.535 164.358C301.015 160.411 304.123 156.15 306.82 151.631C310.23 145.815 311.17 139.647 309.578 133.074V133.074ZM294.748 125.315C294.981 124.845 295.36 124.38 295.088 123.687C293.354 123.588 291.6 123.923 289.842 123.913C288.01 123.9 286.171 123.909 284.328 123.827C282.56 123.745 280.79 123.599 279.03 123.401C277.204 123.194 275.388 122.932 273.581 122.614C271.84 122.308 270.103 121.952 268.371 121.545C266.64 121.137 264.928 120.678 263.237 120.165C261.481 119.621 259.743 119.043 258.026 118.402C256.363 117.783 254.725 117.102 253.104 116.378C251.483 115.654 249.883 114.889 248.309 114.071C246.684 113.225 245.083 112.33 243.505 111.387C241.983 110.476 240.487 109.521 239.029 108.509C237.525 107.463 236.092 106.314 234.61 105.232C233.197 104.201 232.078 102.8 230.56 101.893C229.975 102.423 229.972 103.057 229.868 103.636C229.213 107.308 228.548 110.979 227.957 114.66C227.483 117.582 227.535 117.614 229.773 119.533C230.096 119.811 230.433 120.077 230.764 120.346C233.776 122.765 237.072 124.783 240.439 126.636C244.843 129.072 249.551 130.834 254.244 132.604C259.291 134.501 264.517 135.836 269.786 136.947C274.64 137.965 279.599 138.394 284.556 138.226C285.344 138.201 286.132 138.063 286.924 137.984C287.322 137.955 287.704 137.82 288.032 137.593C288.36 137.366 288.621 137.055 288.789 136.693C289.538 135.291 290.361 133.927 291.096 132.518C292.34 130.131 293.557 127.73 294.748 125.315ZM263.324 44.5411C264.485 42.3841 263.563 40.046 261.293 39.1874C261.237 39.1665 261.179 39.143 261.121 39.1258C259.33 38.5221 257.728 39.5145 257.575 41.4004C257.508 42.2332 257.705 43.0866 257.786 43.9721C258.256 44.6862 258.768 45.3724 259.318 46.0273C260.122 46.885 261.026 46.9488 261.924 46.2021C262.491 45.7426 262.966 45.1792 263.322 44.5421L263.324 44.5411ZM280.099 144.027C279.039 143.646 278.17 143.525 277.271 143.8C276.523 145.213 275.941 146.708 275.536 148.255C275.468 148.497 275.582 148.794 275.627 149.228C276.315 149.063 276.994 148.862 277.661 148.624C277.99 148.475 278.261 148.222 278.432 147.904C279.084 146.656 279.641 145.36 280.099 144.027V144.027ZM275.678 144.284C275.788 143.968 275.77 143.618 275.435 143.515C275.146 143.464 274.848 143.5 274.579 143.619C274.425 143.716 274.308 143.863 274.248 144.035C273.524 145.583 272.806 147.131 272.107 148.691C272.05 148.907 272.028 149.132 272.043 149.355C272.312 149.447 272.482 149.555 272.651 149.551C273.007 149.542 273.366 149.478 273.866 149.417C274.502 147.616 275.093 145.949 275.678 144.284V144.284ZM272.179 145.712C272.496 145 272.936 144.328 273.054 143.397C271.947 142.951 271.944 142.967 271.078 143.208C269.615 145.944 268.809 148.102 268.828 149.249C270.331 149.586 270.366 149.572 270.952 148.364C271.376 147.484 271.786 146.602 272.181 145.718L272.179 145.712ZM269.506 143.58C269.564 143.309 269.575 143.03 269.539 142.755C268.13 142.36 268.002 142.367 267.508 143.309C266.532 145.101 265.807 147.019 265.353 149.009C266.885 149.413 267.066 149.386 267.471 148.466C268.185 146.859 268.854 145.222 269.506 143.58V143.58ZM266.42 142.752C266.463 142.585 266.487 142.414 266.489 142.241C265.719 141.767 265.718 141.764 264.814 141.742C263.902 143.064 262.518 146.534 262.201 148.327C262.184 148.425 262.285 148.545 262.394 148.75L263.66 149.001C263.834 148.852 263.973 148.792 264.014 148.694C264.833 146.723 265.635 144.743 266.42 142.752ZM263.198 141.927C263.234 141.686 263.228 141.441 263.182 141.203C262.887 141.079 262.585 140.973 262.277 140.886C262.003 140.842 261.726 140.817 261.448 140.811C260.381 142.555 259.12 145.99 258.885 147.852C259.319 147.99 259.657 148.15 260.006 148.232C260.225 148.263 260.447 148.269 260.667 148.249C260.773 148.149 260.864 148.035 260.939 147.91C261.712 145.927 262.473 143.935 263.21 141.935L263.198 141.927ZM259.912 140.387C259.632 140.175 259.311 140.025 258.97 139.946C258.628 139.867 258.274 139.862 257.93 139.929C256.735 142.016 255.801 144.242 255.151 146.557C255.446 146.818 255.79 147.018 256.163 147.145C256.536 147.272 256.93 147.324 257.323 147.298C257.991 146.228 259.663 141.762 259.924 140.395L259.912 140.387ZM264.858 160.189C264.671 158.522 264.1 156.987 263.478 155.454C263.388 155.195 263.227 154.966 263.015 154.793C262.803 154.62 262.547 154.509 262.276 154.472C260.955 154.205 259.627 153.966 258.342 153.576C251.551 151.529 244.752 149.486 238.324 146.426C237.449 146.01 236.793 146.207 236.166 146.786C235.859 147.085 235.584 147.414 235.343 147.768C233.704 149.981 232.275 152.343 231.078 154.823C230.704 155.66 230.384 156.519 230.119 157.396C230.037 157.65 230.122 157.958 230.135 158.38C230.584 158.301 231.028 158.194 231.464 158.059C232.491 157.664 233.492 157.201 234.51 156.783C234.9 156.606 235.306 156.47 235.723 156.375C235.978 156.314 236.243 156.318 236.496 156.386C236.748 156.454 236.98 156.584 237.17 156.763C237.359 156.943 237.501 157.167 237.583 157.416C237.665 157.664 237.683 157.929 237.637 158.186C237.513 158.785 237.323 159.368 237.071 159.926C236.313 161.916 235.403 163.877 234.775 165.914C234.164 167.894 233.805 169.941 233.384 171.985C233.355 172.374 233.379 172.765 233.456 173.148C234.181 173.341 234.645 172.978 235.141 172.778C236.048 172.412 236.944 172.019 237.839 171.627C239.121 171.065 240.515 171.714 240.518 173.561C240.473 174.111 240.382 174.655 240.244 175.189C239.698 178.383 239.118 181.569 238.627 184.772C238.465 186.045 238.376 187.326 238.358 188.609C238.348 188.853 238.55 189.108 238.697 189.493C239.065 189.194 239.409 188.868 239.726 188.516C240.446 187.605 241.108 186.649 241.707 185.655C242.896 183.517 244.003 181.323 245.121 179.167C245.432 178.573 245.685 177.939 246.052 177.379C246.914 176.064 248.309 176.064 249.178 177.366C249.582 177.976 249.902 178.642 250.283 179.269C250.722 179.993 251.149 180.733 252.035 181.24C252.855 180.709 253.463 179.909 253.755 178.977C254.272 177.607 254.697 176.204 255.027 174.777C255.425 172.864 255.645 170.913 255.938 168.979C256.01 168.494 256.059 168.019 256.135 167.527C256.272 166.701 256.593 165.999 257.474 165.722C258.354 165.445 259.018 165.833 259.585 166.462C259.868 166.779 260.121 167.127 260.402 167.448C260.817 167.977 261.276 168.47 261.772 168.923C262.3 169.331 262.882 169.665 263.5 169.917C263.612 169.974 263.735 170.004 263.861 170.003C263.987 170.003 264.11 169.972 264.222 169.914C264.333 169.855 264.429 169.771 264.501 169.668C264.573 169.565 264.619 169.447 264.636 169.322C264.84 168.556 264.976 167.773 265.041 166.983C265.186 164.72 265.129 162.449 264.87 160.197L264.858 160.189ZM255.266 142.77C255.647 141.646 256.516 140.688 256.52 139.445C253.97 138.356 252.673 137.967 251.504 137.993C251.236 139.079 250.933 140.194 250.689 141.32C250.445 142.446 249.805 143.459 249.89 144.736C250.586 145.033 251.241 145.36 251.933 145.591C252.559 145.801 253.222 145.903 253.983 146.077C254.438 144.915 254.897 143.856 255.266 142.77ZM250.291 137.283C249.655 136.784 249.097 136.459 248.395 136.564C247.687 138.148 246.416 142.461 246.335 143.534C247.346 144.193 247.346 144.193 248.564 144.231C249.323 141.966 250.078 139.679 250.29 137.28L250.291 137.283ZM246.911 135.809C246.361 135.591 245.878 135.039 245.046 135.392C244.441 137.333 243.826 139.308 243.213 141.273C243.124 141.557 243.078 141.857 242.988 142.273C243.662 142.76 244.201 143.117 244.897 142.914C246.001 140.586 246.886 137.49 246.91 135.806L246.911 135.809ZM243.688 134.473C243.209 134.209 242.75 133.798 242.039 134.001C241.709 134.617 241.684 135.297 241.499 135.926C241.088 137.323 240.649 138.709 240.24 140.105C240.028 140.83 240.134 141.081 240.8 141.413C241.066 141.519 241.342 141.597 241.623 141.645C242.643 139.923 243.741 136.103 243.687 134.47L243.688 134.473ZM226.521 93.306C226.61 92.9123 226.856 92.4891 226.421 92.0469C225.582 92.1619 224.878 92.6669 224.162 93.103C222.701 93.9928 221.249 94.9065 219.833 95.8672C217.049 97.7549 214.295 99.6863 211.827 101.986C207.874 105.665 205.522 110.192 204.587 115.484C204.491 116.027 204.397 116.575 204.344 117.119C203.543 123.894 203.689 130.669 204.44 137.44C204.532 137.886 204.66 138.323 204.821 138.749C205.233 138.551 205.631 138.323 206.011 138.067C207.252 137.07 208.484 136.067 209.686 135.027C211.354 133.589 212.958 132.078 214.644 130.663C217.569 128.247 220.641 126.015 223.843 123.98C224.238 123.725 224.598 123.41 225.121 123.011C224.62 122.379 224.311 121.925 223.941 121.524C222.32 119.793 221.825 117.821 222.216 115.442C222.961 110.728 223.636 106.004 224.679 101.343C225.262 98.665 225.909 95.9865 226.52 93.3034L226.521 93.306ZM240.698 133.919C240.734 133.8 240.745 133.676 240.733 133.553C240.72 133.431 240.683 133.311 240.623 133.203C240.564 133.095 240.483 133 240.387 132.923C240.29 132.846 240.179 132.79 240.06 132.756C239.8 132.673 239.535 132.608 239.266 132.562C238.365 134.497 237.305 138.796 237.643 139.504L238.737 140.068C238.894 139.915 239.033 139.744 239.15 139.559C239.355 139.115 239.525 138.657 239.66 138.188C240.024 136.766 240.366 135.34 240.697 133.916L240.698 133.919ZM237.844 132.426C237.909 132.218 237.896 131.995 237.807 131.796C237.719 131.598 237.561 131.439 237.363 131.349C237.052 131.179 236.716 131.059 236.29 130.869C235.549 132.524 234.593 136.85 234.81 137.415C235.144 137.826 235.527 138.187 236.091 138.172C236.188 138.101 236.27 138.076 236.283 138.031C236.805 136.153 237.333 134.293 237.843 132.423L237.844 132.426ZM234.862 130.306C234.936 129.848 234.519 129.557 233.865 129.574C233.173 131.079 232.184 134.214 232.016 135.46C232.391 135.731 232.82 136.038 233.209 136.321C233.372 136.207 233.459 136.179 233.466 136.134C234.307 134.288 234.535 132.279 234.861 130.303L234.862 130.306ZM232.647 128.613C231.882 127.978 231.252 127.321 230.171 127.304C229.715 128.647 229.375 130.027 229.153 131.428C229.101 131.727 229.155 132.035 229.305 132.299C229.705 132.891 230.009 133.603 231.008 133.944C231.751 132.234 232.301 130.446 232.647 128.613Z" fill="black" fill-opacity="0.88"/>
<path d="M288.034 22.503C289.217 22.6579 289.633 23.3601 289.226 24.4574C288.979 25.1449 288.631 25.7917 288.193 26.3765C287.424 27.4026 286.582 28.3721 285.674 29.2774C282.957 31.9237 279.932 34.2341 276.664 36.1589C274.591 37.3581 272.254 38.0252 269.86 38.1007C268.864 38.148 267.908 37.9974 267.12 37.31C266.212 36.5317 266.08 35.958 266.678 34.9125C267.256 33.8283 268.053 32.8762 269.019 32.1168C272.014 29.9073 275.01 27.6852 278.086 25.5909C279.386 24.702 280.861 24.0933 282.222 23.3789C283.426 23.0721 284.54 22.7207 285.676 22.5249C286.457 22.4001 287.252 22.3927 288.034 22.503V22.503Z" fill="white"/>
<path d="M305.097 119.503C306.922 123.91 308.42 128.446 309.578 133.074C311.17 139.647 310.233 145.814 306.83 151.627C304.135 156.145 301.029 160.405 297.551 164.352C296.511 165.552 295.406 166.698 294.326 167.85C294.023 168.112 293.697 168.345 293.351 168.547C292.749 168.026 292.71 167.392 292.585 166.806C292.04 164.235 291.498 161.666 290.982 159.09C290.132 154.769 288.945 150.522 287.43 146.387C287.19 145.761 287.021 145.107 286.845 144.459C286.827 144.25 286.839 144.041 286.88 143.836C287.201 143.728 287.532 143.607 287.869 143.508C288.104 143.439 288.351 143.415 288.586 143.346C292.034 142.299 292.117 142.039 293.595 139.495C297.154 133.282 300.352 126.869 303.172 120.288C303.457 119.633 303.614 118.9 304.429 118.24C304.674 118.649 304.897 119.071 305.097 119.503V119.503Z" fill="#93C0FF"/>
<path d="M295.085 123.687C295.352 124.383 294.979 124.846 294.745 125.316C293.548 127.729 292.332 130.131 291.097 132.521C290.362 133.93 289.539 135.293 288.79 136.696C288.622 137.058 288.361 137.368 288.033 137.595C287.705 137.823 287.323 137.958 286.925 137.987C286.133 138.066 285.345 138.204 284.557 138.229C279.6 138.394 274.64 137.961 269.786 136.94C264.518 135.829 259.291 134.495 254.245 132.598C249.553 130.833 244.845 129.071 240.439 126.63C237.066 124.767 233.776 122.759 230.766 120.327C230.435 120.058 230.098 119.792 229.775 119.514C227.537 117.595 227.488 117.571 227.959 114.641C228.55 110.96 229.215 107.288 229.87 103.617C229.974 103.038 229.974 102.396 230.562 101.874C232.08 102.781 233.199 104.182 234.612 105.213C236.093 106.295 237.527 107.444 239.031 108.49C240.488 109.502 241.985 110.457 243.507 111.368C245.086 112.308 246.687 113.203 248.31 114.052C249.885 114.869 251.483 115.638 253.106 116.359C254.727 117.083 256.365 117.763 258.028 118.383C259.745 119.024 261.487 119.613 263.239 120.146C264.936 120.664 266.648 121.124 268.373 121.525C270.099 121.927 271.835 122.284 273.583 122.595C275.393 122.916 277.209 123.178 279.032 123.382C280.792 123.58 282.562 123.726 284.33 123.808C286.162 123.894 288.012 123.881 289.844 123.893C291.598 123.924 293.349 123.583 295.085 123.687Z" fill="#FAF7F1"/>
<path d="M261.291 39.1883C263.56 40.0469 264.482 42.385 263.322 44.542C262.965 45.1797 262.49 45.7434 261.922 46.203C261.024 46.9497 260.122 46.8938 259.315 46.0282C258.765 45.3733 258.253 44.6871 257.783 43.973C257.703 43.0901 257.505 42.2341 257.572 41.4013C257.725 39.5154 259.327 38.523 261.118 39.1267C261.176 39.1439 261.234 39.1674 261.291 39.1883Z" fill="white"/>
<path d="M263.486 155.451C264.108 156.984 264.666 158.524 264.865 160.186C265.131 162.438 265.196 164.708 265.058 166.971C264.992 167.761 264.857 168.544 264.652 169.31C264.635 169.434 264.589 169.553 264.517 169.656C264.445 169.759 264.349 169.843 264.238 169.901C264.127 169.96 264.003 169.99 263.877 169.991C263.752 169.991 263.628 169.962 263.516 169.904C262.898 169.653 262.317 169.319 261.789 168.911C261.292 168.458 260.834 167.964 260.418 167.436C260.137 167.115 259.884 166.767 259.601 166.449C259.037 165.819 258.378 165.429 257.49 165.71C256.602 165.99 256.288 166.689 256.152 167.515C256.072 167.996 256.025 168.477 255.954 168.967C255.663 170.906 255.441 172.852 255.043 174.765C254.718 176.193 254.297 177.597 253.785 178.969C253.493 179.901 252.885 180.701 252.065 181.231C251.184 180.722 250.752 179.984 250.313 179.26C249.932 178.633 249.612 177.967 249.208 177.358C248.339 176.056 246.944 176.055 246.082 177.37C245.715 177.931 245.462 178.564 245.151 179.159C244.023 181.328 242.929 183.517 241.737 185.646C241.138 186.641 240.476 187.597 239.756 188.508C239.439 188.859 239.095 189.186 238.727 189.485C238.58 189.1 238.368 188.849 238.388 188.601C238.404 187.323 238.492 186.047 238.651 184.778C239.142 181.575 239.722 178.389 240.268 175.195C240.405 174.662 240.496 174.117 240.541 173.568C240.539 171.72 239.14 171.06 237.862 171.633C236.968 172.025 236.071 172.418 235.164 172.784C234.665 172.976 234.205 173.348 233.479 173.154C233.403 172.772 233.378 172.38 233.407 171.991C233.843 169.954 234.188 167.9 234.798 165.921C235.426 163.883 236.312 161.932 237.095 159.932C237.346 159.375 237.536 158.791 237.66 158.192C237.707 157.935 237.688 157.67 237.606 157.422C237.525 157.174 237.383 156.949 237.193 156.77C237.003 156.59 236.771 156.46 236.519 156.392C236.267 156.325 236.001 156.321 235.747 156.381C235.33 156.476 234.923 156.613 234.533 156.789C233.515 157.207 232.51 157.66 231.487 158.065C231.051 158.2 230.607 158.307 230.158 158.386C230.145 157.965 230.06 157.656 230.143 157.402C230.407 156.525 230.727 155.666 231.101 154.83C232.299 152.35 233.727 149.988 235.367 147.775C235.607 147.42 235.883 147.091 236.189 146.792C236.817 146.213 237.472 146.016 238.348 146.432C244.775 149.492 251.574 151.536 258.365 153.582C259.65 153.969 260.981 154.21 262.299 154.478C262.567 154.517 262.819 154.628 263.028 154.799C263.237 154.971 263.395 155.196 263.486 155.451Z" fill="#93C0FF"/>
<path d="M226.42 92.0444C226.855 92.4866 226.609 92.9097 226.52 93.3034C225.904 95.976 225.26 98.6597 224.658 101.351C223.616 106.015 222.94 110.736 222.194 115.45C221.817 117.824 222.312 119.796 223.92 121.533C224.293 121.932 224.601 122.386 225.1 123.02C224.577 123.418 224.217 123.733 223.821 123.989C220.624 126.018 217.556 128.245 214.635 130.655C212.948 132.069 211.345 133.58 209.677 135.018C208.474 136.059 207.242 137.062 206.002 138.058C205.622 138.314 205.224 138.542 204.811 138.741C204.65 138.315 204.523 137.877 204.43 137.431C203.68 130.66 203.534 123.886 204.334 117.11C204.398 116.562 204.482 116.018 204.578 115.476C205.512 110.181 207.865 105.657 211.818 101.977C214.284 99.6752 217.044 97.7417 219.824 95.8587C221.239 94.898 222.691 93.9843 224.153 93.0945C224.877 92.6643 225.581 92.1593 226.42 92.0444Z" fill="#93C0FF"/>
<path d="M312.416 68.6143C312.808 69.0728 312.681 69.5815 312.617 70.0416C312.225 72.8292 311.906 75.6315 311.379 78.3919C309.827 86.534 307.413 94.4376 304.462 102.173C302.761 106.635 300.945 111.051 299.151 115.479C298.268 117.66 298.397 117.273 296.41 117.691C293.703 118.214 290.947 118.448 288.191 118.389C279.604 118.335 271.08 116.924 262.933 114.21C254.893 111.562 247.311 107.685 240.457 102.717C237.962 100.939 235.646 98.9238 233.539 96.6994C233.291 96.4325 233.073 96.1264 232.803 95.8829C232.091 95.2425 231.962 94.4851 232.196 93.5576C235.2 81.9927 238.479 70.5199 243.438 59.5991C245.064 55.9657 246.916 52.4376 248.982 49.0354C249.295 48.5255 249.51 47.9192 250.191 47.5998C251.411 48.2706 252.184 49.4995 253.283 50.3538C254.381 51.2081 255.459 52.1435 256.569 53.0054C257.68 53.8673 258.805 54.7205 259.969 55.5161C261.133 56.3117 262.318 57.0722 263.522 57.8066C264.727 58.541 265.953 59.2276 267.178 59.9206C268.403 60.6136 269.647 61.141 271.044 61.9145C270.214 62.3153 269.682 62.0871 269.17 62.0245C266.682 61.629 264.147 61.6378 261.661 62.0504C254.716 63.3218 250.752 67.8948 249.683 73.8446C249.028 77.4701 249.381 81.0379 250.338 84.5561C252.458 92.3061 256.718 98.7956 262.147 104.599C262.271 104.734 262.399 104.868 262.531 104.997C265.057 107.508 264.357 107.271 267.973 106.766C273.254 105.998 278.386 104.424 283.19 102.1C286.811 100.428 290.109 98.1307 292.934 95.3148C294.589 93.6729 295.972 91.7779 297.031 89.7009C298.432 86.8852 299.024 83.9293 298.484 80.7929C298.008 78.1246 296.802 75.6402 295.001 73.6152C293.251 71.6385 291.172 69.9802 288.856 68.7139C288.353 68.426 287.763 68.2472 287.271 67.4953C289.544 67.6428 291.52 68.2517 293.572 68.4262C295.705 68.6186 297.835 68.885 299.97 68.9882C302.051 69.1029 304.132 69.0807 306.21 69.0111C308.287 68.9414 310.346 68.7601 312.416 68.6143Z" fill="#93C0FF"/>
<path d="M271.044 61.9145C270.214 62.3153 269.682 62.0871 269.17 62.0245C266.682 61.629 264.147 61.6378 261.661 62.0504C254.716 63.3218 250.752 67.8948 249.683 73.8446C249.028 77.4701 249.381 81.0379 250.338 84.5561C252.458 92.3061 256.718 98.7956 262.147 104.599C262.271 104.734 262.399 104.868 262.531 104.997C265.057 107.508 264.357 107.271 267.973 106.766C273.254 105.998 278.386 104.424 283.19 102.1C286.811 100.428 290.109 98.1307 292.934 95.3148C294.589 93.6729 295.972 91.7779 297.031 89.7009C298.432 86.8852 299.024 83.9293 298.484 80.7929C298.008 78.1246 296.802 75.6402 295.001 73.6152C293.251 71.6385 291.172 69.9802 288.856 68.7139C288.353 68.426 287.763 68.2472 287.271 67.4953C283.923 66.4732 275.058 63.3489 271.044 61.9145Z" fill="#93C0FF"/>
<path d="M277.26 143.805C278.17 143.525 279.028 143.65 280.088 144.032C279.637 145.36 279.088 146.653 278.445 147.899C278.274 148.217 278.003 148.47 277.674 148.619C277.007 148.857 276.328 149.058 275.64 149.223C275.595 148.789 275.481 148.492 275.549 148.25C275.947 146.707 276.521 145.216 277.26 143.805V143.805Z" fill="white"/>
<path d="M275.435 143.515C275.778 143.615 275.788 143.968 275.678 144.284C275.098 145.947 274.503 147.616 273.866 149.416C273.366 149.478 273.001 149.544 272.651 149.551C272.482 149.555 272.307 149.448 272.043 149.355C272.028 149.132 272.05 148.907 272.107 148.691C272.806 147.131 273.524 145.583 274.249 144.035C274.309 143.863 274.425 143.716 274.579 143.618C274.848 143.5 275.146 143.464 275.435 143.515V143.515Z" fill="white"/>
<path d="M273.062 143.394C272.944 144.325 272.504 144.997 272.187 145.709C271.792 146.6 271.38 147.482 270.952 148.355C270.363 149.558 270.326 149.563 268.828 149.24C268.817 148.099 269.624 145.941 271.077 143.199C271.944 142.967 271.947 142.951 273.062 143.394Z" fill="white"/>
<path d="M269.539 142.755C269.575 143.03 269.564 143.309 269.506 143.58C268.854 145.222 268.185 146.859 267.474 148.474C267.069 149.394 266.888 149.421 265.356 149.017C265.81 147.027 266.535 145.109 267.51 143.317C268.002 142.367 268.13 142.361 269.539 142.755Z" fill="white"/>
<path d="M266.501 142.249C266.494 142.419 266.467 142.588 266.42 142.752C265.626 144.734 264.824 146.715 264.014 148.694C263.973 148.792 263.834 148.852 263.66 149.001L262.394 148.75C262.296 148.541 262.184 148.425 262.201 148.327C262.518 146.534 263.902 143.064 264.814 141.742C265.738 141.768 265.739 141.771 266.501 142.249Z" fill="white"/>
<path d="M263.194 141.21C263.24 141.449 263.246 141.694 263.21 141.935C262.473 143.935 261.699 145.932 260.94 147.922C260.866 148.047 260.774 148.161 260.668 148.261C260.448 148.28 260.226 148.274 260.007 148.244C259.669 148.157 259.326 148.015 258.887 147.864C259.122 146.001 260.383 142.566 261.449 140.823C261.727 140.828 262.004 140.853 262.279 140.897C262.59 140.983 262.896 141.087 263.194 141.21V141.21Z" fill="white"/>
<path d="M257.942 139.937C258.286 139.869 258.64 139.875 258.982 139.954C259.323 140.033 259.644 140.183 259.924 140.394C259.663 141.761 257.991 146.228 257.335 147.305C256.942 147.332 256.548 147.28 256.175 147.153C255.802 147.026 255.458 146.826 255.163 146.564C255.813 144.249 256.747 142.023 257.942 139.937V139.937Z" fill="white"/>
<path d="M256.519 139.442C256.515 140.686 255.646 141.644 255.265 142.768C254.883 143.892 254.438 144.912 253.982 146.074C253.221 145.9 252.558 145.798 251.932 145.588C251.235 145.359 250.585 145.03 249.889 144.734C249.804 143.457 250.45 142.433 250.688 141.318C250.927 140.203 251.235 139.077 251.503 137.99C252.677 137.978 253.977 138.35 256.519 139.442Z" fill="white"/>
<path d="M248.399 136.575C249.101 136.469 249.659 136.795 250.295 137.293C250.083 139.692 249.329 141.98 248.568 144.242C247.337 144.209 247.337 144.209 246.339 143.544C246.415 142.458 247.686 138.146 248.399 136.575Z" fill="white"/>
<path d="M245.045 135.39C245.877 135.036 246.36 135.588 246.91 135.806C246.886 137.49 246.004 140.585 244.898 142.916C244.202 143.119 243.663 142.763 242.989 142.275C243.081 141.865 243.127 141.565 243.214 141.275C243.825 139.305 244.44 137.33 245.045 135.39Z" fill="white"/>
<path d="M242.046 133.995C242.756 133.792 243.216 134.203 243.695 134.467C243.749 136.1 242.651 139.92 241.635 141.653C241.354 141.605 241.078 141.527 240.812 141.421C240.139 141.07 240.036 140.826 240.253 140.113C240.661 138.717 241.1 137.33 241.511 135.933C241.683 135.294 241.708 134.615 242.046 133.995Z" fill="white"/>
<path d="M240.048 132.758C240.167 132.791 240.278 132.847 240.375 132.924C240.472 133.001 240.552 133.096 240.612 133.204C240.671 133.313 240.708 133.432 240.721 133.555C240.734 133.677 240.722 133.802 240.686 133.92C240.356 135.344 240.014 136.769 239.648 138.189C239.514 138.658 239.343 139.117 239.139 139.56C239.021 139.745 238.883 139.916 238.725 140.069L237.632 139.505C237.292 138.795 238.353 134.499 239.255 132.563C239.523 132.609 239.789 132.674 240.048 132.758Z" fill="white"/>
<path d="M237.373 131.342C237.571 131.432 237.729 131.591 237.817 131.79C237.905 131.988 237.918 132.212 237.853 132.419C237.352 134.286 236.822 136.165 236.293 138.024C236.28 138.069 236.198 138.094 236.1 138.165C235.537 138.181 235.154 137.819 234.82 137.408C234.603 136.843 235.558 132.517 236.3 130.862C236.715 131.056 237.054 131.185 237.373 131.342Z" fill="white"/>
<path d="M233.864 129.571C234.518 129.554 234.935 129.845 234.861 130.303C234.535 132.279 234.308 134.288 233.469 136.142C233.449 136.192 233.375 136.215 233.212 136.329C232.823 136.046 232.391 135.73 232.02 135.468C232.183 134.212 233.172 131.076 233.864 129.571Z" fill="white"/>
<path d="M230.17 127.304C231.26 127.318 231.887 127.991 232.646 128.613C232.301 130.446 231.751 132.234 231.008 133.944C230.009 133.603 229.692 132.896 229.304 132.299C229.155 132.035 229.101 131.727 229.153 131.428C229.375 130.027 229.715 128.647 230.17 127.304V127.304Z" fill="white"/>
<path d="M260.344 77.0842C260.251 77.1572 260.168 77.2429 260.098 77.3389C260.02 77.4281 259.955 77.5281 259.905 77.6357C256.196 83.1056 256.433 91.494 261.613 96.1056C267.063 100.961 277.29 101.212 282.28 95.3697C287.732 88.9787 286.521 79.3816 280.033 74.2155C274.179 69.5562 265.035 72.0305 260.344 77.0842ZM281.151 92.9485C277.487 98.3719 268.731 98.3687 263.891 94.8851C258.968 91.3395 258.718 83.4447 261.999 78.8658C263.805 76.8228 266.189 75.3764 268.835 74.7179C271.481 74.0594 274.264 74.22 276.817 75.1782C283.791 77.8058 284.889 87.4207 281.151 92.9485V92.9485Z" fill="#2D2D2D"/>
<path d="M266.838 77.227C261.74 79.4594 260.565 85.0704 262.348 89.9133C264.339 95.3189 270.561 96.3751 275.502 94.8904C275.61 94.8749 275.715 94.8452 275.814 94.802C275.927 94.765 276.033 94.7116 276.13 94.6434C281.445 92.119 282.838 86.1916 280.451 80.9596C278.006 75.5933 271.636 75.1234 266.838 77.227ZM270.897 78.7461C269.5 80.6499 267.564 81.911 266.604 84.1705C266.148 85.2994 265.839 86.4825 265.685 87.6904C265.596 88.266 265.541 88.8418 265.192 89.3159C265.182 89.3198 265.18 89.3401 265.17 89.3515C265.156 89.367 265.139 89.3786 265.119 89.385C265.108 89.3909 265.096 89.3953 265.085 89.398C265.045 89.4108 265.003 89.4098 264.964 89.3953C264.571 89.2204 264.259 88.9018 264.093 88.5048C263.077 86.7986 263.672 83.8152 264.533 82.332C265.751 80.2313 268.151 77.8991 270.802 78.4819C270.828 78.487 270.853 78.4988 270.874 78.5161C270.894 78.5335 270.91 78.5559 270.92 78.5811C270.933 78.6077 270.938 78.6376 270.934 78.667C270.93 78.6964 270.917 78.7239 270.897 78.7461V78.7461Z" fill="#2D2D2D"/>
</g>
</svg>
