<svg width="20" height="20" viewBox="0 0 20 20" fill="none" xmlns="http://www.w3.org/2000/svg">
<rect width="20" height="20" rx="2" fill="#E7C0FF"/>
<path d="M19 1H1V19H19V1Z" fill="#E7C0FF"/>
<path d="M6.46381 7.83743L4.6607 10.1626L4.34638 9.76335H3.67188L3.70504 9.70876L4.78846 7.93508L6.04621 7.50876L6.04715 7.50853L6.16411 7.46875L6.46381 7.83743Z" fill="#3185FF"/>
<g opacity="0.6">
<path opacity="0.6" d="M6.04625 7.50879L4.91297 7.99393L3.82883 9.76338L3.70508 9.70879L4.7885 7.93512L6.04625 7.50879Z" fill="#F5F5F5"/>
</g>
<path d="M12.9003 10.9475L11.9032 13.0591L11.7532 13.377C11.7532 13.377 11.3842 14.0141 10.6963 13.8289V13.0749L11.8126 10.9106L12.4319 10.637L12.7883 10.4795L12.8937 10.6775C12.9157 10.7189 12.9278 10.7649 12.9289 10.8117C12.9301 10.8586 12.9203 10.9051 12.9003 10.9475Z" fill="white"/>
<path d="M10.9412 13.934C10.8521 13.9337 10.7635 13.9216 10.6777 13.898C10.6687 13.8956 10.6602 13.8914 10.6528 13.8857C10.6454 13.88 10.6392 13.8729 10.6345 13.8648C10.6251 13.8484 10.6225 13.829 10.6275 13.8108C10.6324 13.7925 10.6443 13.777 10.6607 13.7676C10.6771 13.7581 10.6965 13.7556 10.7147 13.7605C11.3262 13.9253 11.6624 13.3904 11.6901 13.344L12.8358 10.9176C12.8511 10.8851 12.8585 10.8496 12.8577 10.8139C12.8568 10.7781 12.8476 10.743 12.8309 10.7113L12.7255 10.5133C12.7171 10.4967 12.7156 10.4775 12.7213 10.4598C12.7269 10.442 12.7393 10.4272 12.7557 10.4185C12.7721 10.4098 12.7913 10.4078 12.8091 10.413C12.827 10.4182 12.8421 10.4302 12.8512 10.4464L12.9566 10.6444C12.9837 10.6956 12.9986 10.7525 13 10.8104C13.0014 10.8684 12.9893 10.9259 12.9646 10.9783L11.8177 13.4077C11.8169 13.4095 11.8159 13.4113 11.8149 13.413C11.8113 13.419 11.5056 13.934 10.9412 13.934Z" fill="#232323"/>
<g opacity="0.3">
<path opacity="0.3" d="M11.5532 12.5691C11.5532 12.5691 11.736 12.8191 11.9032 13.0589L11.7532 13.3767C11.7532 13.3767 11.3842 14.0138 10.6963 13.8287V13.0746L11.8126 10.9104L12.4319 10.6367L12.4394 10.6621C12.3695 10.8242 11.5532 12.5691 11.5532 12.5691Z" fill="#232323"/>
</g>
<path d="M12.7241 11.9685L12.6051 12.1854L12.2091 12.9082C12.1697 12.98 12.1044 13.0341 12.0266 13.0594C11.9487 13.0847 11.8641 13.0794 11.7901 13.0444L11.1016 12.7193L11.5751 11.7375L11.8664 11.1338L12.5965 11.5319C12.6335 11.5521 12.6663 11.5795 12.6928 11.6124C12.7193 11.6453 12.739 11.6831 12.7509 11.7237C12.7627 11.7643 12.7665 11.8068 12.7619 11.8488C12.7573 11.8908 12.7445 11.9315 12.7241 11.9685Z" fill="white"/>
<path d="M11.9255 13.1463C11.8678 13.1463 11.8108 13.1335 11.7586 13.1088L11.0701 12.7837C11.053 12.7757 11.0399 12.7612 11.0335 12.7434C11.0271 12.7256 11.028 12.7061 11.0361 12.689C11.0442 12.6719 11.0587 12.6587 11.0764 12.6523C11.0942 12.646 11.1138 12.6469 11.1309 12.655L11.8194 12.98C11.877 13.0071 11.9428 13.0113 12.0034 12.9916C12.064 12.9719 12.1148 12.9299 12.1455 12.8741L12.6608 11.9344C12.6766 11.9055 12.6866 11.8738 12.6901 11.8411C12.6937 11.8084 12.6908 11.7753 12.6815 11.7437C12.6723 11.7122 12.6569 11.6827 12.6362 11.6571C12.6156 11.6315 12.5901 11.6102 12.5612 11.5944L11.8311 11.1964C11.8145 11.1873 11.8022 11.172 11.7968 11.1539C11.7915 11.1357 11.7936 11.1162 11.8027 11.0996C11.8117 11.083 11.827 11.0707 11.8452 11.0654C11.8633 11.0601 11.8828 11.0622 11.8994 11.0712L12.6296 11.4693C12.6749 11.494 12.7149 11.5274 12.7473 11.5676C12.7797 11.6078 12.8038 11.654 12.8184 11.7036C12.8329 11.7531 12.8375 11.8051 12.8319 11.8564C12.8263 11.9077 12.8107 11.9575 12.7858 12.0027L12.2706 12.9424C12.2366 13.0042 12.1867 13.0557 12.126 13.0916C12.0653 13.1275 11.996 13.1464 11.9255 13.1463Z" fill="#232323"/>
<path d="M11.6811 13.0645C11.6706 13.0645 11.6602 13.0622 11.6507 13.0577C11.6097 13.0384 11.5731 13.0109 11.543 12.9771C11.5129 12.9432 11.4899 12.9036 11.4755 12.8607C11.4611 12.8177 11.4555 12.7723 11.4591 12.7272C11.4626 12.682 11.4753 12.638 11.4963 12.5979L12.0483 11.5427C12.069 11.503 12.0974 11.468 12.1319 11.4395C12.1663 11.411 12.2061 11.3896 12.2489 11.3767C12.2917 11.3637 12.3367 11.3595 12.3811 11.3641C12.4256 11.3688 12.4687 11.3822 12.5079 11.4037L12.6524 11.4831C12.6606 11.4876 12.6679 11.4936 12.6737 11.5009C12.6796 11.5082 12.6839 11.5166 12.6865 11.5256C12.6891 11.5346 12.69 11.544 12.6889 11.5533C12.6879 11.5626 12.6851 11.5716 12.6806 11.5798C12.6761 11.588 12.67 11.5952 12.6627 11.601C12.6554 11.6069 12.647 11.6112 12.6381 11.6139C12.6291 11.6165 12.6197 11.6173 12.6104 11.6163C12.6011 11.6152 12.5921 11.6124 12.5839 11.6079L12.4394 11.5286C12.4168 11.5162 12.392 11.5085 12.3663 11.5058C12.3407 11.5031 12.3148 11.5056 12.2902 11.513C12.2655 11.5205 12.2426 11.5328 12.2227 11.5492C12.2029 11.5656 12.1865 11.5858 12.1745 11.6087L11.6225 12.6639C11.6104 12.687 11.603 12.7124 11.601 12.7384C11.5989 12.7644 11.6021 12.7906 11.6104 12.8154C11.6187 12.8401 11.632 12.863 11.6493 12.8825C11.6667 12.902 11.6878 12.9178 11.7115 12.9289C11.7261 12.9358 11.7379 12.9475 11.745 12.962C11.7521 12.9766 11.7541 12.9931 11.7505 13.0089C11.747 13.0246 11.7382 13.0388 11.7256 13.0489C11.7129 13.059 11.6972 13.0645 11.6811 13.0645Z" fill="#232323"/>
<path d="M14.2899 9.86392C13.6584 10.4018 12.8818 10.7537 11.953 10.9109C11.6805 11.6327 11.2585 12.4472 10.786 13.293L10.3061 16.1574C11.1552 16.4171 10.9491 17.2749 9.86683 17.0474C9.56897 16.9619 9.29137 16.8256 9.04081 16.6216C9.00237 16.59 8.97177 16.5499 8.9514 16.5045C8.93103 16.4591 8.92145 16.4097 8.9234 16.3599L8.93821 15.9414L8.97304 14.9602C8.9833 14.6714 8.93313 14.3837 8.82575 14.1155L8.518 13.346L8.10229 13.04L8.07736 13.0362L7.07156 12.8852C6.85493 12.8525 6.63535 12.8438 6.41681 12.8593L5.35954 12.9341C4.78453 13.0988 4.15966 13.2458 4.08316 12.5106L4.058 11.8991L4.03613 11.3636C4.11848 10.7166 4.85626 10.7281 5.11838 11.5166C5.95453 11.3385 6.7589 11.2253 7.49861 11.2442L8.34605 9.67325L8.35334 9.65975C7.54847 8.92666 6.79468 8.2013 6.18767 7.49737C6.01451 7.29671 5.93194 7.03036 5.97334 6.76837C6.00182 6.58837 6.07895 6.44887 6.20284 6.39784C6.33455 6.34384 6.51901 6.3896 6.75337 6.59336C7.13636 6.36067 7.30507 6.55052 7.31024 7.06388L8.18828 7.90169L12.1866 9.56957C12.8526 9.36257 13.4705 9.11597 13.965 8.76592C14.0723 8.57323 14.1805 8.44759 14.2911 8.41604C14.4148 8.38076 14.5412 8.46428 14.6704 8.70521C16.1612 8.7904 15.1291 10.0286 14.2899 9.86392Z" fill="white"/>
<g opacity="0.3">
<path opacity="0.3" d="M8.07795 13.0366L7.07215 12.8856C6.85552 12.8529 6.63594 12.8442 6.4174 12.8597L5.36013 12.9344C4.78512 13.0991 4.16025 13.2462 4.08375 12.5109L4.05859 11.8994C4.07434 11.9309 4.08681 11.9719 4.09482 12.0229C4.22352 12.8346 5.19354 12.4229 5.19354 12.4229L5.93581 12.317C6.50614 12.2457 6.95911 12.253 7.2508 12.2739C7.35944 12.2818 7.46381 12.3194 7.55245 12.3827C7.64108 12.446 7.71054 12.5325 7.75318 12.6327L7.77987 12.6953L8.07795 13.0366Z" fill="#232323"/>
</g>
<path d="M10.2076 17.1656C10.1007 17.1656 9.98173 17.1532 9.85069 17.1257L9.84502 17.1242C9.51913 17.0305 9.23955 16.8863 8.99038 16.6835C8.94243 16.644 8.90423 16.594 8.87873 16.5374C8.85324 16.4807 8.84114 16.419 8.84337 16.3569L8.89287 14.9568C8.90308 14.6793 8.85486 14.4027 8.75135 14.145L8.452 13.3966L8.07081 13.1161L7.05961 12.9641C6.84882 12.9325 6.63518 12.9241 6.42255 12.9391L5.37387 13.0132C4.94605 13.1355 4.5402 13.2287 4.26862 13.0453C4.11864 12.944 4.02954 12.7668 4.00371 12.5188L4.00335 12.5138L3.95605 11.3601L3.95691 11.3534C3.99552 11.05 4.17417 10.8464 4.4232 10.8221C4.67569 10.7976 4.99762 10.9753 5.17056 11.4235C6.06259 11.237 6.81022 11.1516 7.45152 11.1625L8.25333 9.67667C7.3054 8.81132 6.6484 8.15387 6.1273 7.54961C5.93493 7.3265 5.85006 7.03715 5.89443 6.75581C5.93016 6.52923 6.03393 6.37389 6.18634 6.31841C6.30046 6.27683 6.49122 6.2762 6.76234 6.4958C6.92848 6.40629 7.06681 6.39104 7.174 6.4508C7.31161 6.5273 7.38244 6.71661 7.39 7.029L8.23308 7.83338L12.1906 9.48402C12.9413 9.24881 13.487 9.00252 13.904 8.71052C14.0502 8.45303 14.1946 8.32775 14.345 8.32775H14.3471C14.4818 8.32883 14.6036 8.42702 14.7192 8.62772C15.2272 8.66574 15.4098 8.83967 15.4731 8.98106C15.5436 9.13856 15.5009 9.33336 15.3561 9.51557C15.1443 9.78188 14.7227 10.0106 14.3132 9.94901C13.6838 10.4755 12.9099 10.8229 12.0117 10.9818C11.7754 11.5983 11.4193 12.3228 10.8627 13.3196L10.3965 16.1027C10.8195 16.2563 10.955 16.5527 10.8982 16.7732C10.8434 16.9871 10.6123 17.1656 10.2076 17.1656ZM9.88656 16.9692C10.4054 17.0772 10.6943 16.9229 10.7432 16.7332C10.7844 16.573 10.6579 16.3484 10.2829 16.2337L10.2156 16.2131L10.7094 13.2656L10.7162 13.2534C11.2856 12.2341 11.644 11.5029 11.8782 10.8819L11.8945 10.8389L11.9399 10.8312C12.8423 10.6786 13.6157 10.3324 14.2382 9.80226L14.2678 9.77715L14.3057 9.78462C14.6605 9.85433 15.0472 9.64638 15.2308 9.41562C15.3371 9.28193 15.3722 9.14738 15.3271 9.04662C15.2607 8.89853 15.026 8.8056 14.6661 8.78499L14.6211 8.78247L14.5998 8.74283C14.5108 8.57687 14.4231 8.48885 14.3462 8.48826H14.3454C14.284 8.48826 14.1806 8.54343 14.0352 8.80475L14.0262 8.82068L14.0113 8.83125C13.5732 9.14135 13.0009 9.40023 12.2104 9.64575L12.1825 9.65439L8.14384 7.96986L7.23034 7.09839L7.23003 7.06451C7.22751 6.8058 7.17985 6.63759 7.09579 6.59084C7.01632 6.54669 6.88843 6.60501 6.79506 6.66176L6.74497 6.69218L6.70078 6.6537C6.51682 6.49364 6.35343 6.42807 6.24079 6.4692C6.14697 6.50336 6.07834 6.61694 6.05247 6.78083C6.01548 7.01555 6.08689 7.25756 6.2484 7.44489C6.77355 8.05388 7.43937 8.71839 8.40727 9.60039L8.45362 9.6426L7.54602 11.3252L7.49679 11.324C6.8406 11.3074 6.06844 11.396 5.13537 11.5948L5.06517 11.6097L5.04267 11.5416C4.90497 11.1276 4.64005 10.9619 4.43886 10.9816C4.2675 10.9984 4.14753 11.1422 4.11697 11.367L4.16337 12.5045C4.18461 12.7047 4.24837 12.8381 4.35826 12.9123C4.57426 13.0581 4.96041 12.9648 5.33755 12.8567L5.34565 12.8544L6.41139 12.779C6.63584 12.7632 6.86136 12.772 7.08387 12.8055L8.13431 12.9633L8.5843 13.2945L8.90065 14.0854C9.01248 14.3638 9.0646 14.6626 9.05365 14.9625L9.00415 16.3625C9.00271 16.3998 9.00987 16.437 9.0251 16.4711C9.04032 16.5052 9.0632 16.5353 9.09195 16.5591C9.32302 16.7474 9.58303 16.8816 9.88656 16.9692Z" fill="#232323"/>
<g opacity="0.3">
<path opacity="0.3" d="M14.2905 9.86395C13.6591 10.4018 12.8824 10.7537 11.9536 10.9109C11.8636 11.1487 11.7576 11.3969 11.639 11.6527C11.6181 11.6977 11.6868 11.7574 11.6651 11.8028C11.6156 11.9065 11.4746 11.9969 11.4214 12.103C11.2287 12.4879 11.0135 12.8869 10.7867 13.293L10.3067 16.1574C11.1558 16.4171 10.9497 17.275 9.86744 17.0474C9.56959 16.9619 9.29198 16.8256 9.04142 16.6216C9.00298 16.59 8.97238 16.55 8.95201 16.5046C8.93164 16.4592 8.92206 16.4097 8.92402 16.36L8.93882 15.9415C9.15244 16.9929 10.1342 16.6005 10.0008 15.9104C10.0008 15.9104 10.095 14.1694 10.142 13.6754C10.189 13.1813 10.3067 12.8933 10.3067 12.8933L10.5551 12.4049C10.4903 12.5317 10.3967 12.6071 10.3007 12.6512C10.1276 12.7309 9.92531 12.714 9.76156 12.6167L7.91093 11.5166L7.79492 10.9891L10.6967 10.9108L11.0751 11.1395L11.3419 10.5226C12.4375 10.3349 13.4235 10.0168 14.2354 9.49328L14.3744 9.50782C14.5664 9.52784 14.7528 9.42065 14.8223 9.24052C14.8991 9.0418 14.726 9.01246 14.373 9.10511C14.5953 8.70911 14.277 8.42111 14.277 8.42111L14.2918 8.41594C14.4156 8.38066 14.5419 8.46418 14.6711 8.70511C16.1619 8.79043 15.1297 10.0286 14.2905 9.86395Z" fill="#232323"/>
</g>
<g opacity="0.3">
<path opacity="0.3" d="M9.01979 8.92321C8.6043 9.29189 8.43164 9.69185 8.43164 9.69185L8.34614 9.67385L8.35343 9.66035C7.54856 8.92726 6.79476 8.2019 6.18775 7.49797C6.01459 7.29731 5.93202 7.03096 5.97342 6.76897C6.00191 6.58897 6.07904 6.44947 6.20292 6.39844C6.19208 6.42265 6.17889 6.44879 6.16363 6.47678C5.86812 7.01863 7.8357 8.6114 8.12388 8.84666C8.41206 9.08192 8.65889 8.68763 8.65889 8.68763L9.01979 8.92321Z" fill="#232323"/>
</g>
<path d="M10.7544 11.0048L10.2653 11.9729C10.2473 12.0086 10.2223 12.0404 10.1918 12.0663C10.1613 12.0922 10.1259 12.1117 10.0877 12.1237C10.0495 12.1357 10.0094 12.1399 9.96952 12.1361C9.92969 12.1323 9.89103 12.1206 9.8558 12.1016L7.74895 10.9641C7.71356 10.9449 7.68238 10.9189 7.65728 10.8874C7.63218 10.856 7.61366 10.8198 7.60284 10.7811C7.59202 10.7423 7.58911 10.7018 7.59429 10.6619C7.59947 10.622 7.61263 10.5836 7.63298 10.5489L7.77086 10.3136L8.17033 9.63248C8.20927 9.56591 8.27242 9.51695 8.34659 9.49582C8.42076 9.47469 8.50022 9.48302 8.5684 9.51908L10.0184 10.2837V10.2839L10.6271 10.6048C10.6965 10.6415 10.7488 10.7039 10.7726 10.7787C10.7964 10.8536 10.7899 10.9348 10.7544 11.0048Z" fill="white"/>
<path d="M9.61809 10.9893C9.74695 10.9893 9.85142 10.8751 9.85142 10.7344C9.85142 10.5936 9.74695 10.4795 9.61809 10.4795C9.48923 10.4795 9.38477 10.5936 9.38477 10.7344C9.38477 10.8751 9.48923 10.9893 9.61809 10.9893Z" fill="#22A7F0"/>
<g opacity="0.5">
<path opacity="0.5" d="M9.4318 10.8519C9.4318 10.7111 9.53629 10.597 9.66512 10.597C9.73577 10.597 9.79895 10.6315 9.84175 10.6857C9.81326 10.5801 9.72398 10.5029 9.61805 10.5029C9.48922 10.5029 9.38477 10.617 9.38477 10.7578C9.38443 10.818 9.40439 10.8766 9.44143 10.924C9.43506 10.9005 9.43182 10.8763 9.4318 10.8519Z" fill="white"/>
</g>
<path d="M9.99733 12.209C9.936 12.2089 9.87567 12.1934 9.82183 12.164L7.71507 11.0265C7.67128 11.0029 7.63271 10.9706 7.60164 10.9318C7.57058 10.8929 7.54765 10.8482 7.53424 10.8002C7.52082 10.7523 7.51719 10.7022 7.52355 10.6528C7.52992 10.6035 7.54615 10.5559 7.57129 10.513L8.10859 9.59655C8.15676 9.51409 8.23493 9.45343 8.32678 9.42726C8.41862 9.40109 8.51703 9.41142 8.60143 9.45611L10.66 10.5419C10.8377 10.6356 10.9086 10.8577 10.818 11.0369L10.3288 12.0052C10.3066 12.0495 10.2757 12.0889 10.2379 12.1209C10.2001 12.153 10.1562 12.1771 10.1088 12.1918C10.0727 12.2031 10.0351 12.209 9.99733 12.209ZM8.42836 9.55551C8.38853 9.55551 8.34939 9.56593 8.31484 9.58576C8.28029 9.60558 8.25153 9.63411 8.23144 9.66851L7.69414 10.585C7.67862 10.6114 7.66859 10.6407 7.66465 10.6712C7.6607 10.7016 7.66293 10.7325 7.67119 10.762C7.67945 10.7915 7.69358 10.8191 7.71273 10.8431C7.73188 10.867 7.75566 10.8869 7.78266 10.9014L9.88938 12.0389C9.91623 12.0534 9.94571 12.0624 9.97609 12.0653C10.0065 12.0682 10.0371 12.065 10.0662 12.0559C10.0953 12.0468 10.1223 12.0319 10.1456 12.0121C10.1689 11.9924 10.188 11.9682 10.2017 11.941L10.6909 10.9728C10.7176 10.9193 10.7224 10.8575 10.7042 10.8005C10.686 10.7436 10.6463 10.6959 10.5936 10.6678L8.53501 9.58202C8.50215 9.56463 8.46554 9.55553 8.42836 9.55551Z" fill="#232323"/>
<path d="M9.55805 11.9523C9.49025 11.9524 9.42351 11.9355 9.36387 11.9032L9.28323 11.8596C9.27638 11.856 9.2703 11.8511 9.26537 11.8451C9.26043 11.8391 9.25673 11.8322 9.25448 11.8247C9.25223 11.8173 9.25147 11.8095 9.25225 11.8018C9.25303 11.7941 9.25533 11.7866 9.25902 11.7797C9.26271 11.7729 9.26771 11.7669 9.27374 11.762C9.27977 11.7571 9.28671 11.7534 9.29416 11.7513C9.30161 11.7491 9.30941 11.7484 9.31713 11.7492C9.32485 11.75 9.33232 11.7524 9.33912 11.7561L9.41976 11.7997C9.48801 11.8364 9.56802 11.8446 9.64231 11.8225C9.71659 11.8004 9.7791 11.7498 9.81617 11.6817L10.2815 10.8243C10.3 10.7903 10.3115 10.7529 10.3154 10.7144C10.3194 10.6758 10.3156 10.6369 10.3044 10.5998C10.2931 10.5627 10.2747 10.5283 10.25 10.4984C10.2254 10.4685 10.195 10.4438 10.1608 10.4257C10.1538 10.4222 10.1476 10.4173 10.1426 10.4114C10.1375 10.4054 10.1337 10.3985 10.1313 10.3911C10.129 10.3837 10.1281 10.3758 10.1288 10.3681C10.1295 10.3603 10.1317 10.3527 10.1354 10.3458C10.139 10.3389 10.144 10.3328 10.15 10.3279C10.156 10.3229 10.163 10.3192 10.1704 10.3169C10.1779 10.3147 10.1858 10.314 10.1935 10.3148C10.2013 10.3156 10.2088 10.3179 10.2156 10.3217C10.2637 10.347 10.3062 10.3816 10.3408 10.4235C10.3753 10.4654 10.4012 10.5137 10.417 10.5657C10.4327 10.6177 10.438 10.6723 10.4325 10.7263C10.427 10.7803 10.4108 10.8327 10.3849 10.8804L9.91958 11.7378C9.8842 11.8028 9.83195 11.857 9.76831 11.8948C9.70468 11.9326 9.63204 11.9524 9.55805 11.9523Z" fill="#232323"/>
<path d="M8.88003 11.6345C8.86983 11.6344 8.85981 11.6318 8.85096 11.6267C8.8421 11.6217 8.8347 11.6144 8.8295 11.6057C8.82429 11.5969 8.82145 11.5869 8.82126 11.5767C8.82108 11.5665 8.82354 11.5565 8.82841 11.5475L9.05535 11.1307C9.07408 11.0964 9.08233 11.0573 9.07909 11.0183C9.07585 10.9793 9.06126 10.9421 9.03712 10.9113L8.73203 10.522C8.69886 10.4798 8.67891 10.4287 8.67468 10.3752C8.67044 10.3217 8.68211 10.2682 8.70822 10.2213L8.97822 9.7346C8.98592 9.7212 8.99858 9.71137 9.01346 9.70723C9.02835 9.70309 9.04427 9.70497 9.05778 9.71248C9.07129 9.71998 9.0813 9.7325 9.08565 9.74732C9.09001 9.76215 9.08835 9.77809 9.08104 9.79171L8.81104 10.2783C8.79622 10.305 8.78959 10.3355 8.79199 10.3659C8.79439 10.3963 8.80572 10.4253 8.82454 10.4493L9.1296 10.8386C9.16793 10.8875 9.1911 10.9465 9.19625 11.0084C9.2014 11.0703 9.1883 11.1323 9.15858 11.1868L8.93164 11.6036C8.92661 11.6129 8.91916 11.6207 8.91007 11.6261C8.90099 11.6316 8.89061 11.6344 8.88003 11.6345Z" fill="#232323"/>
<path d="M9.61827 11.0483C9.45721 11.0483 9.32617 10.9076 9.32617 10.7346C9.32617 10.5616 9.45721 10.4209 9.61827 10.4209C9.77932 10.4209 9.91041 10.5617 9.91041 10.7346C9.91041 10.9075 9.77946 11.0483 9.61827 11.0483ZM9.61827 10.5386C9.52206 10.5386 9.4438 10.6265 9.4438 10.7346C9.4438 10.8427 9.52206 10.9307 9.61827 10.9307C9.71448 10.9307 9.79278 10.8427 9.79278 10.7346C9.79278 10.6265 9.71452 10.5386 9.61827 10.5386Z" fill="#232323"/>
<path d="M11.6653 11.803L11.4361 12.1943C11.4236 12.2157 11.4046 12.2326 11.3819 12.2426C11.3592 12.2527 11.3339 12.2552 11.3096 12.25C11.2077 12.228 11.11 12.19 11.02 12.1375L10.7306 11.9676C10.7302 11.9676 10.7299 11.9674 10.7296 11.9672L10.6969 11.9479L10.3349 11.7354C10.3093 11.7203 10.2904 11.6961 10.2821 11.6676C10.2737 11.6391 10.2765 11.6085 10.2899 11.582L10.4913 11.1842C10.4984 11.1701 10.5083 11.1575 10.5205 11.1474C10.5326 11.1372 10.5467 11.1296 10.5618 11.1251C10.577 11.1205 10.5929 11.1191 10.6086 11.1209C10.6244 11.1227 10.6395 11.1276 10.6533 11.1355L11.1618 11.427L11.4276 11.5792C11.4669 11.6016 11.51 11.6165 11.5547 11.6232L11.5808 11.627C11.5999 11.6298 11.618 11.6373 11.6335 11.6487C11.649 11.6601 11.6614 11.6752 11.6698 11.6926C11.6781 11.7099 11.6821 11.7291 11.6813 11.7484C11.6805 11.7676 11.675 11.7864 11.6653 11.803Z" fill="white"/>
<path d="M11.3345 12.3238C11.3211 12.3238 11.3077 12.3224 11.2945 12.3195C11.1853 12.2961 11.0804 12.2552 10.984 12.1987L10.2988 11.7966C10.2576 11.7724 10.2272 11.7333 10.2137 11.6875C10.2002 11.6416 10.2047 11.5923 10.2262 11.5496L10.4275 11.1518C10.439 11.1291 10.455 11.109 10.4746 11.0926C10.4941 11.0763 10.5168 11.0641 10.5412 11.0567C10.5656 11.0494 10.5912 11.0471 10.6166 11.0501C10.6419 11.053 10.6663 11.061 10.6885 11.0736L11.4631 11.5172C11.4945 11.5353 11.5291 11.5473 11.565 11.5525L11.591 11.5563C11.6217 11.5608 11.6508 11.5728 11.6757 11.5911C11.7007 11.6095 11.7207 11.6337 11.7341 11.6616C11.7475 11.6895 11.7539 11.7203 11.7526 11.7513C11.7513 11.7822 11.7424 11.8124 11.7267 11.8391L11.4974 12.2303C11.4808 12.2587 11.457 12.2824 11.4285 12.2988C11.3999 12.3152 11.3675 12.3238 11.3345 12.3238ZM10.5951 11.1912C10.5907 11.1912 10.5863 11.1918 10.582 11.1931C10.5761 11.1949 10.5706 11.1978 10.5658 11.2018C10.5611 11.2058 10.5572 11.2107 10.5544 11.2162L10.3532 11.6139C10.348 11.6243 10.3469 11.6362 10.3501 11.6474C10.3534 11.6585 10.3608 11.6679 10.3708 11.6738L11.056 12.0758C11.1393 12.1247 11.23 12.16 11.3245 12.1803C11.3341 12.1824 11.3441 12.1813 11.3531 12.1774C11.3621 12.1734 11.3696 12.1667 11.3746 12.1583L11.6038 11.767C11.6077 11.7604 11.6099 11.753 11.6102 11.7454C11.6105 11.7377 11.6089 11.7301 11.6056 11.7232C11.6023 11.7163 11.5974 11.7103 11.5912 11.7058C11.585 11.7013 11.5779 11.6983 11.5703 11.6972L11.5443 11.6934C11.4908 11.6856 11.4392 11.6677 11.3923 11.6408L10.6177 11.1973C10.6108 11.1933 10.6031 11.1912 10.5951 11.1912Z" fill="#232323"/>
<path d="M7.5679 11.2628C7.55953 11.2876 7.55121 11.3175 7.54423 11.3458C7.53726 11.374 7.53073 11.4035 7.52515 11.4328C7.51405 11.4915 7.5062 11.5507 7.50162 11.6103C7.49677 11.6701 7.49593 11.7301 7.4991 11.7899C7.50121 11.8501 7.51071 11.9095 7.52187 11.9688V11.97C7.52296 11.9759 7.52178 11.982 7.51856 11.987C7.51535 11.992 7.51035 11.9957 7.50457 11.9971C7.49879 11.9986 7.49266 11.9978 7.48742 11.995C7.48219 11.9921 7.47824 11.9874 7.47637 11.9817C7.4568 11.9219 7.43884 11.8608 7.42849 11.7984C7.41703 11.7359 7.40974 11.6728 7.40667 11.6094C7.40334 11.5458 7.40352 11.482 7.40721 11.4184C7.40928 11.3866 7.41171 11.3548 7.41553 11.3228C7.41936 11.2909 7.42341 11.2598 7.43029 11.2252C7.43192 11.2158 7.43541 11.2069 7.44055 11.1989C7.44569 11.1909 7.45238 11.1839 7.46022 11.1786C7.46806 11.1732 7.47691 11.1694 7.48623 11.1675C7.49555 11.1656 7.50516 11.1655 7.51449 11.1674C7.52383 11.1692 7.5327 11.1729 7.54059 11.1782C7.54848 11.1835 7.55522 11.1904 7.56043 11.1984C7.56564 11.2063 7.5692 11.2153 7.57091 11.2246C7.57261 11.234 7.57243 11.2436 7.57038 11.2529C7.5698 11.2558 7.56905 11.2587 7.56813 11.2615L7.5679 11.2628Z" fill="#232323"/>
<path d="M7.74005 12.5603C7.76447 12.6042 7.79143 12.6466 7.82078 12.6874C7.84986 12.7279 7.8812 12.7668 7.91465 12.8038C7.94754 12.8398 7.98304 12.8733 8.02085 12.904C8.05736 12.9329 8.09678 12.9579 8.13848 12.9786L8.13988 12.9793C8.14828 12.9834 8.15578 12.9892 8.16195 12.9963C8.16812 13.0034 8.17284 13.0116 8.17583 13.0205C8.17882 13.0294 8.18003 13.0388 8.17939 13.0481C8.17875 13.0575 8.17627 13.0667 8.1721 13.0751C8.16792 13.0835 8.16213 13.091 8.15506 13.0971C8.14798 13.1033 8.13976 13.108 8.13087 13.111C8.12197 13.114 8.11257 13.1152 8.10321 13.1146C8.09384 13.1139 8.0847 13.1115 8.07629 13.1073C8.07304 13.1056 8.06991 13.1038 8.06693 13.1017C8.02066 13.0692 7.97798 13.0319 7.93963 12.9904C7.9032 12.9501 7.86982 12.9071 7.83977 12.8619C7.81064 12.8174 7.78403 12.7714 7.76008 12.724C7.73613 12.6768 7.715 12.6283 7.69681 12.5787C7.69471 12.5731 7.69482 12.5669 7.69712 12.5614C7.69941 12.5559 7.70371 12.5514 7.70915 12.549C7.71459 12.5465 7.72077 12.5462 7.72642 12.5481C7.73207 12.55 7.73679 12.554 7.7396 12.5593L7.74005 12.5603Z" fill="#232323"/>
<path d="M8.55647 13.2855C8.59823 13.3156 8.64409 13.346 8.68931 13.3746C8.73454 13.4032 8.78129 13.431 8.82836 13.4576C8.87543 13.4841 8.92327 13.5094 8.97182 13.5333C9.02038 13.5571 9.06988 13.579 9.11996 13.5999L9.1205 13.6001C9.12597 13.6024 9.13036 13.6067 9.13281 13.6122C9.13525 13.6176 9.13556 13.6237 9.13368 13.6293C9.1318 13.635 9.12787 13.6397 9.12266 13.6425C9.11746 13.6454 9.11137 13.6462 9.10561 13.6447C9.05188 13.6312 8.9981 13.6165 8.94536 13.5991C8.89262 13.5816 8.83988 13.5635 8.78786 13.5433C8.73584 13.5231 8.68436 13.502 8.63338 13.4793C8.58239 13.4565 8.53244 13.4331 8.48083 13.4063C8.47251 13.4019 8.46512 13.396 8.45909 13.3888C8.45306 13.3816 8.44851 13.3733 8.44569 13.3644C8.44287 13.3554 8.44184 13.346 8.44265 13.3367C8.44347 13.3273 8.44612 13.3183 8.45045 13.3099C8.45479 13.3016 8.46071 13.2942 8.4679 13.2882C8.47509 13.2822 8.48339 13.2776 8.49234 13.2748C8.50128 13.272 8.5107 13.2709 8.52004 13.2718C8.52939 13.2726 8.53848 13.2752 8.5468 13.2796C8.54976 13.2811 8.5526 13.2828 8.5553 13.2848L8.55647 13.2855Z" fill="#232323"/>
<path d="M5.93761 12.9517C5.93021 12.9517 5.92288 12.9503 5.91601 12.9476C5.9088 12.9448 5.90222 12.9405 5.89666 12.9351C5.89109 12.9298 5.88664 12.9233 5.88357 12.9162C5.88049 12.9091 5.87885 12.9015 5.87875 12.8937C5.87864 12.886 5.88006 12.8783 5.88294 12.8711C6.26094 11.9151 5.77012 11.4502 5.74906 11.4308C5.7378 11.4203 5.73114 11.4057 5.73052 11.3903C5.7299 11.3749 5.73536 11.3598 5.74574 11.3484C5.75612 11.337 5.77057 11.3301 5.78599 11.3292C5.8014 11.3283 5.81653 11.3336 5.82812 11.3438C5.85175 11.3651 6.4016 11.879 5.99228 12.9143C5.98801 12.9253 5.9805 12.9348 5.97074 12.9414C5.96099 12.9481 5.94944 12.9517 5.93761 12.9517Z" fill="#232323"/>
<path d="M5.18553 11.4919C5.19003 11.5074 5.19224 11.5185 5.19453 11.5313C5.19683 11.544 5.19903 11.5558 5.20097 11.568C5.20452 11.5924 5.20745 11.6167 5.2092 11.6409C5.21296 11.6889 5.21371 11.7371 5.21145 11.7852C5.20925 11.8327 5.20417 11.8801 5.19624 11.927C5.18847 11.9734 5.17812 12.0194 5.16524 12.0647C5.16367 12.0704 5.16004 12.0752 5.15506 12.0784C5.15007 12.0815 5.1441 12.0827 5.13831 12.0816C5.13252 12.0806 5.12733 12.0774 5.12376 12.0727C5.12019 12.068 5.1185 12.0622 5.11902 12.0563V12.0555C5.12364 12.0109 5.12581 11.9661 5.1255 11.9213C5.12518 11.8769 5.12217 11.8327 5.1165 11.7887C5.111 11.7453 5.10278 11.7023 5.09189 11.6599C5.08662 11.6388 5.08032 11.6182 5.07389 11.598C5.07042 11.588 5.067 11.5778 5.06318 11.5683C5.05935 11.5588 5.05512 11.5482 5.05193 11.5421C5.04735 11.5332 5.04468 11.5235 5.04408 11.5135C5.04347 11.5035 5.04496 11.4936 5.04844 11.4842C5.05192 11.4748 5.05732 11.4663 5.06428 11.4592C5.07125 11.452 5.07963 11.4464 5.08889 11.4427C5.09816 11.4389 5.10809 11.4372 5.11807 11.4375C5.12805 11.4379 5.13784 11.4403 5.14683 11.4446C5.15582 11.449 5.1638 11.4552 5.17026 11.4628C5.17673 11.4704 5.18153 11.4793 5.18436 11.4888L5.18553 11.4919Z" fill="#232323"/>
<path d="M9.88192 15.4721C9.38651 15.4721 8.96095 15.2159 8.93629 15.2008C8.9297 15.1967 8.92398 15.1914 8.91944 15.1852C8.9149 15.1789 8.91163 15.1719 8.90983 15.1643C8.90803 15.1568 8.90772 15.149 8.90893 15.1414C8.91014 15.1338 8.91284 15.1265 8.91687 15.1199C8.92091 15.1133 8.9262 15.1076 8.93245 15.103C8.9387 15.0985 8.94578 15.0952 8.95329 15.0934C8.96081 15.0916 8.9686 15.0913 8.97623 15.0925C8.98386 15.0937 8.99117 15.0964 8.99776 15.1005C9.00563 15.1052 9.79093 15.5769 10.4268 15.2172C10.4403 15.2097 10.4563 15.2079 10.4712 15.2122C10.4861 15.2164 10.4987 15.2263 10.5063 15.2398C10.5139 15.2532 10.5159 15.2692 10.5119 15.2841C10.5078 15.299 10.4981 15.3118 10.4847 15.3196C10.2866 15.4318 10.0787 15.4721 9.88192 15.4721Z" fill="#232323"/>
<path d="M4.34374 13.0422C4.3318 13.0428 4.32012 13.0387 4.31126 13.0307C4.3024 13.0226 4.29708 13.0114 4.29649 12.9995C4.29589 12.9876 4.30006 12.9759 4.30808 12.967C4.31609 12.9582 4.3273 12.9528 4.33924 12.9522C4.45529 12.9404 4.47577 12.6652 4.47379 12.5697C4.47379 12.5607 4.46105 11.7168 4.37479 11.3377C4.35098 11.2328 4.31327 11.1698 4.2658 11.1558C4.2086 11.1388 4.13651 11.1926 4.11365 11.2148C4.10511 11.2232 4.09361 11.2278 4.08166 11.2276C4.06971 11.2275 4.05831 11.2226 4.04996 11.2141C4.0416 11.2056 4.03698 11.1941 4.03711 11.1821C4.03724 11.1702 4.04211 11.1588 4.05065 11.1504C4.05556 11.1456 4.17121 11.0341 4.29091 11.0694C4.37276 11.0935 4.43041 11.177 4.46245 11.3178C4.55074 11.7062 4.56311 12.5332 4.56361 12.5682C4.5646 12.614 4.56703 13.0194 4.34819 13.0418C4.34672 13.042 4.34523 13.0422 4.34374 13.0422Z" fill="#232323"/>
<path d="M4.5794 13.1238C4.56656 13.1238 4.55407 13.1196 4.54383 13.1118C4.53359 13.1041 4.52618 13.0932 4.52271 13.0808C4.51924 13.0685 4.51991 13.0553 4.52462 13.0434C4.52933 13.0314 4.53782 13.0213 4.5488 13.0147C4.78892 12.8689 4.72034 12.5321 4.7198 12.5287C4.71917 12.5256 4.71876 12.5226 4.71858 12.5195C4.71858 12.5159 4.70058 12.1652 4.65981 11.5205C4.63947 11.1978 4.55694 11.0642 4.49129 11.0089C4.43765 10.9639 4.39134 10.9684 4.3895 10.9684C4.3819 10.9696 4.37415 10.9692 4.36668 10.9674C4.35922 10.9655 4.3522 10.9622 4.34601 10.9577C4.33983 10.9531 4.3346 10.9474 4.33064 10.9408C4.32667 10.9342 4.32404 10.9269 4.3229 10.9193C4.32062 10.9038 4.32454 10.8881 4.33381 10.8755C4.34308 10.8629 4.35695 10.8545 4.3724 10.852C4.38194 10.8505 4.46825 10.8396 4.56081 10.9139C4.68555 11.014 4.75832 11.2154 4.77708 11.513C4.81538 12.1205 4.83351 12.4673 4.83558 12.5093C4.84512 12.5592 4.90583 12.9357 4.60973 13.1154C4.60057 13.1209 4.59008 13.1238 4.5794 13.1238Z" fill="#232323"/>
<path d="M4.42068 11.5615C4.41936 11.5616 4.41804 11.5616 4.41672 11.5615L4.03732 11.5282C4.02559 11.527 4.01482 11.5212 4.00733 11.5121C3.99983 11.503 3.99621 11.4913 3.99724 11.4795C3.99828 11.4678 4.00388 11.4569 4.01285 11.4493C4.02181 11.4416 4.03343 11.4378 4.0452 11.4386L4.42459 11.4718C4.43653 11.4723 4.44777 11.4776 4.45584 11.4864C4.46391 11.4952 4.46815 11.5068 4.46763 11.5188C4.46711 11.5307 4.46188 11.5419 4.45307 11.55C4.44426 11.5581 4.43261 11.5623 4.42068 11.5618V11.5615Z" fill="#232323"/>
<path d="M4.48944 11.9436C4.48653 11.9436 4.48362 11.9433 4.48076 11.9427L4.04615 11.8577C4.03443 11.8554 4.02411 11.8486 4.01744 11.8387C4.01077 11.8288 4.00831 11.8167 4.0106 11.8049C4.01288 11.7932 4.01973 11.7829 4.02963 11.7762C4.03953 11.7696 4.05167 11.7671 4.06338 11.7694L4.49799 11.8544C4.50899 11.8565 4.51881 11.8626 4.52552 11.8716C4.53223 11.8806 4.53536 11.8917 4.53429 11.9029C4.53322 11.914 4.52803 11.9244 4.51974 11.9319C4.51145 11.9394 4.50064 11.9436 4.48944 11.9436Z" fill="#232323"/>
<path d="M4.4684 12.2924C4.46657 12.2924 4.46473 12.2923 4.46291 12.2921L4.07744 12.245C4.0715 12.2444 4.06574 12.2426 4.0605 12.2397C4.05526 12.2369 4.05064 12.233 4.04692 12.2283C4.04319 12.2236 4.04044 12.2183 4.03881 12.2125C4.03718 12.2068 4.03672 12.2008 4.03744 12.1948C4.03816 12.1889 4.04006 12.1832 4.04302 12.178C4.04598 12.1728 4.04995 12.1682 4.05468 12.1646C4.05942 12.161 4.06484 12.1583 4.07061 12.1568C4.07639 12.1552 4.08241 12.1549 4.08833 12.1557L4.4738 12.2028C4.48513 12.2042 4.49549 12.2099 4.50277 12.2187C4.51006 12.2275 4.51373 12.2387 4.51305 12.2501C4.51236 12.2615 4.50736 12.2722 4.49908 12.2801C4.49079 12.2879 4.47982 12.2923 4.4684 12.2924Z" fill="#232323"/>
<path d="M4.48986 12.6733H4.48698C4.05885 12.6463 4.05755 12.6388 4.05048 12.5977C4.04902 12.5893 4.04994 12.5807 4.05315 12.5729C4.05636 12.565 4.06173 12.5583 4.06863 12.5533C4.07553 12.5484 4.08369 12.5455 4.09216 12.545C4.10063 12.5445 4.10906 12.5464 4.1165 12.5505C4.15295 12.5586 4.3325 12.5733 4.49279 12.5834C4.50472 12.5838 4.51602 12.5889 4.5242 12.5976C4.53238 12.6063 4.53676 12.6178 4.53639 12.6298C4.53602 12.6417 4.53093 12.653 4.52223 12.6612C4.51352 12.6694 4.50193 12.6738 4.49 12.6734L4.48986 12.6733Z" fill="#232323"/>
<path d="M10.3064 16.229C10.2884 16.2272 10.2652 16.2266 10.244 16.2264C10.2229 16.2261 10.2005 16.2264 10.1786 16.2269C10.1348 16.2282 10.0909 16.2311 10.0469 16.2355C10.003 16.2399 9.95915 16.2461 9.91541 16.2535C9.87167 16.261 9.82833 16.271 9.78491 16.2817H9.78428C9.77854 16.2832 9.77246 16.2824 9.76725 16.2796C9.76204 16.2768 9.75808 16.2721 9.75616 16.2665C9.75424 16.2609 9.75449 16.2548 9.75688 16.2494C9.75926 16.2439 9.7636 16.2396 9.76902 16.2372C9.81092 16.2186 9.85335 16.2004 9.89682 16.185C9.94029 16.1695 9.98421 16.1547 10.0289 16.1422C10.0736 16.1297 10.1189 16.1184 10.1644 16.1089C10.1873 16.1044 10.2103 16.0999 10.2336 16.0959C10.257 16.092 10.2793 16.0886 10.3063 16.0863H10.3071C10.3165 16.0854 10.326 16.0863 10.335 16.0891C10.3441 16.0919 10.3525 16.0964 10.3598 16.1025C10.367 16.1085 10.373 16.116 10.3774 16.1243C10.3818 16.1327 10.3845 16.1419 10.3853 16.1513C10.3861 16.1607 10.385 16.1702 10.3822 16.1792C10.3793 16.1883 10.3746 16.1966 10.3685 16.2038C10.3624 16.211 10.3549 16.2169 10.3465 16.2212C10.338 16.2255 10.3289 16.2281 10.3194 16.2288C10.3151 16.2293 10.3107 16.2293 10.3064 16.229Z" fill="#232323"/>
<path d="M10.2269 16.8621C10.1065 16.8621 9.97944 16.8416 9.84665 16.8002C9.53889 16.7043 9.20648 16.4942 8.93472 16.2239C8.93041 16.2198 8.92697 16.2148 8.9246 16.2094C8.92223 16.2039 8.92097 16.198 8.9209 16.192C8.92083 16.186 8.92196 16.1801 8.9242 16.1746C8.92645 16.169 8.92978 16.164 8.93399 16.1598C8.9382 16.1555 8.94322 16.1522 8.94874 16.1499C8.95426 16.1476 8.96018 16.1465 8.96616 16.1465C8.97213 16.1465 8.97804 16.1477 8.98354 16.1501C8.98903 16.1524 8.99401 16.1558 8.99817 16.1601C9.50424 16.6634 10.2762 17.0061 10.7746 16.5699C10.7836 16.5622 10.7953 16.5583 10.8071 16.5592C10.8189 16.5601 10.8299 16.5655 10.8377 16.5744C10.8455 16.5834 10.8495 16.595 10.8488 16.6068C10.848 16.6187 10.8427 16.6297 10.8339 16.6376C10.6635 16.7869 10.4577 16.8621 10.2269 16.8621Z" fill="#232323"/>
<path d="M13.5918 10.4084C13.5853 10.4084 13.5788 10.4073 13.5727 10.4052C12.9679 10.1976 12.945 9.3179 12.9443 9.28055C12.9441 9.26497 12.95 9.24991 12.9608 9.23869C12.9716 9.22747 12.9865 9.221 13.002 9.2207H13.0032C13.0186 9.22071 13.0333 9.22676 13.0443 9.23754C13.0553 9.24833 13.0617 9.26299 13.062 9.27839C13.062 9.28672 13.0842 10.1131 13.611 10.2939C13.6242 10.2984 13.6353 10.3075 13.6425 10.3194C13.6496 10.3314 13.6523 10.3455 13.65 10.3593C13.6477 10.373 13.6406 10.3855 13.6299 10.3945C13.6193 10.4035 13.6058 10.4084 13.5919 10.4084H13.5918Z" fill="#232323"/>
<path d="M11.9531 10.9816L11.5532 10.9339C11.5474 10.9333 11.5421 10.9305 11.5382 10.9262C11.5344 10.9218 11.5322 10.9162 11.5322 10.9104C11.5322 10.9046 11.5344 10.899 11.5382 10.8947C11.5421 10.8903 11.5474 10.8876 11.5532 10.8869L11.9531 10.8392C11.9718 10.8374 11.9905 10.8429 12.0051 10.8547C12.0198 10.8664 12.0292 10.8835 12.0314 10.9021C12.0336 10.9208 12.0285 10.9395 12.017 10.9544C12.0055 10.9693 11.9887 10.9791 11.9701 10.9816C11.9645 10.9823 11.9588 10.9823 11.9531 10.9816Z" fill="#232323"/>
<path d="M7.12141 8.55116C7.10844 8.55119 7.09583 8.54692 7.08553 8.53903C7.07524 8.53113 7.06784 8.52006 7.06449 8.50753C7.06114 8.49499 7.06203 8.48171 7.06702 8.46973C7.07201 8.45776 7.08082 8.44777 7.09207 8.44132C7.63729 8.12816 7.84488 7.6112 7.8469 7.60603C7.85272 7.5917 7.86394 7.58024 7.87814 7.57413C7.89234 7.56802 7.90837 7.56774 7.92277 7.57336C7.93718 7.57898 7.94879 7.59004 7.9551 7.60416C7.9614 7.61827 7.9619 7.6343 7.95648 7.64878C7.94748 7.6715 7.73319 8.20871 7.15066 8.54333C7.14177 8.54847 7.13168 8.55117 7.12141 8.55116Z" fill="#232323"/>
<path d="M8.44756 9.47623C8.45006 9.46583 8.45332 9.45563 8.45733 9.44572L8.45881 9.44212L8.46007 9.44L8.46264 9.4355L8.46777 9.42704C8.47389 9.41705 8.48075 9.40753 8.48829 9.39856C8.50179 9.38177 8.51529 9.36706 8.52906 9.35297C8.55633 9.32458 8.58414 9.29852 8.61222 9.27292C8.66842 9.22175 8.72557 9.1732 8.78398 9.1255C8.7885 9.12178 8.79422 9.11988 8.80006 9.12014C8.8059 9.12041 8.81143 9.12283 8.81559 9.12694C8.81975 9.13104 8.82224 9.13655 8.82257 9.14238C8.82291 9.14821 8.82107 9.15397 8.81742 9.15853C8.77125 9.21653 8.72589 9.27575 8.68318 9.33565C8.6619 9.36553 8.64106 9.39577 8.62252 9.42592C8.61307 9.4409 8.60452 9.45611 8.59737 9.47024C8.59404 9.47639 8.59129 9.48284 8.58918 9.4895L8.58792 9.49342L8.58724 9.49531L8.58688 9.49625C8.58707 9.49622 8.58724 9.49612 8.58738 9.49598C8.588 9.49558 8.5885 9.49502 8.58882 9.49435C8.58913 9.49368 8.58926 9.49294 8.58918 9.4922C8.5881 9.50149 8.5852 9.51047 8.58065 9.51864C8.5761 9.52681 8.56999 9.534 8.56266 9.5398C8.55533 9.5456 8.54693 9.54991 8.53793 9.55247C8.52894 9.55502 8.51953 9.55578 8.51025 9.55471C8.50096 9.55363 8.49198 9.55073 8.48381 9.54618C8.47564 9.54163 8.46845 9.53552 8.46265 9.52819C8.45684 9.52086 8.45254 9.51246 8.44998 9.50346C8.44742 9.49447 8.44666 9.48506 8.44774 9.47578L8.44756 9.47623Z" fill="#232323"/>
<path d="M6.49013 7.83691L5.2871 8.40814L4.58496 10.3735H5.18517L5.49887 10.811L6.83208 9.86376L6.91686 8.14584L6.49013 7.83691Z" fill="#FF1717"/>
<g opacity="0.6">
<path opacity="0.6" d="M4.78884 10.3733L5.42887 8.43359H5.30732L4.60938 10.3733" fill="#F5F5F5"/>
</g>
<path d="M5.49886 10.8823C5.48754 10.8823 5.47637 10.8796 5.4663 10.8744C5.45622 10.8692 5.44753 10.8617 5.44095 10.8525L5.14845 10.4448H4.58491C4.5735 10.4448 4.56225 10.4421 4.55212 10.4368C4.54198 10.4316 4.53326 10.424 4.52668 10.4146C4.52011 10.4053 4.51587 10.3945 4.51433 10.3832C4.51278 10.3719 4.51398 10.3604 4.51782 10.3497L5.21982 8.38424C5.22616 8.36643 5.2393 8.35187 5.25636 8.34374L6.45952 7.77251C6.47105 7.76703 6.48385 7.76476 6.49656 7.76592C6.50927 7.76709 6.52144 7.77164 6.53179 7.77912L6.95852 8.08805C6.96813 8.09499 6.97584 8.10422 6.98097 8.1149C6.9861 8.12558 6.98849 8.13737 6.98791 8.1492L6.90313 9.86717C6.9026 9.87793 6.89964 9.88843 6.89446 9.89787C6.88928 9.90732 6.88203 9.91547 6.87325 9.92171L5.54017 10.8691C5.52812 10.8777 5.51367 10.8823 5.49886 10.8823ZM4.68593 10.3024H5.18512C5.19643 10.3024 5.20758 10.3051 5.21764 10.3103C5.22771 10.3154 5.2364 10.3229 5.24299 10.3321L5.51533 10.712L6.7626 9.82581L6.8436 8.18093L6.48234 7.91943L5.34424 8.45993L4.68593 10.3024Z" fill="#232323"/>
<path d="M5.93572 8.8718C5.9313 8.8718 5.92689 8.8713 5.92258 8.87031C5.91469 8.86852 5.90725 8.8651 5.90075 8.86029C5.89424 8.85547 5.8888 8.84935 5.88478 8.84232L5.71378 8.54573L5.27679 8.46612C5.26144 8.46333 5.24783 8.45454 5.23896 8.44171C5.23008 8.42888 5.22667 8.41305 5.22947 8.3977C5.23227 8.38235 5.24105 8.36875 5.25388 8.35987C5.26671 8.351 5.28254 8.34759 5.29789 8.35038L5.76166 8.43489C5.77008 8.43641 5.77807 8.43974 5.78506 8.44466C5.79206 8.44958 5.79789 8.45597 5.80216 8.46338L5.95516 8.72888L6.88423 8.09744C6.89062 8.093 6.89782 8.08987 6.90542 8.08823C6.91302 8.0866 6.92088 8.08648 6.92852 8.0879C6.93617 8.08932 6.94346 8.09223 6.94997 8.09649C6.95648 8.10074 6.96209 8.10624 6.96646 8.11267C6.97083 8.11911 6.97388 8.12634 6.97543 8.13396C6.97699 8.14158 6.97702 8.14944 6.97552 8.15707C6.97402 8.1647 6.97102 8.17196 6.9667 8.17842C6.96238 8.18489 6.95682 8.19043 6.95034 8.19473L5.9688 8.86154C5.95906 8.86822 5.94753 8.8718 5.93572 8.8718Z" fill="#232323"/>
<path d="M5.49938 10.87C5.49514 10.87 5.49092 10.8695 5.48678 10.8686C5.47923 10.8669 5.47207 10.8638 5.46572 10.8594C5.45937 10.855 5.45395 10.8494 5.44977 10.8429C5.44559 10.8364 5.44273 10.8291 5.44136 10.8215C5.43999 10.8139 5.44013 10.8061 5.44178 10.7985L5.87828 8.80055C5.87977 8.79285 5.88279 8.78553 5.88715 8.77902C5.89152 8.7725 5.89714 8.76692 5.90369 8.76261C5.91024 8.7583 5.91758 8.75535 5.92529 8.75392C5.933 8.75249 5.94092 8.75261 5.94858 8.75429C5.95624 8.75596 5.96349 8.75915 5.9699 8.76367C5.97631 8.76818 5.98175 8.77393 5.9859 8.78058C5.99006 8.78723 5.99284 8.79465 5.99409 8.80239C5.99533 8.81013 5.99502 8.81804 5.99317 8.82566L5.55667 10.8237C5.5538 10.8367 5.54657 10.8485 5.53616 10.8569C5.52574 10.8653 5.51277 10.8699 5.49938 10.87Z" fill="#232323"/>
<path d="M5.64881 8.77431L5.69453 8.49882C5.6958 8.49114 5.69858 8.48378 5.70269 8.47717C5.70681 8.47056 5.71219 8.46483 5.71852 8.46029C5.72485 8.45576 5.73201 8.45252 5.7396 8.45076C5.74718 8.449 5.75504 8.44874 5.76272 8.45002C5.77041 8.45129 5.77776 8.45406 5.78437 8.45818C5.79098 8.4623 5.79672 8.46768 5.80125 8.47401C5.80578 8.48034 5.80902 8.4875 5.81079 8.49509C5.81255 8.50267 5.8128 8.51053 5.81153 8.51821C5.81063 8.52317 5.80911 8.52799 5.80703 8.53257L5.69372 8.78781C5.69134 8.79302 5.68715 8.79719 5.68193 8.79955C5.67672 8.80191 5.67082 8.8023 5.66534 8.80066C5.65985 8.79901 5.65515 8.79544 5.65209 8.7906C5.64904 8.78575 5.64784 8.77997 5.64872 8.77431H5.64881Z" fill="#232323"/>
<path d="M5.12848 10.3602L5.40568 9.36469C5.40715 9.35862 5.41096 9.35338 5.41629 9.35013C5.42162 9.34687 5.42803 9.34587 5.4341 9.34734C5.44016 9.34881 5.4454 9.35263 5.44865 9.35796C5.45191 9.36329 5.45291 9.36969 5.45144 9.37576L5.24278 10.3879C5.24139 10.3956 5.23847 10.403 5.23419 10.4096C5.2299 10.4162 5.22434 10.4219 5.21783 10.4263C5.21132 10.4307 5.20399 10.4337 5.19628 10.4353C5.18857 10.4368 5.18063 10.4368 5.17293 10.4352C5.16523 10.4336 5.15793 10.4305 5.15145 10.426C5.14498 10.4216 5.13946 10.4158 5.13523 10.4092C5.131 10.4026 5.12814 10.3952 5.12681 10.3874C5.12549 10.3797 5.12574 10.3717 5.12753 10.3641C5.12776 10.3628 5.12812 10.3614 5.12848 10.3602Z" fill="#232323"/>
<path d="M6.34988 8.59041C6.34117 8.59038 6.33257 8.58843 6.3247 8.58469C6.31683 8.58095 6.30989 8.57551 6.30437 8.56877C6.29886 8.56203 6.2949 8.55415 6.29278 8.5457C6.29067 8.53725 6.29045 8.52844 6.29214 8.51989L6.43259 7.8255C6.43568 7.8102 6.44472 7.79676 6.45772 7.78814C6.47072 7.77951 6.48661 7.7764 6.50191 7.77949C6.5172 7.78258 6.53064 7.79162 6.53927 7.80462C6.5479 7.81762 6.55101 7.83351 6.54792 7.84881L6.40748 8.5432C6.40478 8.5565 6.39758 8.56846 6.38708 8.57706C6.37659 8.58566 6.36345 8.59038 6.34988 8.59041Z" fill="#232323"/>
<path d="M4.66087 10.2329C4.6501 10.2329 4.63947 10.2305 4.62977 10.2258C4.62007 10.2211 4.61157 10.2143 4.60489 10.2059L4.31203 9.83353H3.6719C3.65923 9.83355 3.64678 9.83018 3.63584 9.82378C3.62491 9.81738 3.61587 9.80818 3.60968 9.79712C3.60348 9.78606 3.60035 9.77356 3.6006 9.76088C3.60085 9.74821 3.60448 9.73584 3.61111 9.72504L4.72778 7.89687C4.73646 7.88262 4.74987 7.87188 4.76567 7.86654L6.14137 7.40025C6.15513 7.39559 6.16999 7.39525 6.18395 7.39927C6.19791 7.40329 6.21031 7.41148 6.21949 7.42275L6.51905 7.79139C6.52496 7.79864 6.52938 7.80699 6.53207 7.81596C6.53475 7.82493 6.53564 7.83433 6.53469 7.84364C6.53373 7.85295 6.53096 7.86198 6.52651 7.87022C6.52207 7.87846 6.51605 7.88574 6.50879 7.89165C6.50154 7.89756 6.49319 7.90198 6.48422 7.90466C6.47525 7.90734 6.46585 7.90823 6.45654 7.90728C6.44723 7.90633 6.4382 7.90355 6.42996 7.89911C6.42172 7.89467 6.41444 7.88864 6.40853 7.88139L6.14015 7.55118L4.83587 7.99326L3.79903 9.69111H4.34636C4.35712 9.6911 4.36774 9.69352 4.37743 9.69819C4.38711 9.70287 4.39562 9.70968 4.4023 9.71811L4.71676 10.1174C4.72503 10.1279 4.73017 10.1405 4.73161 10.1538C4.73305 10.1671 4.73072 10.1805 4.72489 10.1926C4.71906 10.2046 4.70996 10.2147 4.69864 10.2218C4.68732 10.2289 4.67423 10.2327 4.66087 10.2327V10.2329Z" fill="#232323"/>
<path d="M5.33674 8.45612C5.31958 8.45607 5.30301 8.44982 5.29009 8.43852C5.27717 8.42723 5.26876 8.41165 5.26641 8.39465L5.22424 8.08802L4.79485 7.99748C4.78569 7.99555 4.777 7.99183 4.76928 7.98654C4.76156 7.98125 4.75495 7.97449 4.74984 7.96665C4.74473 7.9588 4.74121 7.95003 4.73949 7.94083C4.73777 7.93163 4.73788 7.92218 4.73982 7.91302C4.74175 7.90386 4.74547 7.89517 4.75076 7.88744C4.75605 7.87972 4.76281 7.87312 4.77065 7.86801C4.77849 7.86289 4.78727 7.85938 4.79647 7.85766C4.80567 7.85594 4.81512 7.85605 4.82428 7.85798L5.30241 7.95905C5.31675 7.96209 5.32981 7.96947 5.3398 7.9802C5.34979 7.99092 5.35624 8.00447 5.35825 8.01899L5.40726 8.37521C5.40853 8.38447 5.40797 8.3939 5.4056 8.40294C5.40323 8.41199 5.39911 8.42048 5.39346 8.42793C5.38781 8.43538 5.38075 8.44165 5.37267 8.44637C5.3646 8.45109 5.35568 8.45417 5.34642 8.45545C5.34321 8.45591 5.33998 8.45613 5.33674 8.45612Z" fill="#232323"/>
<path d="M4.29262 9.73743L4.84999 8.63848C4.85266 8.63284 4.85746 8.62848 4.86334 8.62638C4.86922 8.62427 4.87569 8.62459 4.88134 8.62726C4.88698 8.62992 4.89133 8.63472 4.89344 8.6406C4.89555 8.64648 4.89523 8.65295 4.89256 8.6586L4.39905 9.7876C4.3928 9.80193 4.38112 9.81318 4.36657 9.81889C4.35203 9.8246 4.33581 9.82429 4.32149 9.81805C4.30717 9.8118 4.29592 9.80012 4.29021 9.78557C4.2845 9.77103 4.2848 9.75481 4.29105 9.74049L4.29262 9.73743Z" fill="#232323"/>
<path d="M6.01979 8.11874C6.01509 8.11874 6.01041 8.11818 6.00584 8.11708C5.99069 8.11338 5.97763 8.10382 5.96952 8.0905C5.96141 8.07717 5.95892 8.06118 5.9626 8.04602L6.1066 7.45409C6.11028 7.43894 6.11984 7.42586 6.13317 7.41775C6.14649 7.40964 6.16249 7.40716 6.17765 7.41085C6.19281 7.41453 6.20588 7.42409 6.21399 7.43742C6.2221 7.45074 6.22458 7.46675 6.2209 7.4819L6.0769 8.07379C6.07379 8.0866 6.06647 8.09799 6.05612 8.10614C6.04576 8.11429 6.03297 8.11873 6.01979 8.11874Z" fill="#232323"/>
<path d="M5.33614 7.79616C5.32684 7.79617 5.31776 7.79342 5.31002 7.78827C5.30228 7.78312 5.29625 7.77579 5.29268 7.76721C5.2891 7.75863 5.28815 7.74918 5.28995 7.74006C5.29174 7.73094 5.29619 7.72256 5.30275 7.71597L6.56518 6.44359C6.56953 6.43921 6.57471 6.43572 6.5804 6.43334C6.5861 6.43095 6.59222 6.42971 6.59839 6.42969C6.60457 6.42966 6.61069 6.43086 6.61641 6.4332C6.62213 6.43554 6.62733 6.43899 6.63171 6.44334C6.6361 6.4477 6.63958 6.45287 6.64197 6.45857C6.64435 6.46427 6.64559 6.47038 6.64561 6.47656C6.64564 6.48274 6.64444 6.48886 6.6421 6.49458C6.63976 6.50029 6.63631 6.50549 6.63196 6.50988L5.36953 7.78225C5.36516 7.78667 5.35996 7.79017 5.35423 7.79256C5.3485 7.79494 5.34235 7.79617 5.33614 7.79616Z" fill="#232323"/>
<path d="M6.37209 8.56346C6.36907 8.56343 6.36606 8.56313 6.36309 8.56256C6.35703 8.56135 6.35126 8.55897 6.34612 8.55553C6.34098 8.5521 6.33657 8.54769 6.33313 8.54255C6.3297 8.53741 6.32731 8.53164 6.3261 8.52558C6.32489 8.51951 6.32489 8.51327 6.3261 8.50721L6.70743 6.58476C6.70986 6.57253 6.71705 6.56175 6.72742 6.55482C6.73779 6.54788 6.7505 6.54535 6.76274 6.54778C6.77497 6.5502 6.78575 6.55739 6.79268 6.56777C6.79962 6.57814 6.80215 6.59084 6.79972 6.60308L6.41821 8.52566C6.41607 8.53631 6.4103 8.5459 6.40189 8.55279C6.39349 8.55967 6.38296 8.56345 6.37209 8.56346Z" fill="#232323"/>
<path d="M14.9025 9.8877L14.5966 10.123L14.3143 9.8877L14.0163 11.3464L13.8438 13.3069L14.3731 13.1266L14.7848 13.3069L14.9025 9.8877Z" fill="#9C50FF"/>
<path d="M14.8652 10.9517L15.241 13.034L15.6939 12.534L16.2997 12.5929L15.3881 9.49316L15.1822 9.76964L14.9019 9.76955L14.8652 10.9517Z" fill="#3185FF"/>
<path d="M5.88395 8.1718C5.87596 8.17181 5.86809 8.16978 5.8611 8.1659C5.85411 8.16202 5.84822 8.15642 5.844 8.14963C5.83978 8.14284 5.83736 8.13508 5.83697 8.12709C5.83658 8.11911 5.83824 8.11115 5.84179 8.10399L6.62848 6.50559C6.63419 6.49474 6.64392 6.48656 6.65558 6.48277C6.66724 6.47898 6.67991 6.4799 6.69091 6.48531C6.70191 6.49073 6.71036 6.50022 6.71447 6.51178C6.71857 6.52333 6.71801 6.53602 6.7129 6.54717L5.92621 8.14552C5.92233 8.15342 5.91631 8.16006 5.90884 8.16471C5.90137 8.16935 5.89275 8.17181 5.88395 8.1718Z" fill="#232323"/>
<path d="M6.24921 7.99864C6.24174 7.99864 6.23437 7.99686 6.22773 7.99345C6.22108 7.99004 6.21534 7.9851 6.21099 7.97903C6.20663 7.97296 6.20378 7.96594 6.20267 7.95856C6.20156 7.95117 6.20223 7.94362 6.20461 7.93654L6.67311 6.54771C6.67728 6.53612 6.68583 6.52664 6.69692 6.52128C6.70801 6.51593 6.72075 6.51513 6.73242 6.51907C6.74409 6.523 6.75375 6.53135 6.75934 6.54232C6.76492 6.5533 6.76598 6.56602 6.7623 6.57777L6.2938 7.9666C6.29066 7.97594 6.28466 7.98405 6.27666 7.9898C6.26866 7.99555 6.25906 7.99864 6.24921 7.99864Z" fill="#232323"/>
<path d="M14.2768 10.0698L14.0161 10.0791L13.8043 9.96582L13.224 11.0873L12.7637 12.9616L13.2004 12.8675L13.5202 13.1577L13.9397 12.2132L14.0321 11.2676" fill="#F2C819"/>
<path d="M13.8436 13.3782C13.8338 13.3782 13.824 13.3761 13.815 13.3721C13.8059 13.3681 13.7978 13.3623 13.7912 13.355C13.7845 13.3478 13.7794 13.3392 13.7762 13.3298C13.7731 13.3205 13.7719 13.3106 13.7727 13.3007L13.9453 11.3401C13.9455 11.3374 13.9459 11.3348 13.9464 11.3321L14.2445 9.87344C14.2469 9.86137 14.2525 9.85014 14.2606 9.84085C14.2687 9.83157 14.279 9.82454 14.2906 9.82046C14.3023 9.81638 14.3147 9.81538 14.3269 9.81757C14.339 9.81976 14.3503 9.82505 14.3598 9.83294L14.5983 10.0317L14.859 9.83118C14.8697 9.82294 14.8825 9.81792 14.896 9.8167C14.9094 9.81548 14.9229 9.81811 14.935 9.82428C14.947 9.83046 14.957 9.83993 14.9638 9.85158C14.9706 9.86323 14.974 9.87659 14.9736 9.89009L14.8558 13.3094C14.8554 13.3211 14.8522 13.3324 14.8464 13.3425C14.8407 13.3526 14.8325 13.3612 14.8227 13.3674C14.8128 13.3736 14.8016 13.3773 14.79 13.3782C14.7784 13.3791 14.7667 13.3771 14.7561 13.3724L14.3698 13.2029L13.8666 13.3743C13.8592 13.3769 13.8515 13.3782 13.8436 13.3782ZM14.0866 11.3566L13.9243 13.2043L14.3502 13.0592C14.367 13.0535 14.3854 13.0542 14.4017 13.0614L14.7172 13.1998L14.826 10.0363L14.64 10.1794C14.6271 10.1893 14.6113 10.1945 14.5952 10.1942C14.579 10.1939 14.5634 10.188 14.551 10.1777L14.3602 10.0187L14.0866 11.3566Z" fill="#232323"/>
<path d="M14.8496 11.4727C14.8358 11.4727 14.8223 11.4687 14.8108 11.4612L14.4345 11.2157L14.0475 11.4098C14.0306 11.4182 14.011 11.4197 13.9931 11.4137C13.9752 11.4078 13.9604 11.3949 13.9519 11.3781C13.9434 11.3612 13.942 11.3416 13.948 11.3237C13.9539 11.3058 13.9667 11.2909 13.9836 11.2825L14.4071 11.0701C14.4182 11.0645 14.4306 11.0619 14.4431 11.0626C14.4555 11.0633 14.4675 11.0673 14.4779 11.0741L14.8886 11.3419C14.9014 11.3503 14.9112 11.3626 14.9165 11.377C14.9218 11.3914 14.9222 11.4071 14.9179 11.4218C14.9135 11.4365 14.9045 11.4494 14.8922 11.4586C14.8799 11.4678 14.8649 11.4727 14.8496 11.4727H14.8496Z" fill="#232323"/>
<path d="M14.3061 13.1039L14.3272 12.8575L14.3484 12.5915L14.3889 12.059C14.3893 12.0529 14.392 12.0473 14.3965 12.0432C14.401 12.0391 14.4069 12.0369 14.4129 12.0371C14.419 12.0373 14.4247 12.0398 14.4289 12.0442C14.4331 12.0485 14.4355 12.0543 14.4355 12.0604L14.4422 12.5947L14.4446 12.862L14.4452 12.9958V13.0633L14.4448 13.0976L14.4446 13.115C14.4438 13.1263 14.4423 13.1376 14.4401 13.1488C14.4366 13.166 14.4266 13.1813 14.4123 13.1915C14.3979 13.2016 14.3801 13.2059 14.3627 13.2034C14.3453 13.2008 14.3295 13.1917 14.3186 13.1779C14.3076 13.1641 14.3024 13.1467 14.304 13.1291L14.3061 13.1039Z" fill="#232323"/>
<path d="M15.241 13.1051C15.2243 13.1051 15.2081 13.0993 15.1953 13.0886C15.1825 13.0779 15.1739 13.063 15.1709 13.0466L14.7951 10.9643C14.7942 10.9594 14.7938 10.9544 14.794 10.9494L14.8306 9.76733C14.8312 9.74883 14.8389 9.73128 14.8522 9.7184C14.8655 9.70551 14.8833 9.69831 14.9018 9.69831H15.1464L15.3309 9.45053C15.3388 9.43992 15.3495 9.43173 15.3618 9.42686C15.3741 9.422 15.3875 9.42066 15.4006 9.42299C15.4136 9.42533 15.4257 9.43125 15.4356 9.44009C15.4454 9.44893 15.4526 9.46034 15.4563 9.47303L16.368 12.5727C16.3713 12.5839 16.3718 12.5957 16.3695 12.6071C16.3671 12.6186 16.362 12.6292 16.3546 12.6382C16.3472 12.6472 16.3376 12.6542 16.3269 12.6586C16.3161 12.6631 16.3044 12.6648 16.2928 12.6637L15.7226 12.6083L15.2937 13.0818C15.2871 13.0891 15.2789 13.095 15.2698 13.099C15.2607 13.103 15.2509 13.1051 15.241 13.1051ZM14.9366 10.9463L15.2853 12.8789L15.6411 12.4861C15.6485 12.4779 15.6578 12.4715 15.6682 12.4675C15.6785 12.4635 15.6897 12.462 15.7007 12.4631L16.2016 12.5117L15.3599 9.65002L15.2393 9.81202C15.2326 9.82092 15.224 9.82815 15.2141 9.83312C15.2042 9.8381 15.1932 9.84069 15.1821 9.84069H14.9706L14.9366 10.9463Z" fill="#232323"/>
<path d="M14.8651 11.0233C14.8525 11.0233 14.8402 11.0199 14.8294 11.0136C14.8185 11.0073 14.8095 10.9983 14.8033 10.9874C14.7971 10.9765 14.7939 10.9641 14.7939 10.9516C14.794 10.939 14.7974 10.9267 14.8038 10.9159L15.1443 10.3378C15.1516 10.3254 15.1625 10.3155 15.1756 10.3094C15.1887 10.3033 15.2033 10.3013 15.2175 10.3037L15.6819 10.3822C15.7002 10.3857 15.7163 10.3963 15.7269 10.4115C15.7376 10.4268 15.7418 10.4457 15.7387 10.464C15.7356 10.4824 15.7254 10.4988 15.7104 10.5097C15.6953 10.5207 15.6766 10.5253 15.6582 10.5227L15.2422 10.4523L14.9266 10.9882C14.9203 10.9989 14.9113 11.0077 14.9005 11.0139C14.8897 11.0201 14.8775 11.0233 14.8651 11.0233Z" fill="#232323"/>
<path d="M15.6945 12.5926C15.6812 12.5926 15.6683 12.5881 15.6579 12.5798C15.6475 12.5716 15.6402 12.56 15.6372 12.5471L15.1384 10.4046C15.1365 10.3971 15.1362 10.3892 15.1375 10.3816C15.1387 10.3739 15.1414 10.3666 15.1455 10.36C15.1496 10.3533 15.1549 10.3476 15.1612 10.3431C15.1675 10.3386 15.1747 10.3353 15.1822 10.3336C15.1898 10.3318 15.1976 10.3316 15.2053 10.3328C15.2129 10.3341 15.2202 10.3369 15.2268 10.341C15.2334 10.3452 15.2391 10.3506 15.2436 10.3569C15.248 10.3632 15.2512 10.3704 15.2529 10.378L15.7518 12.5204C15.7535 12.5279 15.7538 12.5357 15.7525 12.5433C15.7513 12.5509 15.7485 12.5582 15.7445 12.5648C15.7404 12.5713 15.7351 12.577 15.7288 12.5815C15.7225 12.586 15.7154 12.5892 15.7079 12.591C15.7035 12.592 15.699 12.5926 15.6945 12.5926Z" fill="#232323"/>
<path d="M13.52 13.2288C13.5023 13.2288 13.4852 13.2222 13.4721 13.2103L13.1796 12.9448L12.7786 13.0312C12.7668 13.0338 12.7545 13.0333 12.743 13.0298C12.7314 13.0263 12.7209 13.0199 12.7125 13.0113C12.7041 13.0026 12.698 12.9919 12.6949 12.9803C12.6917 12.9686 12.6916 12.9564 12.6944 12.9446L13.1544 11.0702C13.1557 11.0647 13.1577 11.0595 13.1603 11.0545L13.7408 9.93302C13.7452 9.92464 13.7511 9.91721 13.7583 9.91115C13.7656 9.90509 13.7739 9.90053 13.783 9.89773C13.792 9.89493 13.8014 9.89396 13.8108 9.89485C13.8202 9.89575 13.8293 9.89851 13.8377 9.90296L14.0325 10.0072L14.274 9.99854H14.2766C14.2951 9.99878 14.3128 10.0062 14.3259 10.0193C14.339 10.0323 14.3466 10.05 14.3469 10.0685C14.3472 10.087 14.3403 10.1049 14.3277 10.1184C14.315 10.132 14.2976 10.14 14.2791 10.1409L14.0181 10.1502C14.0056 10.1506 13.9932 10.1477 13.9821 10.1419L13.834 10.0627L13.2908 11.1125L12.8596 12.868L13.1851 12.7979C13.1962 12.7954 13.2077 12.7957 13.2186 12.7986C13.2296 12.8016 13.2397 12.8071 13.2481 12.8147L13.4949 13.0387L13.8698 12.1948L13.961 11.2606C13.9633 11.2422 13.9727 11.2253 13.9872 11.2137C14.0017 11.2021 14.0201 11.1966 14.0386 11.1984C14.0571 11.2002 14.0742 11.2092 14.0862 11.2234C14.0982 11.2376 14.1041 11.2559 14.1028 11.2745L14.0104 12.2201C14.0097 12.2277 14.0077 12.2351 14.0046 12.2421L13.5851 13.1866C13.5805 13.1969 13.5736 13.2059 13.5648 13.213C13.5561 13.2201 13.5458 13.225 13.5347 13.2273C13.5299 13.2283 13.5249 13.2288 13.52 13.2288Z" fill="#232323"/>
<path d="M13.5202 13.2166C13.5178 13.2166 13.5154 13.2165 13.513 13.2162C13.5054 13.2153 13.498 13.2128 13.4912 13.209C13.4845 13.2052 13.4786 13.2001 13.4738 13.1941C13.4691 13.188 13.4655 13.181 13.4635 13.1736C13.4614 13.1662 13.4608 13.1584 13.4617 13.1507L13.6881 11.2832L13.5643 11.1102L13.2301 11.1458C13.2224 11.1466 13.2146 11.1459 13.2072 11.1437C13.1998 11.1415 13.1929 11.1379 13.1869 11.133C13.1809 11.1282 13.1759 11.1222 13.1722 11.1154C13.1685 11.1086 13.1662 11.1012 13.1654 11.0935C13.1646 11.0858 13.1653 11.078 13.1674 11.0706C13.1696 11.0632 13.1733 11.0563 13.1781 11.0503C13.183 11.0443 13.189 11.0393 13.1957 11.0356C13.2025 11.0319 13.21 11.0296 13.2177 11.0288L13.5859 10.9896C13.5963 10.9885 13.6067 10.9902 13.6162 10.9944C13.6257 10.9987 13.6339 11.0054 13.6399 11.0138L13.7971 11.2333C13.8056 11.2453 13.8094 11.26 13.8077 11.2746L13.5785 13.1646C13.5768 13.1789 13.57 13.1921 13.5592 13.2017C13.5485 13.2113 13.5346 13.2166 13.5202 13.2166Z" fill="#232323"/>
<path d="M13.7493 11.3261C13.7396 11.3261 13.7301 11.3238 13.7216 11.3192C13.7131 11.3147 13.7058 11.3082 13.7004 11.3001C13.6951 11.2921 13.6917 11.2829 13.6907 11.2733C13.6898 11.2637 13.6911 11.254 13.6948 11.2451L14.1693 10.0728C14.1721 10.0655 14.1763 10.0589 14.1817 10.0532C14.1871 10.0476 14.1936 10.0431 14.2008 10.04C14.2079 10.0369 14.2156 10.0353 14.2234 10.0352C14.2312 10.0351 14.239 10.0365 14.2462 10.0394C14.2534 10.0424 14.26 10.0467 14.2655 10.0522C14.2711 10.0577 14.2755 10.0642 14.2785 10.0714C14.2815 10.0786 14.283 10.0864 14.283 10.0942C14.2829 10.102 14.2813 10.1097 14.2783 10.1169L13.8038 11.2892C13.7995 11.3001 13.7919 11.3094 13.7822 11.316C13.7725 11.3226 13.761 11.3261 13.7493 11.3261Z" fill="#232323"/>
<path d="M13.1416 12.8679C13.1423 12.8607 13.1435 12.8521 13.1446 12.8462L13.1473 12.8334L13.1526 12.8079L13.1634 12.7575L13.1853 12.6571L13.2294 12.4567L13.3184 12.0562C13.3198 12.0503 13.3234 12.0452 13.3284 12.0419C13.3334 12.0386 13.3395 12.0374 13.3455 12.0384C13.3514 12.0395 13.3567 12.0428 13.3603 12.0476C13.3638 12.0524 13.3655 12.0584 13.3648 12.0644L13.3108 12.4712L13.284 12.6745L13.2595 12.868L13.2578 12.8811C13.2551 12.8957 13.247 12.9087 13.2351 12.9175C13.2232 12.9263 13.2084 12.9303 13.1937 12.9286C13.179 12.9269 13.1655 12.9198 13.1558 12.9085C13.1462 12.8973 13.1412 12.8828 13.1418 12.868L13.1416 12.8679Z" fill="#232323"/>
<path d="M13.6372 11.069L13.5306 11.4155C13.5289 11.4211 13.5251 11.4259 13.5201 11.4289C13.515 11.4319 13.509 11.4329 13.5033 11.4317C13.4975 11.4305 13.4924 11.4272 13.4889 11.4225C13.4855 11.4178 13.4839 11.4119 13.4845 11.4061L13.5219 11.0456C13.5239 11.0303 13.5318 11.0164 13.5439 11.0069C13.556 10.9973 13.5714 10.9929 13.5867 10.9945C13.602 10.9961 13.6161 11.0036 13.626 11.0154C13.6359 11.0273 13.6407 11.0425 13.6395 11.0579C13.6391 11.0616 13.6383 11.0654 13.6372 11.069Z" fill="#232323"/>
<path d="M14.0158 10.6559C14.0083 10.6559 14.001 10.6541 13.9943 10.6507C13.9876 10.6473 13.9819 10.6423 13.9775 10.6362C13.9732 10.6301 13.9704 10.623 13.9693 10.6156C13.9682 10.6082 13.9689 10.6006 13.9714 10.5936L14.5031 9.04777L13.6807 10.3062C13.6737 10.3164 13.6631 10.3234 13.651 10.3258C13.6389 10.3282 13.6264 10.3258 13.6161 10.3191C13.6057 10.3123 13.5985 10.3018 13.5958 10.2898C13.5932 10.2778 13.5954 10.2652 13.6019 10.2547L14.6313 8.6794C14.6376 8.66983 14.6472 8.66289 14.6582 8.65987C14.6693 8.65685 14.681 8.65796 14.6913 8.66299C14.7016 8.66803 14.7097 8.67664 14.7141 8.68721C14.7185 8.69778 14.7189 8.7096 14.7152 8.72044L14.0603 10.6239C14.0572 10.6333 14.0512 10.6414 14.0432 10.6471C14.0353 10.6528 14.0257 10.6559 14.0158 10.6559Z" fill="#232323"/>
<path d="M14.8499 10.7657C14.8378 10.7657 14.8262 10.761 14.8174 10.7527C14.8087 10.7443 14.8035 10.7328 14.803 10.7207L14.7178 8.70722C14.7174 8.69764 14.72 8.68817 14.7251 8.68007C14.7302 8.67197 14.7377 8.66564 14.7465 8.66191C14.7554 8.65818 14.7651 8.65724 14.7745 8.65921C14.7839 8.66118 14.7925 8.66596 14.799 8.67293C14.863 8.74043 15.4847 9.78146 15.5554 9.8999C15.5585 9.90522 15.5606 9.91111 15.5615 9.91723C15.5624 9.92336 15.5621 9.9296 15.5605 9.9356C15.559 9.9416 15.5563 9.94724 15.5526 9.9522C15.5489 9.95717 15.5443 9.96135 15.539 9.96452C15.5337 9.96768 15.5278 9.96977 15.5216 9.97066C15.5155 9.97156 15.5093 9.97123 15.5033 9.96971C15.4973 9.96819 15.4916 9.9655 15.4867 9.9618C15.4817 9.9581 15.4775 9.95346 15.4744 9.94814C15.2719 9.60906 14.9692 9.10731 14.8187 8.86949L14.8968 10.7168C14.8973 10.7292 14.8928 10.7414 14.8844 10.7506C14.876 10.7597 14.8642 10.7652 14.8518 10.7657H14.8499Z" fill="#232323"/>
<g opacity="0.3">
<path opacity="0.3" d="M13.5665 11.1196L13.3214 12.1711L13.2236 12.9075L13.5412 13.1575L13.9147 12.2282L13.9863 11.2842L14.1559 10.3916L14.2349 10.0712L14.05 10.0951L13.8205 10.0059L13.2489 11.0845L13.5791 11.0493L13.5665 11.1196Z" fill="#232323"/>
</g>
<g opacity="0.3">
<path opacity="0.3" d="M14.4633 11.149L14.3928 12.1713V13.1349C14.3928 13.1349 14.7753 13.295 14.7753 13.2871C14.7753 13.2793 14.793 11.4128 14.793 11.4128L14.8322 10.807L14.8007 9.9502L14.5693 10.1502L14.3301 9.97958L14.0635 11.2891L14.4633 11.149Z" fill="#232323"/>
</g>
<g opacity="0.3">
<path opacity="0.3" d="M14.9023 9.80038V10.9518L15.2159 10.4793C15.2159 10.4793 15.7008 12.529 15.7238 12.534C15.7469 12.5391 16.3002 12.534 16.3002 12.534L15.4272 9.49316L15.1826 9.76964" fill="#232323"/>
</g>
<g opacity="0.3">
<path opacity="0.3" d="M5.26084 8.02333L5.18515 8.00736C5.18515 8.00736 4.32641 9.77586 4.34603 9.77586C4.36565 9.77586 4.69105 10.1229 4.69105 10.1229L5.33612 8.3409L6.5144 7.8625L6.19877 7.46875L5.01851 7.91911" fill="#232323"/>
</g>
<g opacity="0.3">
<path opacity="0.3" d="M5.40562 8.43006L5.76459 8.51641L5.6785 8.75865L5.40562 9.40404L5.19336 10.3408C5.19336 10.3408 5.50413 10.7552 5.52451 10.767C5.5449 10.7787 6.79203 9.88572 6.79801 9.87195C6.804 9.85818 6.90183 8.15655 6.90183 8.15655L6.48333 7.87305L5.38663 8.36134" fill="#232323"/>
</g>
<g opacity="0.3">
<path opacity="0.3" d="M12.6051 12.1853L12.2091 12.908C12.1697 12.9798 12.1044 13.0339 12.0266 13.0593C11.9487 13.0846 11.8641 13.0792 11.7901 13.0442L11.1016 12.7191L11.4693 12.1377L11.682 11.8936C11.682 11.8936 11.8256 12.7429 12.6051 12.1853Z" fill="#232323"/>
</g>
<g opacity="0.3">
<path opacity="0.3" d="M10.7535 11.005L10.6799 11.1509L10.6524 11.1351C10.6386 11.1273 10.6234 11.1223 10.6077 11.1205C10.592 11.1187 10.5761 11.1201 10.5609 11.1247C10.5458 11.1292 10.5317 11.1368 10.5196 11.147C10.5074 11.1572 10.4975 11.1697 10.4904 11.1838L10.2889 11.5817C10.2756 11.6082 10.2728 11.6388 10.2812 11.6673C10.2895 11.6957 10.3084 11.72 10.3339 11.7351L10.373 11.7579L10.2643 11.9732C10.2463 12.0089 10.2213 12.0406 10.1908 12.0665C10.1603 12.0924 10.1249 12.1119 10.0867 12.1239C10.0486 12.1359 10.0084 12.1401 9.96855 12.1363C9.92872 12.1326 9.89005 12.1208 9.85483 12.1019L7.74797 10.9643C7.71258 10.9452 7.6814 10.9191 7.6563 10.8877C7.6312 10.8562 7.61269 10.8201 7.60187 10.7813C7.59104 10.7426 7.58813 10.702 7.59331 10.6621C7.59849 10.6222 7.61165 10.5838 7.63201 10.5491L7.76989 10.3138C8.05172 11.752 10.1703 11.0338 10.0174 10.2842L10.626 10.6051C10.6955 10.6417 10.7478 10.7041 10.7717 10.779C10.7955 10.8538 10.789 10.935 10.7535 11.005Z" fill="#232323"/>
</g>
<g opacity="0.3">
<path opacity="0.3" d="M11.6652 11.8026L11.436 12.1939C11.4235 12.2153 11.4045 12.2322 11.3818 12.2423C11.3591 12.2523 11.3338 12.2548 11.3095 12.2496C11.2076 12.2276 11.1099 12.1897 11.0199 12.1371L10.7305 11.9673C10.7604 11.9846 10.7935 11.9957 10.8279 11.9999C10.8622 12.0041 10.8971 12.0013 10.9303 11.9917C10.9635 11.982 10.9945 11.9657 11.0212 11.9438C11.048 11.9218 11.07 11.8947 11.086 11.864L11.1772 11.6878C11.1984 11.6469 11.2082 11.6011 11.2054 11.5551C11.2027 11.5092 11.1876 11.4648 11.1617 11.4268L11.4276 11.5789C11.4668 11.6014 11.5099 11.6163 11.5546 11.623L11.5807 11.6267C11.5998 11.6296 11.6178 11.637 11.6333 11.6485C11.6488 11.6599 11.6613 11.675 11.6696 11.6923C11.6779 11.7097 11.6819 11.7288 11.6811 11.748C11.6804 11.7673 11.6749 11.786 11.6652 11.8026Z" fill="#232323"/>
</g>
<path d="M7.932 7.1795C8.00021 7.70132 8.20239 8.19659 8.51885 8.61707C8.58558 8.70589 8.65699 8.79109 8.73278 8.87231C8.76995 8.91236 8.80874 8.95165 8.84861 8.99053C9.18767 9.31805 9.59615 9.565 10.0437 9.71305C10.1007 9.73168 10.1579 9.74876 10.2153 9.7643C11.2688 10.0466 12.4388 9.77546 13.2533 8.95394C14.4532 7.74403 14.4262 5.79872 13.1936 4.60897C12.9621 4.38542 12.6976 4.1989 12.4093 4.05596C12.3765 4.03936 12.3431 4.02361 12.3095 4.00862C12.2197 3.96785 12.1286 3.93154 12.0362 3.89968C11.6113 3.7538 11.1602 3.69971 10.7129 3.74096C10.6424 3.7475 10.572 3.75638 10.5019 3.7676C10.3966 3.78457 10.2922 3.80692 10.1891 3.83456C9.65854 3.97546 9.17517 4.25539 8.78889 4.64546C8.09864 5.34148 7.81455 6.28067 7.932 7.1795Z" fill="white"/>
<path d="M11.0338 9.87959C10.7566 9.87964 10.4807 9.84333 10.213 9.77159C10.1556 9.75607 10.0977 9.73879 10.0409 9.7202C9.59228 9.57148 9.18278 9.32389 8.84266 8.9957C8.79896 8.95304 8.76094 8.9143 8.72656 8.87717C8.65059 8.79573 8.57898 8.71032 8.51204 8.6213C8.19522 8.19945 7.99256 7.70301 7.92367 7.17995C7.80077 6.23968 8.11393 5.31367 8.78281 4.63921C9.17047 4.24853 9.65502 3.96791 10.1868 3.8261C10.2901 3.7984 10.3948 3.77599 10.5004 3.75896C10.5693 3.7478 10.6405 3.73885 10.7119 3.73223C11.1604 3.69084 11.6125 3.74501 12.0386 3.89117C12.1309 3.92299 12.2231 3.95975 12.3126 4.00039C12.3478 4.01614 12.3815 4.03211 12.4127 4.04791C12.7018 4.19125 12.967 4.37832 13.199 4.60253C13.7991 5.18177 14.1346 5.95577 14.1436 6.78188C14.1526 7.60147 13.8383 8.37466 13.2589 8.95898C12.6673 9.5555 11.8612 9.87959 11.0338 9.87959ZM7.93969 7.17784C8.00819 7.69814 8.20978 8.19197 8.52496 8.61158C8.59154 8.70016 8.66277 8.78515 8.73835 8.86619C8.77264 8.90309 8.81035 8.94166 8.85391 8.98409C9.19209 9.3108 9.59952 9.55713 10.046 9.70477C10.1024 9.72326 10.16 9.74045 10.217 9.75589C11.3031 10.047 12.4642 9.7373 13.247 8.94764C13.8234 8.36638 14.136 7.59728 14.1271 6.78206C14.1181 5.96027 13.7844 5.19037 13.1874 4.61414C12.9566 4.39109 12.6928 4.20497 12.4052 4.06235C12.3742 4.04665 12.3408 4.03085 12.3057 4.01515C12.2166 3.97465 12.1248 3.93806 12.033 3.90643C11.6092 3.761 11.1593 3.70712 10.7131 3.74834C10.642 3.75487 10.5712 3.76382 10.5027 3.77489C10.3976 3.79183 10.2935 3.81414 10.1907 3.84172C9.66171 3.98278 9.17971 4.26193 8.7941 4.65059C8.12896 5.32145 7.81747 6.2426 7.93969 7.17784Z" fill="#232323"/>
<g opacity="0.3">
<path opacity="0.3" d="M13.2534 8.95386C12.4389 9.77547 11.2689 10.0467 10.2153 9.76422C10.1578 9.74874 10.1006 9.73167 10.0438 9.71301C9.59635 9.56475 9.18786 9.31786 8.84856 8.99058C8.80887 8.95161 8.77003 8.91241 8.73273 8.87245C8.65704 8.7911 8.58566 8.70585 8.51889 8.61703C8.27599 8.29416 8.09967 7.92624 8.00017 7.53465C7.90067 7.14306 7.87998 6.7356 7.93929 6.33594C8.01591 6.83227 8.21404 7.30196 8.51605 7.70322C8.58272 7.79213 8.65412 7.87739 8.72994 7.95864C8.76697 7.9986 8.80585 8.03779 8.84572 8.07676C9.18475 8.4043 9.59322 8.65125 10.0408 8.79924C10.0978 8.81787 10.155 8.83492 10.2126 8.8504C11.266 9.13291 12.436 8.8617 13.2505 8.04009C13.7257 7.56088 14.0082 6.9663 14.0998 6.34912C14.2423 7.26933 13.9615 8.2398 13.2534 8.95386Z" fill="#232323"/>
</g>
<path d="M11.0341 9.93393C10.7522 9.93394 10.4715 9.89696 10.1993 9.82395C10.1408 9.8082 10.0823 9.79065 10.0245 9.77175C9.56807 9.62056 9.15147 9.36873 8.80548 9.03488C8.76093 8.99136 8.72232 8.95198 8.68726 8.91423C8.61004 8.8314 8.53725 8.74455 8.46919 8.65404C8.14673 8.22469 7.94049 7.71941 7.87042 7.18704C7.74537 6.23012 8.06392 5.28764 8.74482 4.60125C9.13921 4.20381 9.63215 3.91833 10.1732 3.77406C10.2782 3.7459 10.3847 3.72311 10.492 3.7058C10.5621 3.69446 10.6345 3.68532 10.7072 3.6788C11.1633 3.63663 11.6232 3.69166 12.0564 3.84026C12.1503 3.87261 12.2441 3.91 12.3354 3.9514C12.3711 3.96733 12.4057 3.98367 12.4376 3.99987C12.7314 4.14566 13.001 4.33587 13.2369 4.56381C13.8475 5.15331 14.1888 5.94081 14.198 6.78155C14.207 7.61571 13.8875 8.40263 13.2976 8.99735C12.6959 9.60408 11.8758 9.93393 11.0341 9.93393ZM7.99372 7.17093C8.06103 7.68198 8.25905 8.16702 8.56864 8.57916C8.63407 8.6662 8.70405 8.74971 8.7783 8.82936C8.81205 8.86572 8.84922 8.90361 8.8921 8.94546C9.22439 9.26645 9.6247 9.50847 10.0633 9.65358C10.1188 9.67158 10.1755 9.68864 10.2317 9.70385C11.2991 9.98991 12.44 9.68584 13.2091 8.90973C13.7753 8.33882 14.0821 7.58349 14.0735 6.78289C14.0645 5.97568 13.7368 5.21937 13.1504 4.65327C12.9236 4.43409 12.6643 4.25119 12.3818 4.11102C12.3511 4.09549 12.3185 4.08001 12.2842 4.06476C12.1963 4.0248 12.1062 3.98889 12.016 3.9578C11.5994 3.81487 11.1573 3.76191 10.7187 3.80241C10.6488 3.80884 10.5792 3.81762 10.5119 3.82851C10.4087 3.84516 10.3064 3.86707 10.2054 3.89416C9.68552 4.03271 9.21184 4.30698 8.83288 4.68886C8.17939 5.3478 7.87348 6.25248 7.9935 7.17106L7.99372 7.17093Z" fill="#232323"/>
<path d="M11.0346 9.95196C10.7511 9.95196 10.4689 9.91477 10.1952 9.84135C10.1367 9.82551 10.0773 9.80787 10.0194 9.78888C9.56038 9.63679 9.14144 9.38354 8.79347 9.04782C8.74847 9.00408 8.70982 8.96448 8.67454 8.92632C8.5969 8.84303 8.52372 8.7557 8.4553 8.66469C8.13096 8.2329 7.92353 7.72473 7.85306 7.18932C7.72706 6.22681 8.04782 5.27884 8.7325 4.58832C9.12913 4.18855 9.6249 3.9014 10.169 3.75627C10.2747 3.72794 10.3817 3.70502 10.4897 3.6876C10.5602 3.67621 10.633 3.66703 10.7061 3.66028C11.1647 3.61793 11.6272 3.67333 12.0629 3.82282C12.1574 3.85536 12.2516 3.89298 12.3432 3.9346C12.3792 3.95058 12.4139 3.96709 12.4461 3.98343C12.7415 4.12999 13.0126 4.32124 13.2497 4.55043C13.8639 5.14321 14.2071 5.93535 14.2164 6.78094C14.2254 7.61997 13.9039 8.41147 13.3108 9.00961C12.7058 9.62035 11.881 9.95196 11.0346 9.95196ZM8.01214 7.16875C8.07909 7.67664 8.27593 8.15868 8.58364 8.56825C8.64868 8.65477 8.71826 8.73779 8.79208 8.81697C8.82565 8.85297 8.86264 8.89086 8.90525 8.93248C9.23563 9.25148 9.63358 9.49202 10.0696 9.63628C10.1247 9.65428 10.181 9.67111 10.2369 9.68623C11.2982 9.97063 12.4324 9.66823 13.1969 8.89684C13.7596 8.32939 14.0648 7.57866 14.0561 6.78288C14.0473 5.98053 13.7214 5.22876 13.1384 4.66603C12.913 4.44814 12.6553 4.26632 12.3744 4.12698C12.3438 4.11156 12.3115 4.09624 12.2775 4.08103C12.1899 4.04125 12.1003 4.00557 12.0107 3.97465C11.5965 3.83255 11.157 3.7799 10.721 3.82017C10.6514 3.82656 10.5823 3.83529 10.5154 3.84613C9.88278 3.94795 9.29861 4.24733 8.84653 4.7014C8.19691 5.35651 7.8928 6.25575 8.01214 7.16875Z" fill="#232323"/>
<path d="M8.13452 7.94173C9.37823 9.76936 12.0214 9.82723 12.9356 7.85286C13.5576 6.50956 12.7013 4.86486 11.352 4.3515C10.37 3.978 9.24777 4.036 8.25111 5.3779C8.25111 5.3779 7.90326 6.03967 7.9133 6.57337C7.92333 7.10707 8.0244 7.62498 8.0244 7.62498L8.13452 7.94173Z" fill="#232323"/>
<path d="M12.9359 7.85279C12.0217 9.82721 9.37847 9.7692 8.1348 7.94171L8.1123 7.87749C9.85695 8.92905 12.1563 8.54457 13.1184 6.56543C13.1791 6.99504 13.1277 7.4382 12.9359 7.85279Z" fill="#020202"/>
<path d="M10.663 9.713C10.1694 9.713 9.66549 9.59758 9.19848 9.37006L9.18871 9.3643C9.0502 9.26748 8.91954 9.15989 8.79793 9.04255C8.75293 8.9989 8.71446 8.95939 8.67927 8.9215C8.60182 8.8384 8.5288 8.75128 8.46052 8.6605C8.137 8.22974 7.93008 7.7228 7.85977 7.18868C7.73427 6.22856 8.05404 5.28289 8.73727 4.59421C9.13296 4.19539 9.62755 3.90893 10.1704 3.76418L10.1776 3.76225L10.185 3.76184C10.5945 3.73889 11.0302 3.81409 11.4799 3.98518C12.2893 4.29311 12.9748 4.97378 13.3137 5.80597C13.6188 6.55513 13.614 7.34114 13.3 8.0192C12.958 8.75752 12.3922 9.28474 11.6638 9.54389C11.3457 9.65702 11.0068 9.713 10.663 9.713ZM9.26719 9.24199C10.0232 9.60883 10.8787 9.66904 11.615 9.40709C12.3058 9.1613 12.8428 8.66009 13.168 7.95809C13.465 7.31698 13.4688 6.57209 13.179 5.86064C12.855 5.06509 12.2004 4.41466 11.428 4.12081C11.0002 3.958 10.5873 3.88586 10.2004 3.90629C9.68521 4.04505 9.21593 4.31761 8.84014 4.69631C8.18895 5.35304 7.88412 6.25457 8.00373 7.16974C8.0708 7.679 8.26812 8.16235 8.57662 8.57306C8.64182 8.6598 8.71156 8.74303 8.78556 8.82241C8.81922 8.85841 8.8563 8.89648 8.899 8.93815C9.01366 9.04882 9.13677 9.15041 9.26719 9.24199Z" fill="#232323"/>
<path d="M10.6435 9.40328C9.64314 9.40328 8.67276 8.87494 8.06827 7.98659L8.06233 7.97786L7.94574 7.64014C7.94155 7.61872 7.84323 7.10914 7.83324 6.57467C7.82293 6.02666 8.16561 5.36813 8.18023 5.34037L8.18685 5.32988C9.05859 4.1561 10.1332 3.80164 11.3807 4.2763C12.1046 4.55174 12.7177 5.16055 13.021 5.90489C13.2941 6.57539 13.2897 7.27915 13.0085 7.88638C12.601 8.76653 11.8233 9.31598 10.8749 9.39388C10.7977 9.40018 10.7206 9.40331 10.6435 9.40328ZM8.20687 7.90505C8.82603 8.8087 9.84235 9.31765 10.8619 9.2339C11.7511 9.16087 12.4804 8.64517 12.863 7.81892C13.1253 7.25251 13.1285 6.59425 12.8726 5.96537C12.5858 5.26139 12.0067 4.68616 11.3236 4.42624C10.1532 3.98096 9.14247 4.3154 8.31946 5.42029C8.28733 5.48329 7.98453 6.08962 7.99357 6.57166C8.00257 7.06297 8.09154 7.54753 8.10216 7.604L8.20687 7.90505Z" fill="#232323"/>
<path d="M14.2738 8.22374C14.0881 8.80051 13.5867 9.17419 13.1538 9.05822C12.7208 8.94226 12.5203 8.38066 12.706 7.80385C12.707 7.80025 12.7084 7.79642 12.7097 7.79282C12.898 7.22231 13.396 6.85417 13.826 6.96932C14.1605 7.05887 14.3562 7.41446 14.3424 7.83742C14.3375 7.96875 14.3144 8.09877 14.2738 8.22374Z" fill="white"/>
<path d="M13.3148 9.09491C13.2591 9.095 13.2036 9.08777 13.1498 9.0734C12.9766 9.02701 12.8348 8.91068 12.7403 8.73703C12.6023 8.48368 12.584 8.13322 12.6914 7.79954C12.6925 7.7959 12.6939 7.79185 12.6953 7.78802C12.8853 7.21202 13.3944 6.83821 13.8299 6.95494C14.1599 7.04332 14.372 7.39832 14.3577 7.83833C14.3528 7.97108 14.3294 8.1025 14.2883 8.2288C14.1237 8.74041 13.7107 9.09491 13.3148 9.09491ZM13.6655 6.96416C13.2862 6.96416 12.887 7.30553 12.7243 7.79806C12.723 7.80179 12.7217 7.80535 12.7207 7.80872C12.6158 8.13479 12.6332 8.4763 12.7673 8.72222C12.8579 8.88836 12.9929 8.99952 13.1578 9.0437C13.5825 9.15737 14.0764 8.78756 14.2593 8.2193C14.2996 8.0957 14.3224 7.96711 14.3272 7.83721C14.341 7.41173 14.1382 7.06901 13.8221 6.98437C13.771 6.97082 13.7183 6.96403 13.6655 6.96416Z" fill="#232323"/>
<g opacity="0.3">
<path opacity="0.3" d="M14.2738 8.224C14.0881 8.80077 13.5867 9.17445 13.1538 9.05848C12.7208 8.94252 12.5203 8.38092 12.706 7.80411C12.707 7.80051 12.7084 7.79668 12.7097 7.79308C12.7382 7.86508 12.7936 7.94316 12.9003 7.95058C13.0872 7.96318 13.522 7.67676 13.522 7.67676C13.522 7.67676 13.8782 7.74426 14.3424 7.8379C14.3375 7.96916 14.3144 8.0991 14.2738 8.224Z" fill="#232323"/>
</g>
<path d="M13.3141 9.15892C13.2531 9.15903 13.1925 9.15113 13.1336 9.13543C12.9428 9.08431 12.7871 8.95705 12.684 8.76738C12.5355 8.49472 12.5159 8.1345 12.6303 7.779C12.8285 7.16304 13.3746 6.76506 13.8474 6.89164C14.0383 6.94281 14.1939 7.07007 14.2971 7.2597C14.4456 7.53235 14.4652 7.89262 14.3509 8.24812C14.1774 8.78686 13.738 9.15892 13.3141 9.15892ZM13.6633 7.02808C13.3087 7.02808 12.9348 7.35627 12.7829 7.82814C12.6834 8.13738 12.699 8.4598 12.8248 8.69065C12.9066 8.84077 13.0277 8.94099 13.1751 8.98045C13.5666 9.08539 14.0256 8.7348 14.198 8.19894C14.2976 7.8897 14.2819 7.56727 14.1561 7.33647C14.0744 7.1863 13.9532 7.08609 13.8059 7.04662C13.7594 7.03424 13.7115 7.028 13.6633 7.02808Z" fill="#232323"/>
<path d="M14.3161 8.44131C14.507 7.99901 14.3906 7.5235 14.0563 7.37923C13.7219 7.23496 13.2962 7.47656 13.1053 7.91887C12.9145 8.36117 13.0308 8.83668 13.3652 8.98095C13.6995 9.12522 14.1253 8.88361 14.3161 8.44131Z" fill="white"/>
<path d="M13.5686 9.031C13.4272 9.031 13.3004 8.97853 13.1996 8.87769C12.932 8.60976 12.9431 8.07889 13.2239 7.69419C13.3805 7.47981 13.5934 7.34737 13.8081 7.33086C13.9677 7.31857 14.1108 7.371 14.2221 7.48242C14.4896 7.75035 14.4786 8.28121 14.1978 8.66592L14.191 8.66097L14.1978 8.66592C14.0412 8.8803 13.8282 9.01273 13.6136 9.02925C13.5986 9.03042 13.5836 9.031 13.5686 9.031ZM13.8533 7.34602C13.8389 7.34602 13.8243 7.34656 13.8095 7.34773C13.5997 7.36389 13.3913 7.4938 13.2376 7.70422C12.9613 8.08222 12.9496 8.6035 13.2116 8.86585C13.3194 8.97385 13.4577 9.02443 13.6125 9.01255C13.8222 8.9964 14.0307 8.86644 14.1844 8.65602C14.4607 8.27802 14.4724 7.75674 14.2104 7.49439C14.1131 7.39683 13.9901 7.34602 13.8532 7.34602H13.8533Z" fill="#232323"/>
<g opacity="0.3">
<path opacity="0.3" d="M13.0036 8.34301C13.0138 8.17813 13.0698 8.01568 13.1566 7.87402C13.1656 8.25202 13.4352 8.49052 13.7859 8.41524C14.0126 8.3665 14.2209 8.19757 14.3553 7.97829C14.356 8.00214 14.3553 8.02675 14.3539 8.05177C14.3278 8.47153 14.0044 8.87707 13.6315 8.95749C13.2585 9.0379 12.9776 8.76268 13.0036 8.34301Z" fill="#232323"/>
</g>
<path d="M13.5523 9.09598C13.5096 9.09604 13.4671 9.09067 13.4258 9.08C13.2857 9.04364 13.1709 8.95004 13.0938 8.80928C12.9745 8.59121 12.9615 8.28224 13.0592 7.98286C13.2238 7.47814 13.6534 7.14428 14.0171 7.2386C14.1573 7.27501 14.2721 7.36861 14.3491 7.50937C14.4685 7.72744 14.4814 8.03641 14.3837 8.33579C14.2379 8.78291 13.8839 9.09598 13.5523 9.09598ZM13.8861 7.36739C13.6175 7.36739 13.3236 7.64095 13.1972 8.02799C13.1117 8.29003 13.1207 8.55611 13.2212 8.73971C13.2785 8.84443 13.3618 8.91355 13.4623 8.9396C13.7528 9.01507 14.1044 8.72401 14.2457 8.29088C14.3312 8.02889 14.3222 7.76281 14.2217 7.57921C14.1644 7.47449 14.0811 7.40537 13.9806 7.37927C13.9498 7.37132 13.918 7.36733 13.8861 7.36739Z" fill="#232323"/>
<g opacity="0.5">
<path opacity="0.5" d="M11.8416 5.20723C11.8416 5.20723 10.5356 4.80223 9.55505 5.25781L9.55199 5.25925C9.34637 5.3552 9.17013 5.50434 9.04151 5.69125C8.8719 5.93727 8.79171 6.13153 8.72786 6.30528C8.53377 6.83371 8.54336 7.11766 8.54336 7.11766C8.34086 6.72801 8.28501 6.34879 8.44224 5.90716C8.45784 5.86363 8.47551 5.8194 8.49525 5.77446C8.49975 5.76411 8.50425 5.75394 8.50929 5.74377C8.50929 5.74377 8.50929 5.74341 8.5097 5.74318C8.56847 5.63148 8.63397 5.52344 8.70585 5.41968C8.9606 5.05189 9.38922 4.60698 9.99672 4.54839C11.1323 4.43841 11.9061 5.1679 11.8416 5.20723Z" fill="white"/>
<path opacity="0.5" d="M8.56042 7.1841L8.52942 7.12447C8.30892 6.70044 8.27742 6.32347 8.4274 5.90164C8.44293 5.85835 8.46093 5.8134 8.48082 5.76795C8.48505 5.75827 8.48941 5.74869 8.494 5.7391L8.49499 5.7328L8.49805 5.73127C8.55649 5.62057 8.62154 5.51348 8.69286 5.4106C8.94756 5.04286 9.38019 4.59205 9.99484 4.53274C10.5645 4.47784 11.0253 4.63422 11.3116 4.77511C11.6379 4.93572 11.8381 5.12557 11.8584 5.18673C11.8654 5.20774 11.8545 5.21706 11.8494 5.22007L11.8435 5.22367L11.8369 5.2216C11.8239 5.21755 10.525 4.82358 9.56109 5.2716L9.55803 5.27304C9.35491 5.3678 9.18079 5.51509 9.05367 5.69968C8.88082 5.95042 8.80203 6.14635 8.74177 6.31029C8.55129 6.82905 8.55804 7.11408 8.55808 7.11691L8.56042 7.1841ZM8.52181 5.75188C8.51731 5.76124 8.51281 5.7706 8.5089 5.78014C8.48923 5.82514 8.47155 5.86933 8.45625 5.91195C8.31562 6.30705 8.33785 6.66246 8.52955 7.05666C8.53675 6.94668 8.56956 6.69085 8.7132 6.29976C8.77413 6.13402 8.85378 5.93602 9.0286 5.68227C9.15886 5.49323 9.33721 5.34239 9.54525 5.24532L9.54844 5.24383C10.4542 4.8229 11.6492 5.13628 11.8245 5.18605C11.8146 5.16922 11.7899 5.13741 11.7354 5.08836C11.4773 4.85616 10.8207 4.48369 9.99772 4.56321C9.39472 4.62139 8.96893 5.06563 8.71792 5.42802C8.64638 5.53126 8.5812 5.63877 8.52276 5.74995L8.52181 5.75188Z" fill="#232323"/>
</g>
<g opacity="0.5">
<path opacity="0.5" d="M12.7543 6.85672C12.7751 6.59333 12.6072 6.36524 12.3794 6.34727C12.1515 6.3293 11.95 6.52825 11.9292 6.79164C11.9084 7.05503 12.0763 7.28312 12.3041 7.30109C12.532 7.31907 12.7335 7.12011 12.7543 6.85672Z" fill="white"/>
<path opacity="0.5" d="M12.3322 7.31667C12.3211 7.31667 12.3097 7.31618 12.2988 7.31519C12.0632 7.29404 11.8907 7.05626 11.9143 6.78509L11.9295 6.78639L11.9143 6.78509C11.9267 6.64257 11.9921 6.51203 12.0937 6.42689C12.1781 6.35619 12.2813 6.32231 12.3845 6.33158C12.6201 6.35273 12.7926 6.59051 12.769 6.86168C12.7566 7.00419 12.6912 7.13474 12.5896 7.21988C12.5143 7.28292 12.424 7.31667 12.3322 7.31667ZM12.3511 6.3606C12.2664 6.3606 12.1831 6.3921 12.1133 6.45029C12.0179 6.53025 11.9564 6.65324 11.9447 6.78779C11.9225 7.04226 12.0827 7.26524 12.3015 7.2849C12.3964 7.29341 12.4918 7.26204 12.57 7.19657C12.6655 7.1166 12.7269 6.99362 12.7386 6.85907C12.7608 6.60464 12.6007 6.38166 12.3817 6.362C12.3715 6.36107 12.3613 6.3606 12.3511 6.3606Z" fill="#232323"/>
</g>
<g opacity="0.5">
<path opacity="0.5" d="M12.2725 7.88683C12.3674 7.88542 12.443 7.7958 12.4414 7.68666C12.4398 7.57752 12.3615 7.49018 12.2666 7.49159C12.1717 7.493 12.096 7.58262 12.0977 7.69176C12.0993 7.8009 12.1775 7.88824 12.2725 7.88683Z" fill="white"/>
<path opacity="0.5" d="M12.27 7.9024H12.269C12.1658 7.90177 12.0819 7.80574 12.082 7.68842C12.082 7.62713 12.1054 7.56895 12.1458 7.52876C12.1619 7.51241 12.1809 7.49939 12.202 7.49043C12.2231 7.48147 12.2457 7.47676 12.2686 7.47656H12.2695C12.3728 7.47719 12.4566 7.57318 12.4565 7.69054C12.4565 7.75183 12.4332 7.80997 12.3927 7.8502C12.3767 7.86654 12.3576 7.87956 12.3365 7.88851C12.3155 7.89747 12.2929 7.90219 12.27 7.9024ZM12.2686 7.50716C12.2497 7.50737 12.231 7.51131 12.2137 7.51875C12.1963 7.52618 12.1806 7.53697 12.1674 7.5505C12.1327 7.58497 12.1127 7.63528 12.1127 7.68842C12.1127 7.789 12.1827 7.87126 12.2691 7.8718H12.27C12.2889 7.87157 12.3075 7.86763 12.3249 7.86019C12.3422 7.85275 12.3579 7.84197 12.3711 7.82846C12.4059 7.79395 12.4258 7.74368 12.4259 7.69049C12.4259 7.58996 12.3558 7.5077 12.2694 7.50716H12.2686Z" fill="#232323"/>
</g>
</svg>
