<svg width="22" height="22" viewBox="0 0 22 22" fill="none" xmlns="http://www.w3.org/2000/svg">
<path d="M10.9992 2.19995C6.13958 2.19995 2.19922 6.14031 2.19922 11C2.19922 15.8596 6.13958 19.7999 10.9992 19.7999C15.8589 19.7999 19.7992 15.8596 19.7992 11C19.7992 6.14031 15.8589 2.19995 10.9992 2.19995ZM10.9992 18.3071C6.96458 18.3071 3.69208 15.0346 3.69208 11C3.69208 6.96531 6.96458 3.69281 10.9992 3.69281C15.0339 3.69281 18.3064 6.96531 18.3064 11C18.3064 15.0346 15.0339 18.3071 10.9992 18.3071ZM11.1092 7.84334C12.1503 7.84334 12.8574 8.50727 12.936 9.48156C12.9419 9.56406 13.0106 9.62691 13.0931 9.62691H14.2069C14.258 9.62691 14.2992 9.58566 14.2992 9.53459C14.2992 7.83156 12.9556 6.63924 11.1033 6.63924C8.94458 6.63924 7.69922 8.09674 7.69922 10.505V11.5323C7.69922 13.9228 8.94458 15.3607 11.1033 15.3607C12.9498 15.3607 14.2992 14.2057 14.2992 12.5832C14.2992 12.5321 14.258 12.4908 14.2069 12.4908H13.0912C13.0087 12.4908 12.9419 12.5537 12.934 12.6342C12.8515 13.5398 12.1464 14.1625 11.1073 14.1625C9.82458 14.1625 9.10172 13.2216 9.10172 11.5382V10.505C9.10368 8.79602 9.8285 7.84334 11.1092 7.84334Z" fill="#0F143A"/>
</svg>
