<svg width="22" height="22" viewBox="0 0 22 22" fill="none" xmlns="http://www.w3.org/2000/svg">
<path fill-rule="evenodd" clip-rule="evenodd" d="M1.43597 3.18404C1 4.03968 1 5.15979 1 7.4V14.6C1 16.8402 1 17.9603 1.43597 18.816C1.81947 19.5686 2.43139 20.1805 3.18404 20.564C4.03968 21 5.15979 21 7.4 21H14.6C16.8402 21 17.9603 21 18.816 20.564C19.5686 20.1805 20.1805 19.5686 20.564 18.816C21 17.9603 21 16.8402 21 14.6V7.4C21 5.15979 21 4.03968 20.564 3.18404C20.1805 2.43139 19.5686 1.81947 18.816 1.43597C17.9603 1 16.8402 1 14.6 1H7.4C5.15979 1 4.03968 1 3.18404 1.43597C2.43139 1.81947 1.81947 2.43139 1.43597 3.18404ZM4 10.72C4 8.36778 4 7.19167 4.45777 6.29324C4.86044 5.50296 5.50296 4.86044 6.29324 4.45777C7.19167 4 8.36778 4 10.72 4H11.28C13.6322 4 14.8083 4 15.7068 4.45777C16.497 4.86044 17.1396 5.50296 17.5422 6.29324C18 7.19167 18 8.36778 18 10.72V11.28C18 13.6322 18 14.8083 17.5422 15.7068C17.1396 16.497 16.497 17.1396 15.7068 17.5422C14.8083 18 13.6322 18 11.28 18H10.72C8.36778 18 7.19167 18 6.29324 17.5422C5.50296 17.1396 4.86044 16.497 4.45777 15.7068C4 14.8083 4 13.6322 4 11.28V10.72ZM11.28 5.4H10.72C9.52079 5.4 8.70558 5.40109 8.07545 5.45257C7.46167 5.50272 7.14779 5.59362 6.92883 5.70518C6.40197 5.97363 5.97363 6.40197 5.70518 6.92883C5.59362 7.14779 5.50272 7.46167 5.45257 8.07545C5.40109 8.70558 5.4 9.52079 5.4 10.72V11.28C5.4 12.4792 5.40109 13.2944 5.45257 13.9245C5.50272 14.5383 5.59362 14.8522 5.70518 15.0712C5.97363 15.598 6.40197 16.0264 6.92883 16.2948C7.14779 16.4064 7.46167 16.4973 8.07545 16.5474C8.70558 16.5989 9.52079 16.6 10.72 16.6H11.28C12.4792 16.6 13.2944 16.5989 13.9245 16.5474C14.5383 16.4973 14.8522 16.4064 15.0712 16.2948C15.598 16.0264 16.0264 15.598 16.2948 15.0712C16.4064 14.8522 16.4973 14.5383 16.5474 13.9245C16.5989 13.2944 16.6 12.4792 16.6 11.28V10.72C16.6 9.52079 16.5989 8.70558 16.5474 8.07545C16.4973 7.46167 16.4064 7.14779 16.2948 6.92883C16.0264 6.40197 15.598 5.97363 15.0712 5.70518C14.8522 5.59362 14.5383 5.50272 13.9245 5.45257C13.2944 5.40109 12.4792 5.4 11.28 5.4ZM14.5 11C14.5 12.933 12.933 14.5 11 14.5C9.067 14.5 7.5 12.933 7.5 11C7.5 9.067 9.067 7.5 11 7.5C12.933 7.5 14.5 9.067 14.5 11ZM11 13.1C12.1598 13.1 13.1 12.1598 13.1 11C13.1 9.8402 12.1598 8.9 11 8.9C9.8402 8.9 8.9 9.8402 8.9 11C8.9 12.1598 9.8402 13.1 11 13.1ZM15.9 7.15C15.9 7.7299 15.4299 8.2 14.85 8.2C14.2701 8.2 13.8 7.7299 13.8 7.15C13.8 6.5701 14.2701 6.1 14.85 6.1C15.4299 6.1 15.9 6.5701 15.9 7.15Z" fill="#0F143A"/>
</svg>
