<svg width="22" height="22" viewBox="0 0 22 22" fill="none" xmlns="http://www.w3.org/2000/svg">
<path d="M18.8571 1H3.14286C1.95982 1 1 1.95982 1 3.14286V18.8571C1 20.0402 1.95982 21 3.14286 21H18.8571C20.0402 21 21 20.0402 21 18.8571V3.14286C21 1.95982 20.0402 1 18.8571 1ZM16.6741 8.08929C16.683 8.21429 16.683 8.34375 16.683 8.46875C16.683 12.3393 13.7366 16.7991 8.35268 16.7991C6.69196 16.7991 5.15179 16.317 3.85714 15.4866C4.09375 15.5134 4.32143 15.5223 4.5625 15.5223C5.93304 15.5223 7.19196 15.058 8.19643 14.2723C6.91071 14.2455 5.83036 13.4018 5.45982 12.2411C5.91071 12.308 6.31696 12.308 6.78125 12.1875C5.44196 11.9152 4.4375 10.7366 4.4375 9.3125V9.27679C4.82589 9.49554 5.28125 9.62946 5.75893 9.64732C5.35733 9.38019 5.02812 9.0178 4.80066 8.59248C4.5732 8.16716 4.45457 7.69214 4.45536 7.20982C4.45536 6.66518 4.59821 6.16518 4.85268 5.73214C6.29464 7.50893 8.45982 8.66964 10.8884 8.79464C10.4732 6.80804 11.9598 5.19643 13.7455 5.19643C14.5893 5.19643 15.3482 5.54911 15.8839 6.12054C16.5446 5.99554 17.1786 5.75 17.7411 5.41518C17.5223 6.09375 17.0625 6.66518 16.4554 7.02679C17.0446 6.96429 17.6161 6.79911 18.1429 6.57143C17.7455 7.15625 17.2455 7.67411 16.6741 8.08929Z" fill="#0F143A"/>
</svg>
