<svg width="808" height="760" viewBox="0 0 808 760" fill="none" xmlns="http://www.w3.org/2000/svg">
<path d="M160.646 568.206C151.002 520.841 166.464 472.085 201.302 440.006C218.738 421.516 239.718 406.909 262.957 397.079C285.857 384.898 313.886 388.506 333.471 406.156C341.333 413.911 345.324 424.892 344.295 435.941C342.719 445.133 337.31 453.122 329.475 457.83C312.695 468.956 290.385 466.001 276.622 450.829C261.107 432.546 256.144 407.315 263.588 384.568C272.39 359.707 287.811 337.934 308.122 321.69C352.485 286.63 402.953 260.447 456.929 244.487C483.726 234.895 510.754 225.984 537.2 215.401C561.742 207.163 584.25 193.698 603.258 175.885C619.392 159.928 627.154 137.03 624.21 114.083C622.338 92.5224 607.744 74.1921 587.463 67.9278C574.076 65.2726 560.265 66.8731 547.89 72.5139C536.351 76.5752 526.372 84.2252 519.336 94.4052C513.988 105.265 513.157 117.924 517.028 129.533C520.899 141.141 529.147 150.724 539.916 156.123C563.612 166.871 590.014 169.358 615.032 163.198C639.005 159.263 662.206 151.586 683.828 140.435C727.085 118.481 762.857 83.7998 786.618 40.7799C788.826 36.6583 790.919 32.4743 792.895 28.2327C795.924 21.7334 798.679 15.0991 801.153 8.34768C801.808 6.9915 801.897 5.44902 801.457 4.04864C801.244 3.37196 800.908 2.72846 800.453 2.15518C799.056 0.39553 796.793 -0.377583 794.666 0.177964L723.028 23.7746C719.834 24.8438 718.075 28.3253 719.053 31.6426C720.03 34.9598 723.392 36.9165 726.649 36.0645L797.872 11.0593L790.889 4.23445C773.455 50.3326 742.273 89.4928 701.735 116.199C681.662 129.769 659.628 140.061 636.41 146.713C612.746 154.501 587.59 156.619 562.868 152.904C550.452 150.964 539.242 144.05 531.713 133.69C524.619 124.316 523.54 111.606 528.96 101.271C536.231 91.3186 546.789 84.4217 558.702 81.8417C570.184 77.5348 582.952 78.3089 593.975 83.9803C609.661 96.024 616.855 116.458 612.212 135.789C605.29 159.633 588.59 179.115 566.422 189.207C542.154 201.811 516.883 212.319 490.868 220.622C463.812 230.31 436.53 239.425 409.818 250.061C357.018 267.599 309.833 299.138 273.017 341.498C256.615 361.053 247.837 386.163 248.335 412.096C249.078 436.893 262.661 459.564 283.98 471.589C302.917 480.241 324.887 477.081 340.513 463.46C356.673 449.245 359.544 424.674 347.155 406.613C332.504 385.794 307.426 375.522 283.018 380.341C257.093 385.586 232.98 397.529 212.958 415.042C174.147 443.201 150.227 488.123 148 537.031C148.389 548.303 150.747 559.435 154.963 569.901C155.479 571.461 157.104 572.336 158.637 571.88C160.171 571.423 161.059 569.796 160.646 568.206Z" fill="#97EFF1"/>
<path d="M160.646 568.206C151.002 520.841 166.464 472.085 201.302 440.006C218.738 421.516 239.718 406.909 262.957 397.079C285.857 384.898 313.886 388.506 333.471 406.156C341.333 413.911 345.324 424.892 344.295 435.941C342.719 445.133 337.31 453.122 329.475 457.83C312.695 468.956 290.385 466.001 276.622 450.829C261.107 432.546 256.144 407.315 263.588 384.568C272.39 359.707 287.811 337.934 308.122 321.69C352.485 286.63 402.953 260.447 456.929 244.487C483.726 234.895 510.754 225.984 537.2 215.401C561.742 207.163 584.25 193.698 603.258 175.885C619.392 159.928 627.154 137.03 624.21 114.083C622.338 92.5224 607.744 74.1921 587.463 67.9278C574.076 65.2726 560.265 66.8731 547.89 72.5139C536.351 76.5752 526.372 84.2252 519.336 94.4052C513.988 105.265 513.157 117.924 517.028 129.533C520.899 141.141 529.147 150.724 539.916 156.123C563.612 166.871 590.014 169.358 615.032 163.198C639.005 159.263 662.206 151.586 683.828 140.435C727.085 118.481 762.857 83.7998 786.618 40.7799C788.826 36.6583 790.919 32.4743 792.895 28.2327C795.924 21.7334 798.679 15.0991 801.153 8.34768C801.808 6.9915 801.897 5.44902 801.457 4.04864C801.244 3.37196 800.908 2.72846 800.453 2.15518C799.056 0.39553 796.793 -0.377583 794.666 0.177964L723.028 23.7746C719.834 24.8438 718.075 28.3253 719.053 31.6426C720.03 34.9598 723.392 36.9165 726.649 36.0645L797.872 11.0593L790.889 4.23445C773.455 50.3326 742.273 89.4928 701.735 116.199C681.662 129.769 659.628 140.061 636.41 146.713C612.746 154.501 587.59 156.619 562.868 152.904C550.452 150.964 539.242 144.05 531.713 133.69C524.619 124.316 523.54 111.606 528.96 101.271C536.231 91.3186 546.789 84.4217 558.702 81.8417C570.184 77.5348 582.952 78.3089 593.975 83.9803C609.661 96.024 616.855 116.458 612.212 135.789C605.29 159.633 588.59 179.115 566.422 189.207C542.154 201.811 516.883 212.319 490.868 220.622C463.812 230.31 436.53 239.425 409.818 250.061C357.018 267.599 309.833 299.138 273.017 341.498C256.615 361.053 247.837 386.163 248.335 412.096C249.078 436.893 262.661 459.564 283.98 471.589C302.917 480.241 324.887 477.081 340.513 463.46C356.673 449.245 359.544 424.674 347.155 406.613C332.504 385.794 307.426 375.522 283.018 380.341C257.093 385.586 232.98 397.529 212.958 415.042C174.147 443.201 150.227 488.123 148 537.031C148.389 548.303 150.747 559.435 154.963 569.901C155.479 571.461 157.104 572.336 158.637 571.88C160.171 571.423 161.059 569.796 160.646 568.206Z" fill="white" fill-opacity="0.2"/>
<path d="M801.153 8.34768C798.679 15.0991 795.924 21.7334 792.895 28.2327C789.438 41.8487 787.132 55.7518 786.006 69.7931C785.31 76.9652 796.673 76.8287 797.208 69.5908C799.055 49.0412 802.637 28.6915 807.913 8.76252C808.376 6.44482 806.944 4.16742 804.665 3.60061C803.535 3.3194 802.397 3.50892 801.457 4.04864C801.897 5.44902 801.808 6.9915 801.153 8.34768Z" fill="#97EFF1"/>
<path d="M801.153 8.34768C798.679 15.0991 795.924 21.7334 792.895 28.2327C789.438 41.8487 787.132 55.7518 786.006 69.7931C785.31 76.9652 796.673 76.8287 797.208 69.5908C799.055 49.0412 802.637 28.6915 807.913 8.76252C808.376 6.44482 806.944 4.16742 804.665 3.60061C803.535 3.3194 802.397 3.50892 801.457 4.04864C801.897 5.44902 801.808 6.9915 801.153 8.34768Z" fill="white" fill-opacity="0.2"/>
<path d="M138.606 675.608C133.861 677.374 128.977 678.739 124.005 679.687C118.594 680.798 113.381 680.298 109.855 674.844C113.589 666.992 119.55 661.051 127.306 655.763L110.043 647.896C107.014 651.063 104.2 654.473 100.881 657.332C97.8897 659.911 94.6877 662.579 89.7783 660.107C86.6684 658.542 85.0188 656.308 85.4515 653.219C86.3381 646.889 87.6115 640.631 88.9645 633C85.2834 628.803 80.9799 625.201 76.2053 622.319L74.7681 622.918C74.9701 626.758 75.2303 630.602 75.3602 634.44C75.4733 637.756 76.6228 641.273 73.6268 643.983C70.6308 646.693 65.833 646.613 62.78 643.675C52.6928 633.951 51.7246 615.096 60.2354 605.22C66.6292 597.801 73.8814 591.79 83.0317 587.784C88.1496 585.545 91.4398 581.636 94.2839 576.565C100.413 565.66 107.605 555.312 114.892 545.118C126.753 528.525 141.576 514.546 156.665 500.867C165.278 493.06 173.788 485.062 183.12 478.112C187.421 474.907 193.424 473.531 198.93 472.194C205.159 470.691 212.935 478.27 215.437 483.177C219.747 491.598 217.751 499.663 215.742 507.7C213.04 518.518 210.388 529.37 207.16 539.987C204.816 547.669 201.781 555.135 198.594 562.494C192.942 575.63 187.774 589.084 180.87 601.527C174.83 612.445 166.585 622.096 159.49 632.431C158.35 634.126 157.417 636.407 157.469 638.456C157.716 648.449 153.9 657.105 150.7 666.074C148.603 671.997 143.525 673.694 138.606 675.608ZM149.436 648.685C149.403 650.692 149.381 652.295 149.355 654.216C149.355 654.219 149.355 654.221 149.355 654.223L153.069 654.539L151.457 651.686L154.501 649.082L149.436 648.685ZM154.52 635.74L147.922 636.113L147.331 637.112C148.27 637.973 149.167 639.462 150.144 639.573C152.358 639.804 154.714 639.538 154.52 635.74ZM159.337 510.514L163.632 514.669C168.202 513.607 172.636 512.77 176.882 513.473C186.818 515.096 190.693 522.958 193.723 531.085C195.499 535.862 197.725 537.647 203.156 537.358C203.086 536.411 203.017 535.456 202.919 534.192L206.235 535.316C208.394 527.373 210.695 519.803 212.47 512.087C213.995 505.448 215.802 498.705 215.921 491.895C216.136 479.378 205.053 471.803 194.695 476.54L194.671 479.931L190.598 477.256C176.775 484.958 163.346 493.005 159.346 510.516L159.337 510.514ZM184.895 547.055C189.333 547.577 192.515 543.055 192.433 536.751C191.669 536.255 190.782 535.678 189.926 535.101C189.924 535.1 189.923 535.099 189.922 535.098C189.929 535.063 189.934 535.027 189.937 534.992C189.932 534.969 189.926 534.947 189.919 534.926L192.209 533.194C191.074 527.837 190.842 527.591 187.996 528.684L189.919 534.926L189.803 535.013L189.926 535.099C189.926 535.099 189.926 535.1 189.926 535.101C189.726 537.652 189.519 540.198 189.315 542.685C184.356 545.883 179.732 551.161 172.149 548.91C165.371 546.895 159.758 543.392 157.203 536.061C156.359 536.707 155.689 537.205 154.573 538.057L158.302 541.838C156.969 545.525 159.795 545.738 161.651 545.592L164.654 550.497C166.158 549.749 166.992 549.328 168.254 548.696C168.337 550.161 168.38 551.018 168.43 551.822C176.79 555.291 181.462 554.692 186.17 549.611L184.895 547.055ZM154.992 524.853C154.344 526.745 153.7 528.636 152.991 530.7L156.774 530.781C156.665 528.76 156.567 526.877 156.467 524.989L154.992 524.853ZM158.319 524.87L165.138 517.511C160.289 518.249 156.69 522.236 158.317 524.888L158.319 524.87ZM161.004 538.521C164.527 545.386 172.693 548.983 179.471 546.711C186.505 544.353 189.502 538.932 187.199 531.704C186.222 528.778 184.664 526.081 182.621 523.775C180.816 521.746 178.224 519.737 175.706 519.065C169.652 517.455 164.729 519.301 161.89 524.916C158.078 529.009 158.524 533.68 161.024 538.542L161.004 538.521ZM174.814 515.997L174.838 516.008L180.963 518.734L181.658 517.247L175.607 514.262C175.367 514.858 175.103 515.433 174.838 516.008C174.837 516.011 174.835 516.014 174.834 516.018L174.814 515.997ZM187.271 526.323L189.042 525.047C187.466 522.924 185.892 520.796 184.32 518.664C183.82 519.01 183.322 519.347 182.823 519.689L187.271 526.323ZM116.673 561.33C121.896 566.295 126.986 571.435 132.389 576.181C142.474 585.018 153.35 592.717 166.175 597.069C169.934 598.346 173.842 599.115 177.741 600.135C186.083 580.733 194.056 562.171 202.364 542.855L204.621 542.3C202.084 538.416 198.324 538.397 194.993 537.121C192.356 546.64 188.453 555.211 177.089 555.637C166.661 556.008 156.996 549.1 152.987 540.364C148 529.494 151.893 521.954 161.122 516.257C156.814 508.914 153.335 508.5 148.53 514.241C146.99 516.088 145.406 517.897 143.842 519.723C134.557 530.554 125.245 541.35 116.021 552.23C113.542 555.18 113.542 558.336 116.673 561.33ZM94.7064 585.433C93.2882 588.28 93.1642 591.807 92.4644 594.999L95.5976 595.948L94.5552 596.498C94.9413 598.218 94.7882 600.374 95.8194 601.578C99.1395 605.407 102.674 609.043 106.407 612.469C118.505 623.681 131.877 632.307 148.707 633.793C153.564 634.225 157.507 632.576 160.16 629.03C165.433 621.984 170.333 614.662 175.34 607.42C176.138 606.26 176.686 604.925 177.648 603.114C170.472 600.627 163.745 599.121 157.78 596.071C142.286 588.132 128.977 577.13 117.01 564.587C112.598 559.954 109.669 559.514 106.422 564.561C102.146 571.299 98.2421 578.268 94.7285 585.436L94.7064 585.433ZM85.8314 592.434L84.7769 590.977L83.945 591.344C84.0393 593.892 84.1063 596.441 84.2001 599.636L90.7255 597.107C90.5942 594.373 90.4742 591.848 90.3592 589.32L89.1541 588.647C88.0483 589.94 86.9204 591.229 85.8535 592.437L85.8314 592.434ZM97.007 607.368C95.1296 604.668 93.4355 602.27 91.2216 599.106C85.155 601.451 79.1276 603.774 73.0989 606.106L68.7788 601.875C68.3816 603.358 67.5579 604.826 67.9519 605.267C68.99 606.423 70.5552 607.132 72.1863 608.209L69.3449 610.266C66.704 606.028 66.3518 605.869 63.8427 607.679L66.916 611.503L61.523 609.136C61.1376 610.276 60.7918 611.296 60.4485 612.298C62.2056 612.636 63.964 612.966 66.2146 613.387C65.3929 614.294 64.5836 615.176 63.9705 615.85L59.0431 614.345C58.7756 614.805 58.5044 615.26 58.2369 615.72L63.4416 619.723C63.397 620.653 63.3359 621.862 63.2735 623.049L59.7088 625.439L62.035 627.125C61.7576 628.172 61.4959 629.164 61.2382 630.141C61.1577 630.446 61.0777 630.749 60.9977 631.052L61.8038 631.352L64.45 628.982L70.0997 643.141L71.6259 643.098C76.464 636.963 71.4503 629.439 72.4485 622.473C81.618 619.248 89.9975 614.1 97.0291 607.371L97.007 607.368ZM107.831 646.489L100.578 642.234C95.3102 647.633 92.909 653.795 93.9867 659.08C100.551 656.788 104.082 651.967 107.853 646.492L107.831 646.489ZM128.194 647.165C129.091 642.633 130.149 637.269 130.959 633.16L97.9375 609.582C93.2105 612.862 87.661 616.733 81.6611 620.889C88.932 630.624 97.5586 638.698 107.86 643.931C109.199 642.58 109.971 641.1 110.981 640.976C111.898 640.865 113.116 642.223 114.304 643.015C113.654 644.435 113.18 645.432 112.665 646.532L115.803 648.192C116.152 646.924 116.436 645.864 116.727 644.814C121.16 644.987 120.246 647.805 119.96 650.557L128.194 647.165ZM148.246 667.262C147.5 663.576 142.39 660.764 146.793 658.085C148.589 658.148 150.069 658.208 151.554 658.268L151.772 656.94L147.356 654.421C147.344 654.284 147.331 654.146 147.318 654.009C146.755 647.889 146.199 641.844 145.648 635.824L135.021 633.466C131.354 641.287 131.811 649.621 131.786 657.63C124.187 662.312 116.623 666.686 113.024 676.083C126.234 677.493 135.236 671.805 143.778 665.446L148.246 667.262ZM109.808 674.76C109.824 674.789 109.841 674.817 109.859 674.845C109.852 674.866 109.841 674.885 109.829 674.904C109.821 674.862 109.808 674.76 109.808 674.76Z" fill="#001636" fill-opacity="0.92"/>
<path d="M92.1696 666.03C90.9636 669.391 90.0514 671.942 89.1348 674.493L87.7584 674.013C88.6092 670.87 89.4689 667.727 90.4043 664.269L95.24 666.042C94.9083 667.702 94.6123 669.204 94.0663 671.942L92.1696 666.03Z" fill="#001636" fill-opacity="0.92"/>
<path d="M81.2015 670.799L79.8315 670.08C81.5672 666.749 83.3042 663.419 85.0424 660.092L86.241 660.713C86.4619 665.063 82.894 667.443 81.2015 670.799Z" fill="#001636" fill-opacity="0.92"/>
<path d="M66.9061 661.047L65.3345 660.866L66.2197 648.941L68.2452 649.2C67.7946 653.147 67.3482 657.096 66.9061 661.047Z" fill="#001636" fill-opacity="0.92"/>
<path d="M122.057 690.702L118.201 691.013L119.578 684.019L120.808 684.22C120.857 684.933 120.964 685.65 120.96 686.36C120.955 687.07 120.827 687.658 120.717 688.675C121.46 687.422 122.009 686.467 122.56 685.526L123.492 685.866C123.018 687.442 122.554 689.015 122.057 690.702Z" fill="#001636" fill-opacity="0.92"/>
<path d="M62.5708 657.991L61.3273 657.625C61.7829 654.05 62.2401 650.475 62.6986 646.9L64.6378 647.323C63.9522 650.866 63.2631 654.422 62.5708 657.991Z" fill="#001636" fill-opacity="0.92"/>
<path d="M84.6945 672.885C83.6771 669.713 85.2469 665.72 88.5522 662.927L89.6312 663.437C88.0096 666.544 86.3879 669.652 84.6945 672.885Z" fill="#001636" fill-opacity="0.92"/>
<path d="M100.838 677.841C100.692 677.367 100.551 676.859 100.403 676.372C103.509 675.904 106.61 675.436 109.715 674.946C107.764 678.894 103.589 676.264 100.838 677.841Z" fill="#001636" fill-opacity="0.92"/>
<path d="M166.487 568.79L165.921 568.973C165.935 568.581 165.933 568.178 165.912 567.777L166.487 568.79ZM145.827 574.586C139.733 570.331 138.037 563.723 141.752 558.584C146.27 552.291 154.226 550.434 159.68 554.264C163.052 556.636 165.706 562.578 165.934 567.78L163.224 562.97L163.237 562.882L163.135 562.867C162.68 562.187 162.265 561.48 161.893 560.75C159.209 554.759 154.582 552.789 148.599 555.177C148.169 555.347 147.915 555.904 147.283 556.617L150.523 558.223L153.117 554.999C154.839 559.393 156.059 560.923 163.135 562.867L163.157 562.902L163.2 562.981C162.561 564.552 161.738 566.079 161.45 567.713C161.383 568.197 162.884 569.038 163.67 569.71L165.92 568.977C165.859 571.055 165.364 572.946 164.323 574.356C160.788 579.145 152.628 579.329 145.824 574.604L145.827 574.586ZM149.024 561.837C147.136 564.594 148.154 566.988 150.732 568.967C153.842 571.343 157.014 571.401 158.423 569.034C160.642 565.304 157.232 563.723 155.003 561.761C152.774 559.799 150.754 559.311 149.024 561.837ZM158.866 576.827C158.65 574.923 158.549 574.067 158.538 573.952L163.027 573.073C162.909 572.468 162.795 571.868 162.676 571.267C161.515 571.307 160.357 571.334 159.194 571.392C156.677 571.521 153.96 572.365 151.695 571.629C148.943 570.74 146.486 568.801 143.435 568.836C143.428 568.836 143.422 568.836 143.416 568.836L143.419 568.81C143.404 568.784 143.391 568.756 143.381 568.727C143.383 568.726 143.384 568.724 143.386 568.723C145.705 566.249 147.117 560.272 144.795 557.959C144.462 559.79 144.128 561.622 143.663 564.136L141.679 564.807L143.386 568.723L143.386 568.724C143.353 568.763 143.318 568.8 143.28 568.835L143.434 568.834C143.434 568.835 143.434 568.836 143.435 568.836C144.731 571.757 146.61 573.668 150.012 572.532L151.515 575.492L153.245 574.537L158.866 576.827Z" fill="#001636" fill-opacity="0.92"/>
<path d="M154.857 513.328C148.201 520.637 141.545 527.944 134.888 535.25L133.765 534.281L153.504 511.978L154.857 513.328Z" fill="#001636" fill-opacity="0.92"/>
<path d="M115.876 557.357C119.088 553.494 122.301 549.632 125.515 545.77L126.782 546.777L117.494 558.594L115.876 557.357Z" fill="#001636" fill-opacity="0.92"/>
<path d="M91.8559 625.12L95.6786 627.329C94.7985 628.685 94.0972 629.763 93.3826 630.84L91.8973 630.816L90.5129 625.723L91.8559 625.12Z" fill="#001636" fill-opacity="0.92"/>
<path d="M179.862 532.517L185.871 534.066L185.954 534.983L183.154 536.199C182.008 535.268 181.199 534.375 180.21 533.865C179.222 533.354 177.937 533.155 175.882 532.557L180.241 530.003L180.863 530.494C180.551 531.111 180.249 531.72 179.862 532.517Z" fill="#001636" fill-opacity="0.92"/>
<path d="M45.1902 694.6C41.0265 697.498 37.5561 701.083 31.7602 702.429C29.494 702.956 27.0328 702.17 24.5892 700.807C22.028 699.382 21.051 696.501 22.7338 694.728C24.1399 693.225 26.082 692.113 27.843 690.877C31.065 688.615 34.202 686.283 37.6063 684.201C43.4546 680.612 49.458 677.172 55.4577 673.727C56.8073 672.948 58.6391 672.817 60.7479 674.219C62.8567 675.621 63.1486 677.274 62.8645 678.787C62.7341 679.492 62.524 680.155 62.3367 680.88C60.1761 682.554 57.9743 684.199 55.8574 685.915C52.2863 688.802 49.0044 691.942 45.1902 694.6ZM40.1563 696.303C41.8437 695.142 43.9608 694.359 45.5646 693.118C50.594 689.16 55.567 685.154 60.3007 680.955C61.3279 680.064 61.4042 678.359 61.5386 676.884C61.5842 676.365 60.6142 675.142 59.8823 674.731C59.0979 674.364 58.2009 674.322 57.386 674.614C54.8816 675.834 52.4438 677.187 50.0831 678.668C44.0988 682.487 38.2146 686.396 32.1668 690.346C32.2469 690.547 32.4235 690.993 32.6714 691.639L30.701 690.538C30.6133 691.164 30.5474 691.634 30.4821 692.1C29.9042 692.136 29.1444 691.989 28.7855 692.232C26.9211 693.594 24.9574 694.893 23.4341 696.525C22.1289 697.92 23.9688 700.276 26.8423 701.179C30.9428 702.468 33.5018 701.267 35.8115 699.85C37.4145 698.84 38.5838 697.385 40.1563 696.303Z" fill="#001636" fill-opacity="0.92"/>
<path d="M15.791 707.746C12.2659 705.569 10.1967 702.403 11.186 700.718C12.2974 698.838 16.2436 698.589 19.0234 700.289C21.9335 702.058 24.5792 705.07 22.7438 707.545C21.798 709.209 18.3071 709.3 15.791 707.746ZM18.2877 704.929L18.2896 704.929L18.6774 704.885L20.4504 706.945C20.3121 704.712 18.7611 703.901 16.7374 703.534L15.2065 701.806C12.7587 701.375 13.0498 702.71 13.5018 703.96C14.2774 706.089 16.6433 707.717 19.1865 707.885C18.8909 706.908 18.5928 705.917 18.2896 704.929C18.2892 704.928 18.2888 704.926 18.2883 704.925L18.2877 704.929ZM21.9121 706.59C22.5083 705.104 21.6221 702.96 19.76 701.697C18.1111 700.586 16.5001 700.01 14.8867 700.611C18.4799 702.173 18.4799 702.173 21.895 706.583L21.9121 706.59Z" fill="#001636" fill-opacity="0.92"/>
<path d="M9.44209 716.067C6.66759 717.55 1.97917 715.531 0.18024 712.045C-0.0222558 711.575 -0.0552462 711.048 0.0869373 710.556C0.229121 710.064 0.53756 709.637 0.959372 709.348C3.16536 708.166 5.53558 707.322 7.99093 706.845C9.14405 706.632 11.2219 707.45 12.7626 708.206C14.6277 709.126 15.1103 710.769 13.8614 712.761C12.7906 713.611 11.3364 715.071 9.44209 716.067ZM13.5837 711.749C13.3285 710.93 13.3515 709.67 12.6807 709.177C11.7068 708.465 9.72336 707.746 9.05934 708.01C6.67026 708.957 4.38623 710.152 2.24438 711.576C1.107 712.32 1.88497 713.562 3.56585 714.573C5.24673 715.584 6.96811 716.049 8.17634 715.345C9.98279 714.333 11.5935 713.107 13.5812 711.767L13.5837 711.749Z" fill="#001636" fill-opacity="0.92"/>
<path d="M53.1852 747.301C49.4251 745.159 47.9265 742.589 49.2839 740.273C51.0109 737.348 52.8794 734.474 54.6653 731.611C57.663 732.754 58.7501 734.044 59.4156 735.83C60.8477 739.713 60.1263 742.834 59.226 745.88C58.6117 748.011 55.5054 748.61 53.1852 747.301ZM56.4354 744.998C57.0556 741.857 57.4868 738.681 57.7267 735.488C57.771 734.947 56.6879 733.984 56.127 733.221L55.2541 733.012C53.503 735.852 51.5614 738.602 49.9957 741.568C49.2396 743.005 50.6787 744.969 52.8513 746.045C55.1939 747.163 56.1919 746.253 56.4487 744.999L56.4354 744.998Z" fill="#001636" fill-opacity="0.92"/>
<path d="M58.3942 728.543C56.4382 727.403 55.5379 725.972 56.1137 724.695C56.5304 723.902 56.9991 723.138 57.5167 722.408L57.2155 722.207C57.9701 721.2 58.6943 720.152 59.5052 719.194C60.1132 718.46 61.2403 718.239 62.4604 719.158C63.168 719.71 63.879 720.947 63.752 721.499C63.2284 723.745 62.5191 725.944 61.6315 728.072C61.2282 729.051 60.28 729.637 58.3942 728.543ZM59.3412 728.803C61.3147 725.954 63.2081 723.74 62.5162 720.048C61.9543 719.969 61.6098 719.884 61.5582 719.963C60.2818 722.087 58.9675 724.192 57.8574 726.417C57.7021 726.721 58.5855 727.628 59.3412 728.803Z" fill="#001636" fill-opacity="0.92"/>
<path d="M84.3099 759.218C82.0752 758.07 80.1133 754.815 80.4467 752.53C80.7078 750.666 81.397 748.966 81.6334 747.085C82.2375 741.806 82.593 736.433 83.2476 731.179C83.4954 728.793 84.0917 726.457 85.0173 724.245C85.3731 723.444 87.1767 722.87 88.3627 723.227C89.2314 723.49 90.0049 724.002 90.5883 724.699C91.1718 725.397 91.5397 726.249 91.6473 727.154C92.0587 731.978 92.663 736.875 92.6515 741.563C92.6408 746.6 92.0402 751.436 91.6306 756.357C91.5396 757.013 91.3694 757.655 91.1238 758.269C89.8256 760.227 86.7924 760.496 84.3099 759.218ZM82.4688 754.97C82.7059 753.45 82.9431 751.927 83.1805 750.404L82.1385 749.985L81.4564 754.565L82.4688 754.97ZM89.9979 751.782C90.2657 745.274 90.4536 738.737 90.5613 732.17C90.6111 730.158 90.4546 728.145 90.094 726.165C89.9751 725.533 88.8101 724.382 87.993 723.999C87.4333 723.744 86.1392 724.19 86.0279 724.695C85.3407 727.862 84.8395 731.119 84.3857 734.391C83.7392 739.007 83.1861 743.664 82.6337 747.995C85.3875 751.878 83.6785 754.064 83.1815 756.968C84.2914 758.029 85.4799 758.369 86.5011 757.68C88.5683 756.288 89.8799 754.363 89.9979 751.782ZM90.2889 755.63L90.2811 755.638L87.2547 759C89.5627 759.085 90.5148 758.059 90.2811 755.638C90.2807 755.635 90.2804 755.632 90.2801 755.628L90.2889 755.63Z" fill="#001636" fill-opacity="0.92"/>
<path d="M91.6792 718.938C90.5454 719.271 88.8275 719.491 87.6239 718.904C86.7081 718.454 85.6246 716.495 85.6034 715.519C85.6282 713.368 85.9173 711.229 86.464 709.149C86.8768 707.297 87.5703 705.566 88.1544 703.747C88.7976 703.245 89.3263 702.627 90.1025 702.27C91.5478 701.614 92.9537 702.301 93.4061 703.967C93.9091 705.637 94.1436 707.377 94.1007 709.121C93.8708 711.769 93.4693 714.4 92.8986 716.996C92.7361 717.769 92.4274 718.717 91.6792 718.938ZM91.2929 702.854C88.1384 703.957 85.2203 714.292 87.1714 717.464C90.5289 717.585 93.8337 705.874 91.2929 702.854Z" fill="#001636" fill-opacity="0.92"/>
<path d="M89.1446 698.654C87.0745 697.33 86.2685 695.161 87.26 693.621C88.1055 692.319 90.198 692.324 92.2971 693.634C94.4709 694.991 95.5714 697.473 94.6352 698.907C93.7538 700.272 91.5039 700.168 89.1446 698.654ZM91.5744 697.023C92.2235 696.286 93.1223 695.376 91.4282 694.105C89.9999 693.03 88.9269 693.444 88.3054 694.371L90.2486 695.731C89.9738 695.946 89.6856 696.142 89.3857 696.32C89.0545 696.471 88.7152 696.603 88.3695 696.715C90.1517 698.388 90.9481 697.726 91.5744 697.023Z" fill="#001636" fill-opacity="0.92"/>
<path d="M17.0133 725.328C16.4628 724.685 16.0639 723.99 15.5562 723.267C16.2087 719.316 19.4947 717.145 22.4605 714.78C24.9698 712.775 27.6208 710.886 30.3471 709.07C31.4504 708.343 32.8747 707.901 34.2287 707.413C34.9159 707.125 35.6716 707.044 36.4039 707.18C37.1361 707.315 37.8134 707.661 38.3533 708.176C39.8838 709.455 40.1236 710.739 39.7649 711.883C39.542 712.48 39.211 713.03 38.7887 713.506C35.2219 718.037 31.626 722.55 28.0383 727.068C27.7479 727.51 27.4094 727.918 27.029 728.284C23.9064 730.868 20.4357 729.301 17.0133 725.328ZM25.7664 727.572C30.0282 722.352 34.1779 717.052 38.2153 711.674C38.6688 711.077 38.277 709.912 38.2819 709.008L37.2926 708.47C36.7408 708.641 36.151 708.761 35.6322 708.987C29.679 711.456 25.8598 715.825 20.9935 719.262C19.6816 720.191 19.3885 721.575 19.4918 723.125C19.5298 723.723 20.3714 724.607 20.9921 725.296C21.4306 725.667 21.9143 725.98 22.4314 726.228C22.363 726.427 22.2908 726.62 22.2186 726.814C21.3742 726.4 20.3785 726.101 19.6887 725.551C18.9177 724.904 18.4242 724.015 17.8629 723.32C17.8965 725.045 19.1958 726.912 21.1928 728.018C23.599 729.326 24.9663 728.582 25.7841 727.574L25.7664 727.572Z" fill="#001636" fill-opacity="0.92"/>
<path d="M40.4665 706.514C38.4161 705.243 37.819 704.126 38.534 702.919C39.3553 701.532 41.8802 701.155 43.4771 702.186C45.3081 703.349 46.1603 704.995 45.5323 706.097C44.6129 707.733 42.6782 707.89 40.4665 706.514ZM45.1166 706.133C44.4478 704.853 44.2464 703.779 43.6093 703.368C42.3262 702.544 40.6468 702.167 40.4683 703.441C40.3645 704.182 41.225 705.317 41.6504 706.274L45.1166 706.133Z" fill="#001636" fill-opacity="0.92"/>
<path d="M66.2504 748.03C64.3458 746.973 62.9176 744.255 63.3257 742.018C64.0583 738.011 64.8086 734.006 65.8227 730.148C67.1825 724.948 68.7839 719.86 70.3176 714.739C70.6286 713.71 71.1091 712.759 71.5087 711.775L71.3333 711.61C72.3667 710.673 73.1461 709.489 74.4715 708.884C75.3929 708.457 77.0519 708.464 78.3796 708.905C79.1343 709.152 79.7991 709.618 80.2903 710.244C80.7814 710.87 81.0769 711.628 81.1395 712.422C81.4278 715.582 81.9767 718.878 81.577 721.764C80.4515 729.993 78.9466 738.064 77.5011 746.163C76.7244 750.516 72.0295 751.248 66.2504 748.03ZM74.1954 746.059C75.3667 739.886 76.5025 733.709 77.6914 727.539C78.5143 723.21 79.4561 718.934 80.1683 714.558C80.4537 712.81 80.1283 710.881 76.5413 708.985C75.7589 709.418 74.5307 709.684 74.0808 710.449C72.7449 712.55 71.6454 714.794 70.8025 717.139C69.117 722.184 67.5112 727.272 66.2621 732.518C65.4305 736.319 64.9033 740.18 64.6855 744.065C64.5427 746.051 65.9081 747.221 68.5672 748.044C72.5058 749.265 73.6466 748.883 74.1866 746.057L74.1954 746.059ZM75.2195 747.733C78.0501 740.858 78.2212 732.743 79.7261 725.219C78.5784 728.841 77.6808 732.538 77.0396 736.284C76.3646 740.072 75.8174 743.915 75.2284 747.734L75.2195 747.733Z" fill="#001636" fill-opacity="0.92"/>
<path d="M83.468 704.779C82.351 706.699 81.1487 706.941 78.6354 705.754C76.5496 704.767 74.3629 701.924 74.5647 700.065C74.8889 696.756 75.405 693.469 76.1104 690.22C76.5201 688.422 78.6723 688.033 80.9293 688.184C81.6307 688.233 83.3287 689.54 83.686 690.274C84.3232 691.576 84.6523 693.007 84.6475 694.457C84.6 698.017 84.268 701.483 84.0478 704.987L83.468 704.779ZM76.1263 697.225C77.0479 694.639 77.9694 692.053 79.0416 689.035C75.8941 690.927 76.8201 694.494 76.1275 697.216L76.1263 697.225ZM82.7192 703.587C83.0744 700.31 83.4865 697.045 83.5755 693.672C83.6068 692.418 82.8238 690.891 82.4118 689.484L81.5544 689.163C81.0499 689.545 80.3808 689.781 80.0736 690.267C79.3942 691.221 78.8849 692.286 78.5683 693.414C77.8652 696.411 77.3404 699.448 76.9968 702.508C76.9344 703.115 78.1395 704.657 78.942 705.046C79.8445 705.463 81.079 705.184 81.9401 704.93C82.4237 704.763 82.6617 704.126 82.7186 703.591L82.7192 703.587Z" fill="#001636" fill-opacity="0.92"/>
<path d="M66.9613 737.053C67.3563 733.202 67.9182 729.416 69.325 726.007L70.0561 726.327L67.7138 737.349L66.9613 737.053Z" fill="#001636" fill-opacity="0.92"/>
<path d="M47.5724 722.947C45.5269 722.736 43.734 721.365 43.9479 719.838C44.2328 717.321 44.7572 714.801 45.9706 712.772C48.3345 708.778 51.5334 705.263 53.9384 701.298C57.3895 695.66 60.3934 689.737 63.7826 684.059C64.5731 682.731 66.0759 681.825 67.3909 680.842C68.4 680.079 69.9062 680.405 71.4873 681.42C73.0684 682.435 73.6995 683.565 73.7064 684.901C73.6588 688.462 71.2251 690.635 69.6473 693.301C69.2272 693.897 68.7709 694.466 68.2809 695.005C65.3645 700.786 62.3265 706.985 59.1177 713.082C57.5786 716.027 55.8429 718.865 53.9223 721.575C52.7338 723.168 50.1525 723.207 47.5724 722.947ZM61.2344 690.625C62.5207 688.57 63.8023 686.516 65.0793 684.463L64.8738 684.385L61.0516 690.513L61.2344 690.625ZM49.3387 722.06L46.6763 715.302C45.0471 717.014 45.0137 718.734 46.9202 722L49.3387 722.06ZM53.1333 720.735C54.782 718.175 56.427 715.609 57.9095 712.948C62.4926 704.736 67.0385 696.5 71.4881 688.21C72.1052 687.025 72.2901 685.544 72.3942 684.092C72.3414 683.698 72.2087 683.319 72.0042 682.979C71.7997 682.639 71.5277 682.344 71.2052 682.113C70.3742 681.725 69.4412 681.614 68.5429 681.797C67.9462 681.934 67.7019 682.583 67.3979 683.079C63.5403 689.203 59.6201 695.291 55.8871 701.491C53.5005 705.455 50.1236 708.79 48.8302 713.451C47.9836 716.501 48.659 719.312 51.6622 721.736C52.1321 721.409 52.8076 721.191 53.1023 720.731L53.1333 720.735Z" fill="#001636" fill-opacity="0.92"/>
<path d="M39.965 739.837C36.7968 738.204 34.8196 735.539 35.2825 733.201C36.0426 729.352 37.1526 725.711 41.6634 724.328C43.6767 723.706 46.853 725.281 47.2362 727.377C48 731.586 48.3289 735.679 46.905 738.792C45.4793 741.112 42.9845 741.403 39.965 739.837ZM45.2194 739.038C45.9533 738.25 46.4031 737.238 46.4973 736.163C46.5476 733.002 46.3038 729.685 46.1882 726.614C43.9328 724.937 42.4039 724.645 41.3221 725.927C39.1684 728.421 37.3285 731.154 37.1036 734.757C37.0042 736.368 38.0733 737.818 40.2264 738.968C42.3795 740.118 44.2449 740.264 45.2176 739.052L45.2194 739.038Z" fill="#001636" fill-opacity="0.92"/>
<path d="M37.7735 736.096C38.1497 734.538 38.5214 732.979 38.9401 731.245L40.8828 732.062C41.728 733.404 39.9263 736.54 37.7735 736.096Z" fill="#001636" fill-opacity="0.92"/>
<path d="M159.337 510.514L163.632 514.669C168.202 513.607 172.636 512.77 176.882 513.473C186.818 515.096 190.693 522.958 193.723 531.085C195.499 535.862 197.725 537.647 203.156 537.358C203.086 536.411 203.017 535.456 202.919 534.192L206.235 535.316C208.394 527.373 210.695 519.803 212.47 512.087C213.995 505.448 215.802 498.705 215.921 491.895C216.136 479.378 205.053 471.803 194.695 476.54L194.671 479.931L190.598 477.256C176.775 484.958 163.346 493.005 159.346 510.516L159.337 510.514Z" fill="#EDFF7E" fill-opacity="0.76"/>
<path fill-rule="evenodd" clip-rule="evenodd" d="M116.673 561.33C121.896 566.295 126.986 571.435 132.389 576.181C142.474 585.018 153.35 592.717 166.175 597.069C169.934 598.346 173.842 599.115 177.741 600.135C186.083 580.733 194.056 562.171 202.364 542.855L204.621 542.3C202.084 538.416 198.324 538.397 194.993 537.121C192.356 546.64 188.453 555.211 177.089 555.637C166.661 556.008 156.996 549.1 152.987 540.364C148 529.494 151.893 521.954 161.122 516.257C156.814 508.914 153.335 508.5 148.53 514.241C146.99 516.088 145.406 517.897 143.842 519.723C134.557 530.554 125.245 541.35 116.021 552.23C113.542 555.18 113.542 558.336 116.673 561.33ZM165.921 568.973L166.487 568.79L165.912 567.777C165.933 568.178 165.935 568.581 165.921 568.973ZM145.827 574.586C139.733 570.331 138.037 563.723 141.752 558.584C146.27 552.291 154.226 550.434 159.68 554.264C163.052 556.636 165.706 562.578 165.934 567.78L163.224 562.97L163.237 562.882L163.135 562.867L163.157 562.902L163.2 562.981C162.561 564.552 161.738 566.079 161.45 567.713C161.383 568.197 162.884 569.038 163.67 569.71L165.92 568.977C165.859 571.055 165.364 572.946 164.323 574.356C160.788 579.145 152.628 579.329 145.824 574.604L145.827 574.586ZM134.888 535.25C141.545 527.944 148.201 520.637 154.857 513.328L153.504 511.978L133.765 534.281L134.888 535.25ZM125.515 545.77C122.301 549.632 119.088 553.494 115.876 557.357L117.494 558.594L126.782 546.777L125.515 545.77Z" fill="#EDFF7E" fill-opacity="0.76"/>
<path d="M94.7064 585.433C93.2882 588.28 93.1642 591.807 92.4644 594.999L95.5976 595.948L94.5552 596.498C94.9413 598.218 94.7882 600.374 95.8194 601.578C99.1395 605.407 102.674 609.043 106.407 612.469C118.505 623.681 131.877 632.307 148.707 633.793C153.564 634.225 157.507 632.576 160.16 629.03C165.433 621.984 170.333 614.662 175.34 607.42C176.138 606.26 176.686 604.925 177.648 603.114C170.472 600.627 163.745 599.121 157.78 596.071C142.286 588.132 128.977 577.13 117.01 564.587C112.598 559.954 109.669 559.514 106.422 564.561C102.146 571.299 98.2421 578.268 94.7285 585.436L94.7064 585.433Z" fill="#EDFF7E" fill-opacity="0.76"/>
<path fill-rule="evenodd" clip-rule="evenodd" d="M128.194 647.165C129.091 642.633 130.149 637.269 130.959 633.16L97.9375 609.582C93.2105 612.862 87.661 616.733 81.6611 620.889C88.932 630.624 97.5586 638.698 107.86 643.931C109.199 642.58 109.971 641.1 110.981 640.976C111.898 640.865 113.116 642.223 114.304 643.015C113.654 644.435 113.18 645.432 112.665 646.532L115.803 648.192C116.152 646.924 116.436 645.864 116.727 644.814C121.16 644.987 120.246 647.805 119.96 650.557L128.194 647.165ZM95.6786 627.329L91.8559 625.12L90.5129 625.723L91.8973 630.816L93.3826 630.84C94.0972 629.763 94.7985 628.685 95.6786 627.329Z" fill="#EDFF7E" fill-opacity="0.76"/>
<path d="M148.246 667.262C147.5 663.576 142.39 660.764 146.793 658.085C148.589 658.148 150.069 658.208 151.554 658.268L151.772 656.94L147.356 654.421L147.318 654.009C146.755 647.889 146.199 641.844 145.648 635.824L135.021 633.466C131.354 641.287 131.811 649.621 131.786 657.63C124.187 662.312 116.623 666.686 113.024 676.083C126.234 677.493 135.236 671.805 143.778 665.446L148.246 667.262Z" fill="#EDFF7E" fill-opacity="0.76"/>
<path d="M97.007 607.368C95.1296 604.668 93.4355 602.27 91.2216 599.106C85.155 601.451 79.1276 603.774 73.0989 606.106L68.7788 601.875C68.3816 603.358 67.5579 604.826 67.9519 605.267C68.99 606.423 70.5552 607.132 72.1863 608.209L69.3449 610.266C66.704 606.028 66.3518 605.869 63.8427 607.679L66.916 611.503L61.523 609.136C61.1376 610.276 60.7918 611.296 60.4485 612.298C62.2056 612.636 63.964 612.966 66.2146 613.387C65.3929 614.294 64.5836 615.176 63.9705 615.85L59.0431 614.345C58.7756 614.805 58.5044 615.26 58.2369 615.72L63.4416 619.723C63.397 620.653 63.3359 621.862 63.2735 623.049L59.7088 625.439L62.035 627.125C61.7576 628.172 61.4959 629.164 61.2382 630.141L60.9977 631.052L61.8038 631.352L64.45 628.982L70.0997 643.141L71.6259 643.098C76.464 636.963 71.4503 629.439 72.4485 622.473C81.618 619.248 89.9975 614.1 97.0291 607.371L97.007 607.368Z" fill="#EDFF7E" fill-opacity="0.76"/>
<path d="M107.831 646.489L100.578 642.234C95.3102 647.633 92.909 653.795 93.9867 659.08C100.551 656.788 104.082 651.967 107.853 646.492L107.831 646.489Z" fill="#EDFF7E" fill-opacity="0.76"/>
<path d="M85.8314 592.434L84.7769 590.977L83.945 591.344C84.0393 593.892 84.1063 596.441 84.2001 599.636L90.7255 597.107C90.5942 594.373 90.4742 591.848 90.3592 589.32L89.1541 588.647C88.0483 589.94 86.9204 591.229 85.8535 592.437L85.8314 592.434Z" fill="#EDFF7E" fill-opacity="0.76"/>
<path d="M154.52 635.74L147.922 636.113L147.331 637.112C148.27 637.973 149.167 639.462 150.144 639.573C152.358 639.804 154.714 639.538 154.52 635.74Z" fill="#EDFF7E" fill-opacity="0.76"/>
<path d="M149.436 648.685C149.403 650.692 149.381 652.295 149.355 654.216L149.355 654.223L153.069 654.539L151.457 651.686L154.501 649.082L149.436 648.685Z" fill="#001636" fill-opacity="0.92"/>
<path d="M149.024 561.837C147.136 564.594 148.154 566.988 150.732 568.967C153.842 571.343 157.014 571.401 158.423 569.034C160.642 565.304 157.232 563.723 155.003 561.761C152.774 559.799 150.754 559.311 149.024 561.837Z" fill="#EDFF7E" fill-opacity="0.76"/>
<path d="M163.135 562.867C162.68 562.187 162.265 561.48 161.893 560.75C159.209 554.759 154.582 552.789 148.599 555.177C148.169 555.347 147.915 555.904 147.283 556.617L150.523 558.223L153.117 554.999C154.839 559.393 156.059 560.923 163.135 562.867Z" fill="#EDFF7E" fill-opacity="0.76"/>
<path d="M158.866 576.827C158.65 574.923 158.549 574.067 158.538 573.952L163.027 573.073C162.909 572.468 162.795 571.868 162.676 571.267C161.515 571.307 160.357 571.334 159.194 571.392C156.677 571.521 153.96 572.365 151.695 571.629C148.943 570.74 146.486 568.801 143.435 568.836C144.731 571.757 146.61 573.668 150.012 572.532L151.515 575.492L153.245 574.537L158.866 576.827Z" fill="#EDFF7E" fill-opacity="0.76"/>
<path d="M143.386 568.723C145.705 566.249 147.117 560.272 144.795 557.959C144.462 559.79 144.128 561.622 143.663 564.136L141.679 564.807L143.386 568.723Z" fill="#EDFF7E" fill-opacity="0.76"/>
<path d="M158.319 524.87L165.138 517.511C160.289 518.249 156.69 522.236 158.317 524.888L158.319 524.87Z" fill="#EDFF7E" fill-opacity="0.76"/>
<path d="M174.838 516.008L180.963 518.734L181.658 517.247L175.607 514.262C175.367 514.858 175.103 515.433 174.838 516.008Z" fill="#EDFF7E" fill-opacity="0.76"/>
<path d="M187.271 526.323L189.042 525.047C187.466 522.924 185.892 520.796 184.32 518.664C183.82 519.01 183.322 519.347 182.823 519.689L187.271 526.323Z" fill="#EDFF7E" fill-opacity="0.76"/>
<path d="M189.919 534.926L192.209 533.194C191.074 527.837 190.842 527.591 187.996 528.684L189.919 534.926Z" fill="#EDFF7E" fill-opacity="0.76"/>
<path d="M184.895 547.055C189.333 547.577 192.515 543.055 192.433 536.751C191.669 536.255 190.782 535.678 189.926 535.101C189.726 537.652 189.519 540.198 189.315 542.685C184.356 545.883 179.732 551.161 172.149 548.91C165.371 546.895 159.758 543.392 157.203 536.061C156.359 536.707 155.689 537.205 154.573 538.057L158.302 541.838C156.969 545.525 159.795 545.738 161.651 545.592L164.654 550.497C166.158 549.749 166.992 549.328 168.254 548.696C168.337 550.161 168.38 551.018 168.43 551.822C176.79 555.291 181.462 554.692 186.17 549.611L184.895 547.055Z" fill="#EDFF7E" fill-opacity="0.76"/>
<path d="M154.992 524.853C154.344 526.745 153.7 528.636 152.991 530.7L156.774 530.781C156.665 528.76 156.567 526.877 156.467 524.989L154.992 524.853Z" fill="#EDFF7E" fill-opacity="0.76"/>
<path fill-rule="evenodd" clip-rule="evenodd" d="M161.004 538.521C164.527 545.386 172.693 548.983 179.471 546.711C186.505 544.353 189.502 538.932 187.199 531.704C186.222 528.778 184.664 526.081 182.621 523.775C180.816 521.746 178.224 519.737 175.706 519.065C169.652 517.455 164.729 519.301 161.89 524.916C158.078 529.009 158.524 533.68 161.024 538.542L161.004 538.521ZM185.871 534.066L179.862 532.517C180.249 531.72 180.551 531.111 180.863 530.494L180.241 530.003L175.882 532.557C177.937 533.155 179.222 533.354 180.21 533.865C181.199 534.375 182.008 535.268 183.154 536.199L185.954 534.983L185.871 534.066Z" fill="#EDFF7E" fill-opacity="0.76"/>
<path d="M40.1563 696.303C41.8437 695.142 43.9608 694.359 45.5646 693.118C50.594 689.16 55.567 685.154 60.3007 680.955C61.3279 680.064 61.4042 678.359 61.5386 676.884C61.5842 676.365 60.6142 675.142 59.8823 674.731C59.0979 674.364 58.2009 674.322 57.386 674.614C54.8816 675.834 52.4438 677.187 50.0831 678.668C44.0988 682.487 38.2146 686.396 32.1668 690.346C32.2469 690.547 32.4235 690.993 32.6714 691.639L30.701 690.538L30.4821 692.1C29.9042 692.136 29.1444 691.989 28.7855 692.232C26.9211 693.594 24.9574 694.893 23.4341 696.525C22.1289 697.92 23.9688 700.276 26.8423 701.179C30.9428 702.468 33.5018 701.267 35.8115 699.85C37.4145 698.84 38.5838 697.385 40.1563 696.303Z" fill="#5BFFA7" fill-opacity="0.64"/>
<path d="M53.1333 720.735C54.782 718.175 56.427 715.609 57.9095 712.948C62.4926 704.736 67.0385 696.5 71.4881 688.21C72.1052 687.025 72.2901 685.544 72.3942 684.092C72.3414 683.698 72.2087 683.319 72.0042 682.979C71.7997 682.639 71.5277 682.344 71.2052 682.113C70.3742 681.725 69.4412 681.614 68.5429 681.797C67.9462 681.934 67.7019 682.583 67.3979 683.079C63.5403 689.203 59.6201 695.291 55.8871 701.491C53.5005 705.455 50.1236 708.79 48.8302 713.451C47.9836 716.501 48.659 719.312 51.6622 721.736C52.1321 721.409 52.8076 721.191 53.1023 720.731L53.1333 720.735Z" fill="#5BFFA7" fill-opacity="0.64"/>
<path fill-rule="evenodd" clip-rule="evenodd" d="M74.1954 746.059C75.3667 739.886 76.5025 733.709 77.6914 727.539C78.5143 723.21 79.4561 718.934 80.1683 714.558C80.4537 712.81 80.1283 710.881 76.5413 708.985C75.7589 709.418 74.5307 709.684 74.0808 710.449C72.7449 712.55 71.6454 714.794 70.8025 717.139C69.117 722.184 67.5112 727.272 66.2621 732.518C65.4305 736.319 64.9033 740.18 64.6855 744.065C64.5427 746.051 65.9081 747.221 68.5672 748.044C72.5058 749.265 73.6466 748.883 74.1866 746.057L74.1954 746.059ZM69.325 726.007C67.9182 729.416 67.3563 733.202 66.9613 737.053L67.7138 737.349L70.0561 726.327L69.325 726.007Z" fill="#5BFFA7" fill-opacity="0.64"/>
<path d="M89.9979 751.782C90.2657 745.274 90.4536 738.737 90.5613 732.17C90.6111 730.158 90.4546 728.145 90.094 726.165C89.9751 725.533 88.8101 724.382 87.993 723.999C87.4333 723.744 86.1392 724.19 86.0279 724.695C85.3407 727.862 84.8395 731.119 84.3857 734.391C83.7392 739.007 83.1861 743.664 82.6337 747.995C85.3875 751.878 83.6785 754.064 83.1815 756.968C84.2914 758.029 85.4799 758.369 86.5011 757.68C88.5683 756.288 89.8799 754.363 89.9979 751.782Z" fill="#5BFFA7" fill-opacity="0.64"/>
<path d="M82.7192 703.587C83.0744 700.31 83.4865 697.045 83.5755 693.672C83.6068 692.418 82.8238 690.891 82.4118 689.484L81.5544 689.163C81.0499 689.545 80.3808 689.781 80.0736 690.267C79.3942 691.221 78.8849 692.286 78.5683 693.414C77.8652 696.411 77.3404 699.448 76.9968 702.508C76.9344 703.115 78.1395 704.657 78.942 705.046C79.8445 705.463 81.079 705.184 81.9401 704.93C82.4237 704.763 82.6617 704.126 82.7186 703.591L82.7192 703.587Z" fill="#5BFFA7" fill-opacity="0.64"/>
<path d="M91.2929 702.854C88.1384 703.957 85.2203 714.292 87.1714 717.464C90.5289 717.585 93.8337 705.874 91.2929 702.854Z" fill="#5BFFA7" fill-opacity="0.64"/>
<path d="M91.5744 697.023C92.2235 696.286 93.1223 695.376 91.4282 694.105C89.9999 693.03 88.9269 693.444 88.3054 694.371L90.2486 695.731C89.9738 695.946 89.6856 696.142 89.3857 696.32C89.0545 696.471 88.7152 696.603 88.3695 696.715C90.1517 698.388 90.9481 697.726 91.5744 697.023Z" fill="#5BFFA7" fill-opacity="0.64"/>
<path d="M56.4354 744.998C57.0556 741.857 57.4868 738.681 57.7267 735.488C57.771 734.947 56.6879 733.984 56.127 733.221L55.2541 733.012C53.503 735.852 51.5614 738.602 49.9957 741.568C49.2396 743.005 50.6787 744.969 52.8513 746.045C55.1939 747.163 56.1919 746.253 56.4487 744.999L56.4354 744.998Z" fill="#5BFFA7" fill-opacity="0.64"/>
<path d="M59.3412 728.803C61.3147 725.954 63.2081 723.74 62.5162 720.048C61.9543 719.969 61.6098 719.884 61.5582 719.963C60.2818 722.087 58.9675 724.192 57.8574 726.417C57.7021 726.721 58.5855 727.628 59.3412 728.803Z" fill="#5BFFA7" fill-opacity="0.64"/>
<path fill-rule="evenodd" clip-rule="evenodd" d="M45.2194 739.038C45.9533 738.25 46.4031 737.238 46.4973 736.163C46.5476 733.002 46.3038 729.685 46.1882 726.614C43.9328 724.937 42.4039 724.645 41.3221 725.927C39.1684 728.421 37.3285 731.154 37.1036 734.757C37.0042 736.368 38.0733 737.818 40.2264 738.968C42.3795 740.118 44.2449 740.264 45.2176 739.052L45.2194 739.038ZM38.9401 731.245C38.5214 732.979 38.1497 734.538 37.7735 736.096C39.9263 736.54 41.728 733.404 40.8828 732.062L38.9401 731.245Z" fill="#5BFFA7" fill-opacity="0.64"/>
<path d="M25.7664 727.572C30.0282 722.352 34.1779 717.052 38.2153 711.674C38.6688 711.077 38.277 709.912 38.2819 709.008L37.2926 708.47C36.7408 708.641 36.151 708.761 35.6322 708.987C29.679 711.456 25.8598 715.825 20.9935 719.262C19.6816 720.191 19.3885 721.575 19.4918 723.125C19.5298 723.723 20.3714 724.607 20.9921 725.296C21.4306 725.667 21.9143 725.98 22.4314 726.228C22.363 726.427 22.2908 726.62 22.2186 726.814C21.3742 726.4 20.3785 726.101 19.6887 725.551C18.9177 724.904 18.4242 724.015 17.8629 723.32C17.8965 725.045 19.1958 726.912 21.1928 728.018C23.599 729.326 24.9663 728.582 25.7841 727.574L25.7664 727.572Z" fill="#5BFFA7" fill-opacity="0.64"/>
<path d="M49.3387 722.06L46.6763 715.302C45.0471 717.014 45.0137 718.734 46.9202 722L49.3387 722.06Z" fill="#5BFFA7" fill-opacity="0.64"/>
<path d="M45.1166 706.133C44.4478 704.853 44.2464 703.779 43.6093 703.368C42.3262 702.544 40.6468 702.167 40.4683 703.441C40.3645 704.182 41.225 705.317 41.6504 706.274L45.1166 706.133Z" fill="#5BFFA7" fill-opacity="0.64"/>
<path d="M13.5837 711.749C13.3285 710.93 13.3515 709.67 12.6807 709.177C11.7068 708.465 9.72336 707.746 9.05934 708.01C6.67026 708.957 4.38623 710.152 2.24438 711.576C1.107 712.32 1.88497 713.562 3.56585 714.573C5.24673 715.584 6.96811 716.049 8.17634 715.345C9.98279 714.333 11.5935 713.107 13.5812 711.767L13.5837 711.749Z" fill="#5BFFA7" fill-opacity="0.64"/>
<path d="M18.2896 704.929L18.2877 704.929L18.2883 704.925C18.2888 704.926 18.2892 704.928 18.2896 704.929L18.6774 704.885L20.4504 706.945C20.3121 704.712 18.7611 703.901 16.7374 703.534L15.2065 701.806C12.7587 701.375 13.0498 702.71 13.5018 703.96C14.2774 706.089 16.6433 707.717 19.1865 707.885C18.8909 706.908 18.5928 705.917 18.2896 704.929Z" fill="#5BFFA7" fill-opacity="0.64"/>
<path d="M21.9121 706.59C22.5083 705.104 21.6221 702.96 19.76 701.697C18.1111 700.586 16.5001 700.01 14.8867 700.611C18.4799 702.173 18.4799 702.173 21.895 706.583L21.9121 706.59Z" fill="#5BFFA7" fill-opacity="0.64"/>
<path d="M76.1263 697.225C77.0479 694.639 77.9694 692.053 79.0416 689.035C75.8941 690.927 76.8201 694.494 76.1275 697.216L76.1263 697.225Z" fill="#5BFFA7" fill-opacity="0.64"/>
<path d="M90.2811 755.638L87.2547 759C89.5627 759.085 90.5148 758.059 90.2811 755.638Z" fill="#5BFFA7" fill-opacity="0.64"/>
<path d="M82.4688 754.97L83.1805 750.404L82.1385 749.985L81.4564 754.565L82.4688 754.97Z" fill="#5BFFA7" fill-opacity="0.64"/>
</svg>
