<svg width="54" height="66" viewBox="0 0 54 66" fill="none" xmlns="http://www.w3.org/2000/svg">
<mask id="path-1-inside-1_458_333" fill="white">
<path d="M29.3523 52.7051C36.4111 52.7051 43.4797 50.127 48.8851 44.9609C49.2601 44.5953 49.2698 44.0044 48.8948 43.6388C48.5198 43.2732 47.9137 43.2637 47.5386 43.6293C37.4119 53.3046 21.0148 53.23 10.9928 43.4511C1.16406 33.8698 0.894869 18.3353 10.233 8.42494L12.2431 10.3845C3.99145 19.235 4.22256 32.961 12.9838 41.5012C17.4942 45.8982 23.428 48.1016 29.352 48.1016C35.2761 48.1016 41.2102 45.8985 45.7201 41.5012C50.0958 37.2355 52.5 31.5726 52.5 25.5445C52.5 19.5164 50.0958 13.8441 45.7201 9.5878C36.8916 0.981157 22.6488 0.812429 13.5891 9.05345L8.31899 3.90633C7.94397 3.54074 7.33785 3.54074 6.96281 3.90633C6.5878 4.27191 6.5878 4.8628 6.96281 5.22841L8.87687 7.10342C-1.2122 17.7352 -0.94301 34.47 9.62645 44.7836C13.1654 48.2337 17.4547 50.5588 21.9845 51.7496V55.453H17.2142C14.9252 55.453 13.0595 57.2624 13.0595 59.4939V61.125H11.2513C10.7222 61.125 10.2896 61.5467 10.2896 62.0625C10.2896 62.5783 10.7222 63 11.2513 63H14.0114H14.0212H36.4295H36.4392H39.1994C39.7285 63 40.1611 62.5783 40.1611 62.0625C40.1611 61.5467 39.7285 61.125 39.1994 61.125H37.3917V59.4939C37.3917 57.2624 35.5259 55.453 33.2369 55.453H28.4764V52.6872C28.7748 52.6963 29.0631 52.7058 29.3517 52.7058L29.3523 52.7051ZM14.8396 11.078C14.7626 11.2467 14.628 11.3779 14.5416 11.5372C14.1857 12.1186 14.5416 13.009 14.032 13.4777C13.8399 13.656 13.5609 13.7216 13.3108 13.8058C13.0513 13.89 12.7914 14.0402 12.7144 14.2935C12.6661 14.4437 12.6954 14.603 12.7241 14.7528C12.7432 14.912 12.7432 15.0717 12.6471 15.203C12.5608 15.3342 12.3394 15.3903 12.2433 15.2781C12.1184 15.1374 12.2336 14.931 12.2243 14.7437C12.2145 14.5093 11.9741 14.3311 11.7434 14.303C11.6664 14.2935 11.5893 14.3216 11.5221 14.3406C12.3301 13.1217 13.2629 11.9688 14.3592 10.8996C14.5226 10.7403 14.6957 10.6091 14.8688 10.4494C14.8874 10.6747 14.9162 10.8901 14.8396 11.0779L14.8396 11.078ZM14.349 40.1793C13.0217 38.8853 11.9254 37.451 11.0311 35.9321C11.1754 35.9601 11.3198 35.9882 11.4544 36.0352C11.9255 36.1854 12.3873 36.4103 12.7432 36.7573C13.0992 37.1044 13.3396 37.5636 13.3396 38.0513C13.3493 38.3233 13.282 38.5762 13.3299 38.8391C13.3781 39.1205 13.5605 39.3639 13.8009 39.5141C14.0511 39.6548 14.3686 39.6924 14.6377 39.6078C15.3014 39.9924 16.1958 39.6263 16.8976 39.9453C17.1571 40.067 17.3594 40.2643 17.5901 40.4516C18.7825 41.3796 20.6291 41.4267 21.8795 40.5643C22.2643 40.3018 22.591 39.9548 23.0431 39.8236C23.2835 39.7485 23.5434 39.7485 23.8029 39.7485C24.0433 39.739 24.3032 39.739 24.5051 39.8702C24.784 40.039 24.8704 40.3765 25.0342 40.6484C25.3995 41.2954 26.1402 41.6705 26.8712 41.8202C27.6212 41.9705 28.3907 41.942 29.1407 42.0076C29.5445 42.0356 29.9487 42.1012 30.295 42.3075C30.5739 42.4668 30.7953 42.7202 31.0162 42.9451C32.132 44.0794 33.6032 44.811 35.0843 45.467C27.948 47.3985 19.9561 45.6453 14.349 40.1792L14.349 40.1793ZM44.364 10.91C52.6444 18.9823 52.6444 32.1076 44.364 40.1804C42.3349 42.1585 39.9979 43.6399 37.4973 44.6525C37.2856 44.4557 37.0165 44.3245 36.7473 44.2023C35.8817 43.7897 34.9971 43.2834 34.622 42.421C34.4392 42.0179 34.4007 41.5772 34.3431 41.1365C34.2276 40.2551 34.0451 39.3552 33.6024 38.5865C33.1698 37.7988 32.727 37.0395 32.2847 36.2613C32.0731 35.8862 31.7844 35.5582 31.4479 35.2863C31.3806 35.2302 31.3036 35.1736 31.2173 35.1736C31.1309 35.1641 31.0632 35.2207 30.9866 35.2673C30.7271 35.4641 30.5633 35.7455 30.3424 35.9894C30.121 36.2333 29.8133 36.4301 29.4768 36.383C29.0535 36.3079 28.8326 35.8672 28.4576 35.6609C28.1596 35.4922 27.7651 35.5017 27.4671 35.6795C27.0921 35.9044 26.8707 36.3826 26.4284 36.4482C26.1495 36.4953 25.89 36.3545 25.6111 36.298C25.082 36.1853 24.5051 36.3917 24.1783 36.8138C23.9091 37.1513 23.813 37.6106 23.5146 37.9296C22.9182 38.5766 21.8219 38.3983 21.0622 37.9671C20.9373 37.9015 20.812 37.8264 20.6774 37.8264C20.437 37.845 20.2829 38.0794 20.2254 38.3047C20.1771 38.5295 20.1868 38.7639 20.081 38.9797C19.9464 39.2422 19.629 39.4014 19.3403 39.3643C19.0516 39.3173 18.8019 39.0738 18.7634 38.7829C18.6863 38.1924 19.3403 37.8174 19.7826 37.4233C20.5614 36.7107 20.8018 35.6044 21.0041 34.5823C21.0714 34.2543 21.129 33.9072 21.0232 33.5978C20.9076 33.2788 20.6384 33.0444 20.5038 32.7354C20.0615 31.7228 21.2153 30.6446 21.0519 29.5478C20.9559 28.8166 20.1961 28.2633 19.4363 28.2913C18.6863 28.3194 18.0128 28.9008 17.8012 29.6039C17.7724 29.6976 17.7529 29.7912 17.7822 29.8853C17.8397 30.1011 18.1381 30.1758 18.2727 30.3636C18.4746 30.645 18.2152 31.0572 17.8689 31.1418C17.5324 31.226 17.1765 31.1042 16.859 30.973C16.7244 30.9169 16.5703 30.8604 16.5128 30.7292C16.3972 30.4853 16.6571 30.2324 16.782 29.998C17.0512 29.4917 16.7722 28.8541 16.9936 28.3384C17.3301 27.5226 18.5995 27.5321 19.1574 26.8475C19.2437 26.7258 19.3207 26.5946 19.3207 26.4349C19.3305 26.1535 19.0994 25.9006 18.8204 25.8069C18.5415 25.7132 18.2435 25.7413 17.9548 25.7974C16.7431 26.0693 15.618 26.9692 15.4064 28.1601C15.3874 28.2913 15.3776 28.4226 15.3103 28.5352C15.0796 28.9569 14.435 28.8166 13.9541 28.9288C13.3675 29.0696 12.9637 29.7351 13.1368 30.3071C13.1753 30.4478 13.2524 30.579 13.2714 30.7197C13.329 31.0572 13.1271 31.3758 12.9154 31.6477C12.1747 32.6227 11.1746 33.4009 10.2997 34.2633L10.1748 34.3851C7.56878 28.9755 7.48195 22.7034 9.93439 17.2372C9.88613 17.6589 9.88613 18.1561 10.2421 18.409C10.3284 18.4746 10.4537 18.5122 10.5596 18.4932C10.6942 18.4746 10.8 18.3715 10.8961 18.2774C11.1847 17.9774 11.4827 17.6118 11.4252 17.1992C11.4442 17.1711 11.4924 17.115 11.5212 17.115C11.7714 17.3023 11.8865 17.6399 11.8099 17.9398C11.7236 18.2588 11.4446 18.5117 11.3773 18.8398C11.3291 19.1117 11.4349 19.3836 11.4349 19.6555C11.4252 20.0306 11.2135 20.3777 11.1369 20.7523C11.1179 20.8274 11.1081 20.9025 11.1272 20.9772C11.1754 21.1835 11.4061 21.2867 11.5217 21.4554C11.6563 21.6803 11.5699 21.9898 11.666 22.2336C11.7816 22.5151 12.1566 22.6553 12.4258 22.5241C12.5028 22.4771 12.5799 22.4305 12.6472 22.3649C12.772 22.2522 12.8973 22.1119 12.9934 21.9712C13.0509 21.8776 13.1089 21.7839 13.1377 21.6712C13.1568 21.5495 13.1187 21.4274 13.0895 21.3151C13.0222 21.0713 12.9549 20.8369 12.8876 20.593C12.83 20.3867 12.772 20.1804 12.8105 19.9836C12.8393 19.7773 12.9836 19.5709 13.1953 19.5429C13.3972 19.5148 13.58 19.6271 13.7629 19.7116C13.9843 19.7958 14.2437 19.8334 14.4744 19.7587C14.8206 19.637 15.042 19.2995 15.0996 18.9429C15.1478 18.5959 15.0513 18.2398 14.9167 17.9023C14.8879 17.8181 14.8591 17.743 14.8494 17.6584C14.8304 17.4335 15.0128 17.2272 15.1766 17.0679C15.1478 16.9087 15.2727 16.7585 15.398 16.6553C15.6286 16.4395 15.9749 16.2241 16.225 16.4114C16.4367 16.5616 16.3884 16.8707 16.2636 17.0865C16.129 17.2928 15.9271 17.4616 15.8115 17.6679C15.6959 17.8837 15.7154 18.2118 15.9364 18.3149C16.148 18.4086 16.3982 18.2588 16.6386 18.2588C17.0906 18.2774 17.3023 18.8307 17.7158 19.018C17.9465 19.1307 18.2351 19.1022 18.4946 19.1587C18.9564 19.2429 19.3217 19.5714 19.7064 19.8338C20.1009 20.0867 20.6007 20.284 21.024 20.1057C21.2547 20.0121 21.4185 19.8152 21.5819 19.6275C21.9378 19.2058 22.2841 18.7086 22.2841 18.1557C22.2938 17.6023 21.813 17.0213 21.2649 17.1055C21.0244 17.1431 20.8128 17.2838 20.5821 17.3494C20.3515 17.4055 20.0437 17.3118 20.0052 17.0775C19.9862 16.9273 20.0916 16.787 20.2071 16.6743C20.6304 16.2526 21.2263 15.9242 21.8227 16.0463C22.1017 16.1024 22.3421 16.2526 22.5825 16.3839C23.0058 16.6087 23.4578 16.8245 23.948 16.834C24.4288 16.8435 24.9482 16.6092 25.1311 16.178C25.3715 15.6061 24.977 14.9872 24.6215 14.4809C24.5351 14.3496 24.4386 14.1994 24.4674 14.0497C24.4962 13.9465 24.5635 13.8624 24.6502 13.8058C25.1506 13.4402 25.8811 13.6841 26.3332 14.1153C26.7755 14.537 27.0642 15.0998 27.5065 15.5216C27.9776 15.9623 28.6608 16.2247 29.2855 16.0374C29.7761 15.8781 30.1511 15.4469 30.3047 14.9687C30.4681 14.4809 30.4203 13.9561 30.295 13.4778C30.2277 13.234 30.0643 12.9621 29.8239 12.981C29.7278 12.9996 29.641 13.0467 29.5737 13.1123C29.3333 13.3466 29.266 13.6937 29.1792 14.0217C29.0929 14.3407 28.9388 14.6968 28.6116 14.8094C28.3039 14.9221 27.9094 14.7252 27.8231 14.4158C27.746 14.1439 27.8328 13.7968 27.5636 13.7032C27.7943 13.3281 27.6119 12.7752 27.1886 12.6064C27.0345 12.5503 26.8614 12.5222 26.756 12.4001C26.66 12.2874 26.66 12.1187 26.7078 11.9874C26.756 11.8467 26.8521 11.7345 26.9292 11.6124C27.1408 11.3219 27.3042 10.9844 27.41 10.6373C27.4485 10.5156 27.4773 10.3749 27.4582 10.2527C27.4392 10.0369 27.2851 9.8591 27.1311 9.6994C26.8039 9.39943 26.3903 9.17455 25.948 9.07139C25.6584 8.97859 25.3024 8.90349 25.2161 8.6225C25.1585 8.37863 25.3604 8.15375 25.5141 7.94743C25.6296 7.78817 25.7257 7.61939 25.7447 7.43164C25.812 7.019 25.5141 6.61587 25.1293 6.41904C24.7543 6.21273 24.3022 6.18467 23.879 6.16611C23.6098 6.15661 23.2636 6.091 23.2153 5.82858C23.2056 5.80052 23.225 5.76297 23.225 5.73491C23.9273 5.52859 24.6291 5.35983 25.3503 5.22862C25.6292 5.40688 25.9272 5.5381 26.2544 5.6037C26.3119 5.62226 26.389 5.62226 26.4465 5.5942C26.4948 5.57564 26.5236 5.5286 26.5524 5.49104C26.6387 5.35034 26.7157 5.19107 26.764 5.0318C27.6198 4.92864 28.4855 4.86304 29.351 4.86304C34.7946 4.86304 40.2286 6.87871 44.3635 10.9102L44.364 10.91Z"/>
</mask>
<path d="M29.3523 52.7051C36.4111 52.7051 43.4797 50.127 48.8851 44.9609C49.2601 44.5953 49.2698 44.0044 48.8948 43.6388C48.5198 43.2732 47.9137 43.2637 47.5386 43.6293C37.4119 53.3046 21.0148 53.23 10.9928 43.4511C1.16406 33.8698 0.894869 18.3353 10.233 8.42494L12.2431 10.3845C3.99145 19.235 4.22256 32.961 12.9838 41.5012C17.4942 45.8982 23.428 48.1016 29.352 48.1016C35.2761 48.1016 41.2102 45.8985 45.7201 41.5012C50.0958 37.2355 52.5 31.5726 52.5 25.5445C52.5 19.5164 50.0958 13.8441 45.7201 9.5878C36.8916 0.981157 22.6488 0.812429 13.5891 9.05345L8.31899 3.90633C7.94397 3.54074 7.33785 3.54074 6.96281 3.90633C6.5878 4.27191 6.5878 4.8628 6.96281 5.22841L8.87687 7.10342C-1.2122 17.7352 -0.94301 34.47 9.62645 44.7836C13.1654 48.2337 17.4547 50.5588 21.9845 51.7496V55.453H17.2142C14.9252 55.453 13.0595 57.2624 13.0595 59.4939V61.125H11.2513C10.7222 61.125 10.2896 61.5467 10.2896 62.0625C10.2896 62.5783 10.7222 63 11.2513 63H14.0114H14.0212H36.4295H36.4392H39.1994C39.7285 63 40.1611 62.5783 40.1611 62.0625C40.1611 61.5467 39.7285 61.125 39.1994 61.125H37.3917V59.4939C37.3917 57.2624 35.5259 55.453 33.2369 55.453H28.4764V52.6872C28.7748 52.6963 29.0631 52.7058 29.3517 52.7058L29.3523 52.7051ZM14.8396 11.078C14.7626 11.2467 14.628 11.3779 14.5416 11.5372C14.1857 12.1186 14.5416 13.009 14.032 13.4777C13.8399 13.656 13.5609 13.7216 13.3108 13.8058C13.0513 13.89 12.7914 14.0402 12.7144 14.2935C12.6661 14.4437 12.6954 14.603 12.7241 14.7528C12.7432 14.912 12.7432 15.0717 12.6471 15.203C12.5608 15.3342 12.3394 15.3903 12.2433 15.2781C12.1184 15.1374 12.2336 14.931 12.2243 14.7437C12.2145 14.5093 11.9741 14.3311 11.7434 14.303C11.6664 14.2935 11.5893 14.3216 11.5221 14.3406C12.3301 13.1217 13.2629 11.9688 14.3592 10.8996C14.5226 10.7403 14.6957 10.6091 14.8688 10.4494C14.8874 10.6747 14.9162 10.8901 14.8396 11.0779L14.8396 11.078ZM14.349 40.1793C13.0217 38.8853 11.9254 37.451 11.0311 35.9321C11.1754 35.9601 11.3198 35.9882 11.4544 36.0352C11.9255 36.1854 12.3873 36.4103 12.7432 36.7573C13.0992 37.1044 13.3396 37.5636 13.3396 38.0513C13.3493 38.3233 13.282 38.5762 13.3299 38.8391C13.3781 39.1205 13.5605 39.3639 13.8009 39.5141C14.0511 39.6548 14.3686 39.6924 14.6377 39.6078C15.3014 39.9924 16.1958 39.6263 16.8976 39.9453C17.1571 40.067 17.3594 40.2643 17.5901 40.4516C18.7825 41.3796 20.6291 41.4267 21.8795 40.5643C22.2643 40.3018 22.591 39.9548 23.0431 39.8236C23.2835 39.7485 23.5434 39.7485 23.8029 39.7485C24.0433 39.739 24.3032 39.739 24.5051 39.8702C24.784 40.039 24.8704 40.3765 25.0342 40.6484C25.3995 41.2954 26.1402 41.6705 26.8712 41.8202C27.6212 41.9705 28.3907 41.942 29.1407 42.0076C29.5445 42.0356 29.9487 42.1012 30.295 42.3075C30.5739 42.4668 30.7953 42.7202 31.0162 42.9451C32.132 44.0794 33.6032 44.811 35.0843 45.467C27.948 47.3985 19.9561 45.6453 14.349 40.1792L14.349 40.1793ZM44.364 10.91C52.6444 18.9823 52.6444 32.1076 44.364 40.1804C42.3349 42.1585 39.9979 43.6399 37.4973 44.6525C37.2856 44.4557 37.0165 44.3245 36.7473 44.2023C35.8817 43.7897 34.9971 43.2834 34.622 42.421C34.4392 42.0179 34.4007 41.5772 34.3431 41.1365C34.2276 40.2551 34.0451 39.3552 33.6024 38.5865C33.1698 37.7988 32.727 37.0395 32.2847 36.2613C32.0731 35.8862 31.7844 35.5582 31.4479 35.2863C31.3806 35.2302 31.3036 35.1736 31.2173 35.1736C31.1309 35.1641 31.0632 35.2207 30.9866 35.2673C30.7271 35.4641 30.5633 35.7455 30.3424 35.9894C30.121 36.2333 29.8133 36.4301 29.4768 36.383C29.0535 36.3079 28.8326 35.8672 28.4576 35.6609C28.1596 35.4922 27.7651 35.5017 27.4671 35.6795C27.0921 35.9044 26.8707 36.3826 26.4284 36.4482C26.1495 36.4953 25.89 36.3545 25.6111 36.298C25.082 36.1853 24.5051 36.3917 24.1783 36.8138C23.9091 37.1513 23.813 37.6106 23.5146 37.9296C22.9182 38.5766 21.8219 38.3983 21.0622 37.9671C20.9373 37.9015 20.812 37.8264 20.6774 37.8264C20.437 37.845 20.2829 38.0794 20.2254 38.3047C20.1771 38.5295 20.1868 38.7639 20.081 38.9797C19.9464 39.2422 19.629 39.4014 19.3403 39.3643C19.0516 39.3173 18.8019 39.0738 18.7634 38.7829C18.6863 38.1924 19.3403 37.8174 19.7826 37.4233C20.5614 36.7107 20.8018 35.6044 21.0041 34.5823C21.0714 34.2543 21.129 33.9072 21.0232 33.5978C20.9076 33.2788 20.6384 33.0444 20.5038 32.7354C20.0615 31.7228 21.2153 30.6446 21.0519 29.5478C20.9559 28.8166 20.1961 28.2633 19.4363 28.2913C18.6863 28.3194 18.0128 28.9008 17.8012 29.6039C17.7724 29.6976 17.7529 29.7912 17.7822 29.8853C17.8397 30.1011 18.1381 30.1758 18.2727 30.3636C18.4746 30.645 18.2152 31.0572 17.8689 31.1418C17.5324 31.226 17.1765 31.1042 16.859 30.973C16.7244 30.9169 16.5703 30.8604 16.5128 30.7292C16.3972 30.4853 16.6571 30.2324 16.782 29.998C17.0512 29.4917 16.7722 28.8541 16.9936 28.3384C17.3301 27.5226 18.5995 27.5321 19.1574 26.8475C19.2437 26.7258 19.3207 26.5946 19.3207 26.4349C19.3305 26.1535 19.0994 25.9006 18.8204 25.8069C18.5415 25.7132 18.2435 25.7413 17.9548 25.7974C16.7431 26.0693 15.618 26.9692 15.4064 28.1601C15.3874 28.2913 15.3776 28.4226 15.3103 28.5352C15.0796 28.9569 14.435 28.8166 13.9541 28.9288C13.3675 29.0696 12.9637 29.7351 13.1368 30.3071C13.1753 30.4478 13.2524 30.579 13.2714 30.7197C13.329 31.0572 13.1271 31.3758 12.9154 31.6477C12.1747 32.6227 11.1746 33.4009 10.2997 34.2633L10.1748 34.3851C7.56878 28.9755 7.48195 22.7034 9.93439 17.2372C9.88613 17.6589 9.88613 18.1561 10.2421 18.409C10.3284 18.4746 10.4537 18.5122 10.5596 18.4932C10.6942 18.4746 10.8 18.3715 10.8961 18.2774C11.1847 17.9774 11.4827 17.6118 11.4252 17.1992C11.4442 17.1711 11.4924 17.115 11.5212 17.115C11.7714 17.3023 11.8865 17.6399 11.8099 17.9398C11.7236 18.2588 11.4446 18.5117 11.3773 18.8398C11.3291 19.1117 11.4349 19.3836 11.4349 19.6555C11.4252 20.0306 11.2135 20.3777 11.1369 20.7523C11.1179 20.8274 11.1081 20.9025 11.1272 20.9772C11.1754 21.1835 11.4061 21.2867 11.5217 21.4554C11.6563 21.6803 11.5699 21.9898 11.666 22.2336C11.7816 22.5151 12.1566 22.6553 12.4258 22.5241C12.5028 22.4771 12.5799 22.4305 12.6472 22.3649C12.772 22.2522 12.8973 22.1119 12.9934 21.9712C13.0509 21.8776 13.1089 21.7839 13.1377 21.6712C13.1568 21.5495 13.1187 21.4274 13.0895 21.3151C13.0222 21.0713 12.9549 20.8369 12.8876 20.593C12.83 20.3867 12.772 20.1804 12.8105 19.9836C12.8393 19.7773 12.9836 19.5709 13.1953 19.5429C13.3972 19.5148 13.58 19.6271 13.7629 19.7116C13.9843 19.7958 14.2437 19.8334 14.4744 19.7587C14.8206 19.637 15.042 19.2995 15.0996 18.9429C15.1478 18.5959 15.0513 18.2398 14.9167 17.9023C14.8879 17.8181 14.8591 17.743 14.8494 17.6584C14.8304 17.4335 15.0128 17.2272 15.1766 17.0679C15.1478 16.9087 15.2727 16.7585 15.398 16.6553C15.6286 16.4395 15.9749 16.2241 16.225 16.4114C16.4367 16.5616 16.3884 16.8707 16.2636 17.0865C16.129 17.2928 15.9271 17.4616 15.8115 17.6679C15.6959 17.8837 15.7154 18.2118 15.9364 18.3149C16.148 18.4086 16.3982 18.2588 16.6386 18.2588C17.0906 18.2774 17.3023 18.8307 17.7158 19.018C17.9465 19.1307 18.2351 19.1022 18.4946 19.1587C18.9564 19.2429 19.3217 19.5714 19.7064 19.8338C20.1009 20.0867 20.6007 20.284 21.024 20.1057C21.2547 20.0121 21.4185 19.8152 21.5819 19.6275C21.9378 19.2058 22.2841 18.7086 22.2841 18.1557C22.2938 17.6023 21.813 17.0213 21.2649 17.1055C21.0244 17.1431 20.8128 17.2838 20.5821 17.3494C20.3515 17.4055 20.0437 17.3118 20.0052 17.0775C19.9862 16.9273 20.0916 16.787 20.2071 16.6743C20.6304 16.2526 21.2263 15.9242 21.8227 16.0463C22.1017 16.1024 22.3421 16.2526 22.5825 16.3839C23.0058 16.6087 23.4578 16.8245 23.948 16.834C24.4288 16.8435 24.9482 16.6092 25.1311 16.178C25.3715 15.6061 24.977 14.9872 24.6215 14.4809C24.5351 14.3496 24.4386 14.1994 24.4674 14.0497C24.4962 13.9465 24.5635 13.8624 24.6502 13.8058C25.1506 13.4402 25.8811 13.6841 26.3332 14.1153C26.7755 14.537 27.0642 15.0998 27.5065 15.5216C27.9776 15.9623 28.6608 16.2247 29.2855 16.0374C29.7761 15.8781 30.1511 15.4469 30.3047 14.9687C30.4681 14.4809 30.4203 13.9561 30.295 13.4778C30.2277 13.234 30.0643 12.9621 29.8239 12.981C29.7278 12.9996 29.641 13.0467 29.5737 13.1123C29.3333 13.3466 29.266 13.6937 29.1792 14.0217C29.0929 14.3407 28.9388 14.6968 28.6116 14.8094C28.3039 14.9221 27.9094 14.7252 27.8231 14.4158C27.746 14.1439 27.8328 13.7968 27.5636 13.7032C27.7943 13.3281 27.6119 12.7752 27.1886 12.6064C27.0345 12.5503 26.8614 12.5222 26.756 12.4001C26.66 12.2874 26.66 12.1187 26.7078 11.9874C26.756 11.8467 26.8521 11.7345 26.9292 11.6124C27.1408 11.3219 27.3042 10.9844 27.41 10.6373C27.4485 10.5156 27.4773 10.3749 27.4582 10.2527C27.4392 10.0369 27.2851 9.8591 27.1311 9.6994C26.8039 9.39943 26.3903 9.17455 25.948 9.07139C25.6584 8.97859 25.3024 8.90349 25.2161 8.6225C25.1585 8.37863 25.3604 8.15375 25.5141 7.94743C25.6296 7.78817 25.7257 7.61939 25.7447 7.43164C25.812 7.019 25.5141 6.61587 25.1293 6.41904C24.7543 6.21273 24.3022 6.18467 23.879 6.16611C23.6098 6.15661 23.2636 6.091 23.2153 5.82858C23.2056 5.80052 23.225 5.76297 23.225 5.73491C23.9273 5.52859 24.6291 5.35983 25.3503 5.22862C25.6292 5.40688 25.9272 5.5381 26.2544 5.6037C26.3119 5.62226 26.389 5.62226 26.4465 5.5942C26.4948 5.57564 26.5236 5.5286 26.5524 5.49104C26.6387 5.35034 26.7157 5.19107 26.764 5.0318C27.6198 4.92864 28.4855 4.86304 29.351 4.86304C34.7946 4.86304 40.2286 6.87871 44.3635 10.9102L44.364 10.91Z" fill="white" stroke="white" stroke-width="2" mask="url(#path-1-inside-1_458_333)"/>
<path d="M42.3657 17.8711L42.3657 17.8711L42.3614 17.8685C42.3611 17.8675 42.3489 17.8513 42.2567 17.7251C42.171 17.6079 41.9981 17.3826 41.6739 17.3055C41.6678 17.304 41.6618 17.3026 41.6557 17.3013C41.9226 17.2451 42.1481 17.1037 42.2994 16.9843C42.4034 16.9023 42.5002 16.8109 42.5774 16.738C42.591 16.7251 42.6041 16.7128 42.6164 16.7013C42.706 16.6173 42.7734 16.5582 42.8412 16.5128C43.0106 16.4038 43.2446 16.3753 43.4535 16.4298C43.4155 16.4711 43.3669 16.5196 43.3047 16.579C43.2942 16.589 43.283 16.5996 43.2713 16.6106C43.1258 16.7482 42.8971 16.9644 42.7718 17.2549C42.7267 17.3578 42.6985 17.4582 42.6783 17.539C42.669 17.5761 42.6604 17.6132 42.653 17.6451C42.6523 17.6482 42.6516 17.6513 42.6509 17.6543C42.6426 17.69 42.6356 17.7197 42.6284 17.7477C42.6052 17.8376 42.5886 17.8667 42.5834 17.8741C42.581 17.8754 42.5766 17.8776 42.5696 17.8802C42.553 17.8863 42.5283 17.892 42.4975 17.8937C42.4669 17.8953 42.4367 17.8927 42.4107 17.8869C42.3842 17.881 42.3697 17.8735 42.3657 17.8711ZM41.1078 17.3072C41.0393 17.3168 41.01 17.3209 40.9845 17.3206C40.9639 17.3184 40.9364 17.3145 40.905 17.3085C40.9215 17.2943 40.9374 17.2818 40.9529 17.271C40.9754 17.2554 40.9905 17.2477 40.9994 17.244C41.0363 17.2549 41.0717 17.2663 41.1129 17.2796C41.1168 17.2809 41.1208 17.2821 41.1248 17.2834L41.1379 17.2877L41.1512 17.2912C41.1598 17.2934 41.1683 17.2956 41.1769 17.2976C41.1501 17.3012 41.1274 17.3044 41.1078 17.3072ZM41.0093 17.241C41.0093 17.2412 41.008 17.2415 41.0058 17.2417C41.0082 17.241 41.0094 17.2409 41.0093 17.241ZM43.6917 16.5374C43.6917 16.5374 43.6913 16.5372 43.6905 16.5367L43.6917 16.5374Z" fill="white" stroke="white"/>
<path d="M28.8727 20.1949L28.1398 19.809C27.5541 19.5006 26.9456 19.2317 26.3138 19.0263L26.309 19.0248L26.309 19.0247C26.0671 18.9434 25.8706 18.8946 25.6971 18.9003C25.6286 18.9028 25.5646 18.9199 25.5171 18.9442C25.4704 18.968 25.4536 18.9911 25.4481 19.0013L25.4432 19.0106L25.4431 19.0106C25.4301 19.0338 25.4147 19.0766 25.4027 19.1674C25.3967 19.2123 25.3925 19.2599 25.3874 19.3197L25.3866 19.3294C25.3821 19.3834 25.3766 19.4489 25.3682 19.5141L25.3665 19.5278L25.3663 19.5278C25.2488 20.2809 24.6618 20.9179 23.938 21.1297C23.6783 21.2087 23.3541 21.2336 23.0375 21.1036L23.0298 21.1004L23.0221 21.097C22.8113 21.002 22.657 20.845 22.5709 20.7574C22.5652 20.7515 22.5597 20.746 22.5545 20.7408C22.447 20.6321 22.4185 20.6133 22.4019 20.6065L22.3953 20.6038L22.3954 20.6038C22.3912 20.602 22.3686 20.5944 22.3221 20.6053C22.2752 20.6163 22.2236 20.6424 22.1818 20.6791L22.1725 20.6873L22.1724 20.6872C22.058 20.7828 21.9745 20.9256 21.8415 21.1752C21.3282 22.1478 20.9531 23.0799 21.1551 23.9372C21.337 24.6906 21.9308 25.3074 22.6381 25.9779L22.6432 25.9827L22.6431 25.9827C22.7839 26.12 22.831 26.1544 22.87 26.1678L22.884 26.1726L22.8976 26.1782C22.9159 26.1857 22.9521 26.195 23.0389 26.202C23.0542 26.2033 23.0763 26.2046 23.1025 26.2063C23.1767 26.2108 23.2846 26.2175 23.3711 26.2294M28.8727 20.1949L31.0758 27.0667C30.8565 26.5383 30.4914 26.0952 30.0433 25.7651C29.888 25.641 29.6845 25.5223 29.4425 25.4746C29.3084 25.4472 29.181 25.4458 29.0813 25.4489C29.0302 25.4505 28.9806 25.4536 28.9382 25.4562L28.925 25.4571C28.8862 25.4595 28.8539 25.4616 28.8221 25.4629C28.7585 25.4656 28.7217 25.4633 28.7023 25.4611C28.6955 25.4466 28.6848 25.4208 28.6709 25.3776C28.6636 25.3549 28.6566 25.3319 28.6481 25.3038C28.6468 25.2995 28.6454 25.295 28.644 25.2904C28.6342 25.258 28.6225 25.2195 28.6091 25.1799C28.5827 25.1015 28.5447 25.002 28.4847 24.9018L28.4848 24.9018L28.4798 24.8938C28.1676 24.3936 27.5501 24.2863 27.1146 24.3791L27.1146 24.3791C26.6736 24.4731 26.3309 24.7468 26.0878 24.9552C25.9305 25.0867 25.7357 25.279 25.6231 25.5453L25.6231 25.5453L25.6214 25.5494C25.5679 25.6792 25.5464 25.8043 25.5345 25.8988C25.5286 25.945 25.5244 25.9903 25.521 26.0267L25.5207 26.0296C25.517 26.0693 25.5142 26.0992 25.5106 26.1272L25.5096 26.1349L25.5089 26.1426C25.4815 26.4293 25.3311 26.6434 25.1759 26.7106C25.0281 26.7657 24.8131 26.7389 24.4956 26.6151L24.4954 26.615C24.421 26.586 24.3459 26.5538 24.263 26.5179C24.2556 26.5146 24.248 26.5114 24.2404 26.508C24.1662 26.4758 24.0849 26.4405 24.0028 26.4075C23.8213 26.3345 23.6089 26.261 23.3711 26.2294M28.8727 20.1949V20.1823M28.8727 20.1949V20.1823M23.3711 26.2294C23.3706 26.2293 23.37 26.2292 23.3695 26.2292L23.304 26.7249L23.3728 26.2296C23.3723 26.2295 23.3717 26.2295 23.3711 26.2294ZM28.8727 20.1823C28.9615 20.2234 29.0516 20.2626 29.1421 20.2981C29.5093 20.4427 29.9322 20.5502 30.3902 20.4997L30.406 20.498L30.4216 20.4952C30.9106 20.4097 31.2063 20.0068 31.3696 19.7842L31.3767 19.7745C31.3977 19.7459 31.4174 19.7189 31.4361 19.6932C31.5077 19.5948 31.5651 19.5158 31.6281 19.4435C31.6853 19.3778 31.729 19.3397 31.7619 19.3177C31.7962 19.3446 31.8514 19.4025 31.9128 19.5074C32.0636 19.7649 32.1378 20.1043 32.1175 20.2967L32.1174 20.2967L32.1164 20.3079C32.1064 20.4293 32.0753 20.5553 32.0289 20.7199C32.0233 20.7396 32.0175 20.7601 32.0114 20.7814C31.9708 20.9236 31.921 21.0982 31.891 21.2786C31.8202 21.6929 31.8716 22.3519 32.4004 22.7123L32.4003 22.7123L32.4052 22.7156C32.5865 22.8361 32.7767 22.89 32.9209 22.9228C32.9783 22.9358 33.0377 22.9474 33.0877 22.9572C33.0997 22.9595 33.1112 22.9618 33.122 22.9639C33.1826 22.9759 33.2298 22.9859 33.2716 22.9974L33.2737 22.9979C33.6278 23.0929 33.9454 23.4263 34.1215 23.8709L34.1215 23.8709L34.1226 23.8737C34.2972 24.3067 34.3265 24.8004 34.3561 25.3887C34.3562 25.3891 34.3562 25.3896 34.3562 25.39L34.8556 25.3649M28.8727 20.1823L35.2972 29.1319M34.8556 25.3649C34.875 25.796 34.9038 26.2457 35.1057 26.6303C35.1857 26.7761 35.2889 26.9094 35.3925 27.0432C35.4886 27.1672 35.585 27.2917 35.6636 27.427C35.827 27.7084 35.904 28.027 35.9713 28.3364C36.0289 28.5993 36.0869 28.8802 35.9713 29.1241M34.8556 25.3649L34.8553 25.3604C34.8266 24.79 34.7975 24.2102 34.5864 23.6867L34.8556 25.3649ZM35.9713 29.1241L35.5212 28.9064C35.5209 28.907 35.5206 28.9076 35.5203 28.9082C35.52 28.9088 35.5197 28.9094 35.5195 28.91L35.9713 29.1241ZM35.9713 29.1241C35.8943 29.2833 35.7499 29.4051 35.6153 29.5177M35.6153 29.5177L35.3001 29.1296C35.2991 29.1304 35.2982 29.1312 35.2972 29.1319M35.6153 29.5177C35.3842 29.7054 35.1438 29.9023 34.9131 30.0991L35.2972 29.1319M35.6153 29.5177L35.2944 29.1343C35.2954 29.1335 35.2963 29.1327 35.2972 29.1319" fill="white" stroke="white"/>
<path d="M36.769 23.1804C36.8168 23.1666 36.8689 23.1633 36.9113 23.1752L37.0217 23.4323C37.0291 23.4502 37.037 23.4688 37.0454 23.4874C37.1213 23.6624 37.2453 23.8452 37.3291 23.9688C37.3529 24.0039 37.3735 24.0342 37.3888 24.0582C37.4347 24.1315 37.4658 24.1894 37.485 24.2387C37.4881 24.2467 37.4908 24.2541 37.493 24.2608C37.4753 24.2518 37.4563 24.2415 37.4344 24.2296C37.2901 24.1431 37.2425 24.1132 37.2125 24.0792C37.1457 23.997 37.0865 23.8768 37.0051 23.686C36.9971 23.6673 36.9888 23.6477 36.9802 23.6272C36.9252 23.4971 36.8566 23.3344 36.769 23.1804Z" fill="white" stroke="white"/>
<path d="M34.1249 12.5278C34.1248 12.5361 34.1262 12.5569 34.1384 12.6233C34.1393 12.6286 34.1404 12.6345 34.1416 12.6409C34.1534 12.7034 34.1743 12.8153 34.1743 12.9336V12.9434L34.1739 12.9531C34.1645 13.1957 34.0711 13.3925 33.9762 13.5396C33.8947 13.666 33.7933 13.7826 33.7195 13.8674C33.7116 13.8766 33.704 13.8853 33.6967 13.8937C33.6094 13.9945 33.5615 14.0549 33.5332 14.1062C33.5227 14.1252 33.5188 14.1363 33.5175 14.141C33.5205 14.1485 33.5341 14.1803 33.5901 14.2683C33.5948 14.2757 33.6001 14.2839 33.6059 14.2928C33.6647 14.3838 33.7747 14.5541 33.8232 14.754L34.1249 12.5278ZM34.1249 12.5278C34.1264 12.5163 34.1348 12.4846 34.171 12.4361L34.1782 12.4265L34.1849 12.4165C34.2468 12.3248 34.3317 12.2478 34.4089 12.2074C34.4454 12.1883 34.4714 12.1819 34.4856 12.1803C34.4915 12.1796 34.4954 12.1796 34.498 12.1799C34.5129 12.1879 34.5383 12.2047 34.5915 12.2452C34.5969 12.2493 34.6028 12.2539 34.6093 12.2589C34.6649 12.3017 34.76 12.375 34.867 12.4307L34.867 12.4307C35.0391 12.5202 35.2465 12.5506 35.4373 12.515C35.631 12.4788 35.9031 12.3475 35.9996 12.029L35.9997 12.029L36.0027 12.0184C36.0565 11.8255 36.0177 11.6542 35.9591 11.5284C35.9084 11.4195 35.837 11.333 35.7995 11.288C35.8638 11.2218 35.9142 11.1733 35.9622 11.1365C36.0092 11.1005 36.0358 11.0903 36.0462 11.0874C36.0492 11.0869 36.054 11.0868 36.0634 11.0896C36.0767 11.0937 36.0992 11.1041 36.1265 11.1272C36.1862 11.1775 36.2293 11.2543 36.2412 11.3185L36.2429 11.3282L36.2451 11.3378C36.2462 11.3425 36.2477 11.3506 36.2505 11.3685C36.251 11.3713 36.2515 11.375 36.2522 11.3793C36.2546 11.395 36.2583 11.4192 36.2619 11.4399C36.2719 11.4971 36.2915 11.5927 36.3429 11.6948C36.4445 11.9011 36.613 12.0266 36.7601 12.0993C36.9089 12.1728 37.066 12.2084 37.2018 12.2222L37.2032 12.2223C37.3312 12.2349 37.4517 12.2319 37.5398 12.2297L37.5474 12.2295C37.644 12.2271 37.703 12.2262 37.7568 12.2314C37.9788 12.2576 38.1997 12.4277 38.5153 12.7257L38.5154 12.7258C38.8288 13.0216 39.0492 13.2576 39.1482 13.5258C39.196 13.6609 39.2143 13.8267 39.2144 14.0373C39.2055 14.7362 38.8939 15.4385 38.3689 15.9383C38.2823 16.013 38.2506 16.0359 38.225 16.0478C38.2162 16.0513 38.1929 16.058 38.1443 16.0586C38.0912 16.0592 38.0275 16.0526 37.9435 16.0397L37.9417 16.0394C37.6863 16.0012 37.4316 15.92 37.1923 15.807L37.0896 15.5568L37.0304 15.4126L36.8998 15.3276C36.599 15.1319 36.2095 15.0835 35.8727 15.1972C35.2897 15.3886 35.054 15.9648 35.005 16.3819L35.0048 16.3819L35.0036 16.3959C34.9844 16.6115 35.001 16.8137 35.0233 16.9904C35.0335 17.0708 35.0455 17.1509 35.0565 17.2244C35.0576 17.2313 35.0586 17.2381 35.0596 17.2449C35.0718 17.3262 35.0828 17.4004 35.0913 17.4735L35.0913 17.4735L35.092 17.4789C35.1263 17.7458 35.1122 17.9334 35.0457 18.0708C35.0216 18.1159 34.979 18.1611 34.9313 18.1888C34.8895 18.2131 34.8659 18.2123 34.86 18.2116C34.8491 18.2084 34.8212 18.1958 34.7874 18.1436C34.7494 18.0849 34.7241 18.0034 34.7218 17.9256L34.7212 17.9073L34.7193 17.889C34.7186 17.8816 34.7179 17.8704 34.7168 17.8468C34.7167 17.8441 34.7166 17.8411 34.7164 17.8379C34.7156 17.8179 34.7143 17.7879 34.7121 17.7587C34.7072 17.6931 34.695 17.5787 34.6413 17.458L34.1249 12.5278ZM33.7703 17.3585L33.77 17.359L33.7379 17.3436C33.7485 17.3489 33.7592 17.3541 33.77 17.3591C33.7794 17.3637 33.789 17.3683 33.7988 17.3729L33.9482 16.9935L33.7703 17.3585ZM35.0978 11.9871C35.0327 11.9533 34.9735 11.9079 34.914 11.8624C34.8416 11.807 34.7688 11.7512 34.6843 11.7152C34.3478 11.584 33.9727 11.837 33.7704 12.1369C33.6934 12.2401 33.6358 12.3618 33.6261 12.493L35.0978 11.9871ZM35.716 11.1851C35.716 11.1851 35.7163 11.1857 35.7169 11.1867L35.716 11.1851Z" fill="white" stroke="white"/>
</svg>
