<svg width="54" height="66" viewBox="0 0 54 66" fill="none" xmlns="http://www.w3.org/2000/svg">
<path d="M34.9011 44.6125L34.0487 43.7656V43.9286C32.7148 43.0784 31.0637 42.9251 29.5398 43.5514L29.5394 43.5515C27.6694 44.3217 26.4999 46.058 26.4999 48.0734V48.2246H22.8447V43.4181C23.592 43.5844 24.3574 43.6746 25.1378 43.6746C31.0578 43.6746 35.8792 38.8892 35.8792 32.9998C35.8792 27.1104 31.0578 22.3249 25.1378 22.3249C24.3574 22.3249 23.592 22.4151 22.8447 22.5814V17.7749H26.4999V17.9261C26.4999 19.9414 27.6693 21.6778 29.5386 22.4473L29.5387 22.4473C31.41 23.2174 33.4704 22.8103 34.9014 21.3868L35.0126 21.2763L36.9371 23.1883L36.8303 23.2944C35.3981 24.7173 34.9864 26.7686 35.7623 28.63L35.7623 28.6302C36.5388 30.4908 38.2865 31.6498 40.3099 31.6498H40.4654V34.3497H40.3099C38.2866 34.3497 36.5389 35.5087 35.7624 37.3694L35.7623 37.3696C34.9865 39.2308 35.3971 41.2822 36.8304 42.7052L36.9371 42.8112L35.0126 44.7232L34.9011 44.6125Z" fill="white" stroke="white"/>
<path d="M4.22461 23.325H16.2591V24.1755H4.22461V23.325Z" fill="white" stroke="white"/>
<path d="M15.8275 15.9248H19.5517C19.7923 15.9248 19.9827 16.1186 19.9827 16.3498V49.6483C19.9827 49.8794 19.7923 50.0732 19.5517 50.0732H0.931031C0.690356 50.0732 0.5 49.8794 0.5 49.6483V16.3498C0.5 16.1186 0.690357 15.9248 0.931031 15.9248H4.65516C4.89583 15.9248 5.08619 16.1186 5.08619 16.3498C5.08619 18.1589 6.56625 19.6246 8.37928 19.6246H12.1034C13.9164 19.6246 15.3965 18.1589 15.3965 16.3498C15.3965 16.1186 15.5869 15.9248 15.8275 15.9248ZM17.6896 48.2984C18.4776 48.2984 19.1206 47.6642 19.1206 46.8734V21.8995C19.1206 21.1087 18.4776 20.4746 17.6896 20.4746H2.79309C2.00507 20.4746 1.36206 21.1087 1.36206 21.8995V46.8734C1.36206 47.6642 2.00507 48.2984 2.79309 48.2984H17.6896Z" fill="white" stroke="white"/>
<path d="M14.897 43.6745H15.397V43.1745V41.3245V40.8245H14.897H11.1729H10.6729V41.3245V43.1745V43.6745H11.1729H14.897ZM9.3108 27.8746H8.8108V28.3746V30.2246V30.7246H9.3108H11.1729H11.6729V30.2246V28.3746V27.8746H11.1729H9.3108ZM5.58667 27.8746H5.08667V28.3746V30.2246V30.7246H5.58667H7.44874H7.94874V30.2246V28.3746V27.8746H7.44874H5.58667ZM16.2591 27.0247V45.4494H4.22461V27.0247H16.2591Z" fill="white" stroke="white"/>
<path d="M7.91778 15.9248H12.566C12.5461 16.0626 12.535 16.2044 12.535 16.3501C12.535 16.5816 12.3445 16.7753 12.104 16.7753H8.37989C8.37987 16.7753 8.37986 16.7753 8.37984 16.7753C8.13935 16.7753 7.94886 16.5815 7.94886 16.3501C7.94886 16.2045 7.93781 16.0626 7.91778 15.9248Z" fill="white" stroke="white"/>
<path d="M25.1378 25.1748C29.4855 25.1748 33.0171 28.688 33.0171 32.9992V32.9992C33.0171 37.3104 29.4855 40.8236 25.1378 40.8236C24.356 40.8236 23.5897 40.703 22.8447 40.4739V25.5236C23.5898 25.2953 24.3562 25.1748 25.1378 25.1748Z" fill="white" stroke="white"/>
<path d="M48.5849 32.5743H48.9367L49.0555 32.2432C49.3731 31.3585 50.2149 30.7234 51.2068 30.7234C52.4735 30.7234 53.5 31.748 53.5 32.9997C53.5 34.2515 52.4735 35.276 51.2068 35.276C50.2145 35.276 49.3727 34.6409 49.0556 33.7564L48.9368 33.4252H48.5849H42.3965V32.5743H48.5849Z" fill="white" stroke="white"/>
<path d="M48.584 7.60012H48.9357L49.0546 7.2691C49.3721 6.38489 50.2139 5.75 51.2059 5.75C52.4728 5.75 53.499 6.77425 53.499 8.02518C53.499 9.2761 52.4728 10.3004 51.2059 10.3004C50.2139 10.3004 49.3721 9.66545 49.0546 8.78125L48.9357 8.45024H48.584H31.6541H31.1541V8.95024V12.1505H30.292V8.02518C30.292 7.79268 30.4812 7.60012 30.723 7.60012H48.584Z" fill="white" stroke="white"/>
<path d="M48.585 17.775H48.9367L49.0556 17.444C49.3731 16.5597 50.2149 15.9248 51.2069 15.9248C52.4739 15.9248 53.5 16.9484 53.5 18.1992C53.5 19.4503 52.4737 20.4745 51.2069 20.4745C50.2144 20.4745 49.3727 19.8396 49.0556 18.9555L48.9368 18.6243H48.585H44.2241H43.9751L43.8251 18.8231L41.6106 21.757L40.923 21.245L43.4129 17.9463L43.4129 17.9463C43.4936 17.8393 43.6223 17.775 43.7586 17.775H48.585Z" fill="white" stroke="white"/>
<path d="M48.585 47.375H48.9367L49.0556 47.044C49.3731 46.1598 50.2148 45.525 51.2069 45.525C52.4738 45.525 53.5 46.5492 53.5 47.8001C53.5 49.0509 52.4738 50.0751 51.2069 50.0751C50.2143 50.0751 49.3727 49.4402 49.0556 48.5563L48.9368 48.2251H48.585H43.7586C43.6207 48.2251 43.493 48.1606 43.4135 48.0547L43.4129 48.0538L40.9229 44.7553L41.6107 44.2428L43.8251 47.1763L43.9751 47.375H44.2241H48.585Z" fill="white" stroke="white"/>
<path d="M48.584 57.5498H48.9357L49.0546 57.2188C49.3721 56.3346 50.2139 55.6997 51.2059 55.6997C52.4728 55.6997 53.499 56.724 53.499 57.9749C53.499 59.2258 52.4728 60.2501 51.2059 60.2501C50.2134 60.2501 49.3717 59.6151 49.0547 58.7311L48.9359 58.4H48.584H30.723C30.4812 58.4 30.292 58.2074 30.292 57.9749V53.8496H31.1541V57.0498V57.5498H31.6541H48.584Z" fill="white" stroke="white"/>
</svg>
