<svg width="54" height="66" viewBox="0 0 54 66" fill="none" xmlns="http://www.w3.org/2000/svg">
<path d="M53.5 7.82519V7.82538V58.1743C53.5 58.9263 52.9206 59.4997 52.2489 59.4997H1.75114C1.07966 59.4997 0.5 58.9262 0.5 58.1743V7.82538C0.5 7.07361 1.07992 6.5 1.75153 6.5H52.2489C52.249 6.5 52.2491 6.5 52.2492 6.5C52.9207 6.50022 53.5003 7.07377 53.5 7.82519ZM12.4817 9.44265V9.44238C12.4817 8.45769 11.6838 7.65979 10.6991 7.65979C9.88245 7.65979 9.19426 8.20866 8.98319 8.95771C8.77212 8.20864 8.0839 7.65979 7.26724 7.65979C6.45031 7.65979 5.76194 8.209 5.5511 8.9584C5.34026 8.20898 4.65187 7.65979 3.83496 7.65979C2.85122 7.65979 2.05237 8.45753 2.05237 9.44238C2.05237 10.4271 2.8503 11.225 3.83496 11.225C4.65189 11.225 5.34026 10.6758 5.5511 9.92637C5.76195 10.6758 6.45033 11.225 7.26724 11.225C8.08356 11.225 8.77203 10.6761 8.98318 9.92701C9.19423 10.6761 9.88246 11.225 10.6991 11.225C11.6836 11.225 12.4812 10.427 12.4817 9.44265ZM51.6375 58.7445H52.1375V58.2445V13.0198V12.5198H51.6375H2.3625H1.8625V13.0198V58.2445V58.7445H2.3625H51.6375Z" fill="white" stroke="white"/>
<path d="M5.56836 32.9998H46.3384" stroke="white" stroke-width="5.6" stroke-miterlimit="10"/>
<path d="M6.60938 26.4788H11.4941V31.823H6.60938V26.4788Z" fill="white" stroke="white"/>
<path d="M14.958 20.9453H19.8428V31.825H14.958V20.9453Z" fill="white" stroke="white"/>
<path d="M23.3105 24.0496H28.1953V31.8246H23.3105V24.0496Z" fill="white" stroke="white"/>
<path d="M31.6592 29.6521H36.5439V31.8257H31.6592V29.6521Z" fill="white" stroke="white"/>
<path d="M40.0088 20.9453H44.8935V31.825H40.0088V20.9453Z" fill="white" stroke="white"/>
<path d="M34.4994 46.8368C34.4994 49.3523 33.3714 51.6004 31.5955 53.1185L26.9941 46.4886L26.9945 38.6066C31.2032 38.9956 34.4994 42.5279 34.4994 46.8368Z" fill="white" stroke="white"/>
<path d="M17.9502 46.8366C17.9502 42.5276 21.2465 38.9952 25.4551 38.6061V46.5074L25.2417 46.656L25.4551 46.9685V47.3366H25.7089L30.342 54.0123C29.1295 54.7108 27.7249 55.1122 26.2252 55.1122C21.6547 55.1122 17.9502 51.4075 17.9502 46.8366Z" fill="white" stroke="white"/>
<path d="M35.0684 44.001H44.4498" stroke="white" stroke-width="2.8" stroke-miterlimit="10"/>
<path d="M8.06836 49.335H17.4498" stroke="white" stroke-width="2.8" stroke-miterlimit="10"/>
<mask id="path-12-inside-1_458_376" fill="white">
<path d="M37.0645 40.2459C37.0645 39.6764 37.5304 39.2617 38.0744 39.2617C38.6186 39.2617 39.0846 39.6764 39.0846 40.2459C39.0846 40.8161 38.6187 41.2237 38.0744 41.2237C37.5304 41.2237 37.0645 40.8154 37.0645 40.2459ZM38.5342 40.2459C38.5342 39.9483 38.3203 39.7604 38.0743 39.7604C37.8351 39.7604 37.6148 39.9483 37.6148 40.2459C37.6148 40.5374 37.8344 40.7254 38.0743 40.7254C38.3207 40.7246 38.5342 40.5374 38.5342 40.2459ZM40.2247 39.3133H40.8786L38.7937 42.6357H38.1391L40.2247 39.3133ZM39.9328 41.7096C39.9328 41.1393 40.3987 40.7254 40.9431 40.7254C41.4874 40.7254 41.9534 41.1401 41.9534 41.7096C41.9534 42.2858 41.4874 42.6937 40.9431 42.6937C40.3992 42.6941 39.9328 42.2858 39.9328 41.7096ZM41.4033 41.7096C41.4033 41.4181 41.1894 41.2301 40.9434 41.2301C40.7042 41.2301 40.4899 41.418 40.4899 41.7096C40.4899 42.0011 40.7039 42.1887 40.9434 42.1887C41.1901 42.1887 41.4033 42.0007 41.4033 41.7096Z"/>
</mask>
<path d="M37.0645 40.2459C37.0645 39.6764 37.5304 39.2617 38.0744 39.2617C38.6186 39.2617 39.0846 39.6764 39.0846 40.2459C39.0846 40.8161 38.6187 41.2237 38.0744 41.2237C37.5304 41.2237 37.0645 40.8154 37.0645 40.2459ZM38.5342 40.2459C38.5342 39.9483 38.3203 39.7604 38.0743 39.7604C37.8351 39.7604 37.6148 39.9483 37.6148 40.2459C37.6148 40.5374 37.8344 40.7254 38.0743 40.7254C38.3207 40.7246 38.5342 40.5374 38.5342 40.2459ZM40.2247 39.3133H40.8786L38.7937 42.6357H38.1391L40.2247 39.3133ZM39.9328 41.7096C39.9328 41.1393 40.3987 40.7254 40.9431 40.7254C41.4874 40.7254 41.9534 41.1401 41.9534 41.7096C41.9534 42.2858 41.4874 42.6937 40.9431 42.6937C40.3992 42.6941 39.9328 42.2858 39.9328 41.7096ZM41.4033 41.7096C41.4033 41.4181 41.1894 41.2301 40.9434 41.2301C40.7042 41.2301 40.4899 41.418 40.4899 41.7096C40.4899 42.0011 40.7039 42.1887 40.9434 42.1887C41.1901 42.1887 41.4033 42.0007 41.4033 41.7096Z" fill="white"/>
<path d="M38.0743 40.7254V41.7254L38.0774 41.7254L38.0743 40.7254ZM40.2247 39.3133V38.3133H39.6718L39.3778 38.7816L40.2247 39.3133ZM40.8786 39.3133L41.7257 39.8449L42.6867 38.3133H40.8786V39.3133ZM38.7937 42.6357V43.6357H39.3468L39.6408 43.1672L38.7937 42.6357ZM38.1391 42.6357L37.2921 42.104L36.3306 43.6357H38.1391V42.6357ZM40.9431 42.6937V41.6937L40.9424 41.6937L40.9431 42.6937ZM38.0645 40.2459C38.0645 40.2431 38.0647 40.2431 38.0643 40.2453C38.0638 40.2474 38.063 40.2503 38.0615 40.2536C38.0585 40.2604 38.055 40.2645 38.0533 40.266C38.0511 40.2682 38.057 40.2617 38.0744 40.2617V38.2617C37.0293 38.2617 36.0645 39.0743 36.0645 40.2459H38.0645ZM38.0744 40.2617C38.092 40.2617 38.098 40.2683 38.0958 40.2661C38.0942 40.2646 38.0906 40.2605 38.0876 40.2536C38.0861 40.2503 38.0853 40.2474 38.0848 40.2453C38.0844 40.2432 38.0846 40.2431 38.0846 40.2459H40.0846C40.0846 39.0741 39.1195 38.2617 38.0744 38.2617V40.2617ZM38.0846 40.2459C38.0846 40.2488 38.0844 40.2487 38.0849 40.2461C38.0854 40.2435 38.0865 40.24 38.0883 40.2359C38.092 40.2274 38.0967 40.2219 38.0993 40.2194C38.1036 40.2154 38.0971 40.2237 38.0744 40.2237V42.2237C39.1102 42.2237 40.0846 41.4273 40.0846 40.2459H38.0846ZM38.0744 40.2237C38.0525 40.2237 38.046 40.2157 38.05 40.2194C38.0525 40.2218 38.0571 40.2271 38.0608 40.2355C38.0625 40.2395 38.0636 40.2431 38.0642 40.2457C38.0647 40.2484 38.0645 40.2486 38.0645 40.2459H36.0645C36.0645 41.4259 37.0382 42.2237 38.0744 42.2237V40.2237ZM39.5342 40.2459C39.5342 39.3955 38.872 38.7604 38.0743 38.7604V40.7604C37.9403 40.7604 37.7985 40.7077 37.6896 40.5989C37.5754 40.4848 37.5342 40.3469 37.5342 40.2459H39.5342ZM38.0743 38.7604C37.2918 38.7604 36.6148 39.3871 36.6148 40.2459H38.6148C38.6148 40.3556 38.5691 40.4926 38.4586 40.602C38.3552 40.7044 38.2167 40.7604 38.0743 40.7604V38.7604ZM36.6148 40.2459C36.6148 41.106 37.2985 41.7254 38.0743 41.7254V39.7254C38.2154 39.7254 38.3525 39.7805 38.4555 39.8817C38.5655 39.9898 38.6148 40.1285 38.6148 40.2459H36.6148ZM38.0774 41.7254C38.8623 41.723 39.5342 41.1009 39.5342 40.2459H37.5342C37.5342 40.1366 37.5793 39.9967 37.6931 39.884C37.8013 39.7769 37.9404 39.7258 38.0712 39.7254L38.0774 41.7254ZM40.2247 40.3133H40.8786V38.3133H40.2247V40.3133ZM40.0316 38.7818L37.9467 42.1042L39.6408 43.1672L41.7257 39.8449L40.0316 38.7818ZM38.7937 41.6357H38.1391V43.6357H38.7937V41.6357ZM38.986 43.1674L41.0717 39.845L39.3778 38.7816L37.2921 42.104L38.986 43.1674ZM40.9328 41.7096C40.9328 41.7066 40.9331 41.7065 40.9326 41.7086C40.9322 41.7106 40.9314 41.7136 40.9299 41.7169C40.9269 41.7238 40.9232 41.728 40.9214 41.7297C40.9189 41.7321 40.9248 41.7254 40.9431 41.7254V39.7254C39.8984 39.7254 38.9328 40.5365 38.9328 41.7096H40.9328ZM40.9431 41.7254C40.9608 41.7254 40.9668 41.732 40.9645 41.7298C40.9629 41.7283 40.9593 41.7242 40.9563 41.7173C40.9549 41.714 40.954 41.7111 40.9536 41.709C40.9531 41.7068 40.9534 41.7068 40.9534 41.7096H42.9534C42.9534 40.5377 41.9882 39.7254 40.9431 39.7254V41.7254ZM40.9534 41.7096C40.9534 41.714 40.9529 41.7151 40.9533 41.7135C40.9536 41.712 40.9544 41.7091 40.9559 41.7056C40.9592 41.6981 40.9635 41.6929 40.9663 41.6902C40.9711 41.6857 40.9654 41.6937 40.9431 41.6937V43.6937C41.9836 43.6937 42.9534 42.8926 42.9534 41.7096H40.9534ZM40.9424 41.6937C40.9209 41.6938 40.9154 41.686 40.92 41.6903C40.9228 41.6929 40.927 41.6981 40.9303 41.7055C40.9318 41.709 40.9326 41.7118 40.9329 41.7134C40.9332 41.715 40.9328 41.7139 40.9328 41.7096H38.9328C38.9328 42.8923 39.9028 43.6945 40.9438 43.6937L40.9424 41.6937ZM42.4033 41.7096C42.4033 40.8567 41.7326 40.2301 40.9434 40.2301V42.2301C40.8098 42.2301 40.6698 42.1779 40.5619 42.071C40.4485 41.9587 40.4033 41.8191 40.4033 41.7096H42.4033ZM40.9434 40.2301C40.1525 40.2301 39.4899 40.8652 39.4899 41.7096H41.4899C41.4899 41.8194 41.4448 41.9569 41.3338 42.0678C41.2287 42.173 41.0873 42.2301 40.9434 42.2301V40.2301ZM39.4899 41.7096C39.4899 42.5545 40.1527 43.1887 40.9434 43.1887V41.1887C41.0863 41.1887 41.2278 41.2453 41.3335 41.3509C41.445 41.4623 41.4899 41.6002 41.4899 41.7096H39.4899ZM40.9434 43.1887C41.7339 43.1887 42.4033 42.5615 42.4033 41.7096H40.4033C40.4033 41.6005 40.4482 41.4608 40.562 41.348C40.6705 41.2405 40.8108 41.1887 40.9434 41.1887V43.1887Z" fill="white" mask="url(#path-12-inside-1_458_376)"/>
<mask id="path-14-inside-2_458_376" fill="white">
<path d="M9.59082 46.1127C9.59082 45.5431 10.0568 45.1284 10.6007 45.1284C11.145 45.1284 11.611 45.5431 11.611 46.1127C11.611 46.683 11.1451 47.0906 10.6007 47.0906C10.0568 47.0906 9.59082 46.683 9.59082 46.1127ZM11.061 46.1127C11.061 45.8151 10.847 45.6271 10.6011 45.6271C10.3619 45.6271 10.1415 45.8151 10.1415 46.1127C10.1415 46.4042 10.3611 46.5922 10.6011 46.5922C10.847 46.5922 11.061 46.4042 11.061 46.1127ZM12.7511 45.18H13.405L11.3201 48.5027H10.6654L12.7511 45.18ZM12.4595 47.5765C12.4595 47.0062 12.9255 46.5922 13.4698 46.5922C14.0141 46.5922 14.4801 47.007 14.4801 47.5765C14.4801 48.1528 14.0141 48.5608 13.4698 48.5608C12.9255 48.5611 12.4595 48.1528 12.4595 47.5765ZM13.9297 47.5765C13.9297 47.285 13.7157 47.097 13.4698 47.097C13.2306 47.097 13.0162 47.2849 13.0162 47.5765C13.0162 47.8681 13.2302 48.0556 13.4698 48.0556C13.7165 48.0556 13.9297 47.8681 13.9297 47.5765Z"/>
</mask>
<path d="M9.59082 46.1127C9.59082 45.5431 10.0568 45.1284 10.6007 45.1284C11.145 45.1284 11.611 45.5431 11.611 46.1127C11.611 46.683 11.1451 47.0906 10.6007 47.0906C10.0568 47.0906 9.59082 46.683 9.59082 46.1127ZM11.061 46.1127C11.061 45.8151 10.847 45.6271 10.6011 45.6271C10.3619 45.6271 10.1415 45.8151 10.1415 46.1127C10.1415 46.4042 10.3611 46.5922 10.6011 46.5922C10.847 46.5922 11.061 46.4042 11.061 46.1127ZM12.7511 45.18H13.405L11.3201 48.5027H10.6654L12.7511 45.18ZM12.4595 47.5765C12.4595 47.0062 12.9255 46.5922 13.4698 46.5922C14.0141 46.5922 14.4801 47.007 14.4801 47.5765C14.4801 48.1528 14.0141 48.5608 13.4698 48.5608C12.9255 48.5611 12.4595 48.1528 12.4595 47.5765ZM13.9297 47.5765C13.9297 47.285 13.7157 47.097 13.4698 47.097C13.2306 47.097 13.0162 47.2849 13.0162 47.5765C13.0162 47.8681 13.2302 48.0556 13.4698 48.0556C13.7165 48.0556 13.9297 47.8681 13.9297 47.5765Z" fill="white"/>
<path d="M12.7511 45.18V44.18H12.1981L11.9041 44.6484L12.7511 45.18ZM13.405 45.18L14.252 45.7115L15.213 44.18H13.405V45.18ZM11.3201 48.5027V49.5027H11.8732L12.1671 49.0342L11.3201 48.5027ZM10.6654 48.5027L9.81846 47.9711L8.85706 49.5027H10.6654V48.5027ZM13.4698 48.5608V47.5608L13.4691 47.5608L13.4698 48.5608ZM10.5908 46.1127C10.5908 46.1099 10.5911 46.1099 10.5906 46.112C10.5902 46.1141 10.5893 46.117 10.5879 46.1203C10.5849 46.1271 10.5814 46.1312 10.5797 46.1327C10.5775 46.1348 10.5834 46.1284 10.6007 46.1284V44.1284C9.55553 44.1284 8.59082 44.9412 8.59082 46.1127H10.5908ZM10.6007 46.1284C10.6184 46.1284 10.6244 46.135 10.6221 46.1328C10.6205 46.1313 10.6169 46.1272 10.6139 46.1203C10.6125 46.1171 10.6116 46.1142 10.6112 46.1121C10.6107 46.1099 10.611 46.1099 10.611 46.1127H12.611C12.611 44.9409 11.6459 44.1284 10.6007 44.1284V46.1284ZM10.611 46.1127C10.611 46.1156 10.6107 46.1155 10.6113 46.1129C10.6118 46.1104 10.6128 46.1068 10.6146 46.1028C10.6183 46.0943 10.623 46.0888 10.6256 46.0863C10.6299 46.0823 10.6234 46.0906 10.6007 46.0906V48.0906C11.6366 48.0906 12.611 47.2941 12.611 46.1127H10.611ZM10.6007 46.0906C10.5784 46.0906 10.572 46.0824 10.5762 46.0864C10.5789 46.0889 10.5835 46.0944 10.5872 46.1028C10.589 46.1068 10.59 46.1104 10.5906 46.1129C10.5911 46.1155 10.5908 46.1156 10.5908 46.1127H8.59082C8.59082 47.2939 9.565 48.0906 10.6007 48.0906V46.0906ZM12.061 46.1127C12.061 45.2623 11.3988 44.6271 10.6011 44.6271V46.6271C10.467 46.6271 10.3252 46.5745 10.2163 46.4656C10.1022 46.3515 10.061 46.2136 10.061 46.1127H12.061ZM10.6011 44.6271C9.81848 44.6271 9.14151 45.254 9.14151 46.1127H11.1415C11.1415 46.2223 11.0958 46.3593 10.9854 46.4687C10.882 46.5711 10.7435 46.6271 10.6011 46.6271V44.6271ZM9.14151 46.1127C9.14151 46.9727 9.8252 47.5922 10.6011 47.5922V45.5922C10.7421 45.5922 10.8793 45.6474 10.9823 45.7486C11.0923 45.8567 11.1415 45.9954 11.1415 46.1127H9.14151ZM10.6011 47.5922C11.3903 47.5922 12.061 46.9655 12.061 46.1127H10.061C10.061 46.0032 10.1061 45.8637 10.2195 45.7513C10.3274 45.6444 10.4674 45.5922 10.6011 45.5922V47.5922ZM12.7511 46.18H13.405V44.18H12.7511V46.18ZM12.5579 44.6485L10.473 47.9712L12.1671 49.0342L14.252 45.7115L12.5579 44.6485ZM11.3201 47.5027H10.6654V49.5027H11.3201V47.5027ZM11.5124 49.0344L13.598 45.7117L11.9041 44.6484L9.81846 47.9711L11.5124 49.0344ZM13.4595 47.5765C13.4595 47.5735 13.4598 47.5734 13.4594 47.5755C13.4589 47.5775 13.4581 47.5804 13.4566 47.5837C13.4536 47.5906 13.45 47.5949 13.4482 47.5965C13.4456 47.599 13.4516 47.5922 13.4698 47.5922V45.5922C12.425 45.5922 11.4595 46.4035 11.4595 47.5765H13.4595ZM13.4698 47.5922C13.4875 47.5922 13.4934 47.5988 13.4912 47.5966C13.4896 47.5951 13.486 47.591 13.483 47.5842C13.4816 47.5809 13.4807 47.578 13.4803 47.5759C13.4798 47.5737 13.4801 47.5737 13.4801 47.5765H15.4801C15.4801 46.4047 14.515 45.5922 13.4698 45.5922V47.5922ZM13.4801 47.5765C13.4801 47.5809 13.4797 47.582 13.48 47.5805C13.4803 47.5789 13.4811 47.5761 13.4826 47.5726C13.4859 47.5651 13.4902 47.5599 13.493 47.5573C13.4978 47.5527 13.4921 47.5608 13.4698 47.5608V49.5608C14.5104 49.5608 15.4801 48.7595 15.4801 47.5765H13.4801ZM13.4691 47.5608C13.4474 47.5608 13.4419 47.5529 13.4467 47.5575C13.4495 47.5601 13.4538 47.5653 13.457 47.5727C13.4585 47.5762 13.4593 47.579 13.4596 47.5805C13.4599 47.582 13.4595 47.5809 13.4595 47.5765H11.4595C11.4595 48.7589 12.4288 49.5615 13.4705 49.5608L13.4691 47.5608ZM14.9297 47.5765C14.9297 46.7237 14.259 46.097 13.4698 46.097V48.097C13.3361 48.097 13.1961 48.0448 13.0882 47.9379C12.9748 47.8255 12.9297 47.686 12.9297 47.5765H14.9297ZM13.4698 46.097C12.6788 46.097 12.0162 46.7322 12.0162 47.5765H14.0162C14.0162 47.6862 13.9712 47.8238 13.8602 47.9347C13.755 48.0398 13.6137 48.097 13.4698 48.097V46.097ZM12.0162 47.5765C12.0162 48.4214 12.6789 49.0556 13.4698 49.0556V47.0556C13.6126 47.0556 13.7542 47.1123 13.8599 47.2179C13.9714 47.3293 14.0162 47.4672 14.0162 47.5765H12.0162ZM13.4698 49.0556C14.2598 49.0556 14.9297 48.4293 14.9297 47.5765H12.9297C12.9297 47.468 12.9743 47.3281 13.0885 47.2149C13.1973 47.1072 13.3376 47.0556 13.4698 47.0556V49.0556Z" fill="white" mask="url(#path-14-inside-2_458_376)"/>
</svg>
