<svg width="54" height="66" viewBox="0 0 54 66" fill="none" xmlns="http://www.w3.org/2000/svg">
<mask id="path-1-inside-1_458_327" fill="white">
<path d="M27.8773 11.0628C27.8726 11.0348 27.859 11.0084 27.839 10.9879C27.8274 10.9653 27.7989 10.9578 27.7857 10.9373C27.6191 10.6673 27.3212 10.5024 26.9999 10.5024C26.6786 10.5024 26.3807 10.6673 26.2145 10.9373C26.1992 10.9578 26.1723 10.9653 26.1613 10.9879C26.1412 11.0084 26.1276 11.0348 26.1229 11.0628L12.6622 35.7188C12.0077 36.9296 11.9238 38.3609 12.4334 39.6374L17.9697 53.625H17.4541C16.6948 53.625 15.966 53.9214 15.4292 54.4487C14.8923 54.9761 14.5905 55.6918 14.5905 56.4375V60.1875C14.5905 60.9334 14.8922 61.6491 15.4292 62.1763C15.9661 62.7036 16.6948 63 17.4541 63H36.5449C37.3043 63 38.0331 62.7037 38.5699 62.1763C39.1067 61.649 39.4085 60.9333 39.4085 60.1875V56.4375C39.4085 55.6917 39.1068 54.976 38.5699 54.4487C38.033 53.9215 37.3042 53.625 36.5449 53.625H36.0293L41.5657 39.6374C42.0753 38.3609 41.9914 36.9296 41.3368 35.7188L27.8773 11.0628ZM26.999 35.813C27.5053 35.813 27.9911 36.0106 28.349 36.3622C28.707 36.7137 28.9081 37.1908 28.9081 37.6881C28.9081 38.1853 28.707 38.6624 28.349 39.014C27.9911 39.3655 27.5053 39.5631 26.999 39.5631C26.4928 39.5631 26.007 39.3655 25.649 39.014C25.2911 38.6624 25.09 38.1853 25.09 37.6881C25.09 37.1908 25.2911 36.7137 25.649 36.3622C26.007 36.0106 26.4928 35.813 26.999 35.813ZM36.5445 55.5007C36.7976 55.5007 37.0405 55.5995 37.2195 55.7753C37.3984 55.951 37.499 56.1896 37.499 56.4382V60.1882C37.499 60.4368 37.3984 60.6754 37.2195 60.8512C37.0405 61.027 36.7976 61.1257 36.5445 61.1257H17.4536C16.9265 61.1257 16.4991 60.706 16.4991 60.1882V56.4382C16.4991 55.9205 16.9265 55.5007 17.4536 55.5007H36.5445ZM39.7899 38.9631L33.9864 53.6257H20.0119L14.2084 38.9631C13.9029 38.1921 13.9587 37.3278 14.361 36.6009L26.0445 15.1689V33.9384C26.0497 33.9764 26.0573 34.0137 26.0676 34.0509C24.8535 34.3523 23.867 35.219 23.4277 36.3704C22.9883 37.5222 23.1515 38.8121 23.8649 39.8229C24.5782 40.8336 25.751 41.4367 27.003 41.4367C28.255 41.4367 29.4277 40.8336 30.1411 39.8229C30.8544 38.8121 31.0176 37.5222 30.5783 36.3704C30.139 35.219 29.1525 34.3522 27.9384 34.0509C27.9486 34.0137 27.9563 33.9764 27.9614 33.9384V15.1689L39.645 36.5998C40.0447 37.328 40.0976 38.1929 39.7899 38.9631ZM47.0444 3.00028H43.2262C42.6991 3.00028 42.2717 3.42007 42.2717 3.93779V4.8753H29.6914C29.4289 4.13994 28.8668 3.54522 28.1398 3.23386C27.4128 2.92205 26.5861 2.92205 25.8592 3.23386C25.1322 3.54524 24.5701 4.13997 24.3076 4.8753H11.7272V3.93779C11.7272 3.68919 11.6267 3.45062 11.4477 3.27484C11.2687 3.09906 11.0258 3.00028 10.7727 3.00028H6.95454C6.42742 3.00028 6 3.42007 6 3.93779V7.68782C6 7.93643 6.10057 8.17499 6.27954 8.35077C6.45852 8.52655 6.70142 8.62533 6.95454 8.62533H10.7727C11.0258 8.62533 11.2687 8.52656 11.4477 8.35077C11.6267 8.17499 11.7272 7.93643 11.7272 7.68782V6.75031H19.6499C15.9498 8.73751 13.2592 12.1481 12.2237 16.1631C11.5001 16.2782 10.849 16.6616 10.4045 17.2341C9.96009 17.8067 9.75595 18.5245 9.83478 19.2406C9.91319 19.9563 10.2682 20.615 10.8264 21.0818C11.3846 21.548 12.1039 21.7866 12.8361 21.7476C13.5677 21.7091 14.2567 21.3961 14.761 20.8733C15.2652 20.3506 15.5459 19.6579 15.5455 18.9381C15.5497 18.4434 15.4172 17.9571 15.1615 17.531C14.9058 17.1049 14.5372 16.755 14.0945 16.5194C14.735 14.1429 16.0432 11.9913 17.8692 10.3101C19.6956 8.62922 21.9666 7.48664 24.4227 7.01296C24.7296 7.65832 25.2763 8.16432 25.9504 8.42714C26.6246 8.6904 27.3754 8.6904 28.0496 8.42714C28.7237 8.16431 29.2704 7.6583 29.5773 7.01296C32.0335 7.48673 34.3044 8.62932 36.1308 10.3101C37.9567 11.9913 39.2649 14.1429 39.9055 16.5194C39.4628 16.755 39.0942 17.1049 38.8385 17.531C38.5828 17.957 38.4503 18.4434 38.4545 18.9381C38.4541 19.658 38.7349 20.3507 39.239 20.8733C39.7432 21.396 40.4323 21.7091 41.1639 21.7476C41.896 21.7866 42.6154 21.548 43.1736 21.0818C43.7318 20.6151 44.0868 19.9563 44.1652 19.2406C44.2441 18.5245 44.0399 17.8067 43.5955 17.2341C43.151 16.6615 42.4999 16.2782 41.7763 16.1631C40.7408 12.1481 38.0502 8.73751 34.3501 6.75031H42.2728V7.68782C42.2728 7.93643 42.3733 8.17499 42.5523 8.35077C42.7313 8.52655 42.9742 8.62533 43.2273 8.62533H47.0455C47.2986 8.62533 47.5415 8.52656 47.7205 8.35077C47.8994 8.17499 48 7.93643 48 7.68782V3.93779C48 3.68919 47.8994 3.45062 47.7205 3.27484C47.5415 3.09906 47.2986 3.00028 47.0455 3.00028H47.0444ZM9.81729 6.75031H7.90821V4.8753H9.81729V6.75031ZM12.6809 19.8754C12.1538 19.8754 11.7264 19.4556 11.7264 18.9379C11.7264 18.4202 12.1538 18.0004 12.6809 18.0004H12.7764C12.8147 18.0004 12.8335 18.0192 12.8718 18.0192C13.3163 18.1084 13.6355 18.4922 13.6355 18.9379C13.6355 19.1865 13.5349 19.4251 13.3559 19.6009C13.1769 19.7766 12.934 19.8754 12.6809 19.8754ZM26.999 6.75031C26.613 6.75031 26.2648 6.5218 26.1174 6.17149C25.9695 5.82118 26.0509 5.41814 26.324 5.14985C26.5972 4.88157 27.0076 4.80164 27.3642 4.94687C27.7209 5.09169 27.9536 5.43362 27.9536 5.81281C27.9536 6.06141 27.853 6.29998 27.674 6.47576C27.4951 6.65154 27.2522 6.75031 26.999 6.75031ZM41.1263 18.0197C41.1582 18.0151 41.1902 18.0088 41.2217 18.0009H41.3172C41.7032 18.0009 42.0514 18.2294 42.1988 18.5797C42.3467 18.93 42.2653 19.333 41.9922 19.6013C41.719 19.8696 41.3086 19.9495 40.952 19.8043C40.5953 19.6595 40.3626 19.3175 40.3626 18.9384C40.3626 18.4926 40.6818 18.1088 41.1263 18.0197ZM46.0899 6.75031H44.1808V4.8753H46.0899V6.75031Z"/>
</mask>
<path d="M27.8773 11.0628C27.8726 11.0348 27.859 11.0084 27.839 10.9879C27.8274 10.9653 27.7989 10.9578 27.7857 10.9373C27.6191 10.6673 27.3212 10.5024 26.9999 10.5024C26.6786 10.5024 26.3807 10.6673 26.2145 10.9373C26.1992 10.9578 26.1723 10.9653 26.1613 10.9879C26.1412 11.0084 26.1276 11.0348 26.1229 11.0628L12.6622 35.7188C12.0077 36.9296 11.9238 38.3609 12.4334 39.6374L17.9697 53.625H17.4541C16.6948 53.625 15.966 53.9214 15.4292 54.4487C14.8923 54.9761 14.5905 55.6918 14.5905 56.4375V60.1875C14.5905 60.9334 14.8922 61.6491 15.4292 62.1763C15.9661 62.7036 16.6948 63 17.4541 63H36.5449C37.3043 63 38.0331 62.7037 38.5699 62.1763C39.1067 61.649 39.4085 60.9333 39.4085 60.1875V56.4375C39.4085 55.6917 39.1068 54.976 38.5699 54.4487C38.033 53.9215 37.3042 53.625 36.5449 53.625H36.0293L41.5657 39.6374C42.0753 38.3609 41.9914 36.9296 41.3368 35.7188L27.8773 11.0628ZM26.999 35.813C27.5053 35.813 27.9911 36.0106 28.349 36.3622C28.707 36.7137 28.9081 37.1908 28.9081 37.6881C28.9081 38.1853 28.707 38.6624 28.349 39.014C27.9911 39.3655 27.5053 39.5631 26.999 39.5631C26.4928 39.5631 26.007 39.3655 25.649 39.014C25.2911 38.6624 25.09 38.1853 25.09 37.6881C25.09 37.1908 25.2911 36.7137 25.649 36.3622C26.007 36.0106 26.4928 35.813 26.999 35.813ZM36.5445 55.5007C36.7976 55.5007 37.0405 55.5995 37.2195 55.7753C37.3984 55.951 37.499 56.1896 37.499 56.4382V60.1882C37.499 60.4368 37.3984 60.6754 37.2195 60.8512C37.0405 61.027 36.7976 61.1257 36.5445 61.1257H17.4536C16.9265 61.1257 16.4991 60.706 16.4991 60.1882V56.4382C16.4991 55.9205 16.9265 55.5007 17.4536 55.5007H36.5445ZM39.7899 38.9631L33.9864 53.6257H20.0119L14.2084 38.9631C13.9029 38.1921 13.9587 37.3278 14.361 36.6009L26.0445 15.1689V33.9384C26.0497 33.9764 26.0573 34.0137 26.0676 34.0509C24.8535 34.3523 23.867 35.219 23.4277 36.3704C22.9883 37.5222 23.1515 38.8121 23.8649 39.8229C24.5782 40.8336 25.751 41.4367 27.003 41.4367C28.255 41.4367 29.4277 40.8336 30.1411 39.8229C30.8544 38.8121 31.0176 37.5222 30.5783 36.3704C30.139 35.219 29.1525 34.3522 27.9384 34.0509C27.9486 34.0137 27.9563 33.9764 27.9614 33.9384V15.1689L39.645 36.5998C40.0447 37.328 40.0976 38.1929 39.7899 38.9631ZM47.0444 3.00028H43.2262C42.6991 3.00028 42.2717 3.42007 42.2717 3.93779V4.8753H29.6914C29.4289 4.13994 28.8668 3.54522 28.1398 3.23386C27.4128 2.92205 26.5861 2.92205 25.8592 3.23386C25.1322 3.54524 24.5701 4.13997 24.3076 4.8753H11.7272V3.93779C11.7272 3.68919 11.6267 3.45062 11.4477 3.27484C11.2687 3.09906 11.0258 3.00028 10.7727 3.00028H6.95454C6.42742 3.00028 6 3.42007 6 3.93779V7.68782C6 7.93643 6.10057 8.17499 6.27954 8.35077C6.45852 8.52655 6.70142 8.62533 6.95454 8.62533H10.7727C11.0258 8.62533 11.2687 8.52656 11.4477 8.35077C11.6267 8.17499 11.7272 7.93643 11.7272 7.68782V6.75031H19.6499C15.9498 8.73751 13.2592 12.1481 12.2237 16.1631C11.5001 16.2782 10.849 16.6616 10.4045 17.2341C9.96009 17.8067 9.75595 18.5245 9.83478 19.2406C9.91319 19.9563 10.2682 20.615 10.8264 21.0818C11.3846 21.548 12.1039 21.7866 12.8361 21.7476C13.5677 21.7091 14.2567 21.3961 14.761 20.8733C15.2652 20.3506 15.5459 19.6579 15.5455 18.9381C15.5497 18.4434 15.4172 17.9571 15.1615 17.531C14.9058 17.1049 14.5372 16.755 14.0945 16.5194C14.735 14.1429 16.0432 11.9913 17.8692 10.3101C19.6956 8.62922 21.9666 7.48664 24.4227 7.01296C24.7296 7.65832 25.2763 8.16432 25.9504 8.42714C26.6246 8.6904 27.3754 8.6904 28.0496 8.42714C28.7237 8.16431 29.2704 7.6583 29.5773 7.01296C32.0335 7.48673 34.3044 8.62932 36.1308 10.3101C37.9567 11.9913 39.2649 14.1429 39.9055 16.5194C39.4628 16.755 39.0942 17.1049 38.8385 17.531C38.5828 17.957 38.4503 18.4434 38.4545 18.9381C38.4541 19.658 38.7349 20.3507 39.239 20.8733C39.7432 21.396 40.4323 21.7091 41.1639 21.7476C41.896 21.7866 42.6154 21.548 43.1736 21.0818C43.7318 20.6151 44.0868 19.9563 44.1652 19.2406C44.2441 18.5245 44.0399 17.8067 43.5955 17.2341C43.151 16.6615 42.4999 16.2782 41.7763 16.1631C40.7408 12.1481 38.0502 8.73751 34.3501 6.75031H42.2728V7.68782C42.2728 7.93643 42.3733 8.17499 42.5523 8.35077C42.7313 8.52655 42.9742 8.62533 43.2273 8.62533H47.0455C47.2986 8.62533 47.5415 8.52656 47.7205 8.35077C47.8994 8.17499 48 7.93643 48 7.68782V3.93779C48 3.68919 47.8994 3.45062 47.7205 3.27484C47.5415 3.09906 47.2986 3.00028 47.0455 3.00028H47.0444ZM9.81729 6.75031H7.90821V4.8753H9.81729V6.75031ZM12.6809 19.8754C12.1538 19.8754 11.7264 19.4556 11.7264 18.9379C11.7264 18.4202 12.1538 18.0004 12.6809 18.0004H12.7764C12.8147 18.0004 12.8335 18.0192 12.8718 18.0192C13.3163 18.1084 13.6355 18.4922 13.6355 18.9379C13.6355 19.1865 13.5349 19.4251 13.3559 19.6009C13.1769 19.7766 12.934 19.8754 12.6809 19.8754ZM26.999 6.75031C26.613 6.75031 26.2648 6.5218 26.1174 6.17149C25.9695 5.82118 26.0509 5.41814 26.324 5.14985C26.5972 4.88157 27.0076 4.80164 27.3642 4.94687C27.7209 5.09169 27.9536 5.43362 27.9536 5.81281C27.9536 6.06141 27.853 6.29998 27.674 6.47576C27.4951 6.65154 27.2522 6.75031 26.999 6.75031ZM41.1263 18.0197C41.1582 18.0151 41.1902 18.0088 41.2217 18.0009H41.3172C41.7032 18.0009 42.0514 18.2294 42.1988 18.5797C42.3467 18.93 42.2653 19.333 41.9922 19.6013C41.719 19.8696 41.3086 19.9495 40.952 19.8043C40.5953 19.6595 40.3626 19.3175 40.3626 18.9384C40.3626 18.4926 40.6818 18.1088 41.1263 18.0197ZM46.0899 6.75031H44.1808V4.8753H46.0899V6.75031Z" fill="white" stroke="white" stroke-width="2" mask="url(#path-1-inside-1_458_327)"/>
</svg>
