<svg width="1765" height="24" viewBox="0 0 1765 24" fill="none" xmlns="http://www.w3.org/2000/svg">
<path d="M1514.3 6.04429C1506.65 5.8825 1498.99 6.16431 1491.47 6.88426C1487.7 7.23759 1484.67 8.72008 1485.03 10.8046C1485.33 12.6071 1488.92 14.4509 1492.71 14.0919C1500.23 13.3744 1507.9 13.0954 1515.55 13.2602C1519.38 13.3389 1522.29 11.1045 1521.99 9.33516C1521.59 7.16994 1518.12 6.1157 1514.3 6.04429Z" fill="#39AAFC"/>
<path d="M1558.45 6.25664L1542.4 6.15871C1538.58 6.12965 1535.65 8.27305 1535.96 10.0791C1536.33 12.1921 1539.77 13.3321 1543.65 13.37L1559.68 13.4689C1563.5 13.498 1566.43 11.3546 1566.12 9.54853C1565.77 7.42987 1562.27 6.27278 1558.45 6.25664Z" fill="#39AAFC"/>
<path d="M1603.95 8.05822L1587.89 8.02846C1584.08 8.00666 1581.13 10.1263 1581.45 11.9489C1581.8 14.0417 1585.28 15.2339 1589.13 15.2361L1605.19 15.2659C1608.99 15.2877 1611.94 13.1681 1611.63 11.3455C1611.27 9.25265 1607.83 8.07495 1603.95 8.05822Z" fill="#39AAFC"/>
<path d="M1662.12 8.59564C1655.82 8.04688 1649.42 7.91386 1643.06 8.19985C1633.97 8.61027 1635.19 15.8189 1644.28 15.4168C1649.38 15.1825 1654.51 15.2869 1659.55 15.7272C1668.55 16.5014 1671.12 9.38271 1662.12 8.59564Z" fill="#39AAFC"/>
<path d="M1714.6 10.438C1706.31 9.63566 1697.01 10.1512 1688.88 11.0804C1685.15 11.5118 1683.51 14.0736 1684.7 15.7282C1686.17 17.7593 1690.07 18.2875 1693.8 17.8644C1692.63 18.001 1694.83 17.7875 1695.05 17.7697C1695.94 17.7056 1696.83 17.6451 1697.72 17.5939C1699.62 17.487 1701.54 17.4215 1703.45 17.3771C1706.29 17.2475 1709.16 17.3049 1711.97 17.5478C1721.02 18.4331 1723.56 11.3154 1714.6 10.438Z" fill="#39AAFC"/>
<path d="M1757.28 8.1616L1739.29 8.28211C1735.46 8.30368 1732.54 10.3587 1732.85 12.2025C1733.21 14.2742 1736.69 15.5123 1740.53 15.4897L1758.54 15.3848C1762.38 15.3622 1765.3 13.3035 1764.98 11.4643C1764.6 9.37715 1761.12 8.13902 1757.28 8.1616Z" fill="#39AAFC"/>
<path d="M1217.3 6.04429C1209.65 5.8825 1201.99 6.16431 1194.47 6.88426C1190.7 7.23759 1187.67 8.72008 1188.03 10.8046C1188.33 12.6071 1191.92 14.4509 1195.71 14.0919C1203.23 13.3744 1210.9 13.0954 1218.55 13.2602C1222.38 13.3389 1225.29 11.1045 1224.99 9.33516C1224.59 7.16994 1221.12 6.1157 1217.3 6.04429Z" fill="#39AAFC"/>
<path d="M1261.45 6.25664L1245.4 6.15871C1241.58 6.12965 1238.65 8.27305 1238.96 10.0791C1239.33 12.1921 1242.77 13.3321 1246.65 13.37L1262.68 13.4689C1266.5 13.498 1269.43 11.3546 1269.12 9.54853C1268.77 7.42987 1265.27 6.27278 1261.45 6.25664Z" fill="#39AAFC"/>
<path d="M1306.95 8.05822L1290.89 8.02846C1287.08 8.00666 1284.13 10.1263 1284.45 11.9489C1284.8 14.0417 1288.28 15.2339 1292.13 15.2361L1308.19 15.2659C1311.99 15.2877 1314.94 13.1681 1314.63 11.3455C1314.27 9.25265 1310.83 8.07495 1306.95 8.05822Z" fill="#39AAFC"/>
<path d="M1365.12 8.59564C1358.82 8.04688 1352.42 7.91386 1346.06 8.19985C1336.97 8.61027 1338.19 15.8189 1347.28 15.4168C1352.38 15.1825 1357.51 15.2869 1362.55 15.7272C1371.55 16.5014 1374.12 9.38271 1365.12 8.59564Z" fill="#39AAFC"/>
<path d="M1417.6 10.438C1409.31 9.63566 1400.01 10.1512 1391.88 11.0804C1388.15 11.5118 1386.51 14.0736 1387.7 15.7282C1389.17 17.7593 1393.07 18.2875 1396.8 17.8644C1395.63 18.001 1397.83 17.7875 1398.05 17.7697C1398.94 17.7056 1399.83 17.6451 1400.72 17.5939C1402.62 17.487 1404.54 17.4215 1406.45 17.3771C1409.29 17.2475 1412.16 17.3049 1414.97 17.5478C1424.02 18.4331 1426.56 11.3154 1417.6 10.438Z" fill="#39AAFC"/>
<path d="M1460.28 8.1616L1442.29 8.28211C1438.46 8.30368 1435.54 10.3587 1435.85 12.2025C1436.21 14.2742 1439.69 15.5123 1443.53 15.4897L1461.54 15.3848C1465.38 15.3622 1468.3 13.3035 1467.98 11.4643C1467.6 9.37715 1464.12 8.13902 1460.28 8.1616Z" fill="#39AAFC"/>
<path d="M920.304 6.04429C912.654 5.8825 904.992 6.16431 897.466 6.88426C893.705 7.23759 890.675 8.72008 891.028 10.8046C891.33 12.6071 894.922 14.4509 898.707 14.0919C906.234 13.3744 913.896 13.0954 921.547 13.2602C925.379 13.3389 928.286 11.1045 927.992 9.33516C927.586 7.16994 924.119 6.1157 920.304 6.04429Z" fill="#39AAFC"/>
<path d="M964.445 6.25664L948.402 6.15871C944.581 6.12965 941.652 8.27305 941.963 10.0791C942.332 12.1921 945.77 13.3321 949.651 13.37L965.678 13.4689C969.499 13.498 972.428 11.3546 972.117 9.54853C971.772 7.42987 968.271 6.27278 964.445 6.25664Z" fill="#39AAFC"/>
<path d="M1009.95 8.05822L993.887 8.02846C990.084 8.00666 987.133 10.1263 987.448 11.9489C987.803 14.0417 991.279 15.2339 995.127 15.2361L1011.19 15.2659C1014.99 15.2877 1017.94 13.1681 1017.63 11.3455C1017.27 9.25265 1013.83 8.07495 1009.95 8.05822Z" fill="#39AAFC"/>
<path d="M1068.12 8.59564C1061.82 8.04688 1055.42 7.91386 1049.06 8.19985C1039.97 8.61027 1041.19 15.8189 1050.28 15.4168C1055.38 15.1825 1060.51 15.2869 1065.55 15.7272C1074.55 16.5014 1077.12 9.38271 1068.12 8.59564Z" fill="#39AAFC"/>
<path d="M1120.6 10.438C1112.31 9.63566 1103.01 10.1512 1094.88 11.0804C1091.15 11.5118 1089.51 14.0736 1090.7 15.7282C1092.17 17.7593 1096.07 18.2875 1099.8 17.8644C1098.63 18.001 1100.83 17.7875 1101.05 17.7697C1101.94 17.7056 1102.83 17.6451 1103.72 17.5939C1105.62 17.487 1107.54 17.4215 1109.45 17.3771C1112.29 17.2475 1115.16 17.3049 1117.97 17.5478C1127.02 18.4331 1129.56 11.3154 1120.6 10.438Z" fill="#39AAFC"/>
<path d="M1163.28 8.1616L1145.29 8.28211C1141.46 8.30368 1138.54 10.3587 1138.85 12.2025C1139.21 14.2742 1142.69 15.5123 1146.53 15.4897L1164.54 15.3848C1168.38 15.3622 1171.3 13.3035 1170.98 11.4643C1170.6 9.37715 1167.12 8.13902 1163.28 8.1616Z" fill="#39AAFC"/>
<path d="M623.304 6.04429C615.654 5.8825 607.992 6.16431 600.466 6.88426C596.705 7.23759 593.675 8.72008 594.028 10.8046C594.33 12.6071 597.922 14.4509 601.707 14.0919C609.234 13.3744 616.896 13.0954 624.547 13.2602C628.379 13.3389 631.286 11.1045 630.992 9.33516C630.586 7.16994 627.119 6.1157 623.304 6.04429Z" fill="#39AAFC"/>
<path d="M667.445 6.25664L651.402 6.15871C647.581 6.12965 644.652 8.27305 644.963 10.0791C645.332 12.1921 648.77 13.3321 652.651 13.37L668.678 13.4689C672.499 13.498 675.428 11.3546 675.117 9.54853C674.772 7.42987 671.271 6.27278 667.445 6.25664Z" fill="#39AAFC"/>
<path d="M712.947 8.05822L696.887 8.02846C693.084 8.00666 690.133 10.1263 690.448 11.9489C690.803 14.0417 694.279 15.2339 698.127 15.2361L714.187 15.2659C717.99 15.2877 720.94 13.1681 720.625 11.3455C720.27 9.25265 716.831 8.07495 712.947 8.05822Z" fill="#39AAFC"/>
<path d="M771.116 8.59564C764.823 8.04688 758.417 7.91386 752.058 8.19985C742.967 8.61027 744.191 15.8189 753.284 15.4168C758.377 15.1825 763.508 15.2869 768.548 15.7272C777.554 16.5014 780.116 9.38271 771.116 8.59564Z" fill="#39AAFC"/>
<path d="M823.597 10.438C815.307 9.63566 806.012 10.1512 797.884 11.0804C794.149 11.5118 792.513 14.0736 793.7 15.7282C795.175 17.7593 799.066 18.2875 802.803 17.8644C801.628 18.001 803.829 17.7875 804.046 17.7697C804.935 17.7056 805.833 17.6451 806.716 17.5939C808.622 17.487 810.538 17.4215 812.451 17.3771C815.295 17.2475 818.159 17.3049 820.975 17.5478C830.016 18.4331 832.562 11.3154 823.597 10.438Z" fill="#39AAFC"/>
<path d="M866.277 8.1616L848.289 8.28211C844.464 8.30368 841.538 10.3587 841.85 12.2025C842.209 14.2742 845.688 15.5123 849.529 15.4897L867.538 15.3848C871.379 15.3622 874.295 13.3035 873.976 11.4643C873.597 9.37715 870.119 8.13902 866.277 8.1616Z" fill="#39AAFC"/>
<path d="M326.304 6.04429C318.654 5.8825 310.992 6.16431 303.466 6.88426C299.705 7.23759 296.675 8.72008 297.028 10.8046C297.33 12.6071 300.922 14.4509 304.707 14.0919C312.234 13.3744 319.896 13.0954 327.547 13.2602C331.379 13.3389 334.286 11.1045 333.992 9.33516C333.586 7.16994 330.119 6.1157 326.304 6.04429Z" fill="#39AAFC"/>
<path d="M370.445 6.25664L354.402 6.15871C350.581 6.12965 347.652 8.27305 347.963 10.0791C348.332 12.1921 351.77 13.3321 355.651 13.37L371.678 13.4689C375.499 13.498 378.428 11.3546 378.117 9.54853C377.772 7.42987 374.271 6.27278 370.445 6.25664Z" fill="#39AAFC"/>
<path d="M415.947 8.05822L399.887 8.02846C396.084 8.00666 393.133 10.1263 393.448 11.9489C393.803 14.0417 397.279 15.2339 401.127 15.2361L417.187 15.2659C420.99 15.2877 423.94 13.1681 423.625 11.3455C423.27 9.25265 419.831 8.07495 415.947 8.05822Z" fill="#39AAFC"/>
<path d="M474.116 8.59564C467.823 8.04688 461.417 7.91386 455.058 8.19985C445.967 8.61027 447.191 15.8189 456.284 15.4168C461.377 15.1825 466.508 15.2869 471.548 15.7272C480.554 16.5014 483.116 9.38271 474.116 8.59564Z" fill="#39AAFC"/>
<path d="M526.597 10.438C518.307 9.63566 509.012 10.1512 500.884 11.0804C497.149 11.5118 495.513 14.0736 496.7 15.7282C498.175 17.7593 502.066 18.2875 505.803 17.8644C504.628 18.001 506.829 17.7875 507.046 17.7697C507.935 17.7056 508.833 17.6451 509.716 17.5939C511.622 17.487 513.538 17.4215 515.451 17.3771C518.295 17.2475 521.159 17.3049 523.975 17.5478C533.016 18.4331 535.562 11.3154 526.597 10.438Z" fill="#39AAFC"/>
<path d="M569.277 8.1616L551.289 8.28211C547.464 8.30368 544.538 10.3587 544.85 12.2025C545.209 14.2742 548.688 15.5123 552.529 15.4897L570.538 15.3848C574.379 15.3622 577.295 13.3035 576.976 11.4643C576.597 9.37715 573.119 8.13902 569.277 8.1616Z" fill="#39AAFC"/>
<path d="M29.3043 6.04429C21.654 5.8825 13.9924 6.16431 6.46648 6.88426C2.70463 7.23759 -0.325293 8.72008 0.0280695 10.8046C0.330017 12.6071 3.92154 14.4509 7.70668 14.0919C15.2338 13.3744 22.8962 13.0954 30.5465 13.2602C34.3794 13.3389 37.286 11.1045 36.992 9.33516C36.5864 7.16994 33.119 6.1157 29.3043 6.04429Z" fill="#39AAFC"/>
<path d="M73.4454 6.25664L57.4016 6.15871C53.5807 6.12965 50.6522 8.27305 50.9632 10.0791C51.3316 12.1921 54.7703 13.3321 58.6509 13.37L74.6785 13.4689C78.4994 13.498 81.4279 11.3546 81.1169 9.54853C80.7718 7.42987 77.2714 6.27278 73.4454 6.25664Z" fill="#39AAFC"/>
<path d="M118.947 8.05822L102.887 8.02846C99.0838 8.00666 96.1331 10.1263 96.4481 11.9489C96.8034 14.0417 100.279 15.2339 104.127 15.2361L120.187 15.2659C123.99 15.2877 126.94 13.1681 126.625 11.3455C126.27 9.25265 122.831 8.07495 118.947 8.05822Z" fill="#39AAFC"/>
<path d="M177.116 8.59564C170.823 8.04688 164.417 7.91386 158.058 8.19985C148.967 8.61027 150.191 15.8189 159.284 15.4168C164.377 15.1825 169.508 15.2869 174.548 15.7272C183.554 16.5014 186.116 9.38271 177.116 8.59564Z" fill="#39AAFC"/>
<path d="M229.597 10.438C221.307 9.63566 212.012 10.1512 203.884 11.0804C200.149 11.5118 198.513 14.0736 199.7 15.7282C201.175 17.7593 205.066 18.2875 208.803 17.8644C207.628 18.001 209.829 17.7875 210.046 17.7697C210.935 17.7056 211.833 17.6451 212.716 17.5939C214.622 17.487 216.538 17.4215 218.451 17.3771C221.295 17.2475 224.16 17.3049 226.975 17.5478C236.016 18.4331 238.562 11.3154 229.597 10.438Z" fill="#39AAFC"/>
<path d="M272.277 8.1616L254.289 8.28211C250.463 8.30368 247.538 10.3587 247.85 12.2025C248.209 14.2742 251.687 15.5123 255.529 15.4897L273.538 15.3848C277.379 15.3622 280.295 13.3035 279.976 11.4643C279.597 9.37715 276.119 8.13902 272.277 8.1616Z" fill="#39AAFC"/>
</svg>
