<svg width="88" height="102" viewBox="0 0 88 102" fill="none" xmlns="http://www.w3.org/2000/svg">
<path d="M50.6367 67.4539C50.7937 67.1667 51.0537 66.9555 51.3602 66.8664C62.668 64.8794 73.7223 61.5795 84.315 57.0305C74.2132 49.9022 63.6507 43.5014 52.7019 37.8735C51.5388 37.2497 52.2142 35.675 53.2595 35.5747C50.8713 25.3785 49.4262 14.97 48.9434 4.49057C42.6553 12.3876 38.4644 21.8272 34.3516 31.0907L34.3199 31.1622C34.2165 31.3538 34.0651 31.5128 33.8816 31.6223C33.6981 31.7317 33.4895 31.7876 33.2778 31.7839L3.69799 28.5661C3.39337 30.2092 5.06504 32.6304 6.21225 34.292C6.53221 34.7554 6.81138 35.1597 6.99549 35.4716L11.3339 42.8187C11.7154 43.4666 12.131 44.1172 12.5505 44.7737C13.494 46.2505 14.4569 47.7575 15.0934 49.3322C15.7744 51.0207 15.3862 52.3064 14.6507 53.8818C10.2678 63.3526 6.2798 72.757 3.38338 82.8125C4.66511 82.2365 5.94624 81.6593 7.22732 81.0821C11.0209 79.3728 14.814 77.6637 18.6213 75.9868C19.1223 75.7673 19.645 75.5232 20.1838 75.2716C23.7543 73.6046 28.0297 71.6085 31.3436 74.2418C34.5175 76.7636 37.504 79.6128 40.4722 82.4447C41.8861 83.7936 43.2958 85.1385 44.7198 86.4423L56.4341 97.1058C55.0336 87.4213 53.0594 77.8344 50.5225 68.3995C50.4387 68.081 50.4798 67.7411 50.6367 67.4539Z" fill="#FF6E1C"/>
<path fill-rule="evenodd" clip-rule="evenodd" d="M56.0157 36.801C66.8907 42.5176 77.3774 48.9986 87.4022 56.199C88.0833 56.6723 88.308 57.9581 87.4022 58.3607C76.4263 63.2757 64.9417 66.8606 53.1764 69.0454C55.8441 79.1952 57.8652 89.5166 59.2265 99.9427C59.2975 100.212 59.2804 100.499 59.1779 100.757C59.0753 101.016 58.893 101.232 58.6595 101.372C58.426 101.511 58.1545 101.567 57.8874 101.529C57.6203 101.492 57.3727 101.364 57.1833 101.165L32.8488 78.8762C31.8433 77.8097 30.7544 76.8315 29.5933 75.9515C28.1873 75.0555 26.8981 75.4915 25.4986 75.9647C25.3863 76.0026 25.2734 76.0408 25.1595 76.0786C22.7786 76.8681 20.4785 77.8961 18.1819 78.9224C18.0741 78.9706 17.9663 79.0188 17.8585 79.0669C12.6415 81.3982 7.42002 83.7413 2.19397 86.0962C1.98579 86.2135 1.7493 86.2657 1.51311 86.2466C1.27691 86.2274 1.05114 86.1376 0.863082 85.9881C0.67503 85.8387 0.532758 85.6359 0.453482 85.4043C0.374207 85.1727 0.361319 84.9223 0.416382 84.6832C2.56923 76.5733 5.33147 68.6509 8.67772 60.9887C9.50181 59.1025 10.3668 57.2375 11.259 55.3865C11.781 54.5085 12.2365 53.5897 12.6211 52.6384C12.9469 52.2002 13.1173 51.659 13.1036 51.1058C13.09 50.5525 12.8931 50.0211 12.5462 49.6007C12.4785 49.4845 12.4098 49.3684 12.3408 49.2519C12.2295 49.0636 12.1175 48.8743 12.0081 48.6823C10.6691 46.0989 9.12244 43.6035 7.58468 41.1225C6.77597 39.8177 5.96973 38.5169 5.19747 37.2095C4.88652 36.6842 4.50571 36.1155 4.10376 35.5152C2.6569 33.3545 0.936082 30.7846 1.21324 28.3576C1.53561 25.524 3.78829 25.9058 5.8925 26.2624C6.3222 26.3352 6.74571 26.407 7.14532 26.4501L32.5611 29.197C37.0885 19.0257 41.7906 8.7529 49.1808 0.424328C49.3522 0.260914 49.5651 0.151835 49.7944 0.109972C50.0237 0.0681077 50.2597 0.0952011 50.4746 0.188081C50.6895 0.280961 50.8743 0.435726 51.0071 0.634078C51.1399 0.832431 51.2151 1.06608 51.2239 1.3074C51.5514 13.2862 53.1585 25.1902 56.0157 36.801ZM52.7019 37.8735C51.5388 37.2497 52.2142 35.675 53.2595 35.5747C50.8713 25.3785 49.4262 14.97 48.9434 4.49057C49.5644 3.71063 50.2059 2.94573 50.8698 2.19754L48.8266 1.31447C48.8557 2.37379 48.8946 3.43254 48.9434 4.49057C42.6553 12.3876 38.4644 21.8272 34.3516 31.0907L34.3199 31.1622C34.2165 31.3538 34.0651 31.5128 33.8816 31.6223C33.6981 31.7317 33.4895 31.7876 33.2778 31.7839L3.69799 28.5661C3.39337 30.2092 5.06504 32.6304 6.21225 34.292C6.53221 34.7554 6.81138 35.1597 6.99549 35.4716L11.3339 42.8187C11.7154 43.4666 12.131 44.1172 12.5505 44.7737C13.494 46.2505 14.4569 47.7575 15.0934 49.3322C15.7744 51.0207 15.3862 52.3064 14.6507 53.8818C10.2678 63.3526 6.2798 72.757 3.38338 82.8125C4.66511 82.2365 5.94624 81.6593 7.22732 81.0821C11.0209 79.3728 14.814 77.6637 18.6213 75.9868C19.1223 75.7673 19.645 75.5232 20.1838 75.2716C23.7543 73.6046 28.0297 71.6085 31.3436 74.2418C34.5175 76.7636 37.504 79.6128 40.4722 82.4447C41.8861 83.7936 43.2958 85.1385 44.7198 86.4423L56.4341 97.1058C55.0336 87.4213 53.0594 77.8344 50.5225 68.3995C50.4387 68.081 50.4798 67.7411 50.6367 67.4539C50.7937 67.1667 51.0537 66.9555 51.3602 66.8664C62.668 64.8794 73.7223 61.5795 84.315 57.0305C74.2132 49.9022 63.6507 43.5014 52.7019 37.8735Z" fill="black"/>
<path fill-rule="evenodd" clip-rule="evenodd" d="M56.0157 36.801C66.8907 42.5176 77.3774 48.9986 87.4022 56.199C88.0833 56.6723 88.308 57.9581 87.4022 58.3607C76.4263 63.2757 64.9417 66.8606 53.1764 69.0454C55.8441 79.1952 57.8652 89.5166 59.2265 99.9427C59.2975 100.212 59.2804 100.499 59.1779 100.757C59.0753 101.016 58.893 101.232 58.6595 101.372C58.426 101.511 58.1545 101.567 57.8874 101.529C57.6203 101.492 57.3727 101.364 57.1833 101.165L32.8488 78.8762C31.8433 77.8097 30.7544 76.8315 29.5933 75.9515C28.1873 75.0555 26.8981 75.4915 25.4986 75.9647C25.3863 76.0026 25.2734 76.0408 25.1595 76.0786C22.7786 76.8681 20.4785 77.8961 18.1819 78.9224C18.0741 78.9706 17.9663 79.0188 17.8585 79.0669C12.6415 81.3982 7.42002 83.7413 2.19397 86.0962C1.98579 86.2135 1.7493 86.2657 1.51311 86.2466C1.27691 86.2274 1.05114 86.1376 0.863082 85.9881C0.67503 85.8387 0.532758 85.6359 0.453482 85.4043C0.374207 85.1727 0.361319 84.9223 0.416382 84.6832C2.56923 76.5733 5.33147 68.6509 8.67772 60.9887C9.50181 59.1025 10.3668 57.2375 11.259 55.3865C11.781 54.5085 12.2365 53.5897 12.6211 52.6384C12.9469 52.2002 13.1173 51.659 13.1036 51.1058C13.09 50.5525 12.8931 50.0211 12.5462 49.6007C12.4785 49.4845 12.4098 49.3684 12.3408 49.2519C12.2295 49.0636 12.1175 48.8743 12.0081 48.6823C10.6691 46.0989 9.12244 43.6035 7.58468 41.1225C6.77597 39.8177 5.96973 38.5169 5.19747 37.2095C4.88652 36.6842 4.50571 36.1155 4.10376 35.5152C2.6569 33.3545 0.936082 30.7846 1.21324 28.3576C1.53561 25.524 3.78829 25.9058 5.8925 26.2624C6.3222 26.3352 6.74571 26.407 7.14532 26.4501L32.5611 29.197C37.0885 19.0257 41.7906 8.7529 49.1808 0.424328C49.3522 0.260914 49.5651 0.151835 49.7944 0.109972C50.0237 0.0681077 50.2597 0.0952011 50.4746 0.188081C50.6895 0.280961 50.8743 0.435726 51.0071 0.634078C51.1399 0.832431 51.2151 1.06608 51.2239 1.3074C51.5514 13.2862 53.1585 25.1902 56.0157 36.801ZM52.7019 37.8735C51.5388 37.2497 52.2142 35.675 53.2595 35.5747C50.8713 25.3785 49.4262 14.97 48.9434 4.49057C49.5644 3.71063 50.2059 2.94573 50.8698 2.19754L48.8266 1.31447C48.8557 2.37379 48.8946 3.43254 48.9434 4.49057C42.6553 12.3876 38.4644 21.8272 34.3516 31.0907L34.3199 31.1622C34.2165 31.3538 34.0651 31.5128 33.8816 31.6223C33.6981 31.7317 33.4895 31.7876 33.2778 31.7839L3.69799 28.5661C3.39337 30.2092 5.06504 32.6304 6.21225 34.292C6.53221 34.7554 6.81138 35.1597 6.99549 35.4716L11.3339 42.8187C11.7154 43.4666 12.131 44.1172 12.5505 44.7737C13.494 46.2505 14.4569 47.7575 15.0934 49.3322C15.7744 51.0207 15.3862 52.3064 14.6507 53.8818C10.2678 63.3526 6.2798 72.757 3.38338 82.8125C4.66511 82.2365 5.94624 81.6593 7.22732 81.0821C11.0209 79.3728 14.814 77.6637 18.6213 75.9868C19.1223 75.7673 19.645 75.5232 20.1838 75.2716C23.7543 73.6046 28.0297 71.6085 31.3436 74.2418C34.5175 76.7636 37.504 79.6128 40.4722 82.4447C41.8861 83.7936 43.2958 85.1385 44.7198 86.4423L56.4341 97.1058C55.0336 87.4213 53.0594 77.8344 50.5225 68.3995C50.4387 68.081 50.4798 67.7411 50.6367 67.4539C50.7937 67.1667 51.0537 66.9555 51.3602 66.8664C62.668 64.8794 73.7223 61.5795 84.315 57.0305C74.2132 49.9022 63.6507 43.5014 52.7019 37.8735Z" fill="black" fill-opacity="0.2"/>
<path d="M50.8698 2.19754L48.8266 1.31447C48.8557 2.37379 48.8946 3.43254 48.9434 4.49057C49.5644 3.71063 50.2059 2.94573 50.8698 2.19754Z" fill="black"/>
<path d="M50.8698 2.19754L48.8266 1.31447C48.8557 2.37379 48.8946 3.43254 48.9434 4.49057C49.5644 3.71063 50.2059 2.94573 50.8698 2.19754Z" fill="black" fill-opacity="0.2"/>
<path d="M50.9381 2.5718C52.0483 2.39519 53.8667 2.50821 54.6363 3.51138C54.9701 3.95644 54.8747 5.51771 54.936 6.11819C55.0858 7.5311 55.2152 8.97935 55.331 10.4135C55.583 13.4653 55.7669 16.5313 55.8895 19.5974C56.1279 25.5952 56.1142 31.6071 55.8895 37.5978C55.8282 39.2085 58.2392 39.2085 58.3005 37.5978C58.6332 29.2562 58.5058 20.9017 57.9191 12.5752C57.776 10.5971 57.6058 8.63317 57.4083 6.66216C57.2721 5.24925 57.3334 3.40542 56.6932 2.1338C55.5285 -0.197498 52.4705 -0.176304 50.3047 0.169859C48.7791 0.410053 49.4261 2.81904 50.9449 2.57885L50.9381 2.5718Z" fill="black"/>
<path d="M50.9381 2.5718C52.0483 2.39519 53.8667 2.50821 54.6363 3.51138C54.9701 3.95644 54.8747 5.51771 54.936 6.11819C55.0858 7.5311 55.2152 8.97935 55.331 10.4135C55.583 13.4653 55.7669 16.5313 55.8895 19.5974C56.1279 25.5952 56.1142 31.6071 55.8895 37.5978C55.8282 39.2085 58.2392 39.2085 58.3005 37.5978C58.6332 29.2562 58.5058 20.9017 57.9191 12.5752C57.776 10.5971 57.6058 8.63317 57.4083 6.66216C57.2721 5.24925 57.3334 3.40542 56.6932 2.1338C55.5285 -0.197498 52.4705 -0.176304 50.3047 0.169859C48.7791 0.410053 49.4261 2.81904 50.9449 2.57885L50.9381 2.5718Z" fill="black" fill-opacity="0.2"/>
<path d="M85.4103 58.1142C85.3013 59.6754 85.3285 61.3285 85.0834 62.8615C84.6407 65.6308 83.4284 66.0476 81.1332 66.8671C78.1661 67.8871 75.1227 68.6503 72.0341 69.149C68.8195 69.7071 65.5776 70.0886 62.3493 70.5054C59.1211 70.9222 55.6408 71.6922 52.4058 70.6043C50.9278 70.1098 50.2944 72.5188 51.7655 73.0204C55.5114 74.2779 59.4548 73.3807 63.262 72.8861C67.3484 72.3563 71.5097 71.8759 75.5689 71.007C78.7426 70.3005 83.4284 69.594 86.0096 67.3617C88.2435 65.433 87.6374 60.7775 87.8212 58.1142C87.9302 56.5105 85.5193 56.5176 85.4103 58.1142Z" fill="black"/>
<path d="M85.4103 58.1142C85.3013 59.6754 85.3285 61.3285 85.0834 62.8615C84.6407 65.6308 83.4284 66.0476 81.1332 66.8671C78.1661 67.8871 75.1227 68.6503 72.0341 69.149C68.8195 69.7071 65.5776 70.0886 62.3493 70.5054C59.1211 70.9222 55.6408 71.6922 52.4058 70.6043C50.9278 70.1098 50.2944 72.5188 51.7655 73.0204C55.5114 74.2779 59.4548 73.3807 63.262 72.8861C67.3484 72.3563 71.5097 71.8759 75.5689 71.007C78.7426 70.3005 83.4284 69.594 86.0096 67.3617C88.2435 65.433 87.6374 60.7775 87.8212 58.1142C87.9302 56.5105 85.5193 56.5176 85.4103 58.1142Z" fill="black" fill-opacity="0.2"/>
<path d="M56.3628 73.8742C58.7637 82.4653 60.1182 91.3344 60.3947 100.275L61.2801 99.0664C60.4282 99.3605 59.5353 99.5062 58.6375 99.4974C57.0847 99.4974 57.0847 101.984 58.6375 101.998C59.7519 102.018 60.8616 101.844 61.9203 101.483C62.1729 101.406 62.3951 101.247 62.5544 101.03C62.7137 100.812 62.8018 100.548 62.8057 100.275C62.5387 91.1114 61.1658 82.0192 58.7193 73.2102C58.2834 71.6701 55.9541 72.3271 56.39 73.8742H56.3628Z" fill="black"/>
<path d="M56.3628 73.8742C58.7637 82.4653 60.1182 91.3344 60.3947 100.275L61.2801 99.0664C60.4282 99.3605 59.5353 99.5062 58.6375 99.4974C57.0847 99.4974 57.0847 101.984 58.6375 101.998C59.7519 102.018 60.8616 101.844 61.9203 101.483C62.1729 101.406 62.3951 101.247 62.5544 101.03C62.7137 100.812 62.8018 100.548 62.8057 100.275C62.5387 91.1114 61.1658 82.0192 58.7193 73.2102C58.2834 71.6701 55.9541 72.3271 56.39 73.8742H56.3628Z" fill="black" fill-opacity="0.2"/>
<path d="M0.3325 87.2056C4.33717 91.6846 10.1126 89.5793 14.8801 87.7849L34.5833 80.3813L33.6503 78.1136L32.0975 79.0178C30.7353 79.8091 31.9544 81.9708 33.3165 81.1796L34.8694 80.2753C36.034 79.5689 35.2508 77.4919 33.9431 77.9864L18.1832 83.9136C13.6201 85.6303 6.12838 90.0385 2.03517 85.4537C0.979514 84.2739 -0.723153 86.0471 0.3325 87.2268V87.2056Z" fill="black"/>
<path d="M0.3325 87.2056C4.33717 91.6846 10.1126 89.5793 14.8801 87.7849L34.5833 80.3813L33.6503 78.1136L32.0975 79.0178C30.7353 79.8091 31.9544 81.9708 33.3165 81.1796L34.8694 80.2753C36.034 79.5689 35.2508 77.4919 33.9431 77.9864L18.1832 83.9136C13.6201 85.6303 6.12838 90.0385 2.03517 85.4537C0.979514 84.2739 -0.723153 86.0471 0.3325 87.2268V87.2056Z" fill="black" fill-opacity="0.2"/>
<path d="M6.78117 85.468C6.83565 85.1642 6.88332 84.8604 6.93781 84.5567L5.16705 85.3055L9.58715 88.3857C10.8812 89.2899 12.0867 87.1211 10.8063 86.2239L6.37934 83.1438C6.21947 83.0485 6.04074 82.9923 5.85676 82.9794C5.67278 82.9666 5.4884 82.9974 5.31765 83.0696C5.1469 83.1418 4.99428 83.2535 4.87141 83.3961C4.74853 83.5387 4.65864 83.7085 4.60857 83.8926C4.56089 84.1964 4.50641 84.5002 4.45873 84.8039C4.19312 86.3793 6.50193 87.0505 6.78117 85.468Z" fill="black"/>
<path d="M6.78117 85.468C6.83565 85.1642 6.88332 84.8604 6.93781 84.5567L5.16705 85.3055L9.58715 88.3857C10.8812 89.2899 12.0867 87.1211 10.8063 86.2239L6.37934 83.1438C6.21947 83.0485 6.04074 82.9923 5.85676 82.9794C5.67278 82.9666 5.4884 82.9974 5.31765 83.0696C5.1469 83.1418 4.99428 83.2535 4.87141 83.3961C4.74853 83.5387 4.65864 83.7085 4.60857 83.8926C4.56089 84.1964 4.50641 84.5002 4.45873 84.8039C4.19312 86.3793 6.50193 87.0505 6.78117 85.468Z" fill="black" fill-opacity="0.2"/>
<path d="M9.93754 83.6307C11.5171 84.564 12.8234 85.9238 13.7174 87.5657C13.8791 87.8523 14.1439 88.0606 14.4536 88.1448C14.7634 88.2289 15.0926 88.182 15.369 88.0143C15.6454 87.8466 15.8462 87.5719 15.9273 87.2506C16.0084 86.9293 15.9631 86.5878 15.8015 86.3011C14.6982 84.2875 13.091 82.6205 11.1498 81.476C9.7877 80.6848 8.58222 82.8465 9.93754 83.6307Z" fill="black"/>
<path d="M9.93754 83.6307C11.5171 84.564 12.8234 85.9238 13.7174 87.5657C13.8791 87.8523 14.1439 88.0606 14.4536 88.1448C14.7634 88.2289 15.0926 88.182 15.369 88.0143C15.6454 87.8466 15.8462 87.5719 15.9273 87.2506C16.0084 86.9293 15.9631 86.5878 15.8015 86.3011C14.6982 84.2875 13.091 82.6205 11.1498 81.476C9.7877 80.6848 8.58222 82.8465 9.93754 83.6307Z" fill="black" fill-opacity="0.2"/>
<path d="M13.7973 82.217L17.7476 85.5161C17.9777 85.7417 18.2823 85.8674 18.5989 85.8674C18.9155 85.8674 19.2201 85.7417 19.4502 85.5161C19.6757 85.2817 19.8022 84.9642 19.8022 84.6331C19.8022 84.302 19.6757 83.9844 19.4502 83.75L15.5 80.4508C15.2699 80.2253 14.9653 80.0996 14.6487 80.0996C14.3321 80.0996 14.0274 80.2253 13.7973 80.4508C13.5719 80.6852 13.4453 81.0028 13.4453 81.3339C13.4453 81.665 13.5719 81.9826 13.7973 82.217Z" fill="black"/>
<path d="M13.7973 82.217L17.7476 85.5161C17.9777 85.7417 18.2823 85.8674 18.5989 85.8674C18.9155 85.8674 19.2201 85.7417 19.4502 85.5161C19.6757 85.2817 19.8022 84.9642 19.8022 84.6331C19.8022 84.302 19.6757 83.9844 19.4502 83.75L15.5 80.4508C15.2699 80.2253 14.9653 80.0996 14.6487 80.0996C14.3321 80.0996 14.0274 80.2253 13.7973 80.4508C13.5719 80.6852 13.4453 81.0028 13.4453 81.3339C13.4453 81.665 13.5719 81.9826 13.7973 82.217Z" fill="black" fill-opacity="0.2"/>
<path d="M16.999 80.4943C18.4428 82.0249 19.8844 83.5626 21.3237 85.1074C22.4066 86.2589 24.1093 84.4928 23.0264 83.3342L18.7084 78.7211C17.6187 77.5625 15.9161 79.3357 16.999 80.4943Z" fill="black"/>
<path d="M16.999 80.4943C18.4428 82.0249 19.8844 83.5626 21.3237 85.1074C22.4066 86.2589 24.1093 84.4928 23.0264 83.3342L18.7084 78.7211C17.6187 77.5625 15.9161 79.3357 16.999 80.4943Z" fill="black" fill-opacity="0.2"/>
<path d="M21.3512 78.6076C22.5054 79.8643 23.4718 81.2931 24.2185 82.8464C24.8996 84.2593 27.0041 83.0159 26.3026 81.5818C25.4497 79.8424 24.3577 78.2409 23.0607 76.8273C21.9846 75.6617 20.2819 77.4349 21.3512 78.6005V78.6076Z" fill="black"/>
<path d="M21.3512 78.6076C22.5054 79.8643 23.4718 81.2931 24.2185 82.8464C24.8996 84.2593 27.0041 83.0159 26.3026 81.5818C25.4497 79.8424 24.3577 78.2409 23.0607 76.8273C21.9846 75.6617 20.2819 77.4349 21.3512 78.6005V78.6076Z" fill="black" fill-opacity="0.2"/>
<path d="M23.693 76.6363C24.9049 77.6212 25.8718 78.893 26.5125 80.3452C27.1936 81.8005 29.2367 80.5359 28.5966 79.0877C27.8692 77.4331 26.7747 75.9806 25.4024 74.849C25.1712 74.623 24.8654 74.4971 24.5477 74.4971C24.23 74.4971 23.9242 74.623 23.693 74.849C23.4692 75.0843 23.3438 75.4015 23.3438 75.732C23.3438 76.0626 23.4692 76.3798 23.693 76.6151V76.6363Z" fill="black"/>
<path d="M23.693 76.6363C24.9049 77.6212 25.8718 78.893 26.5125 80.3452C27.1936 81.8005 29.2367 80.5359 28.5966 79.0877C27.8692 77.4331 26.7747 75.9806 25.4024 74.849C25.1712 74.623 24.8654 74.4971 24.5477 74.4971C24.23 74.4971 23.9242 74.623 23.693 74.849C23.4692 75.0843 23.3438 75.4015 23.3438 75.732C23.3438 76.0626 23.4692 76.3798 23.693 76.6151V76.6363Z" fill="black" fill-opacity="0.2"/>
<path d="M26.7854 76.7005C27.3145 77.0082 27.7718 77.4329 28.1249 77.9445C28.478 78.456 28.7183 79.0419 28.8287 79.6606C29.1828 81.2289 31.5053 80.5648 31.1579 78.9965C30.9654 78.0629 30.5833 77.1825 30.0373 76.4138C29.4912 75.6452 28.7936 75.006 27.991 74.5387C26.6288 73.7758 25.4029 75.9517 26.7786 76.7005H26.7854Z" fill="black"/>
<path d="M26.7854 76.7005C27.3145 77.0082 27.7718 77.4329 28.1249 77.9445C28.478 78.456 28.7183 79.0419 28.8287 79.6606C29.1828 81.2289 31.5053 80.5648 31.1579 78.9965C30.9654 78.0629 30.5833 77.1825 30.0373 76.4138C29.4912 75.6452 28.7936 75.006 27.991 74.5387C26.6288 73.7758 25.4029 75.9517 26.7786 76.7005H26.7854Z" fill="black" fill-opacity="0.2"/>
<path d="M53.0946 69.332C53.891 70.5432 54.947 71.5467 56.1798 72.2638C57.542 73.0338 58.7611 70.8509 57.3921 70.102C56.5136 69.6089 55.7563 68.9128 55.1787 68.0674C55.0119 67.7875 54.7476 67.5851 54.4406 67.5022C54.1336 67.4193 53.8077 67.4623 53.5305 67.6224C53.2555 67.7904 53.0555 68.0642 52.9739 68.3843C52.8923 68.7043 52.9357 69.0449 53.0946 69.332Z" fill="black"/>
<path d="M53.0946 69.332C53.891 70.5432 54.947 71.5467 56.1798 72.2638C57.542 73.0338 58.7611 70.8509 57.3921 70.102C56.5136 69.6089 55.7563 68.9128 55.1787 68.0674C55.0119 67.7875 54.7476 67.5851 54.4406 67.5022C54.1336 67.4193 53.8077 67.4623 53.5305 67.6224C53.2555 67.7904 53.0555 68.0642 52.9739 68.3843C52.8923 68.7043 52.9357 69.0449 53.0946 69.332Z" fill="black" fill-opacity="0.2"/>
<path d="M57.8621 68.6106L61.5331 72.4325C61.7589 72.6676 62.0655 72.8001 62.3855 72.8008C62.7054 72.8014 63.0125 72.6702 63.2392 72.436C63.4659 72.2018 63.5936 71.8838 63.5942 71.5519C63.5949 71.22 63.4684 70.9015 63.2426 70.6663L59.5648 66.8444C59.3355 66.6293 59.0352 66.5138 58.726 66.5219C58.4169 66.5299 58.1225 66.6609 57.9039 66.8877C57.6852 67.1145 57.5589 67.4198 57.5512 67.7405C57.5434 68.0612 57.6547 68.3726 57.8621 68.6106Z" fill="black"/>
<path d="M57.8621 68.6106L61.5331 72.4325C61.7589 72.6676 62.0655 72.8001 62.3855 72.8008C62.7054 72.8014 63.0125 72.6702 63.2392 72.436C63.4659 72.2018 63.5936 71.8838 63.5942 71.5519C63.5949 71.22 63.4684 70.9015 63.2426 70.6663L59.5648 66.8444C59.3355 66.6293 59.0352 66.5138 58.726 66.5219C58.4169 66.5299 58.1225 66.6609 57.9039 66.8877C57.6852 67.1145 57.5589 67.4198 57.5512 67.7405C57.5434 68.0612 57.6547 68.3726 57.8621 68.6106Z" fill="black" fill-opacity="0.2"/>
<path d="M62.8693 67.3748C63.4801 69.1208 64.5372 70.6617 65.9273 71.8325C66.1574 72.0581 66.462 72.1837 66.7786 72.1837C67.0952 72.1837 67.3998 72.0581 67.6299 71.8325C67.8553 71.5981 67.9819 71.2805 67.9819 70.9495C67.9819 70.6184 67.8553 70.3008 67.6299 70.0664C66.5407 69.193 65.6984 68.0314 65.1917 66.7037C65.0969 66.3903 64.8907 66.1261 64.615 65.9647C64.3392 65.8033 64.0146 65.7568 63.707 65.8347C63.401 65.927 63.142 66.1398 62.9855 66.4276C62.8289 66.7155 62.7872 67.0554 62.8693 67.3748Z" fill="black"/>
<path d="M62.8693 67.3748C63.4801 69.1208 64.5372 70.6617 65.9273 71.8325C66.1574 72.0581 66.462 72.1837 66.7786 72.1837C67.0952 72.1837 67.3998 72.0581 67.6299 71.8325C67.8553 71.5981 67.9819 71.2805 67.9819 70.9495C67.9819 70.6184 67.8553 70.3008 67.6299 70.0664C66.5407 69.193 65.6984 68.0314 65.1917 66.7037C65.0969 66.3903 64.8907 66.1261 64.615 65.9647C64.3392 65.8033 64.0146 65.7568 63.707 65.8347C63.401 65.927 63.142 66.1398 62.9855 66.4276C62.8289 66.7155 62.7872 67.0554 62.8693 67.3748Z" fill="black" fill-opacity="0.2"/>
<path d="M68.0793 66.2878C68.9376 67.8189 69.9028 69.2828 70.967 70.6678C71.1958 70.8987 71.5025 71.0279 71.8217 71.0279C72.141 71.0279 72.4476 70.8987 72.6765 70.6678C72.8959 70.4288 73.0183 70.1113 73.0183 69.7812C73.0183 69.4511 72.8959 69.1337 72.6765 68.8947C71.7483 67.67 70.9083 66.376 70.1633 65.0233C70.0017 64.7366 69.7368 64.5283 69.4271 64.4442C69.1174 64.36 68.7881 64.407 68.5117 64.5747C68.2354 64.7424 68.0345 65.0171 67.9534 65.3383C67.8723 65.6596 67.9176 66.0012 68.0793 66.2878Z" fill="black"/>
<path d="M68.0793 66.2878C68.9376 67.8189 69.9028 69.2828 70.967 70.6678C71.1958 70.8987 71.5025 71.0279 71.8217 71.0279C72.141 71.0279 72.4476 70.8987 72.6765 70.6678C72.8959 70.4288 73.0183 70.1113 73.0183 69.7812C73.0183 69.4511 72.8959 69.1337 72.6765 68.8947C71.7483 67.67 70.9083 66.376 70.1633 65.0233C70.0017 64.7366 69.7368 64.5283 69.4271 64.4442C69.1174 64.36 68.7881 64.407 68.5117 64.5747C68.2354 64.7424 68.0345 65.0171 67.9534 65.3383C67.8723 65.6596 67.9176 66.0012 68.0793 66.2878Z" fill="black" fill-opacity="0.2"/>
<path d="M71.8904 64.6905C72.6737 65.9904 73.4637 67.2902 74.2469 68.5972C75.0301 69.9041 77.1618 68.7031 76.3309 67.3326L73.9677 63.426C73.1504 62.0696 71.0595 63.32 71.9245 64.6905H71.8904Z" fill="black"/>
<path d="M71.8904 64.6905C72.6737 65.9904 73.4637 67.2902 74.2469 68.5972C75.0301 69.9041 77.1618 68.7031 76.3309 67.3326L73.9677 63.426C73.1504 62.0696 71.0595 63.32 71.9245 64.6905H71.8904Z" fill="black" fill-opacity="0.2"/>
<path d="M74.6715 63.4826C75.3583 65.2702 75.9272 67.1041 76.3741 68.9718C76.7555 70.526 79.0984 69.8689 78.7034 68.3006C78.2481 66.4354 77.6795 64.6021 77.0007 62.8115C76.4355 61.335 74.0994 61.9779 74.6715 63.5179V63.4826Z" fill="black"/>
<path d="M74.6715 63.4826C75.3583 65.2702 75.9272 67.1041 76.3741 68.9718C76.7555 70.526 79.0984 69.8689 78.7034 68.3006C78.2481 66.4354 77.6795 64.6021 77.0007 62.8115C76.4355 61.335 74.0994 61.9779 74.6715 63.5179V63.4826Z" fill="black" fill-opacity="0.2"/>
<path d="M77.2656 62.1402C78.1122 63.8001 78.7006 65.5883 79.0091 67.4387C79.2884 69.0211 81.6176 68.35 81.3384 66.7746C80.9753 64.713 80.3043 62.7227 79.3496 60.8757C78.6209 59.4628 76.5368 60.7203 77.2656 62.1402Z" fill="black"/>
<path d="M77.2656 62.1402C78.1122 63.8001 78.7006 65.5883 79.0091 67.4387C79.2884 69.0211 81.6176 68.35 81.3384 66.7746C80.9753 64.713 80.3043 62.7227 79.3496 60.8757C78.6209 59.4628 76.5368 60.7203 77.2656 62.1402Z" fill="black" fill-opacity="0.2"/>
<path d="M80.0304 61.6743C80.2613 61.995 80.4229 62.3636 80.504 62.755C80.5851 63.1463 80.5838 63.5512 80.5004 63.942C80.4239 64.2621 80.4689 64.6004 80.6261 64.887C80.7832 65.1737 81.0406 65.3867 81.3449 65.4821C81.6537 65.567 81.9822 65.5227 82.2599 65.3589C82.5375 65.1951 82.7421 64.9248 82.8296 64.6061C82.9953 63.8932 83.0173 63.1526 82.8943 62.4305C82.7712 61.7084 82.5057 61.0205 82.1145 60.4097C81.9464 60.1295 81.6814 59.9265 81.3736 59.8424C81.0659 59.7584 80.7389 59.7996 80.4595 59.9576C80.1852 60.1282 79.9865 60.4037 79.9062 60.7248C79.8259 61.046 79.8706 61.387 80.0304 61.6743Z" fill="black"/>
<path d="M80.0304 61.6743C80.2613 61.995 80.4229 62.3636 80.504 62.755C80.5851 63.1463 80.5838 63.5512 80.5004 63.942C80.4239 64.2621 80.4689 64.6004 80.6261 64.887C80.7832 65.1737 81.0406 65.3867 81.3449 65.4821C81.6537 65.567 81.9822 65.5227 82.2599 65.3589C82.5375 65.1951 82.7421 64.9248 82.8296 64.6061C82.9953 63.8932 83.0173 63.1526 82.8943 62.4305C82.7712 61.7084 82.5057 61.0205 82.1145 60.4097C81.9464 60.1295 81.6814 59.9265 81.3736 59.8424C81.0659 59.7584 80.7389 59.7996 80.4595 59.9576C80.1852 60.1282 79.9865 60.4037 79.9062 60.7248C79.8259 61.046 79.8706 61.387 80.0304 61.6743Z" fill="black" fill-opacity="0.2"/>
<path d="M82.7035 59.7954C82.5293 61.3279 82.6192 62.8804 82.9691 64.3803C83.3369 65.9415 85.6593 65.2775 85.2983 63.7091C85.0126 62.4263 84.9503 61.1009 85.1145 59.7954C85.1145 59.4637 84.9874 59.1457 84.7614 58.9112C84.5353 58.6767 84.2287 58.5449 83.909 58.5449C83.5915 58.5521 83.2889 58.6862 83.0643 58.9191C82.8397 59.1521 82.7105 59.466 82.7035 59.7954Z" fill="black"/>
<path d="M82.7035 59.7954C82.5293 61.3279 82.6192 62.8804 82.9691 64.3803C83.3369 65.9415 85.6593 65.2775 85.2983 63.7091C85.0126 62.4263 84.9503 61.1009 85.1145 59.7954C85.1145 59.4637 84.9874 59.1457 84.7614 58.9112C84.5353 58.6767 84.2287 58.5449 83.909 58.5449C83.5915 58.5521 83.2889 58.6862 83.0643 58.9191C82.8397 59.1521 82.7105 59.466 82.7035 59.7954Z" fill="black" fill-opacity="0.2"/>
<path d="M54.839 76.7714C56.248 78.0875 57.292 79.7705 57.8629 81.6459C58.3396 83.1648 60.6689 82.5149 60.1921 80.9395C59.5078 78.6423 58.2509 76.5734 56.5484 74.9417C55.3974 73.8608 53.688 75.6481 54.839 76.7078V76.7714Z" fill="black"/>
<path d="M54.839 76.7714C56.248 78.0875 57.292 79.7705 57.8629 81.6459C58.3396 83.1648 60.6689 82.5149 60.1921 80.9395C59.5078 78.6423 58.2509 76.5734 56.5484 74.9417C55.3974 73.8608 53.688 75.6481 54.839 76.7078V76.7714Z" fill="black" fill-opacity="0.2"/>
<path d="M56.4381 81.878L58.4063 86.2298C59.0874 87.6851 61.1306 86.4135 60.4836 84.9652L58.5426 80.6134C57.8615 79.1581 55.8183 80.4227 56.4585 81.878H56.4381Z" fill="black"/>
<path d="M56.4381 81.878L58.4063 86.2298C59.0874 87.6851 61.1306 86.4135 60.4836 84.9652L58.5426 80.6134C57.8615 79.1581 55.8183 80.4227 56.4585 81.878H56.4381Z" fill="black" fill-opacity="0.2"/>
<path d="M57.3913 84.2585C57.4464 86.5413 57.7666 88.8089 58.3448 91.0123C58.4329 91.3291 58.638 91.597 58.9155 91.7577C59.193 91.9184 59.5205 91.9589 59.8267 91.8705C60.1329 91.782 60.3931 91.5717 60.5505 91.2852C60.7079 90.9988 60.7499 90.6595 60.6674 90.3411C60.1452 88.3568 59.8547 86.3147 59.8024 84.2585C59.7547 82.6478 57.3436 82.6408 57.3913 84.2585Z" fill="black"/>
<path d="M57.3913 84.2585C57.4464 86.5413 57.7666 88.8089 58.3448 91.0123C58.4329 91.3291 58.638 91.597 58.9155 91.7577C59.193 91.9184 59.5205 91.9589 59.8267 91.8705C60.1329 91.782 60.3931 91.5717 60.5505 91.2852C60.7079 90.9988 60.7499 90.6595 60.6674 90.3411C60.1452 88.3568 59.8547 86.3147 59.8024 84.2585C59.7547 82.6478 57.3436 82.6408 57.3913 84.2585Z" fill="black" fill-opacity="0.2"/>
<path d="M58.3757 90.4491C58.0115 93.0684 57.9771 95.7258 58.2735 98.3543C58.4574 99.9297 60.8684 99.9509 60.6845 98.3543C60.3848 95.953 60.3848 93.5216 60.6845 91.1202C60.8956 89.5448 58.5664 88.8596 58.362 90.4138L58.3757 90.4491Z" fill="black"/>
<path d="M58.3757 90.4491C58.0115 93.0684 57.9771 95.7258 58.2735 98.3543C58.4574 99.9297 60.8684 99.9509 60.6845 98.3543C60.3848 95.953 60.3848 93.5216 60.6845 91.1202C60.8956 89.5448 58.5664 88.8596 58.362 90.4138L58.3757 90.4491Z" fill="black" fill-opacity="0.2"/>
<path d="M50.1999 6.34391C50.5165 7.54353 51.2426 8.5829 52.2431 9.26857C52.9241 9.7984 54.1092 10.4201 54.2113 11.3879C54.3748 12.9774 56.7858 12.9915 56.6223 11.3879C56.5578 10.7411 56.3611 10.1161 56.0451 9.55446C55.7292 8.99286 55.3014 8.50764 54.7902 8.13121C53.9389 7.42477 52.747 6.8596 52.5155 5.67278C52.1749 4.10448 49.8457 4.76854 50.1862 6.33684L50.1999 6.34391Z" fill="black"/>
<path d="M50.1999 6.34391C50.5165 7.54353 51.2426 8.5829 52.2431 9.26857C52.9241 9.7984 54.1092 10.4201 54.2113 11.3879C54.3748 12.9774 56.7858 12.9915 56.6223 11.3879C56.5578 10.7411 56.3611 10.1161 56.0451 9.55446C55.7292 8.99286 55.3014 8.50764 54.7902 8.13121C53.9389 7.42477 52.747 6.8596 52.5155 5.67278C52.1749 4.10448 49.8457 4.76854 50.1862 6.33684L50.1999 6.34391Z" fill="black" fill-opacity="0.2"/>
<path d="M51.2903 13.0627C52.769 13.8665 53.9619 15.1386 54.6957 16.694C55.3767 18.1069 57.488 16.8635 56.7797 15.4294C55.8371 13.4923 54.3346 11.909 52.4822 10.9009C51.1201 10.1944 49.8874 12.3138 51.2699 13.0627H51.2903Z" fill="black"/>
<path d="M51.2903 13.0627C52.769 13.8665 53.9619 15.1386 54.6957 16.694C55.3767 18.1069 57.488 16.8635 56.7797 15.4294C55.8371 13.4923 54.3346 11.909 52.4822 10.9009C51.1201 10.1944 49.8874 12.3138 51.2699 13.0627H51.2903Z" fill="black" fill-opacity="0.2"/>
<path d="M51.7733 17.8595C52.0237 18.9761 52.631 19.9721 53.4963 20.6853C54.1365 21.2717 55.1037 21.8721 55.1241 22.8541C55.1241 24.4578 57.5623 24.4648 57.5351 22.8541C57.5152 22.2454 57.3721 21.6478 57.1151 21.1001C56.8582 20.5524 56.4931 20.0669 56.0435 19.6751C55.2875 18.9686 54.3 18.3469 54.1025 17.2307C53.8165 15.6483 51.494 16.3194 51.7733 17.8948V17.8595Z" fill="black"/>
<path d="M51.7733 17.8595C52.0237 18.9761 52.631 19.9721 53.4963 20.6853C54.1365 21.2717 55.1037 21.8721 55.1241 22.8541C55.1241 24.4578 57.5623 24.4648 57.5351 22.8541C57.5152 22.2454 57.3721 21.6478 57.1151 21.1001C56.8582 20.5524 56.4931 20.0669 56.0435 19.6751C55.2875 18.9686 54.3 18.3469 54.1025 17.2307C53.8165 15.6483 51.494 16.3194 51.7733 17.8948V17.8595Z" fill="black" fill-opacity="0.2"/>
<path d="M52.7052 23.2364C52.7743 24.2013 53.1784 25.1073 53.8425 25.7867C54.0945 26.0764 54.9663 26.7192 54.8914 27.1996C54.6257 28.775 56.9345 29.4532 57.2137 27.8707C57.3081 27.3581 57.2838 26.8295 57.1429 26.3284C57.002 25.8273 56.7485 25.3681 56.4033 24.9884C56.0219 24.5151 55.157 23.9287 55.1229 23.2647C55.0344 21.661 52.6234 21.6469 52.7052 23.2647V23.2364Z" fill="black"/>
<path d="M52.7052 23.2364C52.7743 24.2013 53.1784 25.1073 53.8425 25.7867C54.0945 26.0764 54.9663 26.7192 54.8914 27.1996C54.6257 28.775 56.9345 29.4532 57.2137 27.8707C57.3081 27.3581 57.2838 26.8295 57.1429 26.3284C57.002 25.8273 56.7485 25.3681 56.4033 24.9884C56.0219 24.5151 55.157 23.9287 55.1229 23.2647C55.0344 21.661 52.6234 21.6469 52.7052 23.2647V23.2364Z" fill="black" fill-opacity="0.2"/>
<path d="M52.4149 31.0497C53.3492 32.3155 54.0932 33.7208 54.6216 35.2178C55.1528 36.7155 57.4821 36.0726 56.9508 34.5537C56.3694 32.8453 55.5428 31.2377 54.499 29.7851C54.3288 29.5091 54.0646 29.31 53.759 29.2275C53.4534 29.145 53.1291 29.1851 52.8508 29.34C52.5758 29.5081 52.3758 29.7818 52.2942 30.1019C52.2126 30.422 52.256 30.7625 52.4149 31.0497Z" fill="black"/>
<path d="M52.4149 31.0497C53.3492 32.3155 54.0932 33.7208 54.6216 35.2178C55.1528 36.7155 57.4821 36.0726 56.9508 34.5537C56.3694 32.8453 55.5428 31.2377 54.499 29.7851C54.3288 29.5091 54.0646 29.31 53.759 29.2275C53.4534 29.145 53.1291 29.1851 52.8508 29.34C52.5758 29.5081 52.3758 29.7818 52.2942 30.1019C52.2126 30.422 52.256 30.7625 52.4149 31.0497Z" fill="black" fill-opacity="0.2"/>
</svg>
